<?xml version="1.0" standalone="no"?>
<!DOCTYPE svg PUBLIC "-//W3C//DTD SVG 1.1//EN" "http://www.w3.org/Graphics/SVG/1.1/DTD/svg11.dtd" >
<svg xmlns="http://www.w3.org/2000/svg" xmlns:xlink="http://www.w3.org/1999/xlink" version="1.1">
<metadata></metadata>
<defs>
<font id="signerica_thinregular" horiz-adv-x="1505" >
<font-face units-per-em="2048" ascent="1536" descent="-512" />
<missing-glyph horiz-adv-x="1920" />
<glyph horiz-adv-x="0" />
<glyph unicode="&#xd;" horiz-adv-x="512" />
<glyph unicode=" "  horiz-adv-x="1920" />
<glyph unicode="&#x09;" horiz-adv-x="1920" />
<glyph unicode="&#xa0;" horiz-adv-x="1920" />
<glyph unicode="!" horiz-adv-x="517" d="M108 -106q-11 27 1 38q11 10 37.5 -1t53.5 -37q27 -27 38 -54.5t0 -38.5t-38.5 1t-53.5 38q-27 27 -38 54zM195.5 394q0.5 36 3.5 84t9.5 106.5t17 123.5t23.5 134.5t31 141.5q22 96 48 191.5t53.5 183t53.5 164t48.5 134.5t40 94.5t25.5 43.5q19 17 27 4.5t2 -44.5 t-24.5 -77t-51.5 -92q-24 -33 -53.5 -104t-61 -164.5t-61 -202.5t-53.5 -219q-24 -111 -39 -212.5t-21 -181.5q-4 -40 -5 -72t-2 -55q-1 -27 0 -47q-3 -17 -5.5 -14t-4 23.5t-1 56.5z" />
<glyph unicode="&#x22;" horiz-adv-x="276" d="M25 449.5q2 19.5 7 46.5t9 57t7 59t7.5 53t12.5 41t20 23q22 10 42 12t30 -2.5t5 -16t-33 -28.5q-19 -12 -31.5 -29.5t-20 -38t-12.5 -43.5t-9 -46q-4 -24 -7 -45t-6 -37q-4 -19 -6 -36q-11 -7 -14 2t-1 28.5zM158 449.5q2 19.5 7 46.5t9 57t7 59t8 53t12.5 41t19.5 23 q22 10 42 12t30 -2.5t5 -16t-33 -28.5q-19 -12 -31.5 -29.5t-20 -38t-12 -43.5t-8.5 -46l-7.5 -45t-6.5 -37q-4 -19 -6 -36q-11 -7 -14 2t-1 28.5z" />
<glyph unicode="#" horiz-adv-x="785" d="M-14 107q3 12 15.5 18t32.5 4t44 -17q16 -10 48 -15.5t72 -6t86 1.5t92 6q106 10 231 28q14 -4 -3.5 -9.5t-56 -11.5t-93 -12t-113.5 -11t-118.5 -8t-108.5 -3.5t-82 2.5t-39 10q-10 12 -7 24zM106.5 -192.5q-1.5 2.5 2 13t9 29t11.5 44.5q12 51 24 124t21 155 q9 81 17 163t14.5 148.5t13 111t14.5 52.5q13 13 24.5 7.5t16.5 -24t0.5 -46t-22.5 -58.5q-12 -22 -21.5 -64t-17.5 -97.5t-15.5 -118.5t-15.5 -125t-17 -119t-21 -100q-5 -22 -9.5 -39.5t-9.5 -28.5q-5 -13 -10 -23q-7 -7 -8.5 -4.5zM118 372.5q3 11.5 13.5 17t27.5 2.5 t37 -18q13 -11 39.5 -17.5t61 -9.5t73.5 -3t77 2q92 5 197 18q12 -5 -3 -10t-48 -9t-79 -7.5t-96 -5.5t-101 -2.5t-92.5 1t-69 6t-32.5 12.5q-8 12 -5 23.5zM425.5 -140.5q3.5 21.5 11.5 70.5t17 119t18 147t18 153.5t17 139t16.5 104t17.5 48.5q13 11 24.5 5.5t15.5 -23 t-2 -43t-24 -53.5q-13 -19 -24 -59t-20 -91t-16.5 -110.5t-14.5 -118.5q-8 -59 -14.5 -112.5t-13.5 -94.5q-3 -20 -7 -37.5t-6 -28.5q-4 -13 -6 -23q-11 -14 -7.5 7.5z" />
<glyph unicode="$" horiz-adv-x="1575" d="M-575 629q0 10 6 21q6 12 18 24.5t28 23.5q10 6 17 10t22 12q15 7 42.5 19.5t81.5 32.5q53 19 136.5 44.5t211.5 53.5q65 14 140 28.5t163 34.5q59 13 124 28t136 34q-2 10 -4 16q-5 25 -8 50.5t-2 53.5q1 29 8.5 58.5t21.5 58.5q30 58 87.5 108t139.5 77q54 18 105 25.5 t98 5.5q48 -1 91.5 -9.5t78.5 -29.5q17 -11 32 -26t21 -35q5 -20 -1.5 -39.5t-16.5 -33.5q-20 -30 -45 -49.5t-51 -36.5q-51 -33 -101 -56t-102 -43q-51 -20 -105 -39.5t-115 -38.5q-23 -7 -44.5 -13.5t-41.5 -12.5q11 -41 26 -76.5t30 -66.5q36 -71 71.5 -130t76.5 -122 q22 -32 45 -65.5t50 -71.5t58 -81.5t67 -94.5q36 -52 77 -112t84 -134q20 -37 40 -79t33 -91q7 -25 11 -51.5t0 -55.5q-3 -29 -16.5 -56.5t-36.5 -48.5q-24 -22 -49.5 -35.5t-52.5 -23.5q-28 -10 -54.5 -15.5t-52.5 -10.5q-53 -8 -103.5 -11t-99.5 -3q-97 0 -184 6.5 t-165 21.5q-39 8 -75.5 18.5t-70.5 24.5q-33 14 -62.5 33t-53.5 44t-37.5 54.5t-18.5 59.5t-2.5 58t8.5 51q13 49 32 87t38 68q18 31 35.5 54.5t32.5 41.5q30 37 47 56.5t25 27.5q25 27 49 38t32 3q7 -8 -5.5 -30.5t-36.5 -48.5l-19 -19t-31 -33q-18 -19 -51 -61 q-15 -20 -33.5 -45.5t-37.5 -60.5q-9 -17 -18 -36.5t-16 -43.5q-7 -23 -10.5 -48t-0.5 -52q4 -27 17 -54t36 -51q24 -24 56 -42t70 -32q76 -29 169.5 -43t202.5 -19q55 -2 113 -2t119 5q31 3 63 8.5t63 14.5q31 8 62 22.5t56 37.5q24 22 36 50t13 58q2 30 -4 58.5t-14 54.5 q-18 52 -42.5 98t-49.5 88q-50 83 -98 149t-90 123t-78 106t-67.5 92t-58 82t-50.5 75t-45 72t-40 73q-15 31 -29 63t-25 69q-153 -43 -274 -69.5t-217 -48.5q-114 -27 -192 -50t-132 -42q-54 -20 -88 -35t-58 -28q-26 -13 -45.5 -24t-43.5 -27q-14 -9 -26 -16t-23 -12 q-10 -5 -16.5 -7t-11.5 0t-5 12zM502.5 -684.5q2.5 52.5 20 131t51.5 163.5q16 40 35 108.5t39 158.5t41 196.5t42 223.5t42 239.5t40 243.5q69 426 141 929q12 43 10.5 4t-14.5 -138t-34.5 -247t-49 -324.5t-59.5 -369.5t-64 -380.5t-63.5 -360t-58 -307.5t-47 -221.5 t-30.5 -103.5q-22 -35 -33 -16.5t-8.5 71zM579.5 1107.5q-0.5 -27.5 3 -53t9.5 -48.5q50 13 104 30q61 18 127 42t133 55q33 15 67 33t67 39q16 11 31.5 22.5t29.5 25.5q14 13 25.5 28.5t16.5 32.5q9 33 -22 57q-14 11 -32.5 19.5t-38.5 13.5q-42 10 -86.5 11t-90.5 -5 t-91 -20t-88 -37q-42 -24 -77 -57t-59 -77q-15 -28 -21.5 -56t-7 -55.5z" />
<glyph unicode="%" horiz-adv-x="753" d="M-204.5 -369.5q0.5 3.5 14.5 17t38 37t55 57.5q62 68 144 165.5t171 208.5q58 74 117 148t114 143.5t103 130.5t86.5 107t64 75t35.5 33q24 10 27.5 -4t-10.5 -42t-44.5 -64t-75.5 -69q-32 -24 -82 -78.5t-111 -127t-129.5 -157.5t-136.5 -169q-69 -84 -132.5 -160 t-116.5 -132q-26 -29 -47 -50.5t-38 -35.5q-18 -18 -33 -30q-14 -7 -13.5 -3.5zM14 592q0 17 4.5 29t9.5 20q9 16 15 17q10 5 16.5 3t9.5 -7q5 -8 5 -27q-1 -8 -2 -17.5t-1 -17.5t3.5 -19.5t14.5 -26.5q14 -24 66 -39q49 -13 117 -15q34 0 71 6q18 3 37 9t38 18q20 13 31 36 q5 11 6.5 24t-0.5 24q-2 12 -6 23q-2 6 -5 10q-1 1 -3 5l-1 1v1l-1 1t-1 2l-2 2q-6 8 -12.5 14.5t-14.5 13.5q-29 27 -62 46.5t-67 29.5q-36 10 -69.5 6.5t-59.5 -14.5t-43 -25t-28 -26q-5 -6 -9.5 -10.5l-7.5 -7.5q-4 -4 -5 -6q-9 -7 -9.5 -3.5t7.5 14.5t25 30.5t49 37.5 q15 8 34 14.5t42 8.5q46 5 93 -12q45 -15 87 -47q11 -8 20.5 -16.5t19.5 -16.5q5 -5 9 -9.5t9 -9.5q8 -9 11.5 -16.5t7.5 -15.5q5 -15 6.5 -33.5t-5.5 -37.5q-6 -18 -18.5 -32t-25.5 -22q-28 -17 -54.5 -23t-52.5 -10q-26 -2 -49.5 -2.5t-47.5 0.5q-48 2 -89 12 q-22 5 -41 13.5t-37 22.5q-17 14 -26 33t-9 37zM215 -219q0 17 4 29t9 20q9 16 16 17q10 5 16 3t9 -7q5 -8 5 -27q-1 -8 -2 -17.5t-1 -17.5t4 -19.5t15 -26.5q14 -24 65 -39q49 -13 118 -15q34 0 71 6q18 3 37 9t37 18q20 13 31 36q5 11 6.5 24t-0.5 24q-2 12 -6 23 q-2 6 -4 10q-1 1 -3 5l-1 1v1l-1 1q-1 1 -1 2l-2 2q-6 8 -13 14.5t-15 13.5q-29 27 -61.5 46.5t-67.5 29.5q-36 10 -69 6.5t-60 -14.5q-26 -11 -42.5 -25t-27.5 -26q-5 -6 -10 -10.5t-7 -7.5q-4 -4 -5 -6q-9 -7 -9.5 -3.5t7.5 14.5t25 30.5t49 37.5q15 8 34 14.5t42 8.5 q46 5 93 -12q45 -15 87 -47q11 -8 20 -16.5t20 -16.5q5 -5 9 -9.5t9 -9.5q8 -9 11 -16.5t8 -15.5q5 -15 6.5 -33.5t-5.5 -37.5q-6 -18 -18.5 -32t-25.5 -22q-28 -17 -54.5 -23t-52.5 -10q-26 -2 -50 -2.5t-47 0.5q-48 2 -89 12q-22 5 -41.5 13.5t-36.5 22.5t-26 33t-9 37z " />
<glyph unicode="&#x26;" horiz-adv-x="1339" d="M-58 936.5q5 57.5 25 115.5q39 115 124.5 217t205.5 183q123 83 249 127t246 59q60 8 116.5 10t111.5 0q54 -2 105 -8.5t99 -18.5q47 -11 90 -31.5t76 -54.5q33 -33 47 -76q7 -20 9.5 -41t1.5 -42q-2 -40 -12 -75t-22 -67q-13 -31 -27.5 -58.5t-28.5 -52.5 q-30 -49 -58 -88t-53 -71q-25 -33 -46 -57.5l-39 -45.5q-36 -41 -56 -62.5t-30 -31.5q-33 -32 -63.5 -45.5t-40.5 -2.5q-5 6 -3 16t9 23.5t19.5 29.5t27.5 31q11 10 24.5 22.5t40.5 39.5q26 26 68.5 69.5t104.5 122.5q30 39 63 89.5t59 117.5q12 34 20.5 72t0.5 78 q-6 42 -35 74q-14 17 -32.5 31t-40.5 26q-45 24 -98 36.5t-111 19.5q-59 6 -123.5 8t-132.5 -3t-140 -19.5t-146 -40.5q-74 -27 -147.5 -64.5t-145.5 -90.5q-131 -98 -210 -219t-92 -244q-7 -61 4.5 -116.5t38.5 -101.5q26 -46 60.5 -80t72.5 -58q37 -25 75 -42.5t75 -30.5 q36 -12 71 -21t68 -15q68 -12 127 -16.5t114 -6.5q55 -1 107.5 0.5t106 5t108 9t115.5 12.5q30 4 61.5 8.5t65.5 9.5l33 6q5 1 9 1t9 1l4 1h3q4 -31 5.5 -38.5t1 -6t-1.5 5.5t0 -3h-1l-9 -1q-18 -2 -36.5 -5t-38.5 -5q-77 -11 -165.5 -25.5t-192.5 -35.5 q-138 -27 -251.5 -54t-208.5 -56q-48 -14 -90.5 -30t-81.5 -34q-39 -17 -73.5 -37t-63.5 -44q-14 -12 -26.5 -26t-20.5 -30q-18 -33 -11 -68q3 -17 12 -32t20 -29q11 -13 23.5 -25t26.5 -23q27 -22 57.5 -40t65.5 -30t73 -17.5t78 -2.5q66 6 122 30t104 55q48 32 87.5 67.5 t73.5 71.5t63 72t53 70q13 17 24.5 34.5t23.5 33.5q5 8 9.5 17t9.5 17l5 8l1 2l1 1q2 -2 0.5 -1t-2 1.5t2 -1t13.5 -8.5l-4 -4q-2 -4 -4.5 -8t-5.5 -8q-20 -30 -36 -59.5t-28 -56.5q-11 -29 -18.5 -55.5t-7.5 -51.5q-1 -24 6.5 -42.5t22.5 -30.5q14 -11 30.5 -16.5 t32.5 -7.5q33 -5 61 -2.5t52 5.5q24 4 43 8t37 8q34 9 61.5 17t63.5 18q43 11 75.5 10.5t37.5 -14.5q2 -7 -4 -16t-18.5 -18t-31 -17t-40.5 -15q-14 -4 -23.5 -6t-29.5 -5q-20 -4 -58 -10q-20 -3 -47.5 -7t-63.5 -6q-18 -2 -39 -2t-45 2t-51 8t-56 24q-32 19 -45 57 q-7 17 -7.5 36t1.5 38q5 37 20 73.5t36 73.5q10 18 21.5 37t25.5 38q3 5 6.5 9t6.5 9q1 1 1 1.5t1 1.5q23 -15 28.5 -18.5t4 -3t-4.5 2.5t2 -1l-1 -1v-1l-3 -6l-8 -10q-6 -10 -12.5 -19.5t-13.5 -20.5q-56 -84 -132 -168q-39 -43 -85 -84.5t-104 -77.5q-55 -37 -123 -65 t-148 -27q-85 0 -170 41q-41 20 -78 49q-19 14 -37 30t-33 36t-24 47.5t-3 55.5q6 29 22 52t35 42q40 36 86.5 62.5t97.5 49.5q100 45 209.5 79.5t228.5 64.5q120 30 246 54.5t262 43.5q18 3 36.5 5.5t37.5 4.5q5 1 9.5 1.5t9.5 0.5h2q0 4 1 -3.5t3 -20.5t4 -27t3 -23l1 -9 l-2 16l-2 -1h-5l-9 -2q-10 -1 -19.5 -2t-19.5 -4q-39 -5 -80 -9t-86 -7q-90 -7 -194 -10t-234 6q-65 5 -136 15.5t-149 30.5q-39 11 -78 25t-79 34t-79 47t-74 63q-34 36 -59.5 82t-36.5 100q-11 55 -6 112.5z" />
<glyph unicode="'" horiz-adv-x="0" d="M-78 449.5q2 19.5 7 46.5t10 57q4 30 7 59t7.5 53t12 41t20.5 23q22 10 41.5 12t30 -2.5t5 -16t-32.5 -28.5q-19 -12 -31.5 -29.5t-20.5 -38t-12.5 -43.5t-8.5 -46q-4 -24 -7 -45t-6 -37q-4 -19 -6 -36q-11 -7 -14.5 2t-1.5 28.5z" />
<glyph unicode="(" horiz-adv-x="613" d="M116 141q3 77 17.5 159t40.5 165t60 162.5t74 152.5t83 138.5t85 120.5t80.5 100t69.5 77t53 50.5t31 21.5q29 10 28.5 -5.5t-20.5 -45.5q-22 -30 -59.5 -70t-90.5 -80q-18 -14 -42 -38t-52 -57t-57.5 -74t-60.5 -91q-60 -96 -113 -216.5t-82 -248.5q-15 -65 -23 -127 t-10 -121q-1 -58 4 -111.5t13 -99.5q8 -45 18.5 -81t18.5 -60.5t11 -31.5l9 -20q5 -19 1.5 -16.5t-14.5 23.5q-10 22 -24 61t-27 94q-12 55 -18.5 123t-3.5 146z" />
<glyph unicode=")" horiz-adv-x="613" d="M-189.5 -297.5q0.5 15.5 20.5 45.5q22 30 59.5 70t90.5 80q18 13 42 37.5t51.5 57.5t57.5 74.5t61 90.5q60 96 112.5 216.5t82.5 248.5q15 65 23 127t10 121q1 58 -4 111.5t-14 99.5q-8 45 -18 81t-18.5 60.5t-10.5 31.5l-9 20q-5 19 -1.5 16.5t13.5 -23.5 q10 -22 24.5 -61t27.5 -94q12 -55 18.5 -123t3.5 -146q-3 -77 -18 -159t-40 -165q-26 -83 -60 -162t-74 -152.5t-83 -139t-85 -120.5t-80.5 -100t-70 -77t-53.5 -50.5t-30 -21.5q-29 -10 -28.5 5.5z" />
<glyph unicode="*" horiz-adv-x="913" d="M137 593q-11 6 5.5 8.5t52 2.5t85.5 -1.5t104 -3.5q54 -3 108.5 -6.5t99 -8.5t73.5 -11.5t34 -14.5q8 -12 4.5 -23.5t-15.5 -16.5t-30.5 -1.5t-37.5 21.5q-14 12 -42.5 20.5t-65 14t-78.5 8.5t-83 5q-42 2 -80.5 3.5t-67.5 2.5q-35 1 -66 1zM190.5 457q-5.5 11 0 23.5 t20.5 22.5t42 12q18 1 44.5 15t56 36t61 49t62.5 56q31 28 59 54t50 46q25 24 47 46q12 4 2.5 -9.5t-35 -39.5t-61.5 -59.5t-76 -70.5q-41 -37 -82 -72.5t-76 -63.5t-60 -44.5t-34 -14.5q-15 3 -20.5 14zM284 782q8 12 19 15.5t20.5 -1.5t13.5 -18.5t-2 -35.5 q-5 -15 -0.5 -37t14.5 -47.5t25.5 -53t32.5 -54.5q39 -62 91 -131q0 -14 -17.5 4.5t-43 56t-55.5 85.5t-54 93t-37 79.5t-7 44.5z" />
<glyph unicode="+" horiz-adv-x="913" d="M114 361.5q3 11.5 14.5 17t30 3t40.5 -17.5q15 -11 43 -18t65 -10t79 -3.5t84 0.5t80 2t67 3q34 2 66 3q12 -5 -4 -9t-51.5 -6.5t-85.5 -4.5t-105 -3q-54 -1 -108.5 -1t-99 2.5t-74 6.5t-35.5 12q-9 12 -6 23.5zM309.5 145.5q-0.5 25.5 4.5 70.5t14.5 100.5t21 105 t24.5 85t24 38.5q13 4 24 -1t14.5 -15t-2.5 -22.5t-24 -25.5q-13 -8 -24.5 -27.5t-20.5 -45.5t-15.5 -56.5t-11.5 -61.5q-12 -72 -19 -159q-9 -11 -9.5 14.5z" />
<glyph unicode="," horiz-adv-x="457" d="M23 -286q4 14 17.5 40t34 62.5t42.5 74.5q22 39 41 78.5t32 71.5q13 33 17 50q2 9 3 14t3 8q4 8 5 12q0 4 1 6t2 2.5t2 1.5q5 4 14 2t16 -10q13 -15 10 -38q-5 -22 -23 -36q-14 -10 -28 -29.5t-30 -46.5t-33 -56.5t-34 -58.5q-17 -30 -33 -58t-28 -50q-14 -25 -25 -48 q-10 -6 -6 8z" />
<glyph unicode="-" horiz-adv-x="910" d="M130 318.5q4 11.5 16.5 17t31 2t39.5 -20.5q15 -11 44.5 -18t67.5 -11t81.5 -4.5t86.5 0.5q101 2 220 13q13 -5 -4 -9t-53.5 -8t-88.5 -6.5t-108 -3.5t-112.5 -0.5t-102 3t-77 8t-36.5 13.5q-9 13 -5 24.5z" />
<glyph unicode="." horiz-adv-x="424" d="M108 68q-11 27 1 38q11 10 37.5 -1t53.5 -37q27 -27 38 -54.5t0 -38.5t-38.5 1t-53.5 38q-27 27 -38 54z" />
<glyph unicode="/" horiz-adv-x="789" d="M-204.5 -369.5q0.5 3.5 14.5 17t38 37t55 57.5q62 68 144 165.5t171 208.5q58 74 117 148t114 143.5t103 130.5t86.5 107t64 75t35.5 33q24 10 27.5 -4t-10.5 -42t-44.5 -64t-75.5 -69q-32 -24 -82 -78.5t-111 -127t-129.5 -157.5t-136.5 -169q-69 -84 -132.5 -160 t-116.5 -132q-26 -29 -47 -50.5t-38 -35.5q-18 -18 -33 -30q-14 -7 -13.5 -3.5z" />
<glyph unicode="0" horiz-adv-x="1071" d="M109 468q2 22 4.5 46t8.5 51q5 27 14 58.5t29 66.5q27 44 55 74t56 53q27 22 52.5 37t49.5 29q24 11 46 21t46 19q24 8 49 13t54 8q46 3 88 -2.5t75 -18.5q34 -15 59.5 -34t45.5 -38q36 -39 53.5 -74.5t26.5 -58.5q8 -25 13.5 -42t7.5 -31q4 -12 6 -22.5t3 -24.5 q2 -16 -5 -28t-17 -12q-11 0 -19 10.5t-10 24.5q-1 4 -0.5 7.5t0.5 10.5q0 8 -0.5 20t-4.5 36q-2 12 -5.5 27t-10.5 33q-5 17 -14.5 38t-25.5 43q-14 24 -38.5 46.5t-59.5 38.5q-36 17 -79.5 26.5t-95.5 4.5q-56 -4 -117 -28.5t-120 -70.5q-29 -22 -56 -48.5t-50 -60 t-39.5 -72.5t-22.5 -84q-8 -57 -11 -100.5t-3 -78.5q0 -36 2 -65t6 -62q3 -16 6 -32.5t9 -36.5q8 -20 16.5 -40.5t21.5 -43.5q14 -22 35.5 -43.5t54.5 -38.5q31 -17 72.5 -21t88.5 7q23 5 45 12.5t45 15.5q22 8 40.5 17.5t36.5 19.5q38 19 69 41t56 43q49 46 75.5 91.5 t40.5 81.5q15 38 20.5 66.5t7.5 45.5q2 20 2 31v15q0 15 6.5 25.5t17.5 11.5q11 2 19.5 -9t6.5 -28q0 -6 -0.5 -13t-2.5 -22q-2 -13 -5.5 -36.5t-17.5 -59.5q-12 -36 -37 -84t-76 -102q-52 -53 -137.5 -104t-208.5 -78q-60 -9 -108 -2q-25 5 -46 13t-39 20 q-38 24 -60.5 53.5t-36.5 57.5q-13 29 -22 55t-15 49q-5 23 -9.5 43.5t-7.5 39.5q-7 38 -8.5 74t-0.5 79z" />
<glyph unicode="1" horiz-adv-x="731" d="M99 334q-3 11 0 20.5t12 14.5q3 1 5 1.5t6.5 1.5t12.5 4t23 9q13 8 34 21t50 36q30 24 66 61t77 92q23 31 44 68.5t41 81.5q11 23 21.5 46.5t20.5 49.5q6 12 11.5 25.5t13.5 26.5q2 7 5 14t6 13l1 8l3 5q-4 1 8.5 -4.5t26 -12t20.5 -9t-8 4.5l-3 -3q-1 -2 -2.5 -5.5 t-2.5 -6.5q-15 -37 -26.5 -64t-20.5 -48.5t-17 -40t-16 -37.5q-8 -20 -18 -45.5t-21.5 -59.5t-25.5 -80.5t-30 -109.5q-32 -131 -47 -219t-23 -143q-8 -54 -10 -79.5t-4 -31.5q-1 -8 -9.5 -14.5t-19.5 -4.5q-11 0 -17 7.5t-5 19.5q1 3 2.5 7t3.5 13t5.5 23.5t8.5 38.5 q5 23 12.5 57t18.5 81t27 108.5t37 140.5q22 72 38.5 125t28 93t20.5 68.5t16 53.5t13.5 47t17.5 48q8 26 23 58q3 10 9 19v2q-9 4 -5 2.5t12 -5t15 -6.5t5 -2v-3l-3 -2l-1 -5q-1 -2 -1.5 -4.5t-2.5 -3.5q-5 -11 -10.5 -21.5t-11.5 -19.5q-30 -59 -52 -97.5t-39 -70.5 q-18 -29 -34 -54.5t-38 -55.5q-35 -50 -65 -85.5t-54.5 -60t-43.5 -41t-32 -26.5q-14 -11 -23 -18t-15.5 -12t-13 -9t-14.5 -8q-11 -5 -21.5 -0.5t-14.5 12.5z" />
<glyph unicode="2" horiz-adv-x="1115" d="M87 9q0 12 11 22q11 5 20 5t17 -1q35 -8 62 -20.5t55 -25.5q27 -13 54.5 -27.5t57.5 -31.5q99 -56 173.5 -97t132.5 -66q58 -29 99.5 -45t71.5 -24q30 -10 48.5 -13t33.5 -6q14 0 24.5 0.5t24.5 2.5q13 3 23 3q13 0 22 -6q7 -8 0 -24q-5 -8 -15 -14.5t-21 -8.5 q-7 -2 -11.5 -2h-16.5q-9 0 -26.5 2.5t-48.5 12.5q-31 8 -75.5 27t-109.5 52q-63 33 -147.5 81.5t-199.5 113.5q-31 17 -64 34.5t-70 34.5q-19 6 -38 14t-39 10q-12 3 -17 0q-8 0 -8 -3q-3 -2 -2 -11.5t6 -19.5q14 -36 58 -32q20 2 43 9t46 18q91 45 179 117q59 48 99 85 t70 69q32 30 56.5 57t49.5 57q27 33 55 74t60 99q16 30 32 65.5t27 79.5q12 43 18 94.5t-11 110.5q-8 29 -20.5 53.5t-31.5 42.5q-18 17 -42.5 23.5t-47.5 3.5q-24 -2 -45.5 -11.5t-41.5 -20.5q-22 -10 -40 -21.5t-35 -22.5q-67 -51 -114 -98t-83 -82q-69 -76 -97.5 -114.5 t-36.5 -44.5q-14 -16 -28.5 -22t-22.5 0q-8 7 -5 22.5t14 31.5l10.5 10.5t17.5 19t31 32t52 51.5q31 34 77 78.5t118 100.5q17 14 38 28t42 29q23 13 49 27t56 22q14 4 30 7t32 3q16 -2 32.5 -6t33.5 -14q32 -18 49 -52t28 -71q9 -36 10.5 -69t-2.5 -64q-2 -31 -9.5 -58.5 t-17.5 -51.5q-15 -52 -35 -92.5t-40 -74.5q-39 -66 -72.5 -112t-63.5 -83q-30 -38 -59 -71.5t-65 -69.5q-19 -18 -41.5 -37.5t-48.5 -41.5q-27 -20 -59.5 -42.5t-74.5 -45.5q-53 -32 -104 -46q-26 -6 -49.5 -9t-47.5 4q-25 8 -37 29q-11 18 -12 38q-5 10 0 20z" />
<glyph unicode="3" horiz-adv-x="1138" d="M-215 -13q8 8 23 4.5t31 -16.5q5 -4 9 -7t10.5 -9.5t19.5 -18t39 -30.5q26 -20 66.5 -49.5t104.5 -68.5q35 -19 74.5 -38.5t88.5 -37.5q49 -17 107.5 -31t127.5 -6q37 2 74 17t70 42t57 64.5t38 83.5q31 91 28 202q0 27 -5.5 53t-16.5 49q-11 24 -29 42.5t-44 29.5 q-33 14 -64 16t-58 0q-30 -1 -54 -6t-47 -10q-11 -2 -22 -5t-21 -6q-4 -1 -8.5 -3.5t-10.5 -3.5q-2 6 -0.5 2t2 -5.5t-2 6t-13.5 37.5h1l7 3l10 3q19 6 38.5 12t40.5 15q41 16 88 38.5t108 62.5q30 18 62 43.5t65 61.5q35 34 64 81.5t41 110.5q5 33 2 63.5t-9 59.5 q-8 27 -22.5 49t-35.5 34q-20 11 -44.5 10t-47.5 -6q-24 -6 -44.5 -15.5t-41.5 -20.5q-39 -20 -72 -42t-61 -43q-30 -20 -54 -41t-44 -38q-41 -36 -70 -62.5t-48 -45.5t-29.5 -31t-15.5 -16q-14 -14 -29.5 -20t-23.5 2q-6 8 -1 24.5t19 31.5q5 4 11.5 10.5t20 17.5 t36.5 30.5t60 50.5q17 16 40 34t51 42q28 20 62 43.5t75 48.5q23 12 45.5 25t49.5 22q27 11 57.5 18.5t62.5 5.5q18 -2 35 -8t30 -17q15 -13 24.5 -29.5t17.5 -34.5q11 -36 15 -74t-4 -79q-5 -39 -20 -71.5t-33 -59.5q-17 -29 -36.5 -52t-40.5 -44q-43 -39 -82 -65.5 t-76 -49.5q-71 -43 -125.5 -67t-103.5 -44q-2 -2 -5 -3.5t-6 -2.5h-5l-1 -3q0 -1 -1.5 4.5t-3.5 10.5t-3 8.5t1 -3.5l7 1q6 3 11.5 6.5t10.5 4.5q12 5 24 8t23 7q50 14 105 20q29 1 62 -1.5t70 -18.5q17 -7 34.5 -19t31.5 -29q29 -35 40 -86q7 -34 7.5 -65t-3.5 -59 q-3 -27 -7 -52t-9 -48q-11 -45 -26.5 -81t-34.5 -68q-40 -57 -96.5 -91t-133.5 -42q-61 -6 -114.5 4t-99.5 24q-44 14 -80.5 30t-67.5 31q-61 30 -103 55t-71 42q-29 18 -48 30.5t-33 22.5t-25.5 18t-24.5 19q-16 11 -23.5 27t-0.5 25z" />
<glyph unicode="4" horiz-adv-x="908" d="M112 343q0 11 1 24t1 24q3 24 6.5 46t8.5 44q11 41 21 78.5t20 70.5q20 68 37 120t32 92q29 79 43 116t17 47q6 14 17.5 21.5t22.5 3.5q8 -5 11.5 -18.5t-4.5 -27.5q-2 -5 -4.5 -11t-8.5 -18.5t-15.5 -32.5t-24.5 -54q-14 -33 -33.5 -81.5t-46.5 -116.5q-11 -35 -24 -75 t-27 -86q-5 -24 -12 -49t-11 -53l-4 -28t-2 -29q-2 -13 -2 -28t5 -29q11 -28 40 -28q13 -1 26.5 0t24.5 5q24 4 45.5 12t40.5 16q40 16 72.5 33.5t60.5 33.5q55 32 93 57t70 48q31 22 60 43t63 44q4 3 8.5 6t10.5 8q3 3 8 6l4 5q-2 1 4.5 -4.5l13 -11t10.5 -8.5t-4 3l-3 -1 v-3q-5 -10 -11 -21.5t-11 -25.5q-11 -24 -24.5 -52t-30.5 -61q-43 -90 -69 -153t-45 -111q-9 -26 -18 -49t-17 -46t-16 -47t-18 -51q-28 -87 -44.5 -154.5t-26 -117.5t-13.5 -86t-6 -60q-1 -26 -0.5 -43t1.5 -29t2 -22t3 -22q1 -15 -4 -27t-15 -15q-10 -1 -20 9.5t-12 26.5 q-2 5 -2 9t2 12q0 8 0.5 21.5t3.5 40.5q2 25 8 63.5t18.5 95.5t34 134t56.5 178q19 54 40 117.5t46.5 135.5t56.5 151.5t72 166.5q7 14 12.5 27t13.5 25v2q6 -5 2 -1.5t-6 4.5t5.5 -5.5t34.5 -29.5l-3 -1l-5 -4q-7 -3 -10 -6q-11 -9 -21 -14q-19 -14 -35.5 -24t-30.5 -21 q-32 -19 -58.5 -33.5t-56.5 -31.5q-29 -17 -64.5 -37t-84.5 -46q-27 -13 -55.5 -26.5t-64.5 -28.5t-81 -24q-20 -5 -51 -1q-15 2 -27 11q-8 4 -12.5 11t-7.5 15q-5 16 -6 29t-1 28z" />
<glyph unicode="5" horiz-adv-x="1115" d="M-345 -524q8 9 23.5 6.5t33.5 -11.5q5 -3 9.5 -6t12.5 -8t24 -12.5t45 -21.5q15 -6 36 -12.5t46.5 -12.5t57 -10.5t70.5 -5.5q40 -1 85.5 5t98.5 22q52 16 107 46t114 75q61 49 119 119.5t111 159.5q27 43 53 91t50 100q24 54 44.5 111t26.5 119q5 40 0.5 72.5 t-15.5 55.5q-12 27 -28.5 44.5t-36.5 30.5q-37 24 -75.5 34.5t-82.5 18.5q-46 4 -101 5t-131 -8q-38 -5 -81 -13.5t-93 -20.5l-26 -6t-24 -6l-3 -1q6 -7 4 -4t-6.5 9l-9 12t-3.5 5l3 1l1 2l4 8q2 3 3 5.5t3 5.5q4 6 7.5 12t7.5 14q13 27 28.5 55t30.5 60q30 62 51.5 122 t33.5 116q3 12 4 26.5t0 25.5v8v3q3 3 0.5 0.5t-3.5 -3t2.5 2.5t18.5 17h4q3 0 7.5 -1t7.5 -1q5 0 12 -1t13 -1q27 -2 51.5 -4t48.5 -2q94 -3 168.5 -1t133.5 5q58 2 99.5 4t70 3.5t44.5 2.5t23 1q20 2 36 -4t16 -17q2 -11 -13 -19t-38 -9h-16.5t-28 -0.5t-50 -1t-80.5 -1.5 q-51 0 -123.5 0.5t-174.5 3.5q-25 0 -52 1t-56 5q-14 0 -30 1t-32 4q-7 0 -14.5 1t-16.5 3q-3 0 -5 1t-5 1h-3q7 7 8.5 9.5t1.5 2t-1 -2t0 0.5v-1v-19q-2 -36 -10 -70.5t-20 -72.5q-14 -36 -30.5 -73t-35.5 -76q-19 -36 -36 -68t-34 -63q-5 -8 -8.5 -14.5t-8.5 -13.5l-3 -3 v-2q-1 1 0 -0.5t-4 5.5v2h3l7 1q4 2 8.5 2.5t6.5 1.5q16 5 32 8t30 6q57 13 107 21t93 12q87 8 151 5.5t118 -15.5q53 -11 97 -41q23 -14 42 -36t31 -51q11 -28 15.5 -63t-0.5 -75q-3 -39 -15 -81.5t-33 -91.5q-27 -63 -55.5 -112.5t-52.5 -92.5q-26 -41 -48.5 -74.5 t-46.5 -63.5q-23 -30 -43.5 -56t-43 -50.5t-48 -49t-56.5 -48.5q-51 -40 -99.5 -68.5t-95.5 -45.5q-46 -17 -87.5 -27t-77.5 -14q-74 -6 -126 0.5t-86 14.5q-36 8 -58.5 14.5t-40.5 13.5q-16 8 -30 13.5t-31 13.5q-20 12 -29 26.5t-4 24.5z" />
<glyph unicode="6" horiz-adv-x="1292" d="M137.5 316.5q-11.5 56.5 1.5 133.5q11 76 52.5 169t121.5 204q83 112 161.5 196t146.5 148q68 65 123 114t98 85q44 36 76 61.5t54 42.5t35 26.5t18 12.5q17 12 33.5 15.5t23.5 -4.5q5 -8 -2.5 -24t-25.5 -28q-5 -4 -13 -9t-22.5 -15t-39.5 -27t-64 -46q-39 -30 -93 -73 t-130 -108q-38 -33 -79.5 -71t-87.5 -85q-46 -46 -94.5 -100t-100.5 -121q-93 -126 -136 -232t-43 -190q-1 -43 7.5 -78t22.5 -63q11 -28 27.5 -50t35.5 -41q16 -19 35 -34.5t39 -28.5q19 -15 41 -27.5t47 -24.5q52 -24 117 -33q36 -4 76.5 -0.5t88.5 18.5q60 23 105 54.5 t79 63.5q33 33 56.5 63.5t43.5 59.5q19 31 33 59.5t26 60.5q11 30 20.5 61.5t16.5 68.5q11 61 8 114t-18 96q-13 44 -36.5 75.5t-47.5 54.5q-27 20 -52.5 31.5t-48.5 18.5q-24 6 -43 9.5t-35 5.5q-33 3 -55 1.5t-40 -3.5q-16 -2 -29.5 -4t-29.5 -4q-20 -2 -35.5 3t-17.5 16 q-3 10 10.5 20t36.5 13q8 2 11 1t14 -1q10 0 28.5 1t53.5 -1q16 -1 38.5 -3.5t48.5 -8.5t57.5 -16t66.5 -32q35 -23 68 -59t51 -88q20 -54 23.5 -118t-12.5 -135q-16 -77 -50.5 -160.5t-97.5 -166.5q-31 -41 -71.5 -81t-94.5 -70q-49 -30 -112.5 -47t-133.5 -12 q-44 4 -79 16.5t-63 26.5q-30 14 -53 30t-44 32q-38 32 -66 65.5t-49 76.5q-20 43 -31.5 99.5z" />
<glyph unicode="7" horiz-adv-x="1197" d="M-314.5 -803q2.5 15 11.5 28l7 7t9 8.5t16.5 17t28.5 32.5q19 20 48.5 53.5t72 84t100 120.5t133.5 165q82 102 181 241.5t230 313.5q41 55 72 95.5t55.5 73.5t46 61t44.5 59q23 30 50 67.5t62 89.5l38 57t43 68q10 17 21 37l22 40q5 12 8.5 24t7.5 24q1 7 2.5 12t1.5 9 q0 3 -3 3h1l-1 2q-1 1 -3.5 2.5t-3.5 2.5q-11 7 -24.5 11.5t-25.5 6.5q-13 2 -25.5 3.5t-26.5 1.5q-27 4 -52 4.5t-49 0.5q-49 0 -92 -2.5t-82 -4.5q-78 -8 -139.5 -15.5t-109.5 -12.5q-93 -14 -136.5 -21.5t-54.5 -8.5q-18 -3 -31.5 3t-15.5 17q-1 10 10 19.5t29 12.5 q6 0 13.5 1t23.5 2.5t41.5 3.5t66.5 6q41 3 101 8t144 10q42 2 90 5t103 3q29 0 59 -1t61 -4q14 -2 30 -4.5t35 -5.5q16 -2 33 -7t34 -16q4 -2 13 -10q3 -5 3.5 -9.5t0.5 -7.5q0 -8 -1 -16.5t-4 -17.5q-5 -13 -11.5 -27.5t-13.5 -25.5q-13 -27 -25.5 -49t-26.5 -42 q-25 -43 -48 -77.5t-42 -63.5q-40 -61 -69.5 -104.5t-52.5 -80.5q-25 -37 -47.5 -70.5t-51 -72.5t-65.5 -88t-90 -115q-71 -88 -118.5 -149t-84.5 -108.5t-69 -90t-72 -93.5q-65 -82 -114 -144.5t-85 -109t-61.5 -80t-42.5 -57.5q-16 -24 -27.5 -40t-20 -27.5t-16 -21 t-16.5 -20.5q-11 -14 -25.5 -20t-23.5 3q-7 6 -4.5 21zM-3 -3q-1 10 1.5 18t7.5 8q2 2 7.5 -1t25.5 -4q20 -2 57.5 -1.5t105.5 6.5q31 3 52.5 6t38 6.5t29 7t21.5 7.5t18 7.5t19.5 7t24.5 6t33 5.5q26 3 43.5 6.5t31 7.5t25.5 8.5t26 11.5q44 18 65 32t33 24q11 8 14 12.5 t10 8.5q2 1 8 -3.5t14 -12.5q5 -9 7.5 -17t-2.5 -10q-3 -2 -5.5 -2t-16.5 -5t-41 -15.5t-83 -28.5q-30 -11 -65.5 -31t-86.5 -32q-16 -4 -28 -5.5t-22 -2t-18 -1.5t-17 -2q-17 -1 -45 -4t-82 -12q-53 -9 -89.5 -15t-58.5 -10t-33 -5.5t-13 -1.5q-5 0 -8.5 7.5t-3.5 18.5z " />
<glyph unicode="8" horiz-adv-x="1215" d="M2 -215q10 55 33 99q22 45 51 80t62 66q34 30 72.5 56t84.5 49q76 40 145 66t130 47q61 18 111.5 37.5t93.5 41.5q83 42 127 89q24 23 37.5 44t21.5 41q8 22 9.5 38.5t1.5 29.5q0 15 -2.5 27t-4.5 24q-6 18 -14 34t-17 35q-14 24 -21.5 43t1.5 26q8 9 28 -3t36 -39 q4 -8 6.5 -14.5t7.5 -20.5q3 -5 6.5 -14.5t8.5 -24.5q2 -12 4.5 -30.5t2.5 -43.5q-2 -24 -9.5 -54.5t-29.5 -62.5q-22 -33 -56 -63.5t-79 -56.5q-95 -55 -237 -95q-70 -20 -148 -48t-164 -74q-46 -27 -91 -59t-87 -77q-40 -43 -68.5 -98.5t-31.5 -122.5q-2 -67 23.5 -132.5 t71.5 -122.5q50 -57 114.5 -103.5t144.5 -74.5q100 -34 178 -27q80 8 130 37q27 14 47.5 33.5t36.5 39.5q16 22 29 46.5t24 50.5q10 28 18.5 61t13.5 69t6.5 77.5t-9.5 90.5q-10 49 -36.5 99t-75.5 97q-47 48 -112.5 90.5t-145.5 88.5q-41 24 -79 48t-71 51 q-34 29 -61.5 61.5t-44.5 72.5q-17 39 -20 77.5t2 74.5q6 37 17.5 70t23.5 62q49 120 120 200q36 38 77.5 62.5t82.5 32.5t77 3.5t65 -12.5q28 -8 49.5 -19t40.5 -19q33 -20 50 -34t24 -18q24 -19 34 -40.5t1 -28.5q-10 -8 -28.5 1t-38.5 26q-7 7 -16.5 14.5t-27.5 23.5 q-11 6 -23.5 14t-31.5 19q-17 9 -40.5 17.5t-54.5 12.5q-30 5 -66.5 1t-77.5 -24q-40 -24 -78 -64t-71 -98q-16 -28 -31.5 -61t-29.5 -68q-11 -36 -19 -76.5t-3 -83.5q5 -42 27 -83t57 -76q37 -34 81.5 -63.5t92.5 -58.5q45 -28 86.5 -53.5t78.5 -52.5q39 -27 71 -54.5 t56 -57.5q26 -31 44 -62.5t29 -61.5q11 -33 17 -64t8 -59q2 -58 -6 -107t-19 -92q-22 -82 -62 -143q-43 -58 -104.5 -92t-143.5 -39q-39 -1 -82.5 5.5t-92.5 23.5q-49 16 -101.5 44.5t-104.5 74.5q-68 62 -108 130t-51 131q-13 65 -3 120z" />
<glyph unicode="9" horiz-adv-x="978" d="M155 658q-5 15 0 32q1 14 7 27.5t14 24.5q16 24 36 39q17 16 35.5 30t38.5 26q37 22 70 38.5t64 31.5q32 11 59.5 22.5t50.5 20.5q49 17 84.5 29t59 20t37.5 12t19 6q19 5 34.5 1t18.5 -16q1 -9 -9.5 -19.5t-29.5 -16.5q-6 -2 -14 -3.5t-24.5 -5.5t-43 -10.5t-67.5 -17.5 q-41 -13 -101 -32t-140 -58q-22 -8 -42 -20t-41 -26q-23 -14 -43 -31.5t-34 -40.5q-8 -11 -13 -24.5t-4 -27.5q0 -14 10 -25q8 -10 26 -13q15 -2 32 0.5t36 5.5q16 5 33 10t35 12q66 25 118.5 52.5t98.5 52.5q45 27 83.5 50t69.5 44q16 10 30.5 20.5t29.5 18.5q6 5 13.5 8.5 t12.5 8.5l1 2q-2 2 -1 1t3.5 -2.5t4.5 -3t1 -0.5l-1 -4l-3 -9l-2.5 -5t-2.5 -7q-12 -25 -23 -48.5t-19 -45.5q-16 -43 -32 -83.5t-35.5 -88.5t-44.5 -107.5t-59 -142.5q-24 -55 -42.5 -102t-33 -86.5t-27 -73.5t-22.5 -65q-20 -61 -36 -115.5t-34 -122.5 q-29 -108 -46 -189.5t-27 -143.5t-14 -105.5t-6 -73.5q-1 -31 -1 -51v-35.5t0.5 -28.5t0.5 -28q0 -19 -5.5 -32.5t-16.5 -14.5q-11 0 -19 13.5t-8 33.5q0 6 0.5 10t1 13t2.5 25.5t5 45.5q3 30 8.5 77t18 116.5t34.5 164.5t58 220q19 68 40.5 145.5t48.5 165.5t60.5 186.5 t77.5 205.5q29 69 51.5 118.5t41 88.5t35.5 73t35 71q5 8 8.5 18t9.5 18l4 7q4 -3 2 -0.5t-3 3t3.5 -4t22.5 -19.5h-1v-1l-5 -1q-1 -4 -9 -6l-10 -6t-11 -8q-22 -13 -45.5 -28t-54.5 -34q-29 -17 -63 -36t-73 -41q-41 -24 -87.5 -48.5t-104.5 -48.5q-30 -11 -59.5 -20.5 t-59.5 -11.5q-14 -1 -32.5 1.5t-32.5 15.5q-15 14 -17 33z" />
<glyph unicode=":" horiz-adv-x="424" d="M108 68q-11 27 1 38q11 10 37.5 -1t53.5 -37q27 -27 38 -54.5t0 -38.5t-38.5 1t-53.5 38q-27 27 -38 54zM282.5 580q-11.5 27 0.5 38q11 10 37.5 -1t53.5 -37q27 -27 38 -54.5t0 -38.5t-38.5 1t-52.5 38q-27 27 -38.5 54z" />
<glyph unicode=";" horiz-adv-x="424" d="M23 -286q-4 -14 6 -8q11 23 25 48q11 22 27 50t34 58q17 30 34 59.5t33 55.5q15 27 29 46.5t29 29.5q18 14 23 36q3 23 -10 38q-7 8 -16 10t-14 -2q-1 -1 -2 -1.5t-2 -2.5t-1 -6q-1 -4 -5 -12q-2 -3 -3 -8t-3 -14q-3 -17 -17 -50q-13 -32 -32.5 -71.5t-40.5 -78.5 q-22 -39 -42.5 -75t-34 -62t-17.5 -40zM282.5 580q-11.5 27 0.5 38q11 10 37.5 -1t53.5 -37q27 -27 38 -54.5t0 -38.5t-38.5 1t-52.5 38q-27 27 -38.5 54z" />
<glyph unicode="&#x3c;" horiz-adv-x="802" d="M199 322v42.5t0.5 17.5t0 2t0 -5t0.5 -4.5t0 5.5l2 1q69 41 138.5 81.5t127.5 71t98.5 48.5t51.5 15q17 -5 18.5 -17.5t-11 -25.5t-37.5 -24t-59 -12q-25 -1 -64 -16.5t-88 -38.5q-25 -12 -50.5 -26.5t-52.5 -28.5q-13 -8 -26.5 -15.5t-26.5 -15.5l-13 -8l-2 -1q0 11 0 6 v-15v-19.5t0 -6.5l1 -1l3 -2l7 -4q6 -4 13 -8l14 -8q52 -33 101 -60.5t87 -48.5q44 -26 84 -46q13 -14 -9.5 -5t-69.5 33q-24 12 -51.5 28t-57.5 34q-15 9 -31.5 18t-33.5 20q-8 5 -16.5 10t-17.5 10l-17 10l-8 5l-4 3z" />
<glyph unicode="=" horiz-adv-x="993" d="M130 318.5q4 11.5 16.5 17t31 2t39.5 -20.5q15 -11 44.5 -18t67.5 -11t81.5 -4.5t86.5 0.5q101 2 220 13q13 -5 -4 -9t-53.5 -8t-88.5 -6.5t-108 -3.5t-112.5 -0.5t-102 3t-77 8t-36.5 13.5q-9 13 -5 24.5zM192 431q4 11 16 17t30.5 2t40.5 -20q15 -11 44 -18.5t67 -11.5 t81.5 -4.5t86.5 0.5q101 3 220 14q13 -5 -3.5 -9.5t-53.5 -8t-88.5 -6t-108 -3.5t-113 -0.5t-102 3t-76.5 7.5t-36 14q-9 13 -5 24z" />
<glyph unicode="&#x3e;" horiz-adv-x="802" d="M227.5 159q-1.5 13 11 26.5t37.5 24t59 11.5q25 1 64 16.5t88 38.5q25 12 50.5 26.5t52.5 29.5q13 8 26.5 15t26.5 15l13 9l2 1q0 -11 0 -6v14.5v19.5t0 7l-1 1l-3 2l-7 4q-6 4 -12.5 7.5t-13.5 7.5q-53 32 -102 60t-87 50q-44 26 -84 46q-13 14 9.5 5t69.5 -34 q24 -12 51.5 -28t58.5 -33q15 -9 31.5 -18.5t32.5 -19.5q8 -5 17 -10.5t17 -10.5l17 -10l8 -5l5 -2l1 -1v-43t-0.5 -18t0 -2t0 5.5t-0.5 4.5t0 -6l-2 -1q-70 -42 -139 -81.5t-127.5 -70.5t-99 -49t-51.5 -15q-17 4 -18.5 17z" />
<glyph unicode="?" horiz-adv-x="1208" d="M-63 907q-2 11 2 36t18 61q13 36 36 77.5t58 86.5q34 45 79 87t98 78q38 26 95 61.5t134 70.5q77 36 172 65t206 44q55 8 112.5 12t117.5 5q60 0 121 -3t121 -17q29 -7 55.5 -19.5t42.5 -32.5t16 -48t-10 -56q-11 -28 -27 -54t-34 -51q-18 -26 -39 -49.5t-42 -46.5 q-87 -92 -181 -171t-185 -150t-175.5 -132t-158.5 -113q-74 -51 -134 -92t-103 -69t-55 -36l-35 -23q-34 -17 -29 -11.5t43 31.5l104.5 71.5t155.5 107.5q90 62 196 138.5t223 169.5q58 46 116.5 95t116.5 104q30 27 58 55.5t55 57.5q27 30 51.5 61.5t43.5 64.5t28 68t-4 58 q-12 25 -45.5 40t-71.5 23q-39 8 -79 10.5t-81 2.5q-41 1 -81 -0.5t-79 -4.5q-80 -6 -156 -19.5t-147 -33.5q-72 -22 -136 -50t-122 -61q-115 -68 -194.5 -147t-128.5 -149q-50 -71 -74.5 -119t-35.5 -62q-29 -43 -32 -22zM-45 -68q11 10 37.5 -1t53.5 -37q27 -27 38 -54.5 t0 -38.5t-38.5 1t-52.5 38q-27 27 -38 54t0 38z" />
<glyph unicode="@" horiz-adv-x="1524" d="M74 33.5q3 48.5 14 96.5q26 95 76 181t116 166q68 78 147.5 146t175.5 120q47 25 99 44.5t106 29t110.5 8.5t112.5 -16q28 -8 54 -22.5t49 -34.5q45 -42 65 -100q20 -55 21 -111t-8 -108q-9 -53 -25.5 -102.5t-39.5 -96.5q-12 -24 -25.5 -45t-28.5 -42q-15 -20 -33 -39.5 t-40 -36.5q-11 -8 -23.5 -15t-27.5 -12q-17 -5 -32 -5h-14t-13 1q-27 3 -53 11.5t-48 26.5q-23 17 -37.5 39.5t-22.5 46.5q-16 47 -16 96v3q38 -18 48 -22t7 -3.5t-8 3t3 -1.5l-1 -1l-4 -5q-6 -4 -8 -6q-10 -8 -17 -13q-8 -7 -17 -13t-17 -13q-17 -12 -34 -23t-35 -23 q-35 -20 -70.5 -36.5t-75.5 -24.5q-19 -4 -41 -4t-42 8q-22 8 -36.5 24.5t-23.5 33.5q-8 17 -11 36.5t0 37.5q2 18 10.5 33.5t17.5 28.5q20 25 41.5 40t42.5 26q20 11 38.5 19t36.5 14q33 11 54.5 16t33.5 7q34 3 44 -1t0 -12t-37.5 -20.5t-67.5 -30.5q-20 -9 -41.5 -20 t-44.5 -25q-22 -14 -41.5 -32.5t-27.5 -40.5q-3 -10 -4 -21.5t5 -24.5q5 -13 11.5 -23t17.5 -15q11 -6 27 -7t34 1q36 5 70 18q51 17 122 63q36 23 72 51h1l-2 1v-1v-1l-1 -3v-6v-12q0 -6 0.5 -12.5t1.5 -12.5q3 -27 13 -51q9 -26 28.5 -48.5t47.5 -34.5q14 -7 29 -11t30 -7 q8 -1 16 -1.5t17 0.5q17 2 33 10q31 14 55 38t44 51t38 57t32 63q30 69 45 138q8 37 11 75t-1 78q-4 39 -18.5 78t-41.5 72t-65.5 53t-78.5 29q-82 16 -164 4t-158 -44q-77 -33 -144.5 -78t-128.5 -99q-120 -110 -204 -242q-41 -67 -71 -137t-39 -145q-5 -37 -2 -74t16 -72 t36 -62.5t51 -48.5q28 -19 59 -31t61 -19t59.5 -10t58.5 -4q57 -2 108.5 3.5t96 16.5t81.5 25.5t65 30.5q58 32 84 56t26 23q18 16 25.5 23.5t5.5 2.5q-2 -4 -13 -18t-34 -34q-22 -20 -56 -43.5t-81 -43.5q-48 -20 -107 -34.5t-129 -18.5q-35 -2 -72 -1.5t-76 5.5 q-39 6 -79 17.5t-78 35.5q-39 24 -69.5 62.5t-42.5 87.5q-12 48 -9 96.5z" />
<glyph unicode="A" horiz-adv-x="1910" d="M-211 27q-8 7 1 30t31 49q7 8 17 19.5t29.5 32.5t52 57t84.5 93q51 57 126 140.5t179 200.5q105 117 244 270t323 348q85 90 158.5 165t139.5 140q33 33 64 61.5t60 54.5q15 12 30 23.5t31 22.5q7 5 14.5 9.5t16.5 8.5q5 2 9 3t9 0q5 0 9.5 -2.5t7.5 -5.5q13 -13 18 -29 t10 -31q3 -14 5.5 -30t4.5 -30q3 -29 5 -55.5t3 -51.5q2 -51 3 -96v-44v-42q-1 -42 -2.5 -80.5t-3.5 -78t-5 -81t-7 -86.5t-9 -95.5t-13 -108.5t-18.5 -125.5t-24.5 -144.5q-15 -82 -30.5 -151.5t-33.5 -130.5q59 5 110.5 14t96.5 19q108 26 180.5 52.5t121.5 47.5 q50 23 81.5 39t54.5 29q24 13 43.5 24t43.5 25q29 17 53 22t30 -4t-10 -28.5t-46 -36.5q-9 -5 -16 -8.5l-21 -10.5q-14 -6 -40 -18t-75 -34q-49 -20 -126.5 -51t-198.5 -61q-60 -14 -131.5 -26t-156.5 -19q-3 -11 -6 -21t-6 -21q-11 -36 -23.5 -68t-28.5 -61 q-8 -14 -18 -27.5t-26 -21.5q-14 -8 -29 -12t-30 -3q-31 0 -57 12t-46 30q-22 17 -39.5 36.5t-33.5 40.5q-32 42 -59 90q-6 12 -13 24.5t-13 25.5q-2 3 -3 6.5t-3 6.5q2 2 0.5 1t-2 -1.5t1.5 2t11 12.5h1l2 -1l3 -1l7 -1l14 -4t15 -4q96 -17 181 -20q36 -1 71 -1q46 0 88 2 q5 1 15 1q0 2 1 2q10 42 19 84.5t17 87.5q32 177 59 380q16 130 25 224t17 170q5 76 9 141t5 137q0 36 -0.5 74.5t-5.5 81.5q-3 20 -7 43.5t-14 42.5q-5 11 -11 15q-1 1 -4 1l-8 -2q-10 -5 -22 -12.5t-23 -15.5q-46 -35 -96.5 -81.5t-107.5 -102.5q-113 -113 -258 -271 q-148 -162 -267.5 -297t-216.5 -246q-98 -112 -173.5 -200.5t-134.5 -157.5q-58 -69 -99.5 -118t-69.5 -82.5t-44 -53t-22 -26.5q-23 -26 -44.5 -39t-29.5 -5zM911 258q2 -3 4.5 -6.5t4.5 -7.5q7 -14 14.5 -28t16.5 -29q17 -28 37.5 -55t43.5 -51q24 -24 54 -43.5t64 -20.5 q18 0 33 6l15 6q2 2 3.5 2.5t3.5 2.5q4 2 6 4q11 10 20 27t17 34q12 30 22.5 63t18.5 67q-41 -2 -84.5 -2t-89.5 2q-92 4 -196 28q-2 0 -4 0.5t-4 0.5z" />
<glyph unicode="B" horiz-adv-x="2156" d="M-54 29.5q1 1.5 0 3.5q0 1 1 2q0 2 0.5 2t0.5 1q1 2 1.5 2.5t1.5 2.5t1.5 2.5t1.5 2.5q-1 0 -1 -1q-2 0 -4 -0.5t-1 -0.5h-1q1 0 2 1t1.5 2t2.5 2q9 11 18 24.5t17 27.5l30 56q58 114 107 217t92 198q85 188 150 338.5t114 266.5t84.5 199t59 139.5t37 88.5t19.5 46 q9 22 19.5 40t19.5 31t17 19t14 4q11 -5 5 -38.5t-25 -77.5q-6 -14 -14.5 -33.5t-25.5 -56.5t-45 -98t-72 -160q-45 -99 -109 -241.5t-156 -342.5q-47 -100 -100.5 -214t-119.5 -245q-9 -17 -18 -35t-19 -35q39 44 79.5 89t83.5 91q118 127 222.5 233t197 194.5t174 162 t153.5 134.5q72 60 135 110.5t120 92.5t109.5 76t103.5 64q50 29 99.5 53t102.5 42q27 9 54.5 16.5t57.5 11.5q30 5 62 5h3q30 0 61 -8q14 -3 33.5 -10t31.5 -27q11 -18 13 -38.5t-1 -39.5q-7 -39 -22.5 -74.5t-36.5 -71.5q-41 -74 -95.5 -151t-125.5 -165 q-94 -116 -175 -208t-152 -169t-132 -142q-14 -16 -28.5 -31t-28.5 -29q7 2 13.5 3.5t13.5 3.5q39 10 76 18t74 13t74 8q22 2 44 1h30q18 -2 37 -4.5t37 -8.5t36 -17t30 -28t15 -39.5t0 -42.5q-3 -22 -12 -42t-22 -37q-20 -30 -44.5 -53t-50.5 -43q-14 -11 -28.5 -21.5 t-28.5 -19.5q36 15 68 29t63 28q141 63 239 112t165 85q68 36 112 60t77.5 42.5t60.5 34.5t61 35q42 24 74 33.5t38 -0.5q5 -10 -19.5 -33.5t-65.5 -46.5q-13 -7 -22 -12t-28.5 -14t-55.5 -27t-102 -52q-67 -33 -171 -83.5t-263 -120.5q-80 -36 -173.5 -75t-206.5 -83 q-14 -5 -28.5 -11t-28.5 -11h-1l-7 -3l-6 -3h-2v-1q2 -6 0.5 -3t-3.5 9t-5 11t-2 4q-2 5 -2 6.5t2 -5.5l4 1q6 2 12 5l12 6h1q4 1 12 5q30 13 59.5 27.5t60.5 31.5q30 17 59.5 36.5t59.5 41.5q29 23 56 49.5t45 60.5q10 17 16 37.5t4 40.5q-1 20 -12.5 38t-29.5 28 q-19 11 -41 15.5t-45 7.5q-24 2 -48 1.5t-48 -2.5q-49 -5 -99 -15t-101 -23q-12 -4 -25 -7.5t-25 -7.5l-7 -2q-1 -1 -4 -1q-11 18 -14 23.5t-2 4.5t2.5 -3.5t-0.5 1.5v1l2 1l9 9q5 5 9.5 10t9.5 11q18 20 36.5 40.5t38.5 40.5q76 84 154 174.5t159 189.5q40 49 80.5 100.5 t80.5 105.5t78.5 110.5t73.5 117.5q22 39 38.5 77t21.5 72q3 35 -12 46q-7 7 -21 10l-3 1q-3 1 -2 0.5t0 -0.5h-1l-1 1h-1l-8 2l-16 3q-31 5 -60.5 3t-57.5 -7q-29 -5 -55 -12t-50 -16q-49 -17 -92 -37.5t-85 -43.5q-41 -23 -81 -47t-82 -52t-86.5 -59.5t-93.5 -69.5 t-104 -83t-117 -99t-133 -119t-151.5 -144t-171 -172.5t-192.5 -204.5q-52 -57 -99 -111.5t-92 -108.5q-11 -14 -22 -27t-21 -27q-5 -7 -10 -13.5t-11 -12.5q-3 -5 -4 -6q0 -1 -0.5 -1.5t-0.5 -1.5t0.5 2t-0.5 5l-3 -3q-1 -2 -2 -2.5t-2 -1.5t-1.5 -1t-1.5 -1l-2 -1 q-2 0 -2.5 -0.5t-3.5 0.5q-6 4 -5 5.5z" />
<glyph unicode="C" horiz-adv-x="1613" d="M140 299q2 42 10 85q7 43 18 85t27 85q19 54 38.5 99t38.5 83t37 70.5t34 60.5q33 56 63.5 104.5t66.5 99.5q36 52 80.5 112t109.5 140q33 40 71 84.5t87 95.5q24 26 51 52t58 53q15 13 32 26l34 26q18 12 39 24t44 20q6 2 13 3l14 2t12.5 0t11.5 0q24 0 48 -3 q24 -4 46 -11t43 -20q20 -12 36 -30t26 -38t15.5 -41.5t7.5 -41.5t2 -39q0 -21 -2 -41q-4 -38 -14 -74q-8 -36 -17 -68t-21 -63q-23 -61 -45.5 -113t-45.5 -98t-43.5 -85.5t-40.5 -73.5q-38 -68 -66.5 -115.5t-48.5 -80t-32 -50.5t-16 -25q-16 -25 -35 -37.5t-28 -5.5t-4 28 t21 45q5 8 13 18t22.5 30t37.5 54.5t59 90.5q35 56 83.5 138.5t103.5 205.5q14 30 27.5 64t25.5 70t22.5 76.5t14.5 84.5q2 22 2 44.5t-5 44.5q-4 24 -13.5 45.5t-26.5 38.5t-39.5 29t-49.5 18q-12 3 -25.5 5t-27.5 3q-7 1 -14 1h-14q-6 0 -12.5 -1t-14.5 -4 q-25 -8 -46 -20.5t-42 -27.5q-20 -14 -38.5 -29t-35.5 -30q-34 -30 -64.5 -60t-56.5 -59q-53 -58 -95.5 -110t-77.5 -99q-35 -46 -63 -86.5t-52 -76.5t-43.5 -69t-37.5 -64q-36 -61 -66 -119.5t-63 -127.5q-16 -35 -33 -74.5t-34 -86.5t-33 -102.5t-24 -121.5q-2 -24 -2 -47 q0 -20 2 -38q4 -40 18 -74q13 -35 35.5 -59.5t49.5 -40.5t55 -24t54 -12q27 -4 52.5 -5t49.5 -1q49 2 93 9t88 16q85 18 182 50q80 26 148.5 52t128.5 51q60 26 110 48.5t93 43.5q87 41 146 71.5t101 53.5q41 23 68 38t47 26t37 21t39 21q26 14 47.5 17t26.5 -8 q5 -10 -8.5 -26.5t-40.5 -30.5q-8 -4 -13.5 -6.5t-17.5 -7.5t-34.5 -15.5t-63.5 -29.5q-42 -20 -106 -50.5t-161 -75.5q-49 -22 -106.5 -47t-126.5 -54q-70 -28 -149 -57.5t-174 -57.5q-51 -15 -106 -30t-116 -27q-60 -11 -126 -17q-21 -2 -43 -1q-47 0 -97 8 q-36 7 -71.5 22t-65.5 43q-31 28 -49.5 65.5t-26.5 79.5q-7 35 -7 71v13z" />
<glyph unicode="D" horiz-adv-x="1928" d="M-62 66.5q1 5.5 2 10.5t2 9.5t3 9.5q3 10 6.5 19.5t7.5 17.5q8 18 17 36.5t18 36.5q19 36 39.5 72.5t44.5 73.5q33 52 67.5 106t73.5 109q17 39 32 76.5t30 73.5q32 80 58.5 149.5t49.5 130.5q46 123 79 211.5t54.5 149t33 94.5t16.5 48q17 47 36 77.5t30 26.5t7 -39.5 t-21 -82.5q-6 -15 -14 -36t-23.5 -59.5t-41 -104t-66.5 -171.5q-32 -79 -72.5 -182.5t-97.5 -238.5q101 134 197 242t188 195q98 92 189.5 160t180.5 114q88 45 172 65q61 14 118 14q20 0 40 -2q38 -4 71.5 -14t63.5 -27t52 -41.5t37 -52.5q30 -55 36 -114q4 -39 4 -78 q0 -19 -1 -39q-4 -58 -16.5 -117.5t-31.5 -124.5q-20 -65 -48 -133.5t-67 -145.5q-32 -62 -71 -129.5t-90 -140.5q124 18 212.5 37.5t154.5 35.5q77 20 127 36t87 30q37 13 67.5 24.5t68.5 25.5q46 17 80.5 23.5t39.5 -3.5q4 -10 -24.5 -31.5t-75.5 -39.5q-14 -5 -24.5 -8.5 t-32.5 -10.5t-61.5 -19t-114.5 -33q-38 -9 -85.5 -21t-108.5 -24.5t-134.5 -25.5t-163.5 -25q-8 -2 -17.5 -2.5t-17.5 -2.5l-28 -37q-48 -61 -95.5 -114t-96.5 -96q-26 -22 -51.5 -40t-52.5 -33q-13 -7 -27 -12.5t-28 -9.5q-14 -5 -28 -6.5t-27 -4.5q-37 -5 -72 -5 q-18 -1 -34 1q-52 4 -98 13q-47 8 -89 20.5t-81 28.5q-78 31 -145 68t-129 84q-15 11 -29.5 24.5t-27.5 29.5q-3 4 -6.5 7.5t-5.5 8.5q-3 5 -5.5 9.5t-2.5 13.5q-1 5 2 9.5t7 6.5t6.5 2t5.5 1q5 1 10 1.5t11 0.5q41 2 82 2h86h68q245 0 435 13q216 14 376 34q10 2 20 3l20 2 q46 68 89 140t83 149q43 86 72.5 160.5t50.5 141.5q42 134 46 240v23q0 40 -5 78q-7 48 -29 89q-20 40 -56 68.5t-85 40.5q-48 13 -103.5 13t-116.5 -14q-61 -15 -128 -45.5t-140 -77.5q-72 -47 -148.5 -110.5t-159 -146.5t-170 -186.5t-180.5 -230.5q-6 -8 -12.5 -17.5 t-13.5 -17.5l-24 -58t-27 -59q-24 -52 -50 -108t-55 -117q-14 -30 -30.5 -60t-36.5 -61q-9 -15 -19 -30.5t-22 -29.5q-5 -8 -11.5 -14.5t-13.5 -14.5q-4 -3 -8.5 -6t-9.5 -6q-3 -1 -5.5 -2t-7.5 -1q-6 0 -10 4q-3 2 -5 8q-2 7 -1 12.5zM-33 79q13 13 27 32q8 11 16 23.5 t17 25.5q30 52 54.5 102t47.5 99q12 27 23 52l22 50q-11 -17 -22 -35l-22 -36q-39 -61 -72.5 -121.5t-61.5 -119.5q-7 -14 -13.5 -29.5t-11.5 -29.5q-1 -3 -2 -6.5t-2 -6.5zM169 233q3 -8 10.5 -17t16.5 -17q15 -17 35 -33q40 -32 82 -57q87 -54 189.5 -94.5t217.5 -53.5 q30 -3 58.5 -4t58.5 2q14 1 29 3t29 4q15 2 28 6.5t26 11.5q54 25 101.5 66t92.5 89q58 66 113 142q-172 -20 -400 -32q-161 -8 -354 -8q-81 0 -167 1h-92q-11 -1 -23 -1t-23 -1q-6 0 -12 -0.5t-11 -1.5q-2 -1 -3 -1t-2 -1v-3z" />
<glyph unicode="E" horiz-adv-x="1285" d="M47 526q-9 33 -9 70q0 39 10 83q16 82 68 179q27 49 61.5 102.5t81.5 111.5t107 119t139 124q80 62 161.5 107.5t167.5 64.5q22 5 42.5 6.5t41.5 1.5h16q32 0 64 -3q19 -3 39 -8t37 -15q17 -9 32.5 -23.5t25.5 -33.5q9 -17 12 -36t2 -37q0 -17 -2.5 -34t-6.5 -32 q-8 -31 -19 -58.5t-22 -52.5q-24 -50 -47 -92t-43 -78q-42 -72 -73 -122t-51 -85q-20 -34 -31.5 -53t-16.5 -27q-15 -27 -33 -42t-28 -10t-6 29t19 50q5 9 13 20.5t23 34t39 59t63 95.5q19 30 41.5 66t49.5 82q26 44 52 98q13 28 24.5 58t18.5 65q3 16 4 33.5t-4 34.5 q-6 36 -39 58q-32 22 -77 27q-38 5 -77 5h-13q-47 0 -95 -12.5t-97 -36.5q-49 -23 -97.5 -53t-97.5 -67q-90 -70 -156.5 -139.5t-117.5 -136.5q-52 -68 -87 -129t-58 -120q-24 -57 -32 -109q-5 -29 -4 -55q0 -22 3 -42q6 -46 27 -79.5t49 -55.5q30 -23 62.5 -35t66.5 -19 q35 -8 71.5 -11t77.5 -3t86.5 2.5t98.5 9.5q7 1 13.5 1.5t13.5 1.5l49 15q20 5 41.5 10.5t43.5 10.5q11 2 21.5 3.5t21.5 3.5l11 2q8 3 18 -1t14.5 -12t0.5 -18t-24 -20h-2l-2 -1l-5 -1l-22 -5q-43 -9 -88 -17.5t-94 -14.5l-21 -3q-57 -20 -106 -45q-120 -60 -186 -140 q-16 -19 -28 -40t-15 -44q-2 -24 10 -38q6 -8 15.5 -14t20.5 -9q22 -6 45.5 -6t47.5 1q25 2 50 7t52 12q43 11 83 25t76 28t70.5 27.5t66.5 27.5q62 27 115 52.5t98 48.5q90 47 150.5 84.5t102.5 65.5q41 28 67.5 47t46 34t35.5 27.5t37 27.5q25 18 46 26t29 0t-4.5 -29 t-37.5 -40q-8 -6 -13.5 -9.5t-17 -11.5t-34 -21.5t-63.5 -40.5q-42 -27 -107 -65.5t-167 -91.5q-51 -27 -111.5 -55.5t-132.5 -58.5q-37 -14 -76.5 -30t-82.5 -32q-43 -15 -89 -30.5t-99 -27.5q-28 -6 -57 -11t-60 -7q-15 0 -31 0.5t-33 5.5q-16 5 -32.5 13.5t-26.5 26.5 q-10 17 -8.5 36.5t7.5 36.5q11 34 36 63q23 30 49.5 54.5t57.5 46.5q49 35 108 65q-31 -2 -60 -2q-42 0 -80 4q-62 6 -115 21q-73 20 -123 64q-53 44 -73 115z" />
<glyph unicode="F" horiz-adv-x="1441" d="M-309.5 146.5q3.5 11.5 14.5 16.5q5 2 12.5 4.5t24.5 9.5t48 19t84 30q40 13 95.5 30.5t130.5 33.5q9 22 19 44.5t20 49.5q34 86 74.5 198t79.5 264q35 140 47 244q11 96 10 170v13q0 39 -3 73q-1 8 -1.5 16t-1.5 16v3v1v3q0 2 1 4q4 5 9 7t16 4q30 5 56 5.5t50 1.5 q48 0 92.5 -1t97.5 -3.5t119.5 -7t158.5 -13.5q82 -7 146 -11.5t116 -7.5t95.5 -4.5t83.5 -2t81 -1t88 -0.5q114 0 200.5 3.5t150.5 9t109 12t76 13.5q31 6 51 10.5t35 8.5t27.5 7.5t27.5 7.5q18 5 33.5 1.5t19.5 -14.5t-7.5 -23t-31.5 -17q-6 -1 -10.5 -1.5t-13.5 -2 t-26 -3.5t-48 -6t-79.5 -9t-120.5 -10q-71 -5 -171 -7q-50 -1 -108 -1t-125 1q-72 1 -154 1t-176.5 1t-201 4.5t-225.5 11.5q-77 5 -131.5 9t-99.5 7q-44 3 -82 6q-28 2 -58 2h-20q-5 0 -10 -0.5t-10 -0.5q-2 -1 -7 -1v-9q1 -6 1 -12t1 -14q1 -27 0.5 -56.5t-2.5 -63.5 q-4 -71 -16 -162.5t-40 -215.5q-29 -126 -60 -227t-59 -183q-13 -38 -25.5 -71t-24.5 -63q28 6 59 9q58 8 126 11q14 1 27 1q56 0 119 -10q76 -10 164 -15q55 -3 115 -3q36 0 74 1q156 5 270.5 27.5t197.5 48.5t136.5 49t88.5 41t54 31t31 21t19.5 14t19.5 14q9 6 19.5 4 t17.5 -12q7 -9 4.5 -20t-12.5 -18q-5 -2 -8 -3.5t-12 -6.5q-9 -4 -28 -12.5t-55 -25.5q-36 -15 -93 -37.5t-145 -49.5q-88 -26 -212.5 -49.5t-292.5 -28.5q-42 -2 -82 -1q-39 0 -77 1q-76 3 -146 9q-35 3 -66.5 7t-62.5 5t-59.5 0t-55.5 -4q-40 -4 -76 -9.5t-69 -14.5 q-22 -55 -40 -98q-20 -48 -35 -83t-25 -58.5t-16.5 -36.5t-8.5 -19q-9 -17 -22.5 -26t-23.5 -4t-10.5 21t7.5 33q3 6 7 13.5t12 22t20.5 39.5t33.5 65q11 24 25 53.5t31 66.5q-42 -11 -76.5 -22t-63.5 -22q-59 -23 -98.5 -41.5t-65.5 -31.5q-26 -14 -38 -21t-16 -9 q-11 -5 -22 -2t-16 13t-1.5 21.5z" />
<glyph unicode="G" horiz-adv-x="1776" d="M177 268q-7 45 -7 94q0 76 17 162q14 74 42 154.5t71 170.5q44 90 105.5 187.5t151.5 197.5q91 101 193 174t213 109q88 28 172 28q23 0 46 -2q27 -3 52 -10.5t49 -24.5t36.5 -42t14.5 -51q3 -26 0 -49.5t-8 -44.5q-5 -23 -12 -43.5t-16 -39.5q-16 -39 -34 -72.5 t-36 -65.5q-38 -63 -74.5 -115.5t-69.5 -97.5q-67 -90 -117 -151t-85 -103t-55.5 -64.5t-28.5 -31.5q-14 -15 -28 -27t-26 -20t-21 -10.5t-13 1.5q-8 8 6 35t42 57q9 10 22 23t36 39q24 27 63.5 70t99.5 116q31 37 66 82t75 102q20 29 41.5 59.5t41.5 65.5q20 36 41 74.5 t37 83.5q8 22 14 45.5t9 47.5q2 25 -4 49.5t-23 43.5q-17 18 -43 27t-54 13q-30 3 -60 3t-61 -5q-126 -18 -251 -95q-122 -75 -235 -196q-102 -113 -170 -224t-113 -215q-45 -103 -68.5 -195.5t-29.5 -175.5q-1 -21 -1 -40q0 -59 11 -112q15 -70 51 -119q18 -25 40 -42.5 t46 -29.5q25 -11 49.5 -18t48.5 -10q24 -2 48.5 -2t47.5 2q48 5 94 15q47 11 94 26.5t99 36.5q51 20 106.5 46.5t118.5 60.5q32 16 66 35.5t70 39.5q17 11 35.5 22.5t37.5 22.5q5 3 11 6.5t12 6.5v3l1 5h1v1q-2 1 -0.5 0t5.5 -5q2 2 4.5 4t4.5 4l3 1q15 -11 19 -14.5t3.5 -3 t-2.5 2t1 -0.5l-1 -1v-1l-2 -6l-2 -5q10 -8 13.5 -10.5t-8.5 6.5l-1 -1l-6 -4q-3 -11 -7 -21q-40 -124 -78 -224.5t-74 -185.5q-20 -47 -39 -89t-39 -81q136 120 240 211t182 160t133.5 118.5t95 85.5t67 60.5t49 44.5t40.5 37t43 37q31 27 58 40t35 5q7 -8 -9.5 -33.5 t-48.5 -52.5q-9 -8 -16 -13t-19 -14.5t-34.5 -27t-63 -51t-103 -86t-155.5 -131t-221 -187.5t-298 -254q-9 -17 -18.5 -33.5t-17.5 -32.5q-17 -30 -36 -58t-39 -54q-20 -27 -43.5 -49.5t-51.5 -40.5q-14 -8 -31 -13.5t-35 -5.5q-19 0 -36 6q-4 2 -8 3.5t-8 3.5l-2 1 q0 -1 -0.5 3t-1 9t-0.5 7t0 -4h1l3 4l6 6q26 22 52.5 44.5t54.5 47.5q52 45 98.5 86t90.5 80q12 25 24.5 50t23.5 51q39 90 76 188.5t72 203.5q9 27 17.5 54t16.5 55q2 4 2 7q-44 -28 -90 -55t-95 -54q-143 -78 -255 -119t-208 -58q-48 -8 -93 -10h-19q-35 0 -69 5 q-43 7 -85 25t-77 52q-35 33 -57.5 79.5t-31.5 102.5zM742 -582q4 -2 9 -2q12 -3 24 -3q23 0 48 13q17 9 33 22t31 29q30 31 53.5 67.5t47.5 76.5q2 5 5 9t5 10q-39 -34 -80.5 -70t-86.5 -74q-14 -12 -29 -25t-29 -25q-8 -7 -14.5 -13t-15.5 -14z" />
<glyph unicode="H" horiz-adv-x="1592" d="M-56 51q3 10 9.5 17.5t12.5 13.5q26 20 54 36.5t58 32.5q2 5 3 9t3 8q33 98 57.5 187.5t44.5 172.5q41 165 69.5 294t48.5 230q20 100 35 172t24.5 121.5t15 77t7.5 38.5q7 38 20 63t24 23t14 -30q1 -8 1 -16q0 -22 -6 -50q-3 -12 -6.5 -29t-11 -49.5t-20 -85.5 t-31.5 -139q-20 -86 -49 -211t-73 -298q-23 -87 -50 -186.5t-63 -212.5q-5 -17 -11 -35.5t-12 -36.5q58 30 112 56t104 52q55 28 103.5 54t94.5 53q92 52 166 100.5t135 95.5q85 63 147 120t111 111q9 27 18.5 55t19.5 57q30 87 63 179t70 190q18 49 38.5 98.5t43.5 100.5 q12 26 26 51q7 12 16 27q2 3 5 6.5t8 7.5q1 2 5 5l4 2q1 1 5 3t9 2q7 0 11 -1t11 -5q5 -5 6 -7q5 -6 5.5 -9.5t1.5 -6.5q2 -8 2 -11v-17q0 -8 -0.5 -15.5t-1.5 -15.5q-1 -14 -2 -29t-4 -29q-11 -77 -29.5 -140t-40.5 -115q-22 -53 -44.5 -96.5t-46.5 -80.5 q-44 -68 -87.5 -121.5t-94.5 -107.5q-4 -9 -7 -18l-6 -18q-22 -61 -42 -117.5t-39.5 -112.5t-39.5 -114.5t-42 -123.5q-18 -53 -35 -103t-33 -96l-15 -46q-1 -7 -5 -16q17 5 33.5 11t32.5 12q80 30 146.5 59.5t125.5 56.5q114 54 190.5 97.5t129.5 76.5t87 56t59 40 q26 17 46.5 32t47.5 33q32 22 58 31t33 0t-10.5 -31.5t-49.5 -44.5q-10 -6 -17 -11t-22.5 -13.5t-43 -25.5t-79.5 -49q-52 -30 -134.5 -76t-210.5 -107q-65 -31 -141.5 -64t-168.5 -68q-24 -8 -47 -17t-49 -17q-14 -5 -26 -8l-3 -1l-2 -1h-1l-12.5 12.5t-1.5 2t2.5 -1.5 t-0.5 1l2 6l4 14l19 52q18 54 38 111t41 118q35 99 72 209.5t79 234.5q-57 -55 -131 -116.5t-180 -132.5q-56 -39 -123.5 -79.5t-148.5 -85.5q-80 -45 -174.5 -92.5t-204.5 -104.5q-1 -1 -3 -1q-2 -5 -3 -8.5t-3 -7.5q-5 -15 -11.5 -30t-13.5 -31q-8 -14 -16.5 -29 t-21.5 -28q-3 -3 -7.5 -5.5t-10.5 -4.5q-4 -1 -11 1l-8 3q-17 5 -33 15q-9 5 -14 15q-6 9 -3 21zM-35 42q0 -1 4 -4q6 -6 20 -11q3 -2 6 -2.5t6 -2.5q4 -2 8 -3q3 0 10 10q7 8 14 20t12 23q12 25 22 49q-37 -19 -67 -40q-11 -8 -21.5 -17.5t-12.5 -17.5q-1 -3 -1 -4zM8 19h1 h-1zM1127 859q10 11 19 22.5t18 22.5q28 37 52.5 74t46.5 76t41.5 81t37.5 89q18 48 33.5 102.5t25.5 120.5q2 16 4 33l4 34q1 6 1.5 13t0.5 13q-8 -13 -15.5 -28t-16.5 -30q-9 -19 -18 -39t-19 -40q-49 -111 -85 -203.5t-67 -172.5q-17 -46 -32.5 -87.5t-30.5 -80.5z" />
<glyph unicode="I" horiz-adv-x="912" d="M68 75q-2 30 2 57.5t10 55.5q12 56 30.5 113t40.5 117q29 76 51 130t40.5 97t35.5 80t34 78q18 40 39.5 88.5t48.5 116.5q28 68 63.5 158t79.5 215q11 33 21.5 65t21.5 62q-18 -26 -38 -47q-61 -70 -117 -116.5t-102 -78.5q-46 -33 -80.5 -53.5t-58.5 -34.5t-37.5 -21.5 t-19.5 -9.5q-18 -10 -35 -9t-22 12q-4 11 5.5 24t28.5 21q6 3 14 6.5t23 10.5l42 21t67 37q40 25 96.5 63t126.5 103q33 32 68 71t67 90q2 4 2.5 8.5t3.5 8.5l4 13v2l1 1q2 -1 4 -1.5t4 -1.5l1 1v1q3 -1 1.5 -0.5t-2.5 1t2 -1t14 -5.5l-1 -3q10 -4 11 -4.5t-1 0t-4 1.5t2 -1 l-1 -3l-4 -6q-3 -6 -6.5 -12t-6.5 -12q-1 -2 -1.5 -2.5t-1.5 -2.5q-5 -14 -10 -28.5t-11 -29.5q-11 -34 -24 -70.5t-28 -75.5q-55 -141 -95 -244.5t-69.5 -180.5t-51 -133.5t-39.5 -104t-34 -91t-35.5 -96t-44 -118t-58.5 -156.5q-10 -31 -17.5 -59t-13.5 -55 q-5 -27 -6.5 -50.5t4.5 -43.5q6 -19 23 -28q8 -3 17.5 -3.5t18.5 0.5q19 2 36.5 6.5t33.5 9.5q33 10 63 22t59 25.5t58.5 28.5t62.5 32q105 56 182.5 104t136.5 84q58 37 97.5 63.5t66.5 45.5q28 19 46 32t31.5 23t24.5 18t25 17q17 11 34 12.5t23 -7.5t-1.5 -24t-25.5 -26 q-5 -4 -9 -6t-13 -6t-24 -13t-43 -25t-71.5 -42.5t-108.5 -65.5q-67 -39 -157 -90.5t-216 -115.5q-34 -17 -70 -35.5t-76 -36.5q-20 -8 -41 -17t-44 -17t-47 -14t-52 -7q-8 0 -15.5 1t-15.5 5q-17 8 -27 23q-10 14 -12.5 29.5t-3.5 30.5z" />
<glyph unicode="J" horiz-adv-x="791" d="M-547 -819l1 1v1l2 2q-1 3 -1 10q1 11 3.5 22t6.5 21q8 20 17.5 37t19.5 34q38 57 76.5 101t75.5 82q13 22 26.5 44t26.5 45q68 113 114.5 196t83.5 149q36 68 67 125.5t64 121.5q32 63 69.5 141.5t85.5 187.5q24 54 51 117.5t56.5 138.5t61.5 162t67 189q35 104 64 199 t54 183q6 22 11.5 43t10.5 42q2 8 3 11q-19 -17 -37.5 -33t-37.5 -31q-59 -47 -115.5 -83.5t-109 -64.5t-100.5 -49t-90 -38q-87 -32 -150 -48t-107 -26q-44 -9 -68.5 -12.5t-36.5 -5.5q-34 -4 -59 2.5t-25 18.5q0 11 22.5 20t55.5 13q11 2 25.5 3t43.5 5q28 4 74.5 12.5 t120.5 28.5q36 11 80 25.5t97 36.5q52 22 111 52t124 73q33 20 66.5 44.5t68.5 54.5q15 13 30 27t31 28l2 8l1 3q4 -2 5 -3l5 4l1 1q-5 3 -2.5 2t7 -3.5t8.5 -5t3 -2.5l-1 -4l-1 -4q8 -5 9 -5l-3 1q-2 1 -3.5 2t2.5 -1l-1 -1l-3 -4q-3 -1 -4 -4q-2 -5 -3 -9.5t-3 -9.5 q-3 -12 -6.5 -24.5t-6.5 -26.5q-29 -100 -64.5 -212t-79.5 -240q-41 -117 -78.5 -216.5t-72.5 -184.5t-65.5 -157t-57.5 -133q-54 -123 -96 -212.5t-77 -164.5q-36 -75 -70.5 -143t-78.5 -148q-17 -31 -36 -64t-40 -70q52 48 104 93.5t115 97.5q153 125 271.5 213.5 t208.5 155.5t153 112t108 77q44 32 74 53.5t52 38t40.5 29.5t41.5 28q29 19 53 25t30 -3t-9.5 -29t-43.5 -38q-9 -6 -15.5 -9.5t-19 -11.5t-37 -23t-69.5 -42q-45 -30 -113.5 -75t-170.5 -116t-240.5 -170t-315.5 -241q-48 -39 -97.5 -82t-101.5 -92q-14 -14 -28.5 -28 t-28.5 -29q-29 -46 -62 -98t-72 -112q-30 -44 -57.5 -84t-54.5 -75l-6 -9l-2 -3l-1 -1q-3 0 -1 0h2.5t-2.5 0t-16 -1q0 1 -1 1v1q-2 3 -4 8q-2 8 -2 11h-3zM-488 -734q15 24 30.5 47.5t30.5 48.5q-17 -24 -33 -47.5t-28 -48.5z" />
<glyph unicode="K" horiz-adv-x="1798" d="M67 42q0 9 0.5 17t1.5 16q5 30 11 58.5t12 55.5q14 55 29 107.5t30 101.5q30 99 58 188t54 169q53 160 96 284.5t76 221.5q34 96 58 165t40.5 115.5t25.5 73t13 38.5q13 36 29.5 58.5t28.5 18.5q11 -4 9.5 -32.5t-15.5 -64.5q-4 -12 -10.5 -27.5t-18.5 -45.5t-32 -81 t-51 -132q-31 -82 -75 -201.5t-103 -286.5q-30 -84 -63 -180t-70 -209q-17 -56 -36.5 -115.5t-37.5 -124.5q-8 -33 -17 -66t-15 -68q-2 -8 -3 -16.5t-3 -18.5q-1 -8 -1 -17t2 -15q1 -3 3 -3q4 0 7 1q4 1 8 2.5t8 3.5q17 10 31 19q58 39 108 80.5t96 80.5t88 76t81 71 q77 69 142.5 128.5t120.5 111.5q112 103 193 180.5t147 142.5q34 32 66.5 62.5t64.5 61t66 63t72 67.5t79.5 72.5t94.5 80.5l27 22q7 5 14.5 10.5t17.5 10.5q1 1 3 1t4 1q3 1 6.5 1.5t11.5 -4.5q3 -2 4.5 -5.5t1.5 -5.5q1 -3 0.5 -4t-0.5 -3q0 -4 -2 -8q-2 -5 -5 -9.5 t-5 -9.5q-5 -8 -11.5 -15t-12.5 -16q-25 -31 -53 -62t-59 -64q-83 -88 -152 -158t-129 -130q-61 -59 -112.5 -109t-98.5 -94q-24 -23 -46.5 -43.5t-45.5 -39.5q-11 -10 -23 -19.5t-25 -17.5l-4 -2l-4 -2q-2 0 -2 -1h-1l-1 -1q-4 -4 -5 -9q-2 -6 -4 -13t-3 -14 q-5 -29 -5 -58.5t3 -59.5q3 -31 9 -62t18 -64q17 -51 44.5 -93.5t64.5 -71.5q37 -30 78.5 -43.5t83.5 -15.5h20q30 0 59 4q38 6 72 16q35 10 66 22t58 26q56 27 101.5 54t82.5 51q37 25 67 47t53 41q49 38 79.5 64t54.5 47q24 20 42 37t42 39q29 25 54 37t33 4 q7 -8 -7.5 -32.5t-43.5 -49.5q-9 -8 -15.5 -13.5t-19.5 -15.5q-14 -11 -39.5 -31t-73.5 -57q-24 -17 -55 -40.5t-70 -49.5q-40 -28 -89 -59t-112 -64q-32 -17 -66.5 -33t-74.5 -31q-40 -14 -84.5 -24.5t-94.5 -12.5h-14q-43 0 -89 10q-54 12 -101 48q-48 35 -81 88.5 t-50 116.5q-9 35 -15 70.5t-8 74.5q-1 18 -0.5 37.5t2.5 40.5l4 20t7 20q2 5 5 10.5t13 10.5q2 2 6 4.5t8 5.5q31 24 61.5 52t60.5 57q61 58 125 125q65 65 131.5 135t137.5 146q27 29 52.5 58t52.5 58q-24 -22 -46 -41.5t-42 -36.5q-42 -37 -77 -69.5t-67 -60.5 q-65 -57 -121 -107t-116 -104t-133.5 -120.5t-172.5 -156.5q-50 -46 -107.5 -97t-126.5 -113q-34 -30 -70.5 -62.5t-77.5 -66.5q-40 -35 -83.5 -71t-95.5 -72q-6 -4 -13 -8t-14 -9l-15 -7.5t-19 -5.5q-8 -2 -18 3q-5 4 -6.5 7.5t-3.5 7.5q-2 6 -2 10.5t-1 8.5z" />
<glyph unicode="L" horiz-adv-x="1800" d="M-19 22l1 1l3 5q2 3 3.5 5.5t3.5 5.5q7 11 13.5 22.5t13.5 24.5q14 26 29 55.5t32 65.5q33 72 68.5 170.5t77.5 235.5q43 140 72.5 256.5t52.5 212.5q24 96 40.5 172t28.5 135q12 58 21 100t14 70.5t8 45t5 22.5q4 23 15 36.5t22 11.5t16 -19.5t0 -38.5q-2 -7 -4 -17 t-7 -29t-13.5 -50t-20.5 -81t-30.5 -122t-45.5 -174q-27 -100 -63.5 -233.5t-90.5 -303.5q-51 -157 -93.5 -269.5t-80.5 -193.5q-17 -39 -37 -74q-4 -9 -8 -17.5t-10 -16.5q-2 -4 -4 -7.5t-4 -8.5q-1 -1 -5 -7l-2 -3v-1l-1 -1q-1 1 -0.5 0.5l1 -1t-1 1t-5.5 8.5h2 q33 8 62 14.5t56 12.5q54 12 103 22.5t110 21.5q59 11 135 21t183 14q20 0 40 1q48 0 90 -2q59 -2 108.5 -9t91.5 -15t79 -17q36 -9 70 -12.5t69 -3.5q69 0 143 19q62 16 113.5 39.5t94.5 48.5t78 49t65 46q59 44 98.5 78t65.5 57q27 25 44.5 41.5t30.5 29t24 23t25 22.5 q17 14 33.5 19t25.5 -3q8 -8 1.5 -25t-24.5 -32q-5 -5 -9 -7.5t-12.5 -8.5t-23.5 -18t-43 -33q-28 -22 -71 -56.5t-110 -83.5q-34 -24 -74.5 -51.5t-91.5 -55.5q-50 -28 -111 -55.5t-136 -45.5q-42 -10 -86 -14q-31 -3 -63 -3q-14 0 -29 1q-25 1 -49.5 4.5t-49.5 8.5 t-50 9.5t-52 8.5q-84 11 -177 11h-48q-120 -4 -253 -21q-87 -11 -149 -21t-112 -18t-93 -15t-91 -15q-5 -1 -11.5 -2t-12.5 -2l-3 -1h-1q-3 5 -1.5 2t2.5 -4t-2.5 4t-17.5 27z" />
<glyph unicode="M" horiz-adv-x="2182" d="M-77.5 46.5q6.5 30.5 27.5 67.5q7 12 16 28.5t27 47.5t48.5 83t78.5 136q48 83 118.5 203.5t172.5 287.5q51 84 110.5 180t129.5 204q36 55 75.5 112t83.5 116q23 30 46 60.5t48 59.5q26 29 55 59q14 14 30.5 27.5t34.5 24.5q8 5 17.5 8t20.5 3t20 -6.5t14 -14.5 q11 -17 14.5 -35.5t5.5 -35.5q4 -32 4 -63v-8q0 -35 -3 -68q-5 -67 -12 -127.5t-15 -117.5q-17 -114 -35 -209t-34 -178q-16 -82 -31 -152.5t-28 -132t-24.5 -116t-23.5 -104.5q-11 -50 -21.5 -97t-22.5 -96q-5 -20 -10 -42t-10 -45q35 43 74 91.5t83.5 103.5t95.5 118.5 t110 138.5q83 103 149 190t122 162q28 38 52 73t46 68q20 33 38.5 63t31.5 60q0 1 -1 1q1 0 1 1q-2 -1 -3.5 -1t3.5 1q2 2 2 4q1 2 1 4l1 1q-1 0 2.5 0.5t7.5 1t6 1t-3 -0.5h1v-1q1 -1 1 -3q2 -2 2 -4h3v-1v-1q-1 -1 -1 -3q0 -1 -1 -2q2 -5 2 -9v-8q1 -9 0.5 -18.5 t-0.5 -17.5q-2 -17 -3.5 -33.5t-3.5 -32.5q-5 -33 -9.5 -65t-9.5 -64q-10 -65 -20.5 -131.5t-20.5 -141.5q-16 -121 -23 -227q-3 -44 -3 -85q0 -59 6 -113q5 -46 18 -86.5t37 -67.5q11 -14 25.5 -23t31.5 -13q17 -3 33.5 -2t31.5 4q33 7 60.5 20t52.5 27q26 14 47.5 29.5 t40.5 29.5q39 30 70 56t56 49q50 46 81.5 78t54.5 56q24 25 48.5 50.5t48.5 49.5q29 30 55 46.5t34 9.5q8 -8 -6.5 -35.5t-44.5 -58.5q-9 -9 -20.5 -20t-26.5 -25q-14 -13 -39.5 -37t-74.5 -69q-25 -23 -56 -50.5t-72 -60.5q-20 -17 -44 -34.5t-51 -36.5q-27 -18 -57 -37 t-65 -36q-18 -8 -38 -15.5t-41 -12.5q-22 -5 -46 -6t-49 7t-44.5 25.5t-32.5 41.5q-13 23 -21 48.5t-13 51.5q-10 54 -11 112v29q0 44 2 92q4 62 11 128t18 137q11 77 24 157.5t25 167.5q3 23 6 45t5 45l3 36q-5 -10 -11 -19.5t-11 -18.5q-12 -22 -25 -43t-27 -42 q-55 -86 -117.5 -173t-131.5 -179q-68 -91 -141.5 -186t-153.5 -195q-52 -65 -95.5 -118.5t-82.5 -101.5q-5 -5 -9.5 -11t-9.5 -11l-1 -1v-1q-34 17 -43 21t-6.5 3.5t7 -3t-2.5 1.5l1 4l1 6l4 15q4 14 7 27t7 26q7 26 13.5 49.5t12.5 46.5q24 92 44 171.5t41 166.5 q22 87 45.5 192.5t52.5 250.5q14 74 29 157t28 183q6 50 12 102.5t8 111.5q1 29 0 58.5t-6 58.5q-2 14 -7 28t-13 22q-7 7 -16 7q-10 0 -25 -10q-27 -16 -50 -39t-44 -47q-43 -48 -80 -98q-37 -49 -70.5 -97.5t-65.5 -95.5q-62 -95 -115.5 -181.5t-101.5 -166.5 q-95 -159 -166 -285t-126 -225q-54 -98 -92 -168.5t-64 -118.5t-40.5 -75.5t-20.5 -38.5q-20 -37 -41 -59.5t-31 -17.5t-3.5 35.5z" />
<glyph unicode="N" horiz-adv-x="2075" d="M86 31.5q1 -0.5 4 -1t-2 0.5v1l1 2v6l2 13q2 13 3.5 26t3.5 27q17 111 41 209t48 187q26 89 51.5 168t51.5 149q49 142 92.5 252t78.5 194t61 143.5t43.5 100t28 63.5t14.5 33q14 31 32 49t29 13q10 -5 6.5 -30t-18.5 -56l-11.5 -23t-20 -39t-34.5 -69.5t-53 -114.5 q-33 -72 -77.5 -174.5t-103.5 -250.5q-29 -74 -59.5 -159t-63.5 -186q-32 -100 -63 -213.5t-52 -248.5q-6 -30 -9 -60l-2 -14q-6 1 -8 1.5t-1.5 0.5h1.5v1l1 2l1 3l3 7q3 6 6.5 12.5t6.5 14.5q11 27 23.5 51.5t24.5 48.5q24 49 47 92.5t46 83.5q47 80 91 145t87 119 q42 53 81 97t75.5 79.5t70.5 65t67 55.5q66 51 132.5 92.5t149.5 81.5q42 19 89 39t104 39q28 9 58.5 19t63.5 19l9 2l4 1h2l2 1q-6 6 -4 3.5t7.5 -8.5t10 -11.5t3.5 -3.5v-1q-2 -4 -3.5 -8t-3.5 -8l-8 -16l-8 -16q-8 -17 -14.5 -35t-14.5 -36q-40 -99 -66.5 -182.5 t-46.5 -157.5q-18 -74 -30 -136t-19 -119q-6 -57 -8 -109q-1 -15 -1 -29q0 -37 3 -75q2 -26 7 -51.5t13 -51.5t20 -51t31 -48q33 -36 75 -50q20 -8 42 -10.5t42 -2.5q43 1 81 10t74 21q71 27 127 57.5t104 58.5q95 59 157 106.5t106 81.5q43 35 74 61t55.5 47.5t44.5 40 t42 35.5q27 23 49.5 32t30.5 1q7 -8 -6 -30.5t-39 -43.5q-8 -7 -17 -15t-25.5 -20.5t-42.5 -33t-69 -52.5t-111 -81t-174 -117q-54 -33 -118.5 -69t-146.5 -68q-41 -16 -86.5 -28.5t-98.5 -14.5q-26 -2 -52 1.5t-53 14.5t-50 29t-40 42q-19 27 -31.5 57.5t-20.5 63.5 t-11.5 68.5t-4.5 70.5v29q0 59 6 121q8 77 22 158q29 161 86 338q28 90 65 180q5 11 10 22.5t10 22.5l5 11v1q5 -6 2 -2t-4 5.5t4.5 -5t29.5 -34.5h-1l-3 -1l-6 -2q-6 -2 -12.5 -3.5t-11.5 -3.5q-24 -7 -48 -15l-48 -16q-124 -43 -209 -83.5t-151 -79.5t-118.5 -77 t-106.5 -85t-114 -110t-131 -159q-35 -49 -71.5 -106t-75.5 -128q-20 -36 -40 -74.5t-40 -81.5q-10 -20 -20 -42t-20 -46q-2 -6 -5 -11.5t-5 -11.5l-1 -3l-27.5 7.5t-4.5 1z" />
<glyph unicode="O" horiz-adv-x="1587" d="M67 387q-2 24 -2 50q-1 34 3 71q6 66 30 154q11 44 28 92.5t42 104.5q26 55 59 116.5t82 128.5q98 132 212 216q56 41 114 67.5t116 37.5q29 5 56.5 7t52.5 -1q27 -2 51 -7t45 -13q45 -16 78.5 -42t56.5 -53q24 -28 38 -55t24 -51q9 -24 15 -44t10 -38q8 -33 10 -51.5 t3 -26.5q2 -27 -6 -46t-20 -18q-11 1 -18.5 18t-9.5 40q-1 8 -1.5 19t-3.5 32q-3 20 -9.5 54t-28.5 84q-12 25 -31.5 52t-50.5 52q-31 26 -75.5 43t-102.5 19q-10 1 -21 1q-47 0 -100 -15q-65 -18 -130 -57q-67 -39 -131.5 -98t-125.5 -138q-55 -74 -92.5 -143.5 t-64.5 -133.5q-27 -63 -42.5 -119t-26.5 -105q-12 -72 -12 -130q0 -22 2 -42q6 -73 27 -129q22 -57 54 -102.5t84 -85.5q27 -19 59 -36.5t72 -29.5t88 -17q17 -2 36 -2q34 0 72 6q77 11 135.5 37.5t104.5 56.5q46 32 80.5 63.5t62.5 63.5q28 33 49.5 64t42.5 65 q19 33 36.5 68.5t33.5 78.5q13 34 23 66t18 63l3 16l3 7l1 4v1q-7 -1 -4 0t9 1t11.5 0.5t4.5 0.5l1 -2l6 -14t7 -13q13 -27 28 -49q30 -47 63 -80t68 -52q34 -20 66 -28t61 -9q28 -2 51 1.5t42 8.5q38 10 61.5 21t41.5 19q17 9 31 17t31 19q20 12 39 15.5t27 -6.5 q6 -9 -4.5 -26t-33.5 -30q-7 -4 -12 -6t-16 -7t-31 -14t-59 -22q-19 -6 -44.5 -13t-57.5 -10q-18 -2 -38 -2q-18 -1 -36 1q-40 2 -86 22q-45 17 -89 54t-80 92q-9 13 -18 27.5t-17 30.5q-4 8 -7.5 16t-7.5 16l-4 9l-2 4v1h-1q-6 0 -3.5 0t8.5 1t11 1.5t4 0.5l-1 -3 q-1 -4 -2 -8.5t-2 -9.5q-9 -36 -21.5 -74t-28.5 -78q-18 -43 -40.5 -87t-51.5 -90t-65 -90.5t-82 -87.5q-46 -42 -101.5 -77.5t-122.5 -59.5q-68 -25 -143 -31q-13 -1 -25 -1q-26 0 -52 3q-40 4 -79 15q-50 14 -89.5 36t-69.5 47t-51.5 51t-36.5 51q-32 52 -46 102.5 t-19 105.5z" />
<glyph unicode="P" horiz-adv-x="1377" d="M-28 -210q2 19 7.5 36.5t10.5 35.5q6 17 12.5 35t13.5 35q26 62 52 119.5t52 109.5q17 65 31 125t26 116q36 165 61 295t45 232q18 100 31 173t21 122t12.5 76.5t6.5 38.5q7 38 19.5 63t23.5 24q11 -2 15 -30q1 -9 1 -20q0 -21 -5 -46q-2 -12 -6 -29t-10.5 -49t-18 -86 t-28.5 -140q-17 -87 -44 -211.5t-65 -299.5q-13 -55 -27 -115.5t-31 -127.5q26 50 52 99q51 92 97 167.5t87 140.5q42 65 79 119t71.5 100t66.5 86t62 76q32 36 63 68t65 63q34 30 72 58.5t86 53.5q24 11 50.5 21t55.5 15q29 6 59 5q35 0 71 -7q35 -8 69 -27.5t61 -51.5 t44 -72t25 -86q7 -41 7 -79q0 -19 -2 -39q-5 -56 -16 -106q-13 -49 -30.5 -93t-38.5 -82q-42 -76 -89.5 -131t-97.5 -98t-101 -74t-106 -55q-5 -2 -9.5 -4.5t-9.5 -4.5q122 20 206 39t143 37q60 17 98 31t66 26q28 11 49.5 22.5t48.5 25.5q16 9 29.5 16.5t24.5 12.5 q24 11 32 6q11 -8 -5 -35q-8 -11 -22 -23.5t-31 -22.5q-11 -7 -19 -10.5t-24 -11.5q-17 -7 -48 -18.5t-90 -30.5q-58 -17 -150 -38.5t-233 -43.5q-49 -8 -103.5 -14.5t-116.5 -13.5q-39 -9 -81 -16q-55 -8 -107 -11q-39 -2 -78 -2h-25l-12 1h-6h-3h-1q0 -2 -0.5 4t-0.5 13 v10t0 -4h1q6 0 12 0.5t11 1.5q12 1 24 1.5t24 1.5q23 2 44.5 4t42.5 4q114 12 205 25q86 25 168 70q71 39 135 94.5t117 127.5q53 74 90.5 162t45.5 189q2 22 2 45q0 27 -3 55q-5 50 -25 98q-19 47 -55.5 82.5t-88.5 48.5q-33 9 -65 9.5t-60 -6.5q-30 -6 -55 -16t-49 -23 q-47 -26 -84.5 -53.5t-70.5 -55.5q-63 -57 -113 -112t-103 -117q-26 -32 -52 -67t-55.5 -76t-61.5 -89t-68 -105t-75.5 -124.5t-82.5 -148.5q-14 -27 -29 -55.5t-30 -57.5q-5 -20 -11 -41l-12 -42q-16 -57 -34 -118t-44 -124q-7 -15 -14 -31t-16 -31q-5 -8 -10 -15.5 t-12 -13.5q-5 -3 -8 -6t-11 -4q-5 0 -9 3q-2 3 -4 7q-1 4 -1 10zM-4 -197q6 7 10.5 16t9.5 18q24 50 40.5 101.5t30.5 100.5q2 6 3.5 12t3.5 12q-14 -33 -29 -67.5t-29 -70.5q-11 -29 -21.5 -57.5t-16.5 -55.5q-1 -2 -1 -4.5t-1 -4.5z" />
<glyph unicode="Q" horiz-adv-x="1676" d="M116 406q4 110 47 250q43 144 107 251t131 183q69 76 132 125.5t115 81.5q52 33 92 53t68 31q28 12 43.5 18.5t22.5 8.5q23 8 41 4.5t21 -14.5q2 -11 -11 -22.5t-33 -18.5q-7 -2 -16.5 -5t-27.5 -10q-17 -6 -47 -17t-76 -34q-46 -24 -109 -62.5t-140 -109.5 q-39 -36 -79 -80.5t-79 -102.5t-74 -128.5t-62 -156.5q-26 -80 -38 -150q-10 -64 -10 -121v-10q1 -61 14 -112.5t35 -90.5q23 -39 50.5 -65.5t56.5 -44.5t55.5 -29.5t52.5 -18.5q52 -14 103 -19q37 -5 79 -5q15 0 31 1q8 0 15.5 0.5t15.5 1.5h3h1h1h2l2 1h7q4 0 8 0.5t9 0.5 q33 3 69 12q37 9 78 24.5t86 41.5q-9 5 -19.5 10.5t-22.5 11.5q-35 20 -79 53t-97 85q-53 54 -91 103t-67 92t-49 77.5t-34 60.5q-30 54 -42.5 80t-15.5 33q-5 11 -0.5 21.5t16.5 14.5q10 4 20 0t14 -16q1 -3 2.5 -8t5 -14t9 -24t15.5 -39t25.5 -58t42.5 -80t64.5 -103.5 t99.5 -124.5q58 -61 107.5 -96t90.5 -55l14 -6t13 -6q53 33 92.5 68.5t69.5 70.5q33 38 56 73.5t42 67.5q18 33 33 65t28 64t24.5 66.5t22.5 73.5q36 127 44 225q3 35 3 66q0 58 -10 104q-6 36 -17 64t-24 49t-27.5 36.5t-27.5 25.5q-27 20 -48 29t-37 14t-29.5 7.5 t-30.5 4.5q-20 2 -35.5 10t-16.5 19q-2 11 15.5 19.5t42.5 5.5q8 -1 13 -2t15 -4q11 -4 31 -10.5t53 -24.5q16 -10 35.5 -24.5t39.5 -37.5q20 -24 37.5 -55t29.5 -74q17 -59 17 -135q0 -31 -3 -65q-10 -116 -55 -265q-25 -80 -60 -169t-97 -182q-30 -46 -69 -91t-89 -85 q-6 -5 -12 -9.5t-12 -9.5q32 -8 61 -14q27 -4 52.5 -5t55.5 0t66.5 5t88.5 17q68 18 111.5 40t76.5 42t59.5 40.5t58.5 47.5q50 43 84.5 78t59.5 63q25 29 41 49.5t28 34.5q10 15 17 25t12 17.5t9.5 14t10.5 14.5q7 8 18.5 9.5t20.5 -5.5q8 -7 9.5 -18.5t-6.5 -20.5 q-2 -3 -4 -4.5t-6 -5t-11.5 -10t-19.5 -19.5t-32 -33l-50 -50t-71.5 -70t-102.5 -89q-33 -26 -71 -56t-86 -60q-47 -30 -105.5 -56t-130.5 -37q-39 -5 -70 -5h-10q-35 1 -62 6q-27 4 -49 10.5t-46 15.5q-14 4 -32 12q-42 -28 -89 -50t-100 -36q-46 -12 -85 -15 q-5 0 -10.5 -0.5t-10.5 -0.5h-4h-1h-2q-3 0 -5.5 -0.5t-4.5 -0.5q-9 -1 -18 -1h-17q-35 0 -63.5 2.5t-55.5 7.5q-53 10 -96.5 25t-87.5 41q-22 14 -43.5 31.5t-42.5 40.5q-20 24 -39 54.5t-33 69.5q-25 71 -25 166v24z" />
<glyph unicode="R" horiz-adv-x="2438" d="M53 32q1 8 1.5 15.5t2.5 15.5q10 61 25 118.5t32 111.5q34 109 69.5 203t69.5 180q69 170 127 300.5t104 231.5q47 100 81.5 172.5t57.5 120.5t37 76t19 39q19 37 39.5 59.5t31.5 17.5q10 -5 2.5 -35t-24.5 -67q-6 -12 -14.5 -28t-25.5 -47.5t-44.5 -84t-70.5 -137.5 q-42 -85 -101.5 -208.5t-137.5 -300.5q-30 -68 -61.5 -143t-64.5 -161q33 70 66.5 130.5t68.5 113.5q62 95 124.5 168t122.5 131t115 102t106 80q52 36 99 63.5t94 51.5q46 24 90 42.5t90 35.5q47 15 96 28t105 21q56 9 120 9q33 0 67.5 -3.5t69.5 -14.5q17 -5 36 -13.5 t36 -20.5q17 -11 32.5 -28.5t23.5 -38.5q10 -20 14 -44t0 -49t-14 -47.5t-24 -43.5q-18 -29 -40 -52.5t-43 -43.5q-23 -20 -45.5 -38.5t-43.5 -34.5q-45 -33 -87.5 -59t-82.5 -49t-77.5 -42.5t-73.5 -36.5q-17 -9 -34 -17l-34 -16l-34 -15l-8 -5q2 -8 2 -13 q13 -69 32 -129.5t43 -120.5q24 -58 55.5 -116.5t77.5 -116.5q74 -94 166 -146q45 -26 91 -39t91 -18q29 -3 56 -2q58 0 111 11q77 17 139 40q63 25 113 51.5t92 52.5q41 26 73.5 48t59.5 43q54 40 87.5 68.5t58.5 50.5t45.5 40t46.5 40q31 28 57.5 42.5t34.5 6.5 q7 -8 -9 -34.5t-48 -53.5q-9 -8 -16 -14.5t-23 -17.5q-14 -11 -41.5 -33.5t-79.5 -61.5q-27 -19 -60.5 -43.5t-77.5 -53.5t-98 -61t-125 -64q-36 -16 -75 -31t-83 -26q-45 -11 -93 -19q-39 -6 -82 -6h-22q-54 2 -110.5 16t-111.5 44t-104.5 74.5t-92.5 101.5 q-46 62 -82.5 135.5t-65.5 156.5q-14 42 -27 85.5t-24 89.5q-1 6 -2 11.5t-2 11.5q0 2 -1 4q0 -1 2.5 3t5 8.5t4 6.5t-2.5 -3h1v1h3l5 3l10 4q11 5 21.5 10t21.5 11l43 21.5t43 23.5q44 24 87.5 48.5t87.5 53.5t87.5 60.5t83.5 68.5q20 18 38.5 37.5t35.5 42.5 q16 22 28.5 45.5t17.5 48.5q3 14 3 27q0 36 -22 68q-13 20 -36 34t-50 24q-36 11 -71 14.5t-68 3.5q-34 0 -64.5 -2.5t-60.5 -6.5q-58 -9 -106.5 -22.5t-92.5 -27.5t-83.5 -30t-76.5 -33.5t-73.5 -37t-74.5 -42.5q-37 -24 -76 -50t-81.5 -60t-88.5 -76t-95 -95t-99.5 -119.5 t-101.5 -149.5q-51 -85 -98.5 -187.5t-86.5 -229.5q-20 -66 -34 -127q-4 -15 -7.5 -30.5t-6.5 -31.5l-3 -15l-1 -7l-1 -4v-2v-1q10 -2 5.5 -1t-13.5 2.5t-18.5 2.5t-6.5 1z" />
<glyph unicode="S" horiz-adv-x="1575" d="M-22 1353q-4 26 0 55q3 29 16.5 56.5t36.5 48.5q24 22 49.5 36t52.5 23q28 10 54.5 15.5t53.5 10.5q53 8 103 11t99 3q97 0 184 -6.5t166 -21.5q39 -8 75 -18.5t70 -24.5q33 -14 62.5 -33t53.5 -44t37.5 -54.5t18.5 -58.5q5 -30 2.5 -58t-8.5 -52q-13 -49 -32 -87 t-38 -68q-18 -31 -35.5 -54t-31.5 -42q-30 -37 -47.5 -56.5t-25.5 -27.5q-25 -27 -49 -38t-32 -3q-7 8 5.5 31t36.5 48l19 19t31 33q18 19 51 61q15 20 34 45.5t37 60.5q9 17 18 37t16 43t10.5 48t0.5 52q-4 27 -17 54t-36 51q-24 24 -56 42t-70 33q-76 29 -169.5 42.5 t-202.5 18.5q-55 2 -113 2t-119 -5q-31 -3 -62.5 -8t-63.5 -14q-31 -8 -61.5 -22.5t-56.5 -38.5q-24 -22 -36 -50t-13 -57q-2 -30 4 -58.5t14 -55.5q18 -52 42.5 -97.5t49.5 -87.5q50 -83 98 -149t90 -124q42 -57 78.5 -105.5t67.5 -91.5t57.5 -82t50.5 -76q24 -36 45 -72 t40 -73q15 -31 29 -63t25 -69q153 43 274 70t218 48q114 27 191.5 50t131.5 42q54 20 88 35t59 28q26 13 45 24.5t43 26.5q14 9 26.5 16.5t22.5 12.5t17 6.5t12 -0.5t5 -12t-6 -21q-6 -12 -18.5 -24.5t-28.5 -23.5q-10 -6 -17 -9.5t-21 -12.5q-15 -7 -43 -19t-81 -33 q-53 -19 -137 -44t-212 -54q-65 -14 -140 -28.5t-163 -34.5q-59 -13 -124 -28t-136 -34q2 -10 4 -15q5 -25 8.5 -51t2.5 -54q-1 -29 -8.5 -58.5t-22.5 -58.5q-30 -58 -87.5 -107.5t-138.5 -77.5q-53 -18 -105 -26q-41 -6 -79 -5h-20q-48 1 -91 10t-79 29q-17 11 -32 26 t-20 36q-5 20 1 39t16 33q20 30 45.5 49.5t50.5 36.5q51 33 101 56t102 44q51 20 105 39t115 39q23 7 44.5 13t41.5 12q-11 41 -26 76.5t-30 67.5q-36 71 -71.5 129.5t-76.5 121.5q-42 62 -95 136.5t-125 177.5q-36 52 -77 111.5t-84 134.5q-20 37 -40 78.5t-33 91.5 q-7 25 -11 51zM51 -151q-2 -7 -2 -14q0 -24 24 -43q14 -11 32.5 -19.5t38.5 -13.5q42 -10 86 -11h13q38 0 79 5q46 6 90.5 20t87.5 38q42 24 77 57t59 77q15 28 21.5 56t7.5 55t-3 52.5t-10 49.5q-51 -14 -104 -31q-61 -18 -127 -42t-133 -54q-33 -15 -67 -33t-66 -40 q-16 -11 -31.5 -22.5t-30.5 -25.5q-14 -13 -25.5 -28.5t-16.5 -32.5z" />
<glyph unicode="T" horiz-adv-x="1702" d="M-308.5 1328q2.5 5 7.5 18q-4 4 -6 5l-1 1q-1 -2 2 5t7 15t5.5 12.5t-2.5 -5.5h1h2l3 -1l3 -1q2 5 3.5 8t0.5 0l1 -1l6 -4t5 -4t4 -3q11 -2 21 -5t22 -5q31 -7 63.5 -15.5t68.5 -16.5q95 -23 174 -41t146 -32.5t124.5 -26.5t108.5 -23q71 -14 133.5 -25.5t130.5 -22.5 q7 66 12.5 113.5t9.5 80t5.5 51.5t2.5 28q4 31 14 52t22 19q11 -2 16.5 -24.5t1.5 -53.5q-1 -10 -3 -23.5t-6 -40t-11 -70.5t-17 -114q-1 -5 -2 -12t-2 -13q20 -4 41.5 -7t45.5 -7q178 -28 314 -44t237 -23.5t173 -9t122 -1.5q50 1 83 3t57 4q25 2 45.5 4.5t44.5 4.5 q31 4 53.5 -0.5t24.5 -15.5t-18.5 -22.5t-53.5 -15.5q-10 -1 -16.5 -1h-20.5t-40 -1q-13 0 -32.5 -0.5t-43.5 0.5q-49 0 -126 3t-191 13t-270 29.5t-362 55.5q-17 3 -35 6.5t-35 6.5q-10 -68 -24.5 -159.5t-34.5 -214.5q-12 -72 -27 -154t-36 -176q-10 -47 -21.5 -96.5 t-25.5 -103.5q-8 -27 -16.5 -53t-18.5 -54q-5 -14 -10 -27.5t-12 -26.5q-7 -14 -15.5 -27t-20.5 -25t-30 -9q-14 3 -27 14q-11 8 -20 18t-17 20q-16 22 -30 43.5t-27 42.5q-25 43 -45.5 83t-39.5 78q-38 77 -68.5 141.5t-57.5 120.5q-53 112 -92.5 194t-74.5 148 q-36 68 -69 129.5t-76 133.5q-22 35 -47.5 73t-60.5 77q-2 2 -5 4.5t-5 4.5q-2 1 -3 1t-3 1l-5 1h-3h-1v1q-7 -15 -4.5 -10zM-218 1319q11 -13 20.5 -26t17.5 -26q15 -22 28 -43t24 -40q23 -40 41 -75t34 -67q32 -63 57 -118t52 -116q27 -60 59.5 -133.5t78.5 -172.5 q24 -49 50 -106t60 -124q17 -33 35.5 -67.5t41.5 -70.5q11 -17 24 -35t27 -36q6 -8 14.5 -15.5t16.5 -12.5t15 -6t11 5q8 6 14.5 15.5t11.5 20.5q10 19 19 43q8 22 15 43.5t13 44.5q12 44 22.5 86t18.5 84q17 82 30 155.5t24 141.5q22 135 36 241t25 189q1 11 2 21.5t3 22.5 q-92 15 -192.5 32t-212.5 37q-74 13 -151 28t-160 33q-41 8 -83 16.5t-86 18.5l-28 6z" />
<glyph unicode="U" horiz-adv-x="2140" d="M173 334v21q0 37 5 69q7 42 20 83q23 81 66 169q36 73 73.5 131.5t73.5 108.5q36 49 69.5 90.5t63.5 75.5q60 68 105.5 113t78.5 76q34 30 57 48.5t40 33.5q17 14 33 25t35 23q24 15 45 18t27 -8q5 -10 -7.5 -26t-35.5 -30q-7 -5 -12 -7t-16 -9q-11 -6 -30 -17.5 t-54 -36.5q-34 -26 -85 -68t-122 -113q-35 -36 -74 -80t-82 -99t-87 -121.5t-86 -149.5q-23 -45 -41 -94.5t-29 -105.5q-10 -48 -9 -100q-1 -7 -1 -15q2 -61 30 -117q28 -54 83 -92q55 -35 125 -52q35 -8 71.5 -13t75.5 -7q19 -2 38 -2h39q38 1 78 6q51 8 92 22t77 30 q35 15 63.5 31.5t54.5 32.5q51 34 91 67.5t82 72.5q42 41 87 94t100 132q14 20 28 41.5t29 45.5q7 12 13.5 24.5t14.5 25.5q8 14 15 27q4 7 7 14l4 7l2 3v2q4 -2 1.5 -1t-3.5 1.5t4 -1t26 -7.5v-1v-1q-10 -65 -17 -139q-6 -65 -6 -139v-22q2 -91 17 -167q8 -39 19.5 -74 t31.5 -63q19 -30 45.5 -46.5t56.5 -19.5q30 -4 59 2t56 18q54 20 98 49t82 57q37 29 68 56t58 52q53 49 89.5 86.5t61.5 62.5q24 27 42.5 47t23.5 25q18 20 37 29.5t28 1.5q8 -8 1 -27.5t-26 -40.5q-6 -7 -19.5 -20.5t-30.5 -29.5q-17 -17 -45.5 -44t-75.5 -70 q-24 -22 -53 -46.5t-65 -54.5t-80.5 -62t-100.5 -64q-30 -15 -61.5 -29t-69.5 -22q-18 -4 -38.5 -5.5t-41.5 1.5q-43 5 -79 32q-36 29 -56 71.5t-31 89.5t-15.5 98.5t-5.5 105.5q0 51 3 97.5t7 89.5q2 22 5 42.5t5 40.5q1 5 1.5 10t1.5 10l2 10v4l1 1q8 -2 5.5 -1.5 t-0.5 -0.5h-1l-1 -2q-4 -9 -8 -17.5t-9 -16.5q-36 -67 -70.5 -119.5t-66.5 -97.5q-65 -89 -118.5 -148.5t-103.5 -104.5q-51 -45 -102.5 -81.5t-120.5 -67.5q-35 -15 -74.5 -28t-89.5 -21q-43 -7 -92 -7h-12q-29 0 -58.5 2t-62.5 7q-87 12 -155 40t-113 74 q-23 23 -37.5 47.5t-24.5 50.5q-8 26 -12 50t-5 48z" />
<glyph unicode="V" horiz-adv-x="1711" d="M155 1477q1 24 8.5 39t18.5 15t19.5 -16t8.5 -38q0 -9 -1 -24t-2.5 -50t-2 -97.5t-0.5 -166.5q1 -105 6.5 -260.5t26.5 -374.5q5 -55 12 -113.5t17 -122.5q10 -65 24 -131t35 -137q2 -9 5 -18l6 -18q2 -5 3 -8.5t3 -8.5l3 -9v-1q5 0 3 0t-6 -1t-8 -1t-3 0q1 1 1 4 q2 4 2 5q8 17 18 34t22 33q22 34 44.5 68t47.5 68q49 69 102.5 140.5t112.5 146.5q183 232 334 397t270 280t207 186t149 115q62 44 101 67t64 38q26 13 43.5 21.5t41.5 17.5q23 8 41 5t20 -14q3 -11 -9.5 -23t-32.5 -19q-8 -3 -14 -4.5t-23 -6.5q-17 -6 -51.5 -20.5 t-99.5 -50.5q-62 -36 -156.5 -103t-222.5 -181q-128 -116 -291 -289.5t-360 -423.5q-49 -62 -94.5 -122.5t-88.5 -119.5q-42 -59 -80.5 -115.5t-71.5 -112.5l-3.5 -7l-3.5 -7l-3 -7q0 -1 -1 -2v-1q-3 0 -1.5 -0.5t2.5 -0.5t-2 0h-14l-1 2q-3 8 -5.5 15.5t-5.5 15.5 q-5 15 -9.5 30t-9.5 31q-8 30 -15 59l-14 58q-12 57 -20.5 111.5t-17.5 106.5q-29 207 -40.5 369t-18.5 283q-6 121 -9.5 205.5t-5.5 139t-3 82.5t-1 38z" />
<glyph unicode="W" horiz-adv-x="2237" d="M157 321q4 56 13 108q19 105 48.5 194t60.5 167t61.5 143t58.5 123q59 114 108 191t85 128q37 51 60 78.5t33 38.5q17 17 34.5 30.5t33.5 21.5q14 7 24.5 8t14.5 -4q3 -5 -2 -13.5t-14 -21.5q-9 -11 -22.5 -25.5t-28.5 -32.5q-10 -11 -24 -26.5t-39 -46.5t-64.5 -84.5 t-95.5 -146.5q-28 -46 -59.5 -104t-66.5 -128q-34 -72 -70.5 -158t-67.5 -192q-16 -52 -29.5 -109.5t-20.5 -120.5q-4 -31 -4 -63q0 -3 1 -6q0 -30 4 -60q5 -33 16.5 -65t35.5 -59t57 -41t71 -16q11 -2 21 -2q28 -1 54 11q36 16 67 42q32 27 60.5 58t55.5 66q28 35 53.5 72 t49.5 77q77 123 134.5 235.5t106.5 215.5q27 90 56 169.5t65 164.5q19 47 40.5 97t48.5 107q3 8 6.5 15t6.5 15q4 7 7 14l4 9l1 1q23 -9 28.5 -12t4 -2.5l-4.5 1.5t2 -1l-1 -2l-1 -4q-6 -15 -13 -31t-13 -33q-13 -34 -27.5 -69.5t-30.5 -74.5q-24 -57 -50.5 -119t-58.5 -131 q-15 -49 -28.5 -95.5t-24.5 -94.5q-14 -54 -25.5 -110t-19.5 -118q-5 -32 -7.5 -65t-2.5 -68v-18q0 -27 2 -55q3 -37 12 -76q10 -38 30 -75.5t56 -63.5q35 -27 85 -38q34 -8 69 -8q16 0 33 2q35 5 64.5 21.5t54.5 36.5q26 22 47 46t39 48q36 50 63.5 99.5t49.5 97.5 q41 90 68.5 169.5t50.5 152.5q7 39 15.5 78t18.5 80q10 43 20.5 86t23.5 89l6 23l3 11l1 3v1l1 1q3 0 1 0.5t-3 0.5t3 -1t18 -4l-1 -1v-5q-2 -11 -4.5 -23t-4.5 -24l-10 -48t-10 -47q-13 -60 -28.5 -121.5t-34.5 -125.5q-16 -88 -26 -167.5t-12 -153.5q-1 -23 -1 -45 q0 -28 1 -55q2 -48 13 -91q9 -43 27.5 -79t47.5 -53q26 -14 53 -14q5 1 11 1q34 4 63 13q30 11 56 25t50 28q46 30 81.5 58.5t63.5 53.5q57 50 93 86.5t63 62.5q27 28 58.5 61t58.5 62q16 17 31.5 31t28.5 23t23 12.5t14 -0.5q8 -8 -9 -38t-49 -66q-10 -11 -28 -28t-34 -32 q-15 -14 -44.5 -42t-84.5 -79q-28 -25 -63 -56t-83 -67q-24 -18 -51 -37t-60 -39q-32 -17 -68.5 -34.5t-83.5 -25.5q-24 -4 -48.5 -2t-48.5 14t-41.5 33t-28.5 46q-23 50 -29 106.5t-6 117.5q1 109 18 231q-2 -7 -4.5 -13.5t-4.5 -13.5q-19 -54 -41.5 -108.5t-49.5 -109.5 q-29 -55 -62.5 -108.5t-83.5 -101.5q-24 -24 -52 -44.5t-63 -33.5q-34 -11 -74 -13q-17 0 -35 1t-37 4q-36 6 -71.5 22t-64.5 44q-30 28 -47.5 62.5t-29.5 71.5q-13 48 -16 92q-2 33 -2 64v21q2 42 5.5 79t8.5 71q8 49 17.5 93.5t20.5 83.5q-40 -83 -87.5 -172.5 t-106.5 -187.5q-41 -67 -84 -127t-94 -113q-25 -26 -53 -48t-60 -38q-16 -8 -35 -12t-37 -3q-36 0 -68 9q-34 8 -63 27.5t-48 47.5t-29.5 58t-15.5 60q-5 41 -5 79q0 19 1 38z" />
<glyph unicode="X" horiz-adv-x="1869" d="M-176 -36q-7 8 9 32t47 51q10 8 24 19t40 32.5t69.5 58t113.5 95.5q69 58 166 143.5t229 207.5q-27 43 -54.5 85.5t-55.5 88.5q-51 81 -106 165t-120 170q-65 85 -141.5 167t-173.5 149q-8 5 -15.5 10t-15.5 10q-2 2 -3.5 2.5t-3.5 2.5l-4 2l-2 1q13 24 19.5 35t8.5 14.5 t1 1.5t-2.5 -4.5t-2.5 -3.5t3 4h1q4 -2 7.5 -4t7.5 -4q15 -8 30.5 -15t30.5 -14q59 -25 114 -40q54 -15 102 -23t92 -12q56 -4 107 -4q30 0 58 1q76 4 158 18q83 13 181.5 41.5t227.5 80.5q33 13 67 27.5t72 30.5q37 16 77.5 34t86.5 35q11 4 23.5 7t26.5 5h15t17 -4 q9 -3 15 -13t7 -18q2 -17 -1.5 -30.5t-7.5 -26.5q-5 -14 -10 -26.5t-10 -25.5q-24 -52 -55 -103t-69 -103q-77 -105 -155 -194t-151 -169q-74 -79 -142 -148t-132 -130q-46 -45 -89 -86q27 -43 53.5 -83.5t54.5 -79.5q36 -50 75 -99.5t89 -101.5q41 -41 83 -74t86 -57 t88 -37.5t87 -18.5q32 -4 63 -3q51 0 97 10q74 16 133 40q60 25 107.5 52t86.5 52q39 26 69.5 48.5t55.5 43.5q50 41 81 69t55 49q24 23 42.5 41t42.5 41q30 27 55 41t33 6t-6 -33.5t-44 -53.5q-9 -8 -16 -14t-21 -17t-39 -33.5t-75 -61.5q-25 -20 -56.5 -44t-72.5 -53 q-42 -30 -93 -62t-118 -65q-34 -16 -71 -31t-80 -26q-43 -12 -90 -19q-37 -5 -77 -5h-23q-52 2 -105.5 16.5t-107.5 43.5q-53 28 -102.5 68t-95.5 89q-68 73 -131.5 160t-127.5 186q-90 -87 -165 -155.5t-136 -124.5q-79 -72 -136 -122.5t-96 -85t-61.5 -54t-31.5 -27.5 q-31 -26 -57.5 -37.5t-33.5 -3.5zM-30 1406q78 -66 158 -161q80 -97 137 -184t104 -162q46 -76 83.5 -140t73.5 -121q3 -5 6.5 -9.5t6.5 -10.5q67 61 141.5 133.5t158.5 158.5q87 88 180 190t189 229q43 58 78.5 116t59.5 117q5 14 9.5 29t5.5 29q1 7 -1 13.5t-7 11.5 q-5 4 -12 4.5t-14 0.5q-29 -4 -55.5 -14t-50.5 -20q-99 -43 -184 -80.5t-159 -64.5q-75 -28 -140 -47.5t-123.5 -33t-110.5 -21.5t-102 -12q-49 -5 -95.5 -5t-93.5 4q-48 4 -96 12t-101 24q-11 3 -22.5 6.5t-23.5 7.5z" />
<glyph unicode="Y" horiz-adv-x="1283" d="M-56.5 -473q-0.5 1 5.5 -3q0 8 0.5 15t1.5 16q2 17 6 34t9 33q11 31 26.5 58t33.5 51q30 38 62 67t67 56q30 52 59.5 106.5t59.5 112.5q62 117 108 201t83 152t68.5 126t66.5 122q34 65 75 141.5t96 183.5q20 39 42 82t47 93q-6 -6 -12 -13l-12 -14q-33 -35 -67.5 -72 t-72.5 -76q-78 -80 -152 -149t-149 -124q-18 -14 -37 -27t-39 -24t-40.5 -20t-45.5 -13q-12 -2 -25 0t-27 10q-12 8 -19 19t-11 22q-8 22 -10 42.5t-3 39.5q0 39 3.5 75t9.5 70q5 33 11 64t12 60q12 58 25 109t24 95q25 87 43.5 150t31 105.5t21 66.5t11.5 34q11 33 26 53 t26 16t10.5 -29t-11.5 -57q-3 -11 -8.5 -25t-15.5 -41t-26 -73t-39 -120q-11 -38 -25 -83t-29 -100q-14 -55 -30.5 -120.5t-28.5 -142.5q-3 -19 -5 -39.5t-3 -40.5q-2 -20 -1.5 -42.5t5.5 -42.5q2 -11 6 -20.5t12 -15.5q12 -13 36 -10q23 2 45.5 12t44.5 23q45 27 89 61 t89 73q46 39 91 82.5t93 91.5q45 44 84.5 85.5t76.5 81.5q12 14 24.5 27t23.5 26q2 4 3.5 7.5t3.5 6.5l9 19l2 4l1 2q-2 1 1 -1t9 -5l1 1q2 -1 0 0.5t6 -2.5l-1 -1v-1q8 -5 12.5 -9t-4.5 1l-1 -2l-7 -7q-5 -6 -10.5 -12t-10.5 -11l-15 -31q-42 -83 -77.5 -153t-66.5 -132 q-31 -60 -56 -112.5t-48 -98t-42.5 -86t-38.5 -76.5q-37 -75 -71 -144t-76 -150q-36 -69 -80 -150.5t-105 -187.5q35 22 72.5 42.5t80.5 42.5q90 44 168.5 78.5t147.5 65.5q70 31 129 57.5t110 50.5q102 47 171.5 82.5t118.5 62.5q47 27 78 45.5t54 32.5t42.5 26.5 t43.5 26.5q30 18 54 24.5t30 -2.5t-10 -29.5t-45 -38.5q-9 -5 -16 -8.5t-20.5 -11t-39.5 -20.5t-73 -38q-48 -25 -123 -61.5t-189 -88.5q-57 -26 -125 -55t-148 -62q-80 -35 -171.5 -73.5t-194.5 -89.5q-40 -20 -81.5 -43t-83.5 -52q-7 -11 -14.5 -24t-15.5 -25 q-27 -46 -52 -88t-49 -80t-46.5 -72t-48.5 -63l-3 -3t-3 -2v-3v-2l-2 2q-2 -2 -4 -3.5t-4 -2.5q-2 -3 -5 -3v-1q4 -2 2 -1t-5.5 3t-6.5 4t-2 2v1v1v3v9v5q-5 2 -5.5 3zM-22 -443q4 5 8.5 11t8.5 12q24 36 46 74t45 78l22 38t22 39q-24 -19 -44.5 -41t-39.5 -48 q-23 -30 -39 -63.5t-24 -71.5q-2 -7 -2.5 -14t-2.5 -14z" />
<glyph unicode="Z" horiz-adv-x="1499" d="M-225 1190q-2 11 19.5 22t53.5 16q10 1 24.5 2.5t42 4.5t73 9t118.5 17q74 11 179 27.5t254 43.5q74 14 158 32t181 45q49 13 99 28.5t102 36.5q13 5 26 10.5t27 12.5l8 4l8 4q4 7 10 14l3 5l1 2l7 -7l1 1h1q1 -1 0.5 0t-0.5 1.5t1.5 -1.5t7.5 -9l-2 -2q7 -8 11 -11.5 t-4 4.5l-1 -1l-3 -2q-2 -2 -5.5 -3t-5.5 -3q-6 -4 -9 -5q-14 -20 -29.5 -42t-30.5 -44q-133 -196 -231 -338t-171 -248t-128 -183t-102 -140t-92 -122t-103 -124q-30 -33 -62.5 -68t-75.5 -74q-8 -8 -17 -16t-20 -16q47 -15 92 -28q52 -14 100.5 -25.5t97.5 -19.5t100.5 -14 t109.5 -9q23 -1 46 -1q68 0 128 7q81 9 151 25t126.5 37.5t104.5 43.5q95 46 155.5 88.5t100.5 75.5q39 33 64 57t43 41q9 9 28 28.5t40.5 41l41 41l28.5 28.5q22 24 42.5 36t28.5 4q8 -7 -0.5 -30t-31.5 -46q-7 -8 -12.5 -12.5t-16.5 -14.5q-5 -5 -24 -23t-43.5 -41 t-50.5 -46.5t-46 -40.5q-19 -17 -44.5 -37t-58.5 -43q-33 -24 -75.5 -50t-95.5 -54q-53 -27 -119.5 -53t-146.5 -46t-176 -30q-56 -6 -117 -6q-43 0 -88 3q-225 11 -505 94q-17 -14 -36 -25q-14 -9 -28.5 -18t-31.5 -17q-17 -7 -36.5 -13t-40.5 -5q-14 1 -28 6t-26 14 q-22 16 -32 40l-10 22t-8 22t-5.5 23.5t2.5 26.5q4 8 11 12t13 6t12 2h11q11 -1 21 -3.5t20 -4.5q19 -5 37 -10.5t35 -10.5q26 -8 49.5 -16.5t45.5 -16.5l26 22l26 22q46 43 82.5 81t67.5 73t57 65t49 59q47 55 86.5 104t81.5 103t92 121t115.5 159.5t151 218.5t198.5 298 l18 26l18 26q-43 -20 -85 -35t-82 -28q-84 -27 -160 -46t-147 -35q-139 -32 -248.5 -53t-194.5 -36t-146.5 -26t-103 -17.5t-65 -10.5t-32.5 -5q-32 -5 -55.5 0t-25.5 16zM-173 116q-1 -2 1 -13q2 -8 5 -17t8 -18q17 -41 45 -50q14 -5 33 -1.5t37 11.5q34 14 71 42 q-33 10 -66.5 20t-68.5 19q-9 2 -18.5 4t-18.5 4q-8 1 -16.5 1t-11.5 -2z" />
<glyph unicode="[" horiz-adv-x="790" d="M-28 -140l2 4l2 7q3 8 6 14.5t6 15.5q43 122 90 252t96 267q49 136 99 271t99 268q25 66 48 130t47 125q11 31 22.5 61t22.5 59l22 59q3 7 5.5 13.5t5.5 13.5l2 7l2 4q-2 -2 5.5 3.5t16 11.5t12.5 9t-5 -4h1h2h14q118 1 217.5 1t175 -1t123.5 -3.5t63 -5.5 q31 -8 31.5 -16.5t-21.5 -15t-64.5 -10.5t-99 -5t-124.5 2.5t-140 12.5q-19 3 -43.5 5t-53.5 4q-14 1 -29.5 1.5t-31.5 1.5h-16h-2h-1h-1q2 2 -1 0.5t-2 -1.5l-2 -4l-3 -8q-4 -8 -7 -16.5t-7 -16.5q-29 -68 -61 -148t-67 -171q-36 -90 -73 -188.5t-74.5 -200.5t-76 -207 t-76.5 -208t-74 -203t-68 -194l-1 -2q3 -4 1 -1.5t-2.5 3t2 -4t14.5 -20.5h1h3h6h13q6 1 12 1h12q12 1 24.5 1h23.5q24 1 47 1.5t46 1.5q45 2 87 2.5t81 2.5q78 2 140.5 4t107.5 4q52 3 93 4q34 -2 27.5 -5t-46.5 -5.5t-109.5 -6t-162.5 -6.5q-47 -2 -99.5 -3.5t-108.5 -3.5 q-29 -1 -58.5 -1.5t-59.5 -1.5q-15 0 -30.5 -0.5t-31.5 -1.5h-16h-1q-5 6 -2 2t4 -5.5t-4 6t-27 37.5v2z" />
<glyph unicode="\" horiz-adv-x="789" d="M-139 774q-4 26 10.5 26t38 -20.5t51 -59t47.5 -90.5q15 -37 55.5 -99t96 -139.5t121 -164.5t130.5 -174t122 -168t99 -145q20 -32 35.5 -58t25.5 -46q12 -22 21 -39q3 -15 0.5 -13.5t-12.5 18t-27 45.5t-42 67t-56.5 84t-68 97.5t-77 106t-82.5 111.5q-56 75 -114 150.5 t-111 145t-100.5 131.5t-82.5 110.5t-56.5 81t-23.5 42.5z" />
<glyph unicode="]" horiz-adv-x="603" d="M-656.5 -178.5q-0.5 8.5 21.5 15t64.5 11t99 5.5t124 -3t140.5 -13q19 -3 43.5 -5t52.5 -4q14 -1 29.5 -1.5t32.5 -1.5h16h2h1h1q-2 -2 0.5 -0.5t1.5 1.5l2 4l3 8q4 8 7.5 16.5t7.5 16.5q29 68 61 148t67 171q35 90 72 188.5t75 200.5t76.5 207t76.5 208t73.5 203 t68.5 195l1 2q-3 4 -1 1.5t2.5 -3t-2 3.5t-14.5 20h-1h-3h-6h-13q-6 -1 -12 -1h-12q-12 -1 -24.5 -1h-23.5q-24 -1 -47 -1.5t-47 -1.5q-45 -2 -87 -2.5t-80 -2.5q-78 -2 -140.5 -4t-107.5 -4q-52 -2 -93 -3q-34 2 -27.5 4.5t46.5 5t109.5 6t162.5 6.5q47 2 99.5 3.5 t108.5 3.5q29 1 58.5 1.5t59.5 1.5q15 0 30.5 0.5t30.5 2.5h17h1q4 -6 1.5 -2t-3.5 5.5t4 -6.5t27 -37v-2l-3 -5l-2 -7q-3 -8 -5.5 -14.5t-5.5 -14.5q-43 -122 -90 -252t-96 -268q-49 -136 -99 -271t-99 -268q-25 -66 -48.5 -130t-46.5 -125q-11 -31 -22.5 -60.5 t-22.5 -59.5l-22 -58q-3 -7 -5.5 -14t-5.5 -14l-2 -7l-2 -3q2 1 -5.5 -4.5t-16 -11.5t-12.5 -9t5 4h-1h-2h-14q-118 -1 -218 -1t-175 1t-123 3.5t-63 5.5q-31 8 -31.5 16.5z" />
<glyph unicode="^" horiz-adv-x="838" d="M112.5 494.5q-0.5 12.5 11 24t34.5 20t55 6.5q23 -2 59 9t81 32q23 10 46.5 21t47.5 26l24 14t25 16l12 8t12 9q2 2 5 4.5t7 6.5q2 3 2.5 2.5t-0.5 -0.5q-1 -1 -5 -1q-2 1 2.5 -1.5t8.5 -6.5q5 -3 8.5 -7.5t8.5 -9.5q8 -9 16 -19t15 -20q14 -20 26.5 -39t22.5 -36 q10 -16 18.5 -29.5t14.5 -22.5q7 -12 12 -21q3 -17 -10.5 0.5t-38.5 56.5q-13 20 -28.5 43t-34.5 49q-9 12 -18.5 24.5t-20.5 21.5q-2 2 -4.5 3t-2.5 2q-1 0 0 -0.5t3 -0.5q6 -2 14 3q1 0 3 2l1 1l-5 -5q-3 -4 -10 -8q-4 -4 -8 -7t-8 -7q-32 -23 -63.5 -40.5t-63.5 -34.5 t-61.5 -32t-57.5 -28q-54 -25 -91.5 -38t-47.5 -9q-16 6 -16.5 18.5z" />
<glyph unicode="_" horiz-adv-x="1121" d="M112.5 -52.5q5.5 11.5 23.5 16t45.5 0.5t58.5 -21q22 -12 65 -20.5t99 -13t120 -6t127 -0.5q65 2 122.5 4.5t104.5 7.5q23 2 40.5 3.5t30.5 3.5q16 2 27 4q19 -3 -5 -9.5t-79 -12.5t-131 -10.5t-159 -5.5q-84 -1 -167 1.5t-150.5 7.5t-113 11.5t-52.5 14.5 q-12 13 -6.5 24.5z" />
<glyph unicode="`" horiz-adv-x="713" d="M146 1202q3 13 13 20.5t20 5.5t19 -13.5t11 -33.5q1 -16 15 -35.5t35 -39.5t48 -39t57 -35t58 -27.5t51 -16.5q11 -3 21 -4.5t17 -2.5q8 -1 14 0q11 -5 -3.5 -8.5t-44.5 1.5t-67.5 21t-75.5 38q-38 23 -73 48.5t-61 49.5t-41 43t-13 28z" />
<glyph unicode="a" d="M-157 36.5q1 7.5 3 14.5l4 14l4 14q14 46 33.5 82t38.5 66t37.5 54.5t35.5 45.5q33 42 58 69t42 46q18 19 30 32t21 22.5t17 16.5t18 16q12 11 26 12t21 -7q7 -9 3.5 -22t-15.5 -25q-3 -3 -6 -4.5t-9 -5.5t-17 -11.5t-29 -23.5q-19 -16 -48 -41.5t-69 -67.5 q-19 -22 -41.5 -47.5t-45.5 -58.5q-24 -33 -47 -72t-39 -90q-3 -12 -6.5 -27t3.5 -18q10 -4 24 2q16 3 30 9q30 13 60.5 30.5t62.5 37.5q33 20 65.5 43t68.5 47q8 6 17 12.5t18 12.5l18 13l4 3l3 1v1h1h29l1 -1l10 -6q18 -11 38 -23t40 -23q54 -30 93.5 -47.5t72.5 -32.5 q33 -14 61 -24t61 -21q32 -9 71 -17.5t94 -13.5q27 -2 59 -1.5t68 5.5q37 5 77.5 16.5t86.5 34.5q93 44 164 89.5t127 86.5t98 76t74 62q62 56 88.5 84t34.5 35q11 11 24 13.5t22 -5.5q8 -8 5.5 -22t-14.5 -25q-4 -3 -9 -7.5t-15.5 -14t-28 -23.5t-46.5 -38t-70.5 -56.5 t-102.5 -75.5t-143.5 -94t-199.5 -104q-53 -25 -102.5 -37t-92.5 -16q-31 -3 -59 -3q-10 1 -20 1q-36 2 -69 4q-65 6 -110 16.5t-83 20.5q-38 11 -72 22.5t-74 28.5q-20 9 -41 19.5t-46 24.5q-25 13 -52 31l-28 18l-7 6l-4 3l-2 1l-1 1h15h-1q-4 -2 -7.5 -4.5t-7.5 -6.5 q-42 -27 -77.5 -48t-66 -39t-57 -32.5t-50.5 -26.5t-47 -22.5t-47 -17.5q-12 -3 -28 -3q-4 1 -7.5 2t-7.5 3q-9 5 -12 15q-2 9 -1 16.5z" />
<glyph unicode="b" horiz-adv-x="1484" d="M25.5 27.5q0.5 3.5 1.5 7.5q1 7 2 13t3 13q6 26 12.5 49t12.5 47q26 83 51.5 159t58.5 162q-2 11 12 35q18 49 39.5 103.5t47 117t55.5 134t67 155.5q49 112 91 204t79.5 170t71 143t64.5 122q16 29 31.5 56t33.5 52q17 27 34 51t40 47q12 11 26 19q3 2 7 3.5t10 1.5 q9 1 19 -2q16 -5 28 -22q5 -8 7 -16.5t4 -16.5q3 -19 3 -39q1 -14 -1 -28q-4 -34 -12 -68q-12 -55 -29 -106t-35 -97q-17 -47 -36 -89.5t-38 -81.5q-37 -79 -72.5 -144t-68.5 -120q-66 -112 -116.5 -185.5t-88.5 -125.5t-63.5 -85t-45.5 -58q-20 -24 -37.5 -44t-39.5 -44 q-20 -23 -41 -35q-20 -54 -37.5 -99.5t-33.5 -88.5q-15 -41 -29 -79t-26 -74q-6 -18 -12 -36.5t-12 -36.5q-2 -8 -4 -15.5t-4 -15.5q12 8 25.5 18.5t28.5 21.5q17 14 35 29.5t37 32.5q39 34 81.5 73t94.5 85q26 24 53.5 47.5t59.5 48.5q31 26 65 52t75 51q10 6 21 11.5 t23 10.5q11 5 24.5 9t29.5 2q8 0 16 -2.5t15 -8.5q10 -8 21 -19q19 -22 32 -47q13 -27 14 -58.5t-10 -61.5q-10 -30 -27 -56.5t-38 -51.5q-43 -49 -92 -86t-99 -67q-8 -5 -16 -9.5t-16 -9.5q68 14 129.5 29t119.5 31q165 44 289.5 89.5t219.5 87.5q94 42 158.5 76.5 t107.5 60.5q43 27 66.5 42t32.5 22q33 22 59 31t33 0t-10.5 -31.5t-50.5 -45.5q-11 -7 -25.5 -15.5t-44.5 -25.5t-78.5 -43.5t-131.5 -64.5q-82 -38 -202 -85t-295 -96q-87 -26 -188.5 -50t-220.5 -45q-14 -2 -28.5 -5t-29.5 -5q-8 -4 -16 -6.5t-16 -5.5q-8 -2 -13 -4 q-2 0 -3.5 -0.5t-3.5 -0.5l-2 -1q1 -2 -2 9h-1q-2 12 -2.5 15.5t-0.5 2t0.5 -3t0.5 1.5q-2 10 -2.5 15.5t1.5 -5.5h1l3 1q6 1 13 1.5t13 2.5q8 1 15.5 2t15.5 3q17 7 33.5 14.5t33.5 17.5q59 32 118.5 72.5t111.5 98.5q24 27 41 55.5t25 59.5q8 32 1 63t-24 55q-9 12 -20 23 q-5 5 -10.5 9.5t-11.5 6.5q-14 3 -28 0t-26 -8q-27 -11 -50 -25.5t-45 -29.5q-43 -30 -80 -61.5t-72 -60.5q-34 -30 -64.5 -58t-59.5 -55q-57 -52 -105.5 -97.5t-94.5 -82.5q-5 -5 -11 -9t-11 -9q-7 -4 -13.5 -7.5t-14.5 -5.5q-2 0 -5.5 0.5t-6.5 2.5q-4 4 -4 7v5 q-1 4 -0.5 7.5zM259 602q13 13 33 34.5t52 58.5q39 46 98 120.5t137 193.5q39 60 81 131.5t88 159.5q23 44 44.5 92t43.5 101t41.5 110t31.5 121q7 34 10 71q0 17 -3 34.5t-12 31.5q-7 13 -24 13q-6 0 -13.5 -4.5t-14.5 -9.5q-14 -12 -26.5 -27.5t-23.5 -32.5 q-46 -68 -86 -144t-80 -160q-79 -169 -160 -361t-169 -411q-13 -33 -25 -63t-23 -59z" />
<glyph unicode="c" horiz-adv-x="1521" d="M51 203.5q-1 14.5 0 26.5q2 52 14.5 95.5t30.5 77.5q17 35 38.5 60.5t41.5 44.5q20 18 38.5 31t34.5 22q30 17 47 24.5t22 9.5q14 5 26.5 0t14.5 -16t-4.5 -21t-18.5 -14q-5 -2 -13.5 -4t-26.5 -10q-10 -3 -22.5 -8.5t-28.5 -14.5q-16 -10 -36 -24t-41 -37 q-20 -23 -41 -54.5t-35 -76.5q-7 -23 -10.5 -48t-5.5 -53q-1 -27 11 -53.5t37 -46.5q25 -22 57 -37t70 -26q76 -23 164 -26q31 -2 63 -2q62 1 129 7q102 10 216 36q89 20 163.5 44.5t138.5 51.5q65 27 117 52.5t96 48.5q89 49 145.5 88t92.5 66q36 29 57 46t33 29t21 20 t20 17q11 8 23 8.5t20 -8.5q7 -8 5 -20.5t-13 -21.5q-5 -3 -8 -5t-13.5 -8t-30.5 -19.5t-57 -38.5q-38 -25 -97.5 -63.5t-154.5 -89.5q-47 -25 -103.5 -52.5t-125.5 -54.5q-69 -28 -149 -55t-177 -50q-188 -42 -352 -44q-81 0 -152.5 10.5t-133.5 34.5q-31 12 -57 29.5 t-46 41.5q-9 11 -16.5 24.5t-11.5 27.5q-5 14 -6 28.5z" />
<glyph unicode="d" horiz-adv-x="1608" d="M-90 65q-2 17 0 32t5 28q8 27 18 49t20 42q20 37 42 70q20 31 38 55.5t33 43.5q30 39 47.5 61t25.5 30q25 29 49 43.5t32 6.5t-3.5 -32.5t-36.5 -52.5q-8 -10 -18.5 -22l-31.5 -36q-11 -12 -24 -28t-30 -38q-16 -22 -36.5 -49t-41.5 -63q-11 -17 -21.5 -38t-18.5 -44 q-8 -24 -8.5 -48t20.5 -35q23 -13 54 -8.5t64 18.5t66 36t67 48q69 53 140.5 123t148.5 157q55 62 112 131.5t117 148.5q2 6 4 15q53 172 119.5 364t152.5 403q28 68 52.5 125.5t47.5 106.5t44.5 91.5t42.5 80.5q11 18 22.5 35.5t23.5 35.5q6 8 13 16t16 16l10 8t13 7 q10 4 22 1q11 -3 19 -12q14 -19 20.5 -40.5t8.5 -41.5t1 -41t-4 -41q-6 -42 -18.5 -84.5t-29.5 -89.5t-39.5 -99.5t-51.5 -111.5q-30 -59 -66.5 -127t-82 -145t-101.5 -165t-125 -186q-23 -32 -44.5 -62t-42.5 -60q-14 -42 -26 -80t-23 -73q-18 -60 -33.5 -115.5 t-30.5 -113.5q-7 -28 -13.5 -56.5t-12.5 -57.5q-5 -30 -10.5 -61.5t-6.5 -63.5q-1 -6 -0.5 -13t1.5 -13q2 -13 6 -17h1h6h12l12 2l12 2q24 5 47.5 12t46.5 15q45 15 86.5 31.5t80.5 32.5q77 31 142 59.5t122 54.5q114 51 191.5 87.5t132.5 63.5q54 27 90.5 45t63.5 31 t50 24.5t50 24.5q34 16 61.5 20t32.5 -6t-15.5 -28.5t-55.5 -34.5q-11 -5 -18.5 -8t-23 -9.5t-45 -18.5t-82.5 -36q-54 -24 -138.5 -60.5t-210.5 -90.5q-65 -27 -139 -58.5t-163 -67.5q-45 -17 -93.5 -36t-100.5 -36q-27 -8 -54.5 -17t-57.5 -15q-8 -2 -15 -2.5t-15 -1.5h-8 q-2 0 -3 0.5t-3 0.5q-4 0 -6 1q-6 3 -9 8t-5 10q-6 17 -5.5 33t1.5 32q8 70 24 141.5t35 148.5q15 60 32.5 122t37.5 128q-102 -137 -198.5 -247.5t-188.5 -197.5q-61 -57 -120 -102.5t-124 -74.5q-16 -7 -32.5 -11.5t-33.5 -6.5t-36 0.5t-35 11.5q-8 4 -16 10.5t-14 14.5 q-10 15 -13 35zM787 760q12 16 24.5 32.5t25.5 33.5q79 112 142.5 212t114.5 188t90.5 165.5t68.5 146.5q30 69 50 128.5t31 115.5q5 28 8.5 54t0.5 49q-1 12 -2.5 23.5t-5.5 22.5q-3 9 -8 21q-2 2 -2.5 4.5t-2.5 4.5t-3.5 4t-2.5 2q-2 3 -9 -2q-4 -2 -7.5 -5.5l-7.5 -7.5 q-7 -8 -13 -17t-11 -17q-11 -18 -22 -36.5t-21 -39.5q-20 -39 -39.5 -80t-39.5 -87q-41 -91 -89.5 -208.5t-113.5 -281.5q-50 -130 -88 -234t-68 -191z" />
<glyph unicode="e" horiz-adv-x="1417" d="M-79 337q7 33 22.5 56.5t32.5 39.5q36 33 65.5 48.5t49.5 25.5q22 9 35.5 14.5t24.5 10t20 6.5t20 5q14 3 25 -3t13 -18q2 -11 -6 -20t-20 -13q-4 -1 -7 -0.5t-9.5 0t-17 -2.5l-31.5 -6q-19 -5 -50.5 -15t-71.5 -37q-19 -13 -38 -33t-30 -51q-7 -20 -8 -44q0 -12 2 -24 q6 -38 26 -79q10 -22 27.5 -40.5t41.5 -33.5t50.5 -28t56.5 -22q60 -20 131 -30t152 -12q15 0 29 -1q34 0 61 2q38 2 68 5q30 2 56 4.5t54 7.5q29 5 63 12t80 20t105 34.5t138 58.5q80 39 142.5 75t111.5 68q50 33 88 60t67 50q57 44 82.5 65.5t32.5 26.5q11 8 23 7.5 t20 -8.5q7 -8 5 -21t-14 -21q-4 -3 -9 -6t-14.5 -9.5t-26 -18t-42.5 -28.5q-27 -17 -64.5 -42.5t-92.5 -58.5t-128 -73t-172 -84q-92 -40 -161.5 -63.5t-121.5 -40.5q-52 -15 -91 -24.5t-72 -17.5q-33 -7 -63.5 -11.5t-67.5 -7.5q-32 -3 -71 -3h-13q-47 0 -112 11 q-86 14 -141.5 34t-96.5 42q-20 11 -38.5 22.5t-35.5 25.5t-31.5 31t-25.5 41q-18 37 -26 73q-4 20 -4 39q0 15 3 30z" />
<glyph unicode="f" horiz-adv-x="1484" d="M-6 -1078q-1 7 -1 15q0 22 6 49q2 10 5 23.5l8 36t14 59t22 92.5q10 71 24 181.5t32 276.5t31 292.5t21.5 219.5t12.5 155.5t6 102t2.5 58t1.5 23.5q2 9 10.5 14.5t19.5 3.5t18 -8.5t6 -15.5q-1 -5 -3 -14.5t-7.5 -36.5t-13.5 -80.5t-21 -145.5t-30 -230.5t-39 -338.5 q-10 -90 -18 -161.5t-13 -128.5q18 77 43.5 177.5t58.5 231.5q23 84 49 181t57.5 207.5t69.5 236t85 266.5q43 130 82.5 240.5t77.5 204.5t73.5 173.5t68.5 145.5q67 133 126.5 225.5t122.5 160.5q33 33 68.5 59.5t78.5 43.5q11 5 22.5 8t22.5 5q5 2 11 2.5t13 1.5h7 q5 0 11 -3t9 -8t4 -9q2 -9 2 -16t-1 -13q-1 -7 -1.5 -13t-2.5 -12q-3 -12 -6.5 -24t-7.5 -25q-17 -48 -39.5 -99.5t-50 -110.5t-61.5 -126t-75 -145q-55 -103 -102 -188.5t-87 -158t-74 -134t-65 -116.5t-59 -105t-56 -101t-57.5 -103.5t-62.5 -111.5q-4 -5 -7 -11t-6 -11 l-1 -1q12 -2 24.5 -3t23.5 -2q26 -3 50.5 -4.5t47.5 -4.5q47 -2 91.5 -2t85.5 2q83 3 153 11t131 19q120 20 202.5 45t138.5 45q57 20 93 36t63 30q27 12 49.5 23t48.5 25q33 17 60 23t32 -5q5 -10 -14 -29.5t-53 -36.5q-11 -5 -18.5 -8.5l-22.5 -10.5q-16 -6 -45.5 -18 t-84.5 -33q-56 -20 -144.5 -48t-223.5 -53q-69 -13 -149 -23t-176 -14q-48 -2 -99.5 -2t-106.5 3t-114 9q-14 2 -29.5 4t-30.5 5q-5 10 -6.5 13.5t-0.5 3t1.5 -2t-0.5 0.5l1 1l1 2l2 3l3 7l8 13q4 6 7.5 13t7.5 14q69 119 143 256t157 297q83 159 175.5 337t189.5 383 q31 66 55.5 122t41.5 105q4 12 7 24t5 23q0 4 1 6q-37 -5 -67 -18q-36 -16 -65 -38.5t-56 -47.5q-51 -50 -97 -113q-47 -63 -95.5 -146t-104.5 -201q-28 -59 -58 -129t-62 -152.5t-66 -179.5t-70 -211q-74 -231 -126.5 -424t-92.5 -352q-39 -160 -67.5 -285t-50.5 -224 q-26 -118 -41.5 -196t-24.5 -125l-13 -64q-1 -4 -1 -7t-1 -5q-8 -36 -20.5 -60.5t-23.5 -22.5t-14 30z" />
<glyph unicode="g" horiz-adv-x="1651" d="M-314 -1515q0 1 2 0t4 -1.5t-3 0.5l1 2q1 2 2 3.5t2 3.5q-2 10 -2 14q-5 31 -5 61q0 10 1 21q2 40 11 79q8 39 22.5 77t34.5 79q41 81 108 174.5t177 205.5l1 1q25 61 51 131.5t52 150.5q70 206 112.5 378t64.5 316q2 8 3 17t2 17l-3 -3q-27 -20 -54.5 -36.5t-56.5 -28.5 q-28 -12 -57.5 -18.5t-60.5 -1.5t-55 21q-23 16 -37 39q-14 20 -22 44t-8 47q0 24 6.5 43t14.5 35q16 33 35 54t37 36q35 31 55.5 45.5t30.5 19.5q30 18 54.5 22t29.5 -7q5 -10 -12 -27t-44 -34q-9 -6 -21.5 -13.5t-34.5 -22.5q-11 -8 -24.5 -19.5t-29.5 -27.5 q-14 -16 -30 -39.5t-22 -55.5q-1 -6 -1 -13q0 -27 17 -57q10 -18 26.5 -32.5t39.5 -18.5q24 -5 52 0.5t58 18.5q58 26 119 73l4 4v1h1l-4 2t4 -2q2 2 4.5 3.5t4.5 3.5l1 1q3 -2 1 -1t-2.5 1.5t3.5 -1.5t20 -9v-1l-1 -2v-5l-1 -5q2 0 3 -1q-1 0 -1 -1l-2 -1v-2 q-2 -10 -3.5 -20t-3.5 -21q-4 -20 -7 -42t-8 -43q-8 -45 -19 -92t-23 -97q-25 -100 -58 -211.5t-77 -236.5q-24 -67 -46.5 -127t-44.5 -115q63 63 119.5 113.5t105.5 93.5q56 49 104.5 88.5t92.5 74.5t85 66.5t81.5 63t84 63t92.5 67.5q159 113 279.5 193.5t212.5 141.5 q93 60 157.5 101t110.5 71q46 29 76 48t52.5 34t42 26.5t42.5 25.5q29 17 53.5 22t29.5 -5t-10.5 -28.5t-44.5 -34.5q-9 -5 -15.5 -8t-20 -10.5t-38 -20.5t-70.5 -39t-116 -66t-175 -104q-103 -63 -245 -154t-325 -220q-99 -71 -208.5 -156t-230.5 -191 q-60 -52 -121.5 -109.5t-123.5 -121.5q-30 -30 -59 -60.5t-58 -63.5q-43 -101 -80.5 -183t-70.5 -152q-29 -60 -54 -111t-47 -96q-24 -45 -43 -83q-4 -6 -7 -12l-6 -12l1 -3l1 -5v-2l1 -1q-2 0 -3.5 0.5t-4.5 0.5q-1 -2 -1.5 -2.5t-1.5 -2.5l-2 -4l-1 -1q6 -1 3.5 -0.5t-7 1 l-9 1t-3.5 0.5v2l-1 2q-1 2 -1 3.5t-1 3.5q-10 1 -10 2zM-280 -1460q9 15 20 35q17 31 35.5 64.5t39 72.5t43 83.5t47.5 97.5q20 44 43.5 94.5t48.5 109.5q-24 -29 -47.5 -58t-46.5 -60q-76 -103 -116 -185.5t-56 -153.5q-5 -27 -8.5 -52t-2.5 -48z" />
<glyph unicode="h" horiz-adv-x="2311" d="M7.5 36q-4.5 4 5.5 -4l1 1l3 1l5 4l7 4q24 52 43.5 97.5t38.5 88.5q30 69 57.5 132.5t57.5 134.5q-22 -11 -37.5 -14t-19.5 4q-5 10 13 31.5t47 44.5q9 8 16 13t20 16q2 0 4 2q20 47 44 99.5t51.5 113t59.5 130t69 149.5q51 112 94 205t79 172t67.5 146t59.5 128 q14 30 27 58.5t27 56.5q6 14 12.5 27.5t13.5 27.5q4 7 7.5 13.5t7.5 13.5q2 3 4 6.5t4 7.5q1 2 2 3t2 3t3.5 4t4.5 3q3 2 8 4.5t12 1.5q7 0 11 -4.5t6 -8.5q4 -9 5 -17.5t1 -16.5q1 -16 -0.5 -32t-3.5 -33q-5 -32 -12 -64.5t-15 -67.5q-30 -112 -63.5 -205.5t-65.5 -175.5 q-34 -81 -66 -149t-61 -126q-60 -116 -109.5 -193t-87.5 -130q-39 -52 -66.5 -84.5t-49.5 -56.5q-15 -16 -29 -29.5t-29 -27.5q-35 -77 -64 -139.5t-55.5 -118t-51.5 -107t-51 -107.5q10 7 19.5 13.5t21.5 13.5q43 30 91 64t106 73q57 39 123.5 82t146.5 96q20 12 40 25 t41 27q11 7 22 13.5t23 14.5q5 3 10.5 6.5t11.5 6.5l3 2l1 1q-7 3 -4 2t9.5 -4t13 -5.5t4.5 -1.5v-1q1 -2 1 -3t1 -3l3 -13q14 -52 38.5 -103.5t60.5 -102.5t79 -91.5t92 -69.5q49 -30 99.5 -48.5t101.5 -27.5q67 -11 130 -11q33 0 66 3q94 9 177 29t154 47t133 55 q61 28 114 55t99 52q90 51 152.5 91.5t105.5 69.5t66 45t33 24q33 23 59.5 32t33.5 0t-11 -31.5t-51 -45.5q-11 -7 -25.5 -17t-42.5 -27q-29 -18 -76.5 -48t-126.5 -76q-39 -23 -87.5 -48.5t-109.5 -55.5q-59 -30 -130.5 -60t-160.5 -59q-44 -14 -92 -26t-101 -22 q-52 -8 -109 -12q-27 -2 -55 -3q-31 0 -63 3q-61 4 -125.5 19.5t-126.5 48.5q-62 32 -118 81t-101 113q-20 30 -37 60.5t-31 61.5q-6 15 -12 30.5t-11 30.5l-10 31q-1 4 -1.5 7t-1.5 8l-6 -5q-53 -33 -101 -63t-93 -59q-90 -58 -165 -109t-140 -97q-33 -23 -62.5 -44 t-55.5 -41q-14 -10 -27 -19.5t-26 -18.5q-8 -6 -11 -8q-2 -5 -5 -10t-5 -10v-1q1 -1 -8 7l-2 -1l-3 -3q-6 6 -8 7.5t-1.5 1l1 -1t-0.5 0.5l1 1v3l1 2q-8 7 -12.5 11zM348 666l22 21q41 45 98.5 121t130.5 200q36 62 74.5 137.5t79.5 166.5q39 92 79 199.5t74 235.5 q8 35 16 70.5t10 73.5q1 10 1.5 19.5t-1.5 18.5q0 7 -4 16l-2 2h-2q-1 -1 -2.5 -1.5t-3.5 -1.5q-1 -2 -2 -2l-3 -4q-2 -4 -4.5 -7.5t-4.5 -8.5q-5 -9 -9 -18t-9 -18q-36 -75 -71.5 -155t-73.5 -167q-75 -173 -158 -366.5t-182 -413.5q-14 -33 -27.5 -62t-25.5 -56z" />
<glyph unicode="i" horiz-adv-x="1884" d="M92 213q-1 15 -1 29q-1 26 3 48q6 34 14 61q8 28 15.5 49t14.5 38q14 33 22.5 50.5t11.5 22.5q8 12 20.5 16.5t21.5 -1.5t10.5 -18.5t-5.5 -24.5q-3 -5 -8 -12.5t-16 -26.5q-12 -18 -29 -54q-8 -18 -17.5 -42t-16.5 -56q-8 -33 -8 -71q1 -20 5.5 -40.5t15.5 -41.5 q11 -20 30.5 -38t45.5 -31q52 -26 122 -34q46 -6 96 -6q29 0 57 2q82 5 175 19q93 16 198 41.5t223 61.5q182 55 316.5 104.5t232.5 88.5q99 39 165.5 67.5t110.5 49.5q44 20 69.5 33t42 21t27 14t25.5 12q14 5 26 1.5t17 -13.5t-1.5 -21t-20.5 -17q-5 -2 -9 -3.5t-16 -4.5 t-35.5 -11t-67.5 -24q-45 -16 -114 -42.5t-174 -65.5t-249 -90.5t-341 -112.5q-198 -58 -362 -92.5t-301 -37.5h-12q-61 0 -116 9q-60 10 -109 36q-51 29 -76 72q-13 22 -19.5 44t-8.5 42zM311 1092q-1 11 1.5 19t6.5 8q2 0 7 -1t18 -2.5t38.5 -2.5t69.5 -1t109.5 2.5 t159.5 7.5q73 4 122 9t80.5 9t49 8t27.5 6.5t14.5 4.5t10.5 2q4 0 12.5 3.5t9.5 -7.5q1 -18 -25 -26t-82.5 -12.5t-146 -10t-216.5 -19.5q-82 -9 -133.5 -15t-80.5 -7t-40 4.5t-12 20.5z" />
<glyph unicode="j" horiz-adv-x="1568" d="M-738.5 -1555q-4.5 1 5.5 -3v2l1 2v3l2 7q3 13 6.5 26.5t7.5 27.5q33 112 89.5 255t139.5 336q85 196 157.5 354.5t133.5 289.5t110 232.5t87 181.5q38 78 65 134.5t45.5 94.5t29.5 59.5t15 30.5q15 30 32.5 47t27.5 12t6.5 -29.5t-17.5 -53.5q-5 -9 -12.5 -22 t-20.5 -37.5t-34.5 -65.5t-56.5 -108q-36 -68 -85 -163.5t-117 -232.5q-68 -136 -155.5 -316.5t-192.5 -415.5q-49 -110 -88.5 -204.5t-71.5 -177.5q-16 -42 -29.5 -81t-24.5 -75q-5 -17 -10 -33t-9 -32q20 55 38.5 102.5t34.5 89.5t30.5 79.5t29.5 72.5q31 74 62 141.5 t74 144.5q22 39 48.5 80.5t59.5 87.5q34 46 77 96.5t101 104.5q76 71 143 122.5t128 92.5t113 73.5t100 59.5q47 28 91.5 53t89 49t91 48.5t99.5 51.5q170 85 299.5 147.5t226.5 108.5q98 47 165.5 79.5t117.5 55.5q47 23 78.5 38.5t55 27t43.5 21t45 21.5q30 13 54 15 t29 -8t-13.5 -26.5t-48.5 -31.5q-9 -4 -15.5 -6.5t-20.5 -7.5t-39.5 -15.5t-72.5 -29.5t-120.5 -50.5t-183.5 -80.5t-260 -117t-348 -167q-108 -53 -226 -120t-249 -154q-65 -43 -131 -92.5t-131.5 -107t-128.5 -124.5t-121 -146q-74 -101 -118 -181.5t-77 -146.5 t-59.5 -122.5t-54.5 -121.5q-14 -33 -28.5 -67.5t-30.5 -74.5q-15 -40 -34 -86q-2 -5 -4.5 -11t-4.5 -11l-5 -13q3 -1 -5.5 1.5t-17 5.5t-13 4zM349 1340q-1 7 3 12.5t10 3.5h3.5t5.5 2q1 2 3 4t4 5q1 0 1 1t1 2t1 2l1 1q1 0 2 -1.5t6 -4.5t16.5 -6.5t32.5 -6.5 q22 -3 53 -5.5t76.5 -2.5t105.5 2.5t139 9.5q60 6 106 11t79 10t56 10t39 9q15 3 23.5 6t14.5 5t9.5 3.5t8.5 1.5q5 1 8.5 -6.5t5.5 -18.5t-0.5 -19.5t-7.5 -9.5q-2 0 -3 1t-5 1.5t-12.5 1.5t-23.5 1h-11q-30 0 -88 -4q-68 -5 -198 -16q-131 -11 -215.5 -18t-134.5 -9 q-29 -1 -50 -1q-15 0 -25 1q-24 1 -31 6q-9 4 -9 16z" />
<glyph unicode="k" horiz-adv-x="1685" d="M9.5 -2.5q-3.5 2.5 4.5 -2.5v1l2 6q28 106 76.5 244.5t123.5 322.5q77 187 143.5 339.5t122.5 277.5q55 125 100.5 222t80.5 172t60.5 128.5t42 90t27 57.5l14.5 29q14 28 30.5 44.5t26.5 10.5q10 -5 7 -28t-16 -50q-4 -9 -10.5 -21.5t-19 -36t-33.5 -62.5t-53 -103 q-33 -65 -78.5 -155.5t-107.5 -221.5q-62 -130 -142 -303t-175 -398q-45 -105 -80 -195.5t-63 -169.5q-14 -40 -25.5 -77t-21.5 -73l-9 -34q-1 -3 -1.5 -6.5t-1.5 -6.5l1 1q28 23 51 39q51 36 96 64.5t84 53.5q40 24 75.5 44.5t68.5 40.5q66 38 126.5 72.5t134.5 73.5 q37 19 78.5 41t89.5 45q25 12 50.5 24.5t53.5 26.5l6 3q8 5 16 11t16 11l18 12l10 6l1 1q-8 14 -5 8.5t11 -18.5q1 0 1 0.5t1 0.5q-1 2 2.5 -4.5t7.5 -13t5.5 -10.5t-2.5 5v-1h-1l-1 -1q4 -6 6 -9.5t0 -1.5h-1l-3 -2l-4 -2l-40 -20t-41 -20q-68 -46 -123 -86t-101 -77 q-27 -20 -51 -40.5t-44 -40.5t-39 -41t-30 -42q-5 -12 -4 -21q0 -4 3 -8.5t7 -8.5q15 -17 37 -29q20 -12 42 -20.5t45 -13.5q46 -10 96 -12q11 0 23 -1q39 0 81 4q89 10 163 31.5t139 46.5t117.5 50.5t98.5 48.5q90 48 149.5 86t101.5 67q41 29 68 48t47 33.5t36.5 27.5 t36.5 27q26 18 48 24.5t29 -2.5t-5.5 -28.5t-38.5 -37.5q-8 -5 -13.5 -8.5t-18 -11.5t-35 -21.5t-63.5 -40.5q-42 -26 -106.5 -65t-165.5 -94q-51 -27 -112 -56t-135 -57q-74 -29 -162.5 -54.5t-194.5 -33.5q-28 -2 -58 -2t-61 2q-62 4 -125 28q-15 6 -31 14t-31 19 q-7 6 -13.5 12t-12.5 15q-1 2 -2.5 4.5t-2.5 6.5q-2 4 -3 12q0 13 5 23q8 19 18.5 34t22.5 29t24.5 27t27.5 26q31 30 63 57.5t67 55.5q-80 -40 -141.5 -71t-112.5 -58.5t-98 -52t-97 -51.5q-59 -31 -126 -73q-36 -20 -73 -46q-9 -7 -19 -14l-20 -14q-5 -4 -10.5 -7.5 t-10.5 -7.5q-6 -6 -10 -8l-2 -2l-1 -1q2 -2 -4.5 2t-14 8.5t-11 7z" />
<glyph unicode="l" horiz-adv-x="1524" d="M155 477q-5 10 8.5 28t37.5 37q8 5 13 8.5t16 11.5q2 2 5 4t7 5q32 118 58.5 203.5t49.5 158.5q12 36 23.5 70t24 69t26 71t29.5 75q31 78 73 175.5t109 228.5q46 88 86.5 158.5t83.5 127.5q11 13 23 25.5t26 22.5l8 4t9 3q10 3 21 -2q9 -5 13.5 -13.5t6.5 -15.5 q5 -16 6.5 -31t0.5 -29q0 -14 -1.5 -27.5t-3.5 -26.5q-7 -52 -17.5 -100t-24.5 -95q-13 -47 -28.5 -94.5t-34.5 -101.5q-63 -171 -124.5 -294.5t-114.5 -212.5q-52 -90 -94 -149.5t-75 -99.5t-55.5 -65.5t-40.5 -43.5q-16 -16 -30 -29t-31 -26q-2 -7 -3.5 -14t-3.5 -15 q-13 -53 -25.5 -114.5t-21.5 -135.5q-4 -42 -4 -79q0 -38 11 -75q5 -20 15 -36q4 -7 12 -14l3 -4h1q2 -1 8 -1q22 -2 45 1t47 7q99 17 188 40t170 47t153 47t137 47q130 46 229.5 85.5t175.5 73.5t129.5 60t89 44t55 29.5t27.5 15.5q28 15 51 19.5t28 -5.5q6 -9 -9 -27.5 t-43 -33.5q-9 -5 -21.5 -11t-36.5 -19q-25 -11 -65.5 -29.5t-106.5 -47.5q-67 -29 -163 -66.5t-236 -85.5q-69 -24 -148.5 -50t-172.5 -52q-46 -13 -96 -26.5t-103 -27.5q-53 -13 -110 -25.5t-118 -21.5q-14 -2 -28 -3.5t-29 -3.5q-7 0 -13.5 -0.5t-13.5 -0.5q-8 1 -14.5 1 t-14.5 3q-12 8 -20 19.5t-13 23.5t-8 24.5t-5 24.5q-4 32 -4 62q-1 17 1 34q4 46 9 88q8 59 19 111t22 99q-23 -14 -41.5 -17t-23.5 5zM267 592q19 16 48 45q35 34 84.5 91t112.5 153q62 94 136.5 233t149.5 336q19 54 37 111.5t33 121.5q8 33 14 66t10 67q3 28 3 55v14 q0 19 -4 33q-3 17 -10 19q-3 1 -5 0q-2 0 -11 -6q-6 -5 -12 -11t-11 -13q-11 -14 -22 -29.5t-22 -32.5q-20 -33 -40 -68.5t-39 -72.5q-39 -75 -76 -155.5t-76 -167.5q-49 -112 -81.5 -192.5t-59.5 -147.5q-26 -66 -47 -122t-44 -119q-15 -44 -32 -94.5t-36 -113.5z" />
<glyph unicode="m" horiz-adv-x="2988" d="M-59 39q0 11 1 17.5t3 14.5q7 26 16 46t17 40q9 19 18.5 36.5t17.5 34.5q34 65 59.5 111t43.5 77t28 48t15 24q14 24 31 36.5t27 5.5q9 -6 5.5 -26.5t-17.5 -43.5q-4 -8 -11 -18t-19.5 -29.5t-33.5 -52t-53 -86.5q-16 -27 -35 -60t-40 -73q-9 -20 -19.5 -42.5 t-16.5 -46.5q-2 -6 -2 -9q8 -2 20 0q13 2 27 5.5t29 8.5q58 20 124 52.5t140 72.5t157 87.5t176 103.5q43 27 82.5 50.5t75.5 47.5q18 11 35.5 22t35.5 22l1 1v7q3 -2 2 -1t-2.5 2t-1 0.5t7.5 -4.5h1l4 3l1 1h1q2 -1 0 0.5t4 -2.5v-3v-6q1 -1 5 -3l-1 -1l-2 -1l-3 -2v-6 q-1 -9 -1 -18.5v-18.5v-17q0 -64 7 -120q8 -62 25 -115q16 -52 41.5 -90.5t59.5 -59.5q35 -20 71 -21h10q30 0 56 5q33 6 61.5 16.5t58.5 22.5t58.5 27t60.5 32q65 36 141.5 86.5t179.5 126.5q62 47 114 89v1h1l4 4l4 4l3 2l2 2h1v1q12 -5 16 -6t3 -1t-2.5 1t1.5 0v-1 q0 -2 0.5 -4.5t0.5 -4.5q1 -2 1 -4.5t1 -4.5q8 -3 9.5 -3.5t-8.5 2.5h-1q1 -2 1 -7l4 -16l4 -16q5 -15 9 -30t10 -29q41 -113 101 -178q61 -69 141 -86q28 -6 57 -6q13 0 26 1q43 4 89 19q75 24 138.5 50.5t118.5 51.5q55 27 102 50.5t86 44.5q80 43 134 74t92 54t62.5 38.5 t43 27t34.5 21.5t35 21q24 14 44.5 17t26.5 -6q5 -9 -7.5 -26t-35.5 -31q-7 -5 -13 -7.5t-16.5 -7.5t-31.5 -16t-59 -31t-97 -51t-149 -77q-45 -24 -97.5 -49.5t-117.5 -54.5t-138.5 -59t-163.5 -57q-51 -16 -104 -17q-28 0 -56.5 5t-56.5 18q-56 24 -100 70.5t-77 106.5 q-33 59 -54 127q-3 9 -6.5 18t-5.5 19q-6 -5 -12 -10.5t-12 -10.5q-56 -49 -118.5 -96.5t-132.5 -94.5q-90 -59 -159.5 -95t-129.5 -59q-30 -11 -58.5 -18.5t-57.5 -11.5t-59.5 -3t-60.5 14q-31 11 -57 35.5t-46 57.5q-38 65 -53 162q-7 47 -11 100q-2 34 -3 72q0 22 1 44 l-19 -13q-15 -9 -30.5 -18.5t-30.5 -20.5q-33 -20 -67.5 -41.5t-71.5 -45.5q-152 -94 -278 -168t-237 -127q-27 -13 -54 -24t-53 -20q-13 -4 -27 -7.5t-30 -2.5q-10 0 -20 4q-5 2 -9 6.5t-6 8.5t-2.5 7t-1.5 6z" />
<glyph unicode="n" horiz-adv-x="2473" d="M-55 48v15q2 13 5 24t7 23q7 20 15.5 38.5t16.5 35.5q17 34 32.5 63t29.5 54q29 50 50 85.5t35.5 59.5t23 37.5t11.5 18.5q11 18 26.5 26.5t24.5 1.5q9 -6 7.5 -23t-13.5 -35q-3 -6 -8.5 -13t-16.5 -22t-28.5 -40t-43.5 -66q-13 -20 -29 -45.5t-34 -56.5 q-9 -15 -18.5 -32t-19.5 -35q-10 -19 -19 -39.5t-17 -43.5q-2 -5 -3.5 -11t-1.5 -11q-2 -5 -1 -9.5t2 -3.5q-1 0 1 -1t4 -1q2 -1 2.5 -1.5t2.5 -1.5l6 -2l6 -2q6 -2 12 -3t14 -2q27 -2 56.5 2.5t60.5 14.5q61 20 127.5 54t140.5 77q68 41 124.5 77t105.5 67t91.5 56.5 t79.5 47.5q36 22 68 39.5t61 33.5l53 26l7 4l4 1l1 1h1h1q-1 0 2 -1l6 -2l4.5 -1.5t-2.5 0.5q4 -6 7 -11l6 -12t6 -11q26 -46 52 -85.5t62 -83.5q17 -23 38.5 -46t48.5 -48t60.5 -49.5t77.5 -48.5q58 -31 111 -45.5t100 -19.5q46 -6 86 -6t76 4q35 4 67.5 9.5t64.5 13.5 t64.5 18.5t68.5 22.5q116 44 198 89t142 81q59 38 99 66.5t68 49.5q28 22 46 35.5t30.5 24t24 20t25.5 19.5q17 13 33.5 16.5t23.5 -6.5q7 -9 0 -24.5t-24 -28.5q-5 -4 -9.5 -6t-13 -7t-24 -15.5t-42.5 -28.5q-29 -18 -73 -47t-112 -70q-34 -20 -74 -43t-89 -47 q-49 -25 -106.5 -50.5t-127.5 -48.5q-74 -25 -162.5 -47.5t-193.5 -24.5h-13q-46 0 -94 6q-56 7 -114 27q-57 18 -112.5 50t-107.5 77q-63 58 -99.5 109t-61.5 93q-12 22 -22.5 42t-19.5 40q-2 5 -5 10t-5 10l-5 9l-2 5v1q19 -7 24.5 -9t4.5 -1.5t-4 1.5t2 -1h-1l-3 -1 l-20 -8t-20 -10q-42 -18 -90.5 -42.5t-113.5 -62.5t-149 -92.5t-201 -127.5q-59 -36 -114.5 -67.5t-109.5 -54.5q-28 -12 -55 -21t-54 -14t-54.5 -4.5t-52.5 9.5q-3 1 -6.5 2t-6.5 2l-3 2l-6 3q-5 3 -9 11q-5 11 -5 19z" />
<glyph unicode="o" horiz-adv-x="1388" d="M-78 169q0 19 1.5 37.5t3.5 36.5q2 17 5 33.5t9 31.5q8 32 21 58t30 47q16 20 32.5 36t33.5 27q33 24 59.5 34.5t45.5 16.5q18 5 28.5 8t15.5 4q14 2 26 -5.5t12 -18.5t-8.5 -20t-20.5 -11q-5 -1 -10 -1t-17 -2q-11 -2 -29.5 -6t-45.5 -16q-14 -6 -29.5 -15t-33.5 -23 q-17 -14 -33.5 -34t-30.5 -48t-23 -63t-13 -78q-2 -20 -2.5 -43t3.5 -46q4 -24 15 -46.5t35 -34.5q22 -10 45.5 -6t43.5 10q20 7 38 16t34 21q31 20 54.5 42t41.5 43q19 20 33.5 38.5t26.5 35.5q6 8 11.5 16.5t10.5 16.5q3 4 5.5 7.5t4.5 7.5l4 8l1 2l1 1q3 1 0 -0.5t9 4.5 h4q34 3 66 3h22q22 0 47 -1q38 0 84.5 -1.5t111.5 -1.5q87 1 146.5 7.5t105.5 14.5q46 7 86 17t88 23q78 22 135.5 42t100.5 37t71.5 30.5t49.5 22.5q20 10 33.5 17t23 12.5t18 9.5t18.5 9q13 5 25 2t17 -13t-0.5 -21.5t-19.5 -17.5q-4 -2 -7 -2.5t-9 -2t-17.5 -5 t-31.5 -10.5q-20 -8 -52.5 -19.5t-81.5 -28.5q-49 -16 -115.5 -37.5t-159.5 -44.5q-50 -12 -106.5 -27t-123.5 -27q-67 -13 -142 -22q-61 -7 -130 -7h-31q-55 1 -94.5 3t-70.5 4q-33 1 -50 5q-6 -8 -8 -11q-5 -6 -9.5 -12t-9.5 -12q-20 -24 -43.5 -51t-60.5 -61 q-17 -17 -40 -36t-52 -36q-15 -9 -32 -17.5t-37 -14.5q-10 -3 -20.5 -5t-21.5 -3q-4 -1 -12 -1q-4 0 -6 1h-3h-3h-1h2h-1q-15 1 -26 7q-26 11 -39.5 33.5t-20.5 43.5q-6 22 -8 42t-3 41z" />
<glyph unicode="p" horiz-adv-x="2143" d="M-510 -1315q2 35 8 66t15 62q14 57 33 118q18 59 39.5 119t45.5 128q81 216 146.5 377.5t116.5 282.5q50 121 85 205.5t60 144.5q25 59 41 99t28.5 69.5t23.5 54t24 54.5q16 36 35 58.5t29 17.5t6 -34t-21 -65q-5 -11 -9.5 -18.5t-12.5 -23.5t-23 -45.5t-41 -86.5 q-27 -57 -67.5 -145t-98.5 -221t-137 -317t-174 -434q-26 -68 -50.5 -141.5t-47.5 -153.5q-11 -40 -20 -81.5t-11 -84.5v-10t1 -10q0 -2 0.5 -4t0.5 -3l-1 2q-1 0 -6 2q-3 0 -4 -1q-2 -1 -0.5 0t3.5 3q3 3 6 8l6 8t6 9q11 19 21 40.5t20 42.5q40 86 81.5 178t87.5 189 t97 199t111 207q76 135 137 230t116 168q27 37 51.5 69.5t51 63.5t53 61t56.5 61t63.5 62.5t75.5 65.5q41 34 90.5 68t114.5 65q33 15 68.5 28.5t76.5 22.5q41 8 85 11q17 1 35 1q28 0 59 -3l13 -2q8 0 17 -6q8 -4 12 -15q2 -5 2.5 -9.5t0.5 -8.5q0 -16 -4 -29t-9 -25 q-11 -25 -24 -48.5t-27 -46.5q-30 -47 -64.5 -95.5t-71.5 -99.5q-20 -26 -39.5 -51t-38.5 -48q-10 -12 -19.5 -24t-18.5 -24l-10 -11q-14 0 -19.5 3t-3 7t12.5 7.5t24 4.5q58 5 113.5 13.5t107.5 17.5q105 19 198.5 42.5t176.5 48.5q166 52 292.5 102.5t222.5 93.5 q96 44 163 78t113 58q87 48 106 59q35 19 62.5 26.5t33.5 -1.5t-14 -31t-55 -41q-11 -7 -27 -15.5t-47 -23.5q-30 -14 -81 -39t-135 -63q-83 -37 -205.5 -88t-298.5 -108q-89 -28 -191.5 -56t-223.5 -51q-119 -25 -259 -40q-34 -3 -70 -7l-10 -1h-4q1 -3 0.5 -2.5t-2 3 t-3 5.5t-0.5 5l1 5l12 11q6 7 12 14.5t12 14.5q24 29 48 58.5t47 60.5q44 58 83 112t72 109q8 13 15 26.5t13 27.5q6 13 11 26.5t6 27.5q1 7 -1.5 13.5t-8.5 8.5q-5 2 -12.5 2.5t-14.5 2.5q-14 1 -27.5 2t-26.5 0q-54 0 -103 -10.5t-92 -26.5t-81 -36t-70 -42 q-66 -44 -116 -88.5t-92 -87.5q-41 -43 -74.5 -83t-62.5 -78q-30 -39 -56.5 -75.5t-53 -75t-52.5 -79t-54 -85.5t-58.5 -96t-64 -111t-71.5 -130t-81 -152q-58 -111 -102.5 -203t-83.5 -172t-72 -147l-18 -32t-19 -31q-3 -4 -5.5 -7.5t-5.5 -8.5q-2 -2 -4 -3t-4 -3 q-2 -1 -3.5 -2t-3.5 -1q-5 -2 -10 2q-5 3 -5.5 6t-1.5 6q-2 6 -2 9q-1 5 -1 9v9z" />
<glyph unicode="q" horiz-adv-x="1517" d="M-257 -1571.5q-6 3.5 9 -3.5v1l1 2q2 5 3 9.5t3 10.5q3 10 6.5 19t6.5 19q24 73 44 134.5t44 130.5q23 69 49 151.5t62 196t83 265t111 357.5q32 105 61 200.5t56 183.5q5 15 9 31t9 30q-1 -1 -2 -1.5t-2 -1.5q-35 -24 -67.5 -44.5t-65.5 -39.5q-33 -18 -64 -34.5 t-63 -31.5q-16 -6 -31.5 -11.5t-33.5 -9.5q-8 -2 -17 -3t-19 -1q-10 1 -20.5 4t-20.5 12l-5 4l-1 1q-3 5 -2 3.5t0 0.5v1l-1 1l-4 8l-6 15q-2 8 -4 15t-3 16q-3 15 -3.5 30t1.5 29q4 30 12.5 54.5t20.5 44.5q22 43 46 74.5t47 56.5t42 44.5t37 33.5q33 30 52.5 46.5 t28.5 22.5q28 20 52 27.5t30 -2.5q6 -9 -8.5 -28.5t-41.5 -39.5q-8 -7 -19.5 -16t-34.5 -26q-11 -8 -25.5 -20t-32.5 -28q-17 -17 -39.5 -38.5t-45.5 -50.5q-11 -14 -23.5 -30.5t-23.5 -37.5q-11 -19 -20.5 -41.5t-13.5 -48.5q-2 -13 -2.5 -26.5t2.5 -27.5q1 -7 3 -14l4 -14 q4 -8 5 -12h1q0 -1 0.5 -1t0.5 -1q2 0 4 -2q10 -4 26.5 -2.5t33.5 6.5q32 10 68 26t72.5 36t75.5 43q19 12 39 24.5t41 25.5q8 5 16.5 11t16.5 12v2l2 5q3 -3 2 -2t-3 2.5t-1.5 1.5t6.5 -5l2 1l5 3l1 1q3 -2 1.5 -0.5l-2 2t2 -1.5t13.5 -10l-1 -1l-1 -2l-1 -5q1 -1 2 -1.5 t2 -2.5l-1 -1l-2 -1l-4 -4q-2 -5 -3.5 -11t-3.5 -11q-33 -100 -68.5 -212.5t-76.5 -240.5q-50 -157 -90.5 -285t-73 -233.5t-58 -190.5t-46.5 -156t-38 -130t-33 -112q-8 -29 -15.5 -56.5t-15.5 -53.5l10 14l10 14q26 37 55.5 78.5t65 88.5t77 101t90.5 116q66 83 121.5 152 t103 126t88.5 106.5t78 92.5t70.5 83t68 79t71 79.5t77.5 85.5q133 145 238.5 250.5t187.5 180.5q83 76 142 127t102 85q43 35 72.5 57.5t51.5 39t41 29.5t42 28q29 18 54 23.5t30 -4.5t-10.5 -29t-44.5 -36q-9 -6 -15.5 -9t-19.5 -11t-36.5 -22.5t-67.5 -44.5 q-43 -30 -109 -79t-161 -130q-94 -80 -217.5 -197t-277.5 -284q-168 -180 -367 -433t-442 -582q-39 -52 -72.5 -97.5t-61.5 -84.5q-14 -20 -27 -39t-26 -36l-6 -8l-3 -4v-1h-1q4 -2 -8 4t-25.5 12t-19.5 9.5z" />
<glyph unicode="r" horiz-adv-x="2201" d="M164 527q5 10 19 12.5t30 -2.5q5 -2 11.5 -5.5t21.5 -8.5q14 -5 37 -12.5t62 -17.5t95.5 -20.5t138.5 -17.5q62 -4 137 -5q26 0 52 1q106 2 246 23q65 10 118.5 22t100.5 23q5 2 11 3t11 3l12 3l2 1h1q0 1 2.5 -2.5t0.5 -1.5v-1l-3 -5q-5 -9 -10.5 -19t-10.5 -18 q-10 -18 -18.5 -35t-17.5 -32q-32 -63 -52 -110t-35 -88q-14 -41 -21 -79q-3 -18 -3 -38.5t7 -37.5q8 -15 29.5 -21.5t50.5 -4.5q30 1 64 7t73 16q53 14 96.5 28.5t80.5 28.5t68 26t58 23q28 11 52.5 22.5t49.5 22t50.5 22.5t55.5 25q93 43 163.5 77t122 59.5t88 44.5 t61.5 32q26 13 42.5 22.5t28.5 16t22.5 13t23.5 12.5q16 8 30.5 6t19.5 -13t-2.5 -22.5t-23.5 -20.5q-5 -2 -9 -3.5t-11.5 -4t-21.5 -7.5t-39 -15q-26 -10 -66 -27.5t-99 -44t-140.5 -62.5t-190.5 -83q-59 -27 -126.5 -58.5t-144.5 -66.5q-39 -17 -80 -34.5t-87 -34.5 q-46 -16 -95.5 -30.5t-107.5 -19.5q-18 -1 -36.5 0.5t-37.5 7.5q-9 4 -17 8.5t-17 13.5q-15 14 -19 31q-6 16 -6.5 30.5t0.5 28.5q2 12 4.5 22.5t4.5 22.5q12 41 26.5 72.5t31.5 65.5q17 35 39 75t52 94q8 14 16 28.5t16 30.5l4 8l1 2q3 -3 1.5 -1t-2.5 3t3 -3.5t16 -19.5 l-2 -1l-5 -1q-5 -2 -9.5 -2.5t-9.5 -2.5q-9 -2 -18.5 -4.5t-20.5 -5.5q-42 -10 -89.5 -21t-103.5 -21q-114 -20 -209 -27t-174 -7q-79 1 -140.5 6.5t-108.5 13.5q-47 7 -81 15t-56.5 14t-35 10t-17.5 6q-17 6 -26.5 18.5t-4.5 23.5z" />
<glyph unicode="s" horiz-adv-x="1168" d="M-428 -867.5q2 10.5 5 19.5t7 17t9 16q18 30 38 54t39 45q39 42 77 78t85 77q31 27 68 57t83 65q8 39 14 75.5t11 71.5q9 61 16 117t12 107q11 101 20.5 181t19.5 141t21 105t22 74t20 47t15 23q17 24 37 28q9 2 16 0t9 -7t1 -11t-3 -13q-7 -13 -16 -29q-4 -5 -9.5 -12 t-13.5 -24q-8 -16 -20 -45.5t-24 -80.5q-13 -51 -26 -125.5t-27 -182.5q-8 -53 -16.5 -114.5t-19.5 -132.5q-7 -40 -14.5 -83t-17.5 -89q19 14 39.5 28.5t41.5 31.5q58 43 107.5 77.5t91.5 64.5l77 55t67 47q32 23 61 43.5t58.5 41.5t60 42.5t64.5 44.5q110 77 193.5 135 t146 101.5t106 74t74.5 52.5t51 36t35 25t28 20t29 19q19 13 37.5 15t24.5 -7q6 -10 -3 -25.5t-29 -27.5q-6 -4 -10.5 -6.5t-14 -7t-26.5 -14.5t-48 -28t-79 -48t-119.5 -75.5t-169 -110t-226.5 -151.5q-71 -47 -147.5 -104.5t-165.5 -125.5q-83 -65 -175 -135.5 t-194 -151.5q-8 -38 -22 -81q-24 -82 -55 -148t-74 -115q-43 -48 -92 -70q-26 -11 -50.5 -16.5t-47.5 -6.5q-26 0 -45 5q-11 2 -20.5 8t-14.5 17t-3 21.5zM-405 -868.5q-3 -10.5 2 -15.5q3 -6 16 -10t30 -5h13l57 7q37 9 74 35.5t68 69.5q32 44 56 101t44 128q4 14 7 27.5 t6 26.5q-70 -55 -118.5 -96t-87.5 -75q-39 -35 -71 -65t-62 -67q-7 -9 -14 -19t-12 -21t-8 -21.5z" />
<glyph unicode="t" horiz-adv-x="1426" d="M125.5 238.5q-0.5 -0.5 1 2t6.5 11.5q4 0 6 -2h3q0 1 0.5 2t0.5 2v-1h1v-1l1 -2q41 -5 79 -6l76 -2q20 50 40.5 95.5t43.5 94.5q29 60 63.5 133t83.5 172q2 5 5.5 11t5.5 11q-8 -7 -15 -14t-15 -14q-61 -57 -107.5 -95.5t-78.5 -64.5q-33 -26 -51 -39.5l-26 -19.5 q-26 -18 -49 -24.5t-29 2.5t7 29t39 37q8 6 19.5 14t32.5 23q22 15 57.5 40.5t91.5 72.5q36 30 80.5 68t96.5 91q43 83 95 184t122 225q26 44 50.5 86t52.5 81q3 5 7 9t8 9q2 2 4.5 5t5.5 5q2 1 3.5 2.5l3.5 3.5q4 2 7 3h7q5 0 7 -2q8 -5 10.5 -10.5t4.5 -9.5q1 -5 1.5 -8 t0.5 -7q0 -7 -0.5 -13.5t-1.5 -11.5q-3 -24 -9.5 -45t-14.5 -42q-32 -81 -72 -147t-80 -122q-61 -84 -118 -148t-108 -115q-19 -39 -37 -75t-33 -69q-53 -113 -88.5 -197t-63.5 -155q-6 -15 -11.5 -30t-10.5 -29q49 0 98 1.5t106 5.5q181 13 315.5 38t234.5 52q99 26 167 49 t116 41q47 18 78 31t53.5 23t41.5 18.5t42 18.5q29 13 52 15t28 -8q5 -11 -12 -27.5t-46 -28.5q-9 -4 -15.5 -6.5t-19.5 -7l-39 -13.5t-72 -25t-119 -40t-186 -52q-112 -29 -268 -57.5t-367 -41.5q-92 -4 -195 -6q-12 -34 -24.5 -68t-23.5 -72q35 -44 68.5 -91.5 t65.5 -102.5q11 -19 21 -38.5t19 -42.5q4 -11 7 -23t3 -29q0 -8 -2.5 -17.5t-11.5 -20.5q-10 -10 -21.5 -12t-19.5 -1q-17 2 -29.5 6.5t-24.5 10.5q-24 13 -42 28q-37 29 -70 70q-20 27 -34 56q-8 20 -8 36t2 31q3 29 9 52.5t12 46.5q7 26 16 49l-26 34l-26 34q-8 11 -17 22 t-17 23q-5 5 -9 10.5t-9 10.5l-4 5h-1l-3 1q2 3 1.5 2t-1.5 -2.5t-1 -2t3 4.5l-2 2l-2 3l-1 2l-1 1q1 2 0.5 0.5t-1 -2zM166 227q4 -5 7.5 -10t8.5 -10q11 -14 23 -28.5t23 -28.5q6 -7 12.5 -14.5t11.5 -14.5q7 19 14 37l14 36q3 8 6 14.5t6 13.5q-3 0 -6.5 0.5t-6.5 0.5 q-28 0 -55.5 1t-57.5 3zM246 -89.5q0 -10.5 4 -19.5q5 -10 11 -20t14 -22q15 -20 35.5 -40t44.5 -37q11 -8 24.5 -16t28.5 -12q4 0 7 -0.5t5 0.5q2 0 5 3q4 7 1 26q-5 22 -14.5 42.5t-18.5 40.5q-10 20 -20.5 38.5t-21.5 35.5q-20 33 -40 62.5t-40 55.5q-2 -8 -4 -15.5 t-4 -16.5q-5 -20 -9.5 -41t-6.5 -43q-1 -11 -1 -21.5zM635 906q40 42 85 94q46 55 94.5 123t92.5 154q11 22 21 44t18 46q8 26 12 50q3 13 3 25q0 8 -2 11q-1 0 -1 1q-9 -7 -17.5 -18.5t-16.5 -22.5t-16 -23l-16 -24q-15 -25 -31 -50t-32 -52q-59 -102 -106.5 -191.5 t-87.5 -166.5z" />
<glyph unicode="u" horiz-adv-x="1734" d="M38 143q-1 20 0 37q2 17 4.5 33t6.5 32q8 30 17 54.5t18 44.5q17 42 32 70.5t26 48.5q11 19 18 29.5t9 14.5q9 14 23 19.5t23 -0.5q8 -7 8 -20.5t-8 -27.5q-3 -5 -7 -10.5t-12.5 -17.5t-21 -31.5t-31.5 -50.5q-9 -17 -19 -37.5t-22 -45.5q-10 -25 -19.5 -55.5 t-11.5 -67.5q-1 -17 2 -36.5t14 -36.5q10 -17 29 -29.5t43 -18.5q36 -8 76 -8q15 0 31 1q58 4 118 27q57 20 101.5 48t80.5 56q36 27 63.5 53.5t51.5 49.5q46 48 75 86.5t52 71.5l3 4l1 2l1 1q-2 1 3 -1.5t10 -4.5t8 -3.5t-4 1.5v-1q0 -3 -2 -8q-1 -5 -1.5 -10.5t-0.5 -10.5 q-2 -9 -2.5 -18t-1.5 -20q-2 -18 -1 -38l2 -40q2 -22 7.5 -45t17.5 -47q11 -24 33 -45t58 -33q24 -8 46.5 -11t43.5 -3q22 1 41.5 2.5t36.5 4.5q36 6 66 15t57 17q26 9 50 19t47.5 20t47.5 21.5t50 24.5q86 44 148.5 81t108.5 67t78 51t54 38q22 15 36 26t24.5 19t20 14.5 t20.5 14.5q14 9 28 9.5t20 -9.5q6 -9 1 -22t-19 -23q-4 -3 -7.5 -4.5t-10.5 -5t-19.5 -10t-34.5 -20.5q-23 -13 -58 -34t-88 -52q-54 -30 -126.5 -70.5t-175.5 -89.5q-55 -27 -118.5 -56.5t-141.5 -53.5q-39 -11 -82 -21q-36 -8 -75 -7h-17q-25 2 -50 7.5t-49 17.5 q-25 12 -46 32t-34 46q-17 33 -23 63t-8 56q-2 27 0 48t5 41q2 10 4 19l4 18q1 5 1.5 9t2.5 9l1 4q0 1 0.5 1t0.5 1q-3 1 7.5 -3.5t22.5 -10t17.5 -8t-7.5 4.5h-1v-2q-2 -2 -3 -3.5t-2 -3.5q-11 -14 -22 -26.5t-24 -27.5q-24 -27 -53 -58.5t-72 -71.5q-23 -20 -49 -42 t-59 -46t-72.5 -48.5t-91.5 -44.5t-102 -28q-34 -6 -68 -6q-16 0 -31 1q-24 2 -46 8t-43 18q-20 11 -34.5 29.5t-20.5 38.5q-7 20 -8 40z" />
<glyph unicode="v" horiz-adv-x="1513" d="M176 510.5q4 10.5 15 15.5q11 4 21 0t15 -15q2 -5 4 -12t8 -24t16.5 -48t30.5 -81q10 -25 22.5 -55.5t28.5 -68.5q8 -18 16.5 -38t19.5 -42q10 -22 22 -45t26 -46q2 -4 4 -5q0 -2 2 -2v-1q-4 -5 -2.5 -3t0.5 0v1l1 1q1 2 0.5 1.5t0.5 -0.5h2q2 0 3 0.5t3 0.5q6 1 13 3.5 t14 4.5q26 10 57 27q30 14 60.5 31t63.5 36q66 39 139 84t156 99q33 20 62.5 40t57.5 39q14 9 27 17.5t26 17.5q6 4 12.5 8.5t13.5 8.5l12 9l3 2l1 1h1q-1 0 2 -0.5l6 -1t4 -0.5t-2 0l5 -5q20 -17 45 -26.5t49 -13.5q24 -5 46 -5h43q42 3 75.5 9.5t62.5 14.5q57 17 90 32 q36 14 56 24t32 17q13 7 21.5 12t19.5 10t21.5 1.5t15.5 -14.5t1 -21t-15 -16q-4 -2 -7.5 -2.5t-13 -3t-28.5 -8.5t-56 -18q-17 -6 -40.5 -13t-53.5 -15t-66 -15t-83 -12q-21 -2 -44 -2q-27 0 -54 3t-56 11.5t-55 26.5q-3 2 -7 5t-7 6l-3 3l-3 3l-3 3q7 -1 9 -1.5t1.5 -0.5 h-1.5t1 0h-1v-1l-2 -1q-7 -4 -13.5 -8.5t-13.5 -9.5q-14 -9 -28.5 -18.5t-29.5 -19.5q-30 -20 -62 -40.5t-67 -43.5q-69 -45 -131 -83.5t-121 -74.5q-58 -35 -110 -65.5t-101 -53.5q-13 -5 -25 -10t-28 -7q-7 0 -11 2t-5 3.5t-3 2.5q-6 8 -9 11q-4 5 -7 10.5t-7 10.5 q-12 20 -22.5 40.5t-19.5 38.5q-19 38 -34.5 71t-29.5 60q-27 56 -46 96t-31.5 65t-18.5 38t-8 17q-5 11 -1 21.5z" />
<glyph unicode="w" horiz-adv-x="2057" d="M181 474q-3 17 2.5 30.5t17.5 15.5q11 2 20.5 -8t12.5 -28l2.5 -12.5t3.5 -22t6 -38.5t11 -62q4 -18 8.5 -41t12.5 -51q7 -28 15.5 -60t22.5 -68q8 -18 17 -37t21 -37q6 -8 14.5 -15t16.5 -9t20 1.5t23 8.5q46 22 93.5 57t100.5 78q96 81 160.5 144.5t112.5 112.5 q5 6 11 12.5t12 12.5l5 5q10 -5 7.5 -3.5t-0.5 0.5v-1v-2v-3v-16q0 -14 0.5 -27.5t1.5 -26.5q2 -26 5.5 -47.5t7.5 -41.5q9 -42 23 -75q8 -17 17 -34.5t24 -31.5q14 -14 34 -23t47 -8q27 2 59 11.5t69 24.5q49 19 89 38t73 36t60.5 34t52.5 31q25 15 47.5 29t44.5 28.5 t44.5 29.5t47.5 33q5 3 10 6.5t10 6.5l10 7l4 3l1 1q-1 0 1.5 0.5t5 0.5h4t-1.5 0h1l3 -1q22 -5 43 -6q20 -2 40.5 -2.5t38.5 0.5q38 2 70 6.5t58 10.5q55 11 92 22t63 21q26 9 42.5 16t29 12t23 10t23.5 10q15 6 29 4t19 -13.5t-3.5 -23t-25.5 -17.5q-5 -2 -8.5 -3.5 t-11.5 -3.5t-21.5 -5.5t-39.5 -10.5q-27 -8 -67.5 -19t-103.5 -22q-31 -5 -67.5 -9.5t-80.5 -6.5q-23 -1 -46.5 -0.5t-48.5 3.5q-26 1 -54 9h-1h-1h-1q6 1 8 1.5t1.5 0.5h-1.5l-3 -2l-5 -4l-11 -7q-6 -5 -12 -9l-12 -8q-52 -34 -111 -74t-129 -84q-35 -23 -72.5 -45 t-79.5 -43q-40 -20 -88 -40q-24 -9 -49 -17t-54 -12q-20 -2 -38 1q-10 1 -19 3.5t-17 6.5q-16 8 -28.5 18.5t-21.5 21.5q-18 23 -27.5 44.5t-15.5 40.5q-11 39 -15.5 73.5t-6.5 71.5v39v43q0 7 1 12v3v2q4 -2 1.5 -0.5t-4 2t4 -1.5t27.5 -11l-1 -1l-4 -5l-18 -17 q-9 -9 -18.5 -19t-20.5 -20q-43 -43 -100.5 -98.5t-140.5 -128.5q-42 -36 -81.5 -68.5t-80.5 -57.5q-22 -13 -41 -22q-11 -5 -23.5 -8.5t-27.5 -1.5q-17 3 -27 11.5t-18 16.5t-14 16.5t-11 17.5q-19 35 -31.5 66.5t-22.5 59.5q-10 29 -17.5 54t-13.5 48q-25 88 -34 129.5 t-11 51.5z" />
<glyph unicode="x" horiz-adv-x="1301" d="M44 44q-2 3 0 1l3 1l12 6t11 6q11 5 21 10.5t21 10.5q12 5 23.5 10.5t24.5 10.5q32 18 69.5 39.5t83.5 44.5q39 20 73 37.5t64 32.5q-28 24 -52.5 44.5t-45.5 38.5q-78 67 -113.5 98t-43.5 39q-14 13 -19 28.5t3 23.5t23 4.5t29 -16.5q4 -4 10.5 -10t17.5 -18t30.5 -31 t51.5 -49q26 -25 60.5 -58.5t82.5 -76.5q42 20 76.5 38t65.5 34q29 14 55.5 27t53 26.5t54 26.5t59.5 28q50 23 95 43q11 5 22 9t22 9q5 2 11 4t11 4l1 1q-1 0 1.5 0t5 -0.5t4 -0.5t-1.5 0l3 -1l4 -1q4 -1 10 -3q40 -11 76 -14t67 -5h20q49 0 85 4q44 5 75 10q30 5 49 9.5 t34 8t27.5 7.5t27.5 7q18 4 33 -0.5t18 -15.5t-8 -21.5t-31 -16.5q-6 -1 -10 -1.5t-12.5 -1.5t-25 -2.5t-47.5 -5.5q-30 -3 -78 -7q-39 -4 -93 -4h-25q-36 1 -77.5 5t-90.5 15q-6 2 -12.5 4t-12.5 4q-3 1 -5.5 2t-5.5 2l-6 -2q-12 -5 -24.5 -10t-26.5 -10q-27 -11 -54 -22.5 t-57 -24.5q-75 -33 -158.5 -78t-180.5 -100q6 -5 12 -11t13 -11q5 -5 11 -10l12 -10q16 1 33 1t35 -2q24 -2 48.5 -7t51.5 -17q26 -11 51 -28.5t45 -43.5q22 -30 29 -61q1 -4 1.5 -7.5t1.5 -8.5q0 -2 0.5 -4t0.5 -4v-4v-7q-2 -9 -8 -15q-5 -6 -16 -8q-11 -1 -21 2 q-16 5 -28.5 11.5t-24.5 13.5q-12 8 -23 15t-22 15q-43 30 -80.5 59t-70.5 56q-8 6 -15 12t-15 12q-33 -3 -60.5 -8.5t-52.5 -12.5q-39 -11 -71.5 -22.5t-59.5 -22.5q-20 -11 -41 -23.5t-42 -24.5q-33 -18 -60 -33.5t-52 -30.5q-5 -3 -11 -7l-6 -3l-1 -1h-1q8 -14 5 -8.5 t-10 17.5h-2q-2 4 0 1.5t2.5 -4t-3 3.5t-13.5 25v1q-3 5 -5 8zM383 179q17 5 36.5 9.5t42.5 9.5q11 2 23 3.5t24 3.5q-8 7 -17 14t-17 13q-23 -12 -45.5 -25t-46.5 -28zM574 191q26 -23 54.5 -46t61.5 -49q24 -17 49 -35.5t54 -34.5q22 -15 29 -11t6 19t-8.5 34t-16.5 31 q-20 29 -47 46.5t-56 27.5t-56 14t-53 4h-17z" />
<glyph unicode="y" horiz-adv-x="1601" d="M30 130q-3 26 0 49q2 23 7 43t10 37q11 35 23 62t22 50q22 43 35 67t18 33q19 33 40.5 50.5t30.5 10.5t2 -32t-25 -57q-6 -10 -14.5 -23t-23.5 -40q-8 -13 -17 -31t-20 -42t-23 -53.5t-20 -68.5q-3 -19 -3 -39.5t9 -37.5q3 -6 10 -9q3 -2 8.5 -2h11.5q24 1 53 12 q56 19 119 53t135 78q73 44 153 98t172 121q11 8 22.5 16t24.5 17l11 9l6 4l3 2l1 1l1 1q9 -7 11 -9t1.5 -1.5t-1.5 1t1 -0.5q-3 -7 -5.5 -14t-5.5 -14q-11 -28 -22.5 -57t-22.5 -59q-24 -59 -48 -122t-49 -131q-95 -249 -161.5 -432.5t-113 -320.5t-77.5 -239t-56 -187 q-24 -86 -45 -166t-44 -174q-5 -24 -10 -49t-10 -52q-2 -13 -4 -27t-3 -28q-1 -7 -1 -13.5v-14.5v-2q0 -2 1 -2q1 1 -2.5 0t-5.5 -3q-1 -1 -1.5 -1t-1.5 -1t-2 -1q1 -2 -1 1.5t-7 6.5q-2 2 -2 1.5t0 0.5l1 2q0 1 1 2q2 4 2 7q22 58 45.5 127.5t55.5 149.5q43 106 83.5 192 t77.5 158q38 72 72 131.5t66 111.5q33 52 64 100t63 94t67.5 93t76.5 98q133 164 248 277t206 192q92 80 159 130.5t115 86.5q48 35 80 57.5t57 39t45.5 30t47.5 28.5q32 18 58.5 24t31.5 -4t-13 -29.5t-49 -37.5q-10 -6 -17.5 -10t-21.5 -11t-41 -22.5t-75 -43.5 q-48 -31 -121.5 -80.5t-178.5 -131.5q-52 -42 -112 -93.5t-126.5 -115t-139 -141t-150.5 -172.5q-84 -103 -168.5 -230.5t-165.5 -281t-156 -334.5t-141 -391q-3 -10 -8 -19q-2 -4 -4 -7l-1 -2l-4 -4q0 -3 -9 -5q-2 -2 -8 -3t-11 1q-9 3 -14 10q-1 2 -2 3t-2 3q-2 6 -3 6 q-1 3 -1 8q-1 3 -0.5 2.5t-0.5 0.5v1v2v6v9q0 5 0.5 9t0.5 9q2 17 4.5 33t4.5 32q5 31 11.5 59t12.5 53q13 52 25.5 96.5t24.5 84.5q25 79 47 146.5t48 140.5q17 49 36 104t42.5 121t51.5 146t63.5 179t79 218t96.5 266q20 55 40 107.5t39 104.5q18 50 37 98q5 12 9 24.5 t8 23.5q2 5 5 11t5 13l4 11l3 6q-2 1 5 -4t14.5 -11.5t12 -9.5t-5.5 4l-1 -1l-1 -1l-3 -2q-156 -119 -288 -209q-67 -45 -127.5 -82.5t-117.5 -68.5q-29 -15 -56 -28t-55 -23q-29 -11 -57 -16q-7 -1 -15.5 -1.5t-16.5 1.5q-8 1 -17.5 5t-17.5 12q-2 2 -3.5 4t-3.5 4l-4 7 q-2 3 -3 6.5t-3 6.5q-2 7 -3.5 14t-3.5 14z" />
<glyph unicode="z" horiz-adv-x="1522" d="M-357.5 -1657.5q0.5 3.5 0.5 6.5q1 11 6 23q6 19 15 40q8 20 18.5 40.5t21.5 41.5q23 42 49.5 87.5t59.5 97t73.5 109t89.5 123.5q29 38 55.5 72t51.5 66q14 30 29.5 62.5t29.5 68.5q33 77 66 167t62 198q30 109 45 211q14 96 14 183v12q0 46 -5 90t-16 83q0 1 -0.5 2 t-0.5 2q-1 1 -1 2q-1 -2 1 4t4 13t3 10t-1 -4l1 1l10 6q4 3 7.5 6t8.5 6q8 6 16.5 12t16.5 13q16 12 31.5 23.5t30.5 24.5q61 47 114 90t96 84q11 11 21.5 21t18.5 20q9 10 12 16q-17 10 -37.5 15t-41.5 8q-44 7 -83 7q-13 0 -25 1q-25 0 -47 -1q-33 -1 -60.5 -3t-50.5 -4 q-46 -4 -70.5 -7.5t-35.5 -4.5q-35 -5 -60 0t-27 16t21.5 22t59.5 16q11 2 27 3t45 3q31 3 81 5q23 1 52 1q35 0 80 -2q20 -2 43 -3.5t48 -5.5q25 -5 52.5 -11.5t56.5 -23.5l3 -3l2 -1q-1 0 0 -1t2 -1l1 -1l2 -2q4 -5 4.5 -10.5t-0.5 -8.5q-1 -8 -3 -12t-5 -8 q-8 -13 -20 -28q-11 -12 -23.5 -24t-25.5 -23q-27 -24 -56 -47.5t-62 -48.5q-33 -26 -68 -52t-73 -54q-10 -8 -19 -14.5t-19 -13.5q-5 -4 -10.5 -7.5t-10.5 -7.5l-9 -6q8 -26 11.5 -52t5.5 -53q3 -36 3 -73q1 -77 -11 -159q-16 -122 -54 -257q-35 -124 -75 -227t-79 -190 q-3 -8 -8 -17q77 95 140 166t118 132q40 43 77.5 83t74.5 79t77 79t86 84q147 140 265.5 240t210.5 171t157.5 124t111.5 86q47 33 77.5 56t54.5 40.5t44 32t45 29.5q30 18 56 23.5t31 -3.5q5 -10 -12.5 -29.5t-46.5 -36.5q-9 -6 -16 -9t-20.5 -10.5t-39.5 -22.5t-73 -42 q-47 -30 -118 -81t-177 -127q-103 -76 -240.5 -190.5t-310.5 -277.5q-93 -89 -192 -195.5t-207 -236.5q-58 -71 -118.5 -147.5t-123.5 -160.5q-36 -73 -67 -132q-67 -123 -118.5 -211.5t-97.5 -161.5q-12 -17 -24 -34.5t-23 -35.5q-6 -8 -12.5 -16t-13.5 -17q-4 -4 -7 -7.5 t-7 -7.5q-4 -5 -8.5 -8.5t-11.5 -7.5q-2 -1 -5 -2t-8 1q-6 0 -10 6q-2 2 -2 3.5t-1 3.5q-1 5 -0.5 8.5zM-283 -1570l34 46q20 29 39.5 58t39.5 61q34 53 71.5 115.5t83.5 145.5q-33 -47 -66.5 -95t-65.5 -100q-71 -112 -119 -200q-5 -8 -9 -15.5t-8 -15.5z" />
<glyph unicode="{" horiz-adv-x="992" d="M49 588q0 -4 0 3.5v20.5v27v23t0.5 9t0.5 -16h2h3l7 1h14q7 0 13 0.5t13 0.5q27 1 54 7q52 8 100 26t87 47q39 30 67.5 70t52.5 83q24 44 43 88t43 85q23 42 49.5 78t58.5 62q32 27 65.5 43.5t62.5 24.5q30 8 55 11t44 4q19 0 31.5 -1t18.5 -3q34 -12 20 -24 q-6 -5 -21 -9.5t-38 -9.5t-51 -11t-59 -16.5t-64.5 -27t-66.5 -41.5q-24 -17 -51.5 -52.5t-54.5 -85.5q-28 -49 -58 -109t-77 -116q-24 -28 -53 -50.5t-64 -40.5q-35 -17 -73.5 -27t-79.5 -15q-20 -2 -40.5 -3.5t-42.5 -1.5h-10q0 -7 -0.5 -3t-0.5 5.5t0 -5.5v-38h1h3h5h21 q11 -1 21 -1.5t21 -1.5q40 -5 78.5 -17.5t61.5 -39.5q24 -28 27 -67.5t-2 -78.5q-5 -40 -13.5 -78.5t-13.5 -77.5q-6 -39 -7.5 -78t8.5 -75q9 -38 33 -66q11 -14 24 -24t26 -19q28 -16 55 -24t51 -13q25 -5 45.5 -7.5t37.5 -3.5q17 -2 31 -2h23h19q27 -3 22 -5t-37 -4 q-15 -1 -37.5 -0.5t-49.5 2.5t-59.5 8t-69.5 21q-18 7 -37 17t-36 27q-17 15 -30.5 36.5t-20.5 45.5q-15 49 -11 99.5t12 99.5q5 25 9.5 50t8.5 50t6.5 49t-1.5 47q-2 24 -10 42t-24 32t-38.5 22t-46.5 14q-26 5 -52.5 6.5t-53.5 1.5z" />
<glyph unicode="|" horiz-adv-x="540" d="M89.5 -249.5q1.5 28.5 12.5 100.5t28 180t40 236.5t48.5 269t51.5 277.5t51.5 262.5t47 224t38 162t25.5 75.5q18 26 27 12t7 -52.5t-16 -95.5t-42 -119q-20 -44 -44 -133t-49.5 -205t-51.5 -249.5t-50 -265.5q-57 -311 -115 -677q-10 -31 -8.5 -2.5z" />
<glyph unicode="}" horiz-adv-x="992" d="M57 -56q6 5 21.5 9.5t38.5 9.5t51 11.5t59 16.5t64.5 26.5t65.5 41.5q24 17 51.5 52.5t55.5 86.5q28 49 58 109t77 115q24 28 53 51t64 40t73 27t79 15q20 2 41 3.5t42 1.5h11q0 7 0.5 3t0.5 -5.5t0 5.5v38h-1h-4h-5h-20q-11 1 -21 1.5t-21 1.5q-40 5 -78.5 17.5 t-61.5 40.5q-24 28 -27 67t2 78q5 40 13.5 79t13.5 78q6 39 7.5 77.5t-8.5 74.5q-9 38 -33 66q-11 14 -24 24.5t-26 18.5q-28 16 -55 24t-51 14q-25 5 -45.5 7t-38.5 3q-17 1 -30.5 1.5t-22.5 0.5h-19q-27 3 -22 5t37 4q15 1 37 0.5t50 -2.5q27 -2 59.5 -8t69.5 -21 q18 -7 36.5 -17t36.5 -27q17 -15 30.5 -36.5t20.5 -45.5q15 -49 11 -99.5t-12 -99.5l-10 -50t-9 -50t-6 -49t1 -47q2 -24 10.5 -42t24.5 -32t38.5 -22t46.5 -13q26 -5 52.5 -7t53.5 -2q0 4 0 -3.5v-20v-27v-23.5t-0.5 -9t-0.5 16h-3h-3l-7 -1h-13q-7 0 -13.5 -0.5 t-13.5 -0.5q-27 -1 -53 -6q-52 -8 -100 -26t-87 -48t-68 -70t-52 -83q-24 -44 -43.5 -88t-42.5 -85q-23 -42 -49.5 -77.5t-59.5 -62.5q-32 -27 -65 -43t-63 -25q-30 -8 -55 -11t-43 -4q-19 0 -31.5 1t-18.5 3q-34 12 -21 24z" />
<glyph unicode="~" horiz-adv-x="852" d="M4 263.5q-7 10.5 1 31.5q8 18 31.5 39t60.5 28q13 2 30 7.5t39 8.5q20 4 43.5 1t46.5 -17q24 -15 42 -34q24 -26 56 -41q33 -14 68 -19.5t68 -3.5q69 5 127.5 23t101.5 37q42 18 66 31q14 8 25 14q10 2 9.5 -1t-10.5 -10.5t-28.5 -17.5t-44.5 -23q-27 -11 -58.5 -23 t-70.5 -24q-38 -10 -81 -16t-90 -2q-24 2 -47 7.5t-47 16.5q-25 11 -42 28q-3 2 -5.5 4t-4.5 4q-1 2 -2 2.5t-2 1.5l-3 3q-3 4 -7 7t-7 6q-27 22 -55.5 24.5t-54.5 -8.5q-27 -11 -49 -27.5t-38 -30.5t-27 -22.5t-16 -10.5q-18 -4 -25 6.5z" />
<glyph unicode="&#xa1;" horiz-adv-x="517" d="M6 -822q6 32 24.5 77t51.5 92q24 33 53.5 104t61 164.5t61 202.5t53.5 219q24 111 39 212.5t21 181.5q4 40 5 72t2 55q1 27 0 47q3 17 5.5 14t4 -23.5t1 -56.5t-3.5 -84t-9.5 -106.5t-17 -123.5t-23.5 -134.5t-31 -141.5q-22 -96 -48 -191.5t-53.5 -183t-53.5 -164 t-48.5 -134.5t-40 -94.5t-25.5 -43.5q-19 -17 -27 -4.5t-2 44.5zM346 1093.5q-11 27.5 0 38.5t38.5 -1t53.5 -38q27 -27 38 -54t-1 -38q-11 -10 -37.5 1t-53.5 37q-27 27 -38 54.5z" />
<glyph unicode="&#xa2;" horiz-adv-x="958" d="M51 203.5q-1 14.5 0 26.5q2 52 14.5 95.5t30.5 77.5q17 35 38.5 60.5t41.5 44.5q20 18 38.5 31t34.5 22q10 6 38.5 16.5t66.5 22.5t79.5 24.5t76.5 23t58.5 17.5t25.5 8q14 5 26.5 0t14.5 -17q2 -11 -4.5 -20.5t-19.5 -13.5q-1 -1 -23.5 -7.5t-55 -16t-71.5 -20.5 t-74 -20.5t-60 -17.5t-31 -10q-10 -3 -22.5 -8.5t-28.5 -14.5q-16 -10 -36 -24t-41 -37q-20 -23 -41 -54.5t-35 -76.5q-7 -23 -10.5 -48t-5.5 -53q-1 -27 11 -53.5t37 -46.5q25 -22 57 -37t70 -26q76 -23 164 -26q90 -5 192 4.5t216 36.5l3 -15q-188 -42 -352 -44 q-81 0 -152.5 10.5t-133.5 34.5q-31 12 -57 29.5t-46 41.5q-9 11 -16.5 24.5t-11.5 27.5q-5 14 -6 28.5zM271 -453.5q1 28.5 12 100.5t28.5 180t40 237t48 269t51.5 277.5t51.5 262.5t47 223.5t38 162t25.5 75.5q18 26 27 12t7 -52.5t-16 -95.5t-42 -119q-20 -44 -44 -133 t-49.5 -204.5t-51.5 -249.5t-50 -266q-56 -311 -114 -677q-10 -31 -9 -2.5z" />
<glyph unicode="&#xa3;" horiz-adv-x="1800" d="M-19 22l1 1l3 5q2 3 3.5 5.5t3.5 5.5q7 11 13.5 22.5t13.5 24.5q14 26 29 55.5t32 65.5q33 72 68.5 170.5t77.5 235.5q43 140 72.5 256.5t52.5 212.5q11 48 19.5 94t16.5 86.5t19 74.5t27 59q25 38 66 46.5t91 -4t106 -41t110 -64t103.5 -73t88 -69t61 -51t23.5 -18.5 q2 11 7.5 38.5t11.5 55.5t12.5 49t11.5 20q14 -3 13.5 -19t-7 -42.5t-12.5 -62.5t-2 -79q1 -6 -23.5 12.5t-65 51t-94 72.5t-112.5 78t-118 69.5t-111.5 44t-93.5 3t-64 -53.5q-12 -24 -23.5 -73t-23.5 -113.5t-26 -140t-31 -150.5t-38 -146.5t-47 -128.5q-25 -53 -40 -99 t-31 -98t-39 -115.5t-64 -150.5q-10 -20 -19 -38.5t-18 -35.5q-4 -9 -8 -17.5t-10 -16.5q-2 -4 -4 -7.5t-4 -8.5q-1 -1 -5 -7l-2 -3v-1l-1 -1q-1 1 -0.5 0.5l1 -1t-1 1t-5.5 8.5h2q33 8 62 14.5t56 12.5q54 12 103 22.5t110 21.5q59 11 135 21t183 14q71 1 130 -1.5 t108.5 -9t91.5 -14.5t79 -17q36 -9 70 -12.5t69 -3.5q69 0 143 19q62 16 113.5 39.5t94.5 48.5t78 49t65 46q59 44 98.5 78t65.5 57q27 25 44.5 41.5t30.5 29t24 23t25 22.5q17 14 33.5 19t25.5 -3q8 -8 1.5 -25t-24.5 -32q-5 -5 -9 -7.5t-12.5 -8.5t-23.5 -18t-43 -33 q-28 -22 -71 -56.5t-110 -83.5q-34 -24 -74.5 -51.5t-91.5 -55.5q-50 -28 -111 -55.5t-136 -45.5q-41 -9 -85.5 -13.5t-92.5 -2.5q-25 1 -49.5 4.5t-49.5 8.5t-50 9.5t-52 8.5q-105 14 -224.5 10.5t-253.5 -20.5q-87 -11 -149 -21t-112 -18t-93 -15t-91 -15q-5 -1 -11.5 -2 t-12.5 -2l-3 -1h-1q-3 5 -1.5 2t2.5 -4t-2.5 4t-17.5 27zM52 704.5q4 11.5 16.5 17t31 2t39.5 -20.5q15 -11 44.5 -18t67.5 -11t81.5 -4.5t86.5 0.5q101 2 220 13q13 -5 -4 -9t-53.5 -7.5t-88.5 -6.5t-108 -4t-112.5 -0.5t-102 3.5t-77 8t-36.5 13q-9 13 -5 24.5z" />
<glyph unicode="&#xa4;" horiz-adv-x="845" d="M47 16q6 19 28.5 37t61.5 24q7 1 15.5 3.5t16.5 6.5q12 -23 30 -42q-43 -39 -73.5 -62t-42.5 -21q-24 3 -33 19t-3 35zM153 169q0 19 1.5 37.5t3.5 36.5q2 17 5 33.5t8 31.5q8 32 21.5 58t29.5 47q16 20 32.5 36t34.5 27q33 24 59.5 34.5t44.5 16.5q18 5 28.5 8t15.5 4 q6 1 27.5 -3.5t49.5 -11.5t56 -15t46 -15v1l1 1q3 0 9 4h4l3 -15q4 -2 4 -4t-0.5 -4t-0.5 -4l1 -3q-6 -8 -8 -11q-5 -6 -9.5 -12t-9.5 -12q-6 -7 -15 -31t-20 -56t-23 -68t-25 -69.5t-26 -59.5t-25 -37q-17 -17 -39.5 -36t-52.5 -36q-15 -9 -31.5 -17.5t-37.5 -14.5 q-10 -3 -20 -5t-22 -3q-4 -1 -12 -1q-4 0 -6 1h-6q-15 2 -26 7q-26 11 -39.5 33.5t-19.5 43.5q-6 22 -8 42t-3 41zM178 542q-3 15 1 22q10 19 26.5 25.5t31 0t22.5 -26.5t1 -53q-4 -16 -0.5 -36t11.5 -44q-13 -6 -28 -20q-17 28 -30.5 52.5t-22.5 44.5t-12 35zM178.5 155 q-0.5 -23 3.5 -46q4 -24 15.5 -46.5t34.5 -34.5q22 -10 45.5 -6.5t44.5 10.5q20 7 38 16t33 21q31 20 54.5 42t41.5 43q6 7 14.5 29t17 51.5t17.5 63t16.5 62.5t14.5 50t11 27q2 4 5 8t5 8q-17 3 -44 7.5t-53.5 9.5t-47.5 8t-25 3q-11 -2 -29.5 -6t-46.5 -16 q-14 -6 -29.5 -15t-32.5 -23t-34 -34t-31 -48t-23 -63t-13 -78q-2 -20 -2.5 -43zM435 93q4 3 7.5 6t7.5 7q14 -17 25.5 -31t21.5 -24q11 -11 19 -21q2 -19 -21 0.5t-60 62.5zM568 499l6.5 6.5l6.5 6.5q43 46 81.5 89.5t68.5 77.5q35 40 66 75q18 7 7 -12.5t-42.5 -58 t-78.5 -90t-100 -109.5q-6 8 -15 15z" />
<glyph unicode="&#xa5;" horiz-adv-x="1283" d="M-56.5 -473q-0.5 1 5.5 -3q0 8 0.5 15t1.5 16q2 17 6 34t9 33q11 31 26.5 58t33.5 51q30 38 62 67t67 56q30 52 59.5 106.5t59.5 112.5q62 117 108 201t83 152t68.5 126t66.5 122q34 65 75 141.5t96 183.5q20 39 42 82t47 93q-6 -6 -12 -13l-12 -14q-33 -35 -67.5 -72 t-72.5 -76q-78 -80 -152 -149t-149 -124q-18 -14 -37 -27t-39 -24t-40.5 -20t-45.5 -13q-12 -2 -25 0t-27 10q-12 8 -19 19t-11 22q-8 22 -10 42.5t-3 39.5q0 39 3.5 75t9.5 70q5 33 11 64t12 60q12 58 25 109t24 95q25 87 43.5 150t31 105.5t21 66.5t11.5 34q11 33 26 53 t26 16t10.5 -29t-11.5 -57q-3 -11 -8.5 -25t-15.5 -41t-26 -73t-39 -120q-11 -38 -25 -83t-29 -100q-14 -55 -30.5 -120.5t-28.5 -142.5q-3 -19 -5 -39.5t-3 -40.5q-2 -20 -1.5 -42.5t5.5 -42.5q2 -11 6 -20.5t12 -15.5q12 -13 36 -10q23 2 45.5 12t44.5 23q45 27 89 61 t89 73q46 39 91 82.5t93 91.5q45 44 84.5 85.5t76.5 81.5q12 14 24.5 27t23.5 26q2 4 3.5 7.5t3.5 6.5l9 19l2 4l1 2q-2 1 1 -1t9 -5l1 1q2 -1 0 0.5t6 -2.5l-1 -1v-1q8 -5 12.5 -9t-4.5 1l-1 -2l-7 -7q-5 -6 -10.5 -12t-10.5 -11l-15 -31q-42 -83 -77.5 -153t-66.5 -132 q-31 -60 -56 -112.5t-48 -98t-42.5 -86t-38.5 -76.5q-37 -75 -71 -144t-76 -150q-36 -69 -80 -150.5t-105 -187.5q35 22 72.5 42.5t80.5 42.5q90 44 168.5 78.5t147.5 65.5q70 31 129 57.5t110 50.5q102 47 171.5 82.5t118.5 62.5q47 27 78 45.5t54 32.5t42.5 26.5 t43.5 26.5q30 18 54 24.5t30 -2.5t-10 -29.5t-45 -38.5q-9 -5 -16 -8.5t-20.5 -11t-39.5 -20.5t-73 -38q-48 -25 -123 -61.5t-189 -88.5q-57 -26 -125 -55t-148 -62q-80 -35 -171.5 -73.5t-194.5 -89.5q-40 -20 -81.5 -43t-83.5 -52q-7 -11 -14.5 -24t-15.5 -25 q-27 -46 -52 -88t-49 -80t-46.5 -72t-48.5 -63l-3 -3t-3 -2v-3v-2l-2 2q-2 -2 -4 -3.5t-4 -2.5q-2 -3 -5 -3v-1q4 -2 2 -1t-5.5 3t-6.5 4t-2 2v1v1v3v9v5q-5 2 -5.5 3zM-22 -443q4 5 8.5 11t8.5 12q24 36 46 74t45 78l22 38t22 39q-24 -19 -44.5 -41t-39.5 -48 q-23 -30 -39 -63.5t-24 -71.5q-2 -7 -2.5 -14t-2.5 -14zM136 318.5q4 11.5 16.5 17t31 2t39.5 -20.5q15 -11 44.5 -18t67.5 -11t81.5 -4.5t86.5 0.5q101 2 220 13q13 -5 -4 -9t-53.5 -8t-88.5 -6.5t-108 -3.5t-112.5 -0.5t-102 3t-77 8t-36.5 13.5q-9 13 -5 24.5zM198 431 q4 11 16 17t30.5 2t40.5 -20q15 -11 44 -18.5t67 -11.5t81.5 -4.5t86.5 0.5q101 3 220 14q13 -5 -3.5 -9.5t-53.5 -8t-88.5 -6t-108 -3.5t-113 -0.5t-102 3t-76.5 7.5t-36 14q-9 13 -5 24z" />
<glyph unicode="&#xa6;" horiz-adv-x="596" d="M8 -253q0 13 10.5 29t33.5 29q16 9 34 34t36 58t36 73t33 80q37 94 74 208q9 10 7 -7.5t-13 -52.5t-28.5 -83t-38.5 -101t-43.5 -104t-43 -92.5t-37.5 -68.5t-26 -29q-15 -3 -24.5 5.5t-9.5 21.5zM286 479.5q0 13.5 10 29t34 29.5q16 9 34 33.5t36 58t36 73t33 79.5 q37 94 74 208q9 10 7 -7t-13.5 -52.5t-29 -83.5t-38 -101t-43.5 -104t-43.5 -92.5t-37 -68t-26.5 -28.5q-15 -3 -24 5t-9 21.5z" />
<glyph unicode="&#xa7;" horiz-adv-x="1168" d="M-428 -867.5q2 10.5 5 19.5t7 17t9 16q18 30 38 54t39 45q39 42 77 78t85 77q31 27 68 57t83 65q8 39 14 75.5t11 71.5q9 61 16 117t12 107q11 101 20.5 181t19.5 141t21 105t22 74t20 47t15 23q2 3 12.5 13.5l25 25t31 30t30.5 28t25.5 21.5t14.5 10q9 2 15.5 0t8.5 -7 t1 -11.5t-3 -13.5q-2 -3 -19 -22t-38 -41t-39 -41.5t-21 -23.5q-4 -5 -9.5 -12t-13.5 -24q-8 -16 -20 -45.5t-24 -80.5q-13 -51 -26 -125.5t-27 -182.5q-8 -53 -16.5 -114.5t-19.5 -132.5q-7 -40 -14.5 -83t-17.5 -89q19 14 39.5 28.5t41.5 31.5q58 43 107.5 77.5t91.5 64.5 l77 55t67 47q32 23 61 43.5t58.5 41.5t60 42.5t64.5 44.5q110 77 193.5 135t146 101.5t106 74t74.5 52.5t51 36t35 25t28 20t29 19q19 13 37.5 15t24.5 -7q6 -10 -3 -25.5t-29 -27.5q-6 -4 -10.5 -6.5t-14 -7t-26.5 -14.5t-48 -28t-79 -48t-119.5 -75.5t-169 -110 t-226.5 -151.5q-71 -47 -147.5 -104.5t-165.5 -125.5q-83 -65 -175 -135.5t-194 -151.5q-8 -38 -22 -81q-24 -82 -55 -148t-74 -115q-43 -48 -92 -70q-26 -11 -50.5 -16.5t-47.5 -6.5q-26 0 -45 5q-11 2 -20.5 8t-14.5 17t-3 21.5zM-405 -868.5q-3 -10.5 2 -15.5 q3 -6 16 -10t30 -5q35 -2 70 7q37 9 74 35.5t68 69.5q32 44 56 101t44 128q4 14 7 27.5t6 26.5q-70 -55 -118.5 -96t-87.5 -75q-39 -35 -71 -65t-62 -67q-7 -9 -14 -19t-12 -21t-8 -21.5zM25 -227.5q1 6.5 3 13.5q1 3 18 21t38 39t38.5 39.5t20.5 22.5q4 5 9.5 12t13.5 24 q8 16 20 45t24 81q13 51 26 125.5t27 182.5q8 53 16.5 114.5t19.5 132.5q7 40 14.5 83t17.5 89l14 64q8 38 22 81q24 82 55 148t74 115q43 48 92 70q26 11 50.5 16t47.5 6q26 0 45 -4q11 -2 20.5 -8t14.5 -17t3 -21.5t-5 -19.5t-7 -17t-9 -16q-18 -30 -38 -54t-39 -45 q-39 -42 -77 -78t-85 -77q-31 -27 -68 -57t-83 -65q-8 -39 -14 -75.5t-11 -71.5q-9 -61 -16 -117t-12 -108q-11 -101 -20.5 -180.5t-19.5 -140.5t-21 -105.5t-22 -73.5q-11 -30 -20 -47t-15 -23q-4 -5 -24 -24.5t-43.5 -40.5t-44 -38.5t-25.5 -18.5q-9 -2 -15.5 0t-8.5 7 t-1 11.5zM373 883q70 55 118.5 96t87.5 75q39 35 71 65t62 67q7 9 14 18.5t12 21.5q5 11 8 21t-2 16q-3 6 -16 10t-30 5q-35 2 -70 -7q-37 -9 -74 -35.5t-68 -69.5q-32 -44 -56 -101t-44 -128q-4 -14 -7 -27.5t-6 -26.5z" />
<glyph unicode="&#xa8;" horiz-adv-x="852" d="M12 972q0 3 10.5 10t29 17.5t43.5 22.5q27 11 55 29t67 29q12 3 29.5 14t35.5 22t34.5 21.5t28 13t16.5 -5t-2 -31.5q-1 -4 10.5 -10.5t30.5 -15t42 -17.5t46 -19.5t43 -21.5t31 -22q27 -22 55.5 -25t55.5 8t48.5 27.5t38.5 31.5q8 7 20.5 18.5t24 23t21 20t12.5 9.5 q18 4 24.5 -6.5t-1.5 -31.5q-4 -9 -17.5 -25.5t-31.5 -33t-38.5 -30.5t-39.5 -17q-13 -2 -30 -7t-38 -8q-20 -4 -44 -1t-47 16q-20 13 -50.5 29t-63.5 32t-63.5 31.5t-51.5 29.5q-32 -10 -64 -21t-63 -21.5t-58 -21t-48 -19.5q-22 -9 -39 -17.5t-28 -14.5q-13 -7 -24 -13 q-10 -2 -10 1z" />
<glyph unicode="&#xa9;" horiz-adv-x="737" d="M22 94q0 78 6 147t26.5 129t60 112t109.5 96q46 30 90.5 49.5t99.5 11.5q35 -2 73.5 -19t74 -42t62.5 -55t38 -61q10 -29 21 -60t18 -63.5t4.5 -64.5t-18.5 -64q-18 -36 -34 -74.5t-42 -70.5q-49 -61 -108 -114t-130 -88q-23 -11 -49 -21t-53.5 -15.5t-55 -5t-51.5 10.5 q-37 15 -64 44t-44.5 65t-25.5 76t-8 77zM54 91q2 -31 8.5 -66t19.5 -68t35.5 -59.5t56.5 -38.5q47 -16 98.5 -6.5t101 36.5t95.5 68t83.5 86.5t64.5 92t38 85.5q9 30 11 61t-3 61q-5 42 -26.5 84t-52.5 76.5t-71.5 58t-84.5 28.5q-5 -3 -10 -3q-6 2 -12.5 2.5t-11.5 1.5 q-15 -1 -30 -5.5t-26 -15.5q-15 -13 -23.5 -33t-19.5 -37q-8 -8 -17.5 -9t-16 4t-9 13.5t0.5 19.5q2 4 5 9t5 10q-5 -2 -9 -5t-8 -5q-19 -12 -45 -27.5t-41 -35.5q-65 -80 -88.5 -180t-17.5 -203zM179 165q-5 30 8 63t33.5 65.5t44.5 60.5t41 47t30 29t26.5 14.5t28.5 4.5 t35 -2q9 -1 14 -4t10 -11q5 -14 10.5 -29.5t10.5 -29.5q2 -11 -2 -19.5t-11.5 -11.5t-16.5 -1t-16 11q-4 13 -7 25.5t-7 25.5q-6 1 -13 3t-14 0q-30 -10 -61.5 -36.5t-57.5 -60t-42 -70.5t-13 -70q2 -12 9.5 -22t13.5 -21q32 -7 53.5 -12t34.5 -2.5t18.5 15t6.5 42.5 q4 11 12 16t16 4t14.5 -7t8.5 -17q-2 -18 -8.5 -37.5t-18.5 -34.5t-29 -22.5t-40 -0.5q-27 8 -47.5 12t-35 12t-24.5 24t-15 47z" />
<glyph unicode="&#xaa;" horiz-adv-x="728" d="M138 855q1 28 23.5 62t53 68.5t62 65t48.5 47.5q10 6 19 5.5t15 -6t7.5 -15t-5.5 -19.5q-24 -20 -47.5 -40.5t-46.5 -42t-44 -45t-37 -49.5q-5 -8 -10.5 -26t-6 -36t6 -32t27.5 -13q15 0 30 7t28.5 16.5t26.5 20.5t23 20q27 24 52 50t50 50q8 7 15.5 4.5t12.5 -11.5 q2 -6 10.5 -27t19 -43t21.5 -39t19 -14q12 5 18.5 17t11.5 21q8 10 17.5 11.5t17.5 -3.5t10.5 -14.5t-3.5 -22.5q-33 -46 -59 -52.5t-46 10.5t-35.5 50.5t-25.5 68.5q-22 -20 -43.5 -40t-44.5 -39q-30 -24 -64.5 -43.5t-63 -22t-47 19t-16.5 81.5z" />
<glyph unicode="&#xab;" horiz-adv-x="802" d="M96 322v42.5t0.5 17.5t0 2t0 -5t0.5 -4.5t0 5.5l2 1q69 41 138.5 81.5t128 71t99 48.5t51.5 15q17 -5 18.5 -17.5t-11 -25.5t-37.5 -24t-59 -12q-25 -1 -64 -16.5t-89 -38.5q-25 -12 -50 -26.5t-52 -28.5q-13 -8 -26.5 -15.5t-26.5 -15.5l-14 -8l-2 -1q0 11 0 6v-15 v-19.5t0 -6.5l1 -1l4 -2l7 -4q6 -4 12.5 -8t13.5 -8q52 -33 101.5 -60.5t87.5 -48.5q44 -26 84 -46q13 -14 -9.5 -5t-69.5 33q-24 12 -51.5 28t-58.5 34q-15 9 -31.5 18t-32.5 20q-8 5 -17 10t-17 10l-17 10l-9 5l-4 3zM301 322v42.5t0.5 17.5t0 2t0 -5t0.5 -4.5t0 5.5l2 1 q69 41 138.5 81.5t128 71t99 48.5t51.5 15q17 -5 18 -17.5t-11 -25.5t-37 -24t-59 -12q-25 -1 -64.5 -16.5t-88.5 -38.5q-25 -12 -50.5 -26.5t-51.5 -28.5q-13 -8 -26.5 -15.5t-26.5 -15.5l-14 -8l-2 -1q0 11 0 6v-15v-19.5t0 -6.5l1 -1l3 -2l7 -4q6 -4 13 -8l14 -8 q52 -33 101.5 -60.5t87.5 -48.5q43 -26 83 -46q13 -14 -9 -5t-69 33q-24 12 -51.5 28t-58.5 34q-15 9 -31.5 18t-32.5 20q-8 5 -17 10t-17 10l-18 10l-8 5l-4 3z" />
<glyph unicode="&#xac;" horiz-adv-x="910" d="M128 372.5q4 11.5 16.5 17t31 2t39.5 -19.5q16 -13 51.5 -20.5t80 -10.5t95 -3t97 1.5t85.5 4t62 4.5v17q4 11 12 16t16 4t14.5 -7t8.5 -18q-5 -32 -13 -62t-15.5 -60t-11.5 -61t-1 -63q-2 -13 -10 -19.5t-17.5 -5.5t-16.5 8t-7 21q10 56 25 109t16 110q-30 -4 -81 -7 t-110.5 -4.5t-121.5 -1.5t-113 2.5t-86 8t-41 13.5q-9 13 -5 24.5z" />
<glyph unicode="&#xad;" horiz-adv-x="760" d="M111 395q0 8 5.5 15.5t16.5 10.5q117 -8 230.5 -14t230.5 2q13 -2 19.5 -9.5t6.5 -16.5t-6.5 -17t-19.5 -9q-116 9 -230 14t-231 -1q-11 3 -16.5 10t-5.5 15z" />
<glyph unicode="&#xae;" horiz-adv-x="737" d="M65 145q-3 36 5 68q7 32 16.5 54t17.5 37q16 29 25 33q13 8 20 4.5t8 -11.5q2 -9 0.5 -22.5t-4.5 -29.5q-5 -15 -10 -32.5t-8 -32.5q-3 -14 -4 -35.5t6 -50.5q5 -30 32 -53q30 33 56.5 67.5t53.5 70.5q4 6 8 11.5t9 12.5q-2 2 -4 3l-4 2l-19 3q-17 5 -17 19.5t17 19.5 q12 3 30 -4q7 0 14.5 -0.5t14.5 -0.5q16 22 31 43.5t27 44.5q7 12 13.5 27t14 29.5t17 27t24.5 18.5q15 7 31 -1t28.5 -25.5t22.5 -42t14.5 -49t2 -46t-12.5 -35.5q-5 -7 -13.5 -9.5t-17 -2.5t-17.5 0.5t-16 -0.5q-30 -3 -61 -8t-63 -7q25 -25 46 -52.5t32 -45.5h1 q8 -2 16.5 -4t16.5 -3q11 -5 15 -12.5t2.5 -15.5t-8 -14.5t-17.5 -7.5q-25 3 -42 14t-29.5 25.5t-24.5 32.5t-27 37q-2 2 -4.5 5t-5.5 7q-28 -41 -56 -81t-59 -79q48 -19 119 -22q20 0 40.5 3t43.5 8q24 6 47.5 17.5t49.5 33.5q13 11 26 28.5t24 39.5t17.5 44.5t9.5 44.5 q1 10 1.5 20.5t-0.5 21.5q1 9 0 19q-1 2 -1 4.5t-1 4.5v3l-1 8l-2 4q-4 14 -9.5 26t-11.5 25q-23 49 -53 86t-66 55q-37 18 -76.5 12t-74.5 -27q-34 -22 -59.5 -47.5t-43.5 -45.5q-8 -11 -14 -19.5t-11 -14.5l-9 -12q-13 -13 -12.5 -7t14.5 27q14 22 41 57.5t71 68.5 q22 16 46.5 29t50.5 15q57 9 103 -22q47 -30 81 -89q10 -14 17.5 -29.5t16.5 -31.5q3 -8 6.5 -17t6.5 -19q6 -17 6 -31t2 -28q0 -29 -5.5 -63t-20.5 -69q-14 -34 -34.5 -59.5t-37.5 -41.5q-39 -32 -72.5 -43t-64.5 -18q-31 -5 -59 -5.5t-54 1.5q-43 3 -80 15l-21 -24 q-9 -9 -19.5 -9t-17 6.5t-7.5 16.5t7 20l12 13q-31 19 -48 52q-14 26 -17 62zM369 279q25 1 49 3.5t48 4.5q10 1 28 -1t25 4q9 7 10 22.5t-2.5 33.5t-11 36t-16.5 32t-18 21.5t-16 4.5q-9 -4 -18.5 -19t-18.5 -34t-17.5 -37.5t-14.5 -28.5q-7 -11 -13.5 -21.5t-13.5 -20.5z " />
<glyph unicode="&#xaf;" horiz-adv-x="910" d="M118 1128.5q4 11.5 16 17t30.5 2t40.5 -20.5q15 -11 44.5 -18t67 -11t81 -4.5t86.5 0.5q102 2 221 13q13 -5 -4 -9t-54 -8t-88.5 -6.5t-108 -3.5t-112.5 -0.5t-102 3t-77 8t-36 13.5q-9 13 -5 24.5z" />
<glyph unicode="&#xb0;" horiz-adv-x="637" d="M170.5 522q4.5 55 47.5 108q11 14 25.5 27t25.5 28q3 5 9 13q8 10 17.5 12t17.5 -3.5t10.5 -15t-4.5 -21.5q-14 -17 -28.5 -30.5t-31.5 -29.5q-9 -8 -17 -18.5t-17 -19.5q-17 -34 -22.5 -66t8.5 -81q6 -1 12 -3t13 0q23 7 50 29t49.5 50.5t35.5 59.5t6 56l-43 13 q-9 6 -12.5 14.5t-1 17t10 13t19.5 3.5q13 -5 25.5 -9t25.5 -10q10 -5 17 -15q2 -11 5 -23.5t3 -24.5q0 -25 -20 -56.5t-49 -62t-61 -53t-54 -28.5q-10 -2 -20.5 -0.5t-21.5 2.5q-7 3 -12 8q-22 61 -17.5 116zM229 581q1 1 1 1.5t1 1.5zM274 692q1 1 1 2q0 -1 -1 -2z" />
<glyph unicode="&#xb1;" horiz-adv-x="744" d="M106 0q0 8 6 15.5t17 10.5q36 -2 70.5 3t68.5 13t68 17t68 15q13 -2 19.5 -9.5t6.5 -16.5t-6 -16.5t-20 -8.5q-37 2 -71 -3.5t-68 -13t-67.5 -17t-68.5 -15.5q-11 3 -17 10.5t-6 15.5zM106 282.5q0 8.5 6 15.5t17 10l96 -8t97 1q2 8 3.5 16.5t3.5 16.5q9 43 11 86t0 87 q4 11 11.5 16t16 4t15 -7t8.5 -17q-8 -52 -19 -100.5t-19 -97.5q44 8 88.5 23t87.5 29h-1q-2 0 1 1.5t6 2.5q11 3 19 -1t12 -11t2.5 -16t-10.5 -17q-30 -10 -61.5 -13.5t-63.5 -8.5q-22 -4 -42.5 -7.5t-41.5 -8.5q-9 -57 -6 -119q-2 -13 -10 -19.5t-17.5 -5.5t-16.5 8.5 t-7 20.5q4 28 9.5 55t12.5 53q-10 -2 -15 -2q-43 -5 -85 -7t-85 -5q-11 3 -17 10t-6 15.5zM539 360q3 0 4 1q2 1 0.5 0.5z" />
<glyph unicode="&#xb2;" horiz-adv-x="359" d="M7 421.5q1 7.5 9 12.5q12 6 34.5 15.5t47.5 21.5t51 26.5t47.5 31t35.5 35t15 37.5q-9 3 -27 -1t-37.5 -11.5t-34.5 -17.5t-18 -19q-6 -12 -15.5 -15t-17.5 1t-12.5 13t-0.5 21q7 18 26.5 31t43 21.5t47.5 12.5t42 4q8 1 17 -5t14 -8q5 -3 6.5 -7t2.5 -9 q-3 -30 -14 -49.5t-27 -34.5t-37 -27t-44 -25q-24 -12 -46 -25.5t-44 -25.5q18 0 39 5t42 11t39.5 12.5t30.5 8.5q11 -2 18 -8.5t8.5 -14t-2.5 -15.5t-16 -12q-24 -2 -53 -10t-58 -12.5t-57 -2.5t-51 19q-5 8 -4 15.5z" />
<glyph unicode="&#xb3;" horiz-adv-x="400" d="M65.5 564q-2.5 8 1 17t12.5 15q20 4 38.5 14.5t37 20.5t37.5 18t40 10q11 1 21 -6t16.5 -17t9 -22.5t-2.5 -21.5q-5 -14 -10 -21.5t-16 -18.5q-7 -8 -14.5 -14t-15.5 -11h3q11 1 23.5 -2t22.5 -10t14.5 -18.5t-0.5 -25.5q-6 -18 -30.5 -38.5t-54 -34.5t-59 -16.5 t-48.5 14.5q-5 5 -9 19t-6 19q0 11 5.5 18.5t13 9.5t16.5 -1.5t14 -14.5q2 -6 4 -16q12 -7 31 -3t37 14t32.5 21.5t18.5 21.5t-5.5 13t-37.5 -4q-8 -2 -16.5 -5t-17.5 -5q-8 -1 -14 6q-2 4 -2 5q-3 7 2 15q12 15 26 25.5t28 22.5q3 3 14 16.5t18 26.5t5 21t-25 -1 q-17 -7 -32.5 -17t-31 -21t-31 -20t-33.5 -14q-12 -2 -19.5 3t-10 13z" />
<glyph unicode="&#xb4;" horiz-adv-x="904" d="M123.5 1024q1.5 12 13 19.5t31.5 8t45 -11.5q17 -8 49 -6.5t71.5 10t83.5 22.5t86 34q42 19 78.5 40t63.5 40q27 18 41.5 30.5t14.5 11.5q14 5 2.5 -9.5t-44.5 -37.5q-32 -24 -80 -51t-104 -51t-113.5 -41t-106.5 -26t-82 -10.5t-40 5.5q-11 11 -9.5 23z" />
<glyph unicode="&#xb5;" horiz-adv-x="1098" d="M-90 -1451q3 34 10.5 107.5t18 172.5t23.5 215.5t27.5 237t28.5 236.5t27 214.5t24 171.5t18 106q30 137 63 267.5t83 261.5q7 9 16 11t16.5 -1t12 -11.5t2.5 -19.5q-33 -72 -60 -145t-51 -148q11 5 22.5 -0.5t14.5 -21.5v-41.5t3 -55.5t12 -52t29 -31q19 -8 46.5 -1 t54 20.5t50.5 29t39 24.5q88 55 175.5 113.5t161.5 131.5q12 12 25 27.5t25.5 31t25 29.5t26.5 25q16 10 24 -7q7 -15 6.5 -35.5t-4.5 -43t-9 -44.5t-5 -38q0 -24 -1 -48.5t1 -49.5q2 -34 7 -55t16 -29t29 -1t45 29q14 11 26.5 23t23.5 23q15 14 29.5 29t29.5 30 q10 6 19 5.5t15 -6.5t7.5 -15t-4.5 -19q-27 -25 -57.5 -53.5t-60.5 -52.5q-42 -33 -71 -39t-47 5.5t-27.5 37.5t-13 57.5t-3 66t1.5 64.5q2 31 9 60.5t11 59.5q-43 -51 -92.5 -97t-102.5 -87.5t-109 -80t-111 -75.5q-32 -22 -65.5 -41.5t-64.5 -32t-59 -15t-50.5 10.5 t-38.5 44t-23 85q-2 15 -2.5 30t-1.5 30q-12 -43 -27 -126t-30.5 -192t-31.5 -236.5t-30.5 -259t-28 -259t-24 -237.5t-16.5 -194.5t-7 -129.5q-2 -13 -10 -19.5t-17.5 -5.5t-16.5 8.5t-7 20.5z" />
<glyph unicode="&#xb6;" horiz-adv-x="828" d="M-59 236.5q4 28.5 17 58.5t33.5 58.5t44 53t47 42.5t44.5 26q12 5 31.5 7t43.5 2t52 -2t56 -5q9 13 23.5 11t20.5 -16q58 -8 105.5 -15t63.5 -10q15 -2 32 -4t34.5 -2.5t33.5 2.5t29 12q11 3 19.5 -1t12.5 -11.5t2.5 -16.5t-10.5 -16q-9 -5 -18.5 -9t-18.5 -6 q-6 -55 -9 -94t-6.5 -69t-7.5 -57t-10.5 -57.5t-16 -69t-24.5 -92.5q-31 -115 -69 -227.5t-77 -225t-75.5 -226t-62.5 -229.5q-13 -56 -21.5 -96.5t-13.5 -72t-7.5 -59t-5 -59.5t-4.5 -72.5t-5 -97.5q-2 -13 -10 -19.5t-17.5 -5.5t-16.5 8.5t-7 20.5q5 58 9 115.5t13 114.5 q24 147 66 290t90 283.5t96.5 281.5t82.5 285q13 54 21.5 92t13.5 68t7.5 55.5t5 55t4.5 67t5 91.5q-18 2 -37 5.5t-38 7.5q-10 1 -27 4t-38 7t-45 8l-48 8q-3 -34 -5 -57.5t-5 -46.5t-9 -48.5t-17 -63.5q-25 -88 -59.5 -173t-70.5 -169t-70 -169.5t-56 -174.5 q-31 -127 -46 -256.5t-20.5 -260.5t-5 -262.5t2.5 -260.5q-2 -13 -10.5 -19.5t-17.5 -5.5t-16 8t-7 21q3 131 6.5 262t13 262t27.5 260.5t48 257.5q22 90 54 176t66 171.5t66.5 172t54.5 175.5q9 38 14 63t7 45.5t2.5 44t2.5 56.5q-17 3 -32 5.5l-27 4.5q-3 0 -17 1.5 t-31.5 2.5t-34.5 0.5t-25 -4.5q-18 -9 -41 -28.5t-44.5 -45t-39.5 -54.5t-27.5 -58.5t-6.5 -57.5t22 -48q13 -14 27 -20.5t29 -9t31 -3.5t35 -3q11 -5 15 -13t2.5 -15.5t-8 -14t-17.5 -7.5q-34 6 -51.5 8.5t-30.5 6.5t-25.5 13l-37.5 27q-11 9 -14.5 25t-8.5 30 q-9 24 -5 52.5z" />
<glyph unicode="&#xb7;" horiz-adv-x="267" d="M49 205q2 17 12.5 34t23.5 33t27.5 30.5t25.5 26.5q9 6 17.5 6t14 -4t8.5 -11.5t1 -16.5q1 -2 1 -3.5t1 -3.5l-6 -25q3 -5 3 -9q-1 -8 -4 -12t-9 -8q-6 -14 -16 -26t-24 -18q-11 -4 -22 0q-10 -7 -21 -11.5t-23 0.5q-10 7 -10 18z" />
<glyph unicode="&#xb8;" horiz-adv-x="364" d="M-84 -202q-15 8 7 8t70 -3q24 -2 52.5 -3.5t60.5 -3.5q33 -1 67.5 0t67.5 6q15 3 29 9t19 11q2 2 2 3t1 2v6q1 10 -2 21q-8 16 -34 27t-53 15q-12 3 -26 3l-1 1h-1q-23 26 -28.5 32t-4 4t5 -5.5t-2.5 2.5l1 4l1 7l4 12q3 12 6 23.5t6 20.5q6 18 10.5 30t9.5 15 q14 9 25 2.5t13 -23.5t-5 -41t-28 -49q-1 -1 -1.5 -2t-1.5 -2l-2 -3q1 -1 -1.5 1.5t-5 6t-4 5t1.5 -1.5l1 -1h1l7 -3.5t7 -2.5q7 -3 15.5 -6t16.5 -6q17 -6 37 -15t34 -25q13 -15 15 -36q0 -11 -2 -21q-2 -3 -3.5 -6t-5.5 -6q-7 -6 -18.5 -11t-24.5 -8q-12 -2 -25.5 -3.5 t-27.5 -3.5q-55 -3 -106.5 -0.5t-91.5 6.5q-20 2 -36 2.5t-27 2.5q-14 1 -24 3z" />
<glyph unicode="&#xb9;" horiz-adv-x="317" d="M70 373q9 34 25 62t31 55.5t27 57t12 66.5q4 11 11.5 16.5t16 4.5t15 -7t8.5 -18q-8 -33 -23.5 -61.5t-31.5 -57t-27.5 -59t-12.5 -63.5q-2 -13 -10.5 -19.5t-17.5 -5.5t-16 8t-7 21z" />
<glyph unicode="&#xba;" horiz-adv-x="419" d="M101 451q-5 31 0 48.5t17 45.5q7 17 13.5 31t16 24.5t23 18t31.5 11.5q19 -3 24 -19q8 -2 16 -3.5t15 -6.5q26 -16 34.5 -39t5 -48.5t-18.5 -50.5t-36 -45t-47.5 -32t-53.5 -12q-13 0 -20 8.5t-11 20.5t-5.5 25t-3.5 23zM129 468q0 -11 2.5 -21.5t5.5 -20.5t4 -25 q35 0 62 21.5t41 49.5t13 54t-24 34q-7 3 -15 3t-16 2q-7 1 -16 7q-11 -6 -17 -17t-14 -27q-4 -8 -12 -17.5t-10 -17.5q-4 -14 -4 -25z" />
<glyph unicode="&#xbb;" horiz-adv-x="802" d="M23 159q-1 13 11 26.5t37 24t59 11.5q25 1 64 16.5t89 38.5q25 12 50 26.5t52 29.5q13 8 26.5 15t26.5 15l14 9l2 1q0 -11 0 -6v14.5v19.5t0 7l-1 1l-3 2l-8 4q-6 4 -12.5 7.5t-13.5 7.5q-53 32 -102 60t-87 50q-44 26 -84 46q-13 14 9.5 5t69.5 -34q24 -12 51.5 -28 t58.5 -33q15 -9 31.5 -18.5t32.5 -19.5q8 -5 17 -10.5t17 -10.5l17 -10l9 -5l4 -2l1 -1v-43t-0.5 -18t0 -2t0 5.5t-0.5 4.5t0 -6l-2 -1q-70 -42 -139 -81.5t-127.5 -70.5t-99 -49t-51.5 -15q-17 4 -18 17zM227.5 159q-1.5 13 11 26.5t37.5 24t59 11.5q25 1 64 16.5t88 38.5 q25 12 50.5 26.5t52.5 29.5q13 8 26.5 15t26.5 15l13 9l2 1q0 -11 0 -6v14.5v19.5t0 7l-1 1l-3 2l-7 4q-6 4 -12.5 7.5t-13.5 7.5q-53 32 -102 60t-87 50q-44 26 -84 46q-13 14 9.5 5t69.5 -34q24 -12 51.5 -28t58.5 -33q15 -9 31.5 -18.5t32.5 -19.5q8 -5 17 -10.5 t17 -10.5l17 -10l8 -5l5 -2l1 -1v-43t-0.5 -18t0 -2t0 5.5t-0.5 4.5t0 -6l-2 -1q-70 -42 -139 -81.5t-127.5 -70.5t-99 -49t-51.5 -15q-17 4 -18.5 17z" />
<glyph unicode="&#xbc;" horiz-adv-x="789" d="M-204.5 -369.5q0.5 3.5 14.5 17t38 37t55 57.5q62 68 144 165.5t171 208.5q58 74 117 148t114 143.5t103 130.5t86.5 107t64 75t35.5 33q24 10 27.5 -4t-10.5 -42t-44.5 -64t-75.5 -69q-32 -24 -82 -78.5t-111 -127t-129.5 -157.5t-136.5 -169q-69 -84 -132.5 -160 t-116.5 -132q-26 -29 -47 -50.5t-38 -35.5q-18 -18 -33 -30q-14 -7 -13.5 -3.5zM100 445q8 30 20 54.5t23 51.5q8 20 12.5 31.5t5.5 21t0 21t-2 33.5q4 11 11.5 16.5t16 4.5t15 -7t8.5 -18q-7 -31 -19.5 -57.5t-23.5 -55.5q-14 -39 -14.5 -62t-0.5 -38q-2 -13 -10.5 -19 t-17.5 -5t-16.5 8t-7.5 20zM419 -126q1 19 7 44.5t16.5 50.5t25 46.5t31.5 32.5q11 3 19 -1t12.5 -11t2.5 -16.5t-11 -16.5q-10 -5 -21.5 -22t-21 -37t-16.5 -38.5t-8 -26.5q17 3 34 9.5t33.5 12.5t32.5 9.5t35 0.5q7 -3 9 -8q4 -22 2.5 -46t-6.5 -49.5t-11.5 -52 t-11.5 -52.5q-1 -13 -1.5 -26t-1.5 -27q-1 -2 -1 -3.5t-1 -3.5q-2 -4 -3 -5q-2 -2 -2.5 -3.5t-2.5 -2.5q-4 -2 -7 -3q-6 -2 -13 2q-1 0 -1 1q-7 3 -11 12q-1 3 -1 10v5q-1 14 -1.5 30t-2.5 30q0 12 5 19t14 9q9 35 19 69t13 70q-18 3 -35 -6.5t-35 -20t-37 -14t-42 12.5 q-5 7 -5 16z" />
<glyph unicode="&#xbd;" horiz-adv-x="789" d="M-204.5 -369.5q0.5 3.5 14.5 17t38 37t55 57.5q62 68 144 165.5t171 208.5q58 74 117 148t114 143.5t103 130.5t86.5 107t64 75t35.5 33q24 10 27.5 -4t-10.5 -42t-44.5 -64t-75.5 -69q-32 -24 -82 -78.5t-111 -127t-129.5 -157.5t-136.5 -169q-69 -84 -132.5 -160 t-116.5 -132q-26 -29 -47 -50.5t-38 -35.5q-18 -18 -33 -30q-14 -7 -13.5 -3.5zM16 367q14 30 30 59t28 58q11 30 19 62t16 63q7 9 15.5 11.5t16 -1t12 -11.5t2.5 -19q-31 -59 -54.5 -117.5t-38.5 -125.5q-6 -12 -15 -15t-17 1t-13 13t-1 22zM351 -244q1 12 9.5 24t19 23 t15.5 16q8 8 14.5 17t13.5 18q14 17 30 32.5t30 32.5q-11 2 -22 2h-22q-11 3 -16.5 10.5t-5.5 15.5t5.5 15t16.5 10q43 -4 66 -12t28 -22t-9 -35t-46 -50q-23 -20 -43 -42.5t-42 -43.5q51 10 102 7.5t102 -0.5q125 5 249 14t249 14q13 -2 19 -9t6 -16t-6 -17t-19 -9 q-125 2 -249 0.5t-249 -4.5q-14 0 -37.5 0.5t-49 0.5t-48 -1.5t-34.5 -5.5q-13 -5 -31.5 -8.5t-32.5 3.5q-14 8 -13 20z" />
<glyph unicode="&#xbe;" horiz-adv-x="789" d="M-204.5 -369.5q0.5 3.5 14.5 17t38 37t55 57.5q62 68 144 165.5t171 208.5q58 74 117 148t114 143.5t103 130.5t86.5 107t64 75t35.5 33q24 10 27.5 -4t-10.5 -42t-44.5 -64t-75.5 -69q-32 -24 -82 -78.5t-111 -127t-129.5 -157.5t-136.5 -169q-69 -84 -132.5 -160 t-116.5 -132q-26 -29 -47 -50.5t-38 -35.5q-18 -18 -33 -30q-14 -7 -13.5 -3.5zM-18 511.5q-5 11.5 6 25.5q5 5 10.5 8.5t7.5 10.5q11 14 26.5 11t19.5 -17q31 7 60.5 12.5t56.5 -9.5q8 -6 9 -16q-4 -23 -16 -45t-28.5 -42.5t-36.5 -40t-40 -36.5q25 10 52 22.5t51.5 20 t45 7t33.5 -13.5q4 -7 2 -16q-8 -29 -24.5 -53t-36.5 -46.5t-41 -44t-40 -43.5q-10 -13 -18 -28t-18 -30q-3 -5 -8 -6.5t-9.5 -2t-7.5 -0.5h-4q-18 6 -19.5 23t13.5 24q19 29 44 54l49.5 49.5t46.5 50t36 52.5q-23 0 -48.5 -8t-51.5 -19.5t-52 -22t-49 -15.5q-11 -2 -15 6.5 t3 16.5q15 15 36.5 35.5t42.5 43.5t38.5 47t25.5 47q-15 2 -32 -2t-34 -10t-33.5 -11t-31.5 -5q-16 5 -21 16.5zM425 -68q3 14 12.5 27.5t17.5 25.5q24 37 47 74.5t30 80.5q4 12 13.5 17t18 3t15 -10.5t3.5 -21.5q-6 -25 -18 -47t-27 -42t-30 -38.5t-30 -39.5q13 8 26 18.5 t26.5 19.5t27 17t30.5 12q11 0 15 -11q9 -24 7 -54.5t-8 -63t-13.5 -65t-8.5 -57.5q-2 -13 -10.5 -19.5t-17.5 -5.5t-16.5 8.5t-7.5 20.5q4 28 12 54t15.5 52.5t14 53t9.5 54.5q-1 -1 -20.5 -14t-43.5 -28t-46 -27.5t-29 -11.5q-14 4 -14 18z" />
<glyph unicode="&#xbf;" horiz-adv-x="1208" d="M-299 -537q0 28 10 56q11 28 27 54t34 51q18 26 39 49.5t42 46.5q87 92 181 171t185 150t175.5 132t158.5 113q74 51 134 92t103 69t55 36l35 23q34 17 29 11.5t-43 -31.5l-104.5 -71.5t-155.5 -107.5q-90 -62 -196 -138.5t-223 -169.5q-58 -46 -116.5 -95t-116.5 -104 q-30 -27 -58 -55.5t-55 -57.5q-27 -30 -51.5 -61.5t-43.5 -64.5t-28 -68t4 -58q12 -25 45.5 -40t71.5 -23q39 -8 79 -10.5t81 -2.5q41 -1 81 0.5t79 4.5q80 6 156 19.5t147 33.5q72 22 136 50t122 61q115 68 194.5 147t128.5 149q50 71 74.5 119t35.5 62q29 43 32 22 q2 -11 -2 -36t-18 -61q-13 -36 -36 -77.5t-58 -86.5q-34 -45 -79 -87t-98 -78q-38 -26 -95 -61.5t-134 -70.5q-77 -36 -172 -65t-206 -44q-55 -8 -112.5 -12t-117.5 -5q-60 0 -121 3t-121 17q-29 7 -55.5 19.5t-42.5 32.5t-16 48zM1038 1094.5q-11 27.5 0 38.5t38.5 -1 t52.5 -38q27 -27 38 -54t0 -38q-11 -10 -37.5 1t-53.5 37q-27 27 -38 54.5z" />
<glyph unicode="&#xc0;" horiz-adv-x="1910" d="M-211 27q-8 7 1 30t31 49q7 8 17 19.5t29.5 32.5t52 57t84.5 93q51 57 126 140.5t179 200.5q105 117 244 270t323 348q85 90 158.5 165t139.5 140q33 33 64 61.5t60 54.5q15 12 30 23.5t31 22.5q7 5 14.5 9.5t16.5 8.5q5 2 9 3t9 0q5 0 9.5 -2.5t7.5 -5.5q13 -13 18 -29 t10 -31q3 -14 5.5 -30t4.5 -30q3 -29 5 -55.5t3 -51.5q2 -51 3 -96t0 -86q-1 -42 -2.5 -80.5t-3.5 -78t-5 -81t-7 -86.5t-9 -95.5t-13 -108.5t-18.5 -125.5t-24.5 -144.5q-15 -82 -30.5 -151.5t-33.5 -130.5q59 5 110.5 14t96.5 19q108 26 180.5 52.5t121.5 47.5 q50 23 81.5 39t54.5 29q24 13 43.5 24t43.5 25q29 17 53 22t30 -4t-10 -28.5t-46 -36.5q-9 -5 -16 -8.5l-21 -10.5q-14 -6 -40 -18t-75 -34q-49 -20 -126.5 -51t-198.5 -61q-60 -14 -131.5 -26t-156.5 -19q-3 -11 -6 -21t-6 -21q-11 -36 -23.5 -68t-28.5 -61 q-8 -14 -18 -27.5t-26 -21.5q-14 -8 -29 -12t-30 -3q-31 0 -57 12t-46 30q-22 17 -39.5 36.5t-33.5 40.5q-32 42 -59 90q-6 12 -13 24.5t-13 25.5q-2 3 -3 6.5t-3 6.5q2 2 0.5 1t-2 -1.5t1.5 2t11 12.5h1l2 -1l3 -1l7 -1l14 -4t15 -4q96 -17 181 -20t159 1q5 1 15 1q0 2 1 2 q10 42 19 84.5t17 87.5q32 177 59 380q16 130 25 224t17 170q5 76 9 141t5 137q0 36 -0.5 74.5t-5.5 81.5q-3 20 -7 43.5t-14 42.5q-5 11 -11 15q-1 1 -4 1l-8 -2q-10 -5 -22 -12.5t-23 -15.5q-46 -35 -96.5 -81.5t-107.5 -102.5q-113 -113 -258 -271q-148 -162 -267.5 -297 t-216.5 -246q-98 -112 -173.5 -200.5t-134.5 -157.5q-58 -69 -99.5 -118t-69.5 -82.5t-44 -53t-22 -26.5q-23 -26 -44.5 -39t-29.5 -5zM911 258q2 -3 4.5 -6.5t4.5 -7.5q7 -14 14.5 -28t16.5 -29q17 -28 37.5 -55t43.5 -51q24 -24 54 -43.5t64 -20.5q18 0 33 6l15 6 q2 2 3.5 2.5t3.5 2.5q4 2 6 4q11 10 20 27t17 34q12 30 22.5 63t18.5 67q-82 -4 -174 0t-196 28q-2 0 -4 0.5t-4 0.5zM1368 2328q3 13 13 20.5t20 5.5t19 -13.5t11 -33.5q1 -16 15 -35.5t35 -39.5t48 -39t57 -35t58 -27.5t51 -16.5q11 -3 21 -4.5t17 -2.5q8 -1 14 0 q11 -5 -3.5 -8.5t-44.5 1.5t-67.5 21t-75.5 38q-38 23 -73 48.5t-61 49.5t-41 43t-13 28z" />
<glyph unicode="&#xc1;" horiz-adv-x="1910" d="M-211 27q-8 7 1 30t31 49q7 8 17 19.5t29.5 32.5t52 57t84.5 93q51 57 126 140.5t179 200.5q105 117 244 270t323 348q85 90 158.5 165t139.5 140q33 33 64 61.5t60 54.5q15 12 30 23.5t31 22.5q7 5 14.5 9.5t16.5 8.5q5 2 9 3t9 0q5 0 9.5 -2.5t7.5 -5.5q13 -13 18 -29 t10 -31q3 -14 5.5 -30t4.5 -30q3 -29 5 -55.5t3 -51.5q2 -51 3 -96t0 -86q-1 -42 -2.5 -80.5t-3.5 -78t-5 -81t-7 -86.5t-9 -95.5t-13 -108.5t-18.5 -125.5t-24.5 -144.5q-15 -82 -30.5 -151.5t-33.5 -130.5q59 5 110.5 14t96.5 19q108 26 180.5 52.5t121.5 47.5 q50 23 81.5 39t54.5 29q24 13 43.5 24t43.5 25q29 17 53 22t30 -4t-10 -28.5t-46 -36.5q-9 -5 -16 -8.5l-21 -10.5q-14 -6 -40 -18t-75 -34q-49 -20 -126.5 -51t-198.5 -61q-60 -14 -131.5 -26t-156.5 -19q-3 -11 -6 -21t-6 -21q-11 -36 -23.5 -68t-28.5 -61 q-8 -14 -18 -27.5t-26 -21.5q-14 -8 -29 -12t-30 -3q-31 0 -57 12t-46 30q-22 17 -39.5 36.5t-33.5 40.5q-32 42 -59 90q-6 12 -13 24.5t-13 25.5q-2 3 -3 6.5t-3 6.5q2 2 0.5 1t-2 -1.5t1.5 2t11 12.5h1l2 -1l3 -1l7 -1l14 -4t15 -4q96 -17 181 -20t159 1q5 1 15 1q0 2 1 2 q10 42 19 84.5t17 87.5q32 177 59 380q16 130 25 224t17 170q5 76 9 141t5 137q0 36 -0.5 74.5t-5.5 81.5q-3 20 -7 43.5t-14 42.5q-5 11 -11 15q-1 1 -4 1l-8 -2q-10 -5 -22 -12.5t-23 -15.5q-46 -35 -96.5 -81.5t-107.5 -102.5q-113 -113 -258 -271q-148 -162 -267.5 -297 t-216.5 -246q-98 -112 -173.5 -200.5t-134.5 -157.5q-58 -69 -99.5 -118t-69.5 -82.5t-44 -53t-22 -26.5q-23 -26 -44.5 -39t-29.5 -5zM911 258q2 -3 4.5 -6.5t4.5 -7.5q7 -14 14.5 -28t16.5 -29q17 -28 37.5 -55t43.5 -51q24 -24 54 -43.5t64 -20.5q18 0 33 6l15 6 q2 2 3.5 2.5t3.5 2.5q4 2 6 4q11 10 20 27t17 34q12 30 22.5 63t18.5 67q-82 -4 -174 0t-196 28q-2 0 -4 0.5t-4 0.5zM1263.5 2150q1.5 12 13 19.5t31.5 8t45 -11.5q17 -8 49 -6.5t71.5 10t83.5 22.5t86 34q42 19 78.5 40t63.5 40q27 18 41.5 30.5t14.5 11.5q14 5 2.5 -9.5 t-44.5 -37.5q-32 -24 -80 -51t-104 -51t-113.5 -41t-106.5 -26t-82 -10.5t-40 5.5q-11 11 -9.5 23z" />
<glyph unicode="&#xc2;" horiz-adv-x="1910" d="M-211 27q-8 7 1 30t31 49q7 8 17 19.5t29.5 32.5t52 57t84.5 93q51 57 126 140.5t179 200.5q105 117 244 270t323 348q85 90 158.5 165t139.5 140q33 33 64 61.5t60 54.5q15 12 30 23.5t31 22.5q7 5 14.5 9.5t16.5 8.5q5 2 9 3t9 0q5 0 9.5 -2.5t7.5 -5.5q13 -13 18 -29 t10 -31q3 -14 5.5 -30t4.5 -30q3 -29 5 -55.5t3 -51.5q2 -51 3 -96t0 -86q-1 -42 -2.5 -80.5t-3.5 -78t-5 -81t-7 -86.5t-9 -95.5t-13 -108.5t-18.5 -125.5t-24.5 -144.5q-15 -82 -30.5 -151.5t-33.5 -130.5q59 5 110.5 14t96.5 19q108 26 180.5 52.5t121.5 47.5 q50 23 81.5 39t54.5 29q24 13 43.5 24t43.5 25q29 17 53 22t30 -4t-10 -28.5t-46 -36.5q-9 -5 -16 -8.5l-21 -10.5q-14 -6 -40 -18t-75 -34q-49 -20 -126.5 -51t-198.5 -61q-60 -14 -131.5 -26t-156.5 -19q-3 -11 -6 -21t-6 -21q-11 -36 -23.5 -68t-28.5 -61 q-8 -14 -18 -27.5t-26 -21.5q-14 -8 -29 -12t-30 -3q-31 0 -57 12t-46 30q-22 17 -39.5 36.5t-33.5 40.5q-32 42 -59 90q-6 12 -13 24.5t-13 25.5q-2 3 -3 6.5t-3 6.5q2 2 0.5 1t-2 -1.5t1.5 2t11 12.5h1l2 -1l3 -1l7 -1l14 -4t15 -4q96 -17 181 -20t159 1q5 1 15 1q0 2 1 2 q10 42 19 84.5t17 87.5q32 177 59 380q16 130 25 224t17 170q5 76 9 141t5 137q0 36 -0.5 74.5t-5.5 81.5q-3 20 -7 43.5t-14 42.5q-5 11 -11 15q-1 1 -4 1l-8 -2q-10 -5 -22 -12.5t-23 -15.5q-46 -35 -96.5 -81.5t-107.5 -102.5q-113 -113 -258 -271q-148 -162 -267.5 -297 t-216.5 -246q-98 -112 -173.5 -200.5t-134.5 -157.5q-58 -69 -99.5 -118t-69.5 -82.5t-44 -53t-22 -26.5q-23 -26 -44.5 -39t-29.5 -5zM911 258q2 -3 4.5 -6.5t4.5 -7.5q7 -14 14.5 -28t16.5 -29q17 -28 37.5 -55t43.5 -51q24 -24 54 -43.5t64 -20.5q18 0 33 6l15 6 q2 2 3.5 2.5t3.5 2.5q4 2 6 4q11 10 20 27t17 34q12 30 22.5 63t18.5 67q-82 -4 -174 0t-196 28q-2 0 -4 0.5t-4 0.5zM1189 2101.5q-1 12.5 11 24.5t35 20t55 6q23 -2 59 9.5t81 31.5q23 10 46.5 21.5t47.5 25.5q12 7 24 14.5t24 15.5q6 4 12.5 8t12.5 9q2 2 5 4.5t7 6.5 l2 3h-1q-1 -1 -4 -1q-2 1 2 -2t9 -7q5 -3 8.5 -7.5t8.5 -9.5q8 -9 15.5 -19t15.5 -20q14 -20 26.5 -38.5t22.5 -36.5q10 -16 18 -29.5t15 -22.5q7 -11 12 -20q3 -17 -10.5 0t-38.5 56q-13 20 -28.5 43t-34.5 49q-9 12 -18.5 24.5t-20.5 21.5q-2 2 -4.5 3t-2.5 2q-1 0 0 -0.5 t3 -0.5q6 -2 14 3q1 0 3 2l1 1l-5 -5q-3 -4 -10 -8q-4 -4 -8 -7l-8 -6q-32 -23 -63.5 -41t-63.5 -35t-61.5 -32t-57.5 -27q-54 -25 -91.5 -38.5t-47.5 -9.5q-16 6 -17 18.5z" />
<glyph unicode="&#xc3;" horiz-adv-x="1910" d="M-211 27q-8 7 1 30t31 49q7 8 17 19.5t29.5 32.5t52 57t84.5 93q51 57 126 140.5t179 200.5q105 117 244 270t323 348q85 90 158.5 165t139.5 140q33 33 64 61.5t60 54.5q15 12 30 23.5t31 22.5q7 5 14.5 9.5t16.5 8.5q5 2 9 3t9 0q5 0 9.5 -2.5t7.5 -5.5q13 -13 18 -29 t10 -31q3 -14 5.5 -30t4.5 -30q3 -29 5 -55.5t3 -51.5q2 -51 3 -96t0 -86q-1 -42 -2.5 -80.5t-3.5 -78t-5 -81t-7 -86.5t-9 -95.5t-13 -108.5t-18.5 -125.5t-24.5 -144.5q-15 -82 -30.5 -151.5t-33.5 -130.5q59 5 110.5 14t96.5 19q108 26 180.5 52.5t121.5 47.5 q50 23 81.5 39t54.5 29q24 13 43.5 24t43.5 25q29 17 53 22t30 -4t-10 -28.5t-46 -36.5q-9 -5 -16 -8.5l-21 -10.5q-14 -6 -40 -18t-75 -34q-49 -20 -126.5 -51t-198.5 -61q-60 -14 -131.5 -26t-156.5 -19q-3 -11 -6 -21t-6 -21q-11 -36 -23.5 -68t-28.5 -61 q-8 -14 -18 -27.5t-26 -21.5q-14 -8 -29 -12t-30 -3q-31 0 -57 12t-46 30q-22 17 -39.5 36.5t-33.5 40.5q-32 42 -59 90q-6 12 -13 24.5t-13 25.5q-2 3 -3 6.5t-3 6.5q2 2 0.5 1t-2 -1.5t1.5 2t11 12.5h1l2 -1l3 -1l7 -1l14 -4t15 -4q96 -17 181 -20t159 1q5 1 15 1q0 2 1 2 q10 42 19 84.5t17 87.5q32 177 59 380q16 130 25 224t17 170q5 76 9 141t5 137q0 36 -0.5 74.5t-5.5 81.5q-3 20 -7 43.5t-14 42.5q-5 11 -11 15q-1 1 -4 1l-8 -2q-10 -5 -22 -12.5t-23 -15.5q-46 -35 -96.5 -81.5t-107.5 -102.5q-113 -113 -258 -271q-148 -162 -267.5 -297 t-216.5 -246q-98 -112 -173.5 -200.5t-134.5 -157.5q-58 -69 -99.5 -118t-69.5 -82.5t-44 -53t-22 -26.5q-23 -26 -44.5 -39t-29.5 -5zM911 258q2 -3 4.5 -6.5t4.5 -7.5q7 -14 14.5 -28t16.5 -29q17 -28 37.5 -55t43.5 -51q24 -24 54 -43.5t64 -20.5q18 0 33 6l15 6 q2 2 3.5 2.5t3.5 2.5q4 2 6 4q11 10 20 27t17 34q12 30 22.5 63t18.5 67q-82 -4 -174 0t-196 28q-2 0 -4 0.5t-4 0.5zM1185 2244.5q-7 10.5 1 31.5q8 18 32 39t61 29q13 2 30 7t38 8q20 4 44 1t46 -16q24 -15 42 -35q24 -26 57 -41q33 -14 67.5 -19.5t68.5 -3.5q69 5 127 23 t101 37q42 18 67 31q13 8 24 14q10 2 10 -1t-10.5 -10.5t-29 -17.5t-43.5 -23q-27 -11 -59 -23t-70 -24q-38 -10 -81 -16t-90 -2q-24 2 -47.5 7.5t-47.5 17.5q-25 11 -42 27q-3 2 -5.5 4t-4.5 4q-1 2 -2 2.5t-2 1.5l-3 4q-3 4 -6.5 6.5t-6.5 5.5q-27 22 -55.5 24.5 t-55.5 -8.5t-49 -27.5t-38 -30.5t-27 -22.5t-16 -10.5q-18 -4 -25 6.5z" />
<glyph unicode="&#xc4;" horiz-adv-x="1910" d="M-211 27q-8 7 1 30t31 49q7 8 17 19.5t29.5 32.5t52 57t84.5 93q51 57 126 140.5t179 200.5q105 117 244 270t323 348q85 90 158.5 165t139.5 140q33 33 64 61.5t60 54.5q15 12 30 23.5t31 22.5q7 5 14.5 9.5t16.5 8.5q5 2 9 3t9 0q5 0 9.5 -2.5t7.5 -5.5q13 -13 18 -29 t10 -31q3 -14 5.5 -30t4.5 -30q3 -29 5 -55.5t3 -51.5q2 -51 3 -96t0 -86q-1 -42 -2.5 -80.5t-3.5 -78t-5 -81t-7 -86.5t-9 -95.5t-13 -108.5t-18.5 -125.5t-24.5 -144.5q-15 -82 -30.5 -151.5t-33.5 -130.5q59 5 110.5 14t96.5 19q108 26 180.5 52.5t121.5 47.5 q50 23 81.5 39t54.5 29q24 13 43.5 24t43.5 25q29 17 53 22t30 -4t-10 -28.5t-46 -36.5q-9 -5 -16 -8.5l-21 -10.5q-14 -6 -40 -18t-75 -34q-49 -20 -126.5 -51t-198.5 -61q-60 -14 -131.5 -26t-156.5 -19q-3 -11 -6 -21t-6 -21q-11 -36 -23.5 -68t-28.5 -61 q-8 -14 -18 -27.5t-26 -21.5q-14 -8 -29 -12t-30 -3q-31 0 -57 12t-46 30q-22 17 -39.5 36.5t-33.5 40.5q-32 42 -59 90q-6 12 -13 24.5t-13 25.5q-2 3 -3 6.5t-3 6.5q2 2 0.5 1t-2 -1.5t1.5 2t11 12.5h1l2 -1l3 -1l7 -1l14 -4t15 -4q96 -17 181 -20t159 1q5 1 15 1q0 2 1 2 q10 42 19 84.5t17 87.5q32 177 59 380q16 130 25 224t17 170q5 76 9 141t5 137q0 36 -0.5 74.5t-5.5 81.5q-3 20 -7 43.5t-14 42.5q-5 11 -11 15q-1 1 -4 1l-8 -2q-10 -5 -22 -12.5t-23 -15.5q-46 -35 -96.5 -81.5t-107.5 -102.5q-113 -113 -258 -271q-148 -162 -267.5 -297 t-216.5 -246q-98 -112 -173.5 -200.5t-134.5 -157.5q-58 -69 -99.5 -118t-69.5 -82.5t-44 -53t-22 -26.5q-23 -26 -44.5 -39t-29.5 -5zM911 258q2 -3 4.5 -6.5t4.5 -7.5q7 -14 14.5 -28t16.5 -29q17 -28 37.5 -55t43.5 -51q24 -24 54 -43.5t64 -20.5q18 0 33 6l15 6 q2 2 3.5 2.5t3.5 2.5q4 2 6 4q11 10 20 27t17 34q12 30 22.5 63t18.5 67q-82 -4 -174 0t-196 28q-2 0 -4 0.5t-4 0.5zM1223 2098q0 3 10.5 10t29 17.5t43.5 22.5q27 11 55 29t67 29q12 3 29.5 14t35.5 22t34.5 21.5t28 13t16.5 -5t-2 -31.5q-1 -4 10.5 -10.5t30.5 -15 t42 -17.5t46 -19.5t43 -21.5t31 -22q27 -22 55.5 -25t55.5 8t48.5 27.5t38.5 31.5q8 7 20.5 18.5t24 23t21 20t12.5 9.5q18 4 24.5 -6.5t-1.5 -31.5q-4 -9 -17.5 -25.5t-31.5 -33t-38.5 -30.5t-39.5 -17q-13 -2 -30 -7t-38 -8q-20 -4 -44 -1t-47 16q-20 13 -50.5 29 t-63.5 32t-63.5 31.5t-51.5 29.5q-32 -10 -64 -21t-63 -21.5t-58 -21t-48 -19.5q-22 -9 -39 -17.5t-28 -14.5q-13 -7 -24 -13q-10 -2 -10 1z" />
<glyph unicode="&#xc5;" horiz-adv-x="1910" d="M-211 27q-8 7 1 30t31 49q7 8 17 19.5t29.5 32.5t52 57t84.5 93q51 57 126 140.5t179 200.5q105 117 244 270t323 348q85 90 158.5 165t139.5 140q33 33 64 61.5t60 54.5q15 12 30 23.5t31 22.5q7 5 14.5 9.5t16.5 8.5q5 2 9 3t9 0q5 0 9.5 -2.5t7.5 -5.5q13 -13 18 -29 t10 -31q3 -14 5.5 -30t4.5 -30q3 -29 5 -55.5t3 -51.5q2 -51 3 -96t0 -86q-1 -42 -2.5 -80.5t-3.5 -78t-5 -81t-7 -86.5t-9 -95.5t-13 -108.5t-18.5 -125.5t-24.5 -144.5q-15 -82 -30.5 -151.5t-33.5 -130.5q59 5 110.5 14t96.5 19q108 26 180.5 52.5t121.5 47.5 q50 23 81.5 39t54.5 29q24 13 43.5 24t43.5 25q29 17 53 22t30 -4t-10 -28.5t-46 -36.5q-9 -5 -16 -8.5l-21 -10.5q-14 -6 -40 -18t-75 -34q-49 -20 -126.5 -51t-198.5 -61q-60 -14 -131.5 -26t-156.5 -19q-3 -11 -6 -21t-6 -21q-11 -36 -23.5 -68t-28.5 -61 q-8 -14 -18 -27.5t-26 -21.5q-14 -8 -29 -12t-30 -3q-31 0 -57 12t-46 30q-22 17 -39.5 36.5t-33.5 40.5q-32 42 -59 90q-6 12 -13 24.5t-13 25.5q-2 3 -3 6.5t-3 6.5q2 2 0.5 1t-2 -1.5t1.5 2t11 12.5h1l2 -1l3 -1l7 -1l14 -4t15 -4q96 -17 181 -20t159 1q5 1 15 1q0 2 1 2 q10 42 19 84.5t17 87.5q32 177 59 380q16 130 25 224t17 170q5 76 9 141t5 137q0 36 -0.5 74.5t-5.5 81.5q-3 20 -7 43.5t-14 42.5q-5 11 -11 15q-1 1 -4 1l-8 -2q-10 -5 -22 -12.5t-23 -15.5q-46 -35 -96.5 -81.5t-107.5 -102.5q-113 -113 -258 -271q-148 -162 -267.5 -297 t-216.5 -246q-98 -112 -173.5 -200.5t-134.5 -157.5q-58 -69 -99.5 -118t-69.5 -82.5t-44 -53t-22 -26.5q-23 -26 -44.5 -39t-29.5 -5zM911 258q2 -3 4.5 -6.5t4.5 -7.5q7 -14 14.5 -28t16.5 -29q17 -28 37.5 -55t43.5 -51q24 -24 54 -43.5t64 -20.5q18 0 33 6l15 6 q2 2 3.5 2.5t3.5 2.5q4 2 6 4q11 10 20 27t17 34q12 30 22.5 63t18.5 67q-82 -4 -174 0t-196 28q-2 0 -4 0.5t-4 0.5zM1342 2179q0 17 4 29t9 20q9 16 15 17q10 5 16.5 3t9.5 -7q5 -8 5 -28q-1 -8 -2 -17t-1 -17t3.5 -19.5t14.5 -26.5q14 -24 66 -39q49 -13 118 -16 q34 0 70 6q18 3 37.5 9.5t37.5 18.5q20 13 31 36q5 11 6.5 24t-0.5 24q-2 12 -6 23q-2 6 -4 10q-1 1 -3 5l-1 1v1l-1 1t-1 2l-2 2q-6 8 -13 14.5t-15 13.5q-29 27 -61.5 46t-67.5 30q-36 10 -69 6.5t-60 -15.5q-26 -11 -42.5 -25t-28.5 -25q-5 -6 -9.5 -10.5t-6.5 -7.5 q-4 -4 -5 -6q-9 -7 -9.5 -3.5t7.5 14.5t25 30.5t48 36.5q15 8 34.5 15t41.5 9q46 5 93 -12q45 -15 87 -47q11 -8 20.5 -16.5t19.5 -16.5l9.5 -9.5t9.5 -10.5q8 -9 11 -16t7 -15q5 -15 6.5 -34t-5.5 -37q-6 -18 -18 -32t-26 -22q-28 -17 -54.5 -23t-51.5 -10q-26 -2 -50 -2.5 t-48 0.5q-48 2 -89 12q-22 5 -41 13.5t-36 22.5t-26 33t-9 37z" />
<glyph unicode="&#xc6;" horiz-adv-x="2446" d="M-211 27q-8 7 1 30t31 49q7 8 17 19.5t29.5 32.5t52 57t84.5 93q51 57 126 140.5t179 200.5q105 117 244 270t323 348q85 90 158.5 165t139.5 140q33 33 64 61.5t60 54.5q15 12 30 23.5t31 22.5q7 5 14.5 9.5t16.5 8.5q5 2 9 3t9 0q5 0 9.5 -2.5t7.5 -5.5q13 -13 18 -29 t10 -31q3 -14 5.5 -30t4.5 -30q3 -29 5 -55.5t3 -51.5q2 -51 3 -96t0 -86q-1 -42 -2.5 -80.5t-3.5 -78t-5 -81t-7 -86.5t-9 -95.5t-13 -108.5t-18.5 -125.5t-24.5 -144.5q-15 -82 -30.5 -151.5t-33.5 -130.5l-6 -25q-3 -11 -6 -21t-6 -21q-11 -36 -23.5 -68t-28.5 -61 q-8 -14 -18 -27.5t-26 -21.5q-14 -8 -29 -12t-30 -3q-31 0 -57 12t-46 30q-22 17 -39.5 36.5t-33.5 40.5q-32 42 -59 90q-6 12 -13 24.5t-13 25.5q-2 3 -3 6.5t-3 6.5q2 2 0.5 1t-2 -1.5t1.5 2t11 12.5h1l2 -1l3 -1l7 -1l14 -4t15 -4q96 -17 181 -20t159 1q5 1 15 1q0 2 1 2 q10 42 19 84.5t17 87.5q32 177 59 380q16 130 25 224t17 170q5 76 9 141t5 137q0 36 -0.5 74.5t-5.5 81.5q-3 20 -7 43.5t-14 42.5q-5 11 -11 15q-1 1 -4 1l-8 -2q-10 -5 -22 -12.5t-23 -15.5q-46 -35 -96.5 -81.5t-107.5 -102.5q-113 -113 -258 -271q-148 -162 -267.5 -297 t-216.5 -246q-98 -112 -173.5 -200.5t-134.5 -157.5q-58 -69 -99.5 -118t-69.5 -82.5t-44 -53t-22 -26.5q-23 -26 -44.5 -39t-29.5 -5zM911 258q2 -3 4.5 -6.5t4.5 -7.5q7 -14 14.5 -28t16.5 -29q17 -28 37.5 -55t43.5 -51q24 -24 54 -43.5t64 -20.5q18 0 33 6l15 6 q2 2 3.5 2.5t3.5 2.5q4 2 6 4q11 10 20 27t17 34q12 30 22.5 63t18.5 67q-82 -4 -174 0t-196 28q-2 0 -4 0.5t-4 0.5zM1198 526q-18 68 1 153q16 82 68 179q27 49 61.5 102.5t81.5 111.5t107 119t139 124q80 62 161 107.5t168 64.5q22 5 42.5 6.5t40.5 1.5q41 1 81 -3 q19 -3 39 -8t37 -15q17 -9 32.5 -23.5t24.5 -33.5q9 -17 12.5 -36t2.5 -37q0 -17 -2.5 -34t-6.5 -32q-8 -31 -19 -58.5t-22 -52.5q-24 -50 -47 -92t-43 -78q-42 -72 -73 -122t-51 -85q-20 -34 -31.5 -53t-16.5 -27q-15 -27 -33 -42t-28 -10t-6 29t19 50q5 9 13 20.5t23 34 t39 59t63 95.5q19 30 41.5 66t49.5 82q26 44 52 98q13 28 24.5 58t18.5 65q3 16 4 33.5t-4 34.5q-6 36 -39 58q-32 22 -77 27q-44 6 -90 5q-47 0 -95 -12.5t-97 -36.5q-49 -23 -97.5 -53t-97.5 -67q-90 -70 -156.5 -139.5t-117.5 -136.5q-52 -68 -87 -129t-58 -120 q-23 -57 -31.5 -109t-2.5 -97q6 -46 27.5 -79.5t49.5 -55.5q30 -23 62 -35t67 -19q35 -8 71.5 -11t77.5 -3t86.5 2.5t98.5 9.5q7 1 13.5 1.5t13.5 1.5l49 15q20 5 41.5 10.5t43.5 10.5q11 2 21.5 3.5t21.5 3.5l11 2q8 3 18 -1t14.5 -12t0.5 -18t-24 -20h-2l-2 -1l-5 -1 l-22 -5q-43 -9 -88 -17.5t-94 -14.5l-21 -3q-57 -20 -106 -45q-120 -60 -186 -140q-16 -19 -28 -40t-15 -44q-2 -24 10 -38q6 -8 15.5 -14t20.5 -9q22 -6 45.5 -6.5t47.5 1.5q25 2 50 7t52 12q43 11 83 25t76 28t70.5 27.5t66.5 27.5q62 27 115 52.5t98 48.5 q90 47 150.5 84.5t102.5 65.5q41 28 67.5 47t46 34t35.5 27.5t37 27.5q25 18 46 26t29 0t-4.5 -29t-37.5 -40q-8 -6 -13.5 -9.5t-17 -11.5t-34 -21.5t-63.5 -40.5q-42 -27 -107 -65.5t-167 -91.5q-51 -27 -111.5 -55.5t-132.5 -58.5q-37 -14 -76.5 -30t-82.5 -32 q-43 -15 -89 -30.5t-99 -27.5q-28 -6 -57 -11t-60 -7q-15 0 -31 0.5t-33 5.5q-16 5 -32.5 13.5t-26.5 26.5q-10 17 -8.5 36.5t7.5 36.5q11 34 36 63q23 30 49.5 54.5t57.5 46.5q49 35 108 65q-78 -4 -140.5 2t-114.5 21q-73 20 -123 64q-53 44 -73 115z" />
<glyph unicode="&#xc7;" horiz-adv-x="1613" d="M140.5 299q1.5 42 9.5 85q7 43 18 85t27 85q19 54 38.5 99t38.5 83t37 70.5t34 60.5q33 56 63.5 104.5t66.5 99.5q36 52 80.5 112t109.5 140q33 40 71 84.5t87 95.5q24 26 51 52t58 53q15 13 32 26l34 26q18 12 39 24t44 20q6 2 13 3l14 2t12.5 0.5t11.5 -0.5q24 0 48 -3 q24 -4 46 -11t43 -20q20 -12 36 -30t26 -38t15.5 -41.5t7.5 -41.5q4 -42 -0.5 -80t-13.5 -74q-8 -36 -17 -68t-21 -63q-23 -61 -45.5 -113t-45.5 -98t-43.5 -85.5t-40.5 -73.5q-38 -68 -66.5 -115.5t-48.5 -80t-32 -50.5t-16 -25q-16 -25 -35 -37.5t-28 -5.5t-4 28t21 45 q5 8 13 18t22.5 30t37.5 54.5t59 90.5q35 56 83.5 138.5t103.5 205.5q14 30 27.5 64t25.5 70t22.5 76.5t14.5 84.5q2 22 2 44.5t-5 44.5q-4 24 -13.5 45.5t-26.5 38.5t-39.5 29t-49.5 18q-12 3 -25.5 5t-27.5 3q-7 1 -14 1h-14q-6 0 -12.5 -1t-14.5 -4q-25 -8 -46 -20.5 t-42 -27.5q-20 -14 -38.5 -29t-35.5 -30q-34 -30 -64.5 -60t-56.5 -59q-53 -58 -95.5 -110t-77.5 -99q-35 -46 -63 -86.5t-52 -76.5t-43.5 -69t-37.5 -64q-36 -61 -66 -119.5t-63 -127.5q-16 -35 -33 -74.5t-34 -86.5t-33 -102.5t-24 -121.5q-4 -45 -0.5 -85t18.5 -74 q13 -35 35.5 -59.5t49.5 -40.5t55 -24t54 -12q27 -4 52.5 -5.5t49.5 -0.5q49 2 93 9t88 16q85 18 182 50q80 26 148.5 52t128.5 51q60 26 110 48.5t93 43.5q87 41 146 71.5t101 53.5q41 23 68 38t47 26t37 21t39 21q26 14 47.5 17t26.5 -8q5 -10 -8.5 -26.5t-40.5 -30.5 q-8 -4 -13.5 -6.5t-17.5 -7.5t-34.5 -15.5t-63.5 -29.5q-42 -20 -106 -50.5t-161 -75.5q-49 -22 -106.5 -47t-126.5 -54q-70 -28 -149 -57.5t-174 -57.5q-51 -15 -106 -30t-116 -27q-60 -11 -126.5 -16.5t-139.5 6.5q-36 7 -71.5 22t-65.5 43q-31 28 -49.5 65.5t-26.5 79.5 t-6.5 84zM182 -231q-15 8 7 8t70 -3q24 -2 52.5 -3.5t60.5 -3.5q33 -1 67.5 0t67.5 6q15 3 29 9t19 11q2 2 2 3t1 2v6q1 10 -2 21q-8 16 -34 27t-53 15q-12 3 -26 3l-1 1h-1q-23 26 -28.5 32t-4 4t5 -5.5t-2.5 2.5l1 4l1 7l4 12q3 12 6 23.5t6 20.5q6 18 10.5 30t9.5 15 q14 9 25 2.5t13 -23.5t-5 -41t-28 -49q-1 -1 -1.5 -2t-1.5 -2l-2 -3q1 -1 -1.5 1.5t-5 6t-4 5t1.5 -1.5l1 -1h1l7 -3.5t7 -2.5q7 -3 15.5 -6t16.5 -6q17 -6 37 -15t34 -25q13 -15 15 -36q0 -11 -2 -21q-2 -3 -3.5 -6t-5.5 -6q-7 -6 -18.5 -11t-24.5 -8q-12 -2 -25.5 -3.5 t-27.5 -3.5q-55 -3 -106.5 -0.5t-91.5 6.5q-20 2 -36 2.5t-27 2.5q-14 1 -24 3z" />
<glyph unicode="&#xc8;" horiz-adv-x="1285" d="M47 526q-18 68 1 153q16 82 68 179q27 49 61.5 102.5t81.5 111.5t107 119t139 124q80 62 161.5 107.5t167.5 64.5q22 5 42.5 6.5t41.5 1.5q41 1 80 -3q19 -3 39 -8t37 -15q17 -9 32.5 -23.5t25.5 -33.5q9 -17 12 -36t2 -37q0 -17 -2.5 -34t-6.5 -32q-8 -31 -19 -58.5 t-22 -52.5q-24 -50 -47 -92t-43 -78q-42 -72 -73 -122t-51 -85q-20 -34 -31.5 -53t-16.5 -27q-15 -27 -33 -42t-28 -10t-6 29t19 50q5 9 13 20.5t23 34t39 59t63 95.5q19 30 41.5 66t49.5 82q26 44 52 98q13 28 24.5 58t18.5 65q3 16 4 33.5t-4 34.5q-6 36 -39 58 q-32 22 -77 27q-44 6 -90 5q-47 0 -95 -12.5t-97 -36.5q-49 -23 -97.5 -53t-97.5 -67q-90 -70 -156.5 -139.5t-117.5 -136.5q-52 -68 -87 -129t-58 -120q-23 -57 -31.5 -109t-1.5 -97q6 -46 27 -79.5t49 -55.5q30 -23 62.5 -35t66.5 -19q35 -8 71.5 -11t77.5 -3t86.5 2.5 t98.5 9.5q7 1 13.5 1.5t13.5 1.5l49 15q20 5 41.5 10.5t43.5 10.5q11 2 21.5 3.5t21.5 3.5l11 2q8 3 18 -1t14.5 -12t0.5 -18t-24 -20h-2l-2 -1l-5 -1l-22 -5q-43 -9 -88 -17.5t-94 -14.5l-21 -3q-57 -20 -106 -45q-120 -60 -186 -140q-16 -19 -28 -40t-15 -44 q-2 -24 10 -38q6 -8 15.5 -14t20.5 -9q22 -6 45.5 -6.5t47.5 1.5q25 2 50 7t52 12q43 11 83 25t76 28t70.5 27.5t66.5 27.5q62 27 115 52.5t98 48.5q90 47 150.5 84.5t102.5 65.5q41 28 67.5 47t46 34t35.5 27.5t37 27.5q25 18 46 26t29 0t-4.5 -29t-37.5 -40 q-8 -6 -13.5 -9.5t-17 -11.5t-34 -21.5t-63.5 -40.5q-42 -27 -107 -65.5t-167 -91.5q-51 -27 -111.5 -55.5t-132.5 -58.5q-37 -14 -76.5 -30t-82.5 -32q-43 -15 -89 -30.5t-99 -27.5q-28 -6 -57 -11t-60 -7q-15 0 -31 0.5t-33 5.5q-16 5 -32.5 13.5t-26.5 26.5 q-10 17 -8.5 36.5t7.5 36.5q11 34 36 63q23 30 49.5 54.5t57.5 46.5q49 35 108 65q-78 -4 -140.5 2t-114.5 21q-73 20 -123 64q-53 44 -73 115zM818 2124q3 13 13 20.5t20 5.5t19 -13.5t11 -33.5q1 -16 15 -35.5t35 -39.5t48 -39t57 -35t58 -27.5t51 -16.5q11 -3 21 -4.5 t17 -2.5q8 -1 14 0q11 -5 -3.5 -8.5t-44.5 1.5t-67.5 21t-75.5 38q-38 23 -73 48.5t-61 49.5t-41 43t-13 28z" />
<glyph unicode="&#xc9;" horiz-adv-x="1285" d="M47 526q-18 68 1 153q16 82 68 179q27 49 61.5 102.5t81.5 111.5t107 119t139 124q80 62 161.5 107.5t167.5 64.5q22 5 42.5 6.5t41.5 1.5q41 1 80 -3q19 -3 39 -8t37 -15q17 -9 32.5 -23.5t25.5 -33.5q9 -17 12 -36t2 -37q0 -17 -2.5 -34t-6.5 -32q-8 -31 -19 -58.5 t-22 -52.5q-24 -50 -47 -92t-43 -78q-42 -72 -73 -122t-51 -85q-20 -34 -31.5 -53t-16.5 -27q-15 -27 -33 -42t-28 -10t-6 29t19 50q5 9 13 20.5t23 34t39 59t63 95.5q19 30 41.5 66t49.5 82q26 44 52 98q13 28 24.5 58t18.5 65q3 16 4 33.5t-4 34.5q-6 36 -39 58 q-32 22 -77 27q-44 6 -90 5q-47 0 -95 -12.5t-97 -36.5q-49 -23 -97.5 -53t-97.5 -67q-90 -70 -156.5 -139.5t-117.5 -136.5q-52 -68 -87 -129t-58 -120q-23 -57 -31.5 -109t-1.5 -97q6 -46 27 -79.5t49 -55.5q30 -23 62.5 -35t66.5 -19q35 -8 71.5 -11t77.5 -3t86.5 2.5 t98.5 9.5q7 1 13.5 1.5t13.5 1.5l49 15q20 5 41.5 10.5t43.5 10.5q11 2 21.5 3.5t21.5 3.5l11 2q8 3 18 -1t14.5 -12t0.5 -18t-24 -20h-2l-2 -1l-5 -1l-22 -5q-43 -9 -88 -17.5t-94 -14.5l-21 -3q-57 -20 -106 -45q-120 -60 -186 -140q-16 -19 -28 -40t-15 -44 q-2 -24 10 -38q6 -8 15.5 -14t20.5 -9q22 -6 45.5 -6.5t47.5 1.5q25 2 50 7t52 12q43 11 83 25t76 28t70.5 27.5t66.5 27.5q62 27 115 52.5t98 48.5q90 47 150.5 84.5t102.5 65.5q41 28 67.5 47t46 34t35.5 27.5t37 27.5q25 18 46 26t29 0t-4.5 -29t-37.5 -40 q-8 -6 -13.5 -9.5t-17 -11.5t-34 -21.5t-63.5 -40.5q-42 -27 -107 -65.5t-167 -91.5q-51 -27 -111.5 -55.5t-132.5 -58.5q-37 -14 -76.5 -30t-82.5 -32q-43 -15 -89 -30.5t-99 -27.5q-28 -6 -57 -11t-60 -7q-15 0 -31 0.5t-33 5.5q-16 5 -32.5 13.5t-26.5 26.5 q-10 17 -8.5 36.5t7.5 36.5q11 34 36 63q23 30 49.5 54.5t57.5 46.5q49 35 108 65q-78 -4 -140.5 2t-114.5 21q-73 20 -123 64q-53 44 -73 115zM782.5 1783q1.5 12 13 19.5t31.5 8t45 -11.5q17 -8 49 -6.5t71.5 10t83.5 22.5t86 34q42 19 78.5 40t63.5 40q27 18 41.5 30.5 t14.5 11.5q14 5 2.5 -9.5t-44.5 -37.5q-32 -24 -80 -51t-104 -51t-113.5 -41t-106.5 -26t-82 -10.5t-40 5.5q-11 11 -9.5 23z" />
<glyph unicode="&#xca;" horiz-adv-x="1285" d="M47 526q-18 68 1 153q16 82 68 179q27 49 61.5 102.5t81.5 111.5t107 119t139 124q80 62 161.5 107.5t167.5 64.5q22 5 42.5 6.5t41.5 1.5q41 1 80 -3q19 -3 39 -8t37 -15q17 -9 32.5 -23.5t25.5 -33.5q9 -17 12 -36t2 -37q0 -17 -2.5 -34t-6.5 -32q-8 -31 -19 -58.5 t-22 -52.5q-24 -50 -47 -92t-43 -78q-42 -72 -73 -122t-51 -85q-20 -34 -31.5 -53t-16.5 -27q-15 -27 -33 -42t-28 -10t-6 29t19 50q5 9 13 20.5t23 34t39 59t63 95.5q19 30 41.5 66t49.5 82q26 44 52 98q13 28 24.5 58t18.5 65q3 16 4 33.5t-4 34.5q-6 36 -39 58 q-32 22 -77 27q-44 6 -90 5q-47 0 -95 -12.5t-97 -36.5q-49 -23 -97.5 -53t-97.5 -67q-90 -70 -156.5 -139.5t-117.5 -136.5q-52 -68 -87 -129t-58 -120q-23 -57 -31.5 -109t-1.5 -97q6 -46 27 -79.5t49 -55.5q30 -23 62.5 -35t66.5 -19q35 -8 71.5 -11t77.5 -3t86.5 2.5 t98.5 9.5q7 1 13.5 1.5t13.5 1.5l49 15q20 5 41.5 10.5t43.5 10.5q11 2 21.5 3.5t21.5 3.5l11 2q8 3 18 -1t14.5 -12t0.5 -18t-24 -20h-2l-2 -1l-5 -1l-22 -5q-43 -9 -88 -17.5t-94 -14.5l-21 -3q-57 -20 -106 -45q-120 -60 -186 -140q-16 -19 -28 -40t-15 -44 q-2 -24 10 -38q6 -8 15.5 -14t20.5 -9q22 -6 45.5 -6.5t47.5 1.5q25 2 50 7t52 12q43 11 83 25t76 28t70.5 27.5t66.5 27.5q62 27 115 52.5t98 48.5q90 47 150.5 84.5t102.5 65.5q41 28 67.5 47t46 34t35.5 27.5t37 27.5q25 18 46 26t29 0t-4.5 -29t-37.5 -40 q-8 -6 -13.5 -9.5t-17 -11.5t-34 -21.5t-63.5 -40.5q-42 -27 -107 -65.5t-167 -91.5q-51 -27 -111.5 -55.5t-132.5 -58.5q-37 -14 -76.5 -30t-82.5 -32q-43 -15 -89 -30.5t-99 -27.5q-28 -6 -57 -11t-60 -7q-15 0 -31 0.5t-33 5.5q-16 5 -32.5 13.5t-26.5 26.5 q-10 17 -8.5 36.5t7.5 36.5q11 34 36 63q23 30 49.5 54.5t57.5 46.5q49 35 108 65q-78 -4 -140.5 2t-114.5 21q-73 20 -123 64q-53 44 -73 115zM710 1981.5q-1 12.5 11 24.5t35 20t55 6q23 -2 59 9.5t81 31.5q23 10 46.5 21.5t47.5 25.5q12 7 24 14.5t24 15.5q6 4 12.5 8 t12.5 9q2 2 5 4.5t7 6.5l2 3h-1q-1 -1 -4 -1q-2 1 2 -2t9 -7q5 -3 8.5 -7.5t8.5 -9.5q8 -9 15.5 -19t15.5 -20q14 -20 26.5 -38.5t22.5 -36.5q10 -16 18 -29.5t15 -22.5q7 -11 12 -20q3 -17 -10.5 0t-38.5 56q-13 20 -28.5 43t-34.5 49q-9 12 -18.5 24.5t-20.5 21.5 q-2 2 -4.5 3t-2.5 2q-1 0 0 -0.5t3 -0.5q6 -2 14 3q1 0 3 2l1 1l-5 -5q-3 -4 -10 -8q-4 -4 -8 -7l-8 -6q-32 -23 -63.5 -41t-63.5 -35t-61.5 -32t-57.5 -27q-54 -25 -91.5 -38.5t-47.5 -9.5q-16 6 -17 18.5z" />
<glyph unicode="&#xcb;" horiz-adv-x="1285" d="M47 526q-18 68 1 153q16 82 68 179q27 49 61.5 102.5t81.5 111.5t107 119t139 124q80 62 161.5 107.5t167.5 64.5q22 5 42.5 6.5t41.5 1.5q41 1 80 -3q19 -3 39 -8t37 -15q17 -9 32.5 -23.5t25.5 -33.5q9 -17 12 -36t2 -37q0 -17 -2.5 -34t-6.5 -32q-8 -31 -19 -58.5 t-22 -52.5q-24 -50 -47 -92t-43 -78q-42 -72 -73 -122t-51 -85q-20 -34 -31.5 -53t-16.5 -27q-15 -27 -33 -42t-28 -10t-6 29t19 50q5 9 13 20.5t23 34t39 59t63 95.5q19 30 41.5 66t49.5 82q26 44 52 98q13 28 24.5 58t18.5 65q3 16 4 33.5t-4 34.5q-6 36 -39 58 q-32 22 -77 27q-44 6 -90 5q-47 0 -95 -12.5t-97 -36.5q-49 -23 -97.5 -53t-97.5 -67q-90 -70 -156.5 -139.5t-117.5 -136.5q-52 -68 -87 -129t-58 -120q-23 -57 -31.5 -109t-1.5 -97q6 -46 27 -79.5t49 -55.5q30 -23 62.5 -35t66.5 -19q35 -8 71.5 -11t77.5 -3t86.5 2.5 t98.5 9.5q7 1 13.5 1.5t13.5 1.5l49 15q20 5 41.5 10.5t43.5 10.5q11 2 21.5 3.5t21.5 3.5l11 2q8 3 18 -1t14.5 -12t0.5 -18t-24 -20h-2l-2 -1l-5 -1l-22 -5q-43 -9 -88 -17.5t-94 -14.5l-21 -3q-57 -20 -106 -45q-120 -60 -186 -140q-16 -19 -28 -40t-15 -44 q-2 -24 10 -38q6 -8 15.5 -14t20.5 -9q22 -6 45.5 -6.5t47.5 1.5q25 2 50 7t52 12q43 11 83 25t76 28t70.5 27.5t66.5 27.5q62 27 115 52.5t98 48.5q90 47 150.5 84.5t102.5 65.5q41 28 67.5 47t46 34t35.5 27.5t37 27.5q25 18 46 26t29 0t-4.5 -29t-37.5 -40 q-8 -6 -13.5 -9.5t-17 -11.5t-34 -21.5t-63.5 -40.5q-42 -27 -107 -65.5t-167 -91.5q-51 -27 -111.5 -55.5t-132.5 -58.5q-37 -14 -76.5 -30t-82.5 -32q-43 -15 -89 -30.5t-99 -27.5q-28 -6 -57 -11t-60 -7q-15 0 -31 0.5t-33 5.5q-16 5 -32.5 13.5t-26.5 26.5 q-10 17 -8.5 36.5t7.5 36.5q11 34 36 63q23 30 49.5 54.5t57.5 46.5q49 35 108 65q-78 -4 -140.5 2t-114.5 21q-73 20 -123 64q-53 44 -73 115zM576 1865q0 3 10.5 10t29 17.5t43.5 22.5q27 11 55 29t67 29q12 3 29.5 14t35.5 22t34.5 21.5t28 13t16.5 -5t-2 -31.5 q-1 -4 10.5 -10.5t30.5 -15t42 -17.5t46 -19.5t43 -21.5t31 -22q27 -22 55.5 -25t55.5 8t48.5 27.5t38.5 31.5q8 7 20.5 18.5t24 23t21 20t12.5 9.5q18 4 24.5 -6.5t-1.5 -31.5q-4 -9 -17.5 -25.5t-31.5 -33t-38.5 -30.5t-39.5 -17q-13 -2 -30 -7t-38 -8q-20 -4 -44 -1 t-47 16q-20 13 -50.5 29t-63.5 32t-63.5 31.5t-51.5 29.5q-32 -10 -64 -21t-63 -21.5t-58 -21t-48 -19.5q-22 -9 -39 -17.5t-28 -14.5q-13 -7 -24 -13q-10 -2 -10 1z" />
<glyph unicode="&#xcc;" horiz-adv-x="912" d="M68 75q-2 30 2 57.5t10 55.5q12 56 30.5 113t40.5 117q29 76 51 130t40.5 97t35.5 80t34 78q18 40 39.5 88.5t48.5 116.5q28 68 63.5 158t79.5 215q11 33 21.5 65t21.5 62q-18 -26 -38 -47q-61 -70 -117 -116.5t-102 -78.5q-46 -33 -80.5 -53.5t-58.5 -34.5t-37.5 -21.5 t-19.5 -9.5q-18 -10 -35 -9t-22 12q-4 11 5.5 24t28.5 21q6 3 14 6.5t23 10.5l42 21t67 37q40 25 96.5 63t126.5 103q33 32 68 71t67 90q2 4 2.5 8.5t3.5 8.5l4 13v2l1 1q2 -1 4 -1.5t4 -1.5l1 1v1q3 -1 1.5 -0.5t-2.5 1t2 -1t14 -5.5l-1 -3q10 -4 11 -4.5t-1 0t-4 1.5t2 -1 l-1 -3l-4 -6q-3 -6 -6.5 -12t-6.5 -12q-1 -2 -1.5 -2.5t-1.5 -2.5q-5 -14 -10 -28.5t-11 -29.5q-11 -34 -24 -70.5t-28 -75.5q-55 -141 -95 -244.5t-69.5 -180.5t-51 -133.5t-39.5 -104t-34 -91t-35.5 -96t-44 -118t-58.5 -156.5q-10 -31 -17.5 -59t-13.5 -55 q-5 -27 -6.5 -50.5t3.5 -43.5q6 -19 24 -28q8 -3 17.5 -3.5t18.5 0.5q19 2 36.5 6.5t33.5 9.5q33 10 63 22t59 25.5t58.5 28.5t62.5 32q105 56 182.5 104t136.5 84q58 37 97.5 63.5t66.5 45.5q28 19 46 32t31.5 23t24.5 18t25 17q17 11 34 12.5t23 -7.5t-1.5 -24t-25.5 -26 q-5 -4 -9 -6t-13 -6t-24 -13t-43 -25t-71.5 -42.5t-108.5 -65.5q-67 -39 -157 -90.5t-216 -115.5q-34 -17 -70 -35.5t-76 -36.5q-20 -8 -41 -17t-44 -17t-47 -14t-52 -7q-8 0 -15.5 1t-15.5 5q-17 8 -27 23q-10 14 -12.5 29.5t-3.5 30.5zM478 2154q3 13 13 20.5t20 5.5 t19 -13.5t11 -33.5q1 -16 15 -35.5t35 -39.5t48 -39t57 -35t58 -27.5t51 -16.5q11 -3 21 -4.5t17 -2.5q8 -1 14 0q11 -5 -3.5 -8.5t-44.5 1.5t-67.5 21t-75.5 38q-38 23 -73 48.5t-61 49.5t-41 43t-13 28z" />
<glyph unicode="&#xcd;" horiz-adv-x="912" d="M68 75q-2 30 2 57.5t10 55.5q12 56 30.5 113t40.5 117q29 76 51 130t40.5 97t35.5 80t34 78q18 40 39.5 88.5t48.5 116.5q28 68 63.5 158t79.5 215q11 33 21.5 65t21.5 62q-18 -26 -38 -47q-61 -70 -117 -116.5t-102 -78.5q-46 -33 -80.5 -53.5t-58.5 -34.5t-37.5 -21.5 t-19.5 -9.5q-18 -10 -35 -9t-22 12q-4 11 5.5 24t28.5 21q6 3 14 6.5t23 10.5l42 21t67 37q40 25 96.5 63t126.5 103q33 32 68 71t67 90q2 4 2.5 8.5t3.5 8.5l4 13v2l1 1q2 -1 4 -1.5t4 -1.5l1 1v1q3 -1 1.5 -0.5t-2.5 1t2 -1t14 -5.5l-1 -3q10 -4 11 -4.5t-1 0t-4 1.5t2 -1 l-1 -3l-4 -6q-3 -6 -6.5 -12t-6.5 -12q-1 -2 -1.5 -2.5t-1.5 -2.5q-5 -14 -10 -28.5t-11 -29.5q-11 -34 -24 -70.5t-28 -75.5q-55 -141 -95 -244.5t-69.5 -180.5t-51 -133.5t-39.5 -104t-34 -91t-35.5 -96t-44 -118t-58.5 -156.5q-10 -31 -17.5 -59t-13.5 -55 q-5 -27 -6.5 -50.5t3.5 -43.5q6 -19 24 -28q8 -3 17.5 -3.5t18.5 0.5q19 2 36.5 6.5t33.5 9.5q33 10 63 22t59 25.5t58.5 28.5t62.5 32q105 56 182.5 104t136.5 84q58 37 97.5 63.5t66.5 45.5q28 19 46 32t31.5 23t24.5 18t25 17q17 11 34 12.5t23 -7.5t-1.5 -24t-25.5 -26 q-5 -4 -9 -6t-13 -6t-24 -13t-43 -25t-71.5 -42.5t-108.5 -65.5q-67 -39 -157 -90.5t-216 -115.5q-34 -17 -70 -35.5t-76 -36.5q-20 -8 -41 -17t-44 -17t-47 -14t-52 -7q-8 0 -15.5 1t-15.5 5q-17 8 -27 23q-10 14 -12.5 29.5t-3.5 30.5zM483.5 1935q1.5 12 13 19.5t31.5 8 t45 -11.5q17 -8 49 -6.5t71.5 10t83.5 22.5t86 34q42 19 78.5 40t63.5 40q27 18 41.5 30.5t14.5 11.5q14 5 2.5 -9.5t-44.5 -37.5q-32 -24 -80 -51t-104 -51t-113.5 -41t-106.5 -26t-82 -10.5t-40 5.5q-11 11 -9.5 23z" />
<glyph unicode="&#xce;" horiz-adv-x="912" d="M68 75q-2 30 2 57.5t10 55.5q12 56 30.5 113t40.5 117q29 76 51 130t40.5 97t35.5 80t34 78q18 40 39.5 88.5t48.5 116.5q28 68 63.5 158t79.5 215q11 33 21.5 65t21.5 62q-18 -26 -38 -47q-61 -70 -117 -116.5t-102 -78.5q-46 -33 -80.5 -53.5t-58.5 -34.5t-37.5 -21.5 t-19.5 -9.5q-18 -10 -35 -9t-22 12q-4 11 5.5 24t28.5 21q6 3 14 6.5t23 10.5l42 21t67 37q40 25 96.5 63t126.5 103q33 32 68 71t67 90q2 4 2.5 8.5t3.5 8.5l4 13v2l1 1q2 -1 4 -1.5t4 -1.5l1 1v1q3 -1 1.5 -0.5t-2.5 1t2 -1t14 -5.5l-1 -3q10 -4 11 -4.5t-1 0t-4 1.5t2 -1 l-1 -3l-4 -6q-3 -6 -6.5 -12t-6.5 -12q-1 -2 -1.5 -2.5t-1.5 -2.5q-5 -14 -10 -28.5t-11 -29.5q-11 -34 -24 -70.5t-28 -75.5q-55 -141 -95 -244.5t-69.5 -180.5t-51 -133.5t-39.5 -104t-34 -91t-35.5 -96t-44 -118t-58.5 -156.5q-10 -31 -17.5 -59t-13.5 -55 q-5 -27 -6.5 -50.5t3.5 -43.5q6 -19 24 -28q8 -3 17.5 -3.5t18.5 0.5q19 2 36.5 6.5t33.5 9.5q33 10 63 22t59 25.5t58.5 28.5t62.5 32q105 56 182.5 104t136.5 84q58 37 97.5 63.5t66.5 45.5q28 19 46 32t31.5 23t24.5 18t25 17q17 11 34 12.5t23 -7.5t-1.5 -24t-25.5 -26 q-5 -4 -9 -6t-13 -6t-24 -13t-43 -25t-71.5 -42.5t-108.5 -65.5q-67 -39 -157 -90.5t-216 -115.5q-34 -17 -70 -35.5t-76 -36.5q-20 -8 -41 -17t-44 -17t-47 -14t-52 -7q-8 0 -15.5 1t-15.5 5q-17 8 -27 23q-10 14 -12.5 29.5t-3.5 30.5zM523 2071.5q-1 12.5 11 24.5t35 20 t55 6q23 -2 59 9.5t81 31.5q23 10 46.5 21.5t47.5 25.5q12 7 24 14.5t24 15.5q6 4 12.5 8t12.5 9q2 2 5 4.5t7 6.5l2 3h-1q-1 -1 -4 -1q-2 1 2 -2t9 -7q5 -3 8.5 -7.5t8.5 -9.5q8 -9 15.5 -19t15.5 -20q14 -20 26.5 -38.5t22.5 -36.5q10 -16 18 -29.5t15 -22.5q7 -11 12 -20 q3 -17 -10.5 0t-38.5 56q-13 20 -28.5 43t-34.5 49q-9 12 -18.5 24.5t-20.5 21.5q-2 2 -4.5 3t-2.5 2q-1 0 0 -0.5t3 -0.5q6 -2 14 3q1 0 3 2l1 1l-5 -5q-3 -4 -10 -8q-4 -4 -8 -7l-8 -6q-32 -23 -63.5 -41t-63.5 -35t-61.5 -32t-57.5 -27q-54 -25 -91.5 -38.5t-47.5 -9.5 q-16 6 -17 18.5z" />
<glyph unicode="&#xcf;" horiz-adv-x="912" d="M68 75q-2 30 2 57.5t10 55.5q12 56 30.5 113t40.5 117q29 76 51 130t40.5 97t35.5 80t34 78q18 40 39.5 88.5t48.5 116.5q28 68 63.5 158t79.5 215q11 33 21.5 65t21.5 62q-18 -26 -38 -47q-61 -70 -117 -116.5t-102 -78.5q-46 -33 -80.5 -53.5t-58.5 -34.5t-37.5 -21.5 t-19.5 -9.5q-18 -10 -35 -9t-22 12q-4 11 5.5 24t28.5 21q6 3 14 6.5t23 10.5l42 21t67 37q40 25 96.5 63t126.5 103q33 32 68 71t67 90q2 4 2.5 8.5t3.5 8.5l4 13v2l1 1q2 -1 4 -1.5t4 -1.5l1 1v1q3 -1 1.5 -0.5t-2.5 1t2 -1t14 -5.5l-1 -3q10 -4 11 -4.5t-1 0t-4 1.5t2 -1 l-1 -3l-4 -6q-3 -6 -6.5 -12t-6.5 -12q-1 -2 -1.5 -2.5t-1.5 -2.5q-5 -14 -10 -28.5t-11 -29.5q-11 -34 -24 -70.5t-28 -75.5q-55 -141 -95 -244.5t-69.5 -180.5t-51 -133.5t-39.5 -104t-34 -91t-35.5 -96t-44 -118t-58.5 -156.5q-10 -31 -17.5 -59t-13.5 -55 q-5 -27 -6.5 -50.5t3.5 -43.5q6 -19 24 -28q8 -3 17.5 -3.5t18.5 0.5q19 2 36.5 6.5t33.5 9.5q33 10 63 22t59 25.5t58.5 28.5t62.5 32q105 56 182.5 104t136.5 84q58 37 97.5 63.5t66.5 45.5q28 19 46 32t31.5 23t24.5 18t25 17q17 11 34 12.5t23 -7.5t-1.5 -24t-25.5 -26 q-5 -4 -9 -6t-13 -6t-24 -13t-43 -25t-71.5 -42.5t-108.5 -65.5q-67 -39 -157 -90.5t-216 -115.5q-34 -17 -70 -35.5t-76 -36.5q-20 -8 -41 -17t-44 -17t-47 -14t-52 -7q-8 0 -15.5 1t-15.5 5q-17 8 -27 23q-10 14 -12.5 29.5t-3.5 30.5zM370 2078q0 3 10.5 10t29 17.5 t43.5 22.5q27 11 55 29t67 29q12 3 29.5 14t35.5 22t34.5 21.5t28 13t16.5 -5t-2 -31.5q-1 -4 10.5 -10.5t30.5 -15t42 -17.5t46 -19.5t43 -21.5t31 -22q27 -22 55.5 -25t55.5 8t48.5 27.5t38.5 31.5q8 7 20.5 18.5t24 23t21 20t12.5 9.5q18 4 24.5 -6.5t-1.5 -31.5 q-4 -9 -17.5 -25.5t-31.5 -33t-38.5 -30.5t-39.5 -17q-13 -2 -30 -7t-38 -8q-20 -4 -44 -1t-47 16q-20 13 -50.5 29t-63.5 32t-63.5 31.5t-51.5 29.5q-32 -10 -64 -21t-63 -21.5t-58 -21t-48 -19.5q-22 -9 -39 -17.5t-28 -14.5q-13 -7 -24 -13q-10 -2 -10 1z" />
<glyph unicode="&#xd0;" horiz-adv-x="1928" d="M-62 66.5q1 5.5 2 10.5t2 9.5t3 9.5q3 10 6.5 19.5t7.5 17.5q8 18 17 36.5t18 36.5q19 36 39.5 72.5t44.5 73.5q33 52 67.5 106t73.5 109q17 39 32 76.5t30 73.5q32 80 58.5 149.5t49.5 130.5q46 123 79 211.5t54.5 149t33 94.5t16.5 48q17 47 36 77.5t30 26.5t7 -39.5 t-21 -82.5q-6 -15 -14 -36t-23.5 -59.5t-41 -104t-66.5 -171.5q-32 -79 -72.5 -182.5t-97.5 -238.5q101 134 197 242t188 195q98 92 189.5 160t180.5 114q88 45 171.5 64.5t158.5 12.5q38 -4 71.5 -14t63.5 -27t52 -41.5t37 -52.5q30 -55 36 -114t3 -117 q-4 -58 -16.5 -117.5t-31.5 -124.5q-20 -65 -48 -133.5t-67 -145.5q-32 -62 -71 -129.5t-90 -140.5q124 18 212.5 37.5t154.5 35.5q77 20 127 36t87 30q37 13 67.5 24.5t68.5 25.5q46 17 80.5 23.5t39.5 -3.5q4 -10 -24.5 -31.5t-75.5 -39.5q-14 -5 -24.5 -8.5t-32.5 -10.5 t-61.5 -19t-114.5 -33q-38 -9 -85.5 -21t-108.5 -24.5t-134.5 -25.5t-163.5 -25q-8 -2 -17.5 -2.5t-17.5 -2.5l-28 -37q-48 -61 -95.5 -114t-96.5 -96q-26 -22 -51.5 -40t-52.5 -33q-13 -7 -27 -12.5t-28 -9.5q-14 -5 -28 -6.5t-27 -4.5q-55 -7 -106.5 -3.5t-97.5 12.5 q-47 8 -89 20.5t-81 28.5q-78 31 -145 68t-129 84q-15 11 -29.5 24.5t-27.5 29.5q-3 4 -6.5 7.5t-5.5 8.5q-3 5 -5.5 9.5t-2.5 13.5q-1 5 2 9.5t7 6.5t6.5 2t5.5 1q5 1 10 1.5t11 0.5q41 2 82 2h86q286 -2 502.5 12.5t376.5 34.5q10 2 20 3l20 2q46 68 89 140t83 149 q43 86 72.5 160.5t50.5 141.5q42 134 46 240q2 53 -5 101t-29 89q-20 40 -56 68.5t-85 40.5q-48 13 -103.5 13t-116.5 -14q-61 -15 -128 -45.5t-140 -77.5q-72 -47 -148.5 -110.5t-159 -146.5t-170 -186.5t-180.5 -230.5q-6 -8 -12.5 -17.5t-13.5 -17.5l-24 -58t-27 -59 q-24 -52 -50 -108t-55 -117q-14 -30 -30.5 -60t-36.5 -61q-9 -15 -19 -30.5t-22 -29.5q-5 -8 -11.5 -14.5t-13.5 -14.5q-4 -3 -8.5 -6t-9.5 -6q-3 -1 -5.5 -2t-7.5 -1q-6 0 -10 4q-3 2 -5 8q-2 7 -1 12.5zM-33 79q13 13 27 32q8 11 16 23.5t17 25.5q30 52 54.5 102t47.5 99 q12 27 23 52l22 50q-11 -17 -22 -35l-22 -36q-39 -61 -72.5 -121.5t-61.5 -119.5q-7 -14 -13.5 -29.5t-11.5 -29.5q-1 -3 -2 -6.5t-2 -6.5zM118 700.5q4 11.5 16 17t30.5 2t40.5 -20.5q15 -11 44.5 -18t67 -11t81 -4.5t86.5 0.5q102 2 221 13q13 -5 -4 -9t-54 -8t-88.5 -6.5 t-108 -3.5t-112.5 -0.5t-102 3t-77 8t-36 13.5q-9 13 -5 24.5zM169 233q3 -8 10.5 -17t16.5 -17q15 -17 35 -33q40 -32 82 -57q87 -54 189.5 -94.5t217.5 -53.5q30 -3 58.5 -3.5t58.5 1.5q14 1 29 3t29 4q15 2 28 6.5t26 11.5q54 25 101.5 66t92.5 89q58 66 113 142 q-172 -20 -400 -32t-521 -7h-92q-11 -1 -23 -1t-23 -1q-6 0 -12 -0.5t-11 -1.5q-2 -1 -3 -1t-2 -1v-3z" />
<glyph unicode="&#xd1;" horiz-adv-x="2075" d="M86 31.5q1 -0.5 4 -1t-2 0.5v1l1 2v6l2 13q2 13 3.5 26t3.5 27q17 111 41 209t48 187q26 89 51.5 168t51.5 149q49 142 92.5 252t78.5 194t61 143.5t43.5 100t28 63.5t14.5 33q14 31 32 49t29 13q10 -5 6.5 -30t-18.5 -56l-11.5 -23t-20 -39t-34.5 -69.5t-53 -114.5 q-33 -72 -77.5 -174.5t-103.5 -250.5q-29 -74 -59.5 -159t-63.5 -186q-32 -100 -63 -213.5t-52 -248.5q-6 -30 -9 -60l-2 -14q-6 1 -8 1.5t-1.5 0.5h1.5v1l1 2l1 3l3 7q3 6 6.5 12.5t6.5 14.5q11 27 23.5 51.5t24.5 48.5q24 49 47 92.5t46 83.5q47 80 91 145t87 119 q42 53 81 97t75.5 79.5t70.5 65t67 55.5q66 51 132.5 92.5t149.5 81.5q42 19 89 39t104 39q28 9 58.5 19t63.5 19l9 2l4 1h2l2 1q-6 6 -4 3.5t7.5 -8.5t10 -11.5t3.5 -3.5v-1q-2 -4 -3.5 -8t-3.5 -8l-8 -16l-8 -16q-8 -17 -14.5 -35t-14.5 -36q-40 -99 -66.5 -182.5 t-46.5 -157.5q-18 -74 -30 -136t-19 -119q-6 -56 -8 -108.5t3 -104.5q2 -26 6.5 -51.5t12.5 -51.5t20 -51t31 -48q33 -36 75 -50q20 -8 42 -10.5t42 -2.5q43 1 81 10t74 21q71 27 127 57.5t104 58.5q95 59 157 106.5t106 81.5q43 35 74 61t55.5 47.5t44.5 40t42 35.5 q27 23 49.5 32t30.5 1q7 -8 -6 -30.5t-39 -43.5q-8 -7 -17 -15t-25.5 -20.5t-42.5 -33t-69 -52.5t-111 -81t-174 -117q-54 -33 -118.5 -69t-146.5 -68q-41 -16 -86.5 -28.5t-98.5 -14.5q-26 -2 -52 1.5t-53 14.5t-50 29t-40 42q-19 27 -31.5 57.5t-20.5 63.5t-11.5 68.5 t-4.5 70.5q-2 73 6 150t22 158q29 161 86 338q28 90 65 180q5 11 10 22.5t10 22.5l5 11v1q5 -6 2 -2t-4 5.5t4.5 -5t29.5 -34.5h-1l-3 -1l-6 -2q-6 -2 -12.5 -3.5t-11.5 -3.5q-24 -7 -48 -15l-48 -16q-124 -43 -209 -83.5t-151 -79.5t-118.5 -77t-106.5 -85t-114 -110 t-131 -159q-35 -49 -71.5 -106t-75.5 -128q-20 -36 -40 -74.5t-40 -81.5q-10 -20 -20 -42t-20 -46q-2 -6 -5 -11.5t-5 -11.5l-1 -3l-27.5 7.5t-4.5 1zM789 1926.5q-7 10.5 1 31.5q8 18 32 39t61 29q13 2 30 7t38 8q20 4 44 1t46 -16q24 -15 42 -35q24 -26 57 -41 q33 -14 67.5 -19.5t68.5 -3.5q69 5 127 23t101 37q42 18 67 31q13 8 24 14q10 2 10 -1t-10.5 -10.5t-29 -17.5t-43.5 -23q-27 -11 -59 -23t-70 -24q-38 -10 -81 -16t-90 -2q-24 2 -47.5 7.5t-47.5 17.5q-25 11 -42 27q-3 2 -5.5 4t-4.5 4q-1 2 -2 2.5t-2 1.5l-3 4 q-3 4 -6.5 6.5t-6.5 5.5q-27 22 -55.5 24.5t-55.5 -8.5t-49 -27.5t-38 -30.5t-27 -22.5t-16 -10.5q-18 -4 -25 6.5z" />
<glyph unicode="&#xd2;" horiz-adv-x="1587" d="M67 387q-5 55 1.5 121t29.5 154q11 44 28 92.5t42 104.5q26 55 59 116.5t82 128.5q98 132 212 216q56 41 114 67.5t116 37.5q29 5 56.5 6.5t52.5 -0.5q27 -2 51 -7t45 -13q45 -16 78.5 -42t56.5 -53q24 -28 38 -55t24 -51q9 -24 15 -44t10 -38q8 -33 10 -51.5t3 -26.5 q2 -27 -6 -46t-20 -18q-11 1 -18.5 18t-9.5 40q-1 8 -1.5 19t-3.5 32q-3 20 -9.5 54t-28.5 84q-12 25 -31.5 52t-50.5 52q-31 26 -75.5 43t-102.5 19q-56 4 -121 -14t-130 -57q-67 -39 -131.5 -98t-125.5 -138q-55 -74 -92.5 -143.5t-64.5 -133.5q-27 -63 -42.5 -119 t-26.5 -105q-17 -99 -10.5 -172t27.5 -129q22 -57 54 -102.5t84 -85.5q27 -19 59 -36.5t72 -29.5t88.5 -17t107.5 4q77 11 135.5 37.5t104.5 56.5q46 32 80.5 63.5t62.5 63.5q28 33 49.5 64t42.5 65q19 33 36.5 68.5t33.5 78.5q13 34 23 66t18 63l3 16l3 7l1 4v1 q-7 -1 -4 -0.5t9 1t11.5 1t4.5 0.5l1 -2l6 -14t7 -13q13 -27 28 -49q30 -47 63 -80t68 -52q34 -20 66 -28t61 -9q28 -2 51 1.5t42 8.5q38 10 61.5 21t41.5 19q17 9 31 17t31 19q20 12 39 15.5t27 -6.5q6 -9 -4.5 -26t-33.5 -30q-7 -4 -12 -6t-16 -7t-31 -14t-59 -22 q-19 -6 -44.5 -13t-57.5 -10q-33 -3 -73.5 -0.5t-86.5 21.5q-45 17 -89 54t-80 92q-9 13 -18 27.5t-17 30.5q-4 8 -7.5 16t-7.5 16l-4 9l-2 4v1h-1q-6 0 -3.5 0t8.5 1t11 1.5t4 0.5l-1 -3q-1 -4 -2 -8.5t-2 -9.5q-9 -36 -21.5 -74t-28.5 -78q-18 -43 -40.5 -87t-51.5 -90 t-65 -90.5t-82 -87.5q-46 -42 -101.5 -77.5t-122.5 -59.5q-68 -25 -143 -31q-38 -2 -77.5 2t-78.5 15q-50 14 -89.5 36t-69.5 47t-51.5 51t-36.5 51q-32 52 -46 102.5t-19 105.5zM835 2052q3 13 13 20.5t20 5.5t19 -13.5t11 -33.5q1 -16 15 -35.5t35 -39.5t48 -39t57 -35 t58 -27.5t51 -16.5q11 -3 21 -4.5t17 -2.5q8 -1 14 0q11 -5 -3.5 -8.5t-44.5 1.5t-67.5 21t-75.5 38q-38 23 -73 48.5t-61 49.5t-41 43t-13 28z" />
<glyph unicode="&#xd3;" horiz-adv-x="1587" d="M67 387q-5 55 1.5 121t29.5 154q11 44 28 92.5t42 104.5q26 55 59 116.5t82 128.5q98 132 212 216q56 41 114 67.5t116 37.5q29 5 56.5 6.5t52.5 -0.5q27 -2 51 -7t45 -13q45 -16 78.5 -42t56.5 -53q24 -28 38 -55t24 -51q9 -24 15 -44t10 -38q8 -33 10 -51.5t3 -26.5 q2 -27 -6 -46t-20 -18q-11 1 -18.5 18t-9.5 40q-1 8 -1.5 19t-3.5 32q-3 20 -9.5 54t-28.5 84q-12 25 -31.5 52t-50.5 52q-31 26 -75.5 43t-102.5 19q-56 4 -121 -14t-130 -57q-67 -39 -131.5 -98t-125.5 -138q-55 -74 -92.5 -143.5t-64.5 -133.5q-27 -63 -42.5 -119 t-26.5 -105q-17 -99 -10.5 -172t27.5 -129q22 -57 54 -102.5t84 -85.5q27 -19 59 -36.5t72 -29.5t88.5 -17t107.5 4q77 11 135.5 37.5t104.5 56.5q46 32 80.5 63.5t62.5 63.5q28 33 49.5 64t42.5 65q19 33 36.5 68.5t33.5 78.5q13 34 23 66t18 63l3 16l3 7l1 4v1 q-7 -1 -4 -0.5t9 1t11.5 1t4.5 0.5l1 -2l6 -14t7 -13q13 -27 28 -49q30 -47 63 -80t68 -52q34 -20 66 -28t61 -9q28 -2 51 1.5t42 8.5q38 10 61.5 21t41.5 19q17 9 31 17t31 19q20 12 39 15.5t27 -6.5q6 -9 -4.5 -26t-33.5 -30q-7 -4 -12 -6t-16 -7t-31 -14t-59 -22 q-19 -6 -44.5 -13t-57.5 -10q-33 -3 -73.5 -0.5t-86.5 21.5q-45 17 -89 54t-80 92q-9 13 -18 27.5t-17 30.5q-4 8 -7.5 16t-7.5 16l-4 9l-2 4v1h-1q-6 0 -3.5 0t8.5 1t11 1.5t4 0.5l-1 -3q-1 -4 -2 -8.5t-2 -9.5q-9 -36 -21.5 -74t-28.5 -78q-18 -43 -40.5 -87t-51.5 -90 t-65 -90.5t-82 -87.5q-46 -42 -101.5 -77.5t-122.5 -59.5q-68 -25 -143 -31q-38 -2 -77.5 2t-78.5 15q-50 14 -89.5 36t-69.5 47t-51.5 51t-36.5 51q-32 52 -46 102.5t-19 105.5zM771.5 1875q1.5 12 13 19.5t31.5 8t45 -11.5q17 -8 49 -6.5t71.5 10t83.5 22.5t86 34 q42 19 78.5 40t63.5 40q27 18 41.5 30.5t14.5 11.5q14 5 2.5 -9.5t-44.5 -37.5q-32 -24 -80 -51t-104 -51t-113.5 -41t-106.5 -26t-82 -10.5t-40 5.5q-11 11 -9.5 23z" />
<glyph unicode="&#xd4;" horiz-adv-x="1587" d="M67 387q-5 55 1.5 121t29.5 154q11 44 28 92.5t42 104.5q26 55 59 116.5t82 128.5q98 132 212 216q56 41 114 67.5t116 37.5q29 5 56.5 6.5t52.5 -0.5q27 -2 51 -7t45 -13q45 -16 78.5 -42t56.5 -53q24 -28 38 -55t24 -51q9 -24 15 -44t10 -38q8 -33 10 -51.5t3 -26.5 q2 -27 -6 -46t-20 -18q-11 1 -18.5 18t-9.5 40q-1 8 -1.5 19t-3.5 32q-3 20 -9.5 54t-28.5 84q-12 25 -31.5 52t-50.5 52q-31 26 -75.5 43t-102.5 19q-56 4 -121 -14t-130 -57q-67 -39 -131.5 -98t-125.5 -138q-55 -74 -92.5 -143.5t-64.5 -133.5q-27 -63 -42.5 -119 t-26.5 -105q-17 -99 -10.5 -172t27.5 -129q22 -57 54 -102.5t84 -85.5q27 -19 59 -36.5t72 -29.5t88.5 -17t107.5 4q77 11 135.5 37.5t104.5 56.5q46 32 80.5 63.5t62.5 63.5q28 33 49.5 64t42.5 65q19 33 36.5 68.5t33.5 78.5q13 34 23 66t18 63l3 16l3 7l1 4v1 q-7 -1 -4 -0.5t9 1t11.5 1t4.5 0.5l1 -2l6 -14t7 -13q13 -27 28 -49q30 -47 63 -80t68 -52q34 -20 66 -28t61 -9q28 -2 51 1.5t42 8.5q38 10 61.5 21t41.5 19q17 9 31 17t31 19q20 12 39 15.5t27 -6.5q6 -9 -4.5 -26t-33.5 -30q-7 -4 -12 -6t-16 -7t-31 -14t-59 -22 q-19 -6 -44.5 -13t-57.5 -10q-33 -3 -73.5 -0.5t-86.5 21.5q-45 17 -89 54t-80 92q-9 13 -18 27.5t-17 30.5q-4 8 -7.5 16t-7.5 16l-4 9l-2 4v1h-1q-6 0 -3.5 0t8.5 1t11 1.5t4 0.5l-1 -3q-1 -4 -2 -8.5t-2 -9.5q-9 -36 -21.5 -74t-28.5 -78q-18 -43 -40.5 -87t-51.5 -90 t-65 -90.5t-82 -87.5q-46 -42 -101.5 -77.5t-122.5 -59.5q-68 -25 -143 -31q-38 -2 -77.5 2t-78.5 15q-50 14 -89.5 36t-69.5 47t-51.5 51t-36.5 51q-32 52 -46 102.5t-19 105.5zM750 1871.5q-1 12.5 11 24.5t35 20t55 6q23 -2 59 9.5t81 31.5q23 10 46.5 21.5t47.5 25.5 q12 7 24 14.5t24 15.5q6 4 12.5 8t12.5 9q2 2 5 4.5t7 6.5l2 3h-1q-1 -1 -4 -1q-2 1 2 -2t9 -7q5 -3 8.5 -7.5t8.5 -9.5q8 -9 15.5 -19t15.5 -20q14 -20 26.5 -38.5t22.5 -36.5q10 -16 18 -29.5t15 -22.5q7 -11 12 -20q3 -17 -10.5 0t-38.5 56q-13 20 -28.5 43t-34.5 49 q-9 12 -18.5 24.5t-20.5 21.5q-2 2 -4.5 3t-2.5 2q-1 0 0 -0.5t3 -0.5q6 -2 14 3q1 0 3 2l1 1l-5 -5q-3 -4 -10 -8q-4 -4 -8 -7l-8 -6q-32 -23 -63.5 -41t-63.5 -35t-61.5 -32t-57.5 -27q-54 -25 -91.5 -38.5t-47.5 -9.5q-16 6 -17 18.5z" />
<glyph unicode="&#xd5;" horiz-adv-x="1587" d="M67 387q-5 55 1.5 121t29.5 154q11 44 28 92.5t42 104.5q26 55 59 116.5t82 128.5q98 132 212 216q56 41 114 67.5t116 37.5q29 5 56.5 6.5t52.5 -0.5q27 -2 51 -7t45 -13q45 -16 78.5 -42t56.5 -53q24 -28 38 -55t24 -51q9 -24 15 -44t10 -38q8 -33 10 -51.5t3 -26.5 q2 -27 -6 -46t-20 -18q-11 1 -18.5 18t-9.5 40q-1 8 -1.5 19t-3.5 32q-3 20 -9.5 54t-28.5 84q-12 25 -31.5 52t-50.5 52q-31 26 -75.5 43t-102.5 19q-56 4 -121 -14t-130 -57q-67 -39 -131.5 -98t-125.5 -138q-55 -74 -92.5 -143.5t-64.5 -133.5q-27 -63 -42.5 -119 t-26.5 -105q-17 -99 -10.5 -172t27.5 -129q22 -57 54 -102.5t84 -85.5q27 -19 59 -36.5t72 -29.5t88.5 -17t107.5 4q77 11 135.5 37.5t104.5 56.5q46 32 80.5 63.5t62.5 63.5q28 33 49.5 64t42.5 65q19 33 36.5 68.5t33.5 78.5q13 34 23 66t18 63l3 16l3 7l1 4v1 q-7 -1 -4 -0.5t9 1t11.5 1t4.5 0.5l1 -2l6 -14t7 -13q13 -27 28 -49q30 -47 63 -80t68 -52q34 -20 66 -28t61 -9q28 -2 51 1.5t42 8.5q38 10 61.5 21t41.5 19q17 9 31 17t31 19q20 12 39 15.5t27 -6.5q6 -9 -4.5 -26t-33.5 -30q-7 -4 -12 -6t-16 -7t-31 -14t-59 -22 q-19 -6 -44.5 -13t-57.5 -10q-33 -3 -73.5 -0.5t-86.5 21.5q-45 17 -89 54t-80 92q-9 13 -18 27.5t-17 30.5q-4 8 -7.5 16t-7.5 16l-4 9l-2 4v1h-1q-6 0 -3.5 0t8.5 1t11 1.5t4 0.5l-1 -3q-1 -4 -2 -8.5t-2 -9.5q-9 -36 -21.5 -74t-28.5 -78q-18 -43 -40.5 -87t-51.5 -90 t-65 -90.5t-82 -87.5q-46 -42 -101.5 -77.5t-122.5 -59.5q-68 -25 -143 -31q-38 -2 -77.5 2t-78.5 15q-50 14 -89.5 36t-69.5 47t-51.5 51t-36.5 51q-32 52 -46 102.5t-19 105.5zM740 1885.5q-7 10.5 1 31.5q8 18 32 39t61 29q13 2 30 7t38 8q20 4 44 1t46 -16 q24 -15 42 -35q24 -26 57 -41q33 -14 67.5 -19.5t68.5 -3.5q69 5 127 23t101 37q42 18 67 31q13 8 24 14q10 2 10 -1t-10.5 -10.5t-29 -17.5t-43.5 -23q-27 -11 -59 -23t-70 -24q-38 -10 -81 -16t-90 -2q-24 2 -47.5 7.5t-47.5 17.5q-25 11 -42 27q-3 2 -5.5 4t-4.5 4 q-1 2 -2 2.5t-2 1.5l-3 4q-3 4 -6.5 6.5t-6.5 5.5q-27 22 -55.5 24.5t-55.5 -8.5t-49 -27.5t-38 -30.5t-27 -22.5t-16 -10.5q-18 -4 -25 6.5z" />
<glyph unicode="&#xd6;" horiz-adv-x="1587" d="M67 387q-5 55 1.5 121t29.5 154q11 44 28 92.5t42 104.5q26 55 59 116.5t82 128.5q98 132 212 216q56 41 114 67.5t116 37.5q29 5 56.5 6.5t52.5 -0.5q27 -2 51 -7t45 -13q45 -16 78.5 -42t56.5 -53q24 -28 38 -55t24 -51q9 -24 15 -44t10 -38q8 -33 10 -51.5t3 -26.5 q2 -27 -6 -46t-20 -18q-11 1 -18.5 18t-9.5 40q-1 8 -1.5 19t-3.5 32q-3 20 -9.5 54t-28.5 84q-12 25 -31.5 52t-50.5 52q-31 26 -75.5 43t-102.5 19q-56 4 -121 -14t-130 -57q-67 -39 -131.5 -98t-125.5 -138q-55 -74 -92.5 -143.5t-64.5 -133.5q-27 -63 -42.5 -119 t-26.5 -105q-17 -99 -10.5 -172t27.5 -129q22 -57 54 -102.5t84 -85.5q27 -19 59 -36.5t72 -29.5t88.5 -17t107.5 4q77 11 135.5 37.5t104.5 56.5q46 32 80.5 63.5t62.5 63.5q28 33 49.5 64t42.5 65q19 33 36.5 68.5t33.5 78.5q13 34 23 66t18 63l3 16l3 7l1 4v1 q-7 -1 -4 -0.5t9 1t11.5 1t4.5 0.5l1 -2l6 -14t7 -13q13 -27 28 -49q30 -47 63 -80t68 -52q34 -20 66 -28t61 -9q28 -2 51 1.5t42 8.5q38 10 61.5 21t41.5 19q17 9 31 17t31 19q20 12 39 15.5t27 -6.5q6 -9 -4.5 -26t-33.5 -30q-7 -4 -12 -6t-16 -7t-31 -14t-59 -22 q-19 -6 -44.5 -13t-57.5 -10q-33 -3 -73.5 -0.5t-86.5 21.5q-45 17 -89 54t-80 92q-9 13 -18 27.5t-17 30.5q-4 8 -7.5 16t-7.5 16l-4 9l-2 4v1h-1q-6 0 -3.5 0t8.5 1t11 1.5t4 0.5l-1 -3q-1 -4 -2 -8.5t-2 -9.5q-9 -36 -21.5 -74t-28.5 -78q-18 -43 -40.5 -87t-51.5 -90 t-65 -90.5t-82 -87.5q-46 -42 -101.5 -77.5t-122.5 -59.5q-68 -25 -143 -31q-38 -2 -77.5 2t-78.5 15q-50 14 -89.5 36t-69.5 47t-51.5 51t-36.5 51q-32 52 -46 102.5t-19 105.5zM748 1844q0 3 10.5 10t29 17.5t43.5 22.5q27 11 55 29t67 29q12 3 29.5 14t35.5 22t34.5 21.5 t28 13t16.5 -5t-2 -31.5q-1 -4 10.5 -10.5t30.5 -15t42 -17.5t46 -19.5t43 -21.5t31 -22q27 -22 55.5 -25t55.5 8t48.5 27.5t38.5 31.5q8 7 20.5 18.5t24 23t21 20t12.5 9.5q18 4 24.5 -6.5t-1.5 -31.5q-4 -9 -17.5 -25.5t-31.5 -33t-38.5 -30.5t-39.5 -17q-13 -2 -30 -7 t-38 -8q-20 -4 -44 -1t-47 16q-20 13 -50.5 29t-63.5 32t-63.5 31.5t-51.5 29.5q-32 -10 -64 -21t-63 -21.5t-58 -21t-48 -19.5q-22 -9 -39 -17.5t-28 -14.5q-13 -7 -24 -13q-10 -2 -10 1z" />
<glyph unicode="&#xd7;" horiz-adv-x="676" d="M103 141.5q-1 10.5 8 20.5q36 33 75 61t76 60q-26 42 -53.5 80.5t-60.5 75.5q-8 10 -7 20.5t8 16.5t17 6.5t19 -8.5q28 -41 53 -83.5t49 -85.5q42 37 80.5 76.5t73.5 81.5q10 6 19.5 5.5t15 -6t7 -15t-4.5 -19.5q-44 -39 -88 -76t-87 -74q14 -26 29 -51l30 -50 q18 -29 39.5 -58t47.5 -51q6 -10 4.5 -19t-7.5 -14.5t-15 -6.5t-19 5q-26 29 -42.5 61t-35.5 65q-14 24 -27.5 48t-27.5 48q-61 -53 -118 -112v-1q-1 -5 -5 -8t-9 -7q-9 -9 -19 -8.5t-17 6.5t-8 16.5z" />
<glyph unicode="&#xd8;" horiz-adv-x="1587" d="M-99 -340q0 9 7 18q34 23 59 51.5t46 60.5t40 65t40 66q13 20 31 44t36 46.5t34.5 42t27.5 33.5q158 197 316.5 392.5t303.5 402.5q11 15 27 38t33.5 48.5t34 51.5t29.5 47q26 43 49.5 86.5t48.5 86t52 83.5t60 80q10 6 19 5.5t14.5 -6t7.5 -15t-5 -19.5 q-33 -37 -60 -76.5t-52.5 -80.5t-49.5 -83t-51 -82q-12 -18 -31 -46t-38.5 -56t-35.5 -50.5t-24 -31.5q-150 -205 -308.5 -402t-312.5 -398q-6 -8 -21.5 -27.5t-33.5 -43.5t-36 -48.5t-30 -43.5q-22 -35 -41 -71t-40.5 -69.5t-47.5 -64.5t-60 -55q-10 -4 -19 -2t-14 8t-5 15 zM67 387q-5 55 1.5 121t29.5 154q11 44 28 92.5t42 104.5q26 55 59 116.5t82 128.5q98 132 212 216q56 41 114 67.5t116 37.5q29 5 56.5 6.5t52.5 -0.5q27 -2 51 -7t45 -13q45 -16 78.5 -42t56.5 -53q24 -28 38 -55t24 -51q9 -24 15 -44t10 -38q8 -33 10 -51.5t3 -26.5 q2 -27 -6 -46t-20 -18q-11 1 -18.5 18t-9.5 40q-1 8 -1.5 19t-3.5 32q-3 20 -9.5 54t-28.5 84q-12 25 -31.5 52t-50.5 52q-31 26 -75.5 43t-102.5 19q-56 4 -121 -14t-130 -57q-67 -39 -131.5 -98t-125.5 -138q-55 -74 -92.5 -143.5t-64.5 -133.5q-27 -63 -42.5 -119 t-26.5 -105q-17 -99 -10.5 -172t27.5 -129q22 -57 54 -102.5t84 -85.5q27 -19 59 -36.5t72 -29.5t88.5 -17t107.5 4q77 11 135.5 37.5t104.5 56.5q46 32 80.5 63.5t62.5 63.5q28 33 49.5 64t42.5 65q19 33 36.5 68.5t33.5 78.5q13 34 23 66t18 63l3 16l3 7l1 4v1 q-7 -1 -4 -0.5t9 1t11.5 1t4.5 0.5l1 -2l6 -14t7 -13q13 -27 28 -49q30 -47 63 -80t68 -52q34 -20 66 -28t61 -9q28 -2 51 1.5t42 8.5q38 10 61.5 21t41.5 19q17 9 31 17t31 19q20 12 39 15.5t27 -6.5q6 -9 -4.5 -26t-33.5 -30q-7 -4 -12 -6t-16 -7t-31 -14t-59 -22 q-19 -6 -44.5 -13t-57.5 -10q-33 -3 -73.5 -0.5t-86.5 21.5q-45 17 -89 54t-80 92q-9 13 -18 27.5t-17 30.5q-4 8 -7.5 16t-7.5 16l-4 9l-2 4v1h-1q-6 0 -3.5 0t8.5 1t11 1.5t4 0.5l-1 -3q-1 -4 -2 -8.5t-2 -9.5q-9 -36 -21.5 -74t-28.5 -78q-18 -43 -40.5 -87t-51.5 -90 t-65 -90.5t-82 -87.5q-46 -42 -101.5 -77.5t-122.5 -59.5q-68 -25 -143 -31q-38 -2 -77.5 2t-78.5 15q-50 14 -89.5 36t-69.5 47t-51.5 51t-36.5 51q-32 52 -46 102.5t-19 105.5z" />
<glyph unicode="&#xd9;" horiz-adv-x="2140" d="M173 334q-2 47 5 89.5t20 83.5q23 81 66 169q36 73 73.5 131.5t73.5 108.5q36 49 69.5 90.5t63.5 75.5q60 68 105.5 113t78.5 76q34 30 57 48.5t40 33.5q17 14 33 25t35 23q24 15 45 17.5t27 -7.5q5 -10 -7.5 -26t-35.5 -30q-7 -5 -12 -7t-16 -9q-11 -6 -30 -17.5 t-54 -36.5q-34 -26 -85 -68t-122 -113q-35 -36 -74 -80t-82 -99t-87 -121.5t-86 -149.5q-23 -45 -41 -94.5t-29 -105.5q-11 -54 -9.5 -115t29.5 -117q28 -54 83 -92q55 -35 125 -52q35 -8 71.5 -13t75.5 -7q19 -2 38 -2h39q38 1 78 6q51 8 92 22t77 30q35 15 63.5 31.5 t54.5 32.5q51 34 91 67.5t82 72.5q42 41 87 94t100 132q14 20 28 41.5t29 45.5q7 12 13.5 24.5t14.5 25.5q8 14 15 27q4 7 7 14l4 7l2 3v2q4 -2 1.5 -1t-3.5 1.5t4 -1t26 -7.5v-1v-1q-10 -65 -17 -139t-6 -161q2 -91 17 -167q8 -39 19.5 -74t31.5 -63q19 -30 45.5 -46.5 t56.5 -19.5q30 -4 59 2t56 18q54 20 98 49t82 57q37 29 68 56t58 52q53 49 89.5 86.5t61.5 62.5q24 27 42.5 47t23.5 25q18 20 37 29.5t28 1.5q8 -8 1 -27.5t-26 -40.5q-6 -7 -19.5 -20.5t-30.5 -29.5q-17 -17 -45.5 -44t-75.5 -70q-24 -22 -53 -46.5t-65 -54.5t-80.5 -62 t-100.5 -64q-30 -15 -61.5 -29t-69.5 -22q-18 -4 -38.5 -5.5t-41.5 1.5q-43 5 -79 32q-36 29 -56 71.5t-31 89.5t-15.5 98.5t-5.5 105.5q0 51 3 97.5t7 89.5q2 22 5 42.5t5 40.5q1 5 1.5 10t1.5 10l2 10v4l1 1q8 -2 5.5 -1.5t-0.5 -0.5h-1l-1 -2q-4 -9 -8 -17.5t-9 -16.5 q-36 -67 -70.5 -119.5t-66.5 -97.5q-65 -89 -118.5 -148.5t-103.5 -104.5q-51 -45 -102.5 -81.5t-120.5 -67.5q-35 -15 -74.5 -28t-89.5 -21q-48 -8 -104 -7q-29 0 -58.5 2t-62.5 7q-87 12 -155 40t-113 74q-23 23 -37.5 47.5t-24.5 50.5q-8 26 -12 50t-5 48zM1166 1819 q3 13 13 20.5t20 5.5t19 -13.5t11 -33.5q1 -16 15 -35.5t35 -39.5t48 -39t57 -35t58 -27.5t51 -16.5q11 -3 21 -4.5t17 -2.5q8 -1 14 0q11 -5 -3.5 -8.5t-44.5 1.5t-67.5 21t-75.5 38q-38 23 -73 48.5t-61 49.5t-41 43t-13 28z" />
<glyph unicode="&#xda;" horiz-adv-x="2140" d="M173 334q-2 47 5 89.5t20 83.5q23 81 66 169q36 73 73.5 131.5t73.5 108.5q36 49 69.5 90.5t63.5 75.5q60 68 105.5 113t78.5 76q34 30 57 48.5t40 33.5q17 14 33 25t35 23q24 15 45 17.5t27 -7.5q5 -10 -7.5 -26t-35.5 -30q-7 -5 -12 -7t-16 -9q-11 -6 -30 -17.5 t-54 -36.5q-34 -26 -85 -68t-122 -113q-35 -36 -74 -80t-82 -99t-87 -121.5t-86 -149.5q-23 -45 -41 -94.5t-29 -105.5q-11 -54 -9.5 -115t29.5 -117q28 -54 83 -92q55 -35 125 -52q35 -8 71.5 -13t75.5 -7q19 -2 38 -2h39q38 1 78 6q51 8 92 22t77 30q35 15 63.5 31.5 t54.5 32.5q51 34 91 67.5t82 72.5q42 41 87 94t100 132q14 20 28 41.5t29 45.5q7 12 13.5 24.5t14.5 25.5q8 14 15 27q4 7 7 14l4 7l2 3v2q4 -2 1.5 -1t-3.5 1.5t4 -1t26 -7.5v-1v-1q-10 -65 -17 -139t-6 -161q2 -91 17 -167q8 -39 19.5 -74t31.5 -63q19 -30 45.5 -46.5 t56.5 -19.5q30 -4 59 2t56 18q54 20 98 49t82 57q37 29 68 56t58 52q53 49 89.5 86.5t61.5 62.5q24 27 42.5 47t23.5 25q18 20 37 29.5t28 1.5q8 -8 1 -27.5t-26 -40.5q-6 -7 -19.5 -20.5t-30.5 -29.5q-17 -17 -45.5 -44t-75.5 -70q-24 -22 -53 -46.5t-65 -54.5t-80.5 -62 t-100.5 -64q-30 -15 -61.5 -29t-69.5 -22q-18 -4 -38.5 -5.5t-41.5 1.5q-43 5 -79 32q-36 29 -56 71.5t-31 89.5t-15.5 98.5t-5.5 105.5q0 51 3 97.5t7 89.5q2 22 5 42.5t5 40.5q1 5 1.5 10t1.5 10l2 10v4l1 1q8 -2 5.5 -1.5t-0.5 -0.5h-1l-1 -2q-4 -9 -8 -17.5t-9 -16.5 q-36 -67 -70.5 -119.5t-66.5 -97.5q-65 -89 -118.5 -148.5t-103.5 -104.5q-51 -45 -102.5 -81.5t-120.5 -67.5q-35 -15 -74.5 -28t-89.5 -21q-48 -8 -104 -7q-29 0 -58.5 2t-62.5 7q-87 12 -155 40t-113 74q-23 23 -37.5 47.5t-24.5 50.5q-8 26 -12 50t-5 48zM1309.5 1425 q1.5 12 13 19.5t31.5 8t45 -11.5q17 -8 49 -6.5t71.5 10t83.5 22.5t86 34q42 19 78.5 40t63.5 40q27 18 41.5 30.5t14.5 11.5q14 5 2.5 -9.5t-44.5 -37.5q-32 -24 -80 -51t-104 -51t-113.5 -41t-106.5 -26t-82 -10.5t-40 5.5q-11 11 -9.5 23z" />
</font>
</defs>
</svg>
