<?xml version="1.0" standalone="no"?>
<!DOCTYPE svg PUBLIC "-//W3C//DTD SVG 1.1//EN" "http://www.w3.org/Graphics/SVG/1.1/DTD/svg11.dtd" >
<svg xmlns="http://www.w3.org/2000/svg" xmlns:xlink="http://www.w3.org/1999/xlink" version="1.1">
<metadata></metadata>
<defs>
<font id="mb_empiremedium" horiz-adv-x="1120" >
<font-face units-per-em="2048" ascent="1638" descent="-410" />
<missing-glyph horiz-adv-x="563" />
<glyph unicode="&#xfb01;" horiz-adv-x="1236" d="M61 858v166h134v150q0 58 1.5 95.5t8 88t18.5 82.5t35 67t55.5 55t81 33t111.5 13q113 0 268 -115l-96 -137q-91 59 -160 59q-36 0 -59 -16t-32.5 -48t-12 -59t-2.5 -71v-197h661v-1024h-217v858h-444v-858h-217v858h-134zM842 1360q0 55 33.5 89t87.5 34q56 0 90 -34 t34 -89q0 -54 -34.5 -88.5t-89.5 -34.5q-54 0 -87.5 34.5t-33.5 88.5z" />
<glyph unicode="&#xfb02;" horiz-adv-x="1245" d="M61 858v166h134v150q0 58 1.5 95.5t8 88t18.5 82.5t35 67t55.5 55t81 33t111.5 13q113 0 268 -115l-96 -137q-91 59 -160 59q-36 0 -59 -16t-32.5 -48t-12 -59t-2.5 -71v-197h211v-166h-211v-858h-217v858h-134zM874 0v1577h218v-1577h-218z" />
<glyph unicode="&#xfb03;" horiz-adv-x="1873" d="M82 858v166h133v119q0 69 14.5 131.5t46.5 118.5t79.5 96.5t118 64t157.5 23.5q134 0 252 -90q67 121 260 121q113 0 268 -115l-96 -137q-91 59 -160 59q-36 0 -59 -16t-32.5 -48t-12 -59t-2.5 -71v-197h661v-1024h-217v858h-444v-858h-218v858h-399v-858h-217v858h-133z M432 1024h399v150q0 85 5 141q-31 26 -46.5 37.5t-55.5 25t-91 13.5q-102 0 -156.5 -54.5t-54.5 -146.5v-166zM1479 1360q0 55 33 89t87 34q56 0 90.5 -34t34.5 -89q0 -54 -35 -88.5t-90 -34.5q-54 0 -87 34.5t-33 88.5z" />
<glyph unicode="&#xfb04;" horiz-adv-x="1882" d="M82 858v166h133v119q0 69 14.5 131.5t46.5 118.5t79.5 96.5t118 64t157.5 23.5q134 0 252 -90q67 121 260 121q113 0 268 -115l-96 -137q-91 59 -160 59q-36 0 -59 -16t-32.5 -48t-12 -59t-2.5 -71v-197h211v-166h-211v-858h-218v858h-399v-858h-217v858h-133zM432 1024 h399v150q0 85 5 141q-31 26 -46.5 37.5t-55.5 25t-91 13.5q-102 0 -156.5 -54.5t-54.5 -146.5v-166zM1511 0v1577h218v-1577h-218z" />
<glyph horiz-adv-x="0" />
<glyph horiz-adv-x="682" />
<glyph horiz-adv-x="0" />
<glyph horiz-adv-x="0" />
<glyph unicode="&#xd;" horiz-adv-x="512" />
<glyph unicode=" "  horiz-adv-x="563" />
<glyph unicode="&#x09;" horiz-adv-x="563" />
<glyph unicode="&#xa0;" horiz-adv-x="563" />
<glyph unicode="!" horiz-adv-x="647" d="M184 137q0 59 39.5 100.5t98.5 41.5q58 0 99.5 -41.5t41.5 -100.5t-41 -98t-100 -39q-60 0 -99 38.5t-39 98.5zM242 410v600v567h192v-569l-28 -598h-164z" />
<glyph unicode="&#x22;" horiz-adv-x="600" d="M102 1350v274h144v-274l-45 -326h-54zM354 1350v274h144v-274l-45 -326h-54z" />
<glyph unicode="#" horiz-adv-x="1529" d="M133 442v172h244v351h-244v172h244v440h188v-440h402v440h188v-440h242v-172h-242v-351h242v-172h-242v-442h-188v442h-402v-442h-188v442h-244zM565 614h402v351h-402v-351z" />
<glyph unicode="$" horiz-adv-x="1312" d="M154 158l116 159q168 -119 314 -131v533q-65 23 -117.5 48.5t-107.5 65t-92 85t-61 110.5t-24 141q0 107 34.5 188.5t93.5 130t127 74.5t147 33v187h164v-189q94 -12 181.5 -52.5t198.5 -121.5l-116 -157q-143 102 -264 124v-483q69 -27 123 -55t110.5 -70.5t93.5 -91 t60.5 -117t23.5 -149.5q0 -107 -31 -188t-88.5 -131t-129.5 -78t-162 -37v-191h-164v187q-110 8 -209 47.5t-221 128.5zM414 1169q0 -111 170 -200v420q-75 -15 -122.5 -70t-47.5 -150zM748 193q180 40 180 227q0 145 -180 233v-460z" />
<glyph unicode="%" horiz-adv-x="2088" d="M184 1186q0 169 120.5 290t287.5 121q169 0 290.5 -121t121.5 -290q0 -167 -121.5 -287.5t-290.5 -120.5q-167 0 -287.5 120.5t-120.5 287.5zM231 0l1346 1577h270l-1347 -1577h-269zM391 1184q0 -82 59.5 -141.5t141.5 -59.5q83 0 144 59.5t61 141.5q0 85 -61 147 t-144 62q-82 0 -141.5 -62t-59.5 -147zM1087 389q0 168 120 289t288 121t289 -121t121 -289q0 -169 -120.5 -289t-289.5 -120t-288.5 120t-119.5 289zM1294 387q0 -83 59 -143t142 -60t143 60t60 143q0 85 -60 146t-143 61t-142 -61t-59 -146z" />
<glyph unicode="&#x26;" horiz-adv-x="1761" d="M154 422q0 78 25 144t71.5 117t98 88t120.5 73q-85 91 -121.5 163.5t-36.5 163.5q0 109 56.5 207.5t154.5 158.5t211 60q177 0 297.5 -121.5t120.5 -293.5q0 -75 -23.5 -136.5t-70 -109t-98 -82t-123.5 -70.5l264 -266q55 74 55 209h225q0 -106 -31.5 -187t-93.5 -175 l353 -365h-308l-188 197q-242 -217 -479 -217q-201 0 -340 122t-139 320zM379 422q0 -105 78 -171.5t176 -66.5q79 0 167.5 44.5t166.5 117.5l-340 342q-117 -53 -182.5 -116t-65.5 -150zM532 1171q0 -100 148 -229q54 25 93.5 47.5t78 52.5t58.5 65.5t20 74.5 q0 95 -54.5 153t-142.5 58q-85 0 -143 -63t-58 -159z" />
<glyph unicode="'" horiz-adv-x="348" d="M102 1350v274h144v-274l-45 -326h-54z" />
<glyph unicode="(" horiz-adv-x="706" d="M164 791q0 250 78 518t223 491l160 -119q-111 -160 -173.5 -401t-62.5 -489q0 -244 62.5 -484.5t171.5 -402.5l-158 -117q-146 222 -223.5 488t-77.5 516z" />
<glyph unicode=")" horiz-adv-x="706" d="M82 1681l160 119q145 -223 223 -491t78 -518t-77.5 -516t-223.5 -488l-158 117q109 162 171 402t62 485q0 248 -62.5 489t-172.5 401z" />
<glyph unicode="*" horiz-adv-x="897" d="M102 1223v116h170l105 -28l-90 51l-127 117l88 88l117 -127l51 -90l-23 104v170h117v-170l-29 -106l51 92l117 127l88 -88l-127 -117l-94 -51l109 22h170v-116h-170l-107 28l92 -51l127 -117l-88 -88l-117 127l-51 92l23 -106v-170h-117v170l29 108l-51 -94l-117 -127 l-88 88l127 117l92 51l-107 -22h-170z" />
<glyph unicode="+" horiz-adv-x="1351" d="M143 707v163h451v451h164v-451h450v-163h-450v-451h-164v451h-451z" />
<glyph unicode="," horiz-adv-x="452" d="M102 125q0 50 36.5 86.5t88.5 36.5q51 0 87 -36.5t36 -86.5q0 -276 -203 -428l-43 67q54 42 93.5 103t50.5 135q-8 -2 -21 -2q-53 0 -89 35.5t-36 89.5z" />
<glyph unicode="-" horiz-adv-x="886" d="M102 485v164h682v-164h-682z" />
<glyph unicode="." horiz-adv-x="450" d="M102 123q0 52 36 88.5t87 36.5q52 0 87.5 -36t35.5 -89q0 -51 -35.5 -87t-87.5 -36q-51 0 -87 36t-36 87z" />
<glyph unicode="/" horiz-adv-x="847" d="M41 0l580 1577h186l-580 -1577h-186z" />
<glyph unicode="0" horiz-adv-x="1490" d="M143 791q0 118 21.5 231.5t69 220t115.5 186t170 127.5t224 48q123 0 225.5 -48t171.5 -128t117 -186t69.5 -219.5t21.5 -231.5q0 -161 -40.5 -306.5t-115.5 -258.5t-191.5 -179.5t-257.5 -66.5q-115 0 -213 43.5t-168.5 119.5t-120 178.5t-74 221.5t-24.5 248zM373 791 q0 -113 22 -218t65.5 -193.5t116.5 -142t166 -53.5q91 0 165 53.5t118.5 141.5t68 194t23.5 218q0 89 -13.5 174.5t-43.5 164.5t-72.5 138.5t-106 95t-139.5 35.5q-93 0 -166.5 -53.5t-116.5 -142.5t-65 -194t-22 -218z" />
<glyph unicode="1" horiz-adv-x="557" d="M164 0v1577h229v-1577h-229z" />
<glyph unicode="2" horiz-adv-x="1355" d="M143 0l736 944q63 81 63 205q0 114 -71 183t-158 69q-91 0 -180 -31.5t-197 -107.5l-115 161q132 99 247.5 141t244.5 42q81 0 159.5 -27t146.5 -79.5t110 -143.5t42 -207q0 -82 -38 -173.5t-97 -166.5l-477 -604h653v-205h-1069z" />
<glyph unicode="3" horiz-adv-x="1333" d="M143 176l129 160q114 -81 200 -116.5t171 -35.5q114 0 201.5 86.5t87.5 227.5q0 69 -23.5 124.5t-60 89t-83.5 56.5t-90.5 32t-84.5 9h-199l404 563h-525v205h920l-440 -600q178 -36 294.5 -162.5t116.5 -316.5q0 -232 -145.5 -375t-372.5 -143q-120 0 -238 46t-262 150z " />
<glyph unicode="4" horiz-adv-x="1366" d="M61 500l979 1124v-919h224v-205h-224v-500h-229v500h-750zM485 705h326v374z" />
<glyph unicode="5" horiz-adv-x="1255" d="M143 145l123 162q105 -73 173 -98t159 -25q89 0 155.5 51.5t98 127t31.5 159.5q0 79 -31.5 141t-86 98.5t-121.5 55.5t-142 19q-122 0 -285 -37l135 778h660v-205h-496l-55 -334l41 2q131 0 240 -31t192.5 -92.5t130.5 -162.5t47 -232q0 -107 -33 -203.5t-95 -172.5 t-161.5 -121t-222.5 -45q-129 0 -223 34t-234 131z" />
<glyph unicode="6" horiz-adv-x="1239" d="M123 487q0 124 38 251t98.5 231.5t136 203t149.5 171.5t140.5 130t108.5 86.5t52 32.5l108 -159q-183 -135 -287 -238.5t-184 -234.5q62 22 148 22q137 0 253.5 -66t184.5 -180t68 -250q0 -102 -40 -195.5t-108 -162t-161.5 -109t-196.5 -40.5q-138 0 -255 68.5 t-185 185.5t-68 253zM352 487q0 -122 79 -212.5t200 -90.5q122 0 201 90t79 213q0 119 -82 205t-198 86q-115 0 -197 -85t-82 -206z" />
<glyph unicode="7" horiz-adv-x="1228" d="M61 1372v205h1106l-753 -1577h-230l650 1372h-773z" />
<glyph unicode="8" horiz-adv-x="1269" d="M143 469q0 106 71 218t167 169q-71 44 -126.5 128.5t-55.5 184.5q0 117 58.5 217.5t159 159t218.5 58.5q179 0 307.5 -128.5t128.5 -306.5q0 -102 -55 -185.5t-129 -127.5q100 -58 169.5 -166t69.5 -221q0 -201 -144.5 -345t-346.5 -144q-133 0 -246.5 66t-179.5 178.5 t-66 244.5zM371 463q0 -113 74 -196t190 -83t191 83t75 196q0 112 -76 196t-190 84q-115 0 -189.5 -83.5t-74.5 -196.5zM426 1176q0 -90 58.5 -158t150.5 -68q90 0 150.5 68.5t60.5 157.5q0 91 -59.5 157t-151.5 66q-95 0 -152 -65.5t-57 -157.5z" />
<glyph unicode="9" horiz-adv-x="1239" d="M102 1098q0 136 67.5 253t184.5 186t254 69q138 0 255 -69t185 -186t68 -253q0 -98 -23.5 -197.5t-63.5 -186t-93 -171t-110.5 -154.5t-117.5 -133t-113 -110.5t-98.5 -83.5t-72.5 -55t-35 -23l-108 159q180 133 287 241t188 241q-65 -23 -148 -23q-137 0 -253.5 66 t-184.5 180t-68 250zM328 1098q0 -119 82 -205t198 -86q115 0 197 85t82 206q0 122 -79 212.5t-200 90.5q-122 0 -201 -90t-79 -213z" />
<glyph unicode=":" horiz-adv-x="450" d="M102 123q0 52 36 88.5t87 36.5q52 0 87.5 -36t35.5 -89q0 -51 -35.5 -87t-87.5 -36q-51 0 -87 36t-36 87zM102 899q0 52 36 88.5t87 36.5q52 0 87.5 -36t35.5 -89q0 -51 -35.5 -87t-87.5 -36q-51 0 -87 36t-36 87z" />
<glyph unicode=";" horiz-adv-x="452" d="M102 125q0 50 36.5 86.5t88.5 36.5q51 0 87 -36.5t36 -86.5q0 -276 -203 -428l-43 67q54 42 93.5 103t50.5 135q-8 -2 -21 -2q-53 0 -89 35.5t-36 89.5zM102 899q0 52 36 88.5t87 36.5q52 0 87.5 -36t35.5 -89q0 -51 -35.5 -87t-87.5 -36q-51 0 -87 36t-36 87z" />
<glyph unicode="&#x3c;" horiz-adv-x="1361" d="M102 766l1041 520l74 -153l-758 -363l760 -328l-76 -153z" />
<glyph unicode="=" horiz-adv-x="1351" d="M143 440v164h1065v-164h-1065zM143 973v164h1065v-164h-1065z" />
<glyph unicode="&#x3e;" horiz-adv-x="1361" d="M143 442l760 328l-758 363l74 153l1041 -520l-1041 -477z" />
<glyph unicode="?" horiz-adv-x="1277" d="M184 1425q136 93 232.5 127.5t220.5 34.5q62 0 122.5 -13t122 -45.5t108 -80.5t75.5 -124.5t29 -172.5q0 -68 -14 -125t-36 -99t-62 -83.5t-77.5 -71t-97.5 -70.5q-36 -24 -53 -39t-37 -47t-27.5 -81.5t-7.5 -124.5h-223q2 102 14.5 170.5t42 122.5t68.5 92t106 84 q89 61 134.5 121.5t45.5 150.5q0 59 -21.5 105t-57 72.5t-75 40t-79.5 13.5q-98 0 -166.5 -19.5t-171.5 -94.5zM432 137q0 60 39 101t100 41q57 0 98.5 -42t41.5 -100q0 -59 -41 -98t-99 -39q-61 0 -100 38.5t-39 98.5z" />
<glyph unicode="@" horiz-adv-x="2265" d="M143 625q0 196 80.5 377t214.5 312.5t317 210.5t380 79q199 0 382 -79.5t315 -212.5t211 -314.5t79 -376.5q0 -86 -16 -170t-51 -163t-86 -138.5t-127 -95.5t-167 -36q-102 0 -191 70t-112 152q-45 -66 -129 -116t-188 -50q-101 0 -185.5 38.5t-137 116t-52.5 179.5 q0 177 115.5 254t357.5 77q70 0 176 -12v100q0 64 -61 119t-142 55q-155 0 -295 -129l-116 109q196 199 411 199q109 0 202.5 -41t152.5 -123t59 -189v-424q0 -84 47 -153.5t111 -69.5q66 0 118.5 41.5t82 108.5t44.5 141.5t15 149.5q0 102 -30 205t-82.5 194t-129 170.5 t-166.5 136.5t-197 90t-218 33q-166 0 -320.5 -71.5t-265 -186.5t-176.5 -264.5t-66 -302.5q0 -123 41 -247.5t117.5 -232.5t177 -192.5t228.5 -133t262 -48.5q270 0 507 161l86 -116q-160 -110 -295 -154.5t-298 -44.5q-202 0 -387 84t-316 222.5t-209 322.5t-78 379z M893 410q0 -56 49.5 -96t112.5 -40q120 0 194.5 57t79.5 124v102q-99 12 -184 12q-252 0 -252 -159z" />
<glyph unicode="A" horiz-adv-x="1626" d="M61 0l754 1624l750 -1624h-248l-182 412h-643l-183 -412h-248zM575 616h476l-236 519z" />
<glyph unicode="B" horiz-adv-x="1374" d="M184 0v1577h422q218 0 352 -115t134 -323q0 -87 -54.5 -175t-126.5 -126q127 -40 218.5 -146t91.5 -233q0 -148 -68 -253t-184 -155.5t-269 -50.5h-516zM418 205h282q130 0 207.5 64.5t77.5 189.5q0 106 -84.5 176t-206.5 70h-276v-500zM418 909h139q133 0 217 60t84 170 q0 105 -62 169t-186 64h-192v-463z" />
<glyph unicode="C" horiz-adv-x="1671" d="M154 788q0 163 65.5 312.5t175 258t260.5 173.5t314 65q272 0 526 -170l-111 -167q-198 133 -415 133q-159 0 -292.5 -85t-208.5 -224t-75 -296q0 -117 44.5 -227.5t120.5 -193.5t184 -133t227 -50q104 0 222 41t226 119l111 -164q-125 -97 -272.5 -148.5t-286.5 -51.5 q-164 0 -315 65t-260.5 173.5t-174.5 258t-65 311.5z" />
<glyph unicode="D" horiz-adv-x="1634" d="M184 0v1577h496q171 0 321 -61.5t254.5 -167t165 -250.5t60.5 -307q0 -163 -60 -309t-165 -252t-254.5 -168t-321.5 -62h-496zM418 205h262q159 0 288.5 79t201 213t71.5 294q0 158 -71.5 291t-201 211.5t-288.5 78.5h-262v-1167z" />
<glyph unicode="E" horiz-adv-x="1290" d="M184 0v1577h932v-205h-698v-481h616v-205h-616v-481h719v-205h-953z" />
<glyph unicode="F" horiz-adv-x="1253" d="M184 0v1577h916v-205h-682v-481h600v-205h-600v-686h-234z" />
<glyph unicode="G" horiz-adv-x="1687" d="M154 786q0 171 61.5 321.5t169 258t259 169.5t325.5 62q126 0 265 -41t263 -124l-108 -168q-98 65 -210.5 97t-209.5 32q-166 0 -298.5 -81t-205 -219.5t-72.5 -306.5q0 -164 73.5 -301.5t206.5 -219t296 -81.5q79 0 171 27t169 72v297h-295v204h520v-606 q-127 -92 -272.5 -145t-292.5 -53q-176 0 -329 64t-259 172.5t-166.5 256.5t-60.5 313z" />
<glyph unicode="H" horiz-adv-x="1497" d="M184 0v1577h234v-686h661v686h234v-1577h-234v686h-661v-686h-234z" />
<glyph unicode="I" horiz-adv-x="602" d="M184 0v1577h234v-1577h-234z" />
<glyph unicode="J" horiz-adv-x="552" d="M-61 -313q65 16 107 40t60 55t23.5 57t5.5 63v45v1630h234v-1638q0 -97 -17 -165.5t-60.5 -125.5t-117 -97t-186.5 -71z" />
<glyph unicode="K" horiz-adv-x="1509" d="M184 0v1577h234v-713l676 713h292l-765 -793l827 -784h-307l-723 680v-680h-234z" />
<glyph unicode="L" horiz-adv-x="1198" d="M184 0v1577h234v-1372h719v-205h-953z" />
<glyph unicode="M" horiz-adv-x="1771" d="M184 0v1624l705 -729l698 729v-1624h-233v1059l-467 -484l-469 484v-1059h-234z" />
<glyph unicode="N" horiz-adv-x="1697" d="M184 0v1624l1096 -1110v1063h233v-1640l-1095 1107v-1044h-234z" />
<glyph unicode="O" horiz-adv-x="1904" d="M143 791q0 163 64.5 312t173 257t259 172.5t314.5 64.5q165 0 315 -65t257.5 -173.5t171 -257t63.5 -310.5q0 -165 -64.5 -315.5t-173 -259t-257.5 -172.5t-312 -64q-164 0 -313.5 64t-258.5 172.5t-174 259t-65 315.5zM383 791q0 -118 44 -229t119 -194.5t182 -133.5 t226 -50q158 0 289.5 85t205 224t73.5 298q0 118 -43.5 228t-118.5 192.5t-181 132t-225 49.5q-159 0 -291 -84t-206 -222t-74 -296z" />
<glyph unicode="P" horiz-adv-x="1361" d="M184 0v1577h504q150 0 269 -53t190.5 -161t71.5 -255q0 -104 -42 -190.5t-113.5 -142.5t-165 -87t-196.5 -31h-284v-657h-234zM418 862h278q116 0 201.5 69.5t85.5 176.5q0 123 -89 193.5t-216 70.5h-260v-510z" />
<glyph unicode="Q" horiz-adv-x="1904" d="M143 791q0 163 64.5 312t173 257t259 172.5t314.5 64.5q165 0 315 -65t257.5 -173.5t171 -257t63.5 -310.5q0 -183 -76.5 -345t-209.5 -274h266v-172h-608q-95 -20 -179 -20q-164 0 -313.5 64t-258.5 172.5t-174 259t-65 315.5zM383 791q0 -118 44 -229t119 -194.5 t182 -133.5t226 -50q158 0 289.5 85t205 224t73.5 298q0 118 -43.5 228t-118.5 192.5t-181 132t-225 49.5q-159 0 -291 -84t-206 -222t-74 -296z" />
<glyph unicode="R" horiz-adv-x="1435" d="M184 0v1577h496q110 0 207 -31t172 -89t118.5 -149t43.5 -204q0 -157 -99 -265.5t-252 -154.5l463 -684h-266l-436 657h-213v-657h-234zM418 862h266q122 0 212.5 68t90.5 174q0 83 -44 145t-112.5 92.5t-150.5 30.5h-262v-510z" />
<glyph unicode="S" horiz-adv-x="1312" d="M154 158l116 159q110 -78 195 -105.5t184 -27.5q279 0 279 236q0 59 -25.5 105t-68.5 77.5t-99 58t-118 50.5t-124 49.5t-118 62t-99 81.5t-68.5 113t-25.5 152q0 95 28 171t73.5 123.5t107.5 79t124.5 44t129.5 12.5q134 0 240.5 -39.5t242.5 -140.5l-116 -157 q-109 78 -191 105.5t-176 27.5q-45 0 -85 -12.5t-73.5 -38t-53 -70.5t-19.5 -105q0 -142 278 -245q54 -20 97 -38t93.5 -44.5t88.5 -54.5t75 -67t60.5 -82t38 -99t14.5 -119q0 -97 -26.5 -173t-72.5 -125.5t-111.5 -82t-139 -46t-160.5 -13.5q-134 0 -243.5 38t-251.5 140z " />
<glyph unicode="T" horiz-adv-x="1513" d="M102 1372v205h1309v-205h-539v-1372h-233v1372h-537z" />
<glyph unicode="U" horiz-adv-x="1662" d="M186 612v21v944h234v-944q0 -116 53.5 -219t149 -166.5t208.5 -63.5t209 63.5t149.5 166.5t53.5 219v944h234v-940q0 -172 -87.5 -324t-237 -242.5t-321.5 -90.5q-167 0 -316 86t-239 232.5t-90 313.5z" />
<glyph unicode="V" horiz-adv-x="1619" d="M61 1577h250l498 -1114l498 1114h252l-750 -1640z" />
<glyph unicode="W" horiz-adv-x="2473" d="M61 1577h244l430 -1063l502 1038l500 -1036l432 1061h244l-654 -1640l-522 1091l-520 -1091z" />
<glyph unicode="X" horiz-adv-x="1570" d="M61 0l603 809l-574 768h268l426 -588l426 588h271l-568 -768l596 -809h-274l-451 623l-448 -623h-275z" />
<glyph unicode="Y" horiz-adv-x="1552" d="M61 1577h263l454 -686l453 686h260l-596 -897v-680h-233v680z" />
<glyph unicode="Z" horiz-adv-x="1619" d="M123 0l962 1372h-892v205h1304l-965 -1372h963v-205h-1372z" />
<glyph unicode="[" horiz-adv-x="729" d="M164 -231v2062h483v-180h-272v-1700h272v-182h-483z" />
<glyph unicode="\" horiz-adv-x="847" d="M41 1577h186l580 -1577h-186z" />
<glyph unicode="]" horiz-adv-x="729" d="M82 -49h272v1700h-272v180h483v-2062h-483v182z" />
<glyph unicode="^" horiz-adv-x="1163" d="M154 1024l430 600l426 -600h-279l-147 276l-154 -276h-276z" />
<glyph unicode="_" horiz-adv-x="1302" d="M102 -59h1098v-164h-1098v164z" />
<glyph unicode="`" horiz-adv-x="899" d="M205 1577h203l286 -348h-159z" />
<glyph unicode="a" d="M123 295q0 319 465 319q87 0 162 -10v80q0 81 -57.5 130.5t-125.5 49.5q-79 0 -140 -18.5t-128 -81.5l-129 129q95 90 189 127t208 37q167 0 283.5 -103.5t116.5 -269.5v-684h-217v98q-42 -50 -117 -89.5t-170 -39.5q-145 0 -242.5 90t-97.5 236zM340 295q0 -52 50 -90.5 t108 -38.5q113 0 182.5 55t69.5 119v92q-92 10 -162 10q-248 0 -248 -147z" />
<glyph unicode="b" horiz-adv-x="1216" d="M154 0v1577h217v-614q103 94 254 94q129 0 240 -75t175 -200.5t64 -269.5t-64 -269t-175 -199.5t-240 -74.5q-153 0 -254 92v-61h-217zM371 262q107 -100 207 -100q125 0 214 105.5t89 244.5q0 140 -88.5 246t-214.5 106q-95 0 -207 -96v-506z" />
<glyph unicode="c" d="M113 514q0 108 41.5 208t111.5 173.5t167.5 117.5t205.5 44q183 0 356 -109l-96 -162q-69 44 -128.5 61t-131.5 17q-129 0 -216 -104.5t-87 -245.5q0 -139 88 -245.5t215 -106.5q146 0 272 92l107 -150q-190 -135 -379 -135q-150 0 -272 76t-188 200.5t-66 268.5z" />
<glyph unicode="d" horiz-adv-x="1216" d="M113 512q0 144 64 269.5t175 200.5t240 75q151 0 254 -94v614h217v-1577h-217v61q-101 -92 -254 -92q-129 0 -240 74.5t-175 199.5t-64 269zM336 512q0 -139 89 -244.5t214 -105.5q100 0 207 100v506q-112 96 -207 96q-126 0 -214.5 -106t-88.5 -246z" />
<glyph unicode="e" horiz-adv-x="1234" d="M113 512q0 146 65.5 270.5t185.5 199.5t269 75q98 0 187.5 -35t158.5 -99t110 -164.5t41 -221.5v-29h-794q8 -131 103 -238.5t229 -107.5q50 0 89 4.5t102 26.5t122 63l106 -154q-98 -76 -203.5 -104.5t-234.5 -28.5q-108 0 -207 44t-171 118t-115 174t-43 207zM354 674 h551q-24 87 -93.5 138.5t-178.5 51.5q-107 0 -179 -50t-100 -140z" />
<glyph unicode="f" horiz-adv-x="722" d="M82 858v166h133v150q0 58 1.5 95.5t8 88t18.5 82.5t35 67t55.5 55t81 33t111.5 13q114 0 269 -115l-97 -137q-91 59 -159 59q-29 0 -50 -12t-32 -29t-17 -45.5t-7 -51t-1 -56.5v-197h211v-166h-211v-858h-217v858h-133z" />
<glyph unicode="g" horiz-adv-x="1159" d="M92 -211q0 79 55 145.5t123 92.5q-34 17 -62 52t-28 91q0 58 42.5 101.5t90.5 60.5q-58 36 -109.5 124t-51.5 191q0 168 120.5 289t290.5 121q88 0 172 -43h287v-164h-104q21 -35 37 -90.5t16 -112.5q0 -168 -120 -280.5t-288 -112.5q-96 0 -147 -24.5t-51 -57.5 q0 -36 51 -47.5t137 -11.5q258 0 386 -76t128 -248q0 -88 -44.5 -155t-118 -104t-155.5 -55t-169 -18q-89 0 -173.5 20.5t-156 59.5t-115 104.5t-43.5 147.5zM315 -211q0 -60 75.5 -99.5t189.5 -39.5q109 0 186.5 37t77.5 102q0 131 -289 131q-240 0 -240 -131zM369 647 q0 -85 53 -143t141 -58q85 0 138 58.5t53 142.5q0 85 -52.5 151t-138.5 66q-89 0 -141.5 -65.5t-52.5 -151.5z" />
<glyph unicode="h" horiz-adv-x="1157" d="M154 0v1577h217v-680q38 62 116 111t175 49q103 0 182 -54.5t119.5 -142.5t40.5 -194v-666h-218v666q0 75 -50.5 136.5t-121.5 61.5q-61 0 -109.5 -29.5t-76.5 -77t-42.5 -102.5t-14.5 -112v-543h-217z" />
<glyph unicode="i" horiz-adv-x="518" d="M123 1434q0 55 33.5 88.5t87.5 33.5q56 0 90.5 -33.5t34.5 -88.5q0 -54 -35 -88.5t-90 -34.5q-54 0 -87.5 34.5t-33.5 88.5zM137 0v1024h217v-1024h-217z" />
<glyph unicode="j" horiz-adv-x="583" d="M0 -360q57 14 96.5 36.5t60 44t31.5 53t13 52.5t2 53v1145h217v-1130q0 -357 -373 -437zM188 1434q0 55 33.5 88.5t87.5 33.5q56 0 90.5 -33.5t34.5 -88.5q0 -54 -35 -88.5t-90 -34.5q-54 0 -87.5 34.5t-33.5 88.5z" />
<glyph unicode="k" horiz-adv-x="1224" d="M154 0v1577h217v-979l450 426h273l-527 -483l617 -541h-277l-536 465v-465h-217z" />
<glyph unicode="l" horiz-adv-x="524" d="M154 0v1577h217v-1577h-217z" />
<glyph unicode="m" horiz-adv-x="1765" d="M154 0v1024h217v-127q38 62 116 111t175 49q176 0 266 -152q43 60 129 106t194 46q156 0 258.5 -115t102.5 -276v-666h-217v666q0 77 -53.5 137.5t-137.5 60.5q-98 0 -156.5 -71t-58.5 -172v-621h-217v666q0 80 -40 139t-118 59q-61 0 -109.5 -29.5t-76.5 -77 t-42.5 -102.5t-14.5 -112v-543h-217z" />
<glyph unicode="n" horiz-adv-x="1157" d="M154 0v1024h217v-127q38 62 116 111t175 49q103 0 182 -54.5t119.5 -142.5t40.5 -194v-666h-218v666q0 75 -50.5 136.5t-121.5 61.5q-61 0 -109.5 -29.5t-76.5 -77t-42.5 -102.5t-14.5 -112v-543h-217z" />
<glyph unicode="o" horiz-adv-x="1310" d="M113 514q0 142 73 267.5t198.5 200.5t270.5 75q110 0 211 -44t173.5 -118t115.5 -174t43 -207q0 -145 -69 -269.5t-195 -200t-279 -75.5q-114 0 -215.5 44.5t-172.5 118.5t-112.5 174t-41.5 208zM334 514q0 -139 92.5 -245.5t228.5 -106.5q137 0 229.5 106t92.5 246 q0 138 -92.5 244t-229.5 106q-90 0 -165 -50.5t-115.5 -130.5t-40.5 -169z" />
<glyph unicode="p" horiz-adv-x="1216" d="M154 -512v1536h217v-61q103 94 254 94q129 0 240 -75t175 -200.5t64 -269.5t-64 -269t-175 -199.5t-240 -74.5q-153 0 -254 92v-573h-217zM371 262q107 -100 207 -100q125 0 214 105.5t89 244.5q0 140 -88.5 246t-214.5 106q-95 0 -207 -96v-506z" />
<glyph unicode="q" horiz-adv-x="1216" d="M113 512q0 144 64 269.5t175 200.5t240 75q151 0 254 -94v61h217v-1536h-217v573q-101 -92 -254 -92q-129 0 -240 74.5t-175 199.5t-64 269zM336 512q0 -139 89 -244.5t214 -105.5q100 0 207 100v506q-112 96 -207 96q-126 0 -214.5 -106t-88.5 -246z" />
<glyph unicode="r" horiz-adv-x="888" d="M154 0v1024h217v-115q31 52 100 100t150 48q55 0 98 -21t108 -69l-104 -160q-36 26 -68 39.5t-47 15.5t-37 2q-65 0 -112.5 -55.5t-67.5 -126.5t-20 -139v-543h-217z" />
<glyph unicode="s" horiz-adv-x="1011" d="M133 90l105 150q108 -78 266 -78q77 0 117.5 33.5t40.5 91.5q0 36 -28 64t-72 47.5t-98 38.5t-108 44.5t-98 58.5t-72 87t-28 123q0 148 102.5 227.5t257.5 79.5q86 0 165.5 -27.5t174.5 -95.5l-102 -150q-71 51 -123.5 65.5t-114.5 14.5q-66 0 -104.5 -31.5t-38.5 -82.5 q0 -31 28 -55t72 -42.5t98 -37.5t108 -46t98 -62t72 -91.5t28 -128.5q0 -161 -99.5 -239.5t-275.5 -78.5q-198 0 -371 121z" />
<glyph unicode="t" horiz-adv-x="837" d="M61 858v166h175v350h217v-350h247v-166h-247v-450q0 -151 12 -193q16 -53 61 -53q64 0 158 61l82 -139q-96 -62 -150 -88.5t-104 -26.5q-47 0 -85 8t-65.5 25.5t-48.5 38.5t-34.5 53.5t-22 63.5t-13 75.5t-6 83t-1.5 91.5v450h-175z" />
<glyph unicode="u" horiz-adv-x="1157" d="M154 358v666h217v-666q0 -75 50.5 -136.5t121.5 -61.5q61 0 109.5 29.5t76.5 77t42.5 102.5t14.5 112v543h218v-1024h-218v127q-38 -62 -115.5 -111t-174.5 -49q-103 0 -182 54.5t-119.5 142.5t-40.5 194z" />
<glyph unicode="v" horiz-adv-x="1126" d="M61 1024h224l280 -625l277 625h223l-500 -1073z" />
<glyph unicode="w" horiz-adv-x="1679" d="M61 1024h218l245 -608l316 608l317 -612l242 612h219l-426 -1073l-352 653l-351 -653z" />
<glyph unicode="x" horiz-adv-x="1146" d="M61 0l400 537l-359 487h246l227 -324l224 324h248l-361 -487l399 -537h-245l-265 373l-264 -373h-250z" />
<glyph unicode="y" horiz-adv-x="1116" d="M61 1024h234l254 -606l278 606h228l-725 -1536h-221l325 696z" />
<glyph unicode="z" horiz-adv-x="1103" d="M82 0l561 831h-493v193h872l-559 -831h538v-193h-919z" />
<glyph unicode="{" horiz-adv-x="735" d="M164 688v217q50 0 69 31t19 70v510q0 142 114 229.5t287 87.5v-186q-78 0 -136 -47t-58 -95v-528q0 -54 -31 -108t-63 -70q32 -19 63 -74.5t31 -103.5v-531q0 -49 57.5 -96t136.5 -47v-187q-192 1 -296.5 88t-104.5 232v498q0 110 -88 110z" />
<glyph unicode="|" horiz-adv-x="532" d="M184 -205v1987h164v-1987h-164z" />
<glyph unicode="}" horiz-adv-x="735" d="M82 -53q79 0 136.5 47t57.5 96v531q0 48 31.5 103.5t63.5 74.5q-32 17 -63.5 71t-31.5 107v528q0 48 -58 95t-136 47v186q173 0 287 -87.5t114 -229.5v-510q0 -23 5.5 -43.5t26.5 -39t56 -18.5v-217q-88 0 -88 -110v-498q0 -145 -104.5 -232t-296.5 -88v187z" />
<glyph unicode="~" horiz-adv-x="1527" d="M154 453q0 121 40.5 222t117 161.5t175.5 60.5q67 0 148.5 -36t144.5 -78.5t135.5 -78.5t122.5 -36q62 0 96.5 72t34.5 167h205q0 -119 -42.5 -220t-120 -162.5t-173.5 -61.5q-68 0 -150.5 36t-146 78.5t-135 78.5t-119.5 36q-62 0 -95.5 -72t-33.5 -167h-204z" />
<glyph unicode="&#xa1;" horiz-adv-x="647" d="M184 887q0 60 39 98.5t99 38.5q59 0 100 -39t41 -98t-41.5 -100.5t-99.5 -41.5q-59 0 -98.5 41.5t-39.5 100.5zM211 98v516h195l28 -514v-569h-223v567z" />
<glyph unicode="&#xa2;" d="M113 784q0 194 122 346t306 187v260h164v-254q148 -16 290 -104l-96 -162q-106 65 -194 73v-694q100 13 206 88l107 -149q-155 -110 -313 -131v-244h-164v248q-189 35 -308.5 187.5t-119.5 348.5zM336 784q0 -109 56.5 -202t148.5 -131v665q-92 -37 -148.5 -129 t-56.5 -203z" />
<glyph unicode="&#xa3;" horiz-adv-x="1325" d="M154 0v205h63v440h-63v205h63v321q0 113 40 199.5t105.5 136t141 73.5t155.5 24q130 0 253 -40.5t259 -129.5l-106 -172q-199 137 -406 137q-99 0 -158 -64t-59 -164v-321h482v-205h-482v-440h709v-205h-997z" />
<glyph unicode="&#xa4;" horiz-adv-x="1394" d="M154 365l114 114q-114 145 -114 336q0 185 116 332l-116 117l94 94l117 -117q149 117 331 117q184 0 334 -117l117 117l94 -94l-117 -117q115 -150 115 -332q0 -186 -115 -336l115 -114l-94 -95l-115 113q-145 -113 -334 -113q-190 0 -334 115l-114 -115zM375 815 q0 -139 92.5 -245.5t228.5 -106.5q137 0 229.5 106t92.5 246q0 138 -92.5 244t-229.5 106q-90 0 -165 -50.5t-115.5 -130.5t-40.5 -169z" />
<glyph unicode="&#xa5;" horiz-adv-x="1552" d="M61 1577h263l454 -686l453 686h260l-592 -887h168v-133h-172v-70h172v-133h-172v-354h-233v354h-173v133h173v70h-173v133h166z" />
<glyph unicode="&#xa6;" horiz-adv-x="532" d="M184 -205v873h164v-873h-164zM184 909v873h164v-873h-164z" />
<glyph unicode="&#xa7;" horiz-adv-x="1011" d="M133 90l105 150q108 -78 266 -78q77 0 117.5 33.5t40.5 91.5q0 36 -28 64t-72 47.5t-98 38.5t-108 44.5t-98 58.5t-72 87t-28 123q0 106 54.5 178t147.5 104q-202 97 -202 273q0 148 102.5 227.5t257.5 79.5q86 0 165.5 -27.5t174.5 -95.5l-102 -150q-71 51 -123.5 65.5 t-114.5 14.5q-66 0 -104.5 -31.5t-38.5 -82.5q0 -31 28 -55t72 -42.5t98 -37.5t108 -46t98 -62t72 -91.5t28 -128.5q0 -213 -174 -285q174 -92 174 -270q0 -161 -99.5 -239.5t-275.5 -78.5q-198 0 -371 121zM375 774q0 -37 33.5 -72.5t95.5 -35.5q74 0 116 45t42 106 q0 47 -35.5 78t-108.5 31q-62 0 -102.5 -48t-40.5 -104z" />
<glyph unicode="&#xa8;" horiz-adv-x="974" d="M205 1473q0 44 30 74t70 30q44 0 74.5 -30t30.5 -74q0 -40 -30.5 -70.5t-74.5 -30.5q-40 0 -70 30.5t-30 70.5zM563 1473q0 43 31 73.5t72 30.5q43 0 73.5 -30t30.5 -74q0 -40 -31 -70.5t-73 -30.5q-40 0 -71.5 30.5t-31.5 70.5z" />
<glyph unicode="&#xa9;" horiz-adv-x="1902" d="M143 791q0 163 64.5 312t173 257t258.5 172.5t313 64.5q165 0 315 -65t257.5 -173.5t171 -257t63.5 -310.5q0 -165 -64.5 -315.5t-173 -259t-257.5 -172.5t-312 -64t-312.5 64t-258.5 172.5t-173.5 259t-64.5 315.5zM250 797q0 -193 93.5 -356.5t256 -259t356.5 -95.5 q144 0 273.5 56.5t222 152t147 227t54.5 275.5q0 140 -55 268.5t-148.5 221.5t-222.5 148.5t-271 55.5q-143 0 -274 -55.5t-225.5 -148.5t-150.5 -221.5t-56 -268.5zM444 797q0 138 71.5 258.5t195.5 193t268 72.5q160 0 340 -111l-109 -168q-114 80 -231 80 q-134 0 -229 -96.5t-95 -228.5q0 -133 95 -228.5t229 -95.5q119 0 246 100l108 -172q-186 -127 -354 -127q-151 0 -275 73t-192 192.5t-68 257.5z" />
<glyph unicode="&#xaa;" horiz-adv-x="958" d="M113 979q0 270 393 270q65 0 135 -8v68q0 68 -48.5 110.5t-105.5 42.5q-65 0 -116.5 -17t-110.5 -71l-108 111q80 77 159 108t176 31q142 0 240 -87t98 -228v-580h-184v82q-36 -42 -98.5 -75.5t-143.5 -33.5q-122 0 -204 76.5t-82 200.5zM295 979q0 -44 42.5 -76.5 t90.5 -32.5q96 0 154.5 46.5t58.5 101.5v78q-90 8 -137 8q-209 0 -209 -125z" />
<glyph unicode="&#xab;" horiz-adv-x="1075" d="M51 512l410 512h196l-409 -512l409 -512h-196zM367 512l409 512h197l-410 -512l410 -512h-197z" />
<glyph unicode="&#xac;" horiz-adv-x="1392" d="M143 854v164h1106v-483h-164v319h-942z" />
<glyph unicode="&#xad;" horiz-adv-x="886" d="M102 485v164h682v-164h-682z" />
<glyph unicode="&#xae;" horiz-adv-x="1902" d="M143 791q0 163 64.5 312t173 257t258.5 172.5t313 64.5q165 0 315 -65t257.5 -173.5t171 -257t63.5 -310.5q0 -165 -64.5 -315.5t-173 -259t-257.5 -172.5t-312 -64t-312.5 64t-258.5 172.5t-173.5 259t-64.5 315.5zM250 797q0 -193 93.5 -356.5t256 -259t356.5 -95.5 q144 0 273.5 56.5t222 152t147 227t54.5 275.5q0 140 -55 268.5t-148.5 221.5t-222.5 148.5t-271 55.5q-143 0 -274 -55.5t-225.5 -148.5t-150.5 -221.5t-56 -268.5zM633 319v1008h321q163 0 265 -86t102 -233q0 -87 -56.5 -162t-144.5 -98l295 -429h-239l-244 383h-92v-383 h-207zM840 903h123q63 0 110 27t47 78q0 62 -48.5 91t-117.5 29h-114v-225z" />
<glyph unicode="&#xaf;" horiz-adv-x="1126" d="M205 1444v133h717v-133h-717z" />
<glyph unicode="&#xb0;" horiz-adv-x="645" d="M123 1425q0 83 59 141t142 58t140.5 -58t57.5 -141t-57.5 -141.5t-140.5 -58.5t-142 58.5t-59 141.5zM221 1425q0 -38 32 -70t69 -32q41 0 72.5 31.5t31.5 70.5q0 40 -31.5 71.5t-72.5 31.5q-37 0 -69 -32t-32 -71z" />
<glyph unicode="&#xb1;" horiz-adv-x="1351" d="M143 104v164h1065v-164h-1065zM143 813v164h451v450h164v-450h450v-164h-450v-451h-164v451h-451z" />
<glyph unicode="&#xb2;" horiz-adv-x="829" d="M123 811q315 424 389 520q33 42 33 99q0 52 -33 83t-82 31q-45 0 -86 -15t-98 -54l-78 104q80 57 137 78.5t125 21.5q46 0 89.5 -14t83 -42t63.5 -78t24 -115q0 -92 -76 -187l-229 -297h322v-135h-584z" />
<glyph unicode="&#xb3;" horiz-adv-x="817" d="M123 895l76 106q63 -44 102 -60.5t84 -16.5q58 0 98.5 42.5t40.5 104.5q0 54 -28.5 89.5t-64.5 48t-77 12.5h-118l215 307h-263v131h506l-225 -316q87 -31 144 -102.5t57 -169.5q0 -120 -80 -200t-205 -80q-66 0 -123 22.5t-139 81.5z" />
<glyph unicode="&#xb4;" horiz-adv-x="899" d="M205 1229l287 348h202l-329 -348h-160z" />
<glyph unicode="&#xb5;" horiz-adv-x="1157" d="M154 -469v1493h217v-674q0 -73 51 -131.5t121 -58.5q61 0 109.5 29.5t76.5 77t42.5 102.5t14.5 112v543h218v-1024h-218v127q-38 -62 -115.5 -111t-174.5 -49q-67 0 -125 25v-461h-217z" />
<glyph unicode="&#xb6;" horiz-adv-x="1507" d="M154 1118q0 108 43.5 196t118.5 145t172.5 87.5t207.5 30.5h658v-184h-115v-1393h-201v1393h-102v-1393h-201v682h-59q-102 0 -195 29t-166.5 83t-117 138t-43.5 186z" />
<glyph unicode="&#xb7;" horiz-adv-x="450" d="M102 760q0 52 36 88.5t87 36.5q52 0 87.5 -36t35.5 -89q0 -50 -35.5 -86.5t-87.5 -36.5q-51 0 -87 36.5t-36 86.5z" />
<glyph unicode="&#xb8;" horiz-adv-x="634" d="M205 -258q43 0 70.5 5.5t47 23.5t19.5 49q0 29 -28 85.5t-62 94.5h76q4 -4 11.5 -12t25 -30.5t30.5 -45t24 -52t11 -55.5q0 -93 -65 -143.5t-160 -50.5v131z" />
<glyph unicode="&#xb9;" horiz-adv-x="432" d="M143 811v848h146v-848h-146z" />
<glyph unicode="&#xba;" horiz-adv-x="1146" d="M113 1163q0 121 62 227.5t168.5 170t229.5 63.5q94 0 179.5 -37.5t147 -100.5t98 -147.5t36.5 -175.5q0 -123 -58.5 -229t-165 -170t-237.5 -64q-129 0 -235.5 64t-165.5 170t-59 229zM299 1163q0 -119 79 -209t195 -90q118 0 196.5 90t78.5 209q0 117 -78.5 207 t-196.5 90q-115 0 -194.5 -90.5t-79.5 -206.5z" />
<glyph unicode="&#xbb;" horiz-adv-x="1075" d="M102 0l410 512l-410 512h197l410 -512l-410 -512h-197zM418 0l409 512l-409 512h196l410 -512l-410 -512h-196z" />
<glyph unicode="&#xbc;" horiz-adv-x="1402" d="M143 729v848h146v-848h-146zM213 0l580 1577h135l-580 -1577h-135zM616 238l535 634v-507h109v-127h-109v-238h-139v238h-396zM868 365h144v167z" />
<glyph unicode="&#xbd;" horiz-adv-x="1449" d="M143 729v848h146v-848h-146zM213 0l580 1577h135l-580 -1577h-135zM723 0q315 424 389 520q33 42 33 98q0 52 -33 83.5t-82 31.5q-45 0 -86 -15t-98 -54l-78 104q80 57 137 78.5t125 21.5q46 0 89.5 -14t83 -42t63.5 -78.5t24 -115.5q0 -91 -76 -186l-229 -297h322v-135 h-584z" />
<glyph unicode="&#xbe;" horiz-adv-x="1734" d="M143 813l76 107q64 -44 103.5 -61t83.5 -17q58 0 98.5 42.5t40.5 104.5q0 54 -28.5 89.5t-64.5 48t-77 12.5h-119l215 307h-262v131h506l-226 -315q87 -31 144 -103t57 -170q0 -120 -79.5 -200t-204.5 -80q-66 0 -123.5 23t-139.5 81zM545 0l579 1577h136l-580 -1577 h-135zM948 238l535 634v-507h108v-127h-108v-238h-140v238h-395zM1200 365h143v167z" />
<glyph unicode="&#xbf;" horiz-adv-x="1277" d="M184 -76q0 52 8 95t26.5 79t36.5 62t52 54.5t57.5 46.5t67.5 48l39 27q39 27 55 40.5t36 44.5t27 76.5t7 116.5h223q-2 -102 -14 -168t-42.5 -117.5t-68 -86t-106.5 -82.5q-11 -8 -36.5 -24.5t-35.5 -23.5t-29.5 -22.5t-27.5 -25t-20.5 -26t-17.5 -32.5t-9 -37t-4 -45 q0 -59 21.5 -105t57 -72.5t75 -40t79.5 -13.5q98 0 166.5 19.5t171.5 94.5l115 -157q-136 -93 -232.5 -127.5t-220.5 -34.5q-62 0 -122.5 13t-122 45.5t-108 80.5t-75.5 124.5t-29 172.5zM567 887q0 59 41 98t99 39q61 0 100 -38.5t39 -98.5t-39 -101t-100 -41 q-57 0 -98.5 42t-41.5 100z" />
<glyph unicode="&#xc0;" horiz-adv-x="1626" d="M61 0l754 1624l750 -1624h-248l-182 412h-643l-183 -412h-248zM471 2048l330 -348h160l-287 348h-203zM575 616h476l-236 519z" />
<glyph unicode="&#xc1;" horiz-adv-x="1626" d="M61 0l754 1624l750 -1624h-248l-182 412h-643l-183 -412h-248zM575 616h476l-236 519zM684 1700l287 348h203l-330 -348h-160z" />
<glyph unicode="&#xc2;" horiz-adv-x="1626" d="M61 0l754 1624l750 -1624h-248l-182 412h-643l-183 -412h-248zM469 1700l268 348h156l268 -348h-106l-240 211l-240 -211h-106zM575 616h476l-236 519z" />
<glyph unicode="&#xc3;" horiz-adv-x="1626" d="M61 0l754 1624l750 -1624h-248l-182 412h-643l-183 -412h-248zM430 1726q0 107 60 194t143 87q46 0 98 -22.5t91 -49t88 -49t91 -22.5q117 0 117 139h86q0 -104 -59 -192.5t-139 -88.5q-46 0 -99 22.5t-92.5 49.5t-89.5 49.5t-92 22.5q-117 0 -117 -140h-86zM575 616h476 l-236 519z" />
<glyph unicode="&#xc4;" horiz-adv-x="1626" d="M61 0l754 1624l750 -1624h-248l-182 412h-643l-183 -412h-248zM532 1800q0 44 30.5 74.5t70.5 30.5q44 0 74 -30.5t30 -74.5q0 -40 -30 -70t-74 -30q-40 0 -70.5 30t-30.5 70zM575 616h476l-236 519zM891 1800q0 44 30.5 74.5t71.5 30.5q43 0 74 -30.5t31 -74.5 q0 -40 -31 -70t-74 -30q-40 0 -71 30t-31 70z" />
<glyph unicode="&#xc5;" horiz-adv-x="1626" d="M61 0l713 1532q-68 14 -113 68.5t-45 125.5q0 82 58.5 140.5t140.5 58.5t140.5 -58.5t58.5 -140.5q0 -71 -46 -125.5t-114 -68.5l711 -1532h-248l-221 504h-564l-223 -504h-248zM616 709h394l-195 426zM709 1726q0 -40 33 -73t73 -33q41 0 75 33t34 73q0 41 -34 75 t-75 34q-40 0 -73 -34t-33 -75z" />
<glyph unicode="&#xc6;" horiz-adv-x="2177" d="M51 0l1053 1577h899v-205h-698v-506h620v-204h-620v-457h718v-205h-948v662h-340l-430 -662h-254zM874 866h201v312z" />
<glyph unicode="&#xc7;" horiz-adv-x="1671" d="M154 788q0 163 65.5 312.5t175 258t260.5 173.5t314 65q272 0 526 -170l-111 -167q-198 133 -415 133q-159 0 -292.5 -85t-208.5 -224t-75 -296q0 -117 44.5 -227.5t120.5 -193.5t184 -133t227 -50q104 0 222 41t226 119l111 -164q-124 -95 -269 -146.5t-282 -53.5 q84 -101 84 -175q0 -93 -65 -143.5t-160 -50.5v131q43 0 70.5 5.5t47 23.5t19.5 49q0 26 -23.5 76t-54.5 88q-152 14 -289 83.5t-236.5 176t-157.5 249t-58 295.5z" />
<glyph unicode="&#xc8;" horiz-adv-x="1290" d="M184 0v1577h932v-205h-698v-481h616v-205h-616v-481h719v-205h-953zM379 2048l330 -348h159l-286 348h-203z" />
<glyph unicode="&#xc9;" horiz-adv-x="1290" d="M184 0v1577h932v-205h-698v-481h616v-205h-616v-481h719v-205h-953zM434 1700l287 348h203l-330 -348h-160z" />
<glyph unicode="&#xca;" horiz-adv-x="1290" d="M184 0v1577h932v-205h-698v-481h616v-205h-616v-481h719v-205h-953zM311 1700l269 348h155l269 -348h-107l-240 211l-239 -211h-107z" />
<glyph unicode="&#xcb;" horiz-adv-x="1290" d="M184 0v1577h932v-205h-698v-481h616v-205h-616v-481h719v-205h-953zM373 1800q0 44 30 74.5t70 30.5q44 0 74.5 -30.5t30.5 -74.5q0 -40 -30.5 -70t-74.5 -30q-40 0 -70 30t-30 70zM731 1800q0 43 31 74t72 31q43 0 73.5 -30.5t30.5 -74.5q0 -40 -31 -70t-73 -30 q-40 0 -71.5 30.5t-31.5 69.5z" />
<glyph unicode="&#xcc;" horiz-adv-x="561" d="M-31 2048h203l287 -348h-160zM109 0v1577h233v-1577h-233z" />
<glyph unicode="&#xcd;" horiz-adv-x="561" d="M102 1700l287 348h203l-330 -348h-160zM139 0v1577h234v-1577h-234z" />
<glyph unicode="&#xce;" horiz-adv-x="548" d="M-72 1700l269 348h155l269 -348h-107l-240 211l-239 -211h-107zM158 0v1577h233v-1577h-233z" />
<glyph unicode="&#xcf;" horiz-adv-x="503" d="M-31 1800q0 44 30.5 74.5t70.5 30.5q44 0 74 -30.5t30 -74.5q0 -40 -30 -70t-74 -30q-40 0 -70.5 30t-30.5 70zM137 0v1577h234v-1577h-234zM328 1800q0 44 31 74.5t71 30.5q43 0 74 -30.5t31 -74.5q0 -40 -31 -70t-74 -30q-40 0 -71 30t-31 70z" />
<glyph unicode="&#xd0;" horiz-adv-x="1622" d="M72 483v133h100v961h496q171 0 320.5 -61.5t254.5 -167t165 -250.5t60 -307q0 -163 -60 -309t-164.5 -252t-254 -168t-321.5 -62h-496v483h-100zM406 205h262q159 0 288.5 79t201 213t71.5 294q0 158 -71.5 291t-201 211.5t-288.5 78.5h-262v-756h350v-133h-350v-278z " />
<glyph unicode="&#xd1;" horiz-adv-x="1697" d="M184 0v1624l1096 -1110v1063h233v-1640l-1095 1107v-1044h-234zM449 1729q0 107 59.5 193.5t142.5 86.5q46 0 98 -22.5t91 -49t88.5 -49t91.5 -22.5q117 0 117 139h86q0 -104 -59.5 -192.5t-139.5 -88.5q-46 0 -99 22.5t-92.5 49.5t-89.5 49.5t-92 22.5q-116 0 -116 -139 h-86z" />
<glyph unicode="&#xd2;" horiz-adv-x="1904" d="M143 791q0 163 64.5 312t173 257t259 172.5t314.5 64.5q165 0 315 -65t257.5 -173.5t171 -257t63.5 -310.5q0 -165 -64.5 -315.5t-173 -259t-257.5 -172.5t-312 -64q-164 0 -313.5 64t-258.5 172.5t-174 259t-65 315.5zM383 791q0 -118 44 -229t119 -194.5t182 -133.5 t226 -50q158 0 289.5 85t205 224t73.5 298q0 118 -43.5 228t-118.5 192.5t-181 132t-225 49.5q-159 0 -291 -84t-206 -222t-74 -296zM635 2048l330 -348h159l-286 348h-203z" />
<glyph unicode="&#xd3;" horiz-adv-x="1904" d="M143 791q0 163 64.5 312t173 257t259 172.5t314.5 64.5q165 0 315 -65t257.5 -173.5t171 -257t63.5 -310.5q0 -165 -64.5 -315.5t-173 -259t-257.5 -172.5t-312 -64q-164 0 -313.5 64t-258.5 172.5t-174 259t-65 315.5zM383 791q0 -118 44 -229t119 -194.5t182 -133.5 t226 -50q158 0 289.5 85t205 224t73.5 298q0 118 -43.5 228t-118.5 192.5t-181 132t-225 49.5q-159 0 -291 -84t-206 -222t-74 -296zM827 1700l287 348h203l-330 -348h-160z" />
<glyph unicode="&#xd4;" horiz-adv-x="1904" d="M143 791q0 163 64.5 312t173 257t259 172.5t314.5 64.5q165 0 315 -65t257.5 -173.5t171 -257t63.5 -310.5q0 -165 -64.5 -315.5t-173 -259t-257.5 -172.5t-312 -64q-164 0 -313.5 64t-258.5 172.5t-174 259t-65 315.5zM383 791q0 -118 44 -229t119 -194.5t182 -133.5 t226 -50q158 0 289.5 85t205 224t73.5 298q0 118 -43.5 228t-118.5 192.5t-181 132t-225 49.5q-159 0 -291 -84t-206 -222t-74 -296zM606 1700l268 348h156l268 -348h-106l-240 211l-239 -211h-107z" />
<glyph unicode="&#xd5;" horiz-adv-x="1904" d="M143 791q0 163 64.5 312t173 257t259 172.5t314.5 64.5q165 0 315 -65t257.5 -173.5t171 -257t63.5 -310.5q0 -165 -64.5 -315.5t-173 -259t-257.5 -172.5t-312 -64q-164 0 -313.5 64t-258.5 172.5t-174 259t-65 315.5zM383 791q0 -118 44 -229t119 -194.5t182 -133.5 t226 -50q158 0 289.5 85t205 224t73.5 298q0 118 -43.5 228t-118.5 192.5t-181 132t-225 49.5q-159 0 -291 -84t-206 -222t-74 -296zM567 1729q0 107 60 193.5t143 86.5q46 0 98 -22.5t91 -49t88.5 -49t91.5 -22.5q116 0 116 139h86q0 -104 -59 -192.5t-139 -88.5 q-46 0 -99 22.5t-92.5 49.5t-89.5 49.5t-92 22.5q-117 0 -117 -139h-86z" />
<glyph unicode="&#xd6;" horiz-adv-x="1904" d="M143 791q0 163 64.5 312t173 257t259 172.5t314.5 64.5q165 0 315 -65t257.5 -173.5t171 -257t63.5 -310.5q0 -165 -64.5 -315.5t-173 -259t-257.5 -172.5t-312 -64q-164 0 -313.5 64t-258.5 172.5t-174 259t-65 315.5zM383 791q0 -118 44 -229t119 -194.5t182 -133.5 t226 -50q158 0 289.5 85t205 224t73.5 298q0 118 -43.5 228t-118.5 192.5t-181 132t-225 49.5q-159 0 -291 -84t-206 -222t-74 -296zM668 1800q0 44 30 74.5t70 30.5q44 0 74 -30.5t30 -74.5q0 -40 -30 -70t-74 -30q-40 0 -70 30t-30 70zM1026 1800q0 44 31 74.5t71 30.5 q43 0 74 -30.5t31 -74.5q0 -40 -31 -70t-74 -30q-40 0 -71 30t-31 70z" />
<glyph unicode="&#xd7;" horiz-adv-x="1155" d="M143 469l318 319l-318 320l115 115l320 -318l319 318l115 -115l-318 -320l318 -319l-115 -115l-319 318l-320 -318z" />
<glyph unicode="&#xd8;" horiz-adv-x="1904" d="M143 0l217 240q-103 109 -160 251.5t-57 299.5q0 163 64.5 312t173 257t259 172.5t314.5 64.5q273 0 490 -167l133 147h184l-217 -240q103 -111 160 -251.5t57 -294.5q0 -165 -64.5 -315.5t-173 -259t-257.5 -172.5t-312 -64q-277 0 -493 167l-133 -147h-185zM383 791 q0 -216 129 -383l784 862q-152 123 -342 123q-159 0 -291 -84t-206 -222t-74 -296zM608 309q151 -125 346 -125q158 0 289.5 85t205 224t73.5 298q0 209 -129 380z" />
<glyph unicode="&#xd9;" horiz-adv-x="1662" d="M186 612v21v944h234v-944q0 -116 53.5 -219t149 -166.5t208.5 -63.5t209 63.5t149.5 166.5t53.5 219v944h234v-940q0 -172 -87.5 -324t-237 -242.5t-321.5 -90.5q-167 0 -316 86t-239 232.5t-90 313.5zM504 2048l330 -348h159l-286 348h-203z" />
<glyph unicode="&#xda;" horiz-adv-x="1662" d="M186 612v21v944h234v-944q0 -116 53.5 -219t149 -166.5t208.5 -63.5t209 63.5t149.5 166.5t53.5 219v944h234v-940q0 -172 -87.5 -324t-237 -242.5t-321.5 -90.5q-167 0 -316 86t-239 232.5t-90 313.5zM705 1700l286 348h203l-330 -348h-159z" />
<glyph unicode="&#xdb;" horiz-adv-x="1662" d="M186 612v21v944h234v-944q0 -116 53.5 -219t149 -166.5t208.5 -63.5t209 63.5t149.5 166.5t53.5 219v944h234v-940q0 -172 -87.5 -324t-237 -242.5t-321.5 -90.5q-167 0 -316 86t-239 232.5t-90 313.5zM485 1700l269 348h155l269 -348h-107l-240 211l-239 -211h-107z" />
<glyph unicode="&#xdc;" horiz-adv-x="1662" d="M186 612v21v944h234v-944q0 -116 53.5 -219t149 -166.5t208.5 -63.5t209 63.5t149.5 166.5t53.5 219v944h234v-940q0 -172 -87.5 -324t-237 -242.5t-321.5 -90.5q-167 0 -316 86t-239 232.5t-90 313.5zM549 1800q0 44 30 74.5t70 30.5q44 0 74.5 -30.5t30.5 -74.5 q0 -40 -30.5 -70t-74.5 -30q-40 0 -70 30t-30 70zM907 1800q0 43 31 74t72 31q43 0 73.5 -30.5t30.5 -74.5q0 -40 -31 -70t-73 -30q-40 0 -71.5 30.5t-31.5 69.5z" />
<glyph unicode="&#xdd;" horiz-adv-x="1552" d="M61 1577h263l454 -686l453 686h260l-596 -897v-680h-233v680zM625 1700l286 348h203l-330 -348h-159z" />
<glyph unicode="&#xde;" horiz-adv-x="1255" d="M184 0v1577h232v-285h143q89 0 170.5 -18.5t151.5 -56.5t121.5 -92t80.5 -130t29 -166q0 -105 -44.5 -189t-120 -136t-170 -79.5t-199.5 -27.5h-162v-397h-232zM416 602h162q127 0 215 61.5t88 165.5q0 124 -91 191t-231 67h-143v-485z" />
<glyph unicode="&#xdf;" horiz-adv-x="1159" d="M154 0v1169q0 198 107.5 316.5t305.5 118.5q76 0 147.5 -27t131 -78.5t95.5 -137t36 -192.5q0 -98 -56 -184t-133 -129q109 -52 184 -163t75 -238q0 -94 -24 -169.5t-60 -122t-87.5 -80.5t-95.5 -49.5t-97 -24t-79 -9.5t-53 0v193q68 0 117.5 13t79.5 35t47.5 56.5 t23.5 71.5t6 86t-7 88.5t-25.5 77t-48 62.5t-78.5 40.5t-113 15.5v176q203 70 203 254q0 104 -56 173t-133 69q-51 0 -89 -18.5t-58 -45t-32.5 -62t-15.5 -62.5t-3 -54v-1169h-215z" />
<glyph unicode="&#xe0;" d="M123 295q0 319 465 319q87 0 162 -10v80q0 81 -57.5 130.5t-125.5 49.5q-79 0 -140 -18.5t-128 -81.5l-129 129q95 90 189 127t208 37q167 0 283.5 -103.5t116.5 -269.5v-684h-217v98q-42 -50 -117 -89.5t-170 -39.5q-145 0 -242.5 90t-97.5 236zM260 1577l330 -348h160 l-287 348h-203zM340 295q0 -52 50 -90.5t108 -38.5q113 0 182.5 55t69.5 119v92q-92 10 -162 10q-248 0 -248 -147z" />
<glyph unicode="&#xe1;" d="M123 295q0 319 465 319q87 0 162 -10v80q0 81 -57.5 130.5t-125.5 49.5q-79 0 -140 -18.5t-128 -81.5l-129 129q95 90 189 127t208 37q167 0 283.5 -103.5t116.5 -269.5v-684h-217v98q-42 -50 -117 -89.5t-170 -39.5q-145 0 -242.5 90t-97.5 236zM340 295q0 -52 50 -90.5 t108 -38.5q113 0 182.5 55t69.5 119v92q-92 10 -162 10q-248 0 -248 -147zM399 1229l287 348h203l-330 -348h-160z" />
<glyph unicode="&#xe2;" d="M123 295q0 319 465 319q87 0 162 -10v80q0 81 -57.5 130.5t-125.5 49.5q-79 0 -140 -18.5t-128 -81.5l-129 129q95 90 189 127t208 37q167 0 283.5 -103.5t116.5 -269.5v-684h-217v98q-42 -50 -117 -89.5t-170 -39.5q-145 0 -242.5 90t-97.5 236zM223 1229l269 348h155 l268 -348h-106l-240 211l-239 -211h-107zM340 295q0 -52 50 -90.5t108 -38.5q113 0 182.5 55t69.5 119v92q-92 10 -162 10q-248 0 -248 -147z" />
<glyph unicode="&#xe3;" d="M123 295q0 319 465 319q87 0 162 -10v80q0 81 -57.5 130.5t-125.5 49.5q-79 0 -140 -18.5t-128 -81.5l-129 129q95 90 189 127t208 37q167 0 283.5 -103.5t116.5 -269.5v-684h-217v98q-42 -50 -117 -89.5t-170 -39.5q-145 0 -242.5 90t-97.5 236zM160 1296 q0 107 59.5 194t142.5 87q46 0 98 -22.5t91 -49t88.5 -49t91.5 -22.5q117 0 117 139h86q0 -104 -59.5 -192.5t-139.5 -88.5q-46 0 -99 22.5t-92.5 49.5t-89.5 49.5t-92 22.5q-116 0 -116 -140h-86zM340 295q0 -52 50 -90.5t108 -38.5q113 0 182.5 55t69.5 119v92 q-92 10 -162 10q-248 0 -248 -147z" />
<glyph unicode="&#xe4;" d="M123 295q0 319 465 319q87 0 162 -10v80q0 81 -57.5 130.5t-125.5 49.5q-79 0 -140 -18.5t-128 -81.5l-129 129q95 90 189 127t208 37q167 0 283.5 -103.5t116.5 -269.5v-684h-217v98q-42 -50 -117 -89.5t-170 -39.5q-145 0 -242.5 90t-97.5 236zM270 1432q0 44 30 74 t71 30q44 0 74 -30t30 -74q0 -40 -30.5 -70.5t-73.5 -30.5q-40 0 -70.5 30.5t-30.5 70.5zM340 295q0 -52 50 -90.5t108 -38.5q113 0 182.5 55t69.5 119v92q-92 10 -162 10q-248 0 -248 -147zM629 1432q0 43 30.5 73.5t71.5 30.5q43 0 74 -30t31 -74q0 -40 -31.5 -70.5 t-73.5 -30.5q-40 0 -71 30.5t-31 70.5z" />
<glyph unicode="&#xe5;" d="M123 295q0 319 465 319q87 0 162 -10v80q0 81 -57.5 130.5t-125.5 49.5q-79 0 -140 -18.5t-128 -81.5l-129 129q95 90 189 127t208 37q167 0 283.5 -103.5t116.5 -269.5v-684h-217v98q-42 -50 -117 -89.5t-170 -39.5q-145 0 -242.5 90t-97.5 236zM340 295q0 -52 50 -90.5 t108 -38.5q113 0 182.5 55t69.5 119v92q-92 10 -162 10q-248 0 -248 -147zM354 1378q0 82 58.5 140.5t140.5 58.5t140.5 -58.5t58.5 -140.5t-58.5 -140t-140.5 -58t-140.5 58t-58.5 140zM446 1378q0 -40 33.5 -73t73.5 -33q41 0 75 33t34 73q0 41 -34 75t-75 34 q-40 0 -73.5 -34t-33.5 -75z" />
<glyph unicode="&#xe6;" horiz-adv-x="1906" d="M123 295q0 319 465 319q87 0 162 -10v80q0 81 -57.5 130.5t-125.5 49.5q-79 0 -140 -18.5t-128 -81.5l-129 129q95 90 189 127t208 37q109 0 201.5 -48t144.5 -132q71 84 172 132t220 48q98 0 187.5 -35t158.5 -99t110 -164.5t41 -221.5v-29h-794q8 -131 102.5 -238.5 t228.5 -107.5q50 0 89.5 4.5t102.5 26.5t122 63l106 -154q-98 -76 -203.5 -104.5t-234.5 -28.5q-201 0 -354 140v-109h-217v98q-42 -50 -117 -89.5t-170 -39.5q-145 0 -242.5 90t-97.5 236zM340 295q0 -52 50 -90.5t108 -38.5q113 0 182.5 55t69.5 119v92q-92 10 -162 10 q-248 0 -248 -147zM1026 674h551q-24 87 -93.5 138.5t-178.5 51.5q-107 0 -179 -50t-100 -140z" />
<glyph unicode="&#xe7;" d="M113 514q0 108 41.5 208t111.5 173.5t167.5 117.5t205.5 44q183 0 356 -109l-96 -162q-69 44 -128.5 61t-131.5 17q-129 0 -216 -104.5t-87 -245.5q0 -139 88 -245.5t215 -106.5q146 0 272 92l107 -150q-180 -128 -365 -135q76 -91 76 -164q0 -93 -65 -143.5t-160 -50.5 v131q43 0 70.5 5.5t47 23.5t19.5 49q0 24 -21 69t-49 84q-133 16 -238.5 94.5t-162.5 195.5t-57 251z" />
<glyph unicode="&#xe8;" horiz-adv-x="1234" d="M113 512q0 146 65.5 270.5t185.5 199.5t269 75q98 0 187.5 -35t158.5 -99t110 -164.5t41 -221.5v-29h-794q8 -131 103 -238.5t229 -107.5q50 0 89 4.5t102 26.5t122 63l106 -154q-98 -76 -203.5 -104.5t-234.5 -28.5q-108 0 -207 44t-171 118t-115 174t-43 207zM313 1577 l330 -348h160l-287 348h-203zM354 674h551q-24 87 -93.5 138.5t-178.5 51.5q-107 0 -179 -50t-100 -140z" />
<glyph unicode="&#xe9;" horiz-adv-x="1234" d="M113 512q0 146 65.5 270.5t185.5 199.5t269 75q98 0 187.5 -35t158.5 -99t110 -164.5t41 -221.5v-29h-794q8 -131 103 -238.5t229 -107.5q50 0 89 4.5t102 26.5t122 63l106 -154q-98 -76 -203.5 -104.5t-234.5 -28.5q-108 0 -207 44t-171 118t-115 174t-43 207zM354 674 h551q-24 87 -93.5 138.5t-178.5 51.5q-107 0 -179 -50t-100 -140zM508 1229l287 348h202l-329 -348h-160z" />
<glyph unicode="&#xea;" horiz-adv-x="1234" d="M113 512q0 146 65.5 270.5t185.5 199.5t269 75q98 0 187.5 -35t158.5 -99t110 -164.5t41 -221.5v-29h-794q8 -131 103 -238.5t229 -107.5q50 0 89 4.5t102 26.5t122 63l106 -154q-98 -76 -203.5 -104.5t-234.5 -28.5q-108 0 -207 44t-171 118t-115 174t-43 207zM279 1229 l268 348h155l269 -348h-107l-239 211l-240 -211h-106zM354 674h551q-24 87 -93.5 138.5t-178.5 51.5q-107 0 -179 -50t-100 -140z" />
<glyph unicode="&#xeb;" horiz-adv-x="1234" d="M113 512q0 146 65.5 270.5t185.5 199.5t269 75q98 0 187.5 -35t158.5 -99t110 -164.5t41 -221.5v-29h-794q8 -131 103 -238.5t229 -107.5q50 0 89 4.5t102 26.5t122 63l106 -154q-98 -76 -203.5 -104.5t-234.5 -28.5q-108 0 -207 44t-171 118t-115 174t-43 207zM346 1432 q0 44 30 74t70 30q44 0 74.5 -30t30.5 -74q0 -40 -30.5 -70.5t-74.5 -30.5q-40 0 -70 30.5t-30 70.5zM354 674h551q-24 87 -93.5 138.5t-178.5 51.5q-107 0 -179 -50t-100 -140zM705 1432q0 43 30.5 73.5t71.5 30.5q43 0 73.5 -30t30.5 -74q0 -40 -31 -70.5t-73 -30.5 q-40 0 -71 30.5t-31 70.5z" />
<glyph unicode="&#xec;" horiz-adv-x="509" d="M-41 1577l330 -348h160l-287 348h-203zM113 0v1024h217v-1024h-217z" />
<glyph unicode="&#xed;" horiz-adv-x="509" d="M61 1229l287 348h203l-330 -348h-160zM115 0v1024h217v-1024h-217z" />
<glyph unicode="&#xee;" horiz-adv-x="528" d="M-82 1229l268 348h156l268 -348h-106l-240 211l-239 -211h-107zM156 0v1024h217v-1024h-217z" />
<glyph unicode="&#xef;" horiz-adv-x="442" d="M-61 1432q0 44 30 74t70 30q44 0 74 -30t30 -74q0 -40 -30.5 -70.5t-73.5 -30.5q-40 0 -70 30.5t-30 70.5zM115 0v1024h217v-1024h-217zM297 1432q0 43 30.5 73.5t71.5 30.5q43 0 74 -30t31 -74q0 -40 -31.5 -70.5t-73.5 -30.5q-40 0 -71 30.5t-31 70.5z" />
<glyph unicode="&#xf0;" horiz-adv-x="1224" d="M123 467q0 131 66 241.5t178.5 174t244.5 63.5q79 0 156 -24q-90 129 -162 215l-225 -127l-68 114l203 115q-108 108 -240 191l107 163q164 -122 299 -260l256 146l66 -117l-232 -131q330 -385 330 -764q0 -97 -39 -187t-105 -155.5t-156.5 -105t-189.5 -39.5 q-132 0 -244.5 66t-178.5 178.5t-66 242.5zM342 467q0 -116 75.5 -205.5t194.5 -89.5q81 0 144 43.5t95 110t32 141.5q0 120 -77.5 203.5t-193.5 83.5q-117 0 -193.5 -85t-76.5 -202z" />
<glyph unicode="&#xf1;" horiz-adv-x="1157" d="M154 0v1024h217v-127q38 62 116 111t175 49q103 0 182 -54.5t119.5 -142.5t40.5 -194v-666h-218v666q0 75 -50.5 136.5t-121.5 61.5q-61 0 -109.5 -29.5t-76.5 -77t-42.5 -102.5t-14.5 -112v-543h-217zM193 1296q0 107 59.5 194t142.5 87q46 0 98 -22.5t91 -49t88.5 -49 t91.5 -22.5q117 0 117 139h86q0 -104 -59.5 -192.5t-139.5 -88.5q-46 0 -99 22.5t-92.5 49.5t-89.5 49.5t-92 22.5q-116 0 -116 -140h-86z" />
<glyph unicode="&#xf2;" horiz-adv-x="1310" d="M113 514q0 142 73 267.5t198.5 200.5t270.5 75q110 0 211 -44t173.5 -118t115.5 -174t43 -207q0 -145 -69 -269.5t-195 -200t-279 -75.5q-114 0 -215.5 44.5t-172.5 118.5t-112.5 174t-41.5 208zM307 1577l330 -348h160l-287 348h-203zM334 514q0 -139 92.5 -245.5 t228.5 -106.5q137 0 229.5 106t92.5 246q0 138 -92.5 244t-229.5 106q-90 0 -165 -50.5t-115.5 -130.5t-40.5 -169z" />
<glyph unicode="&#xf3;" horiz-adv-x="1310" d="M113 514q0 142 73 267.5t198.5 200.5t270.5 75q110 0 211 -44t173.5 -118t115.5 -174t43 -207q0 -145 -69 -269.5t-195 -200t-279 -75.5q-114 0 -215.5 44.5t-172.5 118.5t-112.5 174t-41.5 208zM334 514q0 -139 92.5 -245.5t228.5 -106.5q137 0 229.5 106t92.5 246 q0 138 -92.5 244t-229.5 106q-90 0 -165 -50.5t-115.5 -130.5t-40.5 -169zM545 1229l286 348h203l-329 -348h-160z" />
<glyph unicode="&#xf4;" horiz-adv-x="1310" d="M113 514q0 142 73 267.5t198.5 200.5t270.5 75q110 0 211 -44t173.5 -118t115.5 -174t43 -207q0 -145 -69 -269.5t-195 -200t-279 -75.5q-114 0 -215.5 44.5t-172.5 118.5t-112.5 174t-41.5 208zM311 1229l269 348h155l269 -348h-107l-240 211l-239 -211h-107zM334 514 q0 -139 92.5 -245.5t228.5 -106.5q137 0 229.5 106t92.5 246q0 138 -92.5 244t-229.5 106q-90 0 -165 -50.5t-115.5 -130.5t-40.5 -169z" />
<glyph unicode="&#xf5;" horiz-adv-x="1310" d="M113 514q0 142 73 267.5t198.5 200.5t270.5 75q110 0 211 -44t173.5 -118t115.5 -174t43 -207q0 -145 -69 -269.5t-195 -200t-279 -75.5q-114 0 -215.5 44.5t-172.5 118.5t-112.5 174t-41.5 208zM270 1296q0 107 60 194t143 87q46 0 98 -22.5t91 -49t88.5 -49t91.5 -22.5 q116 0 116 139h86q0 -104 -59 -192.5t-139 -88.5q-46 0 -99 22.5t-92.5 49.5t-89.5 49.5t-92 22.5q-117 0 -117 -140h-86zM334 514q0 -139 92.5 -245.5t228.5 -106.5q137 0 229.5 106t92.5 246q0 138 -92.5 244t-229.5 106q-90 0 -165 -50.5t-115.5 -130.5t-40.5 -169z" />
<glyph unicode="&#xf6;" horiz-adv-x="1310" d="M113 514q0 142 73 267.5t198.5 200.5t270.5 75q110 0 211 -44t173.5 -118t115.5 -174t43 -207q0 -145 -69 -269.5t-195 -200t-279 -75.5q-114 0 -215.5 44.5t-172.5 118.5t-112.5 174t-41.5 208zM334 514q0 -139 92.5 -245.5t228.5 -106.5q137 0 229.5 106t92.5 246 q0 138 -92.5 244t-229.5 106q-90 0 -165 -50.5t-115.5 -130.5t-40.5 -169zM367 1432q0 44 30 74t70 30q44 0 74 -30t30 -74q0 -40 -30.5 -70.5t-73.5 -30.5q-40 0 -70 30.5t-30 70.5zM725 1432q0 43 30.5 73.5t71.5 30.5q43 0 74 -30t31 -74q0 -40 -31.5 -70.5t-73.5 -30.5 q-40 0 -71 30.5t-31 70.5z" />
<glyph unicode="&#xf7;" horiz-adv-x="1351" d="M143 707v163h1065v-163h-1065zM563 369q0 50 32 82t81 32q50 0 82.5 -32.5t32.5 -81.5t-32.5 -81t-82.5 -32t-81.5 32t-31.5 81zM563 1206q0 50 32 82.5t81 32.5q50 0 82.5 -32.5t32.5 -82.5q0 -49 -32.5 -80.5t-82.5 -31.5t-81.5 31.5t-31.5 80.5z" />
<glyph unicode="&#xf8;" horiz-adv-x="1310" d="M113 0l135 154q-135 151 -135 360q0 142 73 267.5t198.5 200.5t270.5 75q163 0 303 -96l56 63h184l-137 -154q137 -153 137 -356q0 -145 -69 -269.5t-195 -200t-279 -75.5q-171 0 -305 92l-53 -61h-184zM334 514q0 -108 57 -199l434 494q-74 55 -170 55q-90 0 -165 -50.5 t-115.5 -130.5t-40.5 -169zM485 215q74 -53 170 -53q137 0 229.5 106t92.5 246q0 107 -57 195z" />
<glyph unicode="&#xf9;" horiz-adv-x="1157" d="M154 358v666h217v-666q0 -75 50.5 -136.5t121.5 -61.5q61 0 109.5 29.5t76.5 77t42.5 102.5t14.5 112v543h218v-1024h-218v127q-38 -62 -115.5 -111t-174.5 -49q-103 0 -182 54.5t-119.5 142.5t-40.5 194zM252 1577l330 -348h159l-286 348h-203z" />
<glyph unicode="&#xfa;" horiz-adv-x="1157" d="M154 358v666h217v-666q0 -75 50.5 -136.5t121.5 -61.5q61 0 109.5 29.5t76.5 77t42.5 102.5t14.5 112v543h218v-1024h-218v127q-38 -62 -115.5 -111t-174.5 -49q-103 0 -182 54.5t-119.5 142.5t-40.5 194zM444 1229l287 348h203l-330 -348h-160z" />
<glyph unicode="&#xfb;" horiz-adv-x="1157" d="M154 358v666h217v-666q0 -75 50.5 -136.5t121.5 -61.5q61 0 109.5 29.5t76.5 77t42.5 102.5t14.5 112v543h218v-1024h-218v127q-38 -62 -115.5 -111t-174.5 -49q-103 0 -182 54.5t-119.5 142.5t-40.5 194zM233 1229l269 348h155l269 -348h-107l-239 211l-240 -211h-107z " />
<glyph unicode="&#xfc;" horiz-adv-x="1157" d="M154 358v666h217v-666q0 -75 50.5 -136.5t121.5 -61.5q61 0 109.5 29.5t76.5 77t42.5 102.5t14.5 112v543h218v-1024h-218v127q-38 -62 -115.5 -111t-174.5 -49q-103 0 -182 54.5t-119.5 142.5t-40.5 194zM293 1432q0 44 30 74t70 30q44 0 74.5 -30t30.5 -74 q0 -40 -30.5 -70.5t-74.5 -30.5q-40 0 -70 30.5t-30 70.5zM651 1432q0 43 31 73.5t72 30.5q43 0 73.5 -30t30.5 -74q0 -40 -31 -70.5t-73 -30.5q-40 0 -71.5 30.5t-31.5 70.5z" />
<glyph unicode="&#xfd;" horiz-adv-x="1116" d="M61 1024h234l254 -606l278 606h228l-725 -1536h-221l325 696zM418 1229l287 348h202l-329 -348h-160z" />
<glyph unicode="&#xfe;" horiz-adv-x="1216" d="M154 -512v2089h217v-614q103 94 254 94q129 0 240 -75t175 -200.5t64 -269.5t-64 -269t-175 -199.5t-240 -74.5q-153 0 -254 92v-573h-217zM371 262q107 -100 207 -100q125 0 214 105.5t89 244.5q0 140 -88.5 246t-214.5 106q-95 0 -207 -96v-506z" />
<glyph unicode="&#xff;" horiz-adv-x="1116" d="M61 1024h234l254 -606l278 606h228l-725 -1536h-221l325 696zM268 1432q0 44 30 74t71 30q44 0 74 -30t30 -74q0 -40 -30.5 -70.5t-73.5 -30.5q-40 0 -70.5 30.5t-30.5 70.5zM627 1432q0 43 30.5 73.5t71.5 30.5q43 0 74 -30t31 -74q0 -40 -31.5 -70.5t-73.5 -30.5 q-40 0 -71 30.5t-31 70.5z" />
<glyph unicode="&#x152;" horiz-adv-x="2119" d="M143 791q0 162 61 307t167 250.5t256.5 167t322.5 61.5h996v-205h-701v-481h619v-205h-619v-481h721v-205h-1016q-172 0 -323 62t-257 168t-166.5 252t-60.5 309zM377 791q0 -159 74 -293.5t206 -213.5t293 -79h66v1167h-66q-161 0 -293 -78.5t-206 -211.5t-74 -291z" />
<glyph unicode="&#x153;" horiz-adv-x="2258" d="M113 514q0 142 73 267.5t198.5 200.5t270.5 75q174 0 313.5 -102t196.5 -261q54 161 185.5 262t306.5 101q98 0 187.5 -35t158.5 -99t110 -164.5t41 -221.5v-29h-794q8 -131 103 -238.5t229 -107.5q50 0 89 4.5t102 26.5t122 63l106 -154q-98 -76 -203.5 -104.5 t-234.5 -28.5q-171 0 -310.5 103t-195.5 262q-56 -161 -193.5 -263t-318.5 -102q-114 0 -215.5 44.5t-172.5 118.5t-112.5 174t-41.5 208zM334 514q0 -139 92.5 -245.5t228.5 -106.5q137 0 229.5 106t92.5 246q0 138 -92.5 244t-229.5 106q-90 0 -165 -50.5t-115.5 -130.5 t-40.5 -169zM1378 674h551q-24 87 -93.5 138.5t-178.5 51.5q-107 0 -179 -50t-100 -140z" />
<glyph unicode="&#x178;" horiz-adv-x="1552" d="M61 1577h263l454 -686l453 686h260l-596 -897v-680h-233v680zM496 1800q0 44 30 74.5t70 30.5q44 0 74 -30.5t30 -74.5q0 -40 -30 -70t-74 -30q-40 0 -70 30t-30 70zM854 1800q0 44 31 74.5t71 30.5q43 0 74 -30.5t31 -74.5q0 -40 -31 -70t-74 -30q-40 0 -71 30t-31 70z " />
<glyph unicode="&#x2c6;" horiz-adv-x="1101" d="M205 1229l268 348h156l268 -348h-106l-240 211l-240 -211h-106z" />
<glyph unicode="&#x2dc;" horiz-adv-x="1183" d="M205 1337q0 107 60 194t143 87q46 0 98 -22.5t91 -49t88 -49t91 -22.5q117 0 117 139h86q0 -104 -59.5 -192.5t-139.5 -88.5q-46 0 -99 22.5t-92.5 49.5t-89 49.5t-91.5 22.5q-117 0 -117 -140h-86z" />
<glyph unicode="&#x2000;" horiz-adv-x="1024" />
<glyph unicode="&#x2001;" horiz-adv-x="2048" />
<glyph unicode="&#x2002;" horiz-adv-x="1024" />
<glyph unicode="&#x2003;" horiz-adv-x="2048" />
<glyph unicode="&#x2004;" horiz-adv-x="682" />
<glyph unicode="&#x2005;" horiz-adv-x="512" />
<glyph unicode="&#x2006;" horiz-adv-x="341" />
<glyph unicode="&#x2007;" horiz-adv-x="341" />
<glyph unicode="&#x2008;" horiz-adv-x="256" />
<glyph unicode="&#x2009;" horiz-adv-x="409" />
<glyph unicode="&#x200a;" horiz-adv-x="113" />
<glyph unicode="&#x2010;" horiz-adv-x="886" d="M102 485v164h682v-164h-682z" />
<glyph unicode="&#x2011;" horiz-adv-x="886" d="M102 485v164h682v-164h-682z" />
<glyph unicode="&#x2012;" horiz-adv-x="886" d="M102 485v164h682v-164h-682z" />
<glyph unicode="&#x2013;" horiz-adv-x="968" d="M102 481v164h764v-164h-764z" />
<glyph unicode="&#x2014;" horiz-adv-x="1050" d="M102 481v164h846v-164h-846z" />
<glyph unicode="&#x2018;" horiz-adv-x="452" d="M102 1196q0 276 203 428l43 -68q-54 -42 -93 -102.5t-50 -134.5q8 2 20 2q53 0 89 -35.5t36 -89.5q0 -50 -36.5 -86.5t-88.5 -36.5q-51 0 -87 36.5t-36 86.5z" />
<glyph unicode="&#x2019;" horiz-adv-x="452" d="M102 1501q0 50 36.5 86.5t88.5 36.5q51 0 87 -36.5t36 -86.5q0 -276 -203 -428l-43 68q122 94 144 237q-8 -2 -21 -2q-53 0 -89 35.5t-36 89.5z" />
<glyph unicode="&#x201a;" horiz-adv-x="452" d="M102 125q0 50 36.5 86.5t88.5 36.5q51 0 87 -36.5t36 -86.5q0 -276 -203 -428l-43 67q54 42 93.5 103t50.5 135q-8 -2 -21 -2q-53 0 -89 35.5t-36 89.5z" />
<glyph unicode="&#x201c;" horiz-adv-x="813" d="M102 1196q0 276 203 428l43 -68q-54 -42 -93 -102.5t-50 -134.5q8 2 20 2q53 0 89 -35.5t36 -89.5q0 -50 -36.5 -86.5t-88.5 -36.5q-51 0 -87 36.5t-36 86.5zM463 1196q0 276 203 428l43 -68q-122 -94 -144 -237q8 2 21 2q53 0 89 -35.5t36 -89.5q0 -50 -36.5 -86.5 t-88.5 -36.5q-51 0 -87 36.5t-36 86.5z" />
<glyph unicode="&#x201d;" horiz-adv-x="813" d="M102 1501q0 50 36.5 86.5t88.5 36.5q51 0 87 -36.5t36 -86.5q0 -276 -203 -428l-43 68q122 94 144 237q-8 -2 -21 -2q-53 0 -89 35.5t-36 89.5zM463 1501q0 50 36.5 86.5t88.5 36.5q51 0 87 -36.5t36 -86.5q0 -276 -203 -428l-43 68q54 42 93 102.5t50 134.5 q-8 -2 -20 -2q-53 0 -89 35.5t-36 89.5z" />
<glyph unicode="&#x201e;" horiz-adv-x="813" d="M102 125q0 50 36.5 86.5t88.5 36.5q51 0 87 -36.5t36 -86.5q0 -276 -203 -428l-43 67q54 42 93.5 103t50.5 135q-8 -2 -21 -2q-53 0 -89 35.5t-36 89.5zM463 125q0 50 36.5 86.5t88.5 36.5q51 0 87 -36.5t36 -86.5q0 -276 -203 -428l-43 67q54 41 93 102.5t50 135.5 q-8 -2 -20 -2q-53 0 -89 35.5t-36 89.5z" />
<glyph unicode="&#x2022;" horiz-adv-x="684" d="M205 645q0 57 40.5 97t96.5 40q57 0 97 -40t40 -97q0 -56 -40 -95.5t-97 -39.5q-56 0 -96.5 40t-40.5 95z" />
<glyph unicode="&#x2026;" horiz-adv-x="1413" d="M102 123q0 52 36 88.5t87 36.5q52 0 87.5 -36t35.5 -89q0 -51 -35.5 -87t-87.5 -36q-51 0 -87 36t-36 87zM584 123q0 52 36 88.5t87 36.5q52 0 87 -36t35 -89q0 -51 -35 -87t-87 -36q-51 0 -87 36t-36 87zM1065 123q0 52 36 88.5t87 36.5q52 0 87.5 -36t35.5 -89 q0 -51 -35.5 -87t-87.5 -36q-51 0 -87 36t-36 87z" />
<glyph unicode="&#x202f;" horiz-adv-x="409" />
<glyph unicode="&#x2039;" horiz-adv-x="759" d="M51 512l410 512h196l-409 -512l409 -512h-196z" />
<glyph unicode="&#x203a;" horiz-adv-x="759" d="M102 0l410 512l-410 512h197l410 -512l-410 -512h-197z" />
<glyph unicode="&#x205f;" horiz-adv-x="512" />
<glyph unicode="&#x20ac;" horiz-adv-x="1574" d="M102 580v133h80q-2 25 -2 75q0 51 2 76h-80v133h103q66 262 270.5 431t478.5 169q125 0 239.5 -41t246.5 -129l-111 -167q-104 70 -192 101.5t-183 31.5q-182 0 -315 -110.5t-188 -285.5h368v-133h-395q-4 -25 -4 -76q0 -50 4 -75h395v-133h-368q55 -176 187.5 -286 t315.5 -110q99 0 197 39.5t211 120.5l111 -164q-260 -200 -519 -200q-275 0 -479 168.5t-270 431.5h-103z" />
<glyph unicode="&#x2122;" horiz-adv-x="1746" d="M61 1434v143h766v-143h-303v-678h-159v678h-304zM924 756v856l385 -393l377 395v-858h-160v454l-217 -235l-226 237v-456h-159z" />
<glyph unicode="&#x25fc;" horiz-adv-x="1024" d="M0 0v1024h1024v-1024h-1024z" />
</font>
</defs>
</svg>
