<?xml version="1.0" standalone="no"?>
<!DOCTYPE svg PUBLIC "-//W3C//DTD SVG 1.1//EN" "http://www.w3.org/Graphics/SVG/1.1/DTD/svg11.dtd" >
<svg xmlns="http://www.w3.org/2000/svg" xmlns:xlink="http://www.w3.org/1999/xlink" version="1.1">
<metadata></metadata>
<defs>
<font id="mb_empireblack" horiz-adv-x="1198" >
<font-face units-per-em="2048" ascent="1638" descent="-410" />
<missing-glyph horiz-adv-x="563" />
<glyph unicode="&#xfb01;" horiz-adv-x="1423" d="M61 819v205h134v141q0 48 0.5 76t3.5 71.5t9 69.5t17.5 61t27.5 56t41 44.5t57 35.5t75 20.5t96 8.5q86 0 176 -30.5t158 -88.5l-133 -186q-67 38 -119 38q-60 0 -79 -29.5t-19 -107.5v-180h754v-1024h-310v819h-444v-819h-311v819h-134zM936 1309q0 74 46.5 120 t119.5 46q77 0 124.5 -45.5t47.5 -120.5t-47.5 -121.5t-124.5 -46.5q-72 0 -119 46.5t-47 121.5z" />
<glyph unicode="&#xfb02;" horiz-adv-x="1406" d="M61 819v205h134v141q0 48 0.5 76t3.5 71.5t9 69.5t17.5 61t27.5 56t41 44.5t57 35.5t75 20.5t96 8.5q140 0 316 -150l-133 -186q-79 53 -138 53q-36 0 -48.5 -27.5t-12.5 -93.5v-180h186v-205h-186v-819h-311v819h-134zM942 0v1577h311v-1577h-311z" />
<glyph unicode="&#xfb03;" horiz-adv-x="2150" d="M82 819v205h133v111q0 72 13 134.5t44 120t77.5 98.5t119 65t164.5 24q151 0 330 -107q71 138 286 138q81 0 167 -34.5t157 -94.5l-133 -187q-81 45 -146 45q-36 0 -48.5 -32.5t-12.5 -100.5v-180h754v-1024h-310v819h-444v-819h-311v819h-396v-819h-311v819h-133z M526 1024h396v141q0 9 -1 26.5t-1 25.5q0 4 1 13t1 13q-1 1 -29 14t-36.5 16.5t-36.5 13.5t-47 13t-50.5 7t-63.5 4q-69 0 -101 -44.5t-32 -119.5v-123zM1663 1309q0 74 46.5 120t119.5 46q77 0 124.5 -45.5t47.5 -120.5t-47.5 -121.5t-124.5 -46.5q-73 0 -119.5 46.5 t-46.5 121.5z" />
<glyph unicode="&#xfb04;" horiz-adv-x="2134" d="M82 819v205h133v111q0 72 13 134.5t44 120t77.5 98.5t119 65t164.5 24q151 0 330 -107q71 138 286 138q140 0 316 -150l-133 -186q-79 53 -138 53q-36 0 -48.5 -27.5t-12.5 -93.5v-180h186v-205h-186v-819h-311v819h-396v-819h-311v819h-133zM526 1024h396v141 q0 9 -1 26.5t-1 25.5q0 4 1 13t1 13q-1 1 -29 14t-36.5 16.5t-36.5 13.5t-47 13t-50.5 7t-63.5 4q-69 0 -101 -44.5t-32 -119.5v-123zM1669 0v1577h311v-1577h-311z" />
<glyph horiz-adv-x="0" />
<glyph horiz-adv-x="682" />
<glyph horiz-adv-x="0" />
<glyph horiz-adv-x="0" />
<glyph unicode="&#xd;" horiz-adv-x="512" />
<glyph unicode=" "  horiz-adv-x="563" />
<glyph unicode="&#x09;" horiz-adv-x="563" />
<glyph unicode="&#xa0;" horiz-adv-x="563" />
<glyph unicode="!" horiz-adv-x="735" d="M184 182q0 78 52.5 132.5t130.5 54.5q76 0 130 -55t54 -132q0 -79 -53.5 -130.5t-130.5 -51.5q-80 0 -131.5 51.5t-51.5 130.5zM209 999v578h317v-580l-51 -587h-215z" />
<glyph unicode="&#x22;" horiz-adv-x="714" d="M102 1350v274h201v-274l-59 -326h-82zM412 1350v274h200v-274l-59 -326h-82z" />
<glyph unicode="#" horiz-adv-x="1591" d="M133 420v223h244v293h-244v223h244v418h246v-418h348v418h246v-418h241v-223h-241v-293h241v-223h-241v-420h-246v420h-348v-420h-246v420h-244zM623 643h348v293h-348v-293z" />
<glyph unicode="$" horiz-adv-x="1351" d="M154 176l165 225q167 -119 285 -137v410q-80 31 -149 73.5t-131.5 102t-99 141.5t-36.5 176q0 90 23.5 161.5t63 118.5t94 79.5t112 48t123.5 20.5v187h193v-191q84 -12 166 -53.5t208 -134.5l-165 -225q-131 92 -209 120v-364q401 -164 401 -502q0 -207 -107.5 -314 t-293.5 -130v-193h-193v187q-108 8 -206.5 49t-243.5 145zM496 1167q0 -66 108 -141v283q-49 -16 -78.5 -52t-29.5 -90zM797 285q94 46 94 147q0 65 -94 141v-288z" />
<glyph unicode="%" horiz-adv-x="2377" d="M184 1165q0 116 58.5 215.5t157 158t212.5 58.5q177 0 304.5 -127.5t127.5 -304.5q0 -175 -127.5 -301.5t-304.5 -126.5q-174 0 -301 127t-127 301zM324 0l1343 1577h361l-1348 -1577h-356zM487 1163q0 -51 37 -88t88 -37q53 0 91 37t38 88q0 54 -38.5 93.5t-90.5 39.5 q-51 0 -88 -39.5t-37 -93.5zM1335 408q0 177 125.5 303.5t302.5 126.5q175 0 302.5 -127t127.5 -303q0 -114 -58.5 -213t-157.5 -157t-214 -58q-176 0 -302 126.5t-126 301.5zM1638 406q0 -51 36.5 -88t88.5 -37t88.5 37t36.5 88q0 56 -36.5 94.5t-88.5 38.5t-88.5 -38.5 t-36.5 -94.5z" />
<glyph unicode="&#x26;" horiz-adv-x="1826" d="M154 430q0 74 21.5 136.5t62 111t86.5 85t108 71.5q-60 58 -96.5 147.5t-36.5 173.5q0 117 60.5 219t164 162.5t224.5 60.5q191 0 318.5 -125.5t127.5 -306.5q0 -72 -20.5 -131.5t-61 -106t-85.5 -80.5t-107 -69l153 -162q21 45 21 154h311q0 -135 -28.5 -218.5 t-80.5 -160.5l377 -391h-401l-170 178q-95 -84 -215 -141t-232 -57q-103 0 -193.5 30t-159 85.5t-108.5 142t-40 192.5zM469 430q0 -70 57.5 -112t128.5 -42q125 0 244 109l-260 258q-71 -36 -120.5 -94.5t-49.5 -118.5zM621 1155q0 -54 24.5 -95.5t69.5 -86.5 q72 36 114.5 89t42.5 103q0 135 -124 135q-127 0 -127 -145z" />
<glyph unicode="'" horiz-adv-x="405" d="M102 1350v274h201v-274l-59 -326h-82z" />
<glyph unicode="(" horiz-adv-x="811" d="M164 791q0 249 84 547t235 530l246 -178q-115 -165 -185.5 -413t-70.5 -486q0 -239 69 -485t181 -415l-238 -170q-152 233 -236.5 529t-84.5 541z" />
<glyph unicode=")" horiz-adv-x="811" d="M82 1690l246 178q151 -232 235 -530t84 -547q0 -245 -84.5 -541t-236.5 -529l-238 170q112 169 181 415t69 485q0 238 -70.5 486t-185.5 413z" />
<glyph unicode="*" horiz-adv-x="897" d="M102 1188v180l172 -27l103 -36l-98 53l-142 98l133 133l99 -141l55 -98l-39 102l-27 172h181l-27 -172l-37 -102l53 98l99 141l133 -133l-142 -98l-96 -53l101 36l172 27v-180l-172 26l-101 37l96 -53l142 -98l-133 -133l-99 141l-53 98l37 -102l27 -172h-181l27 172 l39 102l-55 -98l-99 -141l-133 133l142 98l98 53l-103 -37z" />
<glyph unicode="+" horiz-adv-x="1351" d="M143 678v221h422v422h221v-422h422v-221h-422v-422h-221v422h-422z" />
<glyph unicode="," horiz-adv-x="518" d="M102 156q0 62 46.5 108.5t111.5 46.5q62 0 109 -47t47 -108q0 -281 -234 -459l-69 104q90 61 141 199q-60 3 -106 45.5t-46 110.5z" />
<glyph unicode="-" horiz-adv-x="899" d="M102 457v221h695v-221h-695z" />
<glyph unicode="." horiz-adv-x="514" d="M102 154q0 67 45 112t111 45t110 -45t44 -112q0 -65 -44 -109.5t-110 -44.5t-111 44.5t-45 109.5z" />
<glyph unicode="/" horiz-adv-x="911" d="M41 0l580 1577h249l-579 -1577h-250z" />
<glyph unicode="0" horiz-adv-x="1519" d="M143 791q0 118 22 231.5t70 220t118 186t174 127.5t229 48q126 0 231 -48t176 -127.5t120 -186t71 -220t22 -231.5q0 -128 -25.5 -247.5t-77.5 -222t-125 -178.5t-174 -119.5t-218 -43.5t-217 43.5t-172 119.5t-123 178.5t-76 221.5t-25 248zM473 791q0 -75 10 -145.5 t32.5 -136t54.5 -114.5t80 -78.5t106 -29.5q94 0 162 77t98.5 188.5t30.5 238.5q0 93 -17.5 180t-51.5 160.5t-91.5 118t-130.5 44.5q-72 0 -128 -44.5t-89 -118t-49.5 -160t-16.5 -180.5z" />
<glyph unicode="1" horiz-adv-x="653" d="M164 0v1577h325v-1577h-325z" />
<glyph unicode="2" horiz-adv-x="1413" d="M143 0l703 956q27 36 43 87.5t16 101.5q0 76 -52 115.5t-114 39.5q-81 0 -159.5 -28t-194.5 -111l-170 242q153 115 272 159t252 44q68 0 134.5 -14.5t132.5 -49t115.5 -86t80.5 -132t31 -179.5q0 -102 -42.5 -202.5t-105.5 -180.5l-356 -467h541v-295h-1127z" />
<glyph unicode="3" horiz-adv-x="1390" d="M143 195l195 239q117 -84 189 -115.5t143 -31.5q83 0 146 63.5t63 167.5q0 51 -18 93.5t-46 70t-63 47t-68 27.5t-63 8h-256l360 518h-457v295h979l-403 -582q75 -28 139.5 -71.5t115.5 -102.5t80 -137t29 -166q0 -242 -151 -390t-387 -148q-124 0 -242.5 47.5 t-284.5 167.5z" />
<glyph unicode="4" horiz-adv-x="1406" d="M61 463l1037 1161v-866h207v-295h-207v-463h-326v463h-711zM627 758h145v172z" />
<glyph unicode="5" horiz-adv-x="1312" d="M143 166l187 237q109 -75 166.5 -95.5t138.5 -20.5q95 0 150 73t55 172q0 116 -86 179t-209 63q-103 0 -328 -53l148 856h710v-295h-479l-31 -203q127 -4 235.5 -40t191.5 -102t130 -170t47 -235q0 -111 -34.5 -210t-99 -175.5t-167.5 -121.5t-231 -45q-133 0 -230.5 36 t-263.5 150z" />
<glyph unicode="6" horiz-adv-x="1282" d="M123 510q0 123 37.5 248t98 227t136 197t150.5 166t143 126.5t113 84.5t61 34l152 -217q-144 -87 -233 -167t-160 -183h30q143 0 265 -68.5t193 -187.5t71 -260t-71 -263.5t-193 -194.5t-265 -72q-106 0 -204 43t-169 114.5t-113 169t-42 203.5zM453 510q0 -90 56 -156.5 t142 -66.5q89 0 146 66t57 157q0 87 -58.5 149t-144.5 62q-82 0 -140 -61t-58 -150z" />
<glyph unicode="7" horiz-adv-x="1300" d="M61 1282v295h1178l-754 -1577h-321l600 1282h-703z" />
<glyph unicode="8" horiz-adv-x="1312" d="M143 494q0 109 75 211.5t159 148.5q-67 37 -124.5 116t-57.5 171q0 124 62 231t168 169.5t230 62.5q93 0 178.5 -37t148 -99.5t99.5 -148t37 -178.5q0 -92 -57 -171t-123 -116q87 -44 159 -146.5t72 -213.5q0 -138 -69 -256.5t-187.5 -188t-257.5 -69.5q-137 0 -255 69.5 t-187.5 188t-69.5 256.5zM471 487q0 -81 51 -140.5t133 -59.5q84 0 137.5 59.5t53.5 140.5q0 80 -55 141.5t-136 61.5q-80 0 -132 -61t-52 -142zM522 1147q0 -60 37 -107t96 -47q58 0 99 47.5t41 106.5q0 61 -39.5 105t-100.5 44t-97 -44t-36 -105z" />
<glyph unicode="9" horiz-adv-x="1282" d="M102 1075q0 141 71 263.5t193 195t265 72.5q142 0 264 -72.5t193 -195t71 -263.5q0 -124 -38 -249.5t-98.5 -228t-137 -198t-152.5 -166.5t-145.5 -127t-115.5 -86t-64 -36l-152 217q150 95 244 177.5t162 180.5h-31q-143 0 -265 68.5t-193 187.5t-71 260zM428 1075 q0 -87 58.5 -149t144.5 -62q82 0 140 61t58 150q0 90 -56 156.5t-142 66.5q-89 0 -146 -66t-57 -157z" />
<glyph unicode=":" horiz-adv-x="514" d="M102 154q0 67 45 112t111 45t110 -45t44 -112q0 -65 -44 -109.5t-110 -44.5t-111 44.5t-45 109.5zM102 866q0 67 45 112.5t111 45.5t110 -45t44 -113q0 -65 -44 -109t-110 -44t-111 44t-45 109z" />
<glyph unicode=";" horiz-adv-x="518" d="M102 156q0 62 46.5 108.5t111.5 46.5q62 0 109 -47t47 -108q0 -281 -234 -459l-69 104q90 61 141 199q-60 3 -106 45.5t-46 110.5zM104 866q0 67 45 112.5t111 45.5t110 -45t44 -113q0 -65 -44 -109t-110 -44t-111 44t-45 109z" />
<glyph unicode="&#x3c;" horiz-adv-x="1388" d="M102 766l1041 520l100 -211l-670 -305l672 -270l-102 -211z" />
<glyph unicode="=" horiz-adv-x="1351" d="M143 412v221h1065v-221h-1065zM143 944v221h1065v-221h-1065z" />
<glyph unicode="&#x3e;" horiz-adv-x="1388" d="M143 500l672 270l-670 305l101 211l1040 -520l-1040 -477z" />
<glyph unicode="?" horiz-adv-x="1300" d="M184 1407q152 105 246 142.5t211 37.5q66 0 128 -11.5t126.5 -41.5t112 -77t78 -125.5t30.5 -178.5q0 -70 -14 -129t-36.5 -102.5t-62.5 -85.5t-78.5 -73t-97.5 -71q-25 -17 -37.5 -30.5t-26.5 -43t-20 -80t-6 -128.5h-311q2 122 14 202t41.5 140.5t69 101t106.5 86.5 q148 98 148 213q0 75 -51 112.5t-113 37.5q-66 0 -135.5 -26t-165.5 -89zM399 182q0 78 52.5 132.5t130.5 54.5q76 0 131 -55t55 -132q0 -78 -54 -130t-132 -52q-80 0 -131.5 51.5t-51.5 130.5z" />
<glyph unicode="@" horiz-adv-x="2265" d="M143 635q0 189 79.5 367.5t212 310.5t315.5 211.5t380 79.5q200 0 385 -80.5t317 -213.5t211 -311.5t79 -367.5q0 -88 -15 -172t-49 -165t-84.5 -141.5t-128 -97.5t-172.5 -37q-107 0 -209.5 73.5t-128.5 146.5q-14 -28 -33.5 -52.5t-51.5 -52t-81.5 -43.5t-109.5 -16 q-166 0 -280.5 94.5t-114.5 259.5q0 78 23 134t62 90t102.5 53.5t132 26.5t163.5 7q74 0 102 -4v80q0 38 -38 70.5t-89 32.5q-66 0 -122.5 -23.5t-129.5 -91.5l-184 170q117 117 221.5 169t214.5 52q85 0 163 -25.5t138.5 -72t96.5 -119.5t36 -162v-391q0 -85 42 -154 t102 -69q108 0 172.5 109.5t64.5 320.5q0 112 -37.5 226.5t-110 217t-169 182t-224 126.5t-266.5 47q-134 0 -259.5 -45.5t-222.5 -124.5t-170 -179.5t-111.5 -216t-38.5 -229.5q0 -116 36 -235.5t106 -228t165 -194t223.5 -136t269.5 -50.5q274 0 500 158l98 -133 q-167 -115 -301 -157t-297 -42q-165 0 -318.5 56t-273 154.5t-209 226.5t-137 278t-47.5 303zM967 430q0 -27 29 -49.5t63 -22.5q83 0 134 36t56 79v59q-49 5 -110 5q-69 0 -120.5 -28.5t-51.5 -78.5z" />
<glyph unicode="A" horiz-adv-x="1687" d="M61 0l785 1624l780 -1624h-371l-125 297h-569l-129 -297h-371zM700 614h293l-147 330z" />
<glyph unicode="B" horiz-adv-x="1419" d="M184 0v1577h453q231 0 370.5 -116.5t139.5 -336.5q0 -97 -52.5 -169.5t-117.5 -112.5q53 -22 100.5 -53.5t91.5 -76t70.5 -107t26.5 -132.5q0 -118 -40.5 -209.5t-114 -148.5t-171.5 -86t-217 -29h-539zM530 317h193q91 0 144 37.5t53 118.5q0 69 -60 120.5t-143 51.5 h-187v-328zM530 965h62q106 0 158.5 41.5t52.5 117.5q0 136 -162 136h-111v-295z" />
<glyph unicode="C" horiz-adv-x="1710" d="M154 788q0 162 65.5 311.5t175 258.5t259.5 174t313 65q280 0 573 -198l-176 -258q-113 73 -207 105t-190 32q-127 0 -234.5 -69t-168 -181.5t-60.5 -239.5t60.5 -239.5t167.5 -181t235 -68.5q203 0 428 162l172 -256q-291 -225 -600 -225q-163 0 -313.5 65t-260 174 t-174.5 258.5t-65 310.5z" />
<glyph unicode="D" horiz-adv-x="1658" d="M184 0v1577h523q228 0 411.5 -105t285 -284.5t101.5 -396.5q0 -163 -59.5 -309t-163.5 -252t-253.5 -168t-321.5 -62h-523zM530 317h177q127 0 230.5 64t160.5 172.5t57 237.5q0 128 -57 235t-160.5 170.5t-230.5 63.5h-177v-943z" />
<glyph unicode="E" horiz-adv-x="1345" d="M184 0v1577h987v-317h-641v-314h560v-317h-560v-312h662v-317h-1008z" />
<glyph unicode="F" horiz-adv-x="1308" d="M184 0v1577h971v-317h-625v-314h543v-317h-543v-629h-346z" />
<glyph unicode="G" horiz-adv-x="1712" d="M154 786q0 171 61.5 321.5t168 258t258 169.5t325.5 62q289 0 567 -190l-170 -264q-204 135 -397 135q-202 0 -332.5 -142.5t-130.5 -349.5q0 -133 59 -244.5t166 -177t238 -65.5q142 0 260 59v172h-277v318h609v-651q-302 -217 -592 -217q-176 0 -328.5 64t-258 173 t-166 257t-60.5 312z" />
<glyph unicode="H" horiz-adv-x="1558" d="M184 0v1577h346v-631h498v631h346v-1577h-346v629h-498v-629h-346z" />
<glyph unicode="I" horiz-adv-x="714" d="M184 0v1577h346v-1577h-346z" />
<glyph unicode="J" horiz-adv-x="653" d="M-61 -223q44 11 77 24.5t52 29t31 28.5t17 31t6 28.5t1 26.5v1632h346v-1597q0 -103 -20 -176t-71 -135t-138.5 -107t-223.5 -82z" />
<glyph unicode="K" horiz-adv-x="1662" d="M184 0v1577h346v-594l566 594h440l-780 -789l846 -788h-463l-609 578v-578h-346z" />
<glyph unicode="L" horiz-adv-x="1261" d="M184 0v1577h346v-1260h670v-317h-1016z" />
<glyph unicode="M" horiz-adv-x="1792" d="M184 0v1624l713 -649l711 649v-1624h-346v854l-365 -358l-367 356v-852h-346z" />
<glyph unicode="N" horiz-adv-x="1724" d="M184 0v1624l1010 -913v866h346v-1640l-1010 913v-850h-346z" />
<glyph unicode="O" horiz-adv-x="1904" d="M143 791q0 216 109.5 402t296.5 295t405 109q164 0 313.5 -65t257.5 -174t172 -257.5t64 -309.5q0 -165 -64.5 -315.5t-173.5 -259t-258 -172.5t-311 -64q-163 0 -312.5 64t-259 172.5t-174.5 259t-65 315.5zM492 791q0 -128 60 -241t167 -182t235 -69q126 0 232 69 t165.5 182t59.5 241q0 95 -35.5 184t-96 155.5t-146 107t-179.5 40.5q-128 0 -235 -68t-167 -180t-60 -239z" />
<glyph unicode="P" horiz-adv-x="1409" d="M184 0v1577h529q94 0 176.5 -18.5t151.5 -57.5t119 -95t78 -134.5t28 -173.5q0 -110 -44 -204t-118.5 -157.5t-172 -99t-204.5 -35.5h-197v-602h-346zM530 922h191q83 0 140 43.5t57 132.5q0 80 -62 121t-154 41h-172v-338z" />
<glyph unicode="Q" horiz-adv-x="1904" d="M143 791q0 216 109.5 402t296.5 295t405 109q164 0 313.5 -65t257.5 -174t172 -257.5t64 -309.5q0 -145 -49 -277.5t-137 -239.5h166v-274h-608q-95 -20 -179 -20q-163 0 -312.5 64t-259 172.5t-174.5 259t-65 315.5zM492 791q0 -128 60 -241t167 -182t235 -69 q126 0 232 69t165.5 182t59.5 241q0 95 -35.5 184t-96 155.5t-146 107t-179.5 40.5q-128 0 -235 -68t-167 -180t-60 -239z" />
<glyph unicode="R" horiz-adv-x="1486" d="M184 0v1577h523q91 0 173 -18t153.5 -56.5t123.5 -94t81.5 -135t29.5 -175.5q0 -142 -83.5 -260t-207.5 -179l407 -659h-380l-361 602h-113v-602h-346zM530 922h179q88 0 150.5 46.5t62.5 129.5q0 80 -62 121t-153 41h-177v-338z" />
<glyph unicode="S" horiz-adv-x="1359" d="M154 176l180 250q110 -77 184 -102t156 -25q101 0 145.5 34t44.5 113q0 40 -23.5 73.5t-63 58.5t-91 48t-108 48t-113 53t-108 67t-91 86t-63 114.5t-23.5 148.5q0 102 29.5 183t77.5 131t113.5 83t131.5 46t138 13q141 0 240.5 -37.5t260.5 -158.5l-180 -250 q-111 80 -177.5 103.5t-143.5 23.5q-148 0 -148 -137q0 -34 36.5 -69t80 -57.5t96.5 -41.5q76 -28 136.5 -56.5t126 -75t108.5 -100t71.5 -130.5t28.5 -167q0 -128 -41.5 -220.5t-116.5 -145t-167.5 -76.5t-206.5 -24q-138 0 -246 38t-274 158z" />
<glyph unicode="T" horiz-adv-x="1538" d="M102 1260v317h1334v-317h-496v-1260h-346v1260h-492z" />
<glyph unicode="U" horiz-adv-x="1685" d="M184 627v950h346v-932q0 -136 92 -241t222 -105q129 0 220 104.5t91 241.5v932h346v-942q0 -172 -92.5 -324t-244.5 -241.5t-320 -89.5q-171 0 -323.5 88t-244.5 238t-92 321z" />
<glyph unicode="V" horiz-adv-x="1703" d="M61 1577h375l414 -930l414 930h378l-792 -1640z" />
<glyph unicode="W" horiz-adv-x="2471" d="M61 1577h363l334 -879l479 854l477 -852l334 877h362l-657 -1640l-516 948l-516 -948z" />
<glyph unicode="X" horiz-adv-x="1677" d="M61 0l605 809l-578 768h399l353 -508l352 508h399l-567 -768l592 -809h-402l-374 539l-371 -539h-408z" />
<glyph unicode="Y" horiz-adv-x="1648" d="M61 1577h388l376 -592l377 592h385l-588 -903v-674h-346v674z" />
<glyph unicode="Z" horiz-adv-x="1634" d="M123 0l819 1260h-756v317h1325l-823 -1260h823v-317h-1388z" />
<glyph unicode="[" horiz-adv-x="808" d="M164 -305v2214h563v-256h-252v-1702h252v-256h-563z" />
<glyph unicode="\" horiz-adv-x="911" d="M41 1577h250l579 -1577h-249z" />
<glyph unicode="]" horiz-adv-x="808" d="M82 -49h252v1702h-252v256h563v-2214h-563v256z" />
<glyph unicode="^" horiz-adv-x="1241" d="M154 1024l469 600l464 -600h-360l-104 168l-107 -168h-362z" />
<glyph unicode="_" horiz-adv-x="1343" d="M102 -59h1139v-222h-1139v222z" />
<glyph unicode="`" horiz-adv-x="980" d="M205 1577h284l287 -348h-221z" />
<glyph unicode="a" horiz-adv-x="1157" d="M123 319q0 64 19 113.5t54.5 80.5t76.5 52t94 31t97.5 14t96.5 4l131 -4v54q0 38 -27 64.5t-56.5 36t-53.5 9.5q-117 0 -215 -80l-182 189q113 109 203.5 141.5t213.5 32.5q112 0 209.5 -48t158.5 -139.5t61 -205.5v-664h-295v78q-37 -39 -103 -74t-137 -35 q-151 0 -248.5 96.5t-97.5 253.5zM436 319q0 -23 25 -41t53 -18q74 0 126 32.5t52 67.5v52q-11 1 -32.5 2.5t-38 2.5t-27.5 1q-62 0 -110 -28.5t-48 -70.5z" />
<glyph unicode="b" horiz-adv-x="1245" d="M154 0v1577h311v-614q36 39 93.5 66.5t123.5 27.5q83 0 165 -45t145 -118.5t102 -175t39 -206.5q0 -140 -65.5 -267t-170 -201.5t-215.5 -74.5q-67 0 -130 31t-87 61v-61h-311zM465 315q27 -27 64 -46t71 -19q86 0 150.5 81.5t64.5 180.5q0 100 -64.5 181t-150.5 81 q-74 0 -135 -61v-398z" />
<glyph unicode="c" horiz-adv-x="1161" d="M113 514q0 106 43 206t115.5 174t171.5 118.5t206 44.5q201 0 385 -125l-129 -232q-65 43 -115 58.5t-106 15.5q-107 0 -182.5 -73.5t-75.5 -186.5q0 -110 76 -187t174 -77q55 0 109 19.5t124 72.5l150 -219q-119 -85 -216 -119.5t-194 -34.5q-150 0 -274.5 76 t-193 200.5t-68.5 268.5z" />
<glyph unicode="d" horiz-adv-x="1245" d="M113 512q0 141 65.5 268t169.5 202t215 75q66 0 123.5 -27.5t93.5 -66.5v614h312v-1577h-312v61q-24 -30 -87 -61t-130 -31q-111 0 -215 74.5t-169.5 201t-65.5 267.5zM430 512q0 -99 64.5 -180.5t150.5 -81.5q34 0 71 19t64 46v398q-61 61 -135 61q-86 0 -150.5 -81 t-64.5 -181z" />
<glyph unicode="e" horiz-adv-x="1249" d="M113 512q0 144 66.5 268.5t188.5 200.5t271 76q99 0 188.5 -34.5t161 -99.5t114 -170t42.5 -235v-39h-707q18 -107 84 -166t176 -59q130 0 267 96l151 -229q-119 -93 -225 -122.5t-238 -29.5q-107 0 -207 44.5t-172.5 118t-116.5 174t-44 206.5zM463 674h346 q-15 45 -60 78.5t-110 33.5q-67 0 -114 -33.5t-62 -78.5z" />
<glyph unicode="f" horiz-adv-x="786" d="M82 819v205h133v141q0 88 3 136.5t20 116t50 102.5t97.5 61.5t157.5 26.5q139 0 315 -150l-133 -186q-79 53 -137 53q-37 0 -49.5 -28t-12.5 -93v-180h187v-205h-187v-819h-311v819h-133z" />
<glyph unicode="g" horiz-adv-x="1167" d="M92 -190q0 68 49.5 126t112.5 91q-42 36 -57 61q-25 40 -25 90q0 89 113 156q-140 145 -140 301q0 172 124.5 297t297.5 125q79 0 174 -43h293v-205h-78q31 -96 31 -174q0 -174 -122.5 -289t-297.5 -115q-147 0 -147 -59q0 -53 141 -53q86 0 157 -7.5t139.5 -28.5 t114.5 -54.5t74.5 -89t28.5 -129.5q0 -94 -44 -165t-117.5 -110.5t-156.5 -58.5t-173 -19q-89 0 -174 21.5t-157.5 63t-116.5 111t-44 157.5zM406 -190q0 -31 48.5 -49.5t129.5 -18.5q79 0 128.5 17t49.5 51q0 32 -57.5 49.5t-141.5 17.5q-66 0 -111.5 -16.5t-45.5 -50.5z M457 635q0 -51 28 -85t82 -34t82.5 34t28.5 85q0 56 -28 96.5t-83 40.5q-57 0 -83.5 -39.5t-26.5 -97.5z" />
<glyph unicode="h" d="M154 0v1577h311v-651q13 18 32 37.5t49.5 42t73 37t89.5 14.5q151 0 243 -120t92 -290v-647h-311v647q0 46 -27 86.5t-65 40.5q-52 0 -94 -38t-62 -91t-20 -106v-539h-311z" />
<glyph unicode="i" horiz-adv-x="636" d="M150 1391q0 74 46 119.5t119 45.5q77 0 124.5 -45t47.5 -120t-47.5 -121.5t-124.5 -46.5q-72 0 -118.5 46.5t-46.5 121.5zM164 0v1024h309v-1024h-309z" />
<glyph unicode="j" horiz-adv-x="647" d="M0 -276q50 13 85 30t52.5 31.5t26.5 35.5t10.5 33.5t1.5 32.5v1137h311v-1110q0 -84 -21 -153t-68.5 -129.5t-130 -104.5t-199.5 -70zM164 1391q0 75 45 120t119 45q77 0 123.5 -45t46.5 -120t-47 -121.5t-123 -46.5q-73 0 -118.5 46.5t-45.5 121.5z" />
<glyph unicode="k" horiz-adv-x="1363" d="M154 0v1577h311v-901l366 348h404l-537 -485l625 -539h-412l-446 389v-389h-311z" />
<glyph unicode="l" horiz-adv-x="618" d="M154 0v1577h311v-1577h-311z" />
<glyph unicode="m" horiz-adv-x="1777" d="M154 0v1024h311v-98q13 18 32 37.5t49.5 42t73 37t89.5 14.5q155 0 249 -129q41 47 122 88t192 41q153 0 252.5 -121.5t99.5 -288.5v-647h-311v647q0 48 -35 87.5t-96 39.5q-67 0 -102.5 -44.5t-35.5 -96.5v-633h-311v647q0 46 -27 86.5t-65 40.5q-52 0 -94 -38t-62 -91 t-20 -106v-539h-311z" />
<glyph unicode="n" d="M154 0v1024h311v-98q13 18 32 37.5t49.5 42t73 37t89.5 14.5q151 0 243 -120t92 -290v-647h-311v647q0 46 -27 86.5t-65 40.5q-52 0 -94 -38t-62 -91t-20 -106v-539h-311z" />
<glyph unicode="o" horiz-adv-x="1323" d="M113 514q0 141 75.5 266.5t202.5 201t271 75.5q146 0 273 -75.5t201 -201t74 -266.5q0 -144 -70.5 -268.5t-197.5 -200.5t-280 -76q-113 0 -215.5 45t-175 119t-115.5 174t-43 207zM426 514q0 -101 68.5 -180.5t167.5 -79.5q102 0 168.5 79t66.5 181q0 100 -66.5 178 t-168.5 78q-99 0 -167.5 -78.5t-68.5 -177.5z" />
<glyph unicode="p" horiz-adv-x="1245" d="M154 -512v1536h311v-61q36 39 93.5 66.5t123.5 27.5q83 0 165 -45t145 -118.5t102 -175t39 -206.5q0 -140 -65.5 -267t-170 -201.5t-215.5 -74.5q-67 0 -130 31t-87 61v-573h-311zM465 315q27 -27 64 -46t71 -19q86 0 150.5 81.5t64.5 180.5q0 100 -64.5 181t-150.5 81 q-74 0 -135 -61v-398z" />
<glyph unicode="q" horiz-adv-x="1245" d="M113 512q0 141 65.5 268t169.5 202t215 75q66 0 123.5 -27.5t93.5 -66.5v61h312v-1536h-312v573q-24 -30 -87 -61t-130 -31q-111 0 -215 74.5t-169.5 201t-65.5 267.5zM430 512q0 -99 64.5 -180.5t150.5 -81.5q34 0 71 19t64 46v398q-61 61 -135 61q-86 0 -150.5 -81 t-64.5 -181z" />
<glyph unicode="r" horiz-adv-x="937" d="M154 0v1024h311v-86q78 119 201 119q87 0 211 -117l-144 -221q-74 57 -133 57q-43 0 -75 -39t-46 -91t-14 -107v-539h-311z" />
<glyph unicode="s" horiz-adv-x="1054" d="M133 104l148 220q117 -72 249 -72q38 0 59 15t21 38q0 20 -24.5 38.5t-64 35t-87 35.5t-95 46.5t-87 62t-64 87t-24.5 117.5q0 159 108.5 244.5t272.5 85.5q91 0 168.5 -27.5t191.5 -111.5l-147 -218q-121 74 -213 74q-68 0 -68 -47q0 -15 24.5 -30t64 -30.5t87 -34.5 t94.5 -48t86.5 -65.5t64 -92t24.5 -121.5q0 -173 -104 -254.5t-288 -81.5q-203 0 -397 135z" />
<glyph unicode="t" horiz-adv-x="897" d="M61 819v205h175v350h311v-350h219v-205h-219v-446q0 -64 11.5 -92.5t41.5 -28.5q42 0 109 53l116 -190q-172 -146 -303 -146q-58 0 -103 12.5t-74.5 31t-50.5 52t-32.5 63.5t-17 77.5t-7 82.5t-1.5 89v442h-175z" />
<glyph unicode="u" d="M154 377v647h311v-647q0 -46 27 -86.5t65 -40.5q52 0 94 38t62 91t20 106v539h311v-1024h-311v98q-13 -18 -32 -37.5t-49.5 -42t-73 -37t-89.5 -14.5q-151 0 -243 120t-92 290z" />
<glyph unicode="v" d="M61 1024h334l205 -461l203 461h334l-537 -1073z" />
<glyph unicode="w" horiz-adv-x="1679" d="M61 1024h320l168 -463l291 463l290 -471l166 471h322l-432 -1073l-346 559l-344 -559z" />
<glyph unicode="x" horiz-adv-x="1230" d="M61 0l398 532l-361 492h359l159 -258l158 258h361l-363 -489l397 -535h-358l-195 299l-192 -299h-363z" />
<glyph unicode="y" horiz-adv-x="1169" d="M61 1024h330l191 -471l211 471h315l-723 -1536h-307l346 719z" />
<glyph unicode="z" horiz-adv-x="1101" d="M82 0l457 748h-400v276h881l-445 -748h437v-276h-930z" />
<glyph unicode="{" horiz-adv-x="813" d="M164 635v326q44 0 60 19.5t16 43.5v528q0 156 139.5 253.5t351.5 97.5v-256q-83 0 -135.5 -38t-52.5 -79v-572q0 -57 -35.5 -99.5t-71.5 -59.5q34 -16 70.5 -61t36.5 -97v-573q0 -43 52.5 -82t135.5 -39v-256q-234 1 -362.5 95t-128.5 255v522q0 28 -16 50t-60 22z" />
<glyph unicode="|" horiz-adv-x="589" d="M184 -205v1987h222v-1987h-222z" />
<glyph unicode="}" horiz-adv-x="813" d="M82 -53q83 0 135.5 39t52.5 82v573q0 52 36.5 97t70.5 61q-36 17 -71.5 59.5t-35.5 99.5v572q0 41 -52.5 79t-135.5 38v256q212 0 351.5 -97.5t139.5 -253.5v-528q0 -24 16 -43.5t60 -19.5v-326q-44 0 -60 -22t-16 -50v-522q0 -161 -128.5 -255t-362.5 -95v256z" />
<glyph unicode="~" horiz-adv-x="1622" d="M154 418q0 143 48 263.5t135.5 192.5t194.5 72q55 0 114.5 -21t111 -51t102.5 -60.5t107.5 -51.5t107.5 -21q37 0 57.5 64t20.5 149h315q0 -139 -53 -261t-144 -194.5t-196 -72.5q-54 0 -112 21t-108.5 51t-99.5 60.5t-104 51.5t-104 21q-36 0 -57 -65.5t-21 -147.5h-315 z" />
<glyph unicode="&#xa1;" horiz-adv-x="735" d="M184 842q0 79 51.5 130.5t131.5 51.5q77 0 130.5 -51.5t53.5 -130.5q0 -77 -54 -132t-130 -55q-78 0 -130.5 54.5t-52.5 132.5zM209 109l51 505h215l51 -503v-580h-317v578z" />
<glyph unicode="&#xa2;" horiz-adv-x="1161" d="M113 788q0 193 128 346.5t316 188.5v254h197v-254q142 -23 280 -117l-129 -231q-82 54 -151 67v-507q67 16 155 81l150 -219q-161 -116 -305 -145v-252h-197v250q-194 33 -319 187t-125 351zM426 788q0 -69 36.5 -133t94.5 -100v465q-59 -32 -95 -96t-36 -136z" />
<glyph unicode="&#xa3;" horiz-adv-x="1359" d="M154 0v295h63v297h-63v295h63v266q0 118 41.5 208t109.5 141t146.5 76.5t161.5 25.5q126 0 249.5 -45t280.5 -148l-157 -256q-124 84 -209 114.5t-164 30.5q-64 0 -101.5 -41t-37.5 -106v-266h436v-295h-436v-297h643v-295h-1026z" />
<glyph unicode="&#xa4;" horiz-adv-x="1404" d="M154 397l102 103q-102 146 -102 315q0 171 106 311l-106 107l127 125l106 -107q146 107 315 107q175 0 318 -105l104 105l127 -125l-106 -107q106 -145 106 -311q0 -169 -102 -315l102 -103l-125 -127l-102 103q-140 -103 -322 -103q-174 0 -321 103l-102 -103zM467 815 q0 -101 68 -180.5t167 -79.5q102 0 169 79.5t67 180.5q0 100 -67 178t-169 78q-99 0 -167 -78.5t-68 -177.5z" />
<glyph unicode="&#xa5;" horiz-adv-x="1628" d="M61 1577h377l377 -598l377 598h375l-574 -887h131v-178h-141v-70h141v-178h-141v-264h-334v264h-143v178h143v70h-143v178h133z" />
<glyph unicode="&#xa6;" horiz-adv-x="589" d="M184 -205v873h222v-873h-222zM184 909v873h222v-873h-222z" />
<glyph unicode="&#xa7;" horiz-adv-x="1054" d="M133 104l148 220q117 -72 249 -72q38 0 59 15t21 38q0 20 -24.5 38.5t-64 35t-87 35.5t-95 46.5t-87 62t-64 87t-24.5 117.5q0 102 46 174.5t126 110.5q-172 103 -172 270q0 159 108.5 244.5t272.5 85.5q91 0 168.5 -27.5t191.5 -111.5l-147 -218q-121 74 -213 74 q-68 0 -68 -47q0 -15 24.5 -30t64 -30.5t87 -34.5t94.5 -48t86.5 -65.5t64 -92t24.5 -121.5q0 -205 -152 -287q152 -97 152 -268q0 -173 -104 -254.5t-288 -81.5q-203 0 -397 135zM446 782q0 -19 9.5 -32t19.5 -19t33 -9t31 -3h32q35 0 57.5 36.5t22.5 65.5q0 16 -15.5 27.5 t-40 16.5t-44 7t-37.5 2q-31 0 -49.5 -32t-18.5 -60z" />
<glyph unicode="&#xa8;" horiz-adv-x="1032" d="M205 1452q0 53 35 89t82 36q54 0 89 -35.5t35 -89.5q0 -47 -35.5 -82t-88.5 -35q-46 0 -81.5 35.5t-35.5 81.5zM584 1452q0 53 36.5 89t84.5 36q51 0 86.5 -35.5t35.5 -89.5q0 -46 -36 -81.5t-86 -35.5q-47 0 -84 35.5t-37 81.5z" />
<glyph unicode="&#xa9;" horiz-adv-x="1902" d="M143 791q0 163 64.5 312t173 257t258.5 172.5t313 64.5q165 0 315 -65t257.5 -173.5t171 -257t63.5 -310.5q0 -165 -64.5 -315.5t-173 -259t-257.5 -172.5t-312 -64t-312.5 64t-258.5 172.5t-173.5 259t-64.5 315.5zM250 797q0 -193 93.5 -356.5t256 -259t356.5 -95.5 q144 0 273.5 56.5t222 152t147 227t54.5 275.5q0 140 -55 268.5t-148.5 221.5t-222.5 148.5t-271 55.5q-143 0 -274 -55.5t-225.5 -148.5t-150.5 -221.5t-56 -268.5zM442 797q0 136 71.5 257t194.5 194t265 73q187 0 385 -133l-146 -230q-72 46 -121.5 62t-117.5 16 q-95 0 -162.5 -72t-67.5 -167q0 -97 67 -168.5t163 -71.5q58 0 114 22.5t132 79.5l147 -235q-202 -150 -393 -150q-151 0 -274 73t-190 192.5t-67 257.5z" />
<glyph unicode="&#xaa;" horiz-adv-x="991" d="M113 999q0 250 370 250l111 -4v45q0 33 -23 55.5t-48 30.5t-46 8q-99 0 -180 -67l-156 160q96 92 173.5 119.5t181.5 27.5q146 0 254 -94t108 -240v-561h-250v66q-30 -32 -86 -61t-116 -29q-128 0 -210.5 81t-82.5 213zM379 999q0 -19 20 -34t45 -15q62 0 106 27t44 57 v43q-81 6 -82 6q-53 0 -93 -24t-40 -60z" />
<glyph unicode="&#xab;" horiz-adv-x="1200" d="M51 512l410 512h258l-410 -512l410 -512h-258zM430 512l410 512h258l-410 -512l410 -512h-258z" />
<glyph unicode="&#xac;" horiz-adv-x="1447" d="M143 811v221h1162v-526h-222v305h-940z" />
<glyph unicode="&#xad;" horiz-adv-x="899" d="M102 457v221h695v-221h-695z" />
<glyph unicode="&#xae;" horiz-adv-x="1902" d="M143 791q0 163 64.5 312t173 257t258.5 172.5t313 64.5q165 0 315 -65t257.5 -173.5t171 -257t63.5 -310.5q0 -165 -64.5 -315.5t-173 -259t-257.5 -172.5t-312 -64t-312.5 64t-258.5 172.5t-173.5 259t-64.5 315.5zM250 797q0 -193 93.5 -356.5t256 -259t356.5 -95.5 q144 0 273.5 56.5t222 152t147 227t54.5 275.5q0 140 -55 268.5t-148.5 221.5t-222.5 148.5t-271 55.5q-143 0 -274 -55.5t-225.5 -148.5t-150.5 -221.5t-56 -268.5zM600 319v1008h346q168 0 273.5 -90.5t105.5 -245.5q0 -75 -41 -148t-108 -112l239 -412h-317l-176 343h-25 v-343h-297zM897 928h53q34 0 58 17.5t24 45.5q0 32 -24.5 48t-61.5 16h-49v-127z" />
<glyph unicode="&#xaf;" horiz-adv-x="1134" d="M205 1399v178h725v-178h-725z" />
<glyph unicode="&#xb0;" horiz-adv-x="645" d="M123 1425q0 83 59 141t142 58t140.5 -58t57.5 -141t-57.5 -141.5t-140.5 -58.5t-142 58.5t-59 141.5zM248 1425q0 -28 21.5 -50.5t52.5 -22.5q32 0 53.5 22.5t21.5 50.5q0 29 -21.5 52.5t-53.5 23.5q-31 0 -52.5 -23.5t-21.5 -52.5z" />
<glyph unicode="&#xb1;" horiz-adv-x="1351" d="M143 68v221h1065v-221h-1065zM143 799v221h422v422h221v-422h422v-221h-422v-422h-221v422h-422z" />
<glyph unicode="&#xb2;" horiz-adv-x="841" d="M123 811q280 422 346 512q31 44 31 94q0 27 -22.5 45.5t-51.5 18.5q-34 0 -61 -12t-95 -56l-114 154q98 69 150.5 90.5t119.5 21.5q48 0 94.5 -15t88.5 -44.5t67.5 -82t25.5 -120.5q0 -61 -37.5 -135t-82 -127.5t-81.5 -96.5t-36 -50h254v-197h-596z" />
<glyph unicode="&#xb3;" horiz-adv-x="864" d="M123 913l115 158q50 -45 84.5 -64.5t76.5 -19.5q37 0 65 29t28 67q0 54 -39 87.5t-82 33.5h-148l197 269h-238v186h559l-223 -313q79 -37 129.5 -104.5t50.5 -158.5q0 -127 -83.5 -209.5t-215.5 -82.5q-66 0 -120.5 24.5t-155.5 97.5z" />
<glyph unicode="&#xb4;" horiz-adv-x="980" d="M205 1229l287 348h284l-350 -348h-221z" />
<glyph unicode="&#xb5;" horiz-adv-x="1196" d="M154 -469v1493h309v-647q0 -46 27 -86.5t65 -40.5q52 0 94 38t62 91t20 106v539h311v-1024h-311v98q-13 -18 -32 -37.5t-49.5 -42t-73 -37t-89.5 -14.5q-16 0 -24 2v-438h-309z" />
<glyph unicode="&#xb6;" horiz-adv-x="1642" d="M154 1102q0 112 44.5 203.5t120 150t174 90t209.5 31.5h787v-277h-105v-1300h-297v1300h-108v-1300h-297v649q-104 1 -198.5 31.5t-168 86t-117.5 142.5t-44 193z" />
<glyph unicode="&#xb7;" horiz-adv-x="514" d="M102 750q0 67 45 112t111 45t110 -45t44 -112q0 -61 -44.5 -107.5t-109.5 -46.5t-110.5 46.5t-45.5 107.5z" />
<glyph unicode="&#xb8;" horiz-adv-x="643" d="M205 -207q63 0 90 14t27 60q0 14 -8 31.5t-16 29t-27.5 37t-26.5 35.5h100q8 -8 26 -31t43 -73t25 -91q0 -93 -68.5 -143.5t-164.5 -50.5v182z" />
<glyph unicode="&#xb9;" horiz-adv-x="495" d="M143 811v848h209v-848h-209z" />
<glyph unicode="&#xba;" horiz-adv-x="1157" d="M113 1163q0 120 64 226.5t171.5 170.5t229.5 64q124 0 232 -64t171 -170.5t63 -226.5q0 -121 -60 -227t-168 -171t-238 -65q-127 0 -234.5 64.5t-169 171t-61.5 227.5zM379 1163q0 -85 57.5 -152t141.5 -67q87 0 143.5 66.5t56.5 152.5q0 84 -56.5 150.5t-143.5 66.5 q-83 0 -141 -67t-58 -150z" />
<glyph unicode="&#xbb;" horiz-adv-x="1200" d="M102 0l410 512l-410 512h258l410 -512l-410 -512h-258zM481 0l410 512l-410 512h258l410 -512l-410 -512h-258z" />
<glyph unicode="&#xbc;" horiz-adv-x="1533" d="M143 729v848h209v-848h-209zM250 0l579 1577h195l-580 -1577h-194zM694 211l598 659v-473h99v-186h-99v-211h-198v211h-400zM1040 397h54v60z" />
<glyph unicode="&#xbd;" horiz-adv-x="1556" d="M143 729v848h209v-848h-209zM250 0l579 1577h195l-580 -1577h-194zM817 0q280 422 346 512q31 44 31 94q0 27 -22.5 45.5t-51.5 18.5q-34 0 -60 -12t-95 -56l-115 154q98 69 150.5 90.5t119.5 21.5q48 0 95 -15t88.5 -44.5t67.5 -82t26 -120.5q0 -61 -37.5 -135 t-82.5 -127.5t-82 -96.5t-36 -50h254v-197h-596z" />
<glyph unicode="&#xbe;" horiz-adv-x="1847" d="M143 831l115 158q50 -45 85 -64.5t77 -19.5q37 0 64.5 29t27.5 67q0 54 -39 87.5t-82 33.5h-147l196 269h-237v186h559l-223 -313q79 -37 129.5 -104.5t50.5 -158.5q0 -127 -83.5 -209.5t-215.5 -82.5q-66 0 -121 25t-156 97zM557 0l580 1577h194l-579 -1577h-195z M1008 211l598 659v-473h98v-186h-98v-211h-199v211h-399zM1354 397h53v60z" />
<glyph unicode="&#xbf;" horiz-adv-x="1300" d="M184 -78q0 37 4.5 69.5t10 58.5t19.5 52t24 44t34 41.5t38 37.5t47.5 38.5t51.5 37t60 41.5q22 15 30.5 22t23.5 27.5t20.5 45t10.5 69.5t5 108h311q-3 -160 -27 -254t-68.5 -148t-135.5 -116q-10 -7 -37.5 -24.5t-37 -24t-28 -22.5t-25 -28.5t-13 -32t-6.5 -42.5 q0 -75 50.5 -112t112.5 -37q67 0 137 25.5t165 88.5l155 -219q-152 -105 -246 -142.5t-211 -37.5q-66 0 -128 11.5t-126.5 41.5t-112 77t-78 125.5t-30.5 178.5zM532 842q0 78 54.5 130t132.5 52q79 0 130.5 -51t51.5 -131q0 -78 -52 -132.5t-130 -54.5q-77 0 -132 55.5 t-55 131.5z" />
<glyph unicode="&#xc0;" horiz-adv-x="1687" d="M61 0l785 1624l780 -1624h-371l-125 297h-569l-129 -297h-371zM369 2048l350 -348h221l-287 348h-284zM700 614h293l-147 330z" />
<glyph unicode="&#xc1;" horiz-adv-x="1687" d="M61 0l785 1624l780 -1624h-371l-125 297h-569l-129 -297h-371zM700 614h293l-147 330zM705 1700h221l350 348h-285z" />
<glyph unicode="&#xc2;" horiz-adv-x="1687" d="M61 0l785 1624l780 -1624h-371l-125 297h-569l-129 -297h-371zM465 1700l289 348h184l289 -348h-162l-219 160l-219 -160h-162zM700 614h293l-147 330z" />
<glyph unicode="&#xc3;" horiz-adv-x="1687" d="M61 0l785 1624l780 -1624h-371l-125 297h-569l-129 -297h-371zM442 1708q0 73 24 148t73 130.5t110 55.5q46 0 100 -22.5t95 -49.5t92.5 -49.5t93.5 -22.5q111 0 111 140h108q0 -70 -23 -145.5t-71 -132t-108 -56.5q-46 0 -101 25t-97 55t-93.5 55t-93.5 25 q-60 0 -85.5 -44.5t-25.5 -111.5h-109zM700 614h293l-147 330z" />
<glyph unicode="&#xc4;" horiz-adv-x="1687" d="M61 0l785 1624l780 -1624h-371l-125 297h-569l-129 -297h-371zM535 1821q0 53 34.5 89t81.5 36q54 0 89.5 -35.5t35.5 -89.5q0 -47 -36 -82t-89 -35q-46 0 -81 35.5t-35 81.5zM700 614h293l-147 330zM913 1821q0 53 36.5 89t84.5 36q52 0 87.5 -36t35.5 -89 q0 -46 -36.5 -81.5t-86.5 -35.5q-47 0 -84 35.5t-37 81.5z" />
<glyph unicode="&#xc5;" horiz-adv-x="1687" d="M61 0l740 1530q-67 15 -110.5 69.5t-43.5 124.5q0 82 58.5 140.5t140.5 58.5t140 -58.5t58 -140.5q0 -70 -44 -124.5t-109 -69.5l735 -1530h-371l-125 297h-569l-129 -297h-371zM700 614h293l-147 330zM774 1724q0 -28 23 -50.5t51 -22.5t51 22.5t23 50.5t-23 51t-51 23 t-51 -23t-23 -51z" />
<glyph unicode="&#xc6;" horiz-adv-x="2199" d="M51 0l1051 1577h926v-317h-642v-336h568v-318h-568v-289h660v-317h-999v606h-213l-396 -606h-387zM993 924h54v84z" />
<glyph unicode="&#xc7;" horiz-adv-x="1710" d="M154 788q0 162 65.5 311.5t175 258.5t259.5 174t313 65q280 0 573 -198l-176 -258q-113 73 -207 105t-190 32q-127 0 -234.5 -69t-168 -181.5t-60.5 -239.5t60.5 -239.5t167.5 -181t235 -68.5q203 0 428 162l172 -256q-281 -218 -584 -225q78 -94 78 -175 q0 -93 -68.5 -143.5t-165.5 -50.5v182q63 0 90 14t27 60q0 7 -1.5 14t-5.5 15.5t-7 14t-11 17t-11.5 17t-15 20.5t-15.5 21q-149 16 -282.5 86.5t-230.5 176.5t-153.5 247t-56.5 292z" />
<glyph unicode="&#xc8;" horiz-adv-x="1345" d="M184 0v1577h987v-317h-641v-314h560v-317h-560v-312h662v-317h-1008zM268 2048l350 -348h222l-287 348h-285z" />
<glyph unicode="&#xc9;" horiz-adv-x="1345" d="M184 0v1577h987v-317h-641v-314h560v-317h-560v-312h662v-317h-1008zM465 1700h221l350 348h-284z" />
<glyph unicode="&#xca;" horiz-adv-x="1345" d="M184 0v1577h987v-317h-641v-314h560v-317h-560v-312h662v-317h-1008zM305 1700l289 348h184l289 -348h-162l-219 160l-219 -160h-162z" />
<glyph unicode="&#xcb;" horiz-adv-x="1345" d="M184 0v1577h987v-317h-641v-314h560v-317h-560v-312h662v-317h-1008zM377 1821q0 53 35 89t82 36q54 0 89 -35.5t35 -89.5q0 -47 -35.5 -82t-88.5 -35q-46 0 -81.5 35.5t-35.5 81.5zM756 1821q0 53 36.5 89t84.5 36q51 0 86.5 -35.5t35.5 -89.5q0 -46 -36 -81.5 t-86 -35.5q-47 0 -84 35.5t-37 81.5z" />
<glyph unicode="&#xcc;" horiz-adv-x="643" d="M-31 2048h285l287 -348h-222zM190 0v1577h347v-1577h-347z" />
<glyph unicode="&#xcd;" horiz-adv-x="643" d="M100 0v1577h346v-1577h-346zM102 1700l287 348h285l-350 -348h-222z" />
<glyph unicode="&#xce;" horiz-adv-x="618" d="M-72 1700l289 348h184l289 -348h-162l-219 160l-219 -160h-162zM137 0v1577h346v-1577h-346z" />
<glyph unicode="&#xcf;" horiz-adv-x="561" d="M-31 1821q0 53 35 89t82 36q54 0 89.5 -35.5t35.5 -89.5q0 -47 -36 -82t-89 -35q-46 0 -81.5 35.5t-35.5 81.5zM109 0v1577h346v-1577h-346zM348 1821q0 53 36.5 89t84.5 36q51 0 87 -36t36 -89q0 -46 -36.5 -81.5t-86.5 -35.5q-47 0 -84 35.5t-37 81.5z" />
<glyph unicode="&#xd0;" horiz-adv-x="1644" d="M72 483v179h98v915h522q171 0 320.5 -61.5t254 -167t164.5 -250.5t60 -307q0 -163 -59.5 -309t-164 -252t-254 -168t-321.5 -62h-522v483h-98zM516 317h176q127 0 230.5 64t161 172.5t57.5 237.5q0 128 -57.5 235t-161 170.5t-230.5 63.5h-176v-598h242v-179h-242v-166z " />
<glyph unicode="&#xd1;" horiz-adv-x="1724" d="M184 0v1624l1010 -913v866h346v-1640l-1010 913v-850h-346zM449 1716q0 73 23.5 148t72.5 130.5t110 55.5q46 0 100 -22.5t95 -49t92.5 -49t93.5 -22.5q111 0 111 139h108q0 -70 -23 -145.5t-71 -132t-108 -56.5q-46 0 -101 25t-97 55t-93.5 55t-93.5 25 q-60 0 -85.5 -44.5t-25.5 -111.5h-108z" />
<glyph unicode="&#xd2;" horiz-adv-x="1904" d="M143 791q0 216 109.5 402t296.5 295t405 109q164 0 313.5 -65t257.5 -174t172 -257.5t64 -309.5q0 -165 -64.5 -315.5t-173.5 -259t-258 -172.5t-311 -64q-163 0 -312.5 64t-259 172.5t-174.5 259t-65 315.5zM492 791q0 -128 60 -241t167 -182t235 -69q126 0 232 69 t165.5 182t59.5 241q0 95 -35.5 184t-96 155.5t-146 107t-179.5 40.5q-128 0 -235 -68t-167 -180t-60 -239zM512 2048l350 -348h221l-286 348h-285z" />
<glyph unicode="&#xd3;" horiz-adv-x="1904" d="M143 791q0 216 109.5 402t296.5 295t405 109q164 0 313.5 -65t257.5 -174t172 -257.5t64 -309.5q0 -165 -64.5 -315.5t-173.5 -259t-258 -172.5t-311 -64q-163 0 -312.5 64t-259 172.5t-174.5 259t-65 315.5zM492 791q0 -128 60 -241t167 -182t235 -69q126 0 232 69 t165.5 182t59.5 241q0 95 -35.5 184t-96 155.5t-146 107t-179.5 40.5q-128 0 -235 -68t-167 -180t-60 -239zM844 1700h221l350 348h-285z" />
<glyph unicode="&#xd4;" horiz-adv-x="1904" d="M143 791q0 216 109.5 402t296.5 295t405 109q164 0 313.5 -65t257.5 -174t172 -257.5t64 -309.5q0 -165 -64.5 -315.5t-173.5 -259t-258 -172.5t-311 -64q-163 0 -312.5 64t-259 172.5t-174.5 259t-65 315.5zM492 791q0 -128 60 -241t167 -182t235 -69q126 0 232 69 t165.5 182t59.5 241q0 95 -35.5 184t-96 155.5t-146 107t-179.5 40.5q-128 0 -235 -68t-167 -180t-60 -239zM573 1700l289 348h185l288 -348h-161l-220 160l-219 -160h-162z" />
<glyph unicode="&#xd5;" horiz-adv-x="1904" d="M143 791q0 216 109.5 402t296.5 295t405 109q164 0 313.5 -65t257.5 -174t172 -257.5t64 -309.5q0 -165 -64.5 -315.5t-173.5 -259t-258 -172.5t-311 -64q-163 0 -312.5 64t-259 172.5t-174.5 259t-65 315.5zM492 791q0 -128 60 -241t167 -182t235 -69q126 0 232 69 t165.5 182t59.5 241q0 95 -35.5 184t-96 155.5t-146 107t-179.5 40.5q-128 0 -235 -68t-167 -180t-60 -239zM551 1712q0 73 24 148t73 130.5t110 55.5q46 0 100 -22.5t95 -49t92.5 -49t93.5 -22.5q110 0 110 139h109q0 -70 -23.5 -145.5t-71.5 -132t-108 -56.5 q-46 0 -101 25t-97 55t-93.5 55t-93.5 25q-60 0 -85.5 -44.5t-25.5 -111.5h-108z" />
<glyph unicode="&#xd6;" horiz-adv-x="1904" d="M143 791q0 216 109.5 402t296.5 295t405 109q164 0 313.5 -65t257.5 -174t172 -257.5t64 -309.5q0 -165 -64.5 -315.5t-173.5 -259t-258 -172.5t-311 -64q-163 0 -312.5 64t-259 172.5t-174.5 259t-65 315.5zM492 791q0 -128 60 -241t167 -182t235 -69q126 0 232 69 t165.5 182t59.5 241q0 95 -35.5 184t-96 155.5t-146 107t-179.5 40.5q-128 0 -235 -68t-167 -180t-60 -239zM639 1821q0 53 35 89t82 36q54 0 89.5 -35.5t35.5 -89.5q0 -47 -36 -82t-89 -35q-46 0 -81.5 35.5t-35.5 81.5zM1018 1821q0 53 36.5 89t84.5 36q51 0 87 -36 t36 -89q0 -46 -36.5 -81.5t-86.5 -35.5q-47 0 -84 35.5t-37 81.5z" />
<glyph unicode="&#xd7;" horiz-adv-x="1196" d="M143 489l299 299l-299 299l156 156l299 -299l299 299l156 -156l-299 -299l299 -299l-156 -155l-299 299l-299 -299z" />
<glyph unicode="&#xd8;" horiz-adv-x="1904" d="M143 0l213 244q-100 110 -156.5 251t-56.5 296q0 216 109.5 402t296.5 295t405 109q253 0 459 -147l111 127h237l-213 -244q101 -111 157 -250.5t56 -291.5q0 -165 -64.5 -315.5t-173.5 -259t-258 -172.5t-311 -64q-253 0 -462 147l-111 -127h-238zM492 791 q0 -158 90 -291l614 702q-113 76 -242 76q-128 0 -235 -68t-167 -180t-60 -239zM709 375q109 -76 245 -76q126 0 232 69t165.5 182t59.5 241q0 153 -88 284z" />
<glyph unicode="&#xd9;" horiz-adv-x="1685" d="M184 627v950h346v-932q0 -136 92 -241t222 -105q129 0 220 104.5t91 241.5v932h346v-942q0 -172 -92.5 -324t-244.5 -241.5t-320 -89.5q-171 0 -323.5 88t-244.5 238t-92 321zM403 2048l351 -348h221l-287 348h-285z" />
<glyph unicode="&#xda;" horiz-adv-x="1685" d="M184 627v950h346v-932q0 -136 92 -241t222 -105q129 0 220 104.5t91 241.5v932h346v-942q0 -172 -92.5 -324t-244.5 -241.5t-320 -89.5q-171 0 -323.5 88t-244.5 238t-92 321zM743 1700h222l350 348h-285z" />
<glyph unicode="&#xdb;" horiz-adv-x="1685" d="M184 627v950h346v-932q0 -136 92 -241t222 -105q129 0 220 104.5t91 241.5v932h346v-942q0 -172 -92.5 -324t-244.5 -241.5t-320 -89.5q-171 0 -323.5 88t-244.5 238t-92 321zM463 1700l289 348h184l289 -348h-162l-219 160l-219 -160h-162z" />
<glyph unicode="&#xdc;" horiz-adv-x="1685" d="M184 627v950h346v-932q0 -136 92 -241t222 -105q129 0 220 104.5t91 241.5v932h346v-942q0 -172 -92.5 -324t-244.5 -241.5t-320 -89.5q-171 0 -323.5 88t-244.5 238t-92 321zM528 1821q0 53 35 89t82 36q54 0 89.5 -35.5t35.5 -89.5q0 -47 -36 -82t-89 -35 q-46 0 -81.5 35.5t-35.5 81.5zM907 1821q0 53 36.5 89t84.5 36q52 0 87.5 -36t35.5 -89q0 -46 -36.5 -81.5t-86.5 -35.5q-47 0 -84 35.5t-37 81.5z" />
<glyph unicode="&#xdd;" horiz-adv-x="1648" d="M61 1577h388l376 -592l377 592h385l-588 -903v-674h-346v674zM684 1700h221l350 348h-284z" />
<glyph unicode="&#xde;" horiz-adv-x="1304" d="M184 0v1577h332v-264h74q116 0 218 -31.5t181.5 -90.5t125.5 -153.5t46 -212.5q0 -111 -46 -199.5t-124 -143.5t-176.5 -84t-208.5 -29h-90v-369h-332zM516 674h90q95 0 159 40.5t64 110.5q0 88 -66.5 135.5t-172.5 47.5h-74v-334z" />
<glyph unicode="&#xdf;" horiz-adv-x="1222" d="M154 0v1155q0 196 134 322.5t341 126.5q77 0 150.5 -28.5t134.5 -82.5t98 -142t37 -196q0 -70 -32.5 -135t-70.5 -102t-80 -62q42 -20 83 -55t78 -83t60 -112.5t23 -134.5q0 -87 -19.5 -159t-51 -119.5t-75 -84t-86 -56.5t-89.5 -32.5t-81 -16t-65 -3.5h-63v281 q75 0 122 14t68.5 43t28 58t6.5 75q0 35 -4.5 63.5t-18.5 59.5t-37.5 52t-65 34.5t-97.5 13.5v248q83 35 122 91.5t39 121.5q0 70 -37.5 119t-95.5 49q-35 0 -62 -11t-43.5 -28.5t-27 -40.5t-14.5 -44.5t-4 -43.5v-1155h-305z" />
<glyph unicode="&#xe0;" horiz-adv-x="1157" d="M123 319q0 64 19 113.5t54.5 80.5t76.5 52t94 31t97.5 14t96.5 4l131 -4v54q0 38 -27 64.5t-56.5 36t-53.5 9.5q-117 0 -215 -80l-182 189q113 109 203.5 141.5t213.5 32.5q112 0 209.5 -48t158.5 -139.5t61 -205.5v-664h-295v78q-37 -39 -103 -74t-137 -35 q-151 0 -248.5 96.5t-97.5 253.5zM156 1577l350 -348h221l-287 348h-284zM436 319q0 -23 25 -41t53 -18q74 0 126 32.5t52 67.5v52q-11 1 -32.5 2.5t-38 2.5t-27.5 1q-62 0 -110 -28.5t-48 -70.5z" />
<glyph unicode="&#xe1;" horiz-adv-x="1157" d="M123 319q0 64 19 113.5t54.5 80.5t76.5 52t94 31t97.5 14t96.5 4l131 -4v54q0 38 -27 64.5t-56.5 36t-53.5 9.5q-117 0 -215 -80l-182 189q113 109 203.5 141.5t213.5 32.5q112 0 209.5 -48t158.5 -139.5t61 -205.5v-664h-295v78q-37 -39 -103 -74t-137 -35 q-151 0 -248.5 96.5t-97.5 253.5zM436 319q0 -23 25 -41t53 -18q74 0 126 32.5t52 67.5v52q-11 1 -32.5 2.5t-38 2.5t-27.5 1q-62 0 -110 -28.5t-48 -70.5zM438 1229h221l351 348h-285z" />
<glyph unicode="&#xe2;" horiz-adv-x="1157" d="M123 319q0 64 19 113.5t54.5 80.5t76.5 52t94 31t97.5 14t96.5 4l131 -4v54q0 38 -27 64.5t-56.5 36t-53.5 9.5q-117 0 -215 -80l-182 189q113 109 203.5 141.5t213.5 32.5q112 0 209.5 -48t158.5 -139.5t61 -205.5v-664h-295v78q-37 -39 -103 -74t-137 -35 q-151 0 -248.5 96.5t-97.5 253.5zM201 1229l288 348h185l289 -348h-162l-219 160l-220 -160h-161zM436 319q0 -23 25 -41t53 -18q74 0 126 32.5t52 67.5v52q-11 1 -32.5 2.5t-38 2.5t-27.5 1q-62 0 -110 -28.5t-48 -70.5z" />
<glyph unicode="&#xe3;" horiz-adv-x="1157" d="M123 319q0 64 19 113.5t54.5 80.5t76.5 52t94 31t97.5 14t96.5 4l131 -4v54q0 38 -27 64.5t-56.5 36t-53.5 9.5q-117 0 -215 -80l-182 189q113 109 203.5 141.5t213.5 32.5q112 0 209.5 -48t158.5 -139.5t61 -205.5v-664h-295v78q-37 -39 -103 -74t-137 -35 q-151 0 -248.5 96.5t-97.5 253.5zM170 1243q0 73 24 148t73 130.5t110 55.5q46 0 100 -22.5t95 -49t92.5 -49t93.5 -22.5q110 0 110 139h109q0 -70 -23.5 -145.5t-71.5 -132t-108 -56.5q-46 0 -101 25t-97 55t-93.5 55t-93.5 25q-110 0 -110 -156h-109zM436 319 q0 -23 25 -41t53 -18q74 0 126 32.5t52 67.5v52q-11 1 -32.5 2.5t-38 2.5t-27.5 1q-62 0 -110 -28.5t-48 -70.5z" />
<glyph unicode="&#xe4;" horiz-adv-x="1157" d="M123 319q0 64 19 113.5t54.5 80.5t76.5 52t94 31t97.5 14t96.5 4l131 -4v54q0 38 -27 64.5t-56.5 36t-53.5 9.5q-117 0 -215 -80l-182 189q113 109 203.5 141.5t213.5 32.5q112 0 209.5 -48t158.5 -139.5t61 -205.5v-664h-295v78q-37 -39 -103 -74t-137 -35 q-151 0 -248.5 96.5t-97.5 253.5zM260 1411q0 53 35 89t82 36q54 0 89.5 -35.5t35.5 -89.5q0 -47 -36 -82t-89 -35q-46 0 -81.5 35.5t-35.5 81.5zM436 319q0 -23 25 -41t53 -18q74 0 126 32.5t52 67.5v52q-11 1 -32.5 2.5t-38 2.5t-27.5 1q-62 0 -110 -28.5t-48 -70.5z M639 1411q0 53 36.5 89t84.5 36q52 0 87.5 -36t35.5 -89q0 -46 -36.5 -81.5t-86.5 -35.5q-47 0 -84 35.5t-37 81.5z" />
<glyph unicode="&#xe5;" horiz-adv-x="1157" d="M123 319q0 64 19 113.5t54.5 80.5t76.5 52t94 31t97.5 14t96.5 4l131 -4v54q0 38 -27 64.5t-56.5 36t-53.5 9.5q-117 0 -215 -80l-182 189q113 109 203.5 141.5t213.5 32.5q112 0 209.5 -48t158.5 -139.5t61 -205.5v-664h-295v78q-37 -39 -103 -74t-137 -35 q-151 0 -248.5 96.5t-97.5 253.5zM358 1378q0 82 58.5 140.5t140.5 58.5t140.5 -58.5t58.5 -140.5t-58.5 -140t-140.5 -58t-140.5 58t-58.5 140zM436 319q0 -23 25 -41t53 -18q74 0 126 32.5t52 67.5v52q-11 1 -32.5 2.5t-38 2.5t-27.5 1q-62 0 -110 -28.5t-48 -70.5z M485 1378q0 -28 23 -50.5t51 -22.5t51 22.5t23 50.5t-23 51t-51 23t-51 -23t-23 -51z" />
<glyph unicode="&#xe6;" horiz-adv-x="1916" d="M123 319q0 64 19 113.5t54.5 80.5t76.5 52t94 31t97.5 14t96.5 4l131 -4v54q0 38 -27 64.5t-56.5 36t-53.5 9.5q-117 0 -215 -80l-182 189q113 109 203.5 141.5t213.5 32.5q104 0 197.5 -44t153.5 -122q156 166 381 166q99 0 188 -34.5t160.5 -99.5t114 -170t42.5 -235 v-39h-706q18 -107 84 -166t176 -59q129 0 266 96l152 -229q-119 -93 -225 -122.5t-238 -29.5q-173 0 -317 109v-78h-295v78q-37 -39 -103 -74t-137 -35q-151 0 -248.5 96.5t-97.5 253.5zM436 319q0 -23 25 -41t53 -18q74 0 126 32.5t52 67.5v52q-11 1 -32.5 2.5t-38 2.5 t-27.5 1q-62 0 -110 -28.5t-48 -70.5zM1130 674h347q-15 45 -60 78.5t-110 33.5q-68 0 -115 -33.5t-62 -78.5z" />
<glyph unicode="&#xe7;" horiz-adv-x="1161" d="M113 514q0 106 43 206t115.5 174t171.5 118.5t206 44.5q201 0 385 -125l-129 -232q-65 43 -115 58.5t-106 15.5q-107 0 -182.5 -73.5t-75.5 -186.5q0 -110 76 -187t174 -77q55 0 109 19.5t124 72.5l150 -219q-206 -148 -391 -154q69 -88 69 -164q0 -93 -68.5 -143.5 t-164.5 -50.5v182q63 0 90 14t27 60q0 7 -1.5 14t-5.5 15.5t-7 14.5t-10.5 16.5t-11 15.5t-13.5 17.5t-13 16.5q-194 32 -320 186t-126 351z" />
<glyph unicode="&#xe8;" horiz-adv-x="1249" d="M113 512q0 144 66.5 268.5t188.5 200.5t271 76q99 0 188.5 -34.5t161 -99.5t114 -170t42.5 -235v-39h-707q18 -107 84 -166t176 -59q130 0 267 96l151 -229q-119 -93 -225 -122.5t-238 -29.5q-107 0 -207 44.5t-172.5 118t-116.5 174t-44 206.5zM201 1577l350 -348h221 l-287 348h-284zM463 674h346q-15 45 -60 78.5t-110 33.5q-67 0 -114 -33.5t-62 -78.5z" />
<glyph unicode="&#xe9;" horiz-adv-x="1249" d="M113 512q0 144 66.5 268.5t188.5 200.5t271 76q99 0 188.5 -34.5t161 -99.5t114 -170t42.5 -235v-39h-707q18 -107 84 -166t176 -59q130 0 267 96l151 -229q-119 -93 -225 -122.5t-238 -29.5q-107 0 -207 44.5t-172.5 118t-116.5 174t-44 206.5zM463 674h346 q-15 45 -60 78.5t-110 33.5q-67 0 -114 -33.5t-62 -78.5zM516 1229h221l350 348h-284z" />
<glyph unicode="&#xea;" horiz-adv-x="1249" d="M113 512q0 144 66.5 268.5t188.5 200.5t271 76q99 0 188.5 -34.5t161 -99.5t114 -170t42.5 -235v-39h-707q18 -107 84 -166t176 -59q130 0 267 96l151 -229q-119 -93 -225 -122.5t-238 -29.5q-107 0 -207 44.5t-172.5 118t-116.5 174t-44 206.5zM250 1229l289 348h184 l289 -348h-162l-219 160l-219 -160h-162zM463 674h346q-15 45 -60 78.5t-110 33.5q-67 0 -114 -33.5t-62 -78.5z" />
<glyph unicode="&#xeb;" horiz-adv-x="1249" d="M113 512q0 144 66.5 268.5t188.5 200.5t271 76q99 0 188.5 -34.5t161 -99.5t114 -170t42.5 -235v-39h-707q18 -107 84 -166t176 -59q130 0 267 96l151 -229q-119 -93 -225 -122.5t-238 -29.5q-107 0 -207 44.5t-172.5 118t-116.5 174t-44 206.5zM324 1411q0 53 34.5 89 t81.5 36q54 0 89.5 -35.5t35.5 -89.5q0 -47 -36 -82t-89 -35q-46 0 -81 35.5t-35 81.5zM463 674h346q-15 45 -60 78.5t-110 33.5q-67 0 -114 -33.5t-62 -78.5zM702 1411q0 53 36.5 89t84.5 36q51 0 87 -36t36 -89q0 -46 -36.5 -81.5t-86.5 -35.5q-47 0 -84 35.5t-37 81.5z " />
<glyph unicode="&#xec;" horiz-adv-x="591" d="M-41 1577l350 -348h221l-286 348h-285zM195 0v1024h309v-1024h-309z" />
<glyph unicode="&#xed;" horiz-adv-x="591" d="M61 1229h222l350 348h-285zM88 0v1024h309v-1024h-309z" />
<glyph unicode="&#xee;" horiz-adv-x="598" d="M-82 1229l289 348h184l289 -348h-162l-219 160l-219 -160h-162zM145 0v1024h310v-1024h-310z" />
<glyph unicode="&#xef;" horiz-adv-x="499" d="M-61 1411q0 53 34.5 89t81.5 36q54 0 89.5 -35.5t35.5 -89.5q0 -47 -36 -82t-89 -35q-46 0 -81 35.5t-35 81.5zM98 0v1024h310v-1024h-310zM317 1411q0 53 36.5 89t84.5 36q52 0 87.5 -36t35.5 -89q0 -46 -36.5 -81.5t-86.5 -35.5q-47 0 -84 35.5t-37 81.5z" />
<glyph unicode="&#xf0;" horiz-adv-x="1232" d="M123 471q0 131 67 241.5t180.5 173t245.5 62.5q26 0 50 -6q-56 85 -97 139l-178 -102l-88 156l143 82q-80 68 -204 151l145 225q184 -142 287 -247l260 147l88 -156l-225 -127q313 -373 313 -739q0 -97 -40 -187.5t-106.5 -156.5t-157.5 -105.5t-190 -39.5 q-132 0 -245.5 66.5t-180.5 179.5t-67 243zM432 471q0 -84 49.5 -147.5t134.5 -63.5q86 0 135.5 63.5t49.5 147.5q0 83 -53.5 141t-131.5 58q-80 0 -132 -58.5t-52 -140.5z" />
<glyph unicode="&#xf1;" d="M154 0v1024h311v-98q13 18 32 37.5t49.5 42t73 37t89.5 14.5q151 0 243 -120t92 -290v-647h-311v647q0 46 -27 86.5t-65 40.5q-52 0 -94 -38t-62 -91t-20 -106v-539h-311zM193 1243q0 73 23.5 148t72.5 130.5t110 55.5q46 0 100 -22.5t95 -49t92.5 -49t93.5 -22.5 q111 0 111 139h108q0 -70 -23 -145.5t-71 -132t-108 -56.5q-46 0 -101 25t-97 55t-93.5 55t-93.5 25q-60 0 -85.5 -44.5t-25.5 -111.5h-108z" />
<glyph unicode="&#xf2;" horiz-adv-x="1323" d="M113 514q0 141 75.5 266.5t202.5 201t271 75.5q146 0 273 -75.5t201 -201t74 -266.5q0 -144 -70.5 -268.5t-197.5 -200.5t-280 -76q-113 0 -215.5 45t-175 119t-115.5 174t-43 207zM217 1577l350 -348h221l-286 348h-285zM426 514q0 -101 68.5 -180.5t167.5 -79.5 q102 0 168.5 79t66.5 181q0 100 -66.5 178t-168.5 78q-99 0 -167.5 -78.5t-68.5 -177.5z" />
<glyph unicode="&#xf3;" horiz-adv-x="1323" d="M113 514q0 141 75.5 266.5t202.5 201t271 75.5q146 0 273 -75.5t201 -201t74 -266.5q0 -144 -70.5 -268.5t-197.5 -200.5t-280 -76q-113 0 -215.5 45t-175 119t-115.5 174t-43 207zM426 514q0 -101 68.5 -180.5t167.5 -79.5q102 0 168.5 79t66.5 181q0 100 -66.5 178 t-168.5 78q-99 0 -167.5 -78.5t-68.5 -177.5zM553 1229h221l350 348h-284z" />
<glyph unicode="&#xf4;" horiz-adv-x="1323" d="M113 514q0 141 75.5 266.5t202.5 201t271 75.5q146 0 273 -75.5t201 -201t74 -266.5q0 -144 -70.5 -268.5t-197.5 -200.5t-280 -76q-113 0 -215.5 45t-175 119t-115.5 174t-43 207zM283 1229l288 348h185l288 -348h-161l-219 160l-220 -160h-161zM426 514 q0 -101 68.5 -180.5t167.5 -79.5q102 0 168.5 79t66.5 181q0 100 -66.5 178t-168.5 78q-99 0 -167.5 -78.5t-68.5 -177.5z" />
<glyph unicode="&#xf5;" horiz-adv-x="1323" d="M113 514q0 141 75.5 266.5t202.5 201t271 75.5q146 0 273 -75.5t201 -201t74 -266.5q0 -144 -70.5 -268.5t-197.5 -200.5t-280 -76q-113 0 -215.5 45t-175 119t-115.5 174t-43 207zM260 1243q0 73 24 148t73 130.5t110 55.5q46 0 100 -22.5t95 -49t92.5 -49t93.5 -22.5 q110 0 110 139h109q0 -70 -23.5 -145.5t-71.5 -132t-108 -56.5q-46 0 -101 25t-97 55t-93.5 55t-93.5 25q-110 0 -110 -156h-109zM426 514q0 -101 68.5 -180.5t167.5 -79.5q102 0 168.5 79t66.5 181q0 100 -66.5 178t-168.5 78q-99 0 -167.5 -78.5t-68.5 -177.5z" />
<glyph unicode="&#xf6;" horiz-adv-x="1323" d="M113 514q0 141 75.5 266.5t202.5 201t271 75.5q146 0 273 -75.5t201 -201t74 -266.5q0 -144 -70.5 -268.5t-197.5 -200.5t-280 -76q-113 0 -215.5 45t-175 119t-115.5 174t-43 207zM348 1411q0 53 35 89t82 36q54 0 89.5 -35.5t35.5 -89.5q0 -47 -36 -82t-89 -35 q-46 0 -81.5 35.5t-35.5 81.5zM426 514q0 -101 68.5 -180.5t167.5 -79.5q102 0 168.5 79t66.5 181q0 100 -66.5 178t-168.5 78q-99 0 -167.5 -78.5t-68.5 -177.5zM727 1411q0 53 36.5 89t84.5 36q52 0 87.5 -36t35.5 -89q0 -46 -36.5 -81.5t-86.5 -35.5q-47 0 -84 35.5 t-37 81.5z" />
<glyph unicode="&#xf7;" horiz-adv-x="1351" d="M143 678v221h1065v-221h-1065zM541 389q0 61 37 100t96 39q62 0 100.5 -39t38.5 -100q0 -59 -39 -96t-100 -37q-58 0 -95.5 37t-37.5 96zM541 1182q0 61 37 100t96 39q62 0 100.5 -38.5t38.5 -100.5q0 -59 -39 -96t-100 -37q-58 0 -95.5 37.5t-37.5 95.5z" />
<glyph unicode="&#xf8;" horiz-adv-x="1323" d="M113 0l133 160q-133 152 -133 354q0 141 75.5 266.5t202.5 201t271 75.5q143 0 274 -78l37 45h237l-135 -160q64 -73 99.5 -164t35.5 -186q0 -144 -70.5 -268.5t-197.5 -200.5t-280 -76q-143 0 -275 74l-37 -43h-237zM426 514q0 -58 25 -113l294 353q-43 16 -83 16 q-99 0 -167.5 -78.5t-68.5 -177.5zM578 270q40 -16 84 -16q102 0 168.5 79t66.5 181q0 54 -25 109z" />
<glyph unicode="&#xf9;" d="M154 377v647h311v-647q0 -46 27 -86.5t65 -40.5q52 0 94 38t62 91t20 106v539h311v-1024h-311v98q-13 -18 -32 -37.5t-49.5 -42t-73 -37t-89.5 -14.5q-151 0 -243 120t-92 290zM158 1577l350 -348h221l-287 348h-284z" />
<glyph unicode="&#xfa;" d="M154 377v647h311v-647q0 -46 27 -86.5t65 -40.5q52 0 94 38t62 91t20 106v539h311v-1024h-311v98q-13 -18 -32 -37.5t-49.5 -42t-73 -37t-89.5 -14.5q-151 0 -243 120t-92 290zM463 1229h221l350 348h-284z" />
<glyph unicode="&#xfb;" d="M154 377v647h311v-647q0 -46 27 -86.5t65 -40.5q52 0 94 38t62 91t20 106v539h311v-1024h-311v98q-13 -18 -32 -37.5t-49.5 -42t-73 -37t-89.5 -14.5q-151 0 -243 120t-92 290zM225 1229l289 348h184l289 -348h-162l-219 160l-219 -160h-162z" />
<glyph unicode="&#xfc;" d="M154 377v647h311v-647q0 -46 27 -86.5t65 -40.5q52 0 94 38t62 91t20 106v539h311v-1024h-311v98q-13 -18 -32 -37.5t-49.5 -42t-73 -37t-89.5 -14.5q-151 0 -243 120t-92 290zM283 1411q0 53 34.5 89t81.5 36q54 0 89.5 -35.5t35.5 -89.5q0 -47 -36 -82t-89 -35 q-46 0 -81 35.5t-35 81.5zM662 1411q0 53 36 89t84 36q52 0 87.5 -36t35.5 -89q0 -46 -36.5 -81.5t-86.5 -35.5q-47 0 -83.5 35.5t-36.5 81.5z" />
<glyph unicode="&#xfd;" horiz-adv-x="1169" d="M61 1024h330l191 -471l211 471h315l-723 -1536h-307l346 719zM461 1229h221l350 348h-284z" />
<glyph unicode="&#xfe;" horiz-adv-x="1245" d="M154 -512v2087h311v-612q36 39 93.5 66.5t123.5 27.5q83 0 165 -45t145 -118.5t102 -175t39 -206.5q0 -140 -65.5 -267t-170 -201.5t-215.5 -74.5q-67 0 -130 31t-87 61v-573h-311zM465 315q27 -27 64 -46t71 -19q86 0 150.5 81.5t64.5 180.5q0 100 -64.5 181t-150.5 81 q-74 0 -135 -61v-398z" />
<glyph unicode="&#xff;" horiz-adv-x="1169" d="M61 1024h330l191 -471l211 471h315l-723 -1536h-307l346 719zM272 1411q0 53 35 89t82 36q54 0 89.5 -35.5t35.5 -89.5q0 -47 -36 -82t-89 -35q-46 0 -81.5 35.5t-35.5 81.5zM651 1411q0 53 36.5 89t84.5 36q52 0 87.5 -36t35.5 -89q0 -46 -36.5 -81.5t-86.5 -35.5 q-47 0 -84 35.5t-37 81.5z" />
<glyph unicode="&#x152;" horiz-adv-x="2158" d="M143 791q0 217 102.5 396.5t287 284.5t413.5 105h1039v-317h-644v-314h562v-317h-562v-312h664v-317h-1059q-172 0 -322 62t-255 168t-165.5 252t-60.5 309zM485 791q0 -128 60.5 -237t167 -173t233.5 -64h58v943h-58q-128 0 -234 -63t-166.5 -171t-60.5 -235z" />
<glyph unicode="&#x153;" horiz-adv-x="2273" d="M113 514q0 141 75.5 266.5t202.5 201t271 75.5q168 0 307 -98.5t202 -251.5q57 156 188.5 253t303.5 97q99 0 188.5 -34.5t161 -99.5t114 -170t42.5 -235v-39h-707q18 -107 84 -166t176 -59q130 0 267 96l151 -229q-119 -93 -225 -122.5t-238 -29.5q-166 0 -304 98 t-199 252q-59 -155 -197 -252.5t-315 -97.5q-113 0 -215.5 45t-175 119t-115.5 174t-43 207zM426 514q0 -101 68.5 -180.5t167.5 -79.5q102 0 168.5 79t66.5 181q0 100 -66.5 178t-168.5 78q-99 0 -167.5 -78.5t-68.5 -177.5zM1487 674h346q-15 45 -60 78.5t-110 33.5 q-67 0 -114 -33.5t-62 -78.5z" />
<glyph unicode="&#x178;" horiz-adv-x="1648" d="M61 1577h388l376 -592l377 592h385l-588 -903v-674h-346v674zM514 1821q0 53 35 89t82 36q54 0 89.5 -35.5t35.5 -89.5q0 -47 -36 -82t-89 -35q-46 0 -81.5 35.5t-35.5 81.5zM893 1821q0 53 36.5 89t84.5 36q52 0 87.5 -36t35.5 -89q0 -46 -36.5 -81.5t-86.5 -35.5 q-47 0 -84 35.5t-37 81.5z" />
<glyph unicode="&#x2c6;" horiz-adv-x="1171" d="M205 1229l289 348h184l289 -348h-162l-219 160l-219 -160h-162z" />
<glyph unicode="&#x2dc;" horiz-adv-x="1216" d="M205 1284q0 73 24 148t73 130.5t110 55.5q46 0 100 -22.5t95 -49t92.5 -49t93.5 -22.5q110 0 110 139h109q0 -70 -23.5 -145.5t-71.5 -132t-108 -56.5q-46 0 -101 25t-97 55t-93.5 55t-93.5 25q-60 0 -85.5 -44.5t-25.5 -111.5h-108z" />
<glyph unicode="&#x2000;" horiz-adv-x="1025" />
<glyph unicode="&#x2001;" horiz-adv-x="2050" />
<glyph unicode="&#x2002;" horiz-adv-x="1025" />
<glyph unicode="&#x2003;" horiz-adv-x="2050" />
<glyph unicode="&#x2004;" horiz-adv-x="683" />
<glyph unicode="&#x2005;" horiz-adv-x="512" />
<glyph unicode="&#x2006;" horiz-adv-x="341" />
<glyph unicode="&#x2007;" horiz-adv-x="341" />
<glyph unicode="&#x2008;" horiz-adv-x="256" />
<glyph unicode="&#x2009;" horiz-adv-x="410" />
<glyph unicode="&#x200a;" horiz-adv-x="113" />
<glyph unicode="&#x2010;" horiz-adv-x="899" d="M102 457v221h695v-221h-695z" />
<glyph unicode="&#x2011;" horiz-adv-x="899" d="M102 457v221h695v-221h-695z" />
<glyph unicode="&#x2012;" horiz-adv-x="899" d="M102 457v221h695v-221h-695z" />
<glyph unicode="&#x2013;" horiz-adv-x="997" d="M102 453v221h793v-221h-793z" />
<glyph unicode="&#x2014;" horiz-adv-x="1079" d="M102 453v221h875v-221h-875z" />
<glyph unicode="&#x2018;" horiz-adv-x="518" d="M102 1165q0 281 234 459l70 -104q-91 -62 -142 -199q60 -3 106 -45.5t46 -110.5q0 -62 -46.5 -108.5t-111.5 -46.5q-62 0 -109 47t-47 108z" />
<glyph unicode="&#x2019;" horiz-adv-x="518" d="M102 1468q0 62 46.5 109t111.5 47q62 0 109 -47t47 -109q0 -280 -234 -458l-69 104q90 61 141 199q-60 3 -106 45t-46 110z" />
<glyph unicode="&#x201a;" horiz-adv-x="518" d="M102 156q0 62 46.5 108.5t111.5 46.5q62 0 109 -47t47 -108q0 -281 -234 -459l-69 104q90 61 141 199q-60 3 -106 45.5t-46 110.5z" />
<glyph unicode="&#x201c;" horiz-adv-x="956" d="M102 1165q0 281 234 459l70 -104q-91 -62 -142 -199q60 -3 106 -45.5t46 -110.5q0 -62 -46.5 -108.5t-111.5 -46.5q-62 0 -109 47t-47 108zM541 1165q0 282 233 459l70 -104q-91 -62 -142 -199q60 -3 106 -45.5t46 -110.5q0 -62 -46.5 -108.5t-111.5 -46.5 q-62 0 -108.5 47t-46.5 108z" />
<glyph unicode="&#x201d;" horiz-adv-x="956" d="M102 1468q0 62 46.5 109t111.5 47q62 0 109 -47t47 -109q0 -280 -234 -458l-69 104q90 61 141 199q-60 3 -106 45t-46 110zM541 1468q0 62 46 109t111 47q62 0 109 -47t47 -109q0 -281 -233 -458l-70 104q90 61 141 199q-60 3 -105.5 45t-45.5 110z" />
<glyph unicode="&#x201e;" horiz-adv-x="956" d="M102 156q0 62 46.5 108.5t111.5 46.5q62 0 109 -47t47 -108q0 -281 -234 -459l-69 104q90 61 141 199q-60 3 -106 45.5t-46 110.5zM541 156q0 62 46 108.5t111 46.5q62 0 109 -47t47 -108q0 -282 -233 -459l-70 104q90 61 141 199q-60 3 -105.5 45.5t-45.5 110.5z" />
<glyph unicode="&#x2022;" horiz-adv-x="743" d="M205 641q0 71 50 120.5t118 49.5q69 0 117.5 -49t48.5 -121q0 -67 -49 -116.5t-117 -49.5q-67 0 -117.5 50t-50.5 116z" />
<glyph unicode="&#x2026;" horiz-adv-x="1640" d="M102 154q0 67 45 112t111 45t110 -45t44 -112q0 -65 -44 -109.5t-110 -44.5t-111 44.5t-45 109.5zM666 154q0 67 44.5 112t110.5 45t110 -45t44 -112q0 -65 -44 -109.5t-110 -44.5t-110.5 44.5t-44.5 109.5zM1229 154q0 67 44.5 112t110.5 45t110 -45t44 -112 q0 -65 -44 -109.5t-110 -44.5t-110.5 44.5t-44.5 109.5z" />
<glyph unicode="&#x202f;" horiz-adv-x="410" />
<glyph unicode="&#x2039;" horiz-adv-x="821" d="M51 512l410 512h258l-410 -512l410 -512h-258z" />
<glyph unicode="&#x203a;" horiz-adv-x="821" d="M102 0l410 512l-410 512h258l410 -512l-410 -512h-258z" />
<glyph unicode="&#x205f;" horiz-adv-x="512" />
<glyph unicode="&#x20ac;" horiz-adv-x="1605" d="M102 535v178h78q-2 25 -2 75q0 26 4 76h-80v178h115q80 244 284.5 399.5t465.5 155.5q131 0 245 -45t265 -153l-164 -242q-81 71 -164 102t-182 31q-125 0 -226.5 -68t-160.5 -180h247v-178h-307q-4 -27 -4 -76q0 -50 4 -75h307v-178h-247q59 -112 160.5 -180t226.5 -68 q103 0 191.5 35t187.5 120l157 -237q-141 -117 -268 -171t-268 -54q-262 0 -467 155.5t-283 399.5h-115z" />
<glyph unicode="&#x2122;" horiz-adv-x="1767" d="M61 1399v178h777v-178h-291v-643h-193v643h-293zM934 756v856l389 -373l383 375v-858h-193v397l-190 -203l-197 207v-401h-192z" />
<glyph unicode="&#x25fc;" horiz-adv-x="1024" d="M0 0v1024h1024v-1024h-1024z" />
</font>
</defs>
</svg>
