<?xml version="1.0" standalone="no"?>
<!DOCTYPE svg PUBLIC "-//W3C//DTD SVG 1.1//EN" "http://www.w3.org/Graphics/SVG/1.1/DTD/svg11.dtd" >
<svg xmlns="http://www.w3.org/2000/svg" xmlns:xlink="http://www.w3.org/1999/xlink" version="1.1">
<metadata>
Created by FontForge 20170731 at Wed Nov 27 15:55:58 2002
 By Aleksey,,,
Digitized data copyright (C) 1999 Monotype Typography, Inc. All rights reserved.
</metadata>
<defs>
<font id="BodoniMTCondensed-BoldItalic" horiz-adv-x="788" >
  <font-face 
    font-family="Bodoni MT Condensed"
    font-weight="700"
    font-style="italic"
    font-stretch="condensed"
    units-per-em="2048"
    panose-1="2 7 8 6 8 6 6 9 2 3"
    ascent="1638"
    descent="-410"
    x-height="891"
    cap-height="1303"
    bbox="-375 -532 2089 1878"
    underline-thickness="0"
    underline-position="0"
    slope="-8"
    unicode-range="U+0020-FB02"
  />
<missing-glyph horiz-adv-x="2048" 
d="M256 0v1536h1536v-1536h-1536zM384 128h1280v1280h-1280v-1280z" />
    <glyph glyph-name=".notdef" horiz-adv-x="2048" 
d="M256 0v1536h1536v-1536h-1536zM384 128h1280v1280h-1280v-1280z" />
    <glyph glyph-name=".null" horiz-adv-x="0" 
 />
    <glyph glyph-name="nonmarkingreturn" horiz-adv-x="395" 
 />
    <glyph glyph-name="space" unicode=" " horiz-adv-x="395" 
 />
    <glyph glyph-name="exclam" unicode="!" horiz-adv-x="406" 
d="M27 135q0 62 44 106t105 44q62 0 106 -44t44 -106q0 -61 -44 -105t-106 -44t-105.5 43.5t-43.5 105.5zM225 385h-32q10 100 10 188q0 128 -20 309q-13 120 -13 177q0 120 50 188t126 68q55 0 85 -40.5t30 -109.5q0 -87 -88 -307q-104 -262 -148 -473z" />
    <glyph glyph-name="quotedbl" unicode="&#x22;" horiz-adv-x="1137" 
d="M819 637h-49v457q0 91 45 150t115 59q57 0 93 -36.5t36 -88.5q0 -72 -41 -152zM338 637h-49v457q0 91 45 150t115 59q57 0 93 -36.5t36 -88.5q0 -72 -41 -152z" />
    <glyph glyph-name="numbersign" unicode="#" horiz-adv-x="1368" 
d="M344 481l78 369h-301v123h328l83 403h123l-84 -403h418l84 403h123l-84 -403h197v-123h-224l-77 -369h301v-123h-328l-84 -403h-123l84 403h-418l-84 -403h-123l84 403h-196v123h223zM545 850l-78 -369h418l78 369h-418z" />
    <glyph glyph-name="dollar" unicode="$" 
d="M262 -10q-223 35 -223 241q0 56 40.5 103t98.5 47q84 0 84 -92q0 -73 -92 -119q-43 -23 -43 -39q0 -35 36 -65t105 -41l76 544q-102 81 -153.5 159.5t-51.5 176.5q0 160 83 265.5t227 136.5l4 28h36q-2 -20 -4 -20q16 2 50 2h30l2 18h37l-4 -22q92 -16 151.5 -69
t59.5 -132q0 -53 -36.5 -91t-80.5 -38q-80 0 -80 84q0 55 70 94q33 19 33 39q0 22 -32 43.5t-91 32.5l-74 -533q201 -144 201 -331q0 -140 -83.5 -262t-221.5 -156l-25 -172h-37l23 164l-41 -2q-26 0 -37 2l-23 -164h-36zM481 1276l-65 -461l71 -51l72 516h-29q-21 0 -49 -4
zM383 844l59 422q-73 -27 -115 -91.5t-42 -132.5q0 -107 98 -198zM305 23q10 -3 35 -3q15 0 43 5l66 464q-31 27 -70 54zM422 39q156 75 156 231q0 97 -97 191z" />
    <glyph glyph-name="percent" unicode="%" horiz-adv-x="1430" 
d="M455 1319q88 0 153.5 -76t65.5 -188q0 -152 -98 -284t-216 -132q-88 0 -153.5 76t-65.5 188q0 152 98 284t216 132zM494 1174q4 30 4 51q0 57 -45 57q-32 0 -53.5 -34t-29.5 -100l-30 -225q-23 -159 -23 -190q0 -57 45 -57q65 0 80 117zM1200 1319h43l-932 -1348h-43z
M1153 653q89 0 154 -75.5t65 -188.5q0 -152 -97.5 -284t-215.5 -132q-89 0 -154 76t-65 189q0 152 97.5 283.5t215.5 131.5zM1192 508q4 30 4 51q0 57 -45 57q-31 0 -53 -33.5t-29 -100.5l-31 -225q-22 -159 -22 -189q0 -58 45 -58q64 0 80 117z" />
    <glyph glyph-name="ampersand" unicode="&#x26;" horiz-adv-x="1044" 
d="M729 354q23 65 45 166q45 215 162 215q47 0 80 -30.5t33 -77.5q0 -46 -29.5 -76.5t-65.5 -30.5q-39 0 -71 29q-21 20 -35 20q-11 0 -23 -16t-16 -41q-22 -111 -57 -199q102 -186 168 -186q54 0 104 72l16 -25q-41 -61 -136 -120.5t-161 -59.5q-57 0 -135 106
q-111 -106 -268 -106q-119 0 -207 108t-88 242q0 241 287 393q-33 143 -33 246q0 144 94.5 240t222.5 96q116 0 182 -55.5t66 -137.5q0 -92 -72.5 -165.5t-232.5 -147.5q61 -255 170 -459zM553 844q74 39 107.5 98.5t33.5 202.5q0 139 -86 139q-42 0 -65 -53.5t-23 -147.5
q0 -101 33 -239zM342 698q-82 -68 -82 -225q0 -147 69.5 -259t157.5 -112q62 0 99 29q-151 229 -244 567z" />
    <glyph glyph-name="quotesingle" unicode="'" horiz-adv-x="569" 
d="M293 637h-49v457q0 91 45 150t114 59q58 0 93.5 -36.5t35.5 -88.5q0 -72 -40 -152z" />
    <glyph glyph-name="parenleft" unicode="(" horiz-adv-x="512" 
d="M612 1300l-6 -40q-176 -172 -258 -633t-82 -717q0 -112 27.5 -223t75.5 -174l-11 -45q-140 144 -212 344.5t-72 416.5q0 278 144.5 569.5t393.5 501.5z" />
    <glyph glyph-name="parenright" unicode=")" horiz-adv-x="512" 
d="M-96 -532l6 40q176 172 258 633t82 717q0 113 -28 224.5t-75 172.5l11 45q140 -144 212 -344.5t72 -416.5q0 -278 -144.5 -569.5t-393.5 -501.5z" />
    <glyph glyph-name="asterisk" unicode="*" 
d="M496 918q-34 -40 -54 -158q-10 -73 -36 -104t-70 -31q-40 0 -70 29t-30 69q0 35 23 60.5t81 56.5q87 47 123 96q-22 10 -53 10q-43 0 -93 -8q-30 -6 -63 -6q-51 0 -84 26.5t-33 67.5q0 40 29 69t67 29q52 0 132 -73q71 -69 112 -80q-2 63 -45 145q-35 67 -35 109
q0 41 26 66.5t69 25.5q96 0 96 -96q0 -34 -31 -99q-43 -94 -43 -149v-2q58 20 121 86q36 37 60 51t61 14q38 0 64 -27t26 -67q0 -94 -117 -94q-31 0 -67 6q-40 6 -74 6q-23 0 -62 -10q40 -52 117 -90q113 -56 113 -125q0 -40 -29 -68t-72 -28q-47 0 -71 33.5t-37 113.5
q-19 104 -51 146z" />
    <glyph glyph-name="plus" unicode="+" horiz-adv-x="1366" 
d="M168 727h477v479h131v-479h481v-131h-481v-475h-131v475h-477v131z" />
    <glyph glyph-name="comma" unicode="," horiz-adv-x="406" 
d="M51 -311l-12 32q114 66 178 148t64 143q0 29 -21 29q-8 0 -22 -14q-38 -41 -99 -41q-52 0 -82 34.5t-30 94.5q0 68 48.5 119t119.5 51q67 0 105 -49.5t38 -129.5q0 -110 -68.5 -221.5t-218.5 -195.5z" />
    <glyph glyph-name="hyphen" unicode="-" horiz-adv-x="406" 
d="M45 535h336v-185h-336v185z" />
    <glyph glyph-name="period" unicode="." horiz-adv-x="406" 
d="M27 135q0 62 44 106t105 44q62 0 106 -44t44 -106q0 -61 -44 -105t-106 -44t-105.5 43.5t-43.5 105.5z" />
    <glyph glyph-name="slash" unicode="/" horiz-adv-x="768" 
d="M606 1300h178l-585 -1710h-179z" />
    <glyph glyph-name="zero" unicode="0" 
d="M530 1319q120 0 193.5 -129.5t73.5 -345.5q0 -225 -66 -425.5t-172.5 -316.5t-216.5 -116q-119 0 -192.5 129.5t-73.5 345.5q0 223 65.5 424t172.5 317.5t216 116.5zM596 1133q4 29 4 43q0 110 -78 110q-92 0 -116 -178l-130 -936q-4 -25 -4 -43q0 -111 78 -111
q92 0 117 179z" />
    <glyph glyph-name="one" unicode="1" 
d="M276 1286h66q48 0 105 4.5t100 10.5l80 12h26l-180 -1278h137l-4 -35h-512l4 35h144l172 1214h-142z" />
    <glyph glyph-name="two" unicode="2" 
d="M20 119q297 317 346.5 373t102.5 147t83 209.5t30 261.5q0 91 -28.5 126.5t-94.5 35.5q-62 0 -126.5 -45.5t-64.5 -73.5q0 -31 39 -37q62 -7 89.5 -32.5t27.5 -82.5q0 -60 -46 -103.5t-99 -43.5q-60 0 -93.5 36.5t-33.5 94.5q0 134 108 231t260 97q137 0 219 -84t82 -205
q0 -120 -71.5 -233.5t-237.5 -249.5q-230 -190 -375 -355h426q59 0 85.5 30t45.5 95h33l-72 -311h-651z" />
    <glyph glyph-name="three" unicode="3" 
d="M236 717h110q123 0 157.5 78t49 210t14.5 175q0 100 -100 100q-43 0 -90 -21t-47 -42q0 -10 27 -25q43 -24 54 -45.5t11 -52.5q0 -63 -42 -101.5t-101 -38.5q-109 0 -109 121q0 88 92.5 165t247.5 77q120 0 209.5 -75.5t89.5 -170.5q0 -124 -96.5 -227.5t-259.5 -141.5
v-4q144 -37 216 -118.5t72 -184.5q0 -165 -133 -287t-311 -122q-118 0 -189 60t-71 153q0 69 46 119.5t103 50.5q56 0 87.5 -31.5t31.5 -87.5q0 -77 -106 -133q-45 -24 -45 -37q0 -20 41.5 -40t87.5 -20q96 0 132.5 64t57.5 209t21 227q0 85 -29 123.5t-94 38.5h-140z" />
    <glyph glyph-name="four" unicode="4" 
d="M637 1313h106l-133 -953h109l14 115h33l-37 -264h-33l17 115h-111l-41 -291h131l-4 -35h-489l4 35h131l41 291h-352l6 36zM465 989l-395 -629h311l88 629h-4z" />
    <glyph glyph-name="five" unicode="5" 
d="M248 754q77 30 164 30q153 0 243 -86.5t90 -232.5q0 -202 -132 -340.5t-326 -138.5q-109 0 -177.5 61t-68.5 156q0 68 45.5 117t106.5 49q112 0 112 -117q0 -90 -102 -135q-43 -19 -43 -39t36.5 -37.5t84.5 -17.5q132 0 175.5 177t43.5 330q0 113 -33.5 163t-108.5 50
q-52 0 -112 -26q-24 -10 -39 -10q-7 0 -7 5q0 1 43 256l45 269q2 13 9.5 23t19.5 10h398q94 0 104 49h31q-34 -141 -73 -188.5t-91 -47.5h-385z" />
    <glyph glyph-name="six" unicode="6" 
d="M834 1319l-7 -37q-158 -36 -288 -180.5t-177 -388.5l5 -4q83 82 172 82q100 0 159.5 -80t59.5 -213q0 -196 -129 -354t-281 -158q-128 0 -203 107t-75 290q0 372 238 637t526 299zM463 723q-50 0 -83 -46.5t-39 -93.5l-35 -243q-30 -196 -30 -215q0 -105 76 -105
q87 0 107 130l65 462q2 9 2 31q0 80 -63 80z" />
    <glyph glyph-name="seven" unicode="7" 
d="M252 1298h639l-6 -41q-92 -119 -268.5 -398t-176.5 -443q0 -52 23 -127q22 -77 22 -123q0 -77 -45 -129.5t-114 -52.5q-65 0 -102.5 38.5t-37.5 98.5q0 80 64 215.5t191 326.5l300 449h-424q-43 0 -75 -24.5t-76 -145.5h-39z" />
    <glyph glyph-name="eight" unicode="8" 
d="M354 678q-91 36 -140.5 111.5t-49.5 168.5q0 150 109 255.5t262 105.5q125 0 201.5 -71.5t76.5 -188.5q0 -253 -278 -381q208 -71 208 -268q0 -178 -114.5 -301t-282.5 -123q-131 0 -215 82t-84 211q0 142 80 250t227 149zM387 893q-10 -70 -10 -102q0 -51 15 -74t54 -23
t64 28t55.5 227t30.5 247q0 88 -68 88q-48 0 -71.5 -37t-40.5 -157zM291 248q-12 -84 -12 -133q0 -54 16 -74.5t55 -20.5q50 0 76.5 37.5t56 255.5t29.5 258q0 50 -18 67t-52 17q-54 0 -79 -42t-46 -183z" />
    <glyph glyph-name="nine" unicode="9" 
d="M45 -14l6 37q158 35 288 179.5t177 389.5l-4 4q-84 -82 -172 -82q-100 0 -159.5 79.5t-59.5 213.5q0 196 129 354t280 158q128 0 203.5 -107.5t75.5 -289.5q0 -235 -103 -440t-293.5 -342.5t-367.5 -153.5zM416 582q49 0 82 46t40 93l35 243q29 196 29 216q0 104 -76 104
q-86 0 -106 -129l-66 -463q-2 -8 -2 -30q0 -80 64 -80z" />
    <glyph glyph-name="colon" unicode=":" horiz-adv-x="406" 
d="M27 135q0 62 44 106t105 44q62 0 106 -44t44 -106q0 -61 -44 -105t-106 -44t-105.5 43.5t-43.5 105.5zM113 750q0 61 44 105t105 44q62 0 106 -44t44 -105q0 -62 -44 -106t-106 -44q-61 0 -105 43.5t-44 106.5z" />
    <glyph glyph-name="semicolon" unicode=";" horiz-adv-x="406" 
d="M51 -311l-12 32q114 66 178 148t64 143q0 29 -21 29q-8 0 -22 -14q-38 -41 -99 -41q-52 0 -82 34.5t-30 94.5q0 68 48.5 119t119.5 51q67 0 105 -49.5t38 -129.5q0 -110 -68.5 -221.5t-218.5 -195.5zM113 750q0 61 44 105t105 44q62 0 106 -44t44 -105q0 -62 -44 -106
t-106 -44q-61 0 -105 43.5t-44 106.5z" />
    <glyph glyph-name="less" unicode="&#x3c;" horiz-adv-x="1366" 
d="M1255 147l-1083 457v119l1083 457v-144l-907 -372l907 -375v-142z" />
    <glyph glyph-name="equal" unicode="=" horiz-adv-x="1366" 
d="M170 967h1087v-133h-1087v133zM170 498h1087v-131h-1087v131z" />
    <glyph glyph-name="greater" unicode="&#x3e;" horiz-adv-x="1366" 
d="M170 1180l1085 -459v-117l-1085 -457v142l909 373l-909 374v144z" />
    <glyph glyph-name="question" unicode="?" horiz-adv-x="705" 
d="M100 135q0 62 44 106t106 44t105.5 -44t43.5 -106t-43.5 -105.5t-105.5 -43.5t-106 43.5t-44 105.5zM305 387h-35q19 152 33.5 215.5t51.5 123.5t114 130q80 73 112.5 130t32.5 128q0 76 -45 119t-127 43q-64 0 -121 -35.5t-57 -60.5q0 -14 37 -23q90 -22 90 -106
q0 -60 -38.5 -96.5t-92.5 -36.5q-52 0 -82.5 33.5t-30.5 88.5q0 108 100 193.5t226 85.5q125 0 198.5 -81t73.5 -216q0 -146 -65.5 -252.5t-212.5 -210.5q-92 -66 -119.5 -96t-42.5 -76z" />
    <glyph glyph-name="at" unicode="@" horiz-adv-x="1386" 
d="M1094 985q-102 -343 -125 -416t-23 -120q0 -22 14 -41t39 -19q105 0 199 129.5t94 312.5q0 168 -131 305.5t-344 137.5q-249 0 -422.5 -204.5t-173.5 -469.5q0 -256 149.5 -412.5t391.5 -156.5q183 0 355 106.5t235 286.5h45q-68 -205 -250.5 -321.5t-388.5 -116.5
q-268 0 -455.5 181t-187.5 451q0 293 207 497t489 204q235 0 382.5 -147t147.5 -345q0 -194 -113 -348.5t-282 -154.5q-170 0 -170 114q0 42 21 111l-4 2q-134 -227 -265 -227q-58 0 -93.5 50t-35.5 113q0 105 68 225t168 199.5t178 79.5q63 0 84 -88h2l21 68zM868 854
q0 72 -53 72q-74 0 -147.5 -126t-73.5 -229q0 -79 61 -79q67 0 140 137.5t73 224.5z" />
    <glyph glyph-name="A" unicode="A" horiz-adv-x="918" 
d="M227 365l-68 -181q-28 -74 -28 -90q0 -59 66 -59h34l-4 -35h-268l4 35h33q68 0 102 90l459 1196h74l133 -1286h84l-4 -35h-412l4 35h80l-33 330h-256zM479 399l-49 482h-4l-184 -482h237z" />
    <glyph glyph-name="B" unicode="B" horiz-adv-x="897" 
d="M156 1303h442q139 0 222 -81.5t83 -191.5q0 -123 -89.5 -222t-229.5 -140v-4q250 -50 250 -267q0 -154 -114 -275.5t-294 -121.5h-457l4 33h97l174 1235h-92zM496 1268l-82 -584h75q48 0 78.5 28t36.5 83l29 210q22 154 22 185q0 78 -69 78h-90zM410 649l-88 -614h86
q35 0 60 17t37.5 46t18.5 72l29 201q22 156 22 182q0 96 -81 96h-84z" />
    <glyph glyph-name="C" unicode="C" horiz-adv-x="682" 
d="M369 -16q-130 0 -210.5 130.5t-80.5 346.5q0 342 150 600t321 258q67 0 117 -74q30 18 63 58h37l-47 -334h-37q-21 317 -137 317q-34 0 -63 -49t-40 -129l-133 -956q-4 -25 -4 -43q0 -41 21.5 -65t54.5 -24q137 0 235 342h33l-51 -362h-37l-53 61q-67 -77 -139 -77z" />
    <glyph glyph-name="D" unicode="D" horiz-adv-x="897" 
d="M158 1303h415q147 0 239.5 -121t92.5 -332q0 -335 -152.5 -592.5t-377.5 -257.5h-400l5 33h92l174 1235h-92zM496 1268l-174 -1233h57q137 0 164 190l125 887q6 43 6 59q0 97 -101 97h-77z" />
    <glyph glyph-name="E" unicode="E" horiz-adv-x="725" 
d="M158 1303h665l-43 -314h-35q0 279 -174 279h-75l-78 -559h45q160 0 172 184h35l-60 -420h-35q11 57 11 80q0 119 -121 119h-53l-90 -637h65q180 0 285 325h33l-52 -360h-676l5 35h88l174 1233h-90z" />
    <glyph glyph-name="F" unicode="F" horiz-adv-x="725" 
d="M758 991q0 145 -47.5 211t-126.5 66h-80l-78 -557h51q52 0 106 36.5t62 147.5h35l-57 -418h-33q6 38 6 62q0 62 -28.5 98.5t-75.5 36.5h-72l-90 -639h100l-4 -35h-444l4 35h92l174 1233h-94l4 35h672l-43 -312h-33z" />
    <glyph glyph-name="G" unicode="G" horiz-adv-x="897" 
d="M745 967q-24 317 -174 317q-48 0 -82.5 -46t-46.5 -130l-133 -956q-4 -25 -4 -43q0 -40 22 -64.5t56 -24.5q41 0 71 31.5t38 88.5l57 395h-94l4 34h438l-4 -34h-94l-54 -379q-67 -83 -170 -127.5t-182 -44.5q-152 0 -233.5 124.5t-81.5 352.5q0 220 69.5 421t181 319
t220.5 118q108 0 174 -88q47 40 65 72h39l-47 -336h-35z" />
    <glyph glyph-name="H" unicode="H" horiz-adv-x="938" 
d="M164 1303h414l-5 -35h-73l-74 -527h199l73 527h-69l4 35h409l-4 -35h-88l-174 -1233h88l-4 -35h-409l4 35h69l94 670h-198l-94 -670h73l-4 -35h-413l4 35h88l174 1233h-88z" />
    <glyph glyph-name="I" unicode="I" horiz-adv-x="492" 
d="M166 1303h428l-4 -35h-90l-174 -1233h92l-4 -35h-428l4 35h84l174 1233h-86z" />
    <glyph glyph-name="J" unicode="J" horiz-adv-x="725" 
d="M381 1303h450l-4 -35h-92l-145 -1037q-29 -205 -134.5 -318.5t-265.5 -113.5q-94 0 -148 42.5t-54 111.5q0 54 39.5 91.5t93.5 37.5q40 0 65 -28.5t25 -69.5q0 -70 -59 -107q-19 -11 -19 -18q0 -25 60 -25q51 0 79.5 30.5t28.5 76.5q0 36 4 65l178 1262h-106z" />
    <glyph glyph-name="K" unicode="K" horiz-adv-x="938" 
d="M152 1303h440l-4 -35h-92l-82 -588h4l247 355q122 175 127 186.5t5 19.5q0 27 -33 27h-51l4 35h231l-4 -35q-71 0 -110 -55l-224 -320l197 -858h70l-5 -35h-395l4 35h72l-139 618h-4l-88 -620h65l-4 -33h-416l4 35h97l174 1233h-95z" />
    <glyph glyph-name="L" unicode="L" horiz-adv-x="705" 
d="M162 1303h434l-4 -35h-92l-174 -1233h36q93 0 167.5 85.5t109.5 241.5h35l-58 -362h-639l5 35h90l174 1233h-88z" />
    <glyph glyph-name="M" unicode="M" horiz-adv-x="1044" 
d="M158 1303h366l31 -672h4l219 672h369l-4 -35h-90l-174 -1233h88l-4 -35h-435l4 35h95l170 1204h-4l-404 -1239h-51l-57 1262h-5l-159 -1125q-2 -10 -2 -35q0 -67 80 -67l-5 -35h-217l4 35q49 0 72 21.5t31 80.5l160 1131h-86z" />
    <glyph glyph-name="N" unicode="N" horiz-adv-x="918" 
d="M137 1303h355l229 -1070h4l129 918q6 49 6 51q0 66 -76 66h-36l4 35h272l-4 -35h-37q-68 0 -76 -54l-170 -1214h-221l-242 1135h-4l-139 -983q-2 -13 -2 -35q0 -82 64 -82h45l-5 -35h-256l5 35q52 0 72.5 20.5t27.5 67.5l162 1145h-111z" />
    <glyph glyph-name="O" unicode="O" horiz-adv-x="897" 
d="M662 1196q0 90 -93 90q-45 0 -80 -48.5t-47 -129.5l-133 -956q-4 -25 -4 -43q0 -91 92 -91q46 0 81 49t46 130l133 956q5 29 5 43zM389 -14q-133 0 -222 132.5t-89 342.5q0 222 72.5 423t190 318t237.5 117q133 0 222 -132.5t89 -342.5q0 -347 -156.5 -602.5
t-343.5 -255.5z" />
    <glyph glyph-name="P" unicode="P" horiz-adv-x="874" 
d="M150 1303h401q174 0 269 -82t95 -213q0 -164 -126 -278t-328 -114h-60l-82 -581h93l-4 -35h-443l4 35h99l174 1233h-97zM494 1268l-86 -615h61q50 0 94.5 35t70 229t25.5 224q0 59 -15.5 86t-42.5 34t-107 7z" />
    <glyph glyph-name="Q" unicode="Q" horiz-adv-x="897" 
d="M662 1196q0 90 -93 90q-45 0 -80 -48.5t-47 -129.5l-133 -956q-4 -25 -4 -43q0 -91 92 -91q46 0 81 49t46 130l133 956q5 29 5 43zM293 6q-100 45 -157.5 167.5t-57.5 287.5q0 222 72.5 423t190 318t237.5 117q133 0 222 -132.5t89 -342.5q0 -285 -108 -514.5
t-263 -309.5q-26 -176 -26 -192q0 -104 86 -104q29 0 45 8l-7 -35q-77 -21 -131 -21q-204 0 -204 197q0 40 12 133z" />
    <glyph glyph-name="R" unicode="R" horiz-adv-x="938" 
d="M160 1303h491q113 0 190 -71.5t77 -176.5q0 -123 -82 -221.5t-228 -126.5v-5q108 -6 162.5 -58t54.5 -126q0 -19 -51 -385q-2 -12 -2 -33q0 -34 29 -34q38 0 59 86l37 -9q-40 -153 -199 -153q-74 0 -123 51.5t-49 134.5q0 30 52 395q2 9 2 25q0 90 -97 90h-69l-92 -651
h92l-4 -35h-433l5 35h90l174 1233h-90zM496 1268l-78 -547h82q36 0 65.5 25t40 54.5t33.5 189t23 171.5q0 107 -89 107h-77z" />
    <glyph glyph-name="S" unicode="S" 
d="M72 406h34q7 -203 79.5 -295.5t176.5 -92.5q86 0 144.5 66t58.5 164q0 49 -25 99t-62 90t-179 169q-162 146 -162 320q0 172 108.5 282.5t252.5 110.5q73 0 153 -45q42 -23 58 -23q21 0 36 16.5t15 28.5v7h33l-50 -357h-34q-5 158 -61.5 248t-137.5 90
q-79 0 -131.5 -57.5t-52.5 -153.5q0 -127 133 -242q151 -130 192.5 -177t72 -116t30.5 -139q0 -187 -113.5 -301t-284.5 -114q-97 0 -176 59q-39 29 -59 29q-51 0 -68 -72h-39z" />
    <glyph glyph-name="T" unicode="T" horiz-adv-x="831" 
d="M162 1303h762l-47 -345h-35l2 37q0 273 -178 273l-174 -1233h96l-4 -35h-443l6 35h91l174 1233q-187 -11 -262 -312h-35z" />
    <glyph glyph-name="U" unicode="U" horiz-adv-x="811" 
d="M150 1303h438l-4 -35h-95l-155 -1108q-2 -10 -2 -27q0 -46 27 -75t71 -29q84 0 138.5 58.5t68.5 160.5l133 950v8q0 23 -18 42.5t-41 19.5h-23l4 35h219l-4 -35h-22q-24 0 -50 -21.5t-30 -48.5l-135 -954q-19 -133 -96.5 -195.5t-223.5 -62.5q-115 0 -186.5 69t-71.5 172
q0 33 8 90l136 951h-93z" />
    <glyph glyph-name="V" unicode="V" horiz-adv-x="938" 
d="M164 1303h411l-4 -35h-79l86 -846h4l284 743q11 27 11 43q0 60 -66 60h-35l4 35h269l-5 -35h-32q-68 0 -103 -90l-458 -1196h-74l-133 1286h-84z" />
    <glyph glyph-name="W" unicode="W" horiz-adv-x="1430" 
d="M1219 1303l-5 -35h-26q-48 0 -71.5 -36t-129.5 -251l82 -584h4l297 777q10 30 10 45q0 49 -59 49h-47l4 35h266l-4 -35h-27q-70 0 -110 -105l-451 -1181h-78l-81 602l-297 -602h-78l-176 1286h-82l4 35h414l-5 -35h-84l132 -944h4l159 321l-86 623h-82l5 35h598z
M979 1040q69 139 72.5 151t3.5 19q0 58 -60 58h-49z" />
    <glyph glyph-name="X" unicode="X" horiz-adv-x="874" 
d="M551 909q167 290 173.5 302t6.5 26q0 31 -35 31h-37l5 35h229l-4 -35q-46 0 -70 -8.5t-40 -29t-83 -137.5l-135 -235l156 -823h82l-4 -35h-408l4 35h72l-92 491l-162 -279q-70 -121 -76 -139t-6 -32q0 -41 37 -41h33l-4 -35h-222l4 35q31 0 52.5 10t37 30t109.5 183
l186 322l-131 688h-79l4 35h405l-4 -35h-72z" />
    <glyph glyph-name="Y" unicode="Y" horiz-adv-x="938" 
d="M158 1303h446l-4 -35h-96l125 -617h4l176 371q81 171 85.5 185t4.5 28q0 33 -41 33h-35l4 35h222l-5 -35q-24 0 -43 -5q-19 -6 -34 -17q-15 -12 -28 -31q-9 -14 -41 -81l-208 -440q-47 -98 -75 -299l-52 -362h94l-4 -33h-440l4 33h92l78 557l-139 678h-94z" />
    <glyph glyph-name="Z" unicode="Z" horiz-adv-x="748" 
d="M193 1303h659l-4 -35l-594 -1233h65q243 0 371 368h37l-72 -403h-675l4 35l594 1233h-86q-226 0 -314 -340h-37z" />
    <glyph glyph-name="bracketleft" unicode="[" horiz-adv-x="512" 
d="M233 1294h377l-4 -32h-180l-246 -1739h182l-4 -35h-378z" />
    <glyph glyph-name="backslash" unicode="\" horiz-adv-x="768" 
d="M203 1300h170l157 -1708h-170z" />
    <glyph glyph-name="bracketright" unicode="]" horiz-adv-x="512" 
d="M279 -512h-377l4 33h180l246 1739h-182l4 34h378z" />
    <glyph glyph-name="asciicircum" unicode="^" horiz-adv-x="1190" 
d="M672 1384l412 -718h-152l-296 512l-296 -512h-152l412 718h72z" />
    <glyph glyph-name="underscore" unicode="_" horiz-adv-x="1024" 
d="M-109 -156h1061v-98h-1061v98z" />
    <glyph glyph-name="grave" unicode="`" horiz-adv-x="682" 
d="M242 1317h223l57 -346h-33z" />
    <glyph glyph-name="a" unicode="a" horiz-adv-x="844" 
d="M467 202l43 308q35 239 35 270q0 26 -17 45t-45 19q-30 0 -55 -30.5t-39 -79.5t-50 -306t-36 -278q0 -97 53 -97q37 0 70 39.5t41 109.5zM481 102q-68 -116 -194 -116q-90 0 -154.5 91t-64.5 224q0 153 60 292t150.5 221.5t200.5 82.5q58 0 84 -47l15 31h219l-99 -701
q-6 -30 -6 -63q0 -21 10.5 -35t24.5 -14q27 0 53.5 32.5t42.5 89.5h35q-58 -204 -219 -204q-123 0 -158 116z" />
    <glyph glyph-name="b" unicode="b" horiz-adv-x="831" 
d="M117 438l114 813h-86l7 35h131q114 0 194 17l-61 -478q76 74 157 74q90 0 155 -91t65 -224q0 -153 -60.5 -292.5t-151 -221.5t-200.5 -82q-106 0 -190.5 89t-84.5 253q0 36 11 108zM504 831q-37 0 -70 -39t-41 -109l-42 -308q-36 -239 -36 -271q0 -26 17 -44.5t45 -18.5
q30 0 55.5 30t39 79.5t49.5 306t36 278.5q0 96 -53 96z" />
    <glyph glyph-name="c" unicode="c" horiz-adv-x="748" 
d="M375 -14q-124 0 -214.5 105.5t-90.5 260.5q0 208 134.5 377.5t301.5 169.5q101 0 163 -54.5t62 -131.5q0 -80 -42.5 -128t-100.5 -48q-43 0 -72 29t-29 71q0 48 31 81.5t82 43.5q47 9 47 26q0 29 -37.5 51.5t-91.5 22.5t-94 -54t-51.5 -152.5t-41.5 -294t-30 -244.5
q0 -43 21.5 -68.5t58.5 -25.5q181 0 283 258h32q-97 -295 -321 -295z" />
    <glyph glyph-name="d" unicode="d" horiz-adv-x="844" 
d="M467 204l43 308q35 239 35 270q0 26 -17 45t-45 19q-30 0 -55 -30.5t-39 -79.5t-50 -306t-36 -278q0 -97 53 -97q37 0 70 39.5t41 109.5zM481 104q-68 -116 -194 -116q-90 0 -154.5 91t-64.5 224q0 153 60 292.5t150.5 221.5t200.5 82q48 0 80 -31l51 383h-86l6 35h132
q114 0 194 17l-158 -1121q-6 -30 -6 -63q0 -21 10.5 -35t24.5 -14q27 0 53.5 32.5t42.5 90.5h35q-58 -205 -219 -205q-123 0 -158 116z" />
    <glyph glyph-name="e" unicode="e" horiz-adv-x="797" 
d="M340 420q107 34 162 124t55 216q0 102 -49 102q-48 0 -84 -50.5t-47 -129.5zM375 -14q-124 0 -214.5 105.5t-90.5 260.5q0 213 139.5 380t327.5 167q119 0 185 -51t66 -133q0 -237 -454 -336q-33 -235 -33 -262q0 -43 21.5 -68.5t58.5 -25.5q225 0 309 272h33
q-83 -309 -348 -309z" />
    <glyph glyph-name="f" unicode="f" horiz-adv-x="492" 
d="M426 840l-95 -671q-26 -181 -88 -319t-142 -210t-167 -72q-78 0 -128 43t-50 106q0 62 34 102t79 40q41 0 66.5 -28t25.5 -67q0 -34 -17 -66t-32.5 -45t-15.5 -26q0 -20 45 -20q59 0 98 59.5t39 138.5l-6 168q0 58 32 293l80 574h-92l6 34h90q29 218 143 330.5t232 112.5
q78 0 127 -45t49 -109q0 -62 -33.5 -101.5t-78.5 -39.5q-42 0 -67 27.5t-25 66.5q0 35 16.5 66.5t32.5 44.5t16 26q0 10 -14 17.5t-29 7.5q-57 0 -94 -34.5t-37 -78.5q0 -31 8 -83q8 -47 8 -74q0 -52 -12 -134h92l-6 -34h-90z" />
    <glyph glyph-name="g" unicode="g" horiz-adv-x="874" 
d="M735 770q8 75 40.5 115.5t74.5 40.5q38 0 63 -27t25 -68q0 -102 -74 -102q-44 0 -59 49q-8 25 -19 25q-22 0 -22 -78l4 -88q0 -149 -120.5 -268t-258.5 -119q-16 0 -56 5q-46 5 -69 5q-65 0 -111.5 -27.5t-46.5 -64.5q0 -23 19 -32t82 -9l147 4h213q107 0 169.5 -60
t62.5 -165q0 -163 -136.5 -251.5t-369.5 -88.5q-153 0 -244.5 45t-91.5 119q0 114 188 188q-129 48 -129 170q0 74 65.5 134.5t160.5 66.5q-125 73 -125 225q0 150 120 268.5t259 118.5q73 0 138 -34t101 -97zM549 741q4 29 4 54q0 31 -17.5 50t-46.5 19q-42 0 -71.5 -34.5
t-37 -101t-28 -201t-20.5 -171.5q0 -31 17.5 -50t45.5 -19q42 0 70.5 32.5t36.5 88.5zM231 -92l-36 2q-17 0 -69 -50t-52 -110q0 -67 66 -107t153 -40q189 0 310.5 61t121.5 152q0 92 -133 92h-361z" />
    <glyph glyph-name="h" unicode="h" horiz-adv-x="874" 
d="M414 762q95 139 219 139q76 0 124 -49.5t48 -126.5q0 -19 -76 -543q-6 -30 -6 -63q0 -21 10.5 -35t24.5 -14q27 0 53.5 32.5t42.5 90.5h35q-58 -205 -219 -205q-75 0 -126.5 49.5t-51.5 134.5q0 25 77 569q3 16 3 29q0 49 -42 49q-35 0 -81.5 -56t-59.5 -158l-84 -605
h-237l176 1251h-86l6 35h131q114 0 194 17z" />
    <glyph glyph-name="i" unicode="i" horiz-adv-x="477" 
d="M272 -12q-74 0 -126 49.5t-52 134.5q0 27 7 70l85 598h-86l6 34h132q114 0 194 17l-100 -709q-6 -30 -6 -63q0 -21 10 -35t24 -14q28 0 54.5 32.5t42.5 90.5h35q-59 -205 -220 -205zM203 1163q0 56 39 94.5t94 38.5t94 -39t39 -94t-39 -94t-94 -39t-94 39t-39 94z" />
    <glyph glyph-name="j" unicode="j" horiz-adv-x="469" 
d="M63 -193q-8 47 -8 74q0 48 8 105l123 854h-86l6 34h132q114 0 194 17l-129 -918q-24 -175 -136 -288t-233 -113q-78 0 -127 45t-49 109q0 62 34 101.5t79 39.5q42 0 67 -27.5t25 -66.5q0 -35 -17 -66.5t-32.5 -45t-15.5 -26.5q0 -9 13.5 -16.5t29.5 -7.5q56 0 93.5 34.5
t37.5 78.5q0 31 -9 83zM203 1163q0 56 39 94.5t94 38.5t94 -39t39 -94t-39 -94t-94 -39t-94 39t-39 94z" />
    <glyph glyph-name="k" unicode="k" horiz-adv-x="874" 
d="M537 434q0 54 -35 76q-53 -51 -101 -51q-21 0 -30 6l-66 -465h-237l176 1251h-86l6 35h131q114 0 194 17l-108 -773q40 29 92 29h21q45 63 86 162q74 178 182 178q55 0 92 -39.5t37 -97.5q0 -40 -24.5 -68t-67.5 -28q-42 0 -65 24.5t-23 57.5q0 38 22 61q21 20 21 31
q0 18 -21 18q-57 0 -117 -151q-31 -85 -79 -154q213 -45 213 -205q0 -20 -15 -120q-12 -87 -12 -103q0 -55 35 -55q61 0 96 123h35q-57 -205 -221 -205q-78 0 -129.5 45.5t-51.5 120.5q0 48 26 150q24 91 24 130z" />
    <glyph glyph-name="l" unicode="l" horiz-adv-x="477" 
d="M272 -12q-74 0 -126 49.5t-52 134.5q0 24 4 53l146 1026h-86l6 35h131q114 0 194 17l-157 -1121q-6 -43 -6 -63q0 -21 10 -35t24 -14q28 0 54.5 32.5t42.5 90.5h35q-59 -205 -220 -205z" />
    <glyph glyph-name="m" unicode="m" horiz-adv-x="1260" 
d="M563 741q3 16 3 29q0 49 -42 49q-35 0 -78.5 -55.5t-56.5 -157.5l-84 -606h-237l118 840h-86l6 34h132q114 0 194 17l-18 -129q94 139 213 139q66 0 113.5 -40.5t56.5 -108.5q100 149 221 149q76 0 124 -49.5t48 -126.5q0 -19 -76 -543q-6 -30 -6 -63q0 -21 10.5 -35
t24.5 -14q27 0 53.5 32.5t42.5 90.5h35q-58 -205 -219 -205q-75 0 -126.5 49.5t-51.5 134.5q0 25 77 569q3 16 3 29q0 49 -42 49q-35 0 -78 -55.5t-56 -157.5l-85 -606h-237z" />
    <glyph glyph-name="n" unicode="n" horiz-adv-x="874" 
d="M414 762q95 139 219 139q76 0 124 -49.5t48 -126.5q0 -19 -76 -543q-6 -30 -6 -63q0 -21 10.5 -35t24.5 -14q27 0 53.5 32.5t42.5 90.5h35q-58 -205 -219 -205q-75 0 -126.5 49.5t-51.5 134.5q0 25 77 569q3 16 3 29q0 49 -42 49q-35 0 -81.5 -56t-59.5 -158l-84 -605
h-237l118 840h-86l6 34h132q114 0 194 17z" />
    <glyph glyph-name="o" unicode="o" horiz-adv-x="854" 
d="M70 352q0 208 134.5 377.5t301.5 169.5q123 0 214 -105.5t91 -261.5q0 -208 -135 -377t-301 -169q-124 0 -214.5 105.5t-90.5 260.5zM573 696q7 44 7 72q0 43 -20.5 68.5t-55.5 25.5q-49 0 -84.5 -54t-47 -153t-41.5 -294t-30 -244q0 -44 20.5 -69t55.5 -25q47 0 81 49.5
t46 130.5z" />
    <glyph glyph-name="p" unicode="p" horiz-adv-x="831" 
d="M180 840h-86l6 34h131q115 0 195 17l-10 -66q76 74 157 74q90 0 155 -91t65 -224q0 -153 -60.5 -292.5t-151 -221.5t-200.5 -82q-48 0 -80 30l-55 -401h104l-6 -35h-426l6 35h84zM504 831q-37 0 -70 -39t-41 -109l-42 -308q-36 -239 -36 -271q0 -26 17 -44.5t45 -18.5
q30 0 55.5 30t39 79.5t49.5 306t36 278.5q0 96 -53 96z" />
    <glyph glyph-name="q" unicode="q" horiz-adv-x="831" 
d="M467 204l43 308q35 239 35 270q0 26 -17 45t-45 19q-30 0 -55 -30.5t-39 -79.5t-50 -306t-36 -278q0 -97 53 -97q37 0 70 39.5t41 109.5zM444 53q-66 -65 -157 -65q-90 0 -154.5 91t-64.5 224q0 153 60 292.5t150.5 221.5t200.5 82q58 0 84 -47l15 31h219l-176 -1266h81
l-6 -35h-426l6 35h107z" />
    <glyph glyph-name="r" unicode="r" horiz-adv-x="705" 
d="M414 743q74 148 192 148q62 0 97.5 -35t35.5 -94q0 -62 -38.5 -106t-96.5 -44q-41 0 -67.5 26.5t-26.5 63.5q0 64 64 114q14 11 14 15q0 15 -23 15q-47 0 -107.5 -93t-79.5 -230l-73 -523h-237l118 840h-86l6 34h132q112 0 192 17l-20 -148h4z" />
    <glyph glyph-name="s" unicode="s" horiz-adv-x="618" 
d="M266 -14q-103 0 -170 50.5t-67 115.5q0 55 29.5 91t70.5 36q38 0 61 -24.5t23 -59.5q0 -52 -29.5 -84.5t-29.5 -38.5q0 -15 33 -33.5t89 -18.5q50 0 91 39.5t41 90.5q0 59 -27 103.5t-119 111.5q-88 63 -124 123.5t-36 142.5q0 113 83 190.5t192 77.5q107 0 174 -47.5
t67 -112.5q0 -55 -29.5 -91t-70.5 -36q-38 0 -61 24.5t-23 59.5q0 53 30 83.5t30 39.5q0 16 -28.5 29.5t-84.5 13.5q-54 0 -88.5 -34.5t-34.5 -86.5q0 -45 23.5 -77.5t103.5 -90.5q104 -75 146 -144t42 -169q0 -117 -93.5 -195.5t-213.5 -78.5z" />
    <glyph glyph-name="t" unicode="t" horiz-adv-x="532" 
d="M293 -12q-75 0 -126.5 49.5t-51.5 134.5q0 24 90 676h-105l6 35h103l29 204l243 41l-35 -245h105l-6 -35h-103l-92 -666q-6 -30 -6 -63q0 -21 10.5 -35t24.5 -14q27 0 53.5 32.5t42.5 90.5h35q-58 -205 -217 -205z" />
    <glyph glyph-name="u" unicode="u" horiz-adv-x="874" 
d="M483 141q-91 -149 -227 -149q-79 0 -125.5 47.5t-46.5 126.5q0 18 92 674h-86l6 34h131q115 0 195 17l-96 -670q-11 -73 -11 -86q0 -53 54 -53q32 0 74 58.5t52 133.5l87 600h237l-100 -692q-6 -30 -6 -63q0 -21 10 -35t25 -14q27 0 53.5 32.5t42.5 90.5h35
q-58 -205 -220 -205q-65 0 -115 40t-61 113z" />
    <glyph glyph-name="v" unicode="v" horiz-adv-x="811" 
d="M340 -16q-85 0 -150 58.5t-65 143.5q0 35 4 68q64 449 66 466.5t2 47.5q0 49 -35 49q-28 0 -54 -32.5t-42 -90.5h-35q58 205 219 205q75 0 126.5 -49.5t51.5 -134.5q0 -25 -4 -53l-62 -435q-8 -58 -8 -88q0 -36 19 -59t47 -23q61 0 149.5 105.5t136.5 236t48 226.5
q0 47 -62 65q-47 13 -74.5 43t-27.5 70q0 45 23.5 70.5t64.5 25.5q113 0 113 -272q0 -207 -144.5 -425t-306.5 -218z" />
    <glyph glyph-name="w" unicode="w" horiz-adv-x="1194" 
d="M340 -16q-79 0 -144 76t-65 169q0 35 4 68q58 406 60 424t2 47q0 49 -35 49q-28 0 -54 -32.5t-42 -90.5h-35q58 205 219 205q75 0 126.5 -49.5t51.5 -134.5q0 -25 -59 -445q-9 -57 -9 -88q0 -57 16.5 -91t43.5 -34q51 0 92 102t70 305l57 410h238l-74 -514
q-27 -190 -27 -221q0 -37 14.5 -59.5t36.5 -22.5q46 0 124 94t132 240.5t54 233.5q0 47 -62 65q-47 13 -74.5 43t-27.5 70q0 45 23.5 70.5t64.5 25.5q113 0 113 -272q0 -101 -60 -262t-162 -271t-209 -110q-65 0 -118.5 50t-63.5 142q-24 -90 -85 -141t-136 -51z" />
    <glyph glyph-name="x" unicode="x" horiz-adv-x="768" 
d="M313 309l-31 263q-16 133 -21 157.5t-14.5 38.5t-27.5 14q-15 0 -42.5 -35.5t-51.5 -93.5h-35q106 246 248 246q68 0 114 -42.5t62 -231.5q107 166 160 220t90 54q41 0 65.5 -30t24.5 -83q0 -45 -29 -72.5t-71 -27.5q-33 0 -68 31q-19 16 -33 16q-22 0 -53 -47l-80 -117
l46 -372q6 -52 20 -72.5t32 -20.5q51 0 91 129h34q-79 -245 -247 -245q-35 0 -68 16.5t-57.5 50t-31.5 65t-20 132.5q-107 -163 -159 -213.5t-99 -50.5q-48 0 -77 28.5t-29 79.5q0 44 30 78.5t70 34.5q41 0 66 -29q20 -22 43 -22q28 0 53 22t96 129z" />
    <glyph glyph-name="y" unicode="y" horiz-adv-x="811" 
d="M506 371q92 324 149 426t144 102q44 0 74 -33.5t30 -83.5q0 -49 -29.5 -76.5t-70.5 -27.5q-33 0 -72 35q-23 20 -37 20q-22 0 -37 -26t-82 -250q-90 -298 -173 -483t-179 -295.5t-178 -110.5q-62 0 -102.5 37t-40.5 96q0 53 33.5 92t82.5 39q55 0 91 -39q42 -49 63 -49
q82 0 176 215l-153 735q-17 74 -30.5 98.5t-35.5 24.5q-58 0 -102 -123h-35q74 205 229 205q174 0 209 -166z" />
    <glyph glyph-name="z" unicode="z" horiz-adv-x="705" 
d="M76 569l157 330q66 -30 167.5 -54t158.5 -24q39 0 50.5 7.5t11.5 23.5q0 47 45 47q41 0 41 -35q0 -60 -81 -152l-427 -483l4 -4q32 17 80 17q70 0 200 -64q29 -14 58 -14q40 0 62 20t22 43q0 25 -39 29t-63.5 26.5t-24.5 59.5q0 45 25.5 69.5t62.5 24.5q86 0 86 -143
q0 -127 -92 -222.5t-195 -95.5q-63 0 -143 52q-69 45 -125 45q-23 0 -23 -15q0 -4 4 -15q2 -8 2 -11q0 -56 -55 -56q-22 0 -36.5 16t-14.5 40q0 46 65 119l445 499l-4 4q-85 -12 -187 -12q-68 0 -151 21l-47 -93h-39z" />
    <glyph glyph-name="braceleft" unicode="{" horiz-adv-x="807" 
d="M748 1292v-45q-195 -39 -195 -190q0 -64 25 -162q24 -101 24 -164q0 -114 -81 -206.5t-247 -129.5v-4q181 -48 255.5 -138.5t74.5 -191.5q0 -50 -24 -155q-25 -102 -25 -164q0 -171 193 -205v-45q-10 -2 -33 -2q-159 0 -269 97.5t-110 236.5q0 55 31 172q22 82 22 149
q0 184 -194 217v60q194 35 194 225q0 65 -20 144q-31 116 -31 170q0 78 44 154t135 126.5t231 50.5z" />
    <glyph glyph-name="bar" unicode="|" horiz-adv-x="1079" 
d="M504 1296h133v-1702h-133v1702z" />
    <glyph glyph-name="braceright" unicode="}" horiz-adv-x="807" 
d="M121 -508v45q194 37 194 191q0 64 -24 159q-25 102 -25 166q0 112 81 204.5t247 129.5v4q-181 48 -255.5 144t-74.5 186q0 54 25 156q24 101 24 165q0 169 -192 203v47h33q159 0 268.5 -97t109.5 -237q0 -52 -30 -172q-23 -81 -23 -147q0 -186 195 -217v-62
q-195 -32 -195 -223q0 -64 21 -143q30 -120 30 -170q0 -129 -107 -230.5t-302 -101.5z" />
    <glyph glyph-name="asciitilde" unicode="~" horiz-adv-x="1366" 
d="M1202 815h51q-4 -140 -76 -221.5t-180 -81.5q-60 0 -121 19t-255 100q-155 63 -218 63q-143 0 -178 -180h-51q6 162 82.5 232.5t163.5 70.5q60 0 135.5 -23.5t249.5 -97.5q148 -63 213 -63q161 0 184 182z" />
    <glyph glyph-name="nbspace" unicode="&#xa0;" horiz-adv-x="395" 
 />
    <glyph glyph-name="exclamdown" unicode="&#xa1;" horiz-adv-x="385" 
d="M393 750q0 -62 -44 -106t-105 -44q-62 0 -106 44t-44 106q0 61 44 105t106 44q61 0 105 -43.5t44 -105.5zM195 494h32q-10 -100 -10 -189q0 -128 20 -308q13 -121 13 -177q0 -120 -50 -188t-126 -68q-55 0 -85 40t-30 109q0 87 88 307q104 263 148 474z" />
    <glyph glyph-name="cent" unicode="&#xa2;" horiz-adv-x="748" 
d="M225 33l-221 -387h-41l234 407q-127 111 -127 299q0 208 134.5 377.5t301.5 169.5q89 0 149 -43l148 256h41q-160 -281 -162 -281q49 -52 49 -118q0 -80 -42.5 -128t-100.5 -48q-34 0 -62 20l-220 -385q-5 -9 -5 -55q0 -43 21.5 -68.5t58.5 -25.5q181 0 283 258h32
q-97 -295 -321 -295q-80 0 -150 47zM317 264l185 322q-15 20 -15 51q0 48 31 81.5t82 43.5q47 9 47 26q0 29 -37.5 51.5t-91.5 22.5q-52 0 -91 -50.5t-50 -129.5z" />
    <glyph glyph-name="sterling" unicode="&#xa3;" 
d="M233 588h-153v33h141q-55 143 -55 253q0 173 126 309t296 136q116 0 185 -65t69 -164q0 -77 -47 -128t-107 -51q-44 0 -76 32t-32 79q0 57 42 94t105 37q51 0 51 27q0 35 -51 72.5t-125 37.5q-95 0 -162 -70.5t-67 -195.5q0 -63 12 -117.5t43 -154.5q21 -68 31 -131h223
v-33h-219q4 -51 4 -66q0 -160 -74 -309q77 -25 148 -25q161 0 196 117h25q-68 -317 -264 -317q-86 0 -191 96q-87 -96 -178 -96q-53 0 -87 32.5t-34 79.5q0 71 53 115.5t129 44.5q46 0 119 -22q4 35 4 53q0 104 -80 297zM268 119q-72 65 -131 65q-42 0 -69 -23.5t-27 -64.5
q0 -35 23.5 -57.5t62.5 -22.5q85 0 141 103z" />
    <glyph glyph-name="currency" unicode="&#xa4;" horiz-adv-x="1401" 
d="M1008 1024l127 127l88 -90l-127 -127q47 -67 68.5 -120t21.5 -150q0 -100 -21.5 -153t-68.5 -120l127 -127l-88 -88l-127 125q-67 -47 -121 -68.5t-152 -21.5q-100 0 -153.5 21.5t-118.5 68.5l-127 -125l-90 88l127 127q-47 65 -68.5 119t-21.5 154q0 97 21.5 150.5
t68.5 121.5l-127 125l90 90l127 -127q66 47 120 68.5t152 21.5t151.5 -21.5t121.5 -68.5zM735 987q-134 0 -229.5 -95t-95.5 -228q0 -136 95 -231t230 -95q133 0 228.5 95.5t95.5 230.5q0 133 -95.5 228t-228.5 95z" />
    <glyph glyph-name="yen" unicode="&#xa5;" horiz-adv-x="938" 
d="M317 926h-211l5 37h198l-61 305h-94l4 35h446l-4 -35h-96l61 -305h215q107 224 113 238t6 34q0 33 -41 33h-35l4 35h222l-5 -35q-48 0 -75 -21t-46 -60l-106 -224h184l-4 -37h-198l-140 -295h295l-4 -37h-307l-80 -561h94l-4 -33h-440l4 33h92l78 557v4h-328l4 37h316z
M762 926h-189l56 -275h4z" />
    <glyph glyph-name="brokenbar" unicode="&#xa6;" horiz-adv-x="1079" 
d="M504 1296h133v-723h-133v723zM504 317h133v-723h-133v723z" />
    <glyph glyph-name="section" unicode="&#xa7;" horiz-adv-x="831" 
d="M276 715q-90 98 -90 248q0 142 117.5 249t278.5 107q115 0 182 -58.5t67 -152.5q0 -56 -38.5 -97.5t-94.5 -41.5q-45 0 -77.5 29.5t-32.5 74.5q0 80 94 115q43 17 43 39q0 20 -42 37.5t-95 17.5q-101 0 -178.5 -61t-77.5 -148q0 -77 45.5 -132.5t179.5 -147.5
q124 -85 176.5 -153t52.5 -173q0 -224 -219 -369q95 -102 95 -258q0 -144 -120 -254t-286 -110q-119 0 -189.5 59t-70.5 152q0 55 38 97t95 42q45 0 78 -29.5t33 -75.5q0 -79 -95 -114q-43 -17 -43 -39q0 -20 45.5 -37.5t102.5 -17.5q107 0 186.5 64t79.5 153
q0 82 -49 141.5t-176 146.5q-124 85 -177 153t-53 173q0 227 215 371zM541 125q145 93 145 201q0 91 -260 266q-70 46 -123 96q-141 -96 -141 -203q0 -91 260 -266q74 -49 119 -94z" />
    <glyph glyph-name="dieresis" unicode="&#xa8;" horiz-adv-x="682" 
d="M502 1090q0 44 32 76t76 32q45 0 77 -32t32 -76q0 -45 -32 -77t-77 -32q-44 0 -76 32t-32 77zM147 1090q0 44 32.5 76t78.5 32q44 0 76.5 -32t32.5 -76q0 -45 -32.5 -77t-76.5 -32q-46 0 -78.5 32t-32.5 77z" />
    <glyph glyph-name="copyright" unicode="&#xa9;" horiz-adv-x="1530" 
d="M86 678q0 292 209 500t502 208q292 0 500 -208t208 -500t-208 -500.5t-500 -208.5q-293 0 -502 208.5t-209 500.5zM1417 678q0 256 -182 438t-438 182t-438.5 -182.5t-182.5 -437.5q0 -257 182 -439t439 -182q255 0 437.5 183t182.5 438zM1130 1106v-264h-36
q-21 102 -87.5 158.5t-158.5 56.5q-123 0 -191.5 -95.5t-68.5 -267.5q0 -218 80 -296.5t174 -78.5q155 0 262 140v-72q-124 -127 -320 -127q-185 0 -302 114t-117 294q0 192 124 316t316 124q85 0 196 -41q37 -12 46 -12q41 0 47 51h36z" />
    <glyph glyph-name="ordfeminine" unicode="&#xaa;" horiz-adv-x="549" 
d="M393 799q-44 -76 -127 -76q-57 0 -99 59.5t-42 145.5q0 137 75.5 264t194.5 127q41 0 54 -27l10 21h141q-62 -441 -67 -479q-3 -19 -3 -25q0 -33 23 -33q40 0 63 80h23q-38 -133 -143 -133q-80 0 -103 76zM313 768q25 0 47 29t26 81.5t27 192.5t23 176q0 41 -39 41
q-24 0 -45.5 -28.5t-47 -219t-25.5 -211.5q0 -61 34 -61z" />
    <glyph glyph-name="guillemotleft" unicode="&#xab;" horiz-adv-x="555" 
d="M453 748h147l-186 -367l73 -338h-137l-78 352zM211 748h147l-186 -367l74 -338h-137l-78 352z" />
    <glyph glyph-name="logicalnot" unicode="&#xac;" horiz-adv-x="1366" 
d="M170 975h1087v-619h-131v488h-956v131z" />
    <glyph glyph-name="sfthyphen" unicode="&#xad;" horiz-adv-x="406" 
d="M45 535h336v-185h-336v185z" />
    <glyph glyph-name="registered" unicode="&#xae;" horiz-adv-x="1530" 
d="M86 678q0 292 209 500t502 208q292 0 500 -208t208 -500t-208 -500.5t-500 -208.5q-293 0 -502 208.5t-209 500.5zM1417 678q0 256 -182 438t-438 182t-438.5 -182.5t-182.5 -437.5q0 -257 182 -439t439 -182q255 0 437.5 183t182.5 438zM416 1090h362q237 0 297 -73.5
t60 -146.5q0 -154 -181 -206q156 -289 183.5 -317.5t58.5 -31.5v-34h-242l-204 368h-45v-198q0 -85 20.5 -109t97.5 -27v-34h-422v34h7q59 0 78.5 28.5t19.5 107.5v473q0 88 -20.5 108t-69.5 23v35zM705 1047v-347q21 -4 55 -4q69 0 114.5 50.5t45.5 127.5q0 173 -179 173
h-36z" />
    <glyph glyph-name="overscore" unicode="&#xaf;" horiz-adv-x="1024" 
d="M195 1556h1060v-98h-1060v98z" />
    <glyph glyph-name="degree" unicode="&#xb0;" horiz-adv-x="819" 
d="M147 1038q0 143 102 244.5t245 101.5q142 0 244 -102t102 -244t-102 -244t-244 -102q-143 0 -245 102t-102 244zM709 1038q0 89 -63.5 152t-151.5 63q-89 0 -152 -63t-63 -152q0 -88 63 -150.5t152 -62.5q88 0 151.5 63t63.5 150z" />
    <glyph glyph-name="plusminus" unicode="&#xb1;" horiz-adv-x="1366" 
d="M170 895h477v479h131v-479h479v-131h-479v-477h-131v477h-477v131zM170 86h1087v-131h-1087v131z" />
    <glyph glyph-name="twosuperior" unicode="&#xb2;" horiz-adv-x="682" 
d="M104 459l15 94q269 225 319.5 366.5t50.5 251.5q0 99 -81 99q-39 0 -75 -26t-36 -50q0 -5 22 -8q82 -7 82 -76q0 -50 -29.5 -81.5t-80.5 -31.5q-38 0 -65 28.5t-27 74.5q0 81 77.5 144t182.5 63q100 0 160.5 -52.5t60.5 -138.5q0 -47 -20.5 -93.5t-53.5 -82t-122 -110.5
q-223 -187 -251 -224h283q73 0 92 82h31l-53 -229h-482z" />
    <glyph glyph-name="threesuperior" unicode="&#xb3;" horiz-adv-x="682" 
d="M260 936h68q76 0 106.5 29t46 126t15.5 117q0 76 -72 76q-64 0 -64 -24q0 -11 15 -21q41 -27 41 -76q0 -39 -33 -67.5t-74 -28.5q-40 0 -65 24t-25 66q0 60 60.5 110t154.5 50q118 0 184 -46.5t66 -123.5q0 -83 -67 -145.5t-191 -77.5v-4q215 -43 215 -207
q0 -111 -91 -183.5t-224 -72.5q-90 0 -143.5 42t-53.5 109q0 49 37 87t86 38q38 0 63 -27t25 -65q0 -66 -70 -96q-24 -13 -24 -27q0 -11 19 -18.5t48 -7.5q62 0 85.5 50t35.5 137.5t12 121.5q0 57 -19 79.5t-99 22.5h-72z" />
    <glyph glyph-name="acute" unicode="&#xb4;" horiz-adv-x="682" 
d="M688 1317l-342 -346h-35l154 346h223z" />
    <glyph glyph-name="mu1" unicode="&#xb5;" horiz-adv-x="1139" 
d="M201 936h278q-102 -730 -102 -754q0 -73 74 -73q18 0 35 4t34 13t35 23q17 13 34 32q18 19 36 43q6 7 35 218l69 494h279l-94 -666q-9 -60 -9 -82q0 -29 16.5 -47t39.5 -18q65 0 96 143h43q-24 -138 -105.5 -216.5t-191.5 -78.5q-73 0 -122.5 41.5t-55.5 116.5
q-158 -158 -310 -158q-48 0 -77 13t-68 45q-8 -76 -8 -95q0 -52 11 -127q9 -57 9 -88q0 -75 -36 -117t-97 -42q-42 0 -70 30t-28 76q0 57 53 172q28 60 49.5 133t42.5 224z" />
    <glyph glyph-name="paragraph" unicode="&#xb6;" horiz-adv-x="1106" 
d="M719 1280v-1722h-101v872q-273 1 -404.5 132.5t-131.5 338.5q0 144 68 255t179.5 155.5t420.5 44.5h438v-43h-43q-67 0 -99 -26t-39.5 -52.5t-7.5 -126.5v-1550h-98v1722h-182z" />
    <glyph glyph-name="middot" unicode="&#xb7;" horiz-adv-x="512" 
d="M152 694q0 61 44 105.5t105 44.5q62 0 106 -44t44 -106q0 -61 -44 -105t-106 -44t-105.5 43.5t-43.5 105.5z" />
    <glyph glyph-name="cedilla" unicode="&#xb8;" horiz-adv-x="682" 
d="M172 -168l90 168h43l-37 -70q81 -5 125.5 -43.5t44.5 -93.5q0 -78 -82 -126t-204 -48q-50 0 -109 14l12 33q41 -10 78 -10q148 0 148 113q0 63 -95 63h-14z" />
    <glyph glyph-name="onesuperior" unicode="&#xb9;" horiz-adv-x="682" 
d="M291 1290h49q50 0 97 6l89 13h41l-114 -820h94l-6 -30h-367l6 30h90l107 768h-92z" />
    <glyph glyph-name="ordmasculine" unicode="&#xba;" horiz-adv-x="555" 
d="M418 1319q79 0 138.5 -68.5t59.5 -169.5q0 -135 -88 -246.5t-196 -111.5q-80 0 -139.5 68.5t-59.5 169.5q0 135 88.5 246.5t196.5 111.5zM461 1188q4 29 4 45q0 61 -49 61q-30 0 -53 -32t-31 -94l-27 -199q-20 -138 -20 -160q0 -61 49 -61q29 0 51.5 30t30.5 86z" />
    <glyph glyph-name="guillemotright" unicode="&#xbb;" horiz-adv-x="555" 
d="M352 43h-147l186 367l-74 338h138l77 -353zM111 43h-148l187 367l-74 338h137l78 -353z" />
    <glyph glyph-name="onequarter" unicode="&#xbc;" horiz-adv-x="1622" 
d="M261 1290h49q50 0 97 6l89 13h41l-114 -820h94l-6 -30h-367l6 30h90l107 768h-92zM1425 1319l-985 -1350h-115l985 1350h115zM1366 817h88l-86 -609h68l10 72h35l-25 -176h-35l11 72h-68l-25 -172h84l-4 -37h-350l4 35h82l25 176h-226l4 32zM1231 557l-232 -349h187
l49 349h-4z" />
    <glyph glyph-name="onehalf" unicode="&#xbd;" horiz-adv-x="1622" 
d="M261 1290h49q50 0 97 6l89 13h41l-114 -820h94l-6 -30h-367l6 30h90l107 768h-92zM1370 1319l-985 -1350h-115l985 1350h115zM936 -33l15 94q269 225 319.5 366.5t50.5 251.5q0 99 -81 99q-39 0 -75 -26t-36 -50q0 -5 22 -8q82 -7 82 -76q0 -50 -29.5 -81.5t-80.5 -31.5
q-38 0 -65 28.5t-27 74.5q0 81 77.5 144t182.5 63q100 0 160.5 -52.5t60.5 -138.5q0 -47 -20.5 -93.5t-53.5 -82t-122 -110.5q-223 -187 -251 -224h283q73 0 92 82h31l-53 -229h-482z" />
    <glyph glyph-name="threequarters" unicode="&#xbe;" horiz-adv-x="1622" 
d="M260 936h68q76 0 106.5 29t46 126t15.5 117q0 76 -72 76q-64 0 -64 -24q0 -11 15 -21q41 -27 41 -76q0 -39 -33 -67.5t-74 -28.5q-40 0 -65 24t-25 66q0 60 60.5 110t154.5 50q118 0 184 -46.5t66 -123.5q0 -83 -67 -145.5t-191 -77.5v-4q215 -43 215 -207
q0 -111 -91 -183.5t-224 -72.5q-90 0 -143.5 42t-53.5 109q0 49 37 87t86 38q38 0 63 -27t25 -65q0 -66 -70 -96q-24 -13 -24 -27q0 -11 19 -18.5t48 -7.5q62 0 85.5 50t35.5 137.5t12 121.5q0 57 -19 79.5t-99 22.5h-72zM1470 1319l-985 -1350h-115l985 1350h115zM1366 817
h88l-86 -609h68l10 72h35l-25 -176h-35l11 72h-68l-25 -172h84l-4 -37h-350l4 35h82l25 176h-226l4 32zM1231 557l-232 -349h187l49 349h-4z" />
    <glyph glyph-name="questiondown" unicode="&#xbf;" horiz-adv-x="705" 
d="M631 750q0 -62 -44.5 -106t-105.5 -44q-62 0 -105.5 44t-43.5 106q0 61 43.5 105t105.5 44t106 -43.5t44 -105.5zM426 496h35q-19 -157 -33 -219t-51 -121t-115 -129q-80 -73 -112.5 -130.5t-32.5 -127.5q0 -76 45 -119t127 -43q64 0 121 35.5t57 60.5q0 13 -37 23
q-90 21 -90 106q0 59 38.5 96t92.5 37q52 0 82.5 -33.5t30.5 -89.5q0 -107 -100 -192.5t-226 -85.5q-124 0 -198 81t-74 216q0 146 65.5 252.5t212.5 210.5q93 65 120 95.5t42 76.5z" />
    <glyph glyph-name="Agrave" unicode="&#xc0;" horiz-adv-x="918" 
d="M227 365l-68 -181q-28 -74 -28 -90q0 -59 66 -59h34l-4 -35h-268l4 35h33q68 0 102 90l459 1196h74l133 -1286h84l-4 -35h-412l4 35h80l-33 330h-256zM479 399l-49 482h-4l-184 -482h237zM418 1732h223l57 -346h-33z" />
    <glyph glyph-name="Aacute" unicode="&#xc1;" horiz-adv-x="918" 
d="M227 365l-68 -181q-28 -74 -28 -90q0 -59 66 -59h34l-4 -35h-268l4 35h33q68 0 102 90l459 1196h74l133 -1286h84l-4 -35h-412l4 35h80l-33 330h-256zM479 399l-49 482h-4l-184 -482h237zM864 1732l-342 -346h-35l154 346h223z" />
    <glyph glyph-name="Acircumflex" unicode="&#xc2;" horiz-adv-x="918" 
d="M227 365l-68 -181q-28 -74 -28 -90q0 -59 66 -59h34l-4 -35h-268l4 35h33q68 0 102 90l459 1196h74l133 -1286h84l-4 -35h-412l4 35h80l-33 330h-256zM479 399l-49 482h-4l-184 -482h237zM545 1708h184l141 -329h-30l-220 213l-280 -213h-31z" />
    <glyph glyph-name="Atilde" unicode="&#xc3;" horiz-adv-x="918" 
d="M227 365l-68 -181q-28 -74 -28 -90q0 -59 66 -59h34l-4 -35h-268l4 35h33q68 0 102 90l459 1196h74l133 -1286h84l-4 -35h-412l4 35h80l-33 330h-256zM479 399l-49 482h-4l-184 -482h237zM303 1372h-31q43 261 226 261q76 0 184 -82q74 -58 119 -58q80 0 114 140h31
q-12 -129 -79 -196t-156 -67q-72 0 -177 80q-44 35 -68 48.5t-54 13.5q-68 0 -101 -115q-4 -14 -8 -25z" />
    <glyph glyph-name="Adieresis" unicode="&#xc4;" horiz-adv-x="918" 
d="M227 365l-68 -181q-28 -74 -28 -90q0 -59 66 -59h34l-4 -35h-268l4 35h33q68 0 102 90l459 1196h74l133 -1286h84l-4 -35h-412l4 35h80l-33 330h-256zM479 399l-49 482h-4l-184 -482h237zM678 1506q0 44 32 76t76 32q45 0 77 -32t32 -76q0 -45 -32 -77t-77 -32
q-44 0 -76 32t-32 77zM323 1506q0 44 32.5 76t78.5 32q44 0 76.5 -32t32.5 -76q0 -45 -32.5 -77t-76.5 -32q-46 0 -78.5 32t-32.5 77z" />
    <glyph glyph-name="Aring" unicode="&#xc5;" horiz-adv-x="918" 
d="M227 365l-68 -181q-28 -74 -28 -90q0 -59 66 -59h34l-4 -35h-268l4 35h33q68 0 102 90l459 1196h74l133 -1286h84l-4 -35h-412l4 35h80l-33 330h-256zM479 399l-49 482h-4l-184 -482h237zM428 1581q0 80 56.5 136.5t135.5 56.5t135 -56.5t56 -136.5q0 -78 -56 -134
t-135 -56t-135.5 56t-56.5 134zM741 1581q0 51 -35 87t-86 36q-50 0 -86 -36t-36 -87q0 -49 36 -85t86 -36t85.5 36t35.5 85z" />
    <glyph glyph-name="AE" unicode="&#xc6;" horiz-adv-x="1067" 
d="M436 1303h729l-43 -314h-35q0 279 -174 279h-75l-78 -559h45q160 0 172 184h35l-60 -420h-34q10 57 10 80q0 119 -121 119h-53l-90 -637h65q180 0 285 325h33l-52 -360h-676l5 35h88l45 325h-242q-75 -208 -80.5 -232.5t-5.5 -37.5q0 -55 66 -55l-5 -35h-221l4 35
q86 1 119 92l414 1141h-74zM461 395l125 873h-43l-316 -873h234z" />
    <glyph glyph-name="Ccedilla" unicode="&#xc7;" horiz-adv-x="682" 
d="M317 -10q-111 26 -175 154.5t-64 316.5q0 342 150 600t321 258q67 0 117 -74q30 18 63 58h37l-47 -334h-37q-21 317 -137 317q-34 0 -63 -49t-40 -129l-133 -956q-4 -25 -4 -43q0 -41 21.5 -65t54.5 -24q137 0 235 342h33l-51 -362h-37l-53 61q-67 -77 -139 -77h-11
l-28 -54q80 -5 125 -43.5t45 -93.5q0 -81 -84 -127.5t-203 -46.5q-50 0 -109 14l13 33q41 -10 78 -10q147 0 147 113q0 63 -94 63h-15z" />
    <glyph glyph-name="Egrave" unicode="&#xc8;" horiz-adv-x="725" 
d="M158 1303h665l-43 -314h-35q0 279 -174 279h-75l-78 -559h45q160 0 172 184h35l-60 -420h-35q11 57 11 80q0 119 -121 119h-53l-90 -637h65q180 0 285 325h33l-52 -360h-676l5 35h88l174 1233h-90zM322 1732h223l57 -346h-33z" />
    <glyph glyph-name="Eacute" unicode="&#xc9;" horiz-adv-x="725" 
d="M158 1303h665l-43 -314h-35q0 279 -174 279h-75l-78 -559h45q160 0 172 184h35l-60 -420h-35q11 57 11 80q0 119 -121 119h-53l-90 -637h65q180 0 285 325h33l-52 -360h-676l5 35h88l174 1233h-90zM768 1732l-342 -346h-35l154 346h223z" />
    <glyph glyph-name="Ecircumflex" unicode="&#xca;" horiz-adv-x="725" 
d="M158 1303h665l-43 -314h-35q0 279 -174 279h-75l-78 -559h45q160 0 172 184h35l-60 -420h-35q11 57 11 80q0 119 -121 119h-53l-90 -637h65q180 0 285 325h33l-52 -360h-676l5 35h88l174 1233h-90zM449 1708h184l141 -329h-30l-220 213l-280 -213h-31z" />
    <glyph glyph-name="Edieresis" unicode="&#xcb;" horiz-adv-x="725" 
d="M158 1303h665l-43 -314h-35q0 279 -174 279h-75l-78 -559h45q160 0 172 184h35l-60 -420h-35q11 57 11 80q0 119 -121 119h-53l-90 -637h65q180 0 285 325h33l-52 -360h-676l5 35h88l174 1233h-90zM582 1506q0 44 32 76t76 32q45 0 77 -32t32 -76q0 -45 -32 -77t-77 -32
q-44 0 -76 32t-32 77zM227 1506q0 44 32.5 76t78.5 32q44 0 76.5 -32t32.5 -76q0 -45 -32.5 -77t-76.5 -32q-46 0 -78.5 32t-32.5 77z" />
    <glyph glyph-name="Igrave" unicode="&#xcc;" horiz-adv-x="492" 
d="M166 1303h428l-4 -35h-90l-174 -1233h92l-4 -35h-428l4 35h84l174 1233h-86zM205 1732h223l57 -346h-33z" />
    <glyph glyph-name="Iacute" unicode="&#xcd;" horiz-adv-x="492" 
d="M166 1303h428l-4 -35h-90l-174 -1233h92l-4 -35h-428l4 35h84l174 1233h-86zM651 1732l-342 -346h-35l154 346h223z" />
    <glyph glyph-name="Icircumflex" unicode="&#xce;" horiz-adv-x="492" 
d="M166 1303h428l-4 -35h-90l-174 -1233h92l-4 -35h-428l4 35h84l174 1233h-86zM332 1708h184l141 -329h-30l-220 213l-280 -213h-31z" />
    <glyph glyph-name="Idieresis" unicode="&#xcf;" horiz-adv-x="492" 
d="M166 1303h428l-4 -35h-90l-174 -1233h92l-4 -35h-428l4 35h84l174 1233h-86zM465 1506q0 44 32 76t76 32q45 0 77 -32t32 -76q0 -45 -32 -77t-77 -32q-44 0 -76 32t-32 77zM110 1506q0 44 32.5 76t78.5 32q44 0 76.5 -32t32.5 -76q0 -45 -32.5 -77t-76.5 -32
q-46 0 -78.5 32t-32.5 77z" />
    <glyph glyph-name="Eth" unicode="&#xd0;" horiz-adv-x="897" 
d="M158 1303h415q147 0 239.5 -121t92.5 -332q0 -335 -152.5 -592.5t-377.5 -257.5h-400l5 33h92l84 602h-82l4 37h84l84 596h-92zM496 1268l-84 -596h112l-4 -37h-114l-84 -600h57q137 0 164 190l125 887q6 43 6 59q0 97 -101 97h-77z" />
    <glyph glyph-name="Ntilde" unicode="&#xd1;" horiz-adv-x="918" 
d="M137 1303h355l229 -1070h4l129 918q6 49 6 51q0 66 -76 66h-36l4 35h272l-4 -35h-37q-68 0 -76 -54l-170 -1214h-221l-242 1135h-4l-139 -983q-2 -13 -2 -35q0 -82 64 -82h45l-5 -35h-256l5 35q52 0 72.5 20.5t27.5 67.5l162 1145h-111zM303 1372h-31q43 261 226 261
q76 0 184 -82q74 -58 119 -58q80 0 114 140h31q-12 -129 -79 -196t-156 -67q-72 0 -177 80q-44 35 -68 48.5t-54 13.5q-68 0 -101 -115q-4 -14 -8 -25z" />
    <glyph glyph-name="Ograve" unicode="&#xd2;" horiz-adv-x="897" 
d="M662 1196q0 90 -93 90q-45 0 -80 -48.5t-47 -129.5l-133 -956q-4 -25 -4 -43q0 -91 92 -91q46 0 81 49t46 130l133 956q5 29 5 43zM389 -14q-133 0 -222 132.5t-89 342.5q0 222 72.5 423t190 318t237.5 117q133 0 222 -132.5t89 -342.5q0 -347 -156.5 -602.5
t-343.5 -255.5zM408 1732h223l57 -346h-33z" />
    <glyph glyph-name="Oacute" unicode="&#xd3;" horiz-adv-x="897" 
d="M662 1196q0 90 -93 90q-45 0 -80 -48.5t-47 -129.5l-133 -956q-4 -25 -4 -43q0 -91 92 -91q46 0 81 49t46 130l133 956q5 29 5 43zM389 -14q-133 0 -222 132.5t-89 342.5q0 222 72.5 423t190 318t237.5 117q133 0 222 -132.5t89 -342.5q0 -347 -156.5 -602.5
t-343.5 -255.5zM854 1732l-342 -346h-35l154 346h223z" />
    <glyph glyph-name="Ocircumflex" unicode="&#xd4;" horiz-adv-x="897" 
d="M662 1196q0 90 -93 90q-45 0 -80 -48.5t-47 -129.5l-133 -956q-4 -25 -4 -43q0 -91 92 -91q46 0 81 49t46 130l133 956q5 29 5 43zM389 -14q-133 0 -222 132.5t-89 342.5q0 222 72.5 423t190 318t237.5 117q133 0 222 -132.5t89 -342.5q0 -347 -156.5 -602.5
t-343.5 -255.5zM535 1708h184l141 -329h-30l-220 213l-280 -213h-31z" />
    <glyph glyph-name="Otilde" unicode="&#xd5;" horiz-adv-x="897" 
d="M662 1196q0 90 -93 90q-45 0 -80 -48.5t-47 -129.5l-133 -956q-4 -25 -4 -43q0 -91 92 -91q46 0 81 49t46 130l133 956q5 29 5 43zM389 -14q-133 0 -222 132.5t-89 342.5q0 222 72.5 423t190 318t237.5 117q133 0 222 -132.5t89 -342.5q0 -347 -156.5 -602.5
t-343.5 -255.5zM293 1372h-31q43 261 226 261q76 0 184 -82q74 -58 119 -58q80 0 114 140h31q-12 -129 -79 -196t-156 -67q-72 0 -177 80q-44 35 -68 48.5t-54 13.5q-68 0 -101 -115q-4 -14 -8 -25z" />
    <glyph glyph-name="Odieresis" unicode="&#xd6;" horiz-adv-x="897" 
d="M662 1196q0 90 -93 90q-45 0 -80 -48.5t-47 -129.5l-133 -956q-4 -25 -4 -43q0 -91 92 -91q46 0 81 49t46 130l133 956q5 29 5 43zM389 -14q-133 0 -222 132.5t-89 342.5q0 222 72.5 423t190 318t237.5 117q133 0 222 -132.5t89 -342.5q0 -347 -156.5 -602.5
t-343.5 -255.5zM668 1506q0 44 32 76t76 32q45 0 77 -32t32 -76q0 -45 -32 -77t-77 -32q-44 0 -76 32t-32 77zM313 1506q0 44 32.5 76t78.5 32q44 0 76.5 -32t32.5 -76q0 -45 -32.5 -77t-76.5 -32q-46 0 -78.5 32t-32.5 77z" />
    <glyph glyph-name="multiply" unicode="&#xd7;" horiz-adv-x="1366" 
d="M215 1071l92 92l408 -409l409 409l93 -94l-408 -407l403 -406l-92 -92l-405 405l-406 -405l-92 92l406 406z" />
    <glyph glyph-name="Oslash" unicode="&#xd8;" horiz-adv-x="897" 
d="M113 227q-35 105 -35 234q0 222 72.5 423t190 318t237.5 117q85 0 155.5 -58t112.5 -165l127 149l26 -20l-141 -166q31 -95 31 -215q0 -347 -156.5 -602.5t-343.5 -255.5q-171 0 -262 207l-127 -152l-27 20zM360 520l250 295q52 367 52 381q0 90 -93 90q-45 0 -80 -48.5
t-47 -129.5zM602 754l-250 -295q-47 -337 -47 -350q0 -91 92 -91q46 0 81 50t46 129z" />
    <glyph glyph-name="Ugrave" unicode="&#xd9;" horiz-adv-x="811" 
d="M150 1303h438l-4 -35h-95l-155 -1108q-2 -10 -2 -27q0 -46 27 -75t71 -29q84 0 138.5 58.5t68.5 160.5l133 950v8q0 23 -18 42.5t-41 19.5h-23l4 35h219l-4 -35h-22q-24 0 -50 -21.5t-30 -48.5l-135 -954q-19 -133 -96.5 -195.5t-223.5 -62.5q-115 0 -186.5 69t-71.5 172
q0 33 8 90l136 951h-93zM385 1732h223l57 -346h-33z" />
    <glyph glyph-name="Uacute" unicode="&#xda;" horiz-adv-x="811" 
d="M150 1303h438l-4 -35h-95l-155 -1108q-2 -10 -2 -27q0 -46 27 -75t71 -29q84 0 138.5 58.5t68.5 160.5l133 950v8q0 23 -18 42.5t-41 19.5h-23l4 35h219l-4 -35h-22q-24 0 -50 -21.5t-30 -48.5l-135 -954q-19 -133 -96.5 -195.5t-223.5 -62.5q-115 0 -186.5 69t-71.5 172
q0 33 8 90l136 951h-93zM832 1732l-342 -346h-35l154 346h223z" />
    <glyph glyph-name="Ucircumflex" unicode="&#xdb;" horiz-adv-x="811" 
d="M150 1303h438l-4 -35h-95l-155 -1108q-2 -10 -2 -27q0 -46 27 -75t71 -29q84 0 138.5 58.5t68.5 160.5l133 950v8q0 23 -18 42.5t-41 19.5h-23l4 35h219l-4 -35h-22q-24 0 -50 -21.5t-30 -48.5l-135 -954q-19 -133 -96.5 -195.5t-223.5 -62.5q-115 0 -186.5 69t-71.5 172
q0 33 8 90l136 951h-93zM513 1708h184l141 -329h-30l-220 213l-280 -213h-31z" />
    <glyph glyph-name="Udieresis" unicode="&#xdc;" horiz-adv-x="811" 
d="M150 1303h438l-4 -35h-95l-155 -1108q-2 -10 -2 -27q0 -46 27 -75t71 -29q84 0 138.5 58.5t68.5 160.5l133 950v8q0 23 -18 42.5t-41 19.5h-23l4 35h219l-4 -35h-22q-24 0 -50 -21.5t-30 -48.5l-135 -954q-19 -133 -96.5 -195.5t-223.5 -62.5q-115 0 -186.5 69t-71.5 172
q0 33 8 90l136 951h-93zM645 1506q0 44 32 76t76 32q45 0 77 -32t32 -76q0 -45 -32 -77t-77 -32q-44 0 -76 32t-32 77zM290 1506q0 44 32.5 76t78.5 32q44 0 76.5 -32t32.5 -76q0 -45 -32.5 -77t-76.5 -32q-46 0 -78.5 32t-32.5 77z" />
    <glyph glyph-name="Yacute" unicode="&#xdd;" horiz-adv-x="938" 
d="M158 1303h446l-4 -35h-96l125 -617h4l176 371q81 171 85.5 185t4.5 28q0 33 -41 33h-35l4 35h222l-5 -35q-24 0 -43 -5q-19 -6 -34 -17q-15 -12 -28 -31q-9 -14 -41 -81l-208 -440q-47 -98 -75 -299l-52 -362h94l-4 -33h-440l4 33h92l78 557l-139 678h-94zM895 1732
l-342 -346h-35l154 346h223z" />
    <glyph glyph-name="Thorn" unicode="&#xde;" horiz-adv-x="874" 
d="M362 307l-36 -272h92l-4 -35h-428l4 35h84l174 1233h-86l4 35h428l-4 -35h-90l-39 -275h47q174 0 269 -81.5t95 -213.5q0 -163 -126 -277t-328 -114h-56zM457 958l-88 -614h57q50 0 94.5 35t70 229t25.5 223q0 59 -15 86t-42 34t-102 7z" />
    <glyph glyph-name="germandbls" unicode="&#xdf;" horiz-adv-x="831" 
d="M473 831q32 2 63.5 32.5t52.5 172t21 160.5q0 82 -41 82q-90 0 -131 -289l-119 -839q-34 -241 -145 -411.5t-248 -170.5q-79 0 -128.5 43t-49.5 106t34 102.5t79 39.5q41 0 66.5 -28t25.5 -67q0 -34 -17 -66t-33 -45t-16 -26q0 -20 45 -20q60 0 99 59.5t39 138.5l-7 168
q0 57 58.5 479t71 502t67 169.5t136 141.5t159.5 52q122 0 204.5 -64t82.5 -151q0 -100 -71.5 -176.5t-199.5 -102.5v-4q220 -61 220 -301q0 -199 -98.5 -365.5t-211.5 -166.5q-55 0 -88 37.5t-33 93.5q0 54 26.5 89.5t68.5 35.5q67 0 67 -70q0 -67 -53 -86q-25 -9 -25 -20
q0 -16 11 -28.5t24 -12.5q41 0 66.5 24t25.5 66q0 66 -27 153q-26 81 -26 138q0 21 20 165q17 127 17 144q0 71 -86 86z" />
    <glyph glyph-name="agrave" unicode="&#xe0;" horiz-adv-x="844" 
d="M467 202l43 308q35 239 35 270q0 26 -17 45t-45 19q-30 0 -55 -30.5t-39 -79.5t-50 -306t-36 -278q0 -97 53 -97q37 0 70 39.5t41 109.5zM481 102q-68 -116 -194 -116q-90 0 -154.5 91t-64.5 224q0 153 60 292t150.5 221.5t200.5 82.5q58 0 84 -47l15 31h219l-99 -701
q-6 -30 -6 -63q0 -21 10.5 -35t24.5 -14q27 0 53.5 32.5t42.5 89.5h35q-58 -204 -219 -204q-123 0 -158 116zM336 1317h223l57 -346h-33z" />
    <glyph glyph-name="aacute" unicode="&#xe1;" horiz-adv-x="844" 
d="M467 202l43 308q35 239 35 270q0 26 -17 45t-45 19q-30 0 -55 -30.5t-39 -79.5t-50 -306t-36 -278q0 -97 53 -97q37 0 70 39.5t41 109.5zM481 102q-68 -116 -194 -116q-90 0 -154.5 91t-64.5 224q0 153 60 292t150.5 221.5t200.5 82.5q58 0 84 -47l15 31h219l-99 -701
q-6 -30 -6 -63q0 -21 10.5 -35t24.5 -14q27 0 53.5 32.5t42.5 89.5h35q-58 -204 -219 -204q-123 0 -158 116zM783 1317l-342 -346h-35l154 346h223z" />
    <glyph glyph-name="acircumflex" unicode="&#xe2;" horiz-adv-x="844" 
d="M467 202l43 308q35 239 35 270q0 26 -17 45t-45 19q-30 0 -55 -30.5t-39 -79.5t-50 -306t-36 -278q0 -97 53 -97q37 0 70 39.5t41 109.5zM481 102q-68 -116 -194 -116q-90 0 -154.5 91t-64.5 224q0 153 60 292t150.5 221.5t200.5 82.5q58 0 84 -47l15 31h219l-99 -701
q-6 -30 -6 -63q0 -21 10.5 -35t24.5 -14q27 0 53.5 32.5t42.5 89.5h35q-58 -204 -219 -204q-123 0 -158 116zM463 1292h184l141 -329h-30l-220 213l-280 -213h-31z" />
    <glyph glyph-name="atilde" unicode="&#xe3;" horiz-adv-x="844" 
d="M467 202l43 308q35 239 35 270q0 26 -17 45t-45 19q-30 0 -55 -30.5t-39 -79.5t-50 -306t-36 -278q0 -97 53 -97q37 0 70 39.5t41 109.5zM481 102q-68 -116 -194 -116q-90 0 -154.5 91t-64.5 224q0 153 60 292t150.5 221.5t200.5 82.5q58 0 84 -47l15 31h219l-99 -701
q-6 -30 -6 -63q0 -21 10.5 -35t24.5 -14q27 0 53.5 32.5t42.5 89.5h35q-58 -204 -219 -204q-123 0 -158 116zM221 956h-31q43 261 226 261q76 0 184 -82q74 -58 119 -58q80 0 114 140h31q-12 -129 -79 -196t-156 -67q-72 0 -177 80q-44 35 -68 48.5t-54 13.5
q-68 0 -101 -115q-4 -14 -8 -25z" />
    <glyph glyph-name="adieresis" unicode="&#xe4;" horiz-adv-x="844" 
d="M467 202l43 308q35 239 35 270q0 26 -17 45t-45 19q-30 0 -55 -30.5t-39 -79.5t-50 -306t-36 -278q0 -97 53 -97q37 0 70 39.5t41 109.5zM481 102q-68 -116 -194 -116q-90 0 -154.5 91t-64.5 224q0 153 60 292t150.5 221.5t200.5 82.5q58 0 84 -47l15 31h219l-99 -701
q-6 -30 -6 -63q0 -21 10.5 -35t24.5 -14q27 0 53.5 32.5t42.5 89.5h35q-58 -204 -219 -204q-123 0 -158 116zM596 1090q0 44 32 76t76 32q45 0 77 -32t32 -76q0 -45 -32 -77t-77 -32q-44 0 -76 32t-32 77zM241 1090q0 44 32.5 76t78.5 32q44 0 76.5 -32t32.5 -76
q0 -45 -32.5 -77t-76.5 -32q-46 0 -78.5 32t-32.5 77z" />
    <glyph glyph-name="aring" unicode="&#xe5;" horiz-adv-x="844" 
d="M467 202l43 308q35 239 35 270q0 26 -17 45t-45 19q-30 0 -55 -30.5t-39 -79.5t-50 -306t-36 -278q0 -97 53 -97q37 0 70 39.5t41 109.5zM481 102q-68 -116 -194 -116q-90 0 -154.5 91t-64.5 224q0 153 60 292t150.5 221.5t200.5 82.5q58 0 84 -47l15 31h219l-99 -701
q-6 -30 -6 -63q0 -21 10.5 -35t24.5 -14q27 0 53.5 32.5t42.5 89.5h35q-58 -204 -219 -204q-123 0 -158 116zM346 1165q0 80 56.5 136.5t135.5 56.5t135 -56.5t56 -136.5q0 -78 -56 -134t-135 -56t-135.5 56t-56.5 134zM659 1165q0 51 -35 87t-86 36q-50 0 -86 -36t-36 -87
q0 -49 36 -85t86 -36t85.5 36t35.5 85z" />
    <glyph glyph-name="ae" unicode="&#xe6;" horiz-adv-x="1188" 
d="M508 154q-73 -166 -221 -166q-90 0 -154.5 91t-64.5 224q0 153 60 292.5t150.5 221.5t200.5 82q58 0 84 -47l15 31h149v-47q89 63 201 63q119 0 185.5 -51t66.5 -133q0 -237 -455 -336q-33 -235 -33 -262q0 -43 22 -68.5t58 -25.5q225 0 309 272h33q-83 -309 -348 -309
q-76 0 -145.5 44t-112.5 124zM731 420q108 34 162.5 124t54.5 216q0 102 -49 102q-48 0 -84 -50.5t-47 -129.5zM356 55q37 0 70 39.5t41 109.5l43 308q35 239 35 270q0 26 -17 45t-45 19q-30 0 -55 -30.5t-39 -79.5t-50 -306t-36 -278q0 -97 53 -97z" />
    <glyph glyph-name="ccedilla" unicode="&#xe7;" horiz-adv-x="748" 
d="M350 -12q-122 14 -201 118t-79 246q0 208 134.5 377.5t301.5 169.5q101 0 163 -54.5t62 -131.5q0 -80 -42.5 -128t-100.5 -48q-43 0 -72 29t-29 71q0 48 31 81.5t82 43.5q47 9 47 26q0 29 -37.5 51.5t-91.5 22.5t-94 -54t-51.5 -152.5t-41.5 -294t-30 -244.5
q0 -43 21.5 -68.5t58.5 -25.5q181 0 283 258h32q-93 -280 -305 -295l-29 -56q81 -5 125.5 -43.5t44.5 -93.5q0 -78 -81.5 -126t-204.5 -48q-50 0 -109 14l13 33q40 -10 77 -10q148 0 148 113q0 63 -94 63h-15z" />
    <glyph glyph-name="egrave" unicode="&#xe8;" horiz-adv-x="797" 
d="M340 420q107 34 162 124t55 216q0 102 -49 102q-48 0 -84 -50.5t-47 -129.5zM375 -14q-124 0 -214.5 105.5t-90.5 260.5q0 213 139.5 380t327.5 167q119 0 185 -51t66 -133q0 -237 -454 -336q-33 -235 -33 -262q0 -43 21.5 -68.5t58.5 -25.5q225 0 309 272h33
q-83 -309 -348 -309zM299 1317h223l57 -346h-33z" />
    <glyph glyph-name="eacute" unicode="&#xe9;" horiz-adv-x="797" 
d="M340 420q107 34 162 124t55 216q0 102 -49 102q-48 0 -84 -50.5t-47 -129.5zM375 -14q-124 0 -214.5 105.5t-90.5 260.5q0 213 139.5 380t327.5 167q119 0 185 -51t66 -133q0 -237 -454 -336q-33 -235 -33 -262q0 -43 21.5 -68.5t58.5 -25.5q225 0 309 272h33
q-83 -309 -348 -309zM746 1317l-342 -346h-35l154 346h223z" />
    <glyph glyph-name="ecircumflex" unicode="&#xea;" horiz-adv-x="797" 
d="M340 420q107 34 162 124t55 216q0 102 -49 102q-48 0 -84 -50.5t-47 -129.5zM375 -14q-124 0 -214.5 105.5t-90.5 260.5q0 213 139.5 380t327.5 167q119 0 185 -51t66 -133q0 -237 -454 -336q-33 -235 -33 -262q0 -43 21.5 -68.5t58.5 -25.5q225 0 309 272h33
q-83 -309 -348 -309zM427 1292h184l141 -329h-30l-220 213l-280 -213h-31z" />
    <glyph glyph-name="edieresis" unicode="&#xeb;" horiz-adv-x="797" 
d="M340 420q107 34 162 124t55 216q0 102 -49 102q-48 0 -84 -50.5t-47 -129.5zM375 -14q-124 0 -214.5 105.5t-90.5 260.5q0 213 139.5 380t327.5 167q119 0 185 -51t66 -133q0 -237 -454 -336q-33 -235 -33 -262q0 -43 21.5 -68.5t58.5 -25.5q225 0 309 272h33
q-83 -309 -348 -309zM559 1090q0 44 32 76t76 32q45 0 77 -32t32 -76q0 -45 -32 -77t-77 -32q-44 0 -76 32t-32 77zM204 1090q0 44 32.5 76t78.5 32q44 0 76.5 -32t32.5 -76q0 -45 -32.5 -77t-76.5 -32q-46 0 -78.5 32t-32.5 77z" />
    <glyph glyph-name="igrave" unicode="&#xec;" horiz-adv-x="477" 
d="M272 -12q-74 0 -126 49.5t-52 134.5q0 27 7 70l85 598h-86l6 34h132q114 0 194 17l-100 -709q-6 -30 -6 -63q0 -21 10 -35t24 -14q28 0 54.5 32.5t42.5 90.5h35q-59 -205 -220 -205zM135 1317h223l57 -346h-33z" />
    <glyph glyph-name="iacute" unicode="&#xed;" horiz-adv-x="477" 
d="M272 -12q-74 0 -126 49.5t-52 134.5q0 27 7 70l85 598h-86l6 34h132q114 0 194 17l-100 -709q-6 -30 -6 -63q0 -21 10 -35t24 -14q28 0 54.5 32.5t42.5 90.5h35q-59 -205 -220 -205zM582 1317l-342 -346h-35l154 346h223z" />
    <glyph glyph-name="icircumflex" unicode="&#xee;" horiz-adv-x="477" 
d="M272 -12q-74 0 -126 49.5t-52 134.5q0 27 7 70l85 598h-86l6 34h132q114 0 194 17l-100 -709q-6 -30 -6 -63q0 -21 10 -35t24 -14q28 0 54.5 32.5t42.5 90.5h35q-59 -205 -220 -205zM263 1292h184l141 -329h-30l-220 213l-280 -213h-31z" />
    <glyph glyph-name="idieresis" unicode="&#xef;" horiz-adv-x="477" 
d="M272 -12q-74 0 -126 49.5t-52 134.5q0 27 7 70l85 598h-86l6 34h132q114 0 194 17l-100 -709q-6 -30 -6 -63q0 -21 10 -35t24 -14q28 0 54.5 32.5t42.5 90.5h35q-59 -205 -220 -205zM395 1090q0 44 32 76t76 32q45 0 77 -32t32 -76q0 -45 -32 -77t-77 -32q-44 0 -76 32
t-32 77zM40 1090q0 44 32.5 76t78.5 32q44 0 76.5 -32t32.5 -76q0 -45 -32.5 -77t-76.5 -32q-46 0 -78.5 32t-32.5 77z" />
    <glyph glyph-name="eth" unicode="&#xf0;" horiz-adv-x="854" 
d="M545 1167l-217 -110l-13 24l215 109q-46 77 -131 123l4 30q103 -37 193 -120l209 108l12 -24l-201 -103q207 -208 207 -559q0 -192 -61.5 -342.5t-167 -233.5t-219.5 -83q-124 0 -214.5 105.5t-90.5 260.5q0 208 134.5 377.5t301.5 169.5q42 0 88 -16v28q0 162 -49 256z
M573 696q7 44 7 72q0 43 -20.5 68.5t-55.5 25.5q-49 0 -84.5 -54t-47 -153t-41.5 -294t-30 -244q0 -44 20.5 -69t55.5 -25q47 0 81 49.5t46 130.5z" />
    <glyph glyph-name="ntilde" unicode="&#xf1;" horiz-adv-x="874" 
d="M414 762q95 139 219 139q76 0 124 -49.5t48 -126.5q0 -19 -76 -543q-6 -30 -6 -63q0 -21 10.5 -35t24.5 -14q27 0 53.5 32.5t42.5 90.5h35q-58 -205 -219 -205q-75 0 -126.5 49.5t-51.5 134.5q0 25 77 569q3 16 3 29q0 49 -42 49q-35 0 -81.5 -56t-59.5 -158l-84 -605
h-237l118 840h-86l6 34h132q114 0 194 17zM223 956h-31q43 261 226 261q76 0 184 -82q74 -58 119 -58q80 0 114 140h31q-12 -129 -79 -196t-156 -67q-72 0 -177 80q-44 35 -68 48.5t-54 13.5q-68 0 -101 -115q-4 -14 -8 -25z" />
    <glyph glyph-name="ograve" unicode="&#xf2;" horiz-adv-x="854" 
d="M70 352q0 208 134.5 377.5t301.5 169.5q123 0 214 -105.5t91 -261.5q0 -208 -135 -377t-301 -169q-124 0 -214.5 105.5t-90.5 260.5zM573 696q7 44 7 72q0 43 -20.5 68.5t-55.5 25.5q-49 0 -84.5 -54t-47 -153t-41.5 -294t-30 -244q0 -44 20.5 -69t55.5 -25q47 0 81 49.5
t46 130.5zM328 1317h223l57 -346h-33z" />
    <glyph glyph-name="oacute" unicode="&#xf3;" horiz-adv-x="854" 
d="M70 352q0 208 134.5 377.5t301.5 169.5q123 0 214 -105.5t91 -261.5q0 -208 -135 -377t-301 -169q-124 0 -214.5 105.5t-90.5 260.5zM573 696q7 44 7 72q0 43 -20.5 68.5t-55.5 25.5q-49 0 -84.5 -54t-47 -153t-41.5 -294t-30 -244q0 -44 20.5 -69t55.5 -25q47 0 81 49.5
t46 130.5zM774 1317l-342 -346h-35l154 346h223z" />
    <glyph glyph-name="ocircumflex" unicode="&#xf4;" horiz-adv-x="854" 
d="M70 352q0 208 134.5 377.5t301.5 169.5q123 0 214 -105.5t91 -261.5q0 -208 -135 -377t-301 -169q-124 0 -214.5 105.5t-90.5 260.5zM573 696q7 44 7 72q0 43 -20.5 68.5t-55.5 25.5q-49 0 -84.5 -54t-47 -153t-41.5 -294t-30 -244q0 -44 20.5 -69t55.5 -25q47 0 81 49.5
t46 130.5zM455 1292h184l141 -329h-30l-220 213l-280 -213h-31z" />
    <glyph glyph-name="otilde" unicode="&#xf5;" horiz-adv-x="854" 
d="M70 352q0 208 134.5 377.5t301.5 169.5q123 0 214 -105.5t91 -261.5q0 -208 -135 -377t-301 -169q-124 0 -214.5 105.5t-90.5 260.5zM573 696q7 44 7 72q0 43 -20.5 68.5t-55.5 25.5q-49 0 -84.5 -54t-47 -153t-41.5 -294t-30 -244q0 -44 20.5 -69t55.5 -25q47 0 81 49.5
t46 130.5zM213 956h-31q43 261 226 261q76 0 184 -82q74 -58 119 -58q80 0 114 140h31q-12 -129 -79 -196t-156 -67q-72 0 -177 80q-44 35 -68 48.5t-54 13.5q-68 0 -101 -115q-4 -14 -8 -25z" />
    <glyph glyph-name="odieresis" unicode="&#xf6;" horiz-adv-x="854" 
d="M70 352q0 208 134.5 377.5t301.5 169.5q123 0 214 -105.5t91 -261.5q0 -208 -135 -377t-301 -169q-124 0 -214.5 105.5t-90.5 260.5zM573 696q7 44 7 72q0 43 -20.5 68.5t-55.5 25.5q-49 0 -84.5 -54t-47 -153t-41.5 -294t-30 -244q0 -44 20.5 -69t55.5 -25q47 0 81 49.5
t46 130.5zM588 1090q0 44 32 76t76 32q45 0 77 -32t32 -76q0 -45 -32 -77t-77 -32q-44 0 -76 32t-32 77zM233 1090q0 44 32.5 76t78.5 32q44 0 76.5 -32t32.5 -76q0 -45 -32.5 -77t-76.5 -32q-46 0 -78.5 32t-32.5 77z" />
    <glyph glyph-name="divide" unicode="&#xf7;" horiz-adv-x="1366" 
d="M713 993q-35 0 -60.5 27t-25.5 63q0 33 25.5 56.5t60.5 23.5q33 0 57.5 -25t24.5 -59q0 -35 -24.5 -60.5t-57.5 -25.5zM170 725h1090v-127h-1090v127zM713 168q-35 0 -60.5 25t-25.5 59q0 35 25.5 60.5t60.5 25.5q34 0 59 -25t25 -59q0 -36 -24.5 -61t-59.5 -25z" />
    <glyph glyph-name="oslash" unicode="&#xf8;" horiz-adv-x="854" 
d="M117 154q-47 91 -47 198q0 208 134.5 377.5t301.5 169.5q143 0 237 -135l136 131l26 -25l-143 -139q49 -89 49 -199q0 -208 -135 -377t-301 -169q-143 0 -238 135l-135 -131l-27 24zM332 362l225 220q23 157 23 186q0 43 -20.5 68.5t-55.5 25.5q-47 0 -81.5 -50.5
t-45.5 -129.5zM549 522l-225 -219q-23 -158 -23 -186q0 -44 20.5 -69t55.5 -25q47 0 81.5 50.5t45.5 129.5z" />
    <glyph glyph-name="ugrave" unicode="&#xf9;" horiz-adv-x="874" 
d="M483 141q-91 -149 -227 -149q-79 0 -125.5 47.5t-46.5 126.5q0 18 92 674h-86l6 34h131q115 0 195 17l-96 -670q-11 -73 -11 -86q0 -53 54 -53q32 0 74 58.5t52 133.5l87 600h237l-100 -692q-6 -30 -6 -63q0 -21 10 -35t25 -14q27 0 53.5 32.5t42.5 90.5h35
q-58 -205 -220 -205q-65 0 -115 40t-61 113zM338 1317h223l57 -346h-33z" />
    <glyph glyph-name="uacute" unicode="&#xfa;" horiz-adv-x="874" 
d="M483 141q-91 -149 -227 -149q-79 0 -125.5 47.5t-46.5 126.5q0 18 92 674h-86l6 34h131q115 0 195 17l-96 -670q-11 -73 -11 -86q0 -53 54 -53q32 0 74 58.5t52 133.5l87 600h237l-100 -692q-6 -30 -6 -63q0 -21 10 -35t25 -14q27 0 53.5 32.5t42.5 90.5h35
q-58 -205 -220 -205q-65 0 -115 40t-61 113zM785 1317l-342 -346h-35l154 346h223z" />
    <glyph glyph-name="ucircumflex" unicode="&#xfb;" horiz-adv-x="874" 
d="M483 141q-91 -149 -227 -149q-79 0 -125.5 47.5t-46.5 126.5q0 18 92 674h-86l6 34h131q115 0 195 17l-96 -670q-11 -73 -11 -86q0 -53 54 -53q32 0 74 58.5t52 133.5l87 600h237l-100 -692q-6 -30 -6 -63q0 -21 10 -35t25 -14q27 0 53.5 32.5t42.5 90.5h35
q-58 -205 -220 -205q-65 0 -115 40t-61 113zM466 1292h184l141 -329h-30l-220 213l-280 -213h-31z" />
    <glyph glyph-name="udieresis" unicode="&#xfc;" horiz-adv-x="874" 
d="M483 141q-91 -149 -227 -149q-79 0 -125.5 47.5t-46.5 126.5q0 18 92 674h-86l6 34h131q115 0 195 17l-96 -670q-11 -73 -11 -86q0 -53 54 -53q32 0 74 58.5t52 133.5l87 600h237l-100 -692q-6 -30 -6 -63q0 -21 10 -35t25 -14q27 0 53.5 32.5t42.5 90.5h35
q-58 -205 -220 -205q-65 0 -115 40t-61 113zM598 1090q0 44 32 76t76 32q45 0 77 -32t32 -76q0 -45 -32 -77t-77 -32q-44 0 -76 32t-32 77zM243 1090q0 44 32.5 76t78.5 32q44 0 76.5 -32t32.5 -76q0 -45 -32.5 -77t-76.5 -32q-46 0 -78.5 32t-32.5 77z" />
    <glyph glyph-name="yacute" unicode="&#xfd;" horiz-adv-x="811" 
d="M506 371q92 324 149 426t144 102q44 0 74 -33.5t30 -83.5q0 -49 -29.5 -76.5t-70.5 -27.5q-33 0 -72 35q-23 20 -37 20q-22 0 -37 -26t-82 -250q-90 -298 -173 -483t-179 -295.5t-178 -110.5q-62 0 -102.5 37t-40.5 96q0 53 33.5 92t82.5 39q55 0 91 -39q42 -49 63 -49
q82 0 176 215l-153 735q-17 74 -30.5 98.5t-35.5 24.5q-58 0 -102 -123h-35q74 205 229 205q174 0 209 -166zM754 1317l-342 -346h-35l154 346h223z" />
    <glyph glyph-name="thorn" unicode="&#xfe;" horiz-adv-x="831" 
d="M238 1251h-86l6 35h131q114 0 194 17l-67 -478q76 74 157 74q90 0 155 -91t65 -224q0 -153 -60.5 -292.5t-151 -221.5t-200.5 -82q-48 0 -80 30l-55 -401h104l-6 -35h-426l6 35h84zM504 831q-37 0 -70 -39t-41 -109l-42 -308q-36 -239 -36 -271q0 -26 17 -44.5t45 -18.5
q30 0 55.5 30t39 79.5t49.5 306t36 278.5q0 96 -53 96z" />
    <glyph glyph-name="ydieresis" unicode="&#xff;" horiz-adv-x="811" 
d="M506 371q92 324 149 426t144 102q44 0 74 -33.5t30 -83.5q0 -49 -29.5 -76.5t-70.5 -27.5q-33 0 -72 35q-23 20 -37 20q-22 0 -37 -26t-82 -250q-90 -298 -173 -483t-179 -295.5t-178 -110.5q-62 0 -102.5 37t-40.5 96q0 53 33.5 92t82.5 39q55 0 91 -39q42 -49 63 -49
q82 0 176 215l-153 735q-17 74 -30.5 98.5t-35.5 24.5q-58 0 -102 -123h-35q74 205 229 205q174 0 209 -166zM567 1090q0 44 32 76t76 32q45 0 77 -32t32 -76q0 -45 -32 -77t-77 -32q-44 0 -76 32t-32 77zM212 1090q0 44 32.5 76t78.5 32q44 0 76.5 -32t32.5 -76
q0 -45 -32.5 -77t-76.5 -32q-46 0 -78.5 32t-32.5 77z" />
    <glyph glyph-name="dotlessi" unicode="&#x131;" horiz-adv-x="477" 
d="M272 -12q-74 0 -126 49.5t-52 134.5q0 27 7 70l85 598h-86l6 34h132q114 0 194 17l-100 -709q-6 -30 -6 -63q0 -21 10 -35t24 -14q28 0 54.5 32.5t42.5 90.5h35q-59 -205 -220 -205z" />
    <glyph glyph-name="Lslash" unicode="&#x141;" horiz-adv-x="705" 
d="M430 774l174 125v-45l-180 -129l-98 -690h36q93 0 167.5 85.5t109.5 241.5h35l-58 -362h-639l5 35h90l69 489l-94 -67v45l100 71l99 695h-88l4 35h434l-4 -35h-92z" />
    <glyph glyph-name="lslash" unicode="&#x142;" horiz-adv-x="477" 
d="M272 -12q-74 0 -126 49.5t-52 134.5q0 24 4 53l43 303l-86 -61v45l92 66l97 673h-86l6 35h131q114 0 194 17l-75 -535l100 72v-45l-106 -76l-76 -537q-6 -30 -6 -63q0 -21 10 -35t24 -14q28 0 54.5 32.5t42.5 90.5h35q-59 -205 -220 -205z" />
    <glyph glyph-name="OE" unicode="&#x152;" horiz-adv-x="1130" 
d="M575 1303h654l-43 -314h-35q0 279 -174 279h-76l-78 -559h45q160 0 172 184h35l-59 -420h-35q10 57 10 80q0 119 -121 119h-53l-90 -637h66q180 0 284 325h33l-51 -360h-670q-135 0 -223 126.5t-88 334.5q0 222 71.5 418t188.5 310t237 114zM567 1268q-45 0 -80 -48.5
t-47 -129.5l-129 -922q-4 -25 -4 -43q0 -90 90 -90h78l174 1233h-82z" />
    <glyph glyph-name="oe" unicode="&#x153;" horiz-adv-x="1237" 
d="M780 420q108 34 162.5 124t54.5 216q0 102 -49 102q-48 0 -84 -50.5t-47 -129.5zM206.5 729.5q136.5 169.5 303.5 169.5q129 0 205 -117q111 117 262 117q119 0 185.5 -51t66.5 -133q0 -237 -455 -336q-33 -235 -33 -262q0 -43 22 -68.5t58 -25.5q226 0 309 272h33
q-83 -309 -348 -309q-120 0 -209 100q-104 -100 -227 -100q-124 0 -216.5 105.5t-92.5 260.5q0 208 136.5 377.5zM582 696q6 44 6 72q0 42 -22.5 68t-57.5 26q-50 0 -87 -54.5t-48.5 -153t-41.5 -293.5t-30 -244q0 -43 22 -68.5t58 -25.5q48 0 84 50t47 130z" />
    <glyph glyph-name="Scaron" unicode="&#x160;" 
d="M72 406h34q7 -203 79.5 -295.5t176.5 -92.5q86 0 144.5 66t58.5 164q0 49 -25 99t-62 90t-179 169q-162 146 -162 320q0 172 108.5 282.5t252.5 110.5q73 0 153 -45q42 -23 58 -23q21 0 36 16.5t15 28.5v7h33l-50 -357h-34q-5 158 -61.5 248t-137.5 90
q-79 0 -131.5 -57.5t-52.5 -153.5q0 -127 133 -242q151 -130 192.5 -177t72 -116t30.5 -139q0 -187 -113.5 -301t-284.5 -114q-97 0 -176 59q-39 29 -59 29q-51 0 -68 -72h-39zM421 1396l-142 330h31l219 -213l281 213h30l-235 -330h-184z" />
    <glyph glyph-name="scaron" unicode="&#x161;" horiz-adv-x="618" 
d="M266 -14q-103 0 -170 50.5t-67 115.5q0 55 29.5 91t70.5 36q38 0 61 -24.5t23 -59.5q0 -52 -29.5 -84.5t-29.5 -38.5q0 -15 33 -33.5t89 -18.5q50 0 91 39.5t41 90.5q0 59 -27 103.5t-119 111.5q-88 63 -124 123.5t-36 142.5q0 113 83 190.5t192 77.5q107 0 174 -47.5
t67 -112.5q0 -55 -29.5 -91t-70.5 -36q-38 0 -61 24.5t-23 59.5q0 53 30 83.5t30 39.5q0 16 -28.5 29.5t-84.5 13.5q-54 0 -88.5 -34.5t-34.5 -86.5q0 -45 23.5 -77.5t103.5 -90.5q104 -75 146 -144t42 -169q0 -117 -93.5 -195.5t-213.5 -78.5zM294 981l-142 330h31
l219 -213l281 213h30l-235 -330h-184z" />
    <glyph glyph-name="Ydieresis" unicode="&#x178;" horiz-adv-x="938" 
d="M158 1303h446l-4 -35h-96l125 -617h4l176 371q81 171 85.5 185t4.5 28q0 33 -41 33h-35l4 35h222l-5 -35q-24 0 -43 -5q-19 -6 -34 -17q-15 -12 -28 -31q-9 -14 -41 -81l-208 -440q-47 -98 -75 -299l-52 -362h94l-4 -33h-440l4 33h92l78 557l-139 678h-94zM725 1506
q0 44 32 76t76 32q45 0 77 -32t32 -76q0 -45 -32 -77t-77 -32q-44 0 -76 32t-32 77zM370 1506q0 44 32.5 76t78.5 32q44 0 76.5 -32t32.5 -76q0 -45 -32.5 -77t-76.5 -32q-46 0 -78.5 32t-32.5 77z" />
    <glyph glyph-name="Zcaron" unicode="&#x17d;" horiz-adv-x="748" 
d="M193 1303h659l-4 -35l-594 -1233h65q243 0 371 368h37l-72 -403h-675l4 35l594 1233h-86q-226 0 -314 -340h-37zM415 1396l-142 330h31l219 -213l281 213h30l-235 -330h-184z" />
    <glyph glyph-name="zcaron" unicode="&#x17e;" horiz-adv-x="705" 
d="M76 569l157 330q66 -30 167.5 -54t158.5 -24q39 0 50.5 7.5t11.5 23.5q0 47 45 47q41 0 41 -35q0 -60 -81 -152l-427 -483l4 -4q32 17 80 17q70 0 200 -64q29 -14 58 -14q40 0 62 20t22 43q0 25 -39 29t-63.5 26.5t-24.5 59.5q0 45 25.5 69.5t62.5 24.5q86 0 86 -143
q0 -127 -92 -222.5t-195 -95.5q-63 0 -143 52q-69 45 -125 45q-23 0 -23 -15q0 -4 4 -15q2 -8 2 -11q0 -56 -55 -56q-22 0 -36.5 16t-14.5 40q0 46 65 119l445 499l-4 4q-85 -12 -187 -12q-68 0 -151 21l-47 -93h-39zM337 981l-142 330h31l219 -213l281 213h30l-235 -330
h-184z" />
    <glyph glyph-name="florin" unicode="&#x192;" horiz-adv-x="1024" 
d="M721 784l-107 -527q-51 -252 -92.5 -374t-96 -187.5t-124.5 -101.5t-139 -36q-63 0 -107.5 33.5t-44.5 80.5q0 42 29.5 71.5t71.5 29.5q43 0 68.5 -21.5t25.5 -56.5q0 -13 -9 -39q-3 -12 -3 -14q0 -8 8 -15.5t18 -7.5q36 0 57 34t21 95l-8 195q0 98 16 181l133 660h-141
l25 121q109 0 155.5 45.5t95.5 182.5q50 133 121 194.5t178 61.5q74 0 118 -35.5t44 -91.5q0 -51 -30.5 -84t-77.5 -33q-35 0 -60.5 24.5t-25.5 57.5q0 14 9 36l20 48q1 5 1 6q0 24 -26 24q-41 0 -67.5 -39t-26.5 -100l8 -178q0 -46 -13 -119h154l-25 -121h-153z" />
    <glyph glyph-name="circumflex" unicode="&#x2c6;" horiz-adv-x="682" 
d="M369 1292h184l141 -329h-30l-220 213l-280 -213h-31z" />
    <glyph glyph-name="caron" unicode="&#x2c7;" horiz-adv-x="682" 
d="M324 981l-142 330h31l219 -213l281 213h30l-235 -330h-184z" />
    <glyph glyph-name="macron" unicode="&#x2c9;" horiz-adv-x="682" 
d="M123 1147h637l-19 -129h-637z" />
    <glyph glyph-name="breve" unicode="&#x2d8;" horiz-adv-x="682" 
d="M168 1260h31q44 -127 239 -127q210 0 273 129h32q-30 -129 -121.5 -205t-205.5 -76q-113 0 -180.5 76t-67.5 203z" />
    <glyph glyph-name="dotaccent" unicode="&#x2d9;" horiz-adv-x="682" 
d="M324 1081q0 45 31.5 77t76.5 32q44 0 76.5 -32t32.5 -77q0 -44 -32.5 -76t-76.5 -32q-45 0 -76.5 32t-31.5 76z" />
    <glyph glyph-name="ring" unicode="&#x2da;" horiz-adv-x="682" 
d="M252 1165q0 80 56.5 136.5t135.5 56.5t135 -56.5t56 -136.5q0 -78 -56 -134t-135 -56t-135.5 56t-56.5 134zM565 1165q0 51 -35 87t-86 36q-50 0 -86 -36t-36 -87q0 -49 36 -85t86 -36t85.5 36t35.5 85z" />
    <glyph glyph-name="ogonek" unicode="&#x2db;" horiz-adv-x="682" 
d="M170 16h51q-43 -65 -43 -110q0 -84 49.5 -134.5t139.5 -50.5q53 0 122 23l17 -31q-139 -75 -238 -75q-98 0 -153.5 49.5t-55.5 134.5q0 44 31.5 99t79.5 95z" />
    <glyph glyph-name="tilde" unicode="&#x2dc;" horiz-adv-x="682" 
d="M127 956h-31q43 261 226 261q76 0 184 -82q74 -58 119 -58q80 0 114 140h31q-12 -129 -79 -196t-156 -67q-72 0 -177 80q-44 35 -68 48.5t-54 13.5q-68 0 -101 -115q-4 -14 -8 -25z" />
    <glyph glyph-name="hungarumlaut" unicode="&#x2dd;" horiz-adv-x="682" 
d="M580 1317h186l-264 -346h-35zM267 1317h186l-264 -346h-35z" />
    <glyph glyph-name="pi1" unicode="&#x3c0;" horiz-adv-x="1124" 
d="M1085 309q-5 -155 -75.5 -248.5t-167.5 -93.5q-79 0 -138.5 91.5t-59.5 281.5q0 42 2 80t5 72l35 329h-231q-60 -624 -98.5 -742.5t-130.5 -118.5q-39 0 -74 31t-35 82q0 46 72.5 128.5t80.5 150.5l60 469h-97q-40 0 -78.5 -19.5t-56.5 -45.5l-43 -64h-35
q49 152 120.5 228.5t164.5 76.5h764v-176h-258q-12 -120 -18.5 -240t-6.5 -241q0 -82 38 -133t95 -51q35 0 73.5 28.5t43.5 74.5q3 22 4.5 34.5t1.5 15.5h43z" />
    <glyph glyph-name="endash" unicode="&#x2013;" horiz-adv-x="1024" 
d="M0 604h1044v-182h-1044v182z" />
    <glyph glyph-name="emdash" unicode="&#x2014;" horiz-adv-x="2048" 
d="M0 604h2066v-182h-2066v182z" />
    <glyph glyph-name="quoteleft" unicode="&#x2018;" horiz-adv-x="406" 
d="M410 1315l12 -33q-113 -64 -177.5 -147t-64.5 -144q0 -28 21 -28q8 0 22 14q38 41 99 41q52 0 82 -35t30 -94q0 -69 -48.5 -119.5t-119.5 -50.5q-67 0 -105 49.5t-38 128.5q0 110 68.5 221.5t218.5 196.5z" />
    <glyph glyph-name="quoteright" unicode="&#x2019;" horiz-adv-x="406" 
d="M178 719l-12 33q114 65 178 147t64 143q0 29 -21 29q-8 0 -22 -14q-38 -41 -99 -41q-52 0 -82 34.5t-30 94.5q0 68 48.5 119t119.5 51q66 0 104.5 -49.5t38.5 -128.5q0 -110 -68.5 -222t-218.5 -196z" />
    <glyph glyph-name="quotesinglbase" unicode="&#x201a;" horiz-adv-x="406" 
d="M51 -311l-12 32q114 66 178 148t64 143q0 29 -21 29q-8 0 -22 -14q-38 -41 -99 -41q-52 0 -82 34.5t-30 94.5q0 68 48.5 119t119.5 51q67 0 105 -49.5t38 -129.5q0 -110 -68.5 -221.5t-218.5 -195.5z" />
    <glyph glyph-name="quotedblleft" unicode="&#x201c;" 
d="M793 1315l12 -33q-114 -64 -178 -147t-64 -144q0 -28 21 -28q8 0 22 14q38 41 99 41q52 0 82 -35t30 -94q0 -69 -48.5 -119.5t-119.5 -50.5q-67 0 -105 49.5t-38 128.5q0 110 68.5 221.5t218.5 196.5zM410 1315l12 -33q-113 -64 -177.5 -147t-64.5 -144q0 -28 21 -28
q8 0 22 14q38 41 99 41q52 0 82 -35t30 -94q0 -69 -48.5 -119.5t-119.5 -50.5q-67 0 -105 49.5t-38 128.5q0 110 68.5 221.5t218.5 196.5z" />
    <glyph glyph-name="quotedblright" unicode="&#x201d;" 
d="M561 719l-12 33q113 63 177.5 146.5t64.5 143.5q0 29 -21 29q-8 0 -22 -14q-38 -41 -99 -41q-52 0 -82 34.5t-30 94.5q0 68 48.5 119t119.5 51q66 0 104.5 -49.5t38.5 -128.5q0 -110 -68.5 -222t-218.5 -196zM178 719l-12 33q114 65 178 147t64 143q0 29 -21 29
q-8 0 -22 -14q-38 -41 -99 -41q-52 0 -82 34.5t-30 94.5q0 68 48.5 119t119.5 51q66 0 104.5 -49.5t38.5 -128.5q0 -110 -68.5 -222t-218.5 -196z" />
    <glyph glyph-name="quotedblbase" unicode="&#x201e;" 
d="M434 -311l-12 32q113 64 177.5 147.5t64.5 143.5q0 29 -21 29q-8 0 -22 -14q-38 -41 -99 -41q-52 0 -82 34.5t-30 94.5q0 68 48 119t120 51q66 0 104.5 -49.5t38.5 -129.5q0 -110 -68.5 -221.5t-218.5 -195.5zM51 -311l-12 32q114 66 178 148t64 143q0 29 -21 29
q-8 0 -22 -14q-38 -41 -99 -41q-52 0 -82 34.5t-30 94.5q0 68 48.5 119t119.5 51q67 0 105 -49.5t38 -129.5q0 -110 -68.5 -221.5t-218.5 -195.5z" />
    <glyph glyph-name="dagger" unicode="&#x2020;" horiz-adv-x="811" 
d="M299 -526h-37q62 440 62 669q0 126 -23 275q102 108 141 336q-44 -2 -71 -11t-80 -38q-72 -41 -119 -41q-43 0 -68.5 27t-25.5 73q0 48 38.5 83.5t88.5 35.5q42 0 98 -39q81 -54 143 -56q7 44 7 95q0 56 -25 157q-22 98 -22 129q0 61 35.5 102.5t90.5 41.5
q103 0 103 -107q0 -50 -57 -155q-81 -148 -95 -260q69 2 156 51q67 39 109 39q43 0 67.5 -29.5t24.5 -79.5q0 -40 -36.5 -73t-78.5 -33q-49 0 -107 39q-52 34 -78 41t-61 8q-8 -57 -8 -136q0 -124 51 -196q-130 -296 -209 -848z" />
    <glyph glyph-name="daggerdbl" unicode="&#x2021;" horiz-adv-x="811" 
d="M356 -68q43 2 69.5 11t78.5 39q71 41 119 41q43 0 68.5 -27.5t25.5 -73.5q0 -48 -38.5 -83.5t-88.5 -35.5q-43 0 -98 39q-81 54 -142 56l-2 -33q0 -43 29 -158q22 -93 22 -115q0 -55 -36 -88.5t-93 -33.5q-38 0 -65 25t-27 65q0 52 66 164q58 101 69 174q-69 -3 -157 -54
q-68 -39 -109 -39q-43 0 -67.5 30t-24.5 79q0 40 36 73t79 33q49 0 106 -38q45 -30 74 -39t69 -11q3 12 3 39q0 83 -66 162q135 134 135 320q0 101 -61 202q99 94 119 197q-43 -2 -70 -11t-78 -38q-72 -41 -119 -41q-43 0 -68.5 27.5t-25.5 72.5q0 49 38.5 84t88.5 35
q42 0 98 -39q81 -54 142 -55l2 33q0 43 -29 157q-22 93 -22 115q0 57 36.5 90t92.5 33q38 0 65 -25t27 -65q0 -53 -66 -164q-58 -101 -69 -174q69 3 157 53q68 39 109 39q43 0 67.5 -29.5t24.5 -79.5q0 -40 -36.5 -73t-78.5 -33q-49 0 -106 39q-45 29 -74 38.5t-70 10.5
q-2 -12 -2 -39q0 -81 64 -158q-127 -145 -127 -317q0 -113 55 -203q-97 -95 -119 -203z" />
    <glyph glyph-name="bullet" unicode="&#x2022;" horiz-adv-x="717" 
d="M104 676q0 118 83.5 202.5t199.5 84.5q119 0 203 -84.5t84 -202.5t-83.5 -202.5t-201.5 -84.5q-117 0 -201 84.5t-84 202.5z" />
    <glyph glyph-name="ellipsis" unicode="&#x2026;" horiz-adv-x="2048" 
d="M1511 135q0 61 44.5 105.5t105.5 44.5q62 0 105.5 -44t43.5 -106q0 -61 -43.5 -105t-105.5 -44t-106 43.5t-44 105.5zM829 135q0 61 44.5 105.5t105.5 44.5q62 0 105.5 -44t43.5 -106t-43 -105.5t-106 -43.5q-62 0 -106 43.5t-44 105.5zM147 135q0 62 44.5 106t105.5 44
q62 0 105.5 -44t43.5 -106q0 -61 -43.5 -105t-105.5 -44t-106 43.5t-44 105.5z" />
    <glyph glyph-name="perthousand" unicode="&#x2030;" horiz-adv-x="1962" 
d="M455 1319q88 0 153.5 -76t65.5 -188q0 -152 -98 -284t-216 -132q-88 0 -153.5 76t-65.5 188q0 152 98 284t216 132zM494 1174q4 30 4 51q0 57 -45 57q-32 0 -53.5 -34t-29.5 -100l-30 -225q-23 -159 -23 -190q0 -57 45 -57q65 0 80 117zM1151 1319h43l-932 -1348h-43z
M1686 653q88 0 153.5 -75.5t65.5 -188.5q0 -152 -98 -284t-216 -132q-88 0 -153.5 76t-65.5 189q0 152 97.5 283.5t216.5 131.5zM1724 508q5 30 5 51q0 57 -46 57q-31 0 -52.5 -33.5t-29.5 -100.5l-30 -225q-23 -159 -23 -189q0 -58 45 -58q65 0 80 117zM1055 653
q88 0 153.5 -75.5t65.5 -188.5q0 -152 -97.5 -284t-215.5 -132q-89 0 -154.5 76t-65.5 189q0 152 98 283.5t216 131.5zM1094 508q4 30 4 51q0 57 -45 57q-32 0 -53.5 -33.5t-29.5 -100.5l-30 -225q-22 -159 -22 -189q0 -58 45 -58q64 0 79 117z" />
    <glyph glyph-name="guilsinglleft" unicode="&#x2039;" horiz-adv-x="299" 
d="M197 748h147l-186 -367l73 -338h-137l-78 352z" />
    <glyph glyph-name="guilsinglright" unicode="&#x203a;" horiz-adv-x="299" 
d="M111 43h-148l187 367l-74 338h137l78 -353z" />
    <glyph glyph-name="fraction" unicode="&#x2044;" horiz-adv-x="256" 
d="M725 1319l-985 -1350h-115l985 1350h115z" />
    <glyph glyph-name="fraction" unicode="&#x2215;" horiz-adv-x="256" 
d="M725 1319l-985 -1350h-115l985 1350h115z" />
    <glyph glyph-name="Euro" unicode="&#x20ac;" 
d="M600 633l-25 -37h-133l-51 -356q-6 -42 -6 -84q0 -138 80 -138q53 0 103 36.5t50 86.5q0 28 -28 59q-31 34 -31 66q0 39 27 64.5t63 25.5q34 0 54 -23.5t20 -62.5q0 -97 -79 -191.5t-187 -94.5q-131 0 -204 116.5t-73 323.5q0 73 10 172h-86l25 37h66q7 48 14 76h-88
l24 36h70q43 231 157.5 401.5t276.5 170.5q83 0 132.5 -49.5t49.5 -128.5q0 -69 -26.5 -104.5t-69.5 -35.5q-33 0 -52 20.5t-19 51.5q0 37 47 77q43 36 43 66q0 29 -31 48.5t-74 19.5q-61 0 -94.5 -65t-50.5 -184l-41 -288h153l-24 -36h-133l-13 -76h154z" />
    <glyph glyph-name="trademark" unicode="&#x2122;" horiz-adv-x="2048" 
d="M915 1356h367l231 -496l230 496h346v-37h-4q-51 0 -69 -16t-22.5 -33.5t-4.5 -85.5v-471q0 -61 6.5 -80.5t29 -33t64.5 -15.5v-35h-461v35q77 0 96 23.5t19 105.5v506h-4l-316 -670h-24l-314 670h-4v-504q0 -76 7 -89.5t26.5 -27.5t81.5 -14v-35h-281v35q72 3 90.5 24
t18.5 111v467q0 87 -20 110t-72 23h-17v37zM29 1356h776v-226h-35q-5 93 -47 134t-148 41h-33v-588q0 -91 19.5 -112t82.5 -21v-35h-455v35q74 4 88.5 23.5t14.5 113.5v584h-36q-99 0 -143.5 -41.5t-53.5 -133.5h-30v226z" />
    <glyph glyph-name="Ohm" unicode="&#x2126;" horiz-adv-x="1573" 
d="M1506 0h-604l33 311q161 59 226 200t65 313q0 227 -107 373t-331 146t-331 -146t-107 -373q0 -172 65 -313t226 -200l33 -311h-604v332h30q16 -66 40 -95.5t96 -29.5h323l-4 57q-238 65 -341 221t-103 332q0 259 192 425.5t485 166.5t485 -166.5t192 -425.5
q0 -176 -103 -332t-341 -221l-4 -57h323q72 0 96 29.5t40 95.5h30v-332z" />
    <glyph glyph-name="partialdiff" unicode="&#x2202;" horiz-adv-x="1012" 
d="M295 1120h-45q131 303 379 303q161 0 263.5 -127t102.5 -376q0 -358 -164.5 -654.5t-427.5 -296.5q-155 0 -246 91t-91 245q0 239 166.5 420.5t383.5 181.5q222 0 312 -190h4q10 144 10 186q0 175 -92.5 276t-253.5 101q-194 0 -301 -160zM911 629q-81 225 -284 225
q-178 0 -286 -190.5t-108 -399.5q0 -108 54 -172.5t143 -64.5q136 0 279.5 162.5t201.5 439.5z" />
    <glyph glyph-name="increment" unicode="&#x2206;" horiz-adv-x="1253" 
d="M668 1409l577 -1409h-1233zM594 1059l-447 -959h844z" />
    <glyph glyph-name="product" unicode="&#x220f;" horiz-adv-x="1686" 
d="M1645 -207h-629v47q120 0 159.5 41t39.5 125v1419h-734v-1419q0 -84 39.5 -125t159.5 -41v-47h-629v47q122 0 160.5 41t38.5 125v1282q0 101 -48.5 152t-146.5 51v47h1586v-47q-98 0 -146.5 -51t-48.5 -152v-1282q0 -84 38.5 -125t160.5 -41v-47z" />
    <glyph glyph-name="summation" unicode="&#x2211;" horiz-adv-x="1460" 
d="M1423 238q-32 -125 -54 -240t-34 -219q-63 11 -102.5 16.5t-54.5 5.5h-1031q-20 0 -59 -3t-59 -3l714 815l-710 930q70 -7 123 -10.5t90 -3.5h1018l12 -326h-41q-31 102 -52.5 141t-81.5 66q-30 13 -74.5 20t-104.5 7h-539l559 -734l-602 -694h760q127 0 177.5 52
t98.5 180h47z" />
    <glyph glyph-name="minus" unicode="&#x2212;" horiz-adv-x="1366" 
d="M170 729h1087v-131h-1087v131z" />
    <glyph glyph-name="periodcentered" unicode="&#x2219;" horiz-adv-x="512" 
d="M152 694q0 61 44 105.5t105 44.5q62 0 106 -44t44 -106q0 -61 -44 -105t-106 -44t-105.5 43.5t-43.5 105.5z" />
    <glyph glyph-name="radical" unicode="&#x221a;" horiz-adv-x="1124" 
d="M1055 1868l-307 -1946l-498 1028l-197 -96l-33 68l299 147l404 -825l260 1634z" />
    <glyph glyph-name="infinity" unicode="&#x221e;" horiz-adv-x="1460" 
d="M653 668q71 169 159 222.5t212 53.5q161 0 272 -116.5t111 -301.5q0 -186 -111.5 -303t-238.5 -117q-95 0 -170.5 63t-165.5 224q-117 -233 -324 -233q-149 0 -246.5 104.5t-97.5 263.5q0 157 89 262t218 105q80 0 149 -42t144 -185zM750 465q64 -138 134.5 -201
t176.5 -63q126 0 207.5 91t81.5 234q0 140 -84 240t-199 100q-55 0 -97.5 -21.5t-74.5 -62t-64 -116.5zM614 557l11 33q-96 215 -267 215q-110 0 -179.5 -76.5t-69.5 -198.5q0 -123 66.5 -207.5t162.5 -84.5q82 0 149.5 65t126.5 254z" />
    <glyph glyph-name="integral" unicode="&#x222b;" horiz-adv-x="561" 
d="M602 1760q0 -39 -29.5 -64t-75.5 -25q-37 0 -60 25t-44 25q-18 0 -27.5 -14.5t-9.5 -43.5q0 -34 19.5 -256t19.5 -551q0 -505 -30 -709.5t-79 -282.5q-26 -41 -67.5 -62t-85.5 -21q-49 0 -86 35t-37 85q0 38 25.5 65t64.5 27q34 0 65.5 -33t44.5 -33q25 0 39.5 44.5
t14.5 153.5q0 37 -6 197t-6 562q0 481 17 638.5t41 215.5q29 70 69 104t84 34q57 0 98 -32.5t41 -83.5z" />
    <glyph glyph-name="approxequal" unicode="&#x2248;" horiz-adv-x="1124" 
d="M1022 874h51q-21 -155 -95.5 -238t-186.5 -83q-97 0 -304 117q-139 78 -211 78q-149 0 -178 -187h-47q20 154 93.5 238t181.5 84q47 0 107 -19.5t224 -107.5q118 -62 193 -62q144 0 172 180zM1022 487h51q-21 -155 -95.5 -238t-186.5 -83q-96 0 -268.5 97t-246.5 97
q-149 0 -178 -186h-47q20 153 93.5 236.5t181.5 83.5q47 0 112 -21.5t219 -103.5q118 -62 193 -62q144 0 172 180z" />
    <glyph glyph-name="notequal" unicode="&#x2260;" horiz-adv-x="1124" 
d="M1106 279h-621l-184 -330l-100 57l151 273h-321v112h385l157 285h-542v112h606l186 336l101 -57l-156 -279h338v-112h-399l-160 -285h559v-112z" />
    <glyph glyph-name="lessequal" unicode="&#x2264;" horiz-adv-x="1124" 
d="M1077 240l-1018 471v127l1018 471v-127l-887 -408l887 -407v-127zM1077 0h-1018v112h1018v-112z" />
    <glyph glyph-name="greaterequal" unicode="&#x2265;" horiz-adv-x="1124" 
d="M1077 711l-1018 -471v127l887 407l-887 408v127l1018 -471v-127zM1077 0h-1018v112h1018v-112z" />
    <glyph glyph-name="lozenge" unicode="&#x25ca;" horiz-adv-x="1012" 
d="M962 763l-397 -763h-122l-397 763l397 763h122zM839 763l-335 652l-335 -652l335 -652z" />
    <glyph glyph-name="fi" unicode="&#xfb01;" horiz-adv-x="874" 
d="M426 840l-95 -671q-26 -181 -88 -319t-142 -210t-167 -72q-78 0 -128 43t-50 106q0 62 34 102t79 40q41 0 66.5 -28t25.5 -67q0 -34 -17 -66t-32.5 -45t-15.5 -26q0 -20 45 -20q59 0 98 59.5t39 138.5l-6 168q0 58 32 293l80 574h-92l6 34h90q29 219 156 331t266 112
q105 0 170.5 -50.5t65.5 -117.5q0 -56 -35 -91.5t-90 -35.5q-45 0 -75 30t-30 68q0 60 50 103q16 13 16 30q0 11 -20 18t-46 7q-54 0 -102.5 -69t-83.5 -335h213q114 0 195 17l-101 -709q-6 -30 -6 -63q0 -21 10.5 -35t24.5 -14q27 0 53.5 32.5t42.5 90.5h35
q-58 -205 -219 -205q-75 0 -126.5 49.5t-51.5 134.5q0 27 6 70l86 598h-166z" />
    <glyph glyph-name="fl" unicode="&#xfb02;" horiz-adv-x="874" 
d="M426 840l-95 -671q-26 -181 -88 -319t-142 -210t-167 -72q-78 0 -128 43t-50 106q0 62 34 102t79 40q41 0 66.5 -28t25.5 -67q0 -34 -17 -66t-32.5 -45t-15.5 -26q0 -20 45 -20q59 0 98 59.5t39 138.5l-6 168q0 74 32 293l80 574h-92l6 34h90q29 218 154 330.5t260 112.5
q27 0 51.5 -4t44.5 -11l39 -16q77 0 158 17l-158 -1121q-6 -30 -6 -63q0 -21 10.5 -35t24.5 -14q27 0 53.5 32.5t42.5 90.5h35q-58 -205 -219 -205q-75 0 -126.5 49.5t-51.5 134.5q0 24 4 53l119 836q-25 31 -25 69q0 52 35 95q16 20 16 30q0 23 -41 23q-48 0 -95.5 -70.5
t-82.5 -333.5h92l-6 -34h-90z" />
    <glyph glyph-name="apple" horiz-adv-x="717" 
d="M104 676q0 118 83.5 202.5t199.5 84.5q119 0 203 -84.5t84 -202.5t-83.5 -202.5t-201.5 -84.5q-117 0 -201 84.5t-84 202.5z" />
    <glyph glyph-name="foursuperior" horiz-adv-x="682" 
d="M596 1309h88l-86 -609h68l10 72h35l-25 -176h-35l11 72h-68l-25 -172h84l-4 -37h-350l4 35h82l25 176h-226l4 32zM461 1049l-232 -349h187l49 349h-4z" />
    </font>
</defs>
</svg>
