<?xml version="1.0" standalone="no"?>
<!DOCTYPE svg PUBLIC "-//W3C//DTD SVG 1.1//EN" "http://www.w3.org/Graphics/SVG/1.1/DTD/svg11.dtd" >
<svg xmlns="http://www.w3.org/2000/svg" xmlns:xlink="http://www.w3.org/1999/xlink" version="1.1">
<metadata>
Created by FontForge 20170731 at Wed Nov 27 13:55:18 2002
 By Aleksey,,,
Digitized data copyright Monotype Typography, Ltd 1999. All rights reserved. Monotype Bodoni is a trademark of Monotype Typography, Ltd which may be registered in certain jurisdictions.
</metadata>
<defs>
<font id="BodoniMTBlack-Italic" horiz-adv-x="1430" >
  <font-face 
    font-family="Bodoni MT Black"
    font-weight="900"
    font-style="italic"
    font-stretch="normal"
    units-per-em="2048"
    panose-1="2 7 10 3 8 6 6 9 2 3"
    ascent="1638"
    descent="-410"
    x-height="852"
    cap-height="1341"
    bbox="-512 -504 2834 1878"
    underline-thickness="102"
    underline-position="-307"
    slope="-12"
    unicode-range="U+0020-FB02"
  />
<missing-glyph horiz-adv-x="2048" 
d="M256 0v1536h1536v-1536h-1536zM384 128h1280v1280h-1280v-1280z" />
    <glyph glyph-name=".notdef" horiz-adv-x="2048" 
d="M256 0v1536h1536v-1536h-1536zM384 128h1280v1280h-1280v-1280z" />
    <glyph glyph-name=".null" horiz-adv-x="0" 
 />
    <glyph glyph-name="nonmarkingreturn" horiz-adv-x="705" 
 />
    <glyph glyph-name="space" unicode=" " horiz-adv-x="705" 
 />
    <glyph glyph-name="exclam" unicode="!" horiz-adv-x="768" 
d="M369 387v700q0 112 20 165.5t82 92.5t152 39q83 0 133.5 -39.5t50.5 -103.5q0 -70 -47 -166l-338 -688h-53zM342 344q105 0 177.5 -51.5t72.5 -122.5q0 -77 -77.5 -132.5t-188.5 -55.5q-107 0 -177.5 50.5t-70.5 125.5q0 77 76.5 131.5t187.5 54.5z" />
    <glyph glyph-name="quotedbl" unicode="&#x22;" horiz-adv-x="944" 
d="M834 780q-107 349 -114.5 392.5t-7.5 72.5q0 61 43.5 100t111.5 39q66 0 105 -40t39 -109q0 -43 -23 -118l-100 -337h-54zM419 780q-105 338 -114 389t-9 76q0 61 44 100t111 39q66 0 105 -40t39 -109q0 -35 -21 -105l-102 -350h-53z" />
    <glyph glyph-name="numbersign" unicode="#" horiz-adv-x="1368" 
d="M1376 328h-299l-80 -371h-217l82 371h-332l-77 -371h-217l79 371h-159v215h204l56 276h-260v215h301l84 375h215l-82 -375h327l80 375h217l-81 -375h159v-215h-200l-58 -276h258v-215zM961 819h-330l-56 -274h328z" />
    <glyph glyph-name="dollar" unicode="$" 
d="M1087 1352q179 -35 278 -111.5t99 -173.5q0 -80 -56.5 -136.5t-137.5 -56.5q-80 0 -136.5 58t-56.5 139q0 70 42 122.5t118 68.5q-78 38 -164 51l-127 -398q281 -196 334 -273t53 -163q0 -182 -171.5 -333t-520.5 -164l-55 -168h-56l56 163q-27 -2 -74 -2q-28 0 -45 2
l-55 -163h-52l56 172q-189 28 -298.5 112.5t-109.5 188.5q0 76 57 132t136 56q80 0 136 -57t56 -139q0 -143 -162 -189q106 -52 199 -63l160 495q-257 170 -309 249t-52 155q0 168 168.5 297t464.5 143l37 109h53l-37 -109h7q42 0 110 -8l39 117h55zM1018 1315l-51 2h-19
q-27 0 -49 -2l-98 -307l98 -62zM848 1315q-99 -10 -152 -45t-53 -86q0 -67 115 -148zM729 426l-94 70l-156 -476h33q57 0 88 5zM657 31q123 16 187.5 66t64.5 126q0 84 -133 170z" />
    <glyph glyph-name="percent" unicode="%" horiz-adv-x="1749" 
d="M647 1358q165 0 241.5 -89t76.5 -198q0 -224 -150.5 -387.5t-355.5 -163.5q-128 0 -208.5 77.5t-80.5 199.5q0 222 145 391.5t332 169.5zM459 561q29 0 43.5 20t32.5 74l180 559q14 36 14 58q0 17 -13 29t-32 12q-40 0 -57.5 -62.5t-113 -343.5t-95.5 -307q0 -39 41 -39z
M1516 1352l-1037 -1366h-92l1038 1366h91zM1430 821q139 0 225 -77t86 -201q0 -230 -146.5 -394.5t-349.5 -164.5q-133 0 -215 75t-82 197q0 188 127 376.5t355 188.5zM1241 27q24 0 36.5 16t53.5 144l108 331q66 204 66 223q0 39 -45 39q-11 0 -22.5 -6t-17.5 -14t-34 -94
l-180 -557q-8 -21 -8 -41q0 -41 43 -41z" />
    <glyph glyph-name="ampersand" unicode="&#x26;" horiz-adv-x="1855" 
d="M1864 817l-17 -47h-178q-48 -179 -213 -283q68 -250 89.5 -284.5t45.5 -34.5q82 0 111 174h49q-29 -205 -178 -281.5t-342 -76.5q-113 0 -184.5 31.5t-118.5 113.5q-62 -31 -200 -82.5t-195 -63.5t-142 -12q-144 0 -238 89.5t-94 226.5q0 408 654 592q-8 49 -8 92
q0 159 175.5 280t415.5 121q130 0 200.5 -44t70.5 -124q0 -154 -246 -250l119 -413q148 102 170 229h-154l17 47h391zM1309 1004q198 79 198 198q0 40 -29 66t-75 26q-56 0 -88.5 -39.5t-32.5 -107.5q0 -65 27 -143zM913 168l-192 668q-125 -45 -139.5 -62t-14.5 -41
q0 -38 20 -101l68 -247q49 -183 62 -210.5t26 -38.5t31 -11q24 0 51 10z" />
    <glyph glyph-name="quotesingle" unicode="'" horiz-adv-x="528" 
d="M419 780q-105 338 -114 389t-9 76q0 61 44 100t111 39q66 0 105 -40t39 -109q0 -35 -21 -105l-102 -350h-53z" />
    <glyph glyph-name="parenleft" unicode="(" horiz-adv-x="1004" 
d="M1157 1327q-49 -15 -123 -49l-526 -1616q44 -51 82 -84l-29 -29q-348 314 -348 715q0 306 223 621t709 479z" />
    <glyph glyph-name="parenright" unicode=")" horiz-adv-x="938" 
d="M475 1364q346 -317 346 -713q0 -316 -228 -629t-704 -473l-12 37q51 16 123 49l526 1618q-32 40 -80 82z" />
    <glyph glyph-name="asterisk" unicode="*" horiz-adv-x="768" 
d="M543 1116q142 131 163.5 142.5t38.5 11.5q26 0 43 -20.5t17 -51.5q0 -39 -16.5 -58.5t-51.5 -23.5l-186 -20v-4q155 -27 173.5 -43.5t18.5 -42.5q0 -37 -25.5 -67t-55.5 -30q-22 0 -41.5 14t-32.5 41l-56 113l-4 -4l5 -183q0 -71 -78 -71q-74 0 -74 53q0 21 13 41
l112 162l-4 4q-146 -134 -166.5 -143.5t-36.5 -9.5q-23 0 -39 22.5t-16 55.5q0 42 23 61.5t89 23.5l142 9v4q-150 37 -168 42.5t-31.5 23t-13.5 46.5q0 31 24.5 56.5t52.5 25.5q22 0 48.5 -20.5t99.5 -159.5l4 4l-16 170q0 78 88 78q69 0 69 -55q0 -27 -23 -60l-93 -133z
" />
    <glyph glyph-name="plus" unicode="+" horiz-adv-x="1366" 
d="M1300 557h-438v-436h-248v436h-438v248h438v440h248v-440h438v-248z" />
    <glyph glyph-name="comma" unicode="," horiz-adv-x="705" 
d="M459 33q-80 -39 -168 -39q-111 0 -180.5 49t-69.5 125q0 73 76 126.5t184 53.5q112 0 184 -55t72 -139q0 -128 -116.5 -212.5t-290.5 -84.5q-24 0 -66 4v49q31 -4 59 -4q107 0 193 34.5t127 88.5z" />
    <glyph glyph-name="hyphen" unicode="-" horiz-adv-x="768" 
d="M756 662l-125 -386h-604l125 386h604z" />
    <glyph glyph-name="period" unicode="." horiz-adv-x="705" 
d="M303 344q104 0 177 -51.5t73 -122.5q0 -77 -78.5 -132.5t-189.5 -55.5q-106 0 -176 50.5t-70 125.5q0 77 76.5 131.5t187.5 54.5z" />
    <glyph glyph-name="slash" unicode="/" horiz-adv-x="1300" 
d="M1282 1425l-887 -1706h-311l887 1706h311z" />
    <glyph glyph-name="zero" unicode="0" horiz-adv-x="1409" 
d="M934 1368q231 0 367.5 -130.5t136.5 -350.5q0 -239 -114.5 -451.5t-309 -336.5t-412.5 -124q-233 0 -369.5 132.5t-136.5 359.5q0 218 115.5 435t304 341.5t418.5 124.5zM1047 1208q10 31 10 60q0 26 -19.5 42.5t-50.5 16.5q-72 0 -106 -106l-351 -1082q-8 -19 -8 -51
q0 -30 19.5 -50t48.5 -20q70 0 108 119z" />
    <glyph glyph-name="one" unicode="1" horiz-adv-x="1409" 
d="M1219 1341l-424 -1300h166l-13 -41h-788l14 41h137l387 1194h-159l14 41h102q269 0 358.5 10.5t205.5 54.5z" />
    <glyph glyph-name="two" unicode="2" horiz-adv-x="1409" 
d="M317 1153q48 47 117 47q72 0 119 -48.5t47 -123.5q0 -92 -62.5 -154.5t-154.5 -62.5q-80 0 -134 52t-54 128q0 162 154.5 268.5t404.5 106.5q286 0 461.5 -115.5t175.5 -300.5q0 -119 -85.5 -229t-223 -163t-363.5 -83q-140 -19 -170 -25.5t-70 -23.5q-26 -12 -41 -16
l4 -4q62 6 97 6q118 0 340 -56q144 -34 190 -34q55 0 92 25t80 81l33 -22q-84 -186 -195 -308.5t-282 -122.5q-63 0 -134.5 12.5t-226.5 53.5q-146 39 -239 39q-189 0 -289 -107l-35 27q70 120 212.5 232.5t315.5 199.5q164 82 195.5 102.5t97 87t107 157.5t62 181t20.5 166
q0 94 -57 145.5t-158 51.5q-114 0 -212.5 -44.5t-142.5 -121.5z" />
    <glyph glyph-name="three" unicode="3" horiz-adv-x="1409" 
d="M596 1253q190 -7 190 -166q0 -73 -51 -125.5t-123 -52.5q-70 0 -121 50t-51 120q0 127 132.5 208t345.5 81q207 0 337.5 -85t130.5 -216q0 -66 -33 -136t-101.5 -120t-198.5 -70v-4q202 -84 202 -258q0 -209 -192.5 -356.5t-464.5 -147.5q-230 0 -371 89.5t-141 232.5
q0 77 58 134.5t137 57.5t136.5 -57.5t57.5 -136.5q0 -84 -53.5 -138.5t-136.5 -54.5h-29v-4q97 -65 201 -65q97 0 143.5 50t63.5 115.5t77 236.5t60 220q0 53 -131 56l12 43q24 -2 59 -2q57 0 86 24.5t61 119.5l67 206q36 110 36 139q0 84 -160 84q-126 0 -235 -68v-4z" />
    <glyph glyph-name="four" unicode="4" horiz-adv-x="1409" 
d="M1421 1341l-305 -938h125l-14 -41h-123l-105 -321h168l-14 -41h-860l12 41h209l104 321h-575l940 979h438zM877 1147l-5 4l-708 -748h469z" />
    <glyph glyph-name="five" unicode="5" horiz-adv-x="1409" 
d="M1419 1362q-56 -177 -176.5 -272t-288.5 -95q-194 0 -409 33l-56 -166q112 43 228 43q215 0 366.5 -111t151.5 -266q0 -129 -91 -272t-257.5 -213t-349.5 -70q-213 0 -350.5 96.5t-137.5 241.5q0 77 58 134t137 57q78 0 135 -59t57 -140q0 -64 -42 -121.5t-163 -70.5
q49 -43 114 -61.5t99 -18.5q47 0 84 21t55.5 58.5t75.5 216.5l97 301q39 122 39 150q0 37 -36.5 59.5t-96.5 22.5q-122 0 -195 -67l-37 12l180 557q137 -37 375 -37q232 0 434 37z" />
    <glyph glyph-name="six" unicode="6" horiz-adv-x="1409" 
d="M735 815q118 23 221 23q171 0 270 -79t99 -212q0 -220 -214 -389.5t-497 -169.5q-220 0 -353.5 116t-133.5 308q0 247 137 484t347 349.5t427 112.5q178 0 295 -78.5t117 -194.5q0 -79 -57.5 -135.5t-137.5 -56.5t-137 57t-57 137q0 69 40.5 119.5t115.5 69.5
q-60 39 -158 39q-82 0 -138.5 -51.5t-89.5 -153.5zM719 760l-196 -601q-13 -40 -13 -65q0 -26 20.5 -43.5t51.5 -17.5q37 0 59 24.5t63 148.5l101 311q61 187 61 208q0 55 -53 55q-36 0 -94 -20z" />
    <glyph glyph-name="seven" unicode="7" horiz-adv-x="1409" 
d="M1540 1335q-94 -94 -200.5 -240.5t-182 -294t-266.5 -579.5q-66 -151 -147.5 -198.5t-176.5 -47.5q-107 0 -177.5 60t-70.5 151q0 94 73 189.5t218 192.5l398 266q151 100 209 178l-5 4q-153 -84 -338 -84q-62 0 -114 8q-169 23 -209 23q-160 0 -234 -158h-43l181 551h49
q-6 -22 -6 -37q0 -29 30 -29h11q4 0 84 21q149 41 243 41q95 0 187 -19q185 -35 241 -35q126 0 219 66z" />
    <glyph glyph-name="eight" unicode="8" horiz-adv-x="1409" 
d="M532 823q-139 86 -139 217q0 142 151.5 230t395.5 88q233 0 376.5 -81.5t143.5 -209.5q0 -106 -100 -189.5t-275 -111.5q105 -61 167.5 -154.5t62.5 -173.5q0 -191 -187 -321.5t-466 -130.5q-253 0 -413.5 116.5t-160.5 296.5q0 145 115 257t329 167zM862 836
q46 0 64.5 29.5t70.5 190t52 189.5q0 34 -21.5 54t-56.5 20q-41 0 -67.5 -26t-53.5 -108l-54 -161q-26 -80 -26 -113q0 -75 92 -75zM596 33q31 0 60.5 20t40.5 53l169 519q23 67 23 104q0 70 -76 70q-34 0 -62.5 -19t-43 -48.5t-67.5 -192.5l-93 -284q-39 -121 -39 -142
q0 -36 24.5 -58t63.5 -22z" />
    <glyph glyph-name="nine" unicode="9" horiz-adv-x="1409" 
d="M788 528q-118 -22 -221 -22q-170 0 -269 78.5t-99 212.5q0 220 213.5 389.5t496.5 169.5q221 0 354.5 -116.5t133.5 -307.5q0 -248 -137 -485t-347 -349t-428 -112q-177 0 -294 78.5t-117 193.5q0 80 57 136.5t137 56.5t137.5 -57t57.5 -138q0 -69 -40.5 -119.5
t-115.5 -68.5q60 -39 158 -39q82 0 138.5 51t89.5 154zM805 584l196 601q13 39 13 64q0 27 -21 44.5t-51 17.5q-37 0 -59 -25t-63 -148l-102 -311q-61 -188 -61 -209q0 -55 54 -55q35 0 94 21z" />
    <glyph glyph-name="colon" unicode=":" horiz-adv-x="768" 
d="M436 827q108 0 184 -53t76 -127t-76 -129t-184 -55q-104 0 -179 54.5t-75 127.5q0 76 74 129t180 53zM295 348q105 0 182.5 -52t77.5 -120q0 -81 -73 -133.5t-185 -52.5q-108 0 -182 52t-74 126q0 76 73 128t181 52z" />
    <glyph glyph-name="semicolon" unicode=";" horiz-adv-x="768" 
d="M461 834q103 0 176.5 -51.5t73.5 -120.5q0 -83 -74 -138t-186 -55q-111 0 -182.5 49.5t-71.5 124.5q0 80 77 135.5t187 55.5zM459 33q-80 -39 -168 -39q-111 0 -180.5 49t-69.5 125q0 73 76 126.5t184 53.5q112 0 184 -55t72 -139q0 -128 -116.5 -212.5t-290.5 -84.5
q-24 0 -66 4v49q31 -4 59 -4q107 0 193 34.5t127 88.5z" />
    <glyph glyph-name="less" unicode="&#x3c;" horiz-adv-x="1366" 
d="M1300 102l-1124 467v224l1124 467v-267l-784 -311l784 -311v-269z" />
    <glyph glyph-name="equal" unicode="=" horiz-adv-x="1366" 
d="M1300 799h-1124v248h1124v-248zM1300 317h-1124v248h1124v-248z" />
    <glyph glyph-name="greater" unicode="&#x3e;" horiz-adv-x="1366" 
d="M1300 571l-1124 -469v269l785 311l-785 311v267l1124 -465v-224z" />
    <glyph glyph-name="question" unicode="?" horiz-adv-x="1087" 
d="M399 1206q41 23 76 23q71 0 119.5 -46.5t48.5 -113.5q0 -66 -48 -115t-114 -49q-72 0 -125 55t-53 130q0 113 116 189.5t290 76.5q214 0 343.5 -102t129.5 -269q0 -227 -207 -384t-563 -159l-17 -51h-49l127 389h6q189 0 311.5 91.5t122.5 228.5q0 95 -66 152t-177 57
q-157 0 -275 -99zM291 350q106 0 183 -53.5t77 -126.5q0 -74 -76.5 -128t-183.5 -54q-109 0 -183.5 52t-74.5 126q0 77 74 130.5t184 53.5z" />
    <glyph glyph-name="at" unicode="@" horiz-adv-x="1898" 
d="M1901 160q-90 -252 -323.5 -428t-559.5 -176q-391 0 -641 248.5t-250 637.5q0 377 270 659.5t684 282.5q333 0 536.5 -186t203.5 -489q0 -300 -171.5 -504.5t-418.5 -204.5q-117 0 -171 43.5t-54 138.5q0 50 18 123l-4 4q-95 -169 -174.5 -239t-165.5 -70q-89 0 -141 67
t-52 183q0 152 86 321.5t216 278t245 108.5q126 0 137 -155h5l32 121l295 18q-127 -435 -172 -581t-45 -207q0 -62 55 -62q120 0 260 179t140 427q0 270 -173 436t-454 166q-357 0 -599.5 -262.5t-242.5 -650.5q0 -348 231 -551t535 -203q254 0 469 141.5t310 385.5h84z
M858 199q72 0 174.5 222t102.5 353q0 98 -66 98q-90 0 -179 -252t-89 -350q0 -30 16.5 -50.5t40.5 -20.5z" />
    <glyph glyph-name="A" unicode="A" horiz-adv-x="1706" 
d="M1597 47l-14 -47h-878l14 47h180l-39 332h-518q-72 -104 -72 -174q0 -67 53 -112.5t132 -45.5h43l-17 -47h-581l14 47h4q94 0 169 76.5t155 200.5l657 1017h436l148 -1294h114zM854 428l-70 629h-4l-405 -629h479z" />
    <glyph glyph-name="B" unicode="B" horiz-adv-x="1710" 
d="M346 1341h832q300 0 415.5 -40.5t167 -107t51.5 -149.5q0 -139 -129.5 -229.5t-306.5 -105.5v-4q141 -35 215 -117.5t74 -184.5q0 -105 -67.5 -200.5t-192.5 -149t-426 -53.5h-1077l14 47h152l415 1247h-151zM922 752h88q61 0 82 9t37.5 31t48.5 122l62 191q30 91 30 122
q0 67 -115 67h-55zM694 47h82q58 0 85.5 13t48 48t41.5 104l69 214q47 144 52 167t5 38q0 37 -25 52t-83 15h-64z" />
    <glyph glyph-name="C" unicode="C" horiz-adv-x="1450" 
d="M1649 1356l-156 -568h-55q28 110 28 187q0 143 -88.5 244.5t-212.5 101.5q-88 0 -128 -39.5t-81 -165.5l-276 -850q-29 -89 -29 -133q0 -45 49 -76.5t123 -31.5q115 0 247 58.5t233 166.5l36 -37q-223 -242 -551 -242q-274 0 -461.5 161.5t-187.5 395.5q0 215 128 424.5
t351 314.5t459 105q216 0 361 -90l164 74h47z" />
    <glyph glyph-name="D" unicode="D" horiz-adv-x="1772" 
d="M328 1341h800q191 0 294 -21.5t191.5 -83t136.5 -161.5t48 -231q0 -179 -81.5 -355.5t-209.5 -290t-260.5 -156t-331.5 -42.5h-1024l15 47h164l405 1247h-164zM684 47h80q95 0 146.5 47.5t90.5 169.5l267 817q22 74 22 115q0 98 -143 98h-57z" />
    <glyph glyph-name="E" unicode="E" horiz-adv-x="1630" 
d="M1774 1341l-150 -456h-49q10 57 10 86q0 132 -129.5 227.5t-310.5 95.5h-53l-179 -553h17q141 0 246 92.5t147 186.5h49l-217 -668h-49q22 70 22 123q0 94 -63 151t-170 60l-209 -639h62q160 0 383.5 118.5t334.5 276.5l9 13q12 17 18 28h43l-158 -483h-1484l14 47h162
l405 1247h-162l17 47h1444z" />
    <glyph glyph-name="F" unicode="F" horiz-adv-x="1579" 
d="M1774 1341l-150 -458h-49q6 49 6 84q0 136 -124 231.5t-306 95.5h-64l-174 -553q94 3 157.5 28.5t143 96t125.5 174.5h52l-232 -716h-41q17 59 17 106q0 245 -240 254l-207 -637h207l-16 -47h-990l15 47h166l405 1247h-166l17 47h1448z" />
    <glyph glyph-name="G" unicode="G" horiz-adv-x="1642" 
d="M1708 1356l-168 -514h-41q12 70 12 112q0 142 -114.5 254.5t-259.5 112.5q-44 0 -80 -16t-55.5 -51t-57.5 -152l-299 -918q-18 -61 -18 -96q0 -30 24.5 -51t61.5 -21q56 0 87.5 47t55.5 124l129 401h-104l12 39h774l-12 -39h-88l-199 -613h-31l-77 129
q-246 -133 -488 -133q-269 0 -451 169.5t-182 418.5q0 216 124.5 405t340.5 298.5t463 109.5q237 0 420 -119l180 103h41z" />
    <glyph glyph-name="H" unicode="H" horiz-adv-x="1855" 
d="M2114 1341l-17 -47h-160l-405 -1247h160l-15 -47h-870l14 47h97l192 594h-240l-192 -594h88l-14 -47h-854l16 47h156l405 1247h-156l15 47h854l-17 -47h-88l-196 -606h239l197 606h-96l14 47h873z" />
    <glyph glyph-name="I" unicode="I" horiz-adv-x="1004" 
d="M1257 1341l-14 -47h-160l-405 -1247h160l-17 -47h-930l17 47h162l405 1247h-162l15 47h929z" />
    <glyph glyph-name="J" unicode="J" horiz-adv-x="1343" 
d="M1612 1341l-17 -47h-159l-291 -891q-81 -246 -259.5 -336t-430.5 -90q-271 0 -401 102.5t-130 229.5q0 91 62 152t153 61q89 0 148 -60t59 -149q0 -90 -56.5 -147t-160.5 -66q58 -53 137 -53q87 0 139 53.5t91 171.5l331 1022h-159l14 47h930z" />
    <glyph glyph-name="K" unicode="K" horiz-adv-x="1706" 
d="M1980 1341l-16 -47q-164 -3 -285.5 -75t-369.5 -275l204 -897h109l-14 -47h-768l14 47h100l-112 504h-4l-160 -504h104l-14 -47h-877l17 47h162l405 1247h-162l15 47h884l-14 -47h-115l-202 -620l4 -4q274 205 425.5 343.5t151.5 203.5q0 73 -149 77l16 47h651z" />
    <glyph glyph-name="L" unicode="L" horiz-adv-x="1552" 
d="M1518 508l-166 -508h-1448l14 47h152l405 1247h-151l16 47h928l-17 -47h-164l-405 -1247q297 7 494.5 150t296.5 311h45z" />
    <glyph glyph-name="M" unicode="M" horiz-adv-x="2198" 
d="M2454 1341l-15 -47h-158l-405 -1247h158l-17 -47h-936l17 47h155l328 1006l-4 4l-791 -1057h-198l-119 1137h-4l-236 -729q-39 -120 -39 -179q0 -167 228 -182l-15 -47h-573l16 47q81 0 140.5 40.5t98 106.5t81.5 197l295 903h-166l16 47h701l94 -827l618 827h730z" />
    <glyph glyph-name="N" unicode="N" horiz-adv-x="1642" 
d="M1923 1341l-16 -47q-112 -1 -183.5 -76.5t-115.5 -211.5l-326 -1006h-342l-440 1145h-4l-254 -795q-23 -75 -23 -125q0 -74 61.5 -124.5t165.5 -53.5l-16 -47h-569l14 47q57 0 90.5 12t78 48t75 88t63.5 153l283 871l-35 75h-115l17 47h715l327 -880h4
q166 515 179.5 559.5t13.5 85.5q0 183 -232 188l15 47h569z" />
    <glyph glyph-name="O" unicode="O" horiz-adv-x="1686" 
d="M1047 1372q284 0 475.5 -161.5t191.5 -397.5q0 -221 -123 -417t-334 -310.5t-450 -114.5q-303 0 -485.5 151.5t-182.5 399.5q0 217 126 415.5t338 316.5t444 118zM1200 1108q25 74 25 121q0 38 -26 62t-66 24q-57 0 -100.5 -46t-90.5 -192l-268 -829q-35 -112 -35 -150
q0 -36 26.5 -59t69.5 -23q68 0 107.5 58.5t83.5 191.5z" />
    <glyph glyph-name="P" unicode="P" horiz-adv-x="1706" 
d="M334 1341h962q305 0 419 -114.5t114 -268.5q0 -230 -214 -366.5t-583 -136.5q-113 0 -211 14l-137 -422h219l-16 -47h-989l14 47h158l405 1247h-158zM838 518q52 -14 84 -14q80 0 124 65.5t77.5 171.5t92 270t58.5 203q0 80 -127 80h-57z" />
    <glyph glyph-name="Q" unicode="Q" horiz-adv-x="1686" 
d="M614 -10q-234 51 -354.5 187t-120.5 343q0 218 125.5 417.5t337 317t445.5 117.5q284 0 475.5 -159.5t191.5 -393.5q0 -301 -221.5 -550.5t-564.5 -291.5q-21 -57 -21 -96q0 -80 59 -132t148 -52q36 0 86 12l6 -49q-117 -33 -213 -33q-165 0 -277 83.5t-112 203.5
q0 43 10 76zM1200 1108q27 80 27 121q0 36 -28.5 60t-70.5 24q-44 0 -88 -35t-98 -201l-268 -829q-33 -98 -33 -148q0 -37 25 -60.5t65 -23.5q66 0 107 53.5t88 196.5z" />
    <glyph glyph-name="R" unicode="R" horiz-adv-x="1772" 
d="M334 1341h1016q479 0 479 -290q0 -115 -92 -207t-301 -133v-4q101 -19 156 -71.5t55 -113.5q0 -65 -30 -157l-50 -154q-8 -25 -8 -33q0 -20 20 -20q47 0 102 159h58q-113 -346 -432 -346q-155 0 -247.5 62t-92.5 164q0 39 32 145q53 165 59.5 190t6.5 54q0 102 -117 102
h-47l-209 -641h103l-15 -47h-882l16 47h156l405 1247h-156zM918 741h51q70 0 110 21t64 63.5t56 136.5l53 160q22 67 22 99q0 73 -107 73h-69z" />
    <glyph glyph-name="S" unicode="S" horiz-adv-x="1516" 
d="M1595 1341l-147 -454h-47q8 55 8 106q0 140 -121.5 234t-306.5 94q-99 0 -163 -36t-64 -89q0 -66 96 -127l277 -172q129 -79 181.5 -138.5t77.5 -129t25 -142.5q0 -217 -197.5 -366.5t-488.5 -149.5q-121 0 -236 26.5t-292 121.5l-136 -119h-71l182 565h53
q-20 -68 -20 -123q0 -160 141 -284.5t322 -124.5q121 0 205.5 56.5t84.5 133.5q0 60 -56.5 109.5t-315.5 206.5q-205 125 -253 207t-48 172q0 194 196 323t490 129q109 0 198.5 -21t214.5 -81l150 73h61z" />
    <glyph glyph-name="T" unicode="T" horiz-adv-x="1516" 
d="M1794 1341l-137 -419h-49v10q0 136 -72.5 234.5t-200.5 127.5l-401 -1247h229l-16 -47h-1047l15 47h209l399 1247q-130 -7 -266.5 -111.5t-227.5 -269.5h-53l133 428h1485z" />
    <glyph glyph-name="U" unicode="U" horiz-adv-x="1556" 
d="M1870 1341l-17 -47q-62 0 -93 -10.5t-69 -42.5t-67.5 -79t-70.5 -173l-199 -614q-49 -152 -99.5 -213.5t-135.5 -108t-183 -65.5t-215 -19q-576 0 -576 312q0 63 31 157l279 856h-166l14 47h950l-16 -47h-176l-322 -989q-30 -92 -30 -125q0 -48 49 -81t123 -33
q75 0 146.5 25t128.5 71t86 100.5t98 265.5l122 374q54 163 54 224q0 74 -55 119.5t-154 48.5l14 47h549z" />
    <glyph glyph-name="V" unicode="V" horiz-adv-x="1686" 
d="M2015 1341l-14 -47q-73 -4 -133 -36t-115.5 -82t-136.5 -156l-785 -1020h-323l-66 1294h-104l14 47h824l-17 -47h-151l45 -915l398 524q67 89 101.5 157t34.5 120q0 99 -147 114l14 47h561z" />
    <glyph glyph-name="W" unicode="W" horiz-adv-x="2517" 
d="M2834 1341l-14 -47q-123 -12 -205 -79t-168 -179l-796 -1036h-324l-33 612l-471 -612h-319l-64 1294h-106l14 47h780l-16 -47h-108l47 -911l243 315l-32 596h-105l14 47h826l-17 -47h-153l43 -915h4l412 549q59 78 89.5 137t30.5 106q0 57 -35.5 85t-111.5 38l16 47h559z
" />
    <glyph glyph-name="X" unicode="X" horiz-adv-x="1729" 
d="M1980 1341l-16 -47q-76 -8 -127.5 -30.5t-118.5 -75t-191 -191.5l-267 -299l223 -651h76l-15 -47h-878l16 47h182l-205 592q-246 -272 -274.5 -304t-55 -77.5t-26.5 -87.5q0 -46 31 -77t108 -46l-14 -47h-569l14 47q126 14 232 95t534 556l-207 596h-119l15 47h907
l-16 -47h-166l182 -530q240 258 270.5 312t30.5 98q0 100 -145 120l14 47h575z" />
    <glyph glyph-name="Y" unicode="Y" horiz-adv-x="1706" 
d="M1929 1341l-16 -47q-52 -7 -84 -20q-52 -21 -97 -53q-53 -36 -114 -96q-39 -39 -100 -109l-249 -287q-63 -72 -129 -275l-132 -407h186l-14 -47h-985l14 47h190l189 578l-262 669h-99l17 47h850l-15 -47h-118l229 -571l251 287q44 51 65.5 90.5t21.5 79.5q0 92 -127 114
l16 47h512z" />
    <glyph glyph-name="Z" unicode="Z" horiz-adv-x="1556" 
d="M1624 1341l-858 -1294q264 10 460 147t249 304h57l-162 -498h-1333l862 1294q-219 -11 -392.5 -119.5t-262.5 -287.5h-56l148 454h1288z" />
    <glyph glyph-name="bracketleft" unicode="[" horiz-adv-x="854" 
d="M1096 1368l-15 -41h-161l-560 -1716h164l-14 -43h-625l592 1800h619z" />
    <glyph glyph-name="backslash" unicode="\" horiz-adv-x="1300" 
d="M1249 -281h-311l-887 1706h309z" />
    <glyph glyph-name="bracketright" unicode="]" horiz-adv-x="831" 
d="M985 1368l-592 -1800h-616l12 41h164l557 1716h-164l14 43h625z" />
    <glyph glyph-name="asciicircum" unicode="^" horiz-adv-x="1036" 
d="M1075 668h-174l-274 479l-275 -479h-166l412 716h66z" />
    <glyph glyph-name="underscore" unicode="_" horiz-adv-x="1024" 
d="M1042 -256h-1060v102h1060v-102z" />
    <glyph glyph-name="grave" unicode="`" horiz-adv-x="682" 
d="M809 965h-45l-502 288v45h297z" />
    <glyph glyph-name="a" unicode="a" 
d="M1376 831q-186 -573 -201.5 -618t-15.5 -63q0 -10 9 -18.5t18 -8.5q22 0 65 58.5t76 135.5l39 -18q-124 -305 -389 -305q-88 0 -158.5 43t-97.5 115q-166 -158 -359 -158q-141 0 -232 81t-91 206q0 220 206 400.5t460 180.5q120 0 188 -55l6 24h477zM879 768
q-46 45 -93 45q-34 0 -59 -26.5t-41 -75.5l-154 -476q-14 -41 -14 -75q0 -49 41 -49q52 0 152 86q2 53 32 149z" />
    <glyph glyph-name="b" unicode="b" horiz-adv-x="1348" 
d="M705 733q172 129 333 129q121 0 196 -81.5t75 -213.5q0 -237 -197.5 -405t-552.5 -168q-229 0 -354 91t-125 191q0 50 20 113l297 911h-131l15 41h61q311 0 569 37l-211 -641zM678 664l-115 -352q-51 -158 -55 -177.5t-4 -36.5q0 -24 21.5 -42.5t49.5 -18.5t54 13.5
t66 145t103.5 316.5t63.5 215q0 27 -35 27q-39 0 -149 -90z" />
    <glyph glyph-name="c" unicode="c" horiz-adv-x="1096" 
d="M987 242q-178 -248 -448 -248q-208 0 -354 113.5t-146 271.5q0 207 177 345t441 138q187 0 303.5 -73t116.5 -187q0 -75 -53 -128.5t-127 -53.5q-75 0 -129.5 54.5t-54.5 129.5q0 69 46.5 121t131.5 55v4q-50 27 -98 27q-47 0 -80.5 -19.5t-50 -48.5t-70.5 -193l-91 -278
q-38 -115 -38 -141q0 -74 129 -74q187 0 364 211z" />
    <glyph glyph-name="d" unicode="d" 
d="M1554 1378l-378 -1163q-17 -46 -17 -65q0 -10 9 -18.5t18 -8.5q22 0 65 58.5t76 135.5l39 -18q-124 -305 -389 -305q-88 0 -158.5 43t-97.5 115q-166 -158 -359 -158q-141 0 -232 81t-91 206q0 220 206 400.5t460 180.5q119 0 186 -55l160 493h-136l13 41h49
q335 0 577 37zM879 768q-46 45 -93 45q-34 0 -59 -26.5t-41 -75.5l-154 -476q-14 -41 -14 -75q0 -49 41 -49q52 0 152 86q2 53 32 149z" />
    <glyph glyph-name="e" unicode="e" horiz-adv-x="1194" 
d="M1038 211q-81 -101 -203.5 -159t-256.5 -58q-252 0 -395.5 97.5t-143.5 266.5q0 218 190.5 362t483.5 144q197 0 319.5 -78.5t122.5 -201.5q0 -128 -129 -218t-313 -90q-83 0 -217 21q-50 -153 -50 -168q0 -32 56.5 -53t138.5 -21q88 0 194.5 51.5t174.5 133.5zM510 340
q24 -2 57 -2q42 0 68 9t48 37.5t49 108.5l55 164q28 85 28 113q0 21 -21 36t-51 15q-43 0 -69.5 -29t-44.5 -86z" />
    <glyph glyph-name="f" unicode="f" horiz-adv-x="788" 
d="M272 831l56 170q27 80 72 146.5t103 112.5t125.5 69t139.5 23q111 0 180.5 -55t69.5 -140q0 -74 -52 -128t-126 -54q-76 0 -130.5 52t-54.5 124q0 108 105 154l-4 4q-85 -8 -134 -72.5t-49 -161.5q0 -109 71 -176.5t185 -67.5h78l-12 -40h-154l-256 -791h-483l258 791
h-121l15 40h118z" />
    <glyph glyph-name="g" unicode="g" horiz-adv-x="1366" 
d="M1360 831l-254 -786q-73 -222 -259.5 -348.5t-451.5 -126.5q-196 0 -322 76t-126 190q0 70 49.5 118t122.5 48q70 0 119 -48.5t49 -117.5q0 -65 -43.5 -108.5t-118.5 -51.5v-4q83 -51 172 -51q93 0 150 45.5t83.5 108.5t100.5 293q-135 -74 -287 -74q-136 0 -220.5 88
t-84.5 229q0 231 158.5 391t386.5 160q164 0 274 -94l21 63h481zM846 729q-51 51 -107 51q-23 0 -38.5 -7.5t-27.5 -27t-36 -92.5l-130 -399q-30 -94 -30 -123q0 -23 14 -38t35 -15q51 0 129 61z" />
    <glyph glyph-name="h" unicode="h" 
d="M1391 330q-112 -336 -420 -336q-115 0 -184.5 48.5t-69.5 127.5q0 42 15 92l102 316q14 43 14 63q0 25 -23 25q-12 0 -29.5 -9.5t-39 -27.5t-48 -45t-60.5 -64q-3 -4 -57 -170l-114 -350h-483l428 1300h-131l12 41h14q107 0 307.5 9.5t301.5 27.5l-254 -772
q226 256 446 256q89 0 150 -47.5t61 -116.5q0 -54 -36 -166l-95 -292q-12 -37 -12 -62q0 -9 7.5 -16.5t16.5 -7.5q28 0 67.5 53.5t68.5 138.5z" />
    <glyph glyph-name="i" unicode="i" horiz-adv-x="788" 
d="M639 1360q98 0 159.5 -42t61.5 -108q0 -72 -89 -129t-200 -57q-97 0 -160 41.5t-63 103.5q0 74 88 132.5t203 58.5zM745 866l-148 -456q-75 -232 -77 -240.5t-2 -22.5q0 -24 23 -24t68 58t75 134l41 -16q-125 -305 -397 -305q-118 0 -196.5 49.5t-78.5 120.5q0 46 28 129
l163 498h-135l12 40h57q291 0 567 35z" />
    <glyph glyph-name="j" unicode="j" horiz-adv-x="788" 
d="M666 1360q96 0 159.5 -44t63.5 -110q0 -69 -89.5 -125.5t-203.5 -56.5q-96 0 -157.5 41.5t-61.5 103.5q0 76 87 133.5t202 57.5zM774 866l-321 -989q-103 -313 -416 -313q-86 0 -159 57.5t-73 142.5q0 78 52 131.5t127 53.5q77 0 131.5 -50.5t54.5 -123.5
q0 -113 -96 -166l4 -4q72 13 117 75.5t45 147.5q0 168 -205 240l233 723h-133l15 40h73q315 0 551 35z" />
    <glyph glyph-name="k" unicode="k" horiz-adv-x="1280" 
d="M1212 260q-70 -172 -146 -219t-181 -47q-107 0 -166.5 43t-59.5 119q0 43 17 95l35 111q6 19 6 35q0 60 -88 60l-150 -457h-483l428 1300h-131l12 41h14q107 0 307.5 9.5t301.5 27.5l-285 -878q74 2 162 176q40 82 67.5 115.5t72 57t93.5 23.5q66 0 110 -39t44 -96
q0 -58 -36 -95.5t-93 -37.5q-55 0 -94 38t-39 91q0 29 14 58q-33 -14 -52.5 -42t-66.5 -124q-19 -41 -65 -88l8 -2l66 15q31 7 59 7q103 0 173.5 -48t70.5 -116q0 -27 -12 -65l-40 -127q-12 -37 -12 -51q0 -15 14 -15q29 0 89 139z" />
    <glyph glyph-name="l" unicode="l" horiz-adv-x="788" 
d="M913 1378l-383 -1179q-10 -31 -10 -52q0 -24 23 -24q20 0 67 58.5t78 133.5l41 -16q-69 -156 -166.5 -230.5t-238.5 -74.5q-122 0 -197.5 51t-75.5 131q0 26 31 121l326 1003h-132l15 41h53q330 0 569 37z" />
    <glyph glyph-name="m" unicode="m" horiz-adv-x="2091" 
d="M2048 330q-121 -338 -410 -338q-125 0 -194.5 45t-69.5 125q0 54 30 149l93 291q8 25 8 35q0 9 -7.5 17t-16.5 8q-10 0 -24 -7q-13 -7 -30 -18q-16 -12 -32 -27q-11 -10 -32 -32q-13 -13 -37 -40q-23 -26 -63 -147l-128 -391h-486l129 393q56 169 62 192t6 38
q0 11 -10.5 19.5t-22.5 8.5q-16 0 -36.5 -11.5t-48 -36t-56.5 -56.5t-29 -33l-1 -4l-165 -510h-481l258 791h-135l12 40q346 0 629 41l-82 -249l4 -5q222 244 434 244q95 0 158 -52t63 -128q0 -32 -16 -82l2 -2q124 136 228 200t218 64q97 0 157.5 -48t60.5 -124
q0 -49 -16 -97l-120 -368q-10 -30 -10 -51q0 -24 23 -24q30 0 69 54t70 142z" />
    <glyph glyph-name="n" unicode="n" 
d="M1391 330q-112 -336 -420 -336q-115 0 -184.5 48.5t-69.5 127.5q0 42 15 92l102 316q14 43 14 63q0 25 -23 25q-12 0 -29.5 -9.5t-39 -27.5t-48 -45t-60.5 -64q-3 -4 -57 -170l-114 -350h-481l256 791h-133l14 40h25q112 0 302.5 11.5t299.5 29.5l-92 -262l4 -4
q226 256 446 256q89 0 150 -47.5t61 -116.5q0 -54 -36 -166l-95 -292q-12 -37 -12 -62q0 -9 7.5 -16.5t16.5 -7.5q28 0 67.5 53.5t68.5 138.5z" />
    <glyph glyph-name="o" unicode="o" horiz-adv-x="1260" 
d="M698 864q231 0 377 -101.5t146 -258.5q0 -216 -195 -363t-487 -147q-225 0 -362.5 108.5t-137.5 282.5q0 203 189.5 341t469.5 138zM512 37q37 0 60.5 21t40.5 58t82 241.5t91.5 282.5t26.5 112q0 27 -21.5 47t-52.5 20q-42 0 -67.5 -31t-43.5 -86l-170 -518
q-16 -46 -16 -80q0 -29 20 -48t50 -19z" />
    <glyph glyph-name="p" unicode="p" horiz-adv-x="1362" 
d="M723 760q116 71 179.5 86.5t127.5 15.5q129 0 211 -82t82 -213q0 -221 -168.5 -397t-376.5 -176q-41 0 -107 16.5t-157 104.5l-162 -496h125l-12 -41h-727l14 41h119l383 1172h-133l14 40h64q339 0 561 41zM532 170q63 -72 99 -72q17 0 30 8.5t24 28t33 87.5l73 223
q51 155 62 191.5t11 61.5q0 52 -43 52q-47 0 -116 -48z" />
    <glyph glyph-name="q" unicode="q" horiz-adv-x="1368" 
d="M1370 866l-407 -1259h139l-15 -39h-751l12 39h133l144 446q-124 -59 -277 -59q-136 0 -222.5 81.5t-86.5 209.5q0 223 211.5 400t482.5 177q202 0 414 -123l174 127h49zM645 117l137 416q54 166 58 184t4 39q0 30 -20 48.5t-54 18.5q-42 0 -66.5 -33t-73.5 -183
l-103 -314q-54 -165 -54 -180q0 -19 13.5 -32t31.5 -13q59 0 127 49z" />
    <glyph glyph-name="r" unicode="r" horiz-adv-x="1104" 
d="M686 637q149 225 320 225q68 0 113.5 -49.5t45.5 -124.5q0 -85 -53 -142t-133 -57q-128 0 -162 136q-12 45 -33 45q-35 0 -88 -81t-101 -228l-118 -361h-481l256 791h-133l14 40h62q286 0 567 41l-78 -231z" />
    <glyph glyph-name="s" unicode="s" horiz-adv-x="971" 
d="M195 104q87 -59 200 -59q57 0 89 23.5t32 64.5q0 33 -29 63t-170 144q-100 80 -128.5 121t-28.5 98q0 129 128 216t318 87q155 0 255 -57.5t100 -145.5q0 -55 -34 -89.5t-87 -34.5q-57 0 -95 36.5t-38 90.5q0 38 23 71t61 47q-72 29 -144 29q-73 0 -114 -22t-41 -60
q0 -36 55 -76q209 -146 268 -213t59 -149q0 -123 -124.5 -209t-305.5 -86q-170 0 -301 73.5t-131 165.5q0 57 43 95.5t105 38.5q59 0 102 -40.5t43 -97.5q0 -100 -110 -125z" />
    <glyph glyph-name="t" unicode="t" horiz-adv-x="811" 
d="M907 831l-12 -40h-180l-202 -623q-9 -30 -9 -51q0 -29 26 -29q36 0 92 62.5t99 189.5l43 -12q-101 -334 -402 -334q-144 0 -224.5 54t-80.5 151q0 58 25 134l149 458h-120l14 40q313 5 682 363h39l-117 -363h178z" />
    <glyph glyph-name="u" unicode="u" 
d="M1370 332q-125 -338 -428 -338q-111 0 -177.5 50t-66.5 132q0 28 11 76l-4 4q-244 -262 -437 -262q-98 0 -159.5 52t-61.5 134q0 44 25 120l159 491h-133l13 40q365 0 626 41q-184 -570 -194.5 -600.5t-10.5 -44.5q0 -26 23 -26q13 0 31.5 11t40.5 29.5t43 40.5t42 46
l12 12q5 6 41 117l122 374h483l-135 -415q-63 -197 -66.5 -209t-3.5 -23q0 -30 23 -30q28 0 69 55.5t68 136.5z" />
    <glyph glyph-name="v" unicode="v" horiz-adv-x="1110" 
d="M1065 604q-76 -78 -154 -78q-57 0 -100 43.5t-43 102.5q0 67 48.5 114.5t117.5 47.5q80 0 133 -61t53 -155q0 -148 -107.5 -295t-284 -238t-355.5 -91q-125 0 -211 56t-86 134q0 47 20 109l66 202q37 112 38 117t1 15q0 18 -19 18q-39 0 -110 -135l-37 27
q167 325 446 325q103 0 163.5 -39t60.5 -104q0 -39 -19 -94l-100 -308q-44 -137 -49 -154.5t-5 -27.5q0 -41 43 -41q70 0 199.5 80.5t210 201t80.5 210.5v18z" />
    <glyph glyph-name="w" unicode="w" horiz-adv-x="1763" 
d="M1718 608q-63 -80 -149 -80q-61 0 -103.5 44t-42.5 106q0 69 46.5 114.5t115.5 45.5q81 0 135 -63.5t54 -160.5q0 -145 -110 -291t-288 -237.5t-356 -91.5q-133 0 -213 60t-80 159v18q-233 -237 -444 -237q-94 0 -157 47.5t-63 116.5q0 40 19 92q117 355 117 373
q0 22 -17 22q-37 0 -112 -139l-39 26q93 169 204 249.5t257 80.5q96 0 155.5 -38.5t59.5 -100.5q0 -51 -74 -267.5t-74 -240.5q0 -29 23 -29q13 0 30 9t39 27.5t48.5 46.5t57.5 65q5 6 82 242l83 255h485l-147 -452q-67 -206 -70.5 -221.5t-3.5 -24.5q0 -16 12.5 -27.5
t30.5 -11.5q67 0 196 80t211 200.5t82 211.5v22z" />
    <glyph glyph-name="x" unicode="x" horiz-adv-x="1343" 
d="M868 584q196 221 243 249.5t93 28.5q61 0 104.5 -44.5t43.5 -106.5t-45 -107t-105 -45q-38 0 -75 23.5t-56 58.5q-14 27 -20 34t-17 7q-16 0 -61 -50l-84 -93q134 -339 146.5 -365.5t35.5 -26.5q67 0 96 205l39 -10q-20 -184 -98 -266t-264 -82q-105 0 -171 25.5t-95 69
t-70 136.5q-151 -174 -209.5 -202.5t-122.5 -28.5q-78 0 -129 48t-51 120q0 65 45 108t111 43q59 0 101 -40.5t42 -100.5l-2 -59q0 -23 18 -23t98 89t80 93l-101 262q-39 102 -55.5 126t-39.5 24q-55 0 -105 -141l-38 12q42 145 146.5 226t240.5 81q115 0 194.5 -51
t136.5 -227z" />
    <glyph glyph-name="y" unicode="y" horiz-adv-x="1407" 
d="M1411 831l-266 -817q-87 -263 -286 -350.5t-443 -87.5q-196 0 -323.5 69t-127.5 173q0 63 49 109t115 46q69 0 115.5 -47t46.5 -119q0 -99 -98 -151q60 -33 135 -33t133 30t94.5 88t70.5 162l81 238l-5 4q-216 -151 -378 -151q-101 0 -166.5 51.5t-65.5 128.5
q0 58 31 152l84 258q8 20 8 37q0 26 -18 26q-37 0 -109 -135l-43 20q75 154 191.5 237t248.5 83q98 0 156.5 -40t58.5 -101q0 -29 -22 -101l-131 -430q-8 -24 -8 -49q0 -20 18 -20q41 0 170 96l203 624h481z" />
    <glyph glyph-name="z" unicode="z" horiz-adv-x="1110" 
d="M1124 831q-98 -118 -145 -165.5t-113 -98.5t-138 -93.5t-163.5 -80t-142.5 -59.5v-4h14q151 0 315 -78q107 -51 119 -51q21 0 21 22q0 17 -21 29q-61 37 -83.5 64.5t-22.5 66.5q0 47 35 79t88 32q64 0 106.5 -47.5t42.5 -118.5q0 -127 -100.5 -241t-282.5 -114
q-123 0 -276 50q-166 55 -242 55q-49 0 -87.5 -24t-84.5 -74l-37 28q40 64 101 127t137.5 119t145.5 91.5t282 121.5q69 28 121 70l-4 4q-52 -11 -95 -11q-167 0 -329 105q-13 10 -27 10q-18 0 -18 -18q0 -16 30 -49q43 -48 43 -97q0 -42 -29 -71t-71 -29q-57 0 -95 45.5
t-38 114.5q0 124 110 217.5t259 93.5q84 0 213 -35q111 -32 141 -38.5t65 -6.5q103 0 222 90z" />
    <glyph glyph-name="braceleft" unicode="{" horiz-adv-x="811" 
d="M702 -410q-180 0 -303 98.5t-123 239.5q0 48 43 252q12 52 12 101q0 61 -50 112t-134 70v57q89 18 136.5 69t47.5 126q0 30 -37 209q-16 75 -16 131q0 63 39 134t97 115.5t113 60.5t175 26v-50q-92 -15 -135 -58t-43 -124q0 -47 8 -81l27 -111q16 -66 16 -123
q0 -134 -96 -228t-248 -124v-5q344 -80 344 -360q0 -41 -11 -91l-30 -130q-10 -45 -10 -84q0 -84 45.5 -127.5t132.5 -56.5v-48z" />
    <glyph glyph-name="bar" unicode="|" horiz-adv-x="1251" 
d="M752 -276h-250v1701h250v-1701z" />
    <glyph glyph-name="braceright" unicode="}" horiz-adv-x="811" 
d="M702 459q-88 -16 -135 -67.5t-47 -125.5q0 -44 8 -80q33 -149 39 -185t6 -75q0 -64 -39 -134.5t-97 -115t-113 -60.5t-175 -26v48q92 17 135 60t43 124q0 40 -10 88q-41 174 -41 227q0 133 96 228t248 124v5q-344 80 -344 358q0 42 10 86q33 142 37 166t4 55
q0 99 -58.5 138t-119.5 46v48q179 0 301.5 -99t122.5 -239q0 -36 -5 -71.5t-38 -182.5q-10 -41 -10 -99q0 -61 49.5 -112t132.5 -70v-59z" />
    <glyph glyph-name="asciitilde" unicode="~" horiz-adv-x="1366" 
d="M1243 877q-4 -189 -88.5 -288.5t-212.5 -99.5q-72 0 -141 21t-242 94q-130 58 -203 58q-134 0 -157 -173h-76q6 202 89.5 295t209.5 93q131 0 385 -113q136 -62 192 -62q148 0 168 175h76z" />
    <glyph glyph-name="nbspace" unicode="&#xa0;" horiz-adv-x="705" 
 />
    <glyph glyph-name="exclamdown" unicode="&#xa1;" horiz-adv-x="725" 
d="M492 979q106 0 176.5 -51t70.5 -125q0 -78 -77.5 -132.5t-188.5 -54.5q-103 0 -175.5 51.5t-72.5 123.5q0 77 78 132.5t189 55.5zM449 -129q0 -111 -21 -163t-81 -92t-152 -40q-86 0 -134.5 39t-48.5 109t41 153l342 696h54v-702z" />
    <glyph glyph-name="cent" unicode="&#xa2;" 
d="M1001 1116q137 -23 214 -89.5t77 -166.5q0 -74 -51.5 -125t-126.5 -51t-128.5 54t-53.5 130q0 64 41 119t137 55v5q-52 26 -113 26q-39 0 -71 -21t-48.5 -51t-68.5 -191l-91 -277q-38 -116 -38 -140q0 -69 133 -69q178 0 361 206l32 -24q-181 -246 -434 -246h-57
l-62 -186h-49l64 188q-71 12 -121 33l-74 -221h-51l80 233q-244 118 -244 340q0 173 138.5 306.5t371.5 166.5l39 115h47l-33 -111q22 2 51 2q45 0 82 -4l35 113h49z" />
    <glyph glyph-name="sterling" unicode="&#xa3;" 
d="M408 778q72 228 110 308.5t101.5 140.5t184 100.5t298.5 40.5q225 0 327.5 -85.5t102.5 -192.5q0 -77 -50 -129t-124 -52q-67 0 -114.5 44t-47.5 106q0 60 40 101.5t97 41.5q42 0 68.5 -15.5t60.5 -49.5l4 4q-16 68 -71.5 112.5t-120.5 44.5q-68 0 -106.5 -49.5
t-68.5 -139.5l-108 -331h260l-14 -41h-258l-23 -65h261l-13 -41h-260q-86 -267 -98.5 -297.5t-45.5 -90t-91 -110.5q97 -35 190 -35q142 0 245 55.5t173 208.5l41 -14q-64 -188 -150 -276t-225 -88q-162 0 -321 106q-86 -53 -157 -75.5t-179 -22.5q-180 0 -284.5 56
t-104.5 149q0 52 37 87t94 35q35 0 60 -7.5t81 -35.5q6 -4 29 -14l120 369h-174l15 41h174l20 65h-170l10 41h175zM223 213q-96 61 -153 61q-32 0 -54 -19.5t-22 -45.5q0 -39 28 -66.5t68 -27.5q69 0 133 98z" />
    <glyph glyph-name="currency" unicode="&#xa4;" horiz-adv-x="1434" 
d="M1323 305l-162 -162l-133 133q-117 -69 -246 -69q-132 0 -244 67l-131 -131l-164 162l133 133q-67 116 -67 242q0 119 67 244l-133 135l160 164l135 -138q120 68 244 68q121 0 244 -68l135 138l162 -164l-136 -135q68 -114 68 -244q0 -135 -68 -242zM782 436
q101 0 173.5 71.5t72.5 172.5t-72.5 173.5t-173.5 72.5t-172.5 -72.5t-71.5 -173.5t71.5 -172.5t172.5 -71.5z" />
    <glyph glyph-name="yen" unicode="&#xa5;" horiz-adv-x="1681" 
d="M1927 1341l-14 -47q-74 -6 -163.5 -59t-250.5 -240h148l-17 -51h-176l-250 -287l-8 -30h332l-17 -49h-331l-172 -531h186l-14 -47h-985l14 47h190l172 531h-323l16 49h322l-125 317h-191l17 51h155l-116 299h-99l15 47h852l-17 -47h-116l120 -299h344q103 101 103 185
q0 89 -127 114l14 47h512zM1382 944h-282l90 -221z" />
    <glyph glyph-name="brokenbar" unicode="&#xa6;" horiz-adv-x="1251" 
d="M805 692h-250v733h250v-733zM805 -276h-250v733h250v-733z" />
    <glyph glyph-name="section" unicode="&#xa7;" horiz-adv-x="1366" 
d="M461 901q-70 112 -70 199q0 106 84 190t316 84q288 0 417 -98t129 -215q0 -74 -47 -122t-121 -48q-69 0 -117 46t-48 112q0 59 40 97t103 38q80 0 153 -68q-16 85 -136.5 160.5t-358.5 75.5q-98 0 -178 -15q25 -104 98.5 -195t228.5 -247q180 -177 251 -282.5t71 -209.5
q0 -234 -305 -317q76 -96 76 -199q0 -131 -114 -202.5t-325 -71.5q-237 0 -377.5 87t-140.5 230q0 72 47.5 120t118.5 48q70 0 118 -43.5t48 -107.5q0 -63 -41 -102.5t-109 -39.5q-66 0 -141 62l-4 -4q24 -89 141.5 -157t329.5 -68q121 0 207 20q-32 128 -182 283l-256 269
q-126 133 -168.5 211t-42.5 159q0 104 76 192.5t229 128.5zM1122 178q-145 203 -456 495q-117 110 -187 206q-97 -18 -164 -66q109 -163 283 -330q300 -284 358 -374q100 22 166 69z" />
    <glyph glyph-name="dieresis" unicode="&#xa8;" horiz-adv-x="682" 
d="M762 1288q87 0 147 -41.5t60 -99.5q0 -61 -58.5 -103.5t-144.5 -42.5q-85 0 -145 42.5t-60 101.5q0 58 59 100.5t142 42.5zM293 1288q85 0 145 -43t60 -102q0 -58 -60 -100t-143 -42q-88 0 -146.5 41.5t-58.5 102.5q0 60 58.5 101.5t144.5 41.5z" />
    <glyph glyph-name="copyright" unicode="&#xa9;" horiz-adv-x="1579" 
d="M819 1407q304 0 519.5 -216t215.5 -519t-215.5 -519t-519.5 -216q-302 0 -517.5 216t-215.5 519q0 196 98.5 367t268.5 269.5t366 98.5zM819 51q257 0 441 183.5t184 441.5q0 256 -184 439t-441 183t-439.5 -182.5t-182.5 -439.5q0 -258 182.5 -441.5t439.5 -183.5z
M1149 406q-114 -140 -305 -140q-178 0 -298 114t-120 282q0 170 124 289.5t302 119.5q81 0 199 -47q8 -4 24 -4q33 0 37 43h37v-260h-37q-13 98 -67 152.5t-134 54.5q-104 0 -166.5 -94.5t-62.5 -253.5q0 -149 61.5 -235.5t167.5 -86.5q134 0 238 133v-67z" />
    <glyph glyph-name="ordfeminine" unicode="&#xaa;" horiz-adv-x="897" 
d="M973 1354q-139 -402 -139 -408q0 -8 8 -8q33 0 82 117l41 -19q-77 -192 -258 -192q-105 0 -168 84q-104 -84 -220 -84q-93 0 -155 50.5t-62 125.5q0 137 134 244.5t303 107.5q35 0 62 -8l42 -12zM631 1307q-20 22 -45 22q-19 0 -31.5 -17.5t-44.5 -110.5l-56 -161
q-24 -68 -24 -92q0 -20 14 -20q28 0 80 45q2 33 23 92z" />
    <glyph glyph-name="guillemotleft" unicode="&#xab;" horiz-adv-x="1343" 
d="M1348 733l-465 -309l309 -309h-352l-322 309l465 309h365zM840 733l-453 -309l307 -309h-360l-320 309l467 309h359z" />
    <glyph glyph-name="logicalnot" unicode="&#xac;" horiz-adv-x="1366" 
d="M1300 322h-247v487h-877v248h1124v-735z" />
    <glyph glyph-name="sfthyphen" unicode="&#xad;" horiz-adv-x="768" 
d="M756 662l-125 -386h-604l125 386h604z" />
    <glyph glyph-name="registered" unicode="&#xae;" horiz-adv-x="1579" 
d="M819 1407q304 0 519.5 -216t215.5 -519t-215.5 -519t-519.5 -216q-302 0 -517.5 216t-215.5 519q0 196 98.5 367t268.5 269.5t366 98.5zM819 51q257 0 441 183.5t184 441.5q0 256 -184 439t-441 183t-439.5 -182.5t-182.5 -439.5q0 -258 182.5 -441.5t439.5 -183.5z
M1249 303h-288l-193 342h-27v-174q0 -69 17.5 -99t83.5 -34v-35h-426v35q68 7 84 31.5t16 113.5v426q0 65 -17.5 89.5t-82.5 31.5v37h344q241 0 316 -65.5t75 -157.5q0 -138 -147 -180q171 -297 182.5 -310.5t62.5 -15.5v-35zM741 688q85 2 117.5 16t51 52.5t18.5 109.5
q0 152 -150 152l-37 -2v-328z" />
    <glyph glyph-name="overscore" unicode="&#xaf;" horiz-adv-x="1024" 
d="M1042 1493h-1060v102h1060v-102z" />
    <glyph glyph-name="degree" unicode="&#xb0;" horiz-adv-x="840" 
d="M547 1384q140 0 242 -101.5t102 -242.5t-101.5 -242.5t-242.5 -101.5q-142 0 -243 101t-101 243t100.5 243t243.5 101zM547 844q79 0 136.5 58t57.5 138t-57.5 137.5t-136.5 57.5q-81 0 -139 -57.5t-58 -137.5q0 -81 58 -138.5t139 -57.5z" />
    <glyph glyph-name="plusminus" unicode="&#xb1;" horiz-adv-x="1366" 
d="M1300 743h-438v-438h-248v438h-438v248h438v439h248v-439h438v-248zM1300 -66h-1124v248h1124v-248z" />
    <glyph glyph-name="twosuperior" unicode="&#xb2;" horiz-adv-x="831" 
d="M313 1284q22 2 37 2q45 0 75 -27.5t30 -64.5q0 -52 -40.5 -86.5t-101.5 -34.5q-53 0 -89 29t-36 72q0 84 96.5 141t245.5 57q175 0 283.5 -62t108.5 -159q0 -55 -42 -108.5t-118 -87.5t-250 -54q-84 -9 -115 -16v-4q94 0 209 -25q79 -18 113 -18q55 0 96 59l39 -23
q-48 -97 -120 -163t-181 -66q-66 0 -152 21q-135 32 -198 32q-97 0 -168 -59l-37 27q114 116 178.5 157t142.5 72q130 53 172.5 91.5t72.5 117.5t30 137q0 94 -109 94q-96 0 -178 -47z" />
    <glyph glyph-name="threesuperior" unicode="&#xb3;" horiz-adv-x="831" 
d="M406 1307h8q37 0 63.5 -27.5t26.5 -62.5q0 -41 -34 -70t-83 -29q-46 0 -80.5 28t-34.5 64q0 70 82.5 113t214.5 43q126 0 207.5 -45.5t81.5 -112.5q0 -58 -47 -105t-131 -67q100 -50 100 -127q0 -110 -117 -190t-284 -80q-142 0 -229 48.5t-87 125.5q0 41 39.5 74
t90.5 33q52 0 89 -32.5t37 -76.5q0 -98 -108 -104v-5q40 -18 78 -18q48 0 74 18.5t49 79.5l49 133q26 71 26 78q0 25 -65 25h-16l12 37l12 -2h37q33 0 45 16.5t49 112t37 112.5q0 37 -80 37q-49 0 -112 -20v-4z" />
    <glyph glyph-name="acute" unicode="&#xb4;" horiz-adv-x="682" 
d="M809 1253l-502 -288h-45l250 333h297v-45z" />
    <glyph glyph-name="mu1" unicode="&#xb5;" horiz-adv-x="1147" 
d="M1120 899l-194 -667q-15 -53 -15 -78q0 -58 43 -58q26 0 42.5 19t74.5 106l39 -18q-95 -234 -283 -234q-90 0 -139 47.5t-49 135.5q0 35 6 65l-4 4q-98 -149 -178.5 -199.5t-165.5 -50.5q-122 0 -160 113h-4q-41 -130 -41 -221l2 -99v-8q0 -97 -37 -149.5t-104 -52.5
q-49 0 -82 32.5t-33 79.5q0 41 25 90q75 113 129.5 221.5t155.5 458.5l133 463h299l-177 -590q-22 -76 -22 -106v-6q0 -27 17 -43.5t44 -16.5q54 0 106 49.5t99.5 147t87.5 241.5l90 324h295z" />
    <glyph glyph-name="paragraph" unicode="&#xb6;" horiz-adv-x="1194" 
d="M1260 1311q-82 -6 -118.5 -16.5t-52.5 -42.5t-16 -144v-1550h-119v1708h-182v-1708h-123v811q-339 23 -458 158.5t-119 330.5q0 173 88.5 299.5t219.5 159.5t392 33h488v-39z" />
    <glyph glyph-name="middot" unicode="&#xb7;" horiz-adv-x="682" 
d="M362 834q104 0 177 -51.5t73 -120.5q0 -83 -73.5 -138t-186.5 -55q-110 0 -181 49.5t-71 124.5q0 79 76.5 135t185.5 56z" />
    <glyph glyph-name="cedilla" unicode="&#xb8;" horiz-adv-x="682" 
d="M188 -78q40 10 72 10q82 0 128 -40.5t46 -112.5q0 -96 -85 -168t-202 -72q-128 0 -180 86l53 23q44 -49 70 -49q22 0 36 20t44.5 109t30.5 98q0 35 -37 35q-31 0 -60 -37l-49 16l58 174h98z" />
    <glyph glyph-name="onesuperior" unicode="&#xb9;" horiz-adv-x="831" 
d="M788 1362l-253 -674h98l-15 -35h-491l14 35h82l223 596h-94l13 37h10q207 0 284.5 10.5t128.5 30.5z" />
    <glyph glyph-name="ordmasculine" unicode="&#xba;" horiz-adv-x="811" 
d="M541 1372q150 0 246 -62t96 -157q0 -131 -126.5 -220t-316.5 -89q-147 0 -238 66.5t-91 172.5q0 120 124 204.5t306 84.5zM424 885q29 0 43 27t73.5 200t59.5 186q0 33 -37 33q-20 0 -33.5 -19.5t-47.5 -117.5l-61 -176q-28 -79 -28 -100q0 -33 31 -33z" />
    <glyph glyph-name="guillemotright" unicode="&#xbb;" horiz-adv-x="1343" 
d="M1319 426l-465 -311h-360l454 311l-309 307h362zM815 426l-465 -311h-362l463 311l-308 307h351z" />
    <glyph glyph-name="onequarter" unicode="&#xbc;" horiz-adv-x="1749" 
d="M791 1362l-253 -674h98l-15 -35h-491l14 35h82l223 596h-94l13 37h10q207 0 284.5 10.5t128.5 30.5zM1492 1354l-1041 -1368h-92l1042 1368h91zM1705 700l-180 -479h71l-12 -37h-74l-55 -149h98l-12 -35h-536l14 35h123l57 149h-348l571 516h283zM1338 553l-4 4
l-366 -336h243z" />
    <glyph glyph-name="onehalf" unicode="&#xbd;" horiz-adv-x="1749" 
d="M791 1362l-253 -674h98l-15 -35h-491l14 35h82l223 596h-94l13 37h10q207 0 284.5 10.5t128.5 30.5zM1469 1354l-1041 -1368h-92l1042 1368h91zM1149 631q22 2 37 2q45 0 75 -27.5t30 -64.5q0 -52 -40.5 -86.5t-101.5 -34.5q-53 0 -89 29t-36 72q0 84 96.5 141t245.5 57
q175 0 283.5 -62t108.5 -159q0 -55 -42 -108.5t-118 -87.5t-250 -54q-84 -9 -115 -16v-4q94 0 209 -25q79 -18 113 -18q55 0 96 59l39 -23q-48 -97 -120 -163t-181 -66q-66 0 -152 21q-135 32 -198 32q-97 0 -168 -59l-37 27q114 116 178.5 157t142.5 72q130 53 172.5 91.5
t72.5 117.5t30 137q0 94 -109 94q-96 0 -178 -47z" />
    <glyph glyph-name="threequarters" unicode="&#xbe;" horiz-adv-x="1749" 
d="M417 1307h8q37 0 63.5 -27.5t26.5 -62.5q0 -41 -34 -70t-83 -29q-46 0 -80.5 28t-34.5 64q0 70 82.5 113t214.5 43q126 0 207.5 -45.5t81.5 -112.5q0 -58 -47 -105t-131 -67q100 -50 100 -127q0 -110 -117 -190t-284 -80q-142 0 -229 48.5t-87 125.5q0 41 39.5 74
t90.5 33q52 0 89 -32.5t37 -76.5q0 -98 -108 -104v-5q40 -18 78 -18q48 0 74 18.5t49 79.5l49 133q26 71 26 78q0 25 -65 25h-16l12 37l12 -2h37q33 0 45 16.5t49 112t37 112.5q0 37 -80 37q-49 0 -112 -20v-4zM1493 1354l-1041 -1368h-92l1042 1368h91zM1705 700l-180 -479
h71l-12 -37h-74l-55 -149h98l-12 -35h-536l14 35h123l57 149h-348l571 516h283zM1338 553l-4 4l-366 -336h243z" />
    <glyph glyph-name="questiondown" unicode="&#xbf;" horiz-adv-x="1130" 
d="M905 979q109 0 183.5 -53t74.5 -127q0 -76 -75 -129.5t-183 -53.5q-106 0 -183 54t-77 127t77 127.5t183 54.5zM797 -240q-42 -24 -76 -24q-70 0 -119 47t-49 115q0 66 48 114.5t114 48.5q72 0 125 -54.5t53 -129.5q0 -115 -115.5 -190.5t-292.5 -75.5q-213 0 -342 102
t-129 269q0 227 206.5 383.5t563.5 158.5l17 51h49l-127 -391h-12q-185 0 -306.5 -91t-121.5 -226q0 -96 65.5 -152.5t177.5 -56.5q171 0 275 98z" />
    <glyph glyph-name="Agrave" unicode="&#xc0;" horiz-adv-x="1706" 
d="M1597 47l-14 -47h-878l14 47h180l-39 332h-518q-72 -104 -72 -174q0 -67 53 -112.5t132 -45.5h43l-17 -47h-581l14 47h4q94 0 169 76.5t155 200.5l657 1017h436l148 -1294h114zM854 428l-70 629h-4l-405 -629h479zM1376 1418h-45l-502 288v45h297z" />
    <glyph glyph-name="Aacute" unicode="&#xc1;" horiz-adv-x="1706" 
d="M1597 47l-14 -47h-878l14 47h180l-39 332h-518q-72 -104 -72 -174q0 -67 53 -112.5t132 -45.5h43l-17 -47h-581l14 47h4q94 0 169 76.5t155 200.5l657 1017h436l148 -1294h114zM854 428l-70 629h-4l-405 -629h479zM1376 1706l-502 -288h-45l250 333h297v-45z" />
    <glyph glyph-name="Acircumflex" unicode="&#xc2;" horiz-adv-x="1706" 
d="M1597 47l-14 -47h-878l14 47h180l-39 332h-518q-72 -104 -72 -174q0 -67 53 -112.5t132 -45.5h43l-17 -47h-581l14 47h4q94 0 169 76.5t155 200.5l657 1017h436l148 -1294h114zM854 428l-70 629h-4l-405 -629h479zM1423 1479l-21 -37q-143 12 -291 158
q-182 -132 -364 -146l-12 41q204 90 323 283h162q9 -71 78 -170t125 -129z" />
    <glyph glyph-name="Atilde" unicode="&#xc3;" horiz-adv-x="1706" 
d="M1597 47l-14 -47h-878l14 47h180l-39 332h-518q-72 -104 -72 -174q0 -67 53 -112.5t132 -45.5h43l-17 -47h-581l14 47h4q94 0 169 76.5t155 200.5l657 1017h436l148 -1294h114zM854 428l-70 629h-4l-405 -629h479zM1483 1728q-83 -158 -155.5 -221.5t-155.5 -63.5
q-44 0 -92.5 12t-136.5 48q-32 14 -49 14q-29 0 -54.5 -24t-58.5 -70l-49 24q32 98 129 194.5t219 96.5q49 0 117 -22q7 -5 48 -19t68 -14q72 0 127 74z" />
    <glyph glyph-name="Adieresis" unicode="&#xc4;" horiz-adv-x="1706" 
d="M1597 47l-14 -47h-878l14 47h180l-39 332h-518q-72 -104 -72 -174q0 -67 53 -112.5t132 -45.5h43l-17 -47h-581l14 47h4q94 0 169 76.5t155 200.5l657 1017h436l148 -1294h114zM854 428l-70 629h-4l-405 -629h479zM1329 1741q87 0 147 -41.5t60 -99.5q0 -61 -58.5 -103.5
t-144.5 -42.5q-85 0 -145 42.5t-60 101.5q0 58 59 100.5t142 42.5zM860 1741q85 0 145 -43t60 -102q0 -58 -60 -100t-143 -42q-88 0 -146.5 41.5t-58.5 102.5q0 60 58.5 101.5t144.5 41.5z" />
    <glyph glyph-name="Aring" unicode="&#xc5;" horiz-adv-x="1706" 
d="M1597 47l-14 -47h-878l14 47h180l-39 332h-518q-72 -104 -72 -174q0 -67 53 -112.5t132 -45.5h43l-17 -47h-581l14 47h4q94 0 169 76.5t155 200.5l657 1017h436l148 -1294h114zM854 428l-70 629h-4l-405 -629h479zM1096 1766q92 0 152.5 -54.5t60.5 -136.5
q0 -77 -59 -128.5t-150 -51.5q-92 0 -156.5 53.5t-64.5 128.5q0 78 64 133.5t153 55.5zM1096 1432q60 0 103 43t43 102q0 61 -42.5 103.5t-103.5 42.5q-59 0 -102 -43t-43 -103q0 -59 43 -102t102 -43z" />
    <glyph glyph-name="AE" unicode="&#xc6;" horiz-adv-x="2263" 
d="M2406 1341l-149 -456h-49q10 46 10 88q0 67 -46.5 137t-112.5 111t-134 55t-199 18l-180 -555q149 1 261.5 95t146.5 188h53l-217 -670h-47q22 66 22 113q0 88 -59 153t-176 68l-209 -639h14q123 0 226 30.5t226 98.5t203 142t138 167h43l-158 -485h-1481l17 47h158
l106 328h-498q-110 -113 -135.5 -156.5t-25.5 -77.5q0 -72 141 -100l-23 -41h-477l27 47q68 13 93.5 27t82.5 62t178 175l934 983h-164l17 47h1443zM1071 1169l-4 5l-705 -748h467z" />
    <glyph glyph-name="Ccedilla" unicode="&#xc7;" horiz-adv-x="1450" 
d="M1649 1356l-156 -568h-55q28 110 28 187q0 143 -88.5 244.5t-212.5 101.5q-88 0 -128 -39.5t-81 -165.5l-276 -850q-29 -89 -29 -133q0 -45 49 -76.5t123 -31.5q115 0 247 58.5t233 166.5l36 -37q-223 -242 -551 -242q-24 0 -71 4l-12 -53q39 10 71 10q82 0 128 -40.5
t46 -112.5q0 -97 -85 -168.5t-201 -71.5q-129 0 -181 86l54 23q43 -49 69 -49q22 0 36 20t44.5 109t30.5 98q0 35 -37 35q-31 0 -59 -37l-50 16l31 94q17 53 17 56h-1q-214 47 -346.5 195t-132.5 343q0 215 128 424.5t351 314.5t459 105q216 0 361 -90l164 74h47z" />
    <glyph glyph-name="Egrave" unicode="&#xc8;" horiz-adv-x="1630" 
d="M1774 1341l-150 -456h-49q10 57 10 86q0 132 -129.5 227.5t-310.5 95.5h-53l-179 -553h17q141 0 246 92.5t147 186.5h49l-217 -668h-49q22 70 22 123q0 94 -63 151t-170 60l-209 -639h62q160 0 383.5 118.5t334.5 276.5l9 13q12 17 18 28h43l-158 -483h-1484l14 47h162
l405 1247h-162l17 47h1444zM1381 1418h-45l-502 288v45h297z" />
    <glyph glyph-name="Eacute" unicode="&#xc9;" horiz-adv-x="1630" 
d="M1774 1341l-150 -456h-49q10 57 10 86q0 132 -129.5 227.5t-310.5 95.5h-53l-179 -553h17q141 0 246 92.5t147 186.5h49l-217 -668h-49q22 70 22 123q0 94 -63 151t-170 60l-209 -639h62q160 0 383.5 118.5t334.5 276.5l9 13q12 17 18 28h43l-158 -483h-1484l14 47h162
l405 1247h-162l17 47h1444zM1454 1706l-502 -288h-45l250 333h297v-45z" />
    <glyph glyph-name="Ecircumflex" unicode="&#xca;" horiz-adv-x="1630" 
d="M1774 1341l-150 -456h-49q10 57 10 86q0 132 -129.5 227.5t-310.5 95.5h-53l-179 -553h17q141 0 246 92.5t147 186.5h49l-217 -668h-49q22 70 22 123q0 94 -63 151t-170 60l-209 -639h62q160 0 383.5 118.5t334.5 276.5l9 13q12 17 18 28h43l-158 -483h-1484l14 47h162
l405 1247h-162l17 47h1444zM1476 1479l-21 -37q-143 12 -291 158q-182 -132 -364 -146l-12 41q204 90 323 283h162q9 -71 78 -170t125 -129z" />
    <glyph glyph-name="Edieresis" unicode="&#xcb;" horiz-adv-x="1630" 
d="M1774 1341l-150 -456h-49q10 57 10 86q0 132 -129.5 227.5t-310.5 95.5h-53l-179 -553h17q141 0 246 92.5t147 186.5h49l-217 -668h-49q22 70 22 123q0 94 -63 151t-170 60l-209 -639h62q160 0 383.5 118.5t334.5 276.5l9 13q12 17 18 28h43l-158 -483h-1484l14 47h162
l405 1247h-162l17 47h1444zM1358 1741q87 0 147 -41.5t60 -99.5q0 -61 -58.5 -103.5t-144.5 -42.5q-85 0 -145 42.5t-60 101.5q0 58 59 100.5t142 42.5zM889 1741q85 0 145 -43t60 -102q0 -58 -60 -100t-143 -42q-88 0 -146.5 41.5t-58.5 102.5q0 60 58.5 101.5t144.5 41.5z
" />
    <glyph glyph-name="Igrave" unicode="&#xcc;" horiz-adv-x="1004" 
d="M1257 1341l-14 -47h-160l-405 -1247h160l-17 -47h-930l17 47h162l405 1247h-162l15 47h929zM1114 1418h-45l-502 288v45h297z" />
    <glyph glyph-name="Iacute" unicode="&#xcd;" horiz-adv-x="1004" 
d="M1257 1341l-14 -47h-160l-405 -1247h160l-17 -47h-930l17 47h162l405 1247h-162l15 47h929zM1151 1706l-502 -288h-45l250 333h297v-45z" />
    <glyph glyph-name="Icircumflex" unicode="&#xce;" horiz-adv-x="1004" 
d="M1257 1341l-14 -47h-160l-405 -1247h160l-17 -47h-930l17 47h162l405 1247h-162l15 47h929zM1182 1479l-21 -37q-143 12 -291 158q-182 -132 -364 -146l-12 41q204 90 323 283h162q9 -71 78 -170t125 -129z" />
    <glyph glyph-name="Idieresis" unicode="&#xcf;" horiz-adv-x="1004" 
d="M1257 1341l-14 -47h-160l-405 -1247h160l-17 -47h-930l17 47h162l405 1247h-162l15 47h929zM1096 1741q87 0 147 -41.5t60 -99.5q0 -61 -58.5 -103.5t-144.5 -42.5q-85 0 -145 42.5t-60 101.5q0 58 59 100.5t142 42.5zM627 1741q85 0 145 -43t60 -102q0 -58 -60 -100
t-143 -42q-88 0 -146.5 41.5t-58.5 102.5q0 60 58.5 101.5t144.5 41.5z" />
    <glyph glyph-name="Eth" unicode="&#xd0;" horiz-adv-x="1772" 
d="M328 1341h800q191 0 294 -21.5t191.5 -83t136.5 -161.5t48 -231q0 -179 -81.5 -355.5t-209.5 -290t-260.5 -156t-331.5 -42.5h-1024l15 47h164l200 617h-151l14 47h152l190 583h-164zM684 47h80q95 0 146.5 47.5t90.5 169.5l267 817q22 74 22 115q0 98 -143 98h-57
l-191 -583h129l-14 -47h-129z" />
    <glyph glyph-name="Ntilde" unicode="&#xd1;" horiz-adv-x="1642" 
d="M1923 1341l-16 -47q-112 -1 -183.5 -76.5t-115.5 -211.5l-326 -1006h-342l-440 1145h-4l-254 -795q-23 -75 -23 -125q0 -74 61.5 -124.5t165.5 -53.5l-16 -47h-569l14 47q57 0 90.5 12t78 48t75 88t63.5 153l283 871l-35 75h-115l17 47h715l327 -880h4
q166 515 179.5 559.5t13.5 85.5q0 183 -232 188l15 47h569zM1536 1728q-83 -158 -155.5 -221.5t-155.5 -63.5q-44 0 -92.5 12t-136.5 48q-32 14 -49 14q-29 0 -54.5 -24t-58.5 -70l-49 24q32 98 129 194.5t219 96.5q49 0 117 -22q7 -5 48 -19t68 -14q72 0 127 74z" />
    <glyph glyph-name="Ograve" unicode="&#xd2;" horiz-adv-x="1686" 
d="M1047 1372q284 0 475.5 -161.5t191.5 -397.5q0 -221 -123 -417t-334 -310.5t-450 -114.5q-303 0 -485.5 151.5t-182.5 399.5q0 217 126 415.5t338 316.5t444 118zM1200 1108q25 74 25 121q0 38 -26 62t-66 24q-57 0 -100.5 -46t-90.5 -192l-268 -829q-35 -112 -35 -150
q0 -36 26.5 -59t69.5 -23q68 0 107.5 58.5t83.5 191.5zM1401 1418h-45l-502 288v45h297z" />
    <glyph glyph-name="Oacute" unicode="&#xd3;" horiz-adv-x="1686" 
d="M1047 1372q284 0 475.5 -161.5t191.5 -397.5q0 -221 -123 -417t-334 -310.5t-450 -114.5q-303 0 -485.5 151.5t-182.5 399.5q0 217 126 415.5t338 316.5t444 118zM1200 1108q25 74 25 121q0 38 -26 62t-66 24q-57 0 -100.5 -46t-90.5 -192l-268 -829q-35 -112 -35 -150
q0 -36 26.5 -59t69.5 -23q68 0 107.5 58.5t83.5 191.5zM1548 1706l-502 -288h-45l250 333h297v-45z" />
    <glyph glyph-name="Ocircumflex" unicode="&#xd4;" horiz-adv-x="1686" 
d="M1047 1372q284 0 475.5 -161.5t191.5 -397.5q0 -221 -123 -417t-334 -310.5t-450 -114.5q-303 0 -485.5 151.5t-182.5 399.5q0 217 126 415.5t338 316.5t444 118zM1200 1108q25 74 25 121q0 38 -26 62t-66 24q-57 0 -100.5 -46t-90.5 -192l-268 -829q-35 -112 -35 -150
q0 -36 26.5 -59t69.5 -23q68 0 107.5 58.5t83.5 191.5zM1513 1479l-21 -37q-143 12 -291 158q-182 -132 -364 -146l-12 41q204 90 323 283h162q9 -71 78 -170t125 -129z" />
    <glyph glyph-name="Otilde" unicode="&#xd5;" horiz-adv-x="1686" 
d="M1047 1372q284 0 475.5 -161.5t191.5 -397.5q0 -221 -123 -417t-334 -310.5t-450 -114.5q-303 0 -485.5 151.5t-182.5 399.5q0 217 126 415.5t338 316.5t444 118zM1200 1108q25 74 25 121q0 38 -26 62t-66 24q-57 0 -100.5 -46t-90.5 -192l-268 -829q-35 -112 -35 -150
q0 -36 26.5 -59t69.5 -23q68 0 107.5 58.5t83.5 191.5zM1606 1728q-83 -158 -155.5 -221.5t-155.5 -63.5q-44 0 -92.5 12t-136.5 48q-32 14 -49 14q-29 0 -54.5 -24t-58.5 -70l-49 24q32 98 129 194.5t219 96.5q49 0 117 -22q7 -5 48 -19t68 -14q72 0 127 74z" />
    <glyph glyph-name="Odieresis" unicode="&#xd6;" horiz-adv-x="1686" 
d="M1047 1372q284 0 475.5 -161.5t191.5 -397.5q0 -221 -123 -417t-334 -310.5t-450 -114.5q-303 0 -485.5 151.5t-182.5 399.5q0 217 126 415.5t338 316.5t444 118zM1200 1108q25 74 25 121q0 38 -26 62t-66 24q-57 0 -100.5 -46t-90.5 -192l-268 -829q-35 -112 -35 -150
q0 -36 26.5 -59t69.5 -23q68 0 107.5 58.5t83.5 191.5zM1387 1741q87 0 147 -41.5t60 -99.5q0 -61 -58.5 -103.5t-144.5 -42.5q-85 0 -145 42.5t-60 101.5q0 58 59 100.5t142 42.5zM918 1741q85 0 145 -43t60 -102q0 -58 -60 -100t-143 -42q-88 0 -146.5 41.5t-58.5 102.5
q0 60 58.5 101.5t144.5 41.5z" />
    <glyph glyph-name="multiply" unicode="&#xd7;" horiz-adv-x="1366" 
d="M1276 1040l-361 -362l359 -356l-176 -175l-357 357l-358 -357l-176 175l358 356l-362 362l176 174l360 -360l361 360z" />
    <glyph glyph-name="Oslash" unicode="&#xd8;" horiz-adv-x="1686" 
d="M1808 1120l-149 -84q55 -113 55 -223q0 -188 -111.5 -396t-331 -327t-470.5 -119q-185 0 -341.5 67t-248.5 189l-152 -84l-26 62l153 84q-49 117 -49 223q0 220 126 421t339 320t447 119q355 0 583 -270l150 80zM1100 805q95 284 108 332.5t13 89.5q0 42 -29 70t-74 28
q-94 0 -136 -123l-187 -567zM1075 717l-307 -172q-100 -308 -113.5 -353t-13.5 -79q0 -41 30 -69t74 -28q63 0 97 46t67 147z" />
    <glyph glyph-name="Ugrave" unicode="&#xd9;" horiz-adv-x="1556" 
d="M1870 1341l-17 -47q-62 0 -93 -10.5t-69 -42.5t-67.5 -79t-70.5 -173l-199 -614q-49 -152 -99.5 -213.5t-135.5 -108t-183 -65.5t-215 -19q-576 0 -576 312q0 63 31 157l279 856h-166l14 47h950l-16 -47h-176l-322 -989q-30 -92 -30 -125q0 -48 49 -81t123 -33
q75 0 146.5 25t128.5 71t86 100.5t98 265.5l122 374q54 163 54 224q0 74 -55 119.5t-154 48.5l14 47h549zM1436 1418h-45l-502 288v45h297z" />
    <glyph glyph-name="Uacute" unicode="&#xda;" horiz-adv-x="1556" 
d="M1870 1341l-17 -47q-62 0 -93 -10.5t-69 -42.5t-67.5 -79t-70.5 -173l-199 -614q-49 -152 -99.5 -213.5t-135.5 -108t-183 -65.5t-215 -19q-576 0 -576 312q0 63 31 157l279 856h-166l14 47h950l-16 -47h-176l-322 -989q-30 -92 -30 -125q0 -48 49 -81t123 -33
q75 0 146.5 25t128.5 71t86 100.5t98 265.5l122 374q54 163 54 224q0 74 -55 119.5t-154 48.5l14 47h549zM1559 1706l-502 -288h-45l250 333h297v-45z" />
    <glyph glyph-name="Ucircumflex" unicode="&#xdb;" horiz-adv-x="1556" 
d="M1870 1341l-17 -47q-62 0 -93 -10.5t-69 -42.5t-67.5 -79t-70.5 -173l-199 -614q-49 -152 -99.5 -213.5t-135.5 -108t-183 -65.5t-215 -19q-576 0 -576 312q0 63 31 157l279 856h-166l14 47h950l-16 -47h-176l-322 -989q-30 -92 -30 -125q0 -48 49 -81t123 -33
q75 0 146.5 25t128.5 71t86 100.5t98 265.5l122 374q54 163 54 224q0 74 -55 119.5t-154 48.5l14 47h549zM1536 1479l-21 -37q-143 12 -291 158q-182 -132 -364 -146l-12 41q204 90 323 283h162q9 -71 78 -170t125 -129z" />
    <glyph glyph-name="Udieresis" unicode="&#xdc;" horiz-adv-x="1556" 
d="M1870 1341l-17 -47q-62 0 -93 -10.5t-69 -42.5t-67.5 -79t-70.5 -173l-199 -614q-49 -152 -99.5 -213.5t-135.5 -108t-183 -65.5t-215 -19q-576 0 -576 312q0 63 31 157l279 856h-166l14 47h950l-16 -47h-176l-322 -989q-30 -92 -30 -125q0 -48 49 -81t123 -33
q75 0 146.5 25t128.5 71t86 100.5t98 265.5l122 374q54 163 54 224q0 74 -55 119.5t-154 48.5l14 47h549zM1397 1741q87 0 147 -41.5t60 -99.5q0 -61 -58.5 -103.5t-144.5 -42.5q-85 0 -145 42.5t-60 101.5q0 58 59 100.5t142 42.5zM928 1741q85 0 145 -43t60 -102
q0 -58 -60 -100t-143 -42q-88 0 -146.5 41.5t-58.5 102.5q0 60 58.5 101.5t144.5 41.5z" />
    <glyph glyph-name="Yacute" unicode="&#xdd;" horiz-adv-x="1706" 
d="M1929 1341l-16 -47q-52 -7 -84 -20q-52 -21 -97 -53q-53 -36 -114 -96q-39 -39 -100 -109l-249 -287q-63 -72 -129 -275l-132 -407h186l-14 -47h-985l14 47h190l189 578l-262 669h-99l17 47h850l-15 -47h-118l229 -571l251 287q44 51 65.5 90.5t21.5 79.5q0 92 -127 114
l16 47h512zM1567 1706l-502 -288h-45l250 333h297v-45z" />
    <glyph glyph-name="Thorn" unicode="&#xde;" horiz-adv-x="1706" 
d="M1028 1114h229q188 0 293 -39t172.5 -132t67.5 -212q0 -218 -208.5 -364t-651.5 -146q-138 0 -185 19l-61 -193h219l-16 -47h-989l14 47h158l405 1247h-158l17 47h987l-14 -47h-217zM760 291q48 -12 82 -12q41 0 72.5 14.5t54 44.5t50.5 110l141 406q34 98 34 135
q0 43 -28 60.5t-99 17.5h-55z" />
    <glyph glyph-name="germandbls" unicode="&#xdf;" horiz-adv-x="1536" 
d="M-4 0l227 694q40 125 107 247t172.5 213.5t281.5 152.5t387 61q175 0 271 -48.5t96 -133.5q0 -95 -105 -191t-282 -147v-4q199 -9 287 -99.5t88 -212.5q0 -198 -170 -368t-545 -170q-22 0 -184 6l10 33q185 4 294 244t109 339q0 48 -28 86.5t-61.5 53t-112.5 18.5l-25 2
l14 43q65 10 111.5 45.5t96.5 186t50 196.5q0 58 -55 58q-53 0 -111.5 -59.5t-123.5 -260.5l-320 -985h-479z" />
    <glyph glyph-name="agrave" unicode="&#xe0;" 
d="M1376 831q-186 -573 -201.5 -618t-15.5 -63q0 -10 9 -18.5t18 -8.5q22 0 65 58.5t76 135.5l39 -18q-124 -305 -389 -305q-88 0 -158.5 43t-97.5 115q-166 -158 -359 -158q-141 0 -232 81t-91 206q0 220 206 400.5t460 180.5q120 0 188 -55l6 24h477zM879 768
q-46 45 -93 45q-34 0 -59 -26.5t-41 -75.5l-154 -476q-14 -41 -14 -75q0 -49 41 -49q52 0 152 86q2 53 32 149zM1184 965h-45l-502 288v45h297z" />
    <glyph glyph-name="aacute" unicode="&#xe1;" 
d="M1376 831q-186 -573 -201.5 -618t-15.5 -63q0 -10 9 -18.5t18 -8.5q22 0 65 58.5t76 135.5l39 -18q-124 -305 -389 -305q-88 0 -158.5 43t-97.5 115q-166 -158 -359 -158q-141 0 -232 81t-91 206q0 220 206 400.5t460 180.5q120 0 188 -55l6 24h477zM879 768
q-46 45 -93 45q-34 0 -59 -26.5t-41 -75.5l-154 -476q-14 -41 -14 -75q0 -49 41 -49q52 0 152 86q2 53 32 149zM1209 1253l-502 -288h-45l250 333h297v-45z" />
    <glyph glyph-name="acircumflex" unicode="&#xe2;" 
d="M1376 831q-186 -573 -201.5 -618t-15.5 -63q0 -10 9 -18.5t18 -8.5q22 0 65 58.5t76 135.5l39 -18q-124 -305 -389 -305q-88 0 -158.5 43t-97.5 115q-166 -158 -359 -158q-141 0 -232 81t-91 206q0 220 206 400.5t460 180.5q120 0 188 -55l6 24h477zM879 768
q-46 45 -93 45q-34 0 -59 -26.5t-41 -75.5l-154 -476q-14 -41 -14 -75q0 -49 41 -49q52 0 152 86q2 53 32 149zM1214 1026l-21 -37q-143 12 -291 158q-182 -132 -364 -146l-12 41q204 90 323 283h162q9 -71 78 -170t125 -129z" />
    <glyph glyph-name="atilde" unicode="&#xe3;" 
d="M1376 831q-186 -573 -201.5 -618t-15.5 -63q0 -10 9 -18.5t18 -8.5q22 0 65 58.5t76 135.5l39 -18q-124 -305 -389 -305q-88 0 -158.5 43t-97.5 115q-166 -158 -359 -158q-141 0 -232 81t-91 206q0 220 206 400.5t460 180.5q120 0 188 -55l6 24h477zM879 768
q-46 45 -93 45q-34 0 -59 -26.5t-41 -75.5l-154 -476q-14 -41 -14 -75q0 -49 41 -49q52 0 152 86q2 53 32 149zM1290 1276q-83 -158 -155.5 -221.5t-155.5 -63.5q-44 0 -92.5 12t-136.5 48q-32 14 -49 14q-29 0 -54.5 -24t-58.5 -70l-49 24q32 98 129 194.5t219 96.5
q49 0 117 -22q7 -5 48 -19t68 -14q72 0 127 74z" />
    <glyph glyph-name="adieresis" unicode="&#xe4;" 
d="M1376 831q-186 -573 -201.5 -618t-15.5 -63q0 -10 9 -18.5t18 -8.5q22 0 65 58.5t76 135.5l39 -18q-124 -305 -389 -305q-88 0 -158.5 43t-97.5 115q-166 -158 -359 -158q-141 0 -232 81t-91 206q0 220 206 400.5t460 180.5q120 0 188 -55l6 24h477zM879 768
q-46 45 -93 45q-34 0 -59 -26.5t-41 -75.5l-154 -476q-14 -41 -14 -75q0 -49 41 -49q52 0 152 86q2 53 32 149zM1137 1288q87 0 147 -41.5t60 -99.5q0 -61 -58.5 -103.5t-144.5 -42.5q-85 0 -145 42.5t-60 101.5q0 58 59 100.5t142 42.5zM668 1288q85 0 145 -43t60 -102
q0 -58 -60 -100t-143 -42q-88 0 -146.5 41.5t-58.5 102.5q0 60 58.5 101.5t144.5 41.5z" />
    <glyph glyph-name="aring" unicode="&#xe5;" 
d="M1376 831q-186 -573 -201.5 -618t-15.5 -63q0 -10 9 -18.5t18 -8.5q22 0 65 58.5t76 135.5l39 -18q-124 -305 -389 -305q-88 0 -158.5 43t-97.5 115q-166 -158 -359 -158q-141 0 -232 81t-91 206q0 220 206 400.5t460 180.5q120 0 188 -55l6 24h477zM879 768
q-46 45 -93 45q-34 0 -59 -26.5t-41 -75.5l-154 -476q-14 -41 -14 -75q0 -49 41 -49q52 0 152 86q2 53 32 149zM903 1313q92 0 152.5 -54.5t60.5 -136.5q0 -77 -59 -128.5t-150 -51.5q-92 0 -156.5 53.5t-64.5 128.5q0 78 64 133.5t153 55.5zM903 979q60 0 103 43t43 102
q0 61 -42.5 103.5t-103.5 42.5q-59 0 -102 -43t-43 -103q0 -59 43 -102t102 -43z" />
    <glyph glyph-name="ae" unicode="&#xe6;" horiz-adv-x="1884" 
d="M899 831h244q151 33 270 33q193 0 312.5 -80t119.5 -206q0 -128 -122.5 -215t-307.5 -87q-94 0 -209 21q-47 -147 -47 -162q0 -35 47.5 -56.5t128.5 -21.5q99 0 181 37.5t182 138.5l26 -26q-99 -113 -202 -163t-260 -50q-357 0 -492 203q-200 -203 -399 -203
q-145 0 -238.5 82t-93.5 207q0 135 95 272t248 223t304 86q113 0 205 -59zM1221 340q24 -2 59 -2q56 0 84.5 17t46.5 57t67.5 191t49.5 169q0 47 -74 47q-53 0 -77.5 -38t-39.5 -85zM877 764q-52 45 -95 45q-33 0 -59.5 -28t-72.5 -181.5t-89 -274.5t-43 -169q0 -47 43 -47
q80 0 189 135q-7 36 -7 51q0 56 35 164z" />
    <glyph glyph-name="ccedilla" unicode="&#xe7;" horiz-adv-x="1110" 
d="M403 8q-166 38 -265 141.5t-99 229.5q0 207 177 345t441 138q187 0 303.5 -73t116.5 -187q0 -75 -53 -128.5t-127 -53.5q-75 0 -129.5 54.5t-54.5 129.5q0 69 46.5 121t131.5 55v4q-50 27 -98 27q-47 0 -80.5 -19.5t-50 -48.5t-70.5 -193l-91 -278q-38 -115 -38 -141
q0 -74 129 -74q187 0 364 211l31 -26q-178 -248 -448 -248q-28 0 -39 2l-19 -74q40 10 72 10q81 0 127.5 -40.5t46.5 -112.5q0 -96 -85 -168t-202 -72q-128 0 -180 86l53 23q44 -49 70 -49q21 0 35.5 20t45 109t30.5 98q0 35 -37 35q-32 0 -60 -37l-49 16z" />
    <glyph glyph-name="egrave" unicode="&#xe8;" horiz-adv-x="1194" 
d="M1038 211q-81 -101 -203.5 -159t-256.5 -58q-252 0 -395.5 97.5t-143.5 266.5q0 218 190.5 362t483.5 144q197 0 319.5 -78.5t122.5 -201.5q0 -128 -129 -218t-313 -90q-83 0 -217 21q-50 -153 -50 -168q0 -32 56.5 -53t138.5 -21q88 0 194.5 51.5t174.5 133.5zM510 340
q24 -2 57 -2q42 0 68 9t48 37.5t49 108.5l55 164q28 85 28 113q0 21 -21 36t-51 15q-43 0 -69.5 -29t-44.5 -86zM1065 965h-45l-502 288v45h297z" />
    <glyph glyph-name="eacute" unicode="&#xe9;" horiz-adv-x="1194" 
d="M1038 211q-81 -101 -203.5 -159t-256.5 -58q-252 0 -395.5 97.5t-143.5 266.5q0 218 190.5 362t483.5 144q197 0 319.5 -78.5t122.5 -201.5q0 -128 -129 -218t-313 -90q-83 0 -217 21q-50 -153 -50 -168q0 -32 56.5 -53t138.5 -21q88 0 194.5 51.5t174.5 133.5zM510 340
q24 -2 57 -2q42 0 68 9t48 37.5t49 108.5l55 164q28 85 28 113q0 21 -21 36t-51 15q-43 0 -69.5 -29t-44.5 -86zM1065 1253l-502 -288h-45l250 333h297v-45z" />
    <glyph glyph-name="ecircumflex" unicode="&#xea;" horiz-adv-x="1194" 
d="M1038 211q-81 -101 -203.5 -159t-256.5 -58q-252 0 -395.5 97.5t-143.5 266.5q0 218 190.5 362t483.5 144q197 0 319.5 -78.5t122.5 -201.5q0 -128 -129 -218t-313 -90q-83 0 -217 21q-50 -153 -50 -168q0 -32 56.5 -53t138.5 -21q88 0 194.5 51.5t174.5 133.5zM510 340
q24 -2 57 -2q42 0 68 9t48 37.5t49 108.5l55 164q28 85 28 113q0 21 -21 36t-51 15q-43 0 -69.5 -29t-44.5 -86zM1096 1026l-21 -37q-143 12 -291 158q-182 -132 -364 -146l-12 41q204 90 323 283h162q9 -71 78 -170t125 -129z" />
    <glyph glyph-name="edieresis" unicode="&#xeb;" horiz-adv-x="1194" 
d="M1038 211q-81 -101 -203.5 -159t-256.5 -58q-252 0 -395.5 97.5t-143.5 266.5q0 218 190.5 362t483.5 144q197 0 319.5 -78.5t122.5 -201.5q0 -128 -129 -218t-313 -90q-83 0 -217 21q-50 -153 -50 -168q0 -32 56.5 -53t138.5 -21q88 0 194.5 51.5t174.5 133.5zM510 340
q24 -2 57 -2q42 0 68 9t48 37.5t49 108.5l55 164q28 85 28 113q0 21 -21 36t-51 15q-43 0 -69.5 -29t-44.5 -86zM1018 1288q87 0 147 -41.5t60 -99.5q0 -61 -58.5 -103.5t-144.5 -42.5q-85 0 -145 42.5t-60 101.5q0 58 59 100.5t142 42.5zM549 1288q85 0 145 -43t60 -102
q0 -58 -60 -100t-143 -42q-88 0 -146.5 41.5t-58.5 102.5q0 60 58.5 101.5t144.5 41.5z" />
    <glyph glyph-name="igrave" unicode="&#xec;" horiz-adv-x="788" 
d="M745 866l-148 -456q-75 -232 -77 -240.5t-2 -22.5q0 -24 23 -24t68 58t75 134l41 -16q-125 -305 -397 -305q-118 0 -196.5 49.5t-78.5 120.5q0 46 28 129l163 498h-135l12 40h57q291 0 567 35zM801 965h-45l-502 288v45h297z" />
    <glyph glyph-name="iacute" unicode="&#xed;" horiz-adv-x="788" 
d="M745 866l-148 -456q-75 -232 -77 -240.5t-2 -22.5q0 -24 23 -24t68 58t75 134l41 -16q-125 -305 -397 -305q-118 0 -196.5 49.5t-78.5 120.5q0 46 28 129l163 498h-135l12 40h57q291 0 567 35zM862 1253l-502 -288h-45l250 333h297v-45z" />
    <glyph glyph-name="icircumflex" unicode="&#xee;" horiz-adv-x="788" 
d="M745 866l-148 -456q-75 -232 -77 -240.5t-2 -22.5q0 -24 23 -24t68 58t75 134l41 -16q-125 -305 -397 -305q-118 0 -196.5 49.5t-78.5 120.5q0 46 28 129l163 498h-135l12 40h57q291 0 567 35zM872 1026l-21 -37q-143 12 -291 158q-182 -132 -364 -146l-12 41
q204 90 323 283h162q9 -71 78 -170t125 -129z" />
    <glyph glyph-name="idieresis" unicode="&#xef;" horiz-adv-x="788" 
d="M745 866l-148 -456q-75 -232 -77 -240.5t-2 -22.5q0 -24 23 -24t68 58t75 134l41 -16q-125 -305 -397 -305q-118 0 -196.5 49.5t-78.5 120.5q0 46 28 129l163 498h-135l12 40h57q291 0 567 35zM754 1288q87 0 147 -41.5t60 -99.5q0 -61 -58.5 -103.5t-144.5 -42.5
q-85 0 -145 42.5t-60 101.5q0 58 59 100.5t142 42.5zM285 1288q85 0 145 -43t60 -102q0 -58 -60 -100t-143 -42q-88 0 -146.5 41.5t-58.5 102.5q0 60 58.5 101.5t144.5 41.5z" />
    <glyph glyph-name="eth" unicode="&#xf0;" horiz-adv-x="1260" 
d="M848 1219q364 -278 364 -637q0 -316 -205.5 -452t-467.5 -136q-225 0 -362.5 108.5t-137.5 282.5q0 203 189.5 341t469.5 138q61 0 131 -10q0 158 -94 311l-295 -127l-12 41l281 119q-91 108 -232 141l10 39q167 -20 326 -135l231 96l15 -34zM512 37q37 0 60.5 21
t40.5 58t82 241.5t91.5 282.5t26.5 112q0 27 -21.5 47t-52.5 20q-42 0 -67.5 -31t-43.5 -86l-170 -518q-16 -46 -16 -80q0 -29 20 -48t50 -19z" />
    <glyph glyph-name="ntilde" unicode="&#xf1;" 
d="M1391 330q-112 -336 -420 -336q-115 0 -184.5 48.5t-69.5 127.5q0 42 15 92l102 316q14 43 14 63q0 25 -23 25q-12 0 -29.5 -9.5t-39 -27.5t-48 -45t-60.5 -64q-3 -4 -57 -170l-114 -350h-481l256 791h-133l14 40h25q112 0 302.5 11.5t299.5 29.5l-92 -262l4 -4
q226 256 446 256q89 0 150 -47.5t61 -116.5q0 -54 -36 -166l-95 -292q-12 -37 -12 -62q0 -9 7.5 -16.5t16.5 -7.5q28 0 67.5 53.5t68.5 138.5zM1290 1276q-83 -158 -155.5 -221.5t-155.5 -63.5q-44 0 -92.5 12t-136.5 48q-32 14 -49 14q-29 0 -54.5 -24t-58.5 -70l-49 24
q32 98 129 194.5t219 96.5q49 0 117 -22q7 -5 48 -19t68 -14q72 0 127 74z" />
    <glyph glyph-name="ograve" unicode="&#xf2;" horiz-adv-x="1260" 
d="M698 864q231 0 377 -101.5t146 -258.5q0 -216 -195 -363t-487 -147q-225 0 -362.5 108.5t-137.5 282.5q0 203 189.5 341t469.5 138zM512 37q37 0 60.5 21t40.5 58t82 241.5t91.5 282.5t26.5 112q0 27 -21.5 47t-52.5 20q-42 0 -67.5 -31t-43.5 -86l-170 -518
q-16 -46 -16 -80q0 -29 20 -48t50 -19zM1098 965h-45l-502 288v45h297z" />
    <glyph glyph-name="oacute" unicode="&#xf3;" horiz-adv-x="1260" 
d="M698 864q231 0 377 -101.5t146 -258.5q0 -216 -195 -363t-487 -147q-225 0 -362.5 108.5t-137.5 282.5q0 203 189.5 341t469.5 138zM512 37q37 0 60.5 21t40.5 58t82 241.5t91.5 282.5t26.5 112q0 27 -21.5 47t-52.5 20q-42 0 -67.5 -31t-43.5 -86l-170 -518
q-16 -46 -16 -80q0 -29 20 -48t50 -19zM1153 1253l-502 -288h-45l250 333h297v-45z" />
    <glyph glyph-name="ocircumflex" unicode="&#xf4;" horiz-adv-x="1260" 
d="M698 864q231 0 377 -101.5t146 -258.5q0 -216 -195 -363t-487 -147q-225 0 -362.5 108.5t-137.5 282.5q0 203 189.5 341t469.5 138zM512 37q37 0 60.5 21t40.5 58t82 241.5t91.5 282.5t26.5 112q0 27 -21.5 47t-52.5 20q-42 0 -67.5 -31t-43.5 -86l-170 -518
q-16 -46 -16 -80q0 -29 20 -48t50 -19zM1128 1026l-21 -37q-143 12 -291 158q-182 -132 -364 -146l-12 41q204 90 323 283h162q9 -71 78 -170t125 -129z" />
    <glyph glyph-name="otilde" unicode="&#xf5;" horiz-adv-x="1260" 
d="M698 864q231 0 377 -101.5t146 -258.5q0 -216 -195 -363t-487 -147q-225 0 -362.5 108.5t-137.5 282.5q0 203 189.5 341t469.5 138zM512 37q37 0 60.5 21t40.5 58t82 241.5t91.5 282.5t26.5 112q0 27 -21.5 47t-52.5 20q-42 0 -67.5 -31t-43.5 -86l-170 -518
q-16 -46 -16 -80q0 -29 20 -48t50 -19zM1204 1276q-83 -158 -155.5 -221.5t-155.5 -63.5q-44 0 -92.5 12t-136.5 48q-32 14 -49 14q-29 0 -54.5 -24t-58.5 -70l-49 24q32 98 129 194.5t219 96.5q49 0 117 -22q7 -5 48 -19t68 -14q72 0 127 74z" />
    <glyph glyph-name="odieresis" unicode="&#xf6;" horiz-adv-x="1260" 
d="M698 864q231 0 377 -101.5t146 -258.5q0 -216 -195 -363t-487 -147q-225 0 -362.5 108.5t-137.5 282.5q0 203 189.5 341t469.5 138zM512 37q37 0 60.5 21t40.5 58t82 241.5t91.5 282.5t26.5 112q0 27 -21.5 47t-52.5 20q-42 0 -67.5 -31t-43.5 -86l-170 -518
q-16 -46 -16 -80q0 -29 20 -48t50 -19zM1051 1288q87 0 147 -41.5t60 -99.5q0 -61 -58.5 -103.5t-144.5 -42.5q-85 0 -145 42.5t-60 101.5q0 58 59 100.5t142 42.5zM582 1288q85 0 145 -43t60 -102q0 -58 -60 -100t-143 -42q-88 0 -146.5 41.5t-58.5 102.5q0 60 58.5 101.5
t144.5 41.5z" />
    <glyph glyph-name="divide" unicode="&#xf7;" horiz-adv-x="1366" 
d="M735 1247q60 0 103 -43t43 -102q0 -60 -43 -103t-103 -43t-102.5 43.5t-42.5 104.5q0 60 42.5 101.5t102.5 41.5zM1300 565h-1124v234h1124v-234zM737 416q61 0 104.5 -43.5t43.5 -104.5q0 -60 -43.5 -102.5t-104.5 -42.5t-104 42t-43 101q0 62 43 106t104 44z" />
    <glyph glyph-name="oslash" unicode="&#xf8;" horiz-adv-x="1260" 
d="M1266 754l-115 -64q36 -54 53 -94.5t17 -97.5q0 -213 -195.5 -358.5t-486.5 -145.5q-135 0 -219.5 28.5t-176.5 94.5l-127 -70l-24 51l123 66q-76 100 -76 217q0 203 189 342t472 139q101 0 199.5 -22.5t224.5 -106.5l115 68zM745 526q55 156 61.5 187t6.5 43
q0 27 -21.5 47t-52.5 20q-45 0 -70.5 -31t-44.5 -88l-98 -298zM725 451l-219 -119q-51 -158 -57.5 -182t-6.5 -54q0 -28 20 -45.5t52 -17.5t61.5 22t59.5 115z" />
    <glyph glyph-name="ugrave" unicode="&#xf9;" 
d="M1370 332q-125 -338 -428 -338q-111 0 -177.5 50t-66.5 132q0 28 11 76l-4 4q-244 -262 -437 -262q-98 0 -159.5 52t-61.5 134q0 44 25 120l159 491h-133l13 40q365 0 626 41q-184 -570 -194.5 -600.5t-10.5 -44.5q0 -26 23 -26q13 0 31.5 11t40.5 29.5t43 40.5t42 46
l12 12q5 6 41 117l122 374h483l-135 -415q-63 -197 -66.5 -209t-3.5 -23q0 -30 23 -30q28 0 69 55.5t68 136.5zM1151 965h-45l-502 288v45h297z" />
    <glyph glyph-name="uacute" unicode="&#xfa;" 
d="M1370 332q-125 -338 -428 -338q-111 0 -177.5 50t-66.5 132q0 28 11 76l-4 4q-244 -262 -437 -262q-98 0 -159.5 52t-61.5 134q0 44 25 120l159 491h-133l13 40q365 0 626 41q-184 -570 -194.5 -600.5t-10.5 -44.5q0 -26 23 -26q13 0 31.5 11t40.5 29.5t43 40.5t42 46
l12 12q5 6 41 117l122 374h483l-135 -415q-63 -197 -66.5 -209t-3.5 -23q0 -30 23 -30q28 0 69 55.5t68 136.5zM1184 1253l-502 -288h-45l250 333h297v-45z" />
    <glyph glyph-name="ucircumflex" unicode="&#xfb;" 
d="M1370 332q-125 -338 -428 -338q-111 0 -177.5 50t-66.5 132q0 28 11 76l-4 4q-244 -262 -437 -262q-98 0 -159.5 52t-61.5 134q0 44 25 120l159 491h-133l13 40q365 0 626 41q-184 -570 -194.5 -600.5t-10.5 -44.5q0 -26 23 -26q13 0 31.5 11t40.5 29.5t43 40.5t42 46
l12 12q5 6 41 117l122 374h483l-135 -415q-63 -197 -66.5 -209t-3.5 -23q0 -30 23 -30q28 0 69 55.5t68 136.5zM1198 1026l-21 -37q-143 12 -291 158q-182 -132 -364 -146l-12 41q204 90 323 283h162q9 -71 78 -170t125 -129z" />
    <glyph glyph-name="udieresis" unicode="&#xfc;" 
d="M1370 332q-125 -338 -428 -338q-111 0 -177.5 50t-66.5 132q0 28 11 76l-4 4q-244 -262 -437 -262q-98 0 -159.5 52t-61.5 134q0 44 25 120l159 491h-133l13 40q365 0 626 41q-184 -570 -194.5 -600.5t-10.5 -44.5q0 -26 23 -26q13 0 31.5 11t40.5 29.5t43 40.5t42 46
l12 12q5 6 41 117l122 374h483l-135 -415q-63 -197 -66.5 -209t-3.5 -23q0 -30 23 -30q28 0 69 55.5t68 136.5zM1121 1288q87 0 147 -41.5t60 -99.5q0 -61 -58.5 -103.5t-144.5 -42.5q-85 0 -145 42.5t-60 101.5q0 58 59 100.5t142 42.5zM652 1288q85 0 145 -43t60 -102
q0 -58 -60 -100t-143 -42q-88 0 -146.5 41.5t-58.5 102.5q0 60 58.5 101.5t144.5 41.5z" />
    <glyph glyph-name="yacute" unicode="&#xfd;" horiz-adv-x="1407" 
d="M1411 831l-266 -817q-87 -263 -286 -350.5t-443 -87.5q-196 0 -323.5 69t-127.5 173q0 63 49 109t115 46q69 0 115.5 -47t46.5 -119q0 -99 -98 -151q60 -33 135 -33t133 30t94.5 88t70.5 162l81 238l-5 4q-216 -151 -378 -151q-101 0 -166.5 51.5t-65.5 128.5
q0 58 31 152l84 258q8 20 8 37q0 26 -18 26q-37 0 -109 -135l-43 20q75 154 191.5 237t248.5 83q98 0 156.5 -40t58.5 -101q0 -29 -22 -101l-131 -430q-8 -24 -8 -49q0 -20 18 -20q41 0 170 96l203 624h481zM1206 1253l-502 -288h-45l250 333h297v-45z" />
    <glyph glyph-name="thorn" unicode="&#xfe;" horiz-adv-x="1362" 
d="M723 760q167 102 315 102q127 0 206 -81.5t79 -213.5q0 -222 -164.5 -397.5t-372.5 -175.5q-53 0 -105.5 15t-95.5 49.5t-71 56.5l-162 -496h125l-12 -41h-727l14 41h119l549 1681h-129l12 41h64q327 0 567 37zM532 170q39 -45 58 -58.5t45 -13.5q24 0 38 15.5t37 85.5
l78 236q54 166 65 202t11 61q0 22 -14.5 37t-36.5 15q-40 0 -108 -48z" />
    <glyph glyph-name="ydieresis" unicode="&#xff;" horiz-adv-x="1407" 
d="M1411 831l-266 -817q-87 -263 -286 -350.5t-443 -87.5q-196 0 -323.5 69t-127.5 173q0 63 49 109t115 46q69 0 115.5 -47t46.5 -119q0 -99 -98 -151q60 -33 135 -33t133 30t94.5 88t70.5 162l81 238l-5 4q-216 -151 -378 -151q-101 0 -166.5 51.5t-65.5 128.5
q0 58 31 152l84 258q8 20 8 37q0 26 -18 26q-37 0 -109 -135l-43 20q75 154 191.5 237t248.5 83q98 0 156.5 -40t58.5 -101q0 -29 -22 -101l-131 -430q-8 -24 -8 -49q0 -20 18 -20q41 0 170 96l203 624h481zM1127 1288q87 0 147 -41.5t60 -99.5q0 -61 -58.5 -103.5
t-144.5 -42.5q-85 0 -145 42.5t-60 101.5q0 58 59 100.5t142 42.5zM658 1288q85 0 145 -43t60 -102q0 -58 -60 -100t-143 -42q-88 0 -146.5 41.5t-58.5 102.5q0 60 58.5 101.5t144.5 41.5z" />
    <glyph glyph-name="dotlessi" unicode="&#x131;" horiz-adv-x="788" 
d="M745 866l-148 -456q-75 -232 -77 -240.5t-2 -22.5q0 -24 23 -24t68 58t75 134l41 -16q-125 -305 -397 -305q-118 0 -196.5 49.5t-78.5 120.5q0 46 28 129l163 498h-135l12 40h57q291 0 567 35z" />
    <glyph glyph-name="Lslash" unicode="&#x141;" horiz-adv-x="1516" 
d="M1518 508l-166 -508h-1448l14 47h152l139 428l-154 -65l23 65l153 66l244 753h-151l16 47h928l-17 -47h-164l-145 -450l356 153l-20 -67l-358 -152l-238 -731q297 7 494.5 150t296.5 311h45z" />
    <glyph glyph-name="lslash" unicode="&#x142;" horiz-adv-x="788" 
d="M950 987l-20 -57l-191 -90l-202 -620q-15 -46 -15 -73q0 -24 21 -24q58 0 143 190l41 -16q-69 -156 -164.5 -229.5t-238.5 -73.5q-122 0 -196.5 50.5t-74.5 131.5q0 31 17 84l98 303l-219 -106l20 57l217 104l222 682h-132l15 41h53q367 0 569 37l-155 -483z" />
    <glyph glyph-name="OE" unicode="&#x152;" horiz-adv-x="2413" 
d="M2556 1341l-150 -456h-47q11 58 11 86q0 67 -48.5 137.5t-119 114t-141 57.5t-183.5 14l-180 -553q131 1 201.5 47t127 106.5t80.5 127.5h52l-217 -668h-52q23 61 23 113q0 89 -57 150.5t-175 70.5l-208 -641q126 0 227.5 29t231.5 99t209 141.5t134 166.5h47l-157 -483
h-1114q-165 -31 -256 -31q-284 0 -470 154.5t-186 386.5q0 220 126.5 421.5t339.5 321t446 119.5q41 0 70.5 -2.5t65.5 -10.5l75 -18h1294zM1206 1128q21 62 21 103q0 90 -107 90q-53 0 -85.5 -37.5t-59.5 -122.5l-299 -921q-31 -95 -31 -134t27 -62.5t73 -23.5q56 0 90 35
t62 121z" />
    <glyph glyph-name="oe" unicode="&#x153;" horiz-adv-x="1835" 
d="M1012 797q154 67 338 67q196 0 320 -78.5t124 -199.5q0 -134 -121 -223t-303 -89q-123 0 -215 21q-49 -154 -49 -164q0 -78 178 -78q211 0 363 185l28 -29q-90 -112 -197 -163.5t-268 -51.5q-186 0 -292 45q-4 2 -14 5l-25 11q-161 -61 -334 -61q-228 0 -367 108.5
t-139 284.5q0 201 190.5 338t470.5 137q172 0 312 -65zM1169 338q22 -2 60 -2q53 0 84.5 18.5t48.5 58t64 186t47 165.5q0 22 -21.5 38.5t-48.5 16.5q-77 0 -107 -92zM510 35q34 0 59 20t40 54t72 207l94 290q38 116 38 148q0 26 -22.5 44.5t-53.5 18.5q-29 0 -50 -15
t-36.5 -45.5t-51.5 -141.5l-87 -273q-53 -162 -61.5 -190t-8.5 -50q0 -29 19.5 -48t48.5 -19z" />
    <glyph glyph-name="Scaron" unicode="&#x160;" horiz-adv-x="1516" 
d="M1595 1341l-147 -454h-47q8 55 8 106q0 140 -121.5 234t-306.5 94q-99 0 -163 -36t-64 -89q0 -66 96 -127l277 -172q129 -79 181.5 -138.5t77.5 -129t25 -142.5q0 -217 -197.5 -366.5t-488.5 -149.5q-121 0 -236 26.5t-292 121.5l-136 -119h-71l182 565h53
q-20 -68 -20 -123q0 -160 141 -284.5t322 -124.5q121 0 205.5 56.5t84.5 133.5q0 60 -56.5 109.5t-315.5 206.5q-205 125 -253 207t-48 172q0 194 196 323t490 129q109 0 198.5 -21t214.5 -81l150 73h61zM1397 1725q-202 -88 -322 -283h-162q-11 78 -78.5 174t-125.5 125
l20 37q72 -3 156.5 -53t136.5 -103q179 133 364 144z" />
    <glyph glyph-name="scaron" unicode="&#x161;" horiz-adv-x="971" 
d="M195 104q87 -59 200 -59q57 0 89 23.5t32 64.5q0 33 -29 63t-170 144q-100 80 -128.5 121t-28.5 98q0 129 128 216t318 87q155 0 255 -57.5t100 -145.5q0 -55 -34 -89.5t-87 -34.5q-57 0 -95 36.5t-38 90.5q0 38 23 71t61 47q-72 29 -144 29q-73 0 -114 -22t-41 -60
q0 -36 55 -76q209 -146 268 -213t59 -149q0 -123 -124.5 -209t-305.5 -86q-170 0 -301 73.5t-131 165.5q0 57 43 95.5t105 38.5q59 0 102 -40.5t43 -97.5q0 -100 -110 -125zM1026 1272q-202 -88 -322 -283h-162q-11 78 -78.5 174t-125.5 125l20 37q72 -3 156.5 -53
t136.5 -103q179 133 364 144z" />
    <glyph glyph-name="Ydieresis" unicode="&#x178;" horiz-adv-x="1706" 
d="M1929 1341l-16 -47q-52 -7 -84 -20q-52 -21 -97 -53q-53 -36 -114 -96q-39 -39 -100 -109l-249 -287q-63 -72 -129 -275l-132 -407h186l-14 -47h-985l14 47h190l189 578l-262 669h-99l17 47h850l-15 -47h-118l229 -571l251 287q44 51 65.5 90.5t21.5 79.5q0 92 -127 114
l16 47h512zM1413 1741q87 0 147 -41.5t60 -99.5q0 -61 -58.5 -103.5t-144.5 -42.5q-85 0 -145 42.5t-60 101.5q0 58 59 100.5t142 42.5zM944 1741q85 0 145 -43t60 -102q0 -58 -60 -100t-143 -42q-88 0 -146.5 41.5t-58.5 102.5q0 60 58.5 101.5t144.5 41.5z" />
    <glyph glyph-name="Zcaron" unicode="&#x17d;" horiz-adv-x="1556" 
d="M1624 1341l-858 -1294q264 10 460 147t249 304h57l-162 -498h-1333l862 1294q-219 -11 -392.5 -119.5t-262.5 -287.5h-56l148 454h1288zM1384 1725q-202 -88 -322 -283h-162q-11 78 -78.5 174t-125.5 125l20 37q72 -3 156.5 -53t136.5 -103q179 133 364 144z" />
    <glyph glyph-name="zcaron" unicode="&#x17e;" horiz-adv-x="1110" 
d="M1124 831q-98 -118 -145 -165.5t-113 -98.5t-138 -93.5t-163.5 -80t-142.5 -59.5v-4h14q151 0 315 -78q107 -51 119 -51q21 0 21 22q0 17 -21 29q-61 37 -83.5 64.5t-22.5 66.5q0 47 35 79t88 32q64 0 106.5 -47.5t42.5 -118.5q0 -127 -100.5 -241t-282.5 -114
q-123 0 -276 50q-166 55 -242 55q-49 0 -87.5 -24t-84.5 -74l-37 28q40 64 101 127t137.5 119t145.5 91.5t282 121.5q69 28 121 70l-4 4q-52 -11 -95 -11q-167 0 -329 105q-13 10 -27 10q-18 0 -18 -18q0 -16 30 -49q43 -48 43 -97q0 -42 -29 -71t-71 -29q-57 0 -95 45.5
t-38 114.5q0 124 110 217.5t259 93.5q84 0 213 -35q111 -32 141 -38.5t65 -6.5q103 0 222 90zM1055 1272q-202 -88 -322 -283h-162q-11 78 -78.5 174t-125.5 125l20 37q72 -3 156.5 -53t136.5 -103q179 133 364 144z" />
    <glyph glyph-name="florin" unicode="&#x192;" horiz-adv-x="1153" 
d="M350 897q116 10 157 42t87 120l79 151q30 56 77 96.5t100.5 61.5t105.5 21q89 0 141 -41t52 -109q0 -55 -34 -89t-91 -34q-46 0 -74 24.5t-28 65.5q0 31 20 72q10 23 10 33q0 26 -24 26q-40 0 -66 -35t-26 -88q0 -47 4 -84q6 -58 6 -94q0 -73 -17 -139h156l-24 -117h-152
l-116 -567q-36 -175 -84 -301t-116 -202.5t-148.5 -116t-158.5 -39.5q-81 0 -130.5 37.5t-49.5 97.5q0 50 33 84t82 34q50 0 81 -26.5t31 -69.5q0 -16 -8 -43q-6 -20 -6 -28q0 -21 27 -21q35 0 58.5 31.5t23.5 79.5l-9 184q0 140 19 237l131 629h-141z" />
    <glyph glyph-name="circumflex" unicode="&#x2c6;" horiz-adv-x="682" 
d="M840 1026l-21 -37q-143 12 -291 158q-182 -132 -364 -146l-12 41q204 90 323 283h162q9 -71 78 -170t125 -129z" />
    <glyph glyph-name="caron" unicode="&#x2c7;" horiz-adv-x="682" 
d="M840 1272q-202 -88 -322 -283h-162q-11 78 -78.5 174t-125.5 125l20 37q72 -3 156.5 -53t136.5 -103q179 133 364 144z" />
    <glyph glyph-name="macron" unicode="&#x2c9;" horiz-adv-x="682" 
d="M1040 1290l-71 -227h-924l72 227h923z" />
    <glyph glyph-name="breve" unicode="&#x2d8;" horiz-adv-x="682" 
d="M852 1305q-51 -146 -147 -227t-209 -81q-91 0 -171.5 55t-80.5 185q0 20 6 68h59v-13q0 -108 191 -108q208 0 291 121h61z" />
    <glyph glyph-name="dotaccent" unicode="&#x2d9;" horiz-adv-x="682" 
d="M641 1288q85 0 145 -43t60 -102q0 -58 -60 -100t-143 -42q-87 0 -146 42t-59 102t58.5 101.5t144.5 41.5z" />
    <glyph glyph-name="ring" unicode="&#x2da;" horiz-adv-x="682" 
d="M528 1313q92 0 152.5 -54.5t60.5 -136.5q0 -77 -59 -128.5t-150 -51.5q-92 0 -156.5 53.5t-64.5 128.5q0 78 64 133.5t153 55.5zM528 979q60 0 103 43t43 102q0 61 -42.5 103.5t-103.5 42.5q-59 0 -102 -43t-43 -103q0 -59 43 -102t102 -43z" />
    <glyph glyph-name="ogonek" unicode="&#x2db;" horiz-adv-x="682" 
d="M522 -399q-165 -105 -293 -105q-112 0 -189 71t-77 173q0 35 9 67.5t27 61t41.5 49.5t53 38t82 38.5t62.5 21.5h34q-53 -45 -77.5 -84.5t-24.5 -93.5q0 -100 63 -169.5t152 -69.5q49 0 107 28z" />
    <glyph glyph-name="tilde" unicode="&#x2dc;" horiz-adv-x="682" 
d="M915 1276q-83 -158 -155.5 -221.5t-155.5 -63.5q-44 0 -92.5 12t-136.5 48q-32 14 -49 14q-29 0 -54.5 -24t-58.5 -70l-49 24q32 98 129 194.5t219 96.5q49 0 117 -22q7 -5 48 -19t68 -14q72 0 127 74z" />
    <glyph glyph-name="hungarumlaut" unicode="&#x2dd;" horiz-adv-x="682" 
d="M1012 1231l-504 -289h-45l250 334h299v-45zM608 1231l-502 -289h-45l250 334h297v-45z" />
    <glyph glyph-name="pi1" unicode="&#x3c0;" horiz-adv-x="1124" 
d="M1085 309q-5 -155 -75.5 -248.5t-167.5 -93.5q-79 0 -138.5 91.5t-59.5 281.5q0 42 2 80t5 72l35 329h-231q-60 -624 -98.5 -742.5t-130.5 -118.5q-39 0 -74 31t-35 82q0 46 72.5 128.5t80.5 150.5l60 469h-97q-40 0 -78.5 -19.5t-56.5 -45.5l-43 -64h-35
q49 152 120.5 228.5t164.5 76.5h764v-176h-258q-12 -120 -18.5 -240t-6.5 -241q0 -82 38 -133t95 -51q35 0 73.5 28.5t43.5 74.5q3 22 4.5 34.5t1.5 15.5h43z" />
    <glyph glyph-name="endash" unicode="&#x2013;" horiz-adv-x="1024" 
d="M1034 319h-1040v363h1040v-363z" />
    <glyph glyph-name="emdash" unicode="&#x2014;" horiz-adv-x="2048" 
d="M2058 319h-2066v363h2066v-363z" />
    <glyph glyph-name="quoteleft" unicode="&#x2018;" horiz-adv-x="705" 
d="M403 1194q80 39 168 39q111 0 180.5 -49t69.5 -125q0 -73 -76 -126.5t-184 -53.5q-112 0 -184 55t-72 139q0 128 116.5 212.5t291.5 84.5q23 0 65 -4v-49q-31 4 -59 4q-107 0 -193 -34.5t-127 -88.5z" />
    <glyph glyph-name="quoteright" unicode="&#x2019;" horiz-adv-x="705" 
d="M748 1053q-80 -39 -168 -39q-111 0 -180.5 49t-69.5 125q0 73 76 126.5t184 53.5q112 0 184 -55.5t72 -138.5q0 -129 -116.5 -213t-291.5 -84q-23 0 -65 4v49q31 -4 59 -4q107 0 193 34.5t127 88.5z" />
    <glyph glyph-name="quotesinglbase" unicode="&#x201a;" horiz-adv-x="705" 
d="M459 33q-80 -39 -168 -39q-111 0 -180.5 49t-69.5 125q0 73 76 126.5t184 53.5q112 0 184 -55t72 -139q0 -128 -116.5 -212.5t-290.5 -84.5q-24 0 -66 4v49q31 -4 59 -4q107 0 193 34.5t127 88.5z" />
    <glyph glyph-name="quotedblleft" unicode="&#x201c;" 
d="M1087 1194q76 39 168 39q111 0 180.5 -49t69.5 -125q0 -73 -76 -126.5t-184 -53.5q-112 0 -184 55t-72 139q0 128 116.5 212.5t291.5 84.5q23 0 65 -4v-49q-31 4 -59 4q-107 0 -193 -34.5t-127 -88.5zM434 1194q78 39 168 39q111 0 180.5 -49t69.5 -125q0 -74 -76.5 -127
t-183.5 -53q-112 0 -184 55t-72 139q0 128 116.5 212.5t290.5 84.5q24 0 66 -4v-49q-31 4 -59 4q-107 0 -193 -34.5t-127 -88.5z" />
    <glyph glyph-name="quotedblright" unicode="&#x201d;" 
d="M1419 1053q-79 -39 -168 -39q-110 0 -180 49t-70 125q0 73 76.5 126.5t184.5 53.5q112 0 184 -55.5t72 -138.5q0 -131 -117.5 -214t-290.5 -83q-23 0 -66 4v49q32 -4 60 -4q107 0 193 34.5t126 88.5zM778 1053q-79 -39 -168 -39q-110 0 -180 49t-70 125q0 74 76.5 127
t184.5 53q111 0 183.5 -55.5t72.5 -138.5q0 -129 -116.5 -213t-291.5 -84q-23 0 -66 4v49q32 -4 60 -4q107 0 193 34.5t126 88.5z" />
    <glyph glyph-name="quotedblbase" unicode="&#x201e;" 
d="M1120 35q-81 -43 -170 -43q-104 0 -174.5 50.5t-70.5 123.5q0 76 76 130t186 54t182 -55.5t72 -138.5q0 -125 -117 -210t-289 -85q-37 0 -67 2v45h51q228 0 325 123zM479 35q-81 -43 -172 -43q-103 0 -173.5 50.5t-70.5 123.5q0 76 76.5 130t186.5 54t182 -55.5
t72 -138.5q0 -125 -117 -210t-289 -85q-37 0 -68 2v45h50q230 0 327 123z" />
    <glyph glyph-name="dagger" unicode="&#x2020;" horiz-adv-x="1174" 
d="M725 850q70 8 104.5 22t104.5 66q64 46 102 63t78 17q68 0 109 -44.5t41 -119.5q0 -84 -50 -138t-127 -54q-74 0 -182 79q-66 51 -96.5 64.5t-93.5 19.5q-64 -230 -64 -483q0 -88 8.5 -205t8.5 -174q0 -149 -81 -249.5t-200 -100.5q-81 0 -131.5 51.5t-50.5 132.5
q0 75 34 150.5t119 202.5q126 188 187 313t145 364q-69 -7 -103 -22t-104 -68q-63 -47 -101 -64.5t-81 -17.5q-64 0 -107.5 46.5t-43.5 115.5q0 83 52 140t128 57q75 0 182 -80q66 -49 96 -62.5t88 -21.5q6 28 6 37q0 47 -43 127q-51 102 -51 168q0 87 60.5 141.5
t156.5 54.5q88 0 138.5 -41.5t50.5 -111.5q0 -65 -36.5 -117t-121.5 -111q-69 -47 -90 -71t-41 -76z" />
    <glyph glyph-name="daggerdbl" unicode="&#x2021;" horiz-adv-x="1366" 
d="M854 942q78 0 112 16.5t95 59.5q99 72 164 72q58 0 92.5 -37.5t34.5 -102.5q0 -76 -46 -125t-118 -49q-43 0 -76.5 15.5t-83.5 56.5q-56 46 -86 59t-92 19q-4 -37 -4 -43q0 -99 131 -142q-252 -119 -252 -303q0 -64 27.5 -105t87.5 -79q-191 -56 -232 -184q80 6 118.5 20
t111.5 64q91 65 155 65q54 0 84.5 -35t30.5 -98q0 -78 -48 -130t-120 -52q-65 0 -160 67q-61 45 -90 58t-88 22q-4 -24 -4 -28q0 -47 43 -105q32 -45 40.5 -67.5t8.5 -55.5q0 -75 -59 -128.5t-144 -53.5q-62 0 -102.5 40t-40.5 101q0 102 125 178q63 42 78.5 63.5t27.5 55.5
q-65 -3 -98 -15.5t-102 -60.5q-101 -71 -168 -71q-55 0 -90 39t-35 100q0 75 48 125.5t120 50.5q41 0 73 -15t80 -57q57 -45 87 -58t94 -17l2 28q0 116 -135 150q258 123 258 307q0 111 -113 184q196 61 225 183q-62 -3 -104.5 -15t-124.5 -69q-53 -38 -82.5 -51t-69.5 -13
q-54 0 -85 34.5t-31 94.5q0 80 49.5 132.5t124.5 52.5q39 0 70 -14t81 -52q58 -44 88 -57.5t92 -24.5q7 25 7 35q0 39 -43 102q-28 39 -39 61.5t-11 53.5q0 76 58 130t141 54q67 0 109.5 -40.5t42.5 -104.5q0 -50 -29.5 -89t-97.5 -83q-59 -37 -77.5 -56t-35.5 -63z" />
    <glyph glyph-name="bullet" unicode="&#x2022;" horiz-adv-x="725" 
d="M395 981q130 0 222 -91.5t92 -221.5t-92 -222t-222 -92t-221.5 92t-91.5 222t91.5 221.5t221.5 91.5z" />
    <glyph glyph-name="ellipsis" unicode="&#x2026;" horiz-adv-x="2048" 
d="M1712 334q96 0 165 -54t69 -126q0 -80 -63.5 -130.5t-164.5 -50.5q-103 0 -173 53.5t-70 131.5q0 72 69 124t168 52zM1030 334q96 0 165 -54t69 -126q0 -80 -63.5 -130.5t-164.5 -50.5q-103 0 -173 53.5t-70 131.5q0 73 69.5 124.5t167.5 51.5zM346 334q96 0 166 -54
t70 -126q0 -80 -63.5 -130.5t-166.5 -50.5q-102 0 -172.5 54t-70.5 131q0 73 69.5 124.5t167.5 51.5z" />
    <glyph glyph-name="perthousand" unicode="&#x2030;" horiz-adv-x="2454" 
d="M569 1358q163 0 240.5 -88t77.5 -199q0 -224 -150.5 -387.5t-355.5 -163.5q-128 0 -208.5 77.5t-80.5 199.5q0 222 145 391.5t332 169.5zM381 561q28 0 42 20.5t32 73.5l182 559q14 36 14 58q0 17 -13 29t-32 12q-42 0 -58.5 -60.5t-112 -344t-95.5 -308.5q0 -39 41 -39z
M1448 1352l-1034 -1366h-95l1041 1366h88zM2198 821q139 0 225 -77t86 -201q0 -230 -146.5 -394.5t-349.5 -164.5q-133 0 -215 75t-82 197q0 128 70 279t176 218.5t236 67.5zM2009 27q22 0 34.5 13.5t41.5 102.5l154 474q34 105 34 124q0 39 -47 39q-17 0 -30 -12t-25 -49
q-191 -588 -199 -610q-8 -21 -8 -41q0 -41 45 -41zM1376 821q138 0 224 -77t86 -201q0 -231 -145 -395t-349 -164q-135 0 -217 74.5t-82 195.5q0 189 126.5 378t356.5 189zM1186 27q23 0 35.5 13.5t42.5 102.5l154 474q32 99 32 124q0 39 -45 39q-37 0 -48 -42l-113 -344
q-101 -302 -101 -326q0 -41 43 -41z" />
    <glyph glyph-name="guilsinglleft" unicode="&#x2039;" horiz-adv-x="854" 
d="M893 733l-463 -309l307 -309h-350l-321 309l464 309h363z" />
    <glyph glyph-name="guilsinglright" unicode="&#x203a;" horiz-adv-x="854" 
d="M791 426l-465 -311h-361l455 311l-309 307h362z" />
    <glyph glyph-name="fraction" unicode="&#x2044;" horiz-adv-x="86" 
d="M621 1354l-1041 -1368h-92l1042 1368h91z" />
    <glyph glyph-name="fraction" unicode="&#x2215;" horiz-adv-x="86" 
d="M621 1354l-1041 -1368h-92l1042 1368h91z" />
    <glyph glyph-name="Euro" unicode="&#x20ac;" horiz-adv-x="1409" 
d="M319 819q96 230 292.5 389.5t510.5 159.5q182 0 297 -72t115 -188q0 -68 -47 -115t-111 -47q-68 0 -120 46.5t-52 115.5q0 63 47 101t113 38h37v8q-19 23 -90 47.5t-131 24.5q-109 0 -142 -96l-137 -412h234l-21 -57h-231l-29 -90h240l-21 -58h-237l-102 -306
q-39 -121 -42.5 -139.5t-3.5 -36.5q0 -52 27 -83t73 -31q210 0 316 80q-73 17 -123.5 67.5t-50.5 113.5q0 76 51 130t125 54q78 0 132 -53t54 -131q0 -132 -140.5 -218t-381.5 -86q-247 0 -386.5 129.5t-139.5 362.5q0 79 14 147h-145l20 58h137q6 27 27 90h-143l20 57h145z
" />
    <glyph glyph-name="trademark" unicode="&#x2122;" horiz-adv-x="2163" 
d="M2298 537h-508v34q80 7 96.5 31t16.5 129v477l-322 -671h-25l-317 675v-497q0 -96 17.5 -117.5t97.5 -26.5v-34h-283v34q80 5 96.5 25.5t16.5 114.5v434q0 98 -11 122.5t-32 30.5t-70 7v36h418l205 -438l209 438h395v-36q-64 -9 -81 -38t-17 -118v-473q0 -73 23 -88
t75 -17v-34zM965 1120h-35q-8 101 -51 135.5t-140 34.5h-45v-571q0 -79 19 -108t86 -40v-34h-504v34q70 11 88 36.5t18 103.5v579h-34q-102 0 -145 -40.5t-48 -129.5h-33v221h824v-221z" />
    <glyph glyph-name="Ohm" unicode="&#x2126;" horiz-adv-x="1573" 
d="M1506 0h-604l33 311q161 59 226 200t65 313q0 227 -107 373t-331 146t-331 -146t-107 -373q0 -172 65 -313t226 -200l33 -311h-604v332h30q16 -66 40 -95.5t96 -29.5h323l-4 57q-238 65 -341 221t-103 332q0 259 192 425.5t485 166.5t485 -166.5t192 -425.5
q0 -176 -103 -332t-341 -221l-4 -57h323q72 0 96 29.5t40 95.5h30v-332z" />
    <glyph glyph-name="partialdiff" unicode="&#x2202;" horiz-adv-x="1012" 
d="M295 1120h-45q131 303 379 303q161 0 263.5 -127t102.5 -376q0 -358 -164.5 -654.5t-427.5 -296.5q-155 0 -246 91t-91 245q0 239 166.5 420.5t383.5 181.5q222 0 312 -190h4q10 144 10 186q0 175 -92.5 276t-253.5 101q-194 0 -301 -160zM911 629q-81 225 -284 225
q-178 0 -286 -190.5t-108 -399.5q0 -108 54 -172.5t143 -64.5q136 0 279.5 162.5t201.5 439.5z" />
    <glyph glyph-name="increment" unicode="&#x2206;" horiz-adv-x="1253" 
d="M668 1409l577 -1409h-1233zM594 1059l-447 -959h844z" />
    <glyph glyph-name="product" unicode="&#x220f;" horiz-adv-x="1686" 
d="M1645 -207h-629v47q120 0 159.5 41t39.5 125v1419h-734v-1419q0 -84 39.5 -125t159.5 -41v-47h-629v47q122 0 160.5 41t38.5 125v1282q0 101 -48.5 152t-146.5 51v47h1586v-47q-98 0 -146.5 -51t-48.5 -152v-1282q0 -84 38.5 -125t160.5 -41v-47z" />
    <glyph glyph-name="summation" unicode="&#x2211;" horiz-adv-x="1460" 
d="M1423 238q-32 -125 -54 -240t-34 -219q-63 11 -102.5 16.5t-54.5 5.5h-1031q-20 0 -59 -3t-59 -3l714 815l-710 930q70 -7 123 -10.5t90 -3.5h1018l12 -326h-41q-31 102 -52.5 141t-81.5 66q-30 13 -74.5 20t-104.5 7h-539l559 -734l-602 -694h760q127 0 177.5 52
t98.5 180h47z" />
    <glyph glyph-name="minus" unicode="&#x2212;" horiz-adv-x="1366" 
d="M1300 557h-1124v248h1124v-248z" />
    <glyph glyph-name="periodcentered" unicode="&#x2219;" horiz-adv-x="682" 
d="M362 834q104 0 177 -51.5t73 -120.5q0 -83 -73.5 -138t-186.5 -55q-110 0 -181 49.5t-71 124.5q0 79 76.5 135t185.5 56z" />
    <glyph glyph-name="radical" unicode="&#x221a;" horiz-adv-x="1124" 
d="M1055 1868l-307 -1946l-498 1028l-197 -96l-33 68l299 147l404 -825l260 1634z" />
    <glyph glyph-name="infinity" unicode="&#x221e;" horiz-adv-x="1460" 
d="M653 668q71 169 159 222.5t212 53.5q161 0 272 -116.5t111 -301.5q0 -186 -111.5 -303t-238.5 -117q-95 0 -170.5 63t-165.5 224q-117 -233 -324 -233q-149 0 -246.5 104.5t-97.5 263.5q0 157 89 262t218 105q80 0 149 -42t144 -185zM750 465q64 -138 134.5 -201
t176.5 -63q126 0 207.5 91t81.5 234q0 140 -84 240t-199 100q-55 0 -97.5 -21.5t-74.5 -62t-64 -116.5zM614 557l11 33q-96 215 -267 215q-110 0 -179.5 -76.5t-69.5 -198.5q0 -123 66.5 -207.5t162.5 -84.5q82 0 149.5 65t126.5 254z" />
    <glyph glyph-name="integral" unicode="&#x222b;" horiz-adv-x="561" 
d="M642 1760q0 -39 -29.5 -64t-75.5 -25q-37 0 -60 25t-44 25q-18 0 -27.5 -14.5t-9.5 -43.5q0 -34 19.5 -256t19.5 -551q0 -505 -30 -709.5t-79 -282.5q-26 -41 -67.5 -62t-85.5 -21q-49 0 -86 35t-37 85q0 38 25.5 65t64.5 27q34 0 65.5 -33t44.5 -33q25 0 39.5 44.5
t14.5 153.5q0 37 -6 197t-6 562q0 481 17 638.5t41 215.5q29 70 69 104t84 34q57 0 98 -32.5t41 -83.5z" />
    <glyph glyph-name="approxequal" unicode="&#x2248;" horiz-adv-x="1124" 
d="M1022 874h51q-21 -155 -95.5 -238t-186.5 -83q-97 0 -304 117q-139 78 -211 78q-149 0 -178 -187h-47q20 154 93.5 238t181.5 84q47 0 107 -19.5t224 -107.5q118 -62 193 -62q144 0 172 180zM1022 487h51q-21 -155 -95.5 -238t-186.5 -83q-96 0 -268.5 97t-246.5 97
q-149 0 -178 -186h-47q20 153 93.5 236.5t181.5 83.5q47 0 112 -21.5t219 -103.5q118 -62 193 -62q144 0 172 180z" />
    <glyph glyph-name="notequal" unicode="&#x2260;" horiz-adv-x="1124" 
d="M1106 279h-621l-184 -330l-100 57l151 273h-321v112h385l157 285h-542v112h606l186 336l101 -57l-156 -279h338v-112h-399l-160 -285h559v-112z" />
    <glyph glyph-name="lessequal" unicode="&#x2264;" horiz-adv-x="1124" 
d="M1077 240l-1018 471v127l1018 471v-127l-887 -408l887 -407v-127zM1077 0h-1018v112h1018v-112z" />
    <glyph glyph-name="greaterequal" unicode="&#x2265;" horiz-adv-x="1124" 
d="M1077 711l-1018 -471v127l887 407l-887 408v127l1018 -471v-127zM1077 0h-1018v112h1018v-112z" />
    <glyph glyph-name="lozenge" unicode="&#x25ca;" horiz-adv-x="1012" 
d="M962 763l-397 -763h-122l-397 763l397 763h122zM839 763l-335 652l-335 -652l335 -652z" />
    <glyph glyph-name="fi" unicode="&#xfb01;" horiz-adv-x="1565" 
d="M1415 1358q98 0 160.5 -42.5t62.5 -107.5q0 -70 -88.5 -128t-199.5 -58q-98 0 -161 41t-63 104q0 71 89 131t200 60zM1524 864l-168 -520q-60 -183 -60 -190q0 -33 23 -33q29 0 68.5 51t76.5 139l39 -16q-131 -301 -395 -301q-122 0 -199.5 48t-77.5 122q0 26 14 70
l179 557h-285l-258 -791h-481l258 791h-121l15 40h118l52 160q26 84 71.5 152t104.5 115t127 70.5t141 23.5q109 0 179.5 -55.5t70.5 -139.5q0 -74 -56 -128t-133 -54q-72 0 -124 51t-52 123q0 111 107 154l-4 4q-96 -9 -139.5 -84.5t-43.5 -149.5q0 -110 70 -176t188 -66
h138q309 0 557 33z" />
    <glyph glyph-name="fl" unicode="&#xfb02;" horiz-adv-x="1565" 
d="M1700 1378l-385 -1190q-8 -21 -8 -38q0 -29 22 -29q56 0 144 190l38 -16q-70 -156 -164.5 -228.5t-242.5 -72.5q-119 0 -192.5 49.5t-73.5 128.5q0 28 30 123l326 1005h-131l12 41h53q321 0 572 37zM272 831l54 170q25 79 70 146t103.5 112.5t126.5 69t140 23.5
q108 0 180 -56t72 -139q0 -73 -57 -128.5t-132 -55.5q-70 0 -123 51.5t-53 120.5q0 50 31 96t78 55l-6 11q-86 -8 -134.5 -78t-48.5 -158q0 -109 70 -174.5t186 -65.5h74l-12 -40h-152l-256 -791h-481l256 791h-119l15 40h118z" />
    <glyph glyph-name="apple" horiz-adv-x="725" 
d="M395 981q130 0 222 -91.5t92 -221.5t-92 -222t-222 -92t-221.5 92t-91.5 222t91.5 221.5t221.5 91.5z" />
    <glyph glyph-name="foursuperior" horiz-adv-x="831" 
d="M749 1356l-180 -479h71l-12 -37h-74l-55 -149h98l-12 -35h-536l14 35h123l57 149h-348l571 516h283zM382 1209l-4 4l-366 -336h243z" />
    </font>
</defs>
</svg>
